<?xml version="1.0" encoding="utf-8"?>
<!-- Generator: Adobe Illustrator 24.1.0, SVG Export Plug-In . SVG Version: 6.00 Build 0)  -->
<svg version="1.1" id="Capa_1" xmlns="http://www.w3.org/2000/svg" xmlns:xlink="http://www.w3.org/1999/xlink" x="0px" y="0px"
	 viewBox="0 0 512 512" style="enable-background:new 0 0 512 512;" xml:space="preserve">
<style type="text/css">
	.st0{fill:#2EDED1;}
</style>
<g>
	<path class="st0" d="M406,31H286c-57.9,0-105,47.1-105,105c0,52.8,39.2,96.6,90,103.9V286c0,6.1,3.6,11.5,9.3,13.9
		c5.5,2.3,12,1.1,16.3-3.3l55.6-55.6H406c57.9,0,106-47.1,106-105S463.9,31,406,31L406,31z M286,151c-8.3,0-15-6.7-15-15
		s6.7-15,15-15s15,6.7,15,15S294.3,151,286,151z M346,151c-8.3,0-15-6.7-15-15s6.7-15,15-15s15,6.7,15,15S354.3,151,346,151z
		 M406,151c-8.3,0-15-6.7-15-15s6.7-15,15-15s15,6.7,15,15S414.3,151,406,151z"/>
	<path class="st0" d="M337,481c24.8,0,45-20.2,45-45v-60c0-6.5-4.1-12.2-10.3-14.2l-89.8-30c-4.4-1.5-9.2-0.8-13.1,1.7L230.7,359
		c-40.4-19.3-88.4-67.3-107.7-107.7l25.4-38.2c2.6-3.9,3.2-8.7,1.7-13.1l-30-89.8c-2-6.1-7.8-10.3-14.2-10.3H45
		c-24.8,0-45,20-45,44.8C0,317.6,164.2,481,337,481L337,481z"/>
</g>
</svg>
