<?xml version="1.0" encoding="utf-8"?>
<!-- Generator: Adobe Illustrator 24.1.0, SVG Export Plug-In . SVG Version: 6.00 Build 0)  -->
<svg version="1.1" id="Layer_1" xmlns="http://www.w3.org/2000/svg" xmlns:xlink="http://www.w3.org/1999/xlink" x="0px" y="0px"
	 viewBox="0 0 500 500" style="enable-background:new 0 0 500 500;" xml:space="preserve">
<style type="text/css">
	.st0{fill:#D71515;}
	.st1{fill:#898989;}
	.st2{fill:#E2E2E2;}
	.st3{fill:#9B9B9B;}
	.st4{fill:#DCD9C8;}
	.st5{opacity:0.1;fill:#1D1D1B;enable-background:new    ;}
	.st6{fill:#BCBCBC;}
	.st7{fill:#DF4937;}
	.st8{fill:#3E8CC7;}
	.st9{fill:#A18D81;}
	.st10{fill:#FFFFFF;}
	.st11{opacity:0.15;fill:#1D1D1B;enable-background:new    ;}
</style>
<path class="st0" d="M350.1,361.8"/>
<g>
	<g>
		<rect x="349" class="st1" width="71.7" height="38.1"/>
	</g>
	<rect y="38.1" class="st2" width="500" height="461.9"/>
	<rect y="433.4" class="st3" width="500" height="66.6"/>
	<rect x="192.9" y="370.8" class="st4" width="114.2" height="106.8"/>
	<g>
		<rect x="79.3" class="st1" width="71.7" height="38.1"/>
	</g>
	<g>
		<path class="st5" d="M151,0c-12.1,23.9-41.1,31.8-71.7,38.1H151V0z"/>
	</g>
	<g>
		<path class="st5" d="M420.7,0c-12,23.9-41,31.8-71.7,38.1h71.7V0z"/>
	</g>
	<rect x="141" y="477.6" class="st6" width="218.1" height="22.4"/>
	<rect x="141" y="293.8" class="st7" width="218.1" height="56.1"/>
	<rect x="157.8" y="349.9" class="st1" width="15.1" height="127.6"/>
	<rect x="327.1" y="349.9" class="st1" width="15.1" height="127.6"/>
	<rect x="200.5" y="380.1" class="st8" width="44.7" height="97.5"/>
	<rect x="254.7" y="380.1" class="st8" width="44.7" height="97.5"/>
	<g>
		<rect x="25.2" y="71.6" class="st4" width="54.1" height="90.5"/>
		<rect x="31.5" y="78.9" class="st8" width="41.6" height="75.7"/>
		<rect x="28.7" y="100.7" class="st4" width="47" height="7.4"/>
	</g>
	<g>
		<rect x="420.7" y="71.6" class="st4" width="54.1" height="90.5"/>
		<rect x="427" y="78.9" class="st8" width="41.6" height="75.7"/>
		<rect x="424.3" y="100.7" class="st4" width="47" height="7.4"/>
	</g>
	<g>
		<rect x="103.7" y="71.6" class="st4" width="54.1" height="90.5"/>
		<rect x="110" y="78.9" class="st8" width="41.6" height="75.7"/>
		<rect x="107.2" y="100.7" class="st4" width="47" height="7.4"/>
	</g>
	<g>
		<rect x="342.2" y="71.6" class="st4" width="54.1" height="90.5"/>
		<rect x="348.4" y="78.9" class="st8" width="41.6" height="75.7"/>
		<rect x="345.8" y="100.7" class="st4" width="47" height="7.4"/>
	</g>
	<g>
		<rect x="182.2" y="71.6" class="st4" width="54.1" height="90.5"/>
		<rect x="188.5" y="78.9" class="st8" width="41.6" height="75.7"/>
		<rect x="185.7" y="100.7" class="st4" width="47" height="7.4"/>
	</g>
	<g>
		<rect x="263.6" y="71.6" class="st4" width="54.1" height="90.5"/>
		<rect x="269.9" y="78.9" class="st8" width="41.6" height="75.7"/>
		<rect x="267.3" y="100.7" class="st4" width="47" height="7.4"/>
	</g>
	<g>
		<rect x="25.2" y="186.2" class="st4" width="54.1" height="90.5"/>
		<rect x="31.5" y="193.6" class="st8" width="41.6" height="75.7"/>
		<rect x="28.7" y="215.3" class="st4" width="47" height="7.4"/>
	</g>
	<g>
		<rect x="420.7" y="186.2" class="st4" width="54.1" height="90.5"/>
		<rect x="427" y="193.6" class="st8" width="41.6" height="75.7"/>
		<rect x="424.3" y="215.3" class="st4" width="47" height="7.4"/>
	</g>
	<g>
		<rect x="103.7" y="186.2" class="st4" width="54.1" height="90.5"/>
		<rect x="110" y="193.6" class="st8" width="41.6" height="75.7"/>
		<rect x="107.2" y="215.3" class="st4" width="47" height="7.4"/>
	</g>
	<g>
		<rect x="342.2" y="186.2" class="st4" width="54.1" height="90.5"/>
		<rect x="348.4" y="193.6" class="st8" width="41.6" height="75.7"/>
		<rect x="345.8" y="215.3" class="st4" width="47" height="7.4"/>
	</g>
	<g>
		<rect x="182.2" y="186.2" class="st4" width="54.1" height="90.5"/>
		<rect x="188.5" y="193.6" class="st8" width="41.6" height="75.7"/>
		<rect x="185.7" y="215.3" class="st4" width="47" height="7.4"/>
	</g>
	<rect x="263.6" y="186.2" class="st4" width="54.1" height="90.5"/>
	<rect x="269.9" y="193.6" class="st8" width="41.6" height="75.7"/>
	<rect x="267.3" y="215.3" class="st4" width="47" height="7.4"/>
	<g>
		<rect x="25.2" y="300.9" class="st4" width="94" height="106.2"/>
		<rect x="30.5" y="308.2" class="st8" width="83.4" height="91.5"/>
		<rect x="28.7" y="330" class="st4" width="86.7" height="7.4"/>
	</g>
	<g>
		<rect x="380.9" y="300.9" class="st4" width="94" height="106.2"/>
		<rect x="386.1" y="308.2" class="st8" width="83.4" height="91.5"/>
		<rect x="384.6" y="330" class="st4" width="86.7" height="7.4"/>
	</g>
	<g>
		<g>
			<path class="st9" d="M177.4,322h-9.9v16.1c0,0.6-0.2,1.1-0.6,1.4c-0.4,0.3-0.9,0.5-1.5,0.5c-0.5,0-1-0.2-1.4-0.5
				c-0.4-0.3-0.7-0.8-0.7-1.4v-35.4c0-0.6,0.2-1.1,0.7-1.4c0.4-0.3,0.9-0.4,1.4-0.4s1,0.1,1.5,0.4s0.6,0.7,0.6,1.4v14.8h9.9v-14.8
				c0-0.6,0.2-1.1,0.7-1.4c0.4-0.3,0.9-0.4,1.4-0.4s1,0.1,1.5,0.4s0.7,0.7,0.7,1.4v35.4c0,0.6-0.2,1.1-0.7,1.4s-0.9,0.5-1.5,0.5
				c-0.5,0-1-0.2-1.4-0.5c-0.4-0.3-0.7-0.8-0.7-1.4V322z"/>
			<path class="st9" d="M198.2,340.4c-1.3,0-2.5-0.2-3.6-0.6c-1.1-0.4-2-1.1-2.8-2.1c-0.8-0.9-1.4-2.2-1.9-3.7
				c-0.4-1.5-0.7-3.4-0.7-5.5v-15.6c0-2.2,0.2-4,0.7-5.5s1.1-2.7,1.9-3.7c0.8-0.9,1.7-1.6,2.8-2.1c1.1-0.4,2.3-0.6,3.6-0.6
				c1.3,0,2.4,0.2,3.5,0.6c1.1,0.4,2,1.1,2.9,2.1c0.8,0.9,1.4,2.2,1.9,3.7s0.7,3.4,0.7,5.5v15.6c0,2.2-0.2,4-0.7,5.5
				c-0.5,1.5-1.1,2.7-1.9,3.7c-0.8,0.9-1.8,1.6-2.9,2.1C200.6,340.1,199.5,340.4,198.2,340.4z M202.9,312.9c0-2.3-0.4-4.1-1.3-5.2
				c-0.8-1.1-2-1.7-3.5-1.7c-1.5,0-2.7,0.6-3.5,1.7c-0.8,1.1-1.2,2.9-1.2,5.2v15.6c0,2.3,0.4,4.1,1.2,5.2c0.8,1.1,2,1.7,3.5,1.7
				c1.5,0,2.6-0.6,3.5-1.7c0.8-1.1,1.3-2.9,1.3-5.2V312.9z"/>
			<path class="st9" d="M221.9,335.3c1.4,0,2.6-0.5,3.6-1.4c0.9-0.9,1.4-2.3,1.4-4.3c0-1.6-0.3-2.8-1-3.8c-0.6-0.9-1.4-1.8-2.4-2.4
				c-1-0.7-2-1.3-3.1-1.9c-1.1-0.6-2.2-1.3-3.1-2.1c-1-0.8-1.8-1.9-2.4-3.2s-0.9-3-0.9-5.2c0-2,0.3-3.6,0.8-4.9
				c0.6-1.3,1.3-2.4,2.2-3.2c0.9-0.8,1.9-1.4,3-1.7c1.1-0.3,2.2-0.5,3.2-0.5c0.6,0,1.4,0.1,2.2,0.2c0.8,0.1,1.6,0.3,2.4,0.6
				c0.7,0.3,1.4,0.7,1.9,1.2s0.8,1.1,0.8,1.9c0,0.3,0,0.6-0.1,0.9s-0.2,0.7-0.3,1c-0.1,0.3-0.3,0.6-0.6,0.8
				c-0.2,0.2-0.5,0.3-0.8,0.3c-0.3,0-0.5-0.1-0.8-0.3c-0.3-0.2-0.6-0.4-1.1-0.7c-0.4-0.2-0.9-0.5-1.5-0.7c-0.6-0.2-1.3-0.3-2.1-0.3
				c-1.5,0-2.7,0.4-3.6,1.2c-0.9,0.8-1.4,2-1.4,3.7c0,1.3,0.3,2.4,1,3.1s1.4,1.4,2.4,2c1,0.6,2,1.2,3.1,1.7c1.1,0.6,2.2,1.3,3.1,2.3
				c0.9,0.9,1.8,2.2,2.4,3.6c0.6,1.5,1,3.4,1,5.7c0,1.9-0.2,3.6-0.7,5c-0.4,1.4-1.1,2.6-1.9,3.6c-0.8,0.9-1.8,1.7-2.9,2.1
				c-1.1,0.5-2.3,0.7-3.6,0.7c-1.3,0-2.5-0.2-3.6-0.6c-1.1-0.4-2-0.9-2.8-1.6c-0.8-0.6-1.4-1.3-1.8-2c-0.4-0.7-0.6-1.4-0.6-2.1
				c0-0.3,0.1-0.7,0.1-1c0.1-0.4,0.2-0.7,0.4-1c0.2-0.3,0.4-0.5,0.6-0.7c0.2-0.2,0.5-0.3,0.7-0.3c0.4,0,0.7,0.2,1,0.7
				c0.3,0.4,0.8,0.9,1.3,1.4c0.5,0.5,1.1,1,1.8,1.4C219.9,335.1,220.8,335.3,221.9,335.3z"/>
			<path class="st9" d="M237.8,302.8c0-0.5,0.1-0.9,0.4-1.3c0.3-0.4,0.7-0.5,1.2-0.5h7.8c1.2,0,2.4,0.2,3.4,0.6c1.1,0.4,2,1.1,2.8,2
				c0.8,0.9,1.4,2.2,1.9,3.7c0.4,1.5,0.7,3.3,0.7,5.5v0.4c0,2.1-0.2,4-0.7,5.5c-0.5,1.5-1.1,2.7-1.9,3.7c-0.8,0.9-1.8,1.6-2.9,2.1
				c-1.1,0.4-2.3,0.6-3.5,0.6h-4.9v13.2c0,0.6-0.2,1.1-0.7,1.4c-0.4,0.3-0.9,0.5-1.5,0.5c-0.5,0-1-0.2-1.4-0.5
				c-0.4-0.3-0.7-0.8-0.7-1.4L237.8,302.8L237.8,302.8z M242.1,306v14.5h4.9c1.5,0,2.6-0.6,3.5-1.7c0.8-1.1,1.3-2.9,1.3-5.2v-0.6
				c0-2.3-0.4-4.1-1.3-5.2c-0.8-1.1-2-1.7-3.5-1.7H242.1z"/>
			<path class="st9" d="M262.2,302.8c0-0.6,0.2-1.1,0.7-1.4c0.4-0.3,0.9-0.4,1.5-0.4s1,0.1,1.5,0.4s0.7,0.7,0.7,1.4v35.4
				c0,0.6-0.2,1.1-0.7,1.4s-0.9,0.5-1.5,0.5c-0.5,0-1-0.2-1.5-0.5c-0.4-0.3-0.7-0.8-0.7-1.4V302.8z"/>
			<path class="st9" d="M290.2,301c0.5,0,0.8,0.3,1.1,0.8c0.2,0.5,0.3,1.1,0.3,1.7c0,0.7-0.1,1.3-0.4,1.9c-0.2,0.5-0.6,0.8-1,0.8
				h-6.1v32c0,0.6-0.2,1.1-0.7,1.4c-0.4,0.3-0.9,0.5-1.5,0.5s-1-0.2-1.5-0.5c-0.4-0.3-0.7-0.8-0.7-1.4v-32h-6.2
				c-0.5,0-0.8-0.3-1-0.8c-0.2-0.5-0.4-1.1-0.4-1.9c0-0.6,0.1-1.2,0.3-1.7c0.2-0.5,0.6-0.8,1.1-0.8L290.2,301L290.2,301z"/>
			<path class="st9" d="M295.8,340c-0.3,0-0.6,0-0.9-0.2s-0.6-0.3-0.9-0.5c-0.3-0.2-0.5-0.5-0.6-0.7s-0.2-0.6-0.2-1
				c0-0.2,0-0.4,0-0.5l7.9-34.6c0.2-0.6,0.5-1.1,1-1.4c0.5-0.3,1.1-0.5,1.7-0.5c0.6,0,1.2,0.2,1.7,0.5c0.5,0.3,0.9,0.8,1,1.4
				l7.9,34.6c0,0.2,0.1,0.4,0.1,0.5c0,0.3-0.1,0.6-0.3,0.9s-0.4,0.5-0.6,0.7c-0.3,0.2-0.5,0.4-0.9,0.5c-0.3,0.1-0.6,0.2-0.9,0.2
				c-0.4,0-0.6-0.1-0.9-0.3c-0.3-0.2-0.4-0.5-0.5-0.9l-1.6-7.6h-9.8l-1.6,7.6c-0.1,0.4-0.3,0.7-0.5,0.9
				C296.4,339.9,296.1,340,295.8,340z M307.7,326.7l-4-18.3l-4,18.3H307.7z"/>
			<path class="st9" d="M322.1,340c-0.5,0-0.9-0.2-1.3-0.5s-0.6-0.8-0.6-1.4v-35.4c0-0.6,0.2-1.1,0.7-1.4c0.4-0.3,0.9-0.4,1.5-0.4
				s1,0.1,1.5,0.4s0.7,0.7,0.7,1.4V335h10.4c0.4,0,0.7,0.3,1,0.8c0.2,0.5,0.3,1.1,0.3,1.7c0,0.6-0.1,1.2-0.3,1.7
				c-0.2,0.5-0.5,0.8-1,0.8L322.1,340L322.1,340z"/>
		</g>
		<g>
			<path class="st10" d="M177.4,322h-9.9v16.1c0,0.6-0.2,1.1-0.6,1.4c-0.4,0.3-0.9,0.5-1.5,0.5c-0.5,0-1-0.2-1.4-0.5
				c-0.4-0.3-0.7-0.8-0.7-1.4v-35.4c0-0.6,0.2-1.1,0.7-1.4c0.4-0.3,0.9-0.4,1.4-0.4s1,0.1,1.5,0.4s0.6,0.7,0.6,1.4v14.8h9.9v-14.8
				c0-0.6,0.2-1.1,0.7-1.4c0.4-0.3,0.9-0.4,1.4-0.4s1,0.1,1.5,0.4s0.7,0.7,0.7,1.4v35.4c0,0.6-0.2,1.1-0.7,1.4s-0.9,0.5-1.5,0.5
				c-0.5,0-1-0.2-1.4-0.5c-0.4-0.3-0.7-0.8-0.7-1.4V322z"/>
			<path class="st10" d="M198.2,340.4c-1.3,0-2.5-0.2-3.6-0.6c-1.1-0.4-2-1.1-2.8-2.1c-0.8-0.9-1.4-2.2-1.9-3.7
				c-0.4-1.5-0.7-3.4-0.7-5.5v-15.6c0-2.2,0.2-4,0.7-5.5s1.1-2.7,1.9-3.7c0.8-0.9,1.7-1.6,2.8-2.1c1.1-0.4,2.3-0.6,3.6-0.6
				c1.3,0,2.4,0.2,3.5,0.6c1.1,0.4,2,1.1,2.9,2.1c0.8,0.9,1.4,2.2,1.9,3.7s0.7,3.4,0.7,5.5v15.6c0,2.2-0.2,4-0.7,5.5
				c-0.5,1.5-1.1,2.7-1.9,3.7c-0.8,0.9-1.8,1.6-2.9,2.1C200.6,340.1,199.5,340.4,198.2,340.4z M202.9,312.9c0-2.3-0.4-4.1-1.3-5.2
				c-0.8-1.1-2-1.7-3.5-1.7c-1.5,0-2.7,0.6-3.5,1.7c-0.8,1.1-1.2,2.9-1.2,5.2v15.6c0,2.3,0.4,4.1,1.2,5.2c0.8,1.1,2,1.7,3.5,1.7
				c1.5,0,2.6-0.6,3.5-1.7c0.8-1.1,1.3-2.9,1.3-5.2V312.9z"/>
			<path class="st10" d="M221.9,335.3c1.4,0,2.6-0.5,3.6-1.4c0.9-0.9,1.4-2.3,1.4-4.3c0-1.6-0.3-2.8-1-3.8c-0.6-0.9-1.4-1.8-2.4-2.4
				c-1-0.7-2-1.3-3.1-1.9c-1.1-0.6-2.2-1.3-3.1-2.1c-1-0.8-1.8-1.9-2.4-3.2s-0.9-3-0.9-5.2c0-2,0.3-3.6,0.8-4.9
				c0.6-1.3,1.3-2.4,2.2-3.2c0.9-0.8,1.9-1.4,3-1.7c1.1-0.3,2.2-0.5,3.2-0.5c0.6,0,1.4,0.1,2.2,0.2c0.8,0.1,1.6,0.3,2.4,0.6
				c0.7,0.3,1.4,0.7,1.9,1.2s0.8,1.1,0.8,1.9c0,0.3,0,0.6-0.1,0.9s-0.2,0.7-0.3,1c-0.1,0.3-0.3,0.6-0.6,0.8
				c-0.2,0.2-0.5,0.3-0.8,0.3c-0.3,0-0.5-0.1-0.8-0.3c-0.3-0.2-0.6-0.4-1.1-0.7c-0.4-0.2-0.9-0.5-1.5-0.7c-0.6-0.2-1.3-0.3-2.1-0.3
				c-1.5,0-2.7,0.4-3.6,1.2c-0.9,0.8-1.4,2-1.4,3.7c0,1.3,0.3,2.4,1,3.1s1.4,1.4,2.4,2c1,0.6,2,1.2,3.1,1.7c1.1,0.6,2.2,1.3,3.1,2.3
				c0.9,0.9,1.8,2.2,2.4,3.6c0.6,1.5,1,3.4,1,5.7c0,1.9-0.2,3.6-0.7,5c-0.4,1.4-1.1,2.6-1.9,3.6c-0.8,0.9-1.8,1.7-2.9,2.1
				c-1.1,0.5-2.3,0.7-3.6,0.7c-1.3,0-2.5-0.2-3.6-0.6c-1.1-0.4-2-0.9-2.8-1.6c-0.8-0.6-1.4-1.3-1.8-2c-0.4-0.7-0.6-1.4-0.6-2.1
				c0-0.3,0.1-0.7,0.1-1c0.1-0.4,0.2-0.7,0.4-1c0.2-0.3,0.4-0.5,0.6-0.7c0.2-0.2,0.5-0.3,0.7-0.3c0.4,0,0.7,0.2,1,0.7
				c0.3,0.4,0.8,0.9,1.3,1.4c0.5,0.5,1.1,1,1.8,1.4C219.9,335.1,220.8,335.3,221.9,335.3z"/>
			<path class="st10" d="M237.8,302.8c0-0.5,0.1-0.9,0.4-1.3c0.3-0.4,0.7-0.5,1.2-0.5h7.8c1.2,0,2.4,0.2,3.4,0.6
				c1.1,0.4,2,1.1,2.8,2c0.8,0.9,1.4,2.2,1.9,3.7c0.4,1.5,0.7,3.3,0.7,5.5v0.4c0,2.1-0.2,4-0.7,5.5c-0.5,1.5-1.1,2.7-1.9,3.7
				c-0.8,0.9-1.8,1.6-2.9,2.1c-1.1,0.4-2.3,0.6-3.5,0.6h-4.9v13.2c0,0.6-0.2,1.1-0.7,1.4c-0.4,0.3-0.9,0.5-1.5,0.5
				c-0.5,0-1-0.2-1.4-0.5c-0.4-0.3-0.7-0.8-0.7-1.4L237.8,302.8L237.8,302.8z M242.1,306v14.5h4.9c1.5,0,2.6-0.6,3.5-1.7
				c0.8-1.1,1.3-2.9,1.3-5.2v-0.6c0-2.3-0.4-4.1-1.3-5.2c-0.8-1.1-2-1.7-3.5-1.7H242.1z"/>
			<path class="st10" d="M262.2,302.8c0-0.6,0.2-1.1,0.7-1.4c0.4-0.3,0.9-0.4,1.5-0.4s1,0.1,1.5,0.4s0.7,0.7,0.7,1.4v35.4
				c0,0.6-0.2,1.1-0.7,1.4s-0.9,0.5-1.5,0.5c-0.5,0-1-0.2-1.5-0.5c-0.4-0.3-0.7-0.8-0.7-1.4V302.8z"/>
			<path class="st10" d="M290.2,301c0.5,0,0.8,0.3,1.1,0.8c0.2,0.5,0.3,1.1,0.3,1.7c0,0.7-0.1,1.3-0.4,1.9c-0.2,0.5-0.6,0.8-1,0.8
				h-6.1v32c0,0.6-0.2,1.1-0.7,1.4c-0.4,0.3-0.9,0.5-1.5,0.5s-1-0.2-1.5-0.5c-0.4-0.3-0.7-0.8-0.7-1.4v-32h-6.2
				c-0.5,0-0.8-0.3-1-0.8c-0.2-0.5-0.4-1.1-0.4-1.9c0-0.6,0.1-1.2,0.3-1.7c0.2-0.5,0.6-0.8,1.1-0.8L290.2,301L290.2,301z"/>
			<path class="st10" d="M295.8,340c-0.3,0-0.6,0-0.9-0.2s-0.6-0.3-0.9-0.5c-0.3-0.2-0.5-0.5-0.6-0.7s-0.2-0.6-0.2-1
				c0-0.2,0-0.4,0-0.5l7.9-34.6c0.2-0.6,0.5-1.1,1-1.4c0.5-0.3,1.1-0.5,1.7-0.5c0.6,0,1.2,0.2,1.7,0.5c0.5,0.3,0.9,0.8,1,1.4
				l7.9,34.6c0,0.2,0.1,0.4,0.1,0.5c0,0.3-0.1,0.6-0.3,0.9s-0.4,0.5-0.6,0.7c-0.3,0.2-0.5,0.4-0.9,0.5c-0.3,0.1-0.6,0.2-0.9,0.2
				c-0.4,0-0.6-0.1-0.9-0.3c-0.3-0.2-0.4-0.5-0.5-0.9l-1.6-7.6h-9.8l-1.6,7.6c-0.1,0.4-0.3,0.7-0.5,0.9
				C296.4,339.9,296.1,340,295.8,340z M307.7,326.7l-4-18.3l-4,18.3H307.7z"/>
			<path class="st10" d="M322.1,340c-0.5,0-0.9-0.2-1.3-0.5s-0.6-0.8-0.6-1.4v-35.4c0-0.6,0.2-1.1,0.7-1.4c0.4-0.3,0.9-0.4,1.5-0.4
				s1,0.1,1.5,0.4s0.7,0.7,0.7,1.4V335h10.4c0.4,0,0.7,0.3,1,0.8c0.2,0.5,0.3,1.1,0.3,1.7c0,0.6-0.1,1.2-0.3,1.7
				c-0.2,0.5-0.5,0.8-1,0.8L322.1,340L322.1,340z"/>
		</g>
	</g>
	<path class="st11" d="M180,342.6c-13.4,0-26.4-0.6-39-1.7v9H359v-54.5C323.9,323.6,256.9,342.6,180,342.6z"/>
	<path class="st5" d="M25.2,162h54.1V71.6C74.1,115.3,61,150.7,25.2,162z"/>
	<path class="st5" d="M103.6,162h54.1V71.6C152.6,115.3,139.5,150.7,103.6,162z"/>
	<path class="st5" d="M182.1,162h54.1V71.6C231,115.3,217.9,150.7,182.1,162z"/>
	<path class="st5" d="M263.7,162h54.1V71.6C312.6,115.3,299.5,150.7,263.7,162z"/>
	<path class="st5" d="M342.2,162h54.1V71.6C391.1,115.3,378,150.7,342.2,162z"/>
	<path class="st5" d="M25.2,276.7h54.1v-90.5C74.1,230,61,265.4,25.2,276.7z"/>
	<path class="st5" d="M103.6,276.7h54.1v-90.5C152.6,230,139.5,265.4,103.6,276.7z"/>
	<path class="st5" d="M182.1,276.7h54.1v-90.5C231,230,217.9,265.4,182.1,276.7z"/>
	<path class="st5" d="M263.7,276.7h54.1v-90.5C312.6,230,299.5,265.4,263.7,276.7z"/>
	<path class="st5" d="M342.2,276.7h54.1v-90.5C391.1,230,378,265.4,342.2,276.7z"/>
	<path class="st5" d="M420.6,162h54.1V71.6C469.5,115.3,456.4,150.7,420.6,162z"/>
	<path class="st5" d="M420.6,276.7h54.1v-90.5C469.5,230,456.4,265.4,420.6,276.7z"/>
	<path class="st5" d="M25.2,407.1h94V300.9C113.7,368.9,79.7,400.9,25.2,407.1z"/>
	<path class="st5" d="M381,407.1h94V300.9C469.5,368.9,435.4,400.9,381,407.1z"/>
	<polygon class="st5" points="341.8,364.7 158.2,364.7 141,349.9 359,349.9 	"/>
	<path class="st5" d="M245.3,477.6h-44.7c20.3-16.3,38.4-39,44.7-97.5V477.6z"/>
	<path class="st5" d="M299.5,477.6h-44.7c20.3-16.3,38.4-39,44.7-97.5V477.6z"/>
	<rect x="232.1" y="420.1" class="st4" width="8.9" height="17.5"/>
	<rect x="259.1" y="420.1" class="st4" width="8.9" height="17.5"/>
</g>
</svg>
