<?xml version="1.0" encoding="utf-8"?>
<!-- Generator: Adobe Illustrator 24.1.0, SVG Export Plug-In . SVG Version: 6.00 Build 0)  -->
<svg version="1.1" id="OBJECTS" xmlns="http://www.w3.org/2000/svg" xmlns:xlink="http://www.w3.org/1999/xlink" x="0px" y="0px"
	 viewBox="0 0 500 500" style="enable-background:new 0 0 500 500;" xml:space="preserve">
<style type="text/css">
	.st0{fill:#153556;}
	.st1{fill:#1C4B72;}
	.st2{clip-path:url(#SVGID_2_);fill:none;stroke:#0A1D35;stroke-width:2;stroke-miterlimit:10;}
	.st3{clip-path:url(#SVGID_2_);fill:#4FC9B8;}
	.st4{opacity:0.3;clip-path:url(#SVGID_2_);fill:#9B9B9B;}
	.st5{opacity:0.5;clip-path:url(#SVGID_2_);fill:#9B9B9B;}
	.st6{clip-path:url(#SVGID_2_);fill:#FFFFFF;}
	.st7{clip-path:url(#SVGID_2_);}
	.st8{fill:#C7DAEA;}
	.st9{clip-path:url(#SVGID_2_);fill:#C7DAEA;}
	.st10{clip-path:url(#SVGID_2_);fill:#95B3C6;}
	.st11{clip-path:url(#SVGID_2_);fill:#0E263F;}
	.st12{clip-path:url(#SVGID_2_);fill:#F29A86;}
	.st13{clip-path:url(#SVGID_2_);fill:#FFAF99;}
	.st14{fill:#0E263F;}
	.st15{opacity:0.5;clip-path:url(#SVGID_2_);fill:#E5886E;}
	.st16{clip-path:url(#SVGID_2_);fill:#E2E2E2;}
	
		.st17{clip-path:url(#SVGID_2_);fill:none;stroke:#0A1D35;stroke-width:2;stroke-linecap:round;stroke-linejoin:round;stroke-miterlimit:10;}
	.st18{clip-path:url(#SVGID_2_);fill:#0A1D35;}
	.st19{fill:none;}
	.st20{clip-path:url(#SVGID_4_);fill:#FFFFFF;}
	.st21{fill:#FFFFFF;}
	.st22{fill:#FFFFFF;stroke:#FFFFFF;stroke-linecap:round;stroke-linejoin:round;stroke-miterlimit:10;}
	.st23{fill:none;stroke:#FFFFFF;stroke-linecap:round;stroke-linejoin:round;stroke-miterlimit:10;}
	.st24{opacity:0.3;fill:#FFFFFF;}
</style>
<g>
	<g>
		<g>
			<g>
				<path class="st0" d="M365.1,485c0,8.3-6.8,15-15,15H171.6c-8.3,0-15-6.8-15-15V110.6c0-8.3,6.8-15,15-15h178.5
					c8.3,0,15,6.8,15,15V485z"/>
			</g>
			<rect x="162.8" y="122.6" class="st1" width="196.7" height="331.6"/>
			<g>
				<defs>
					<rect id="SVGID_1_" x="139.3" width="251.6" height="454.1"/>
				</defs>
				<clipPath id="SVGID_2_">
					<use xlink:href="#SVGID_1_"  style="overflow:visible;"/>
				</clipPath>
				<path class="st2" d="M237.4,131.5c13.9-7.8,38.6-8.4,49.7,1.1"/>
				<polygon class="st3" points="230.2,135.2 242.7,129.2 271.6,114.8 284.1,131.3 297.2,136.8 315.9,142.4 309.4,432.7 227.8,434 
					215.3,166.5 				"/>
				<path class="st4" d="M230.2,135.7c-2.3,45.5,34.3,98.5,34.8,131.9c0,0,11.7-44.3,16.7-60.1c5-15.8,17.3-60,15.5-70.7l10.7,120.8
					l-36.5,22.8l-39.2-18.7c0,0-11.2-64.4-11.2-66.2C221.9,150.3,230.1,135.7,230.2,135.7z"/>
				<path class="st3" d="M261.7,493.3c-0.9,10.6-10.3,110.9-28.4,204.4c-18.4,95-13.7,191.6-13.7,191.6s-6.2,2.7-19.2,3.6
					c-12.1,0.9-22.3-2.7-22.3-2.7s-8.9-148.8-1-203.4c12.3-84.9-5.3-215.6,7.9-256.2c0,0,21.7-25,46.7-25.3
					c25.5-0.4,57.2-0.7,80.8-0.5c14.4,0.1,23.4,25,28.6,25.7c1,27.9,9.4,144.5,2.1,250c-6.4,94-0.9,177.6-0.6,204.8
					c0,0-6.2,4.8-24,6.5c-17.5,1.7-24.1-3-24.1-3s-15.9-151.5-12.4-208c2.9-46.2-12.8-187.4-12.8-187.4L261.7,493.3z"/>
				<path class="st5" d="M182.8,654.5c25.7,12.1,76.8,9,80.4-72.9l7.5,0c2.6,24.8,10.4,59.8,36.4,67.8c23.4,7.2,37.8,4.5,40.4,3.7
					l-27.2-156.2l-45.6-107.7l-13.4,0.1l-72.4,221.9l-6.1,29.3V654.5z"/>
				<path class="st6" d="M265.4,270.3c0.1-6.6,23.2-59.8,30.1-99.9c3.5-20.6,1.7-24.9,1.7-33.6c12.1,2.8,21.6,5.2,41,13.2l4.3,72.8
					c1.6,13-1,70.8,1.4,123.9c1.2,28.2,8.6,109,8.9,112.6c4.9,49.8,8.8,75.5,9.9,87.7c0.1,0.9-20.7,12.6-49.5,3.1
					c-15.1-5-34.6-32.7-36.9-86.2C273.1,393.6,265.4,270.7,265.4,270.3z"/>
				<path class="st6" d="M265.9,277.5c0-29.8-27.7-69.1-35.1-104.4c-3.6-17.2-3.4-30.6-0.6-38c-9.2,4.4-36.4,11.2-48,18.4l1.4,78.9
					c1.3,18.5,2.9,60.4,1.9,104.3c-1.5,67.8-20.1,137-36.9,203c-0.1,0.3,40.9,23.4,76.6,12c27.7-8.8,32.6-60.6,32.4-101.5
					C257.6,450.2,265.9,279,265.9,277.5z"/>
				<g class="st7">
					<path class="st8" d="M278.2,334.9c0,3.2,2.6,5.8,5.8,5.8c3.2,0,5.8-2.6,5.8-5.8c0-3.2-2.6-5.8-5.8-5.8
						C280.8,329.1,278.2,331.7,278.2,334.9z"/>
				</g>
				<g class="st7">
					<path class="st8" d="M281.2,383.3c0,3.2,2.6,5.8,5.8,5.8c3.2,0,5.8-2.6,5.8-5.8c0-3.2-2.6-5.8-5.8-5.8
						C283.8,377.5,281.2,380.1,281.2,383.3z"/>
				</g>
				<path class="st6" d="M188.8,277.5c21-0.7,52.6-1.4,87.3-1.4c9,0.2,5.5,33.3,2.1,27.9c-18.9,0.6-123.3,27.7-129.3,13.1
					c-4.1-9.9,18.7-137.6,28.8-158.1c5.8-8.9,11.3-12.3,23.9,3.1c9.4,11.6,3,38.4,0.6,45.7C198.4,219.5,188.8,277.5,188.8,277.5z"/>
				<path class="st9" d="M272,314.3c0,0,68,13.8,71.8,25.8l-0.4-14.7L272,314.3z"/>
				<path class="st9" d="M185.7,319.8l60.7-10.6c0,0-60.5,14.1-60.9,25.7"/>
				<path class="st9" d="M197.1,277.2l-8.3,0.3l10.1-55.9C198.9,221.5,193.7,269.2,197.1,277.2z"/>
				<path class="st9" d="M227.5,442.2c0,0-3.7,58.6-15.1,61.5c-10.1,2.6-33.4-3.8-33.4-3.8s29.5,9.3,36.6,6
					C228.1,500,227.5,442.2,227.5,442.2z"/>
				<path class="st9" d="M297.6,444.1c0,0,5.1,55.8,16.4,59.2c9.9,3,29.8,0.3,29.8,0.3s-26.1,5.3-33,1.7
					C298.5,499,297.6,444.1,297.6,444.1z"/>
				<path class="st9" d="M215.4,215.6c0,4.4-3.6,7.9-7.9,7.9c-4.4,0-7.9-3.5-7.9-7.9c0-4.4,3.6-7.9,7.9-7.9
					C211.8,207.7,215.4,211.3,215.4,215.6z"/>
				<path class="st10" d="M211.9,215.6c0,2.4-2,4.4-4.4,4.4c-2.4,0-4.4-2-4.4-4.4c0-2.4,2-4.4,4.4-4.4
					C209.9,211.2,211.9,213.2,211.9,215.6z"/>
				<path class="st11" d="M264.8,70.2c0,15.2-12.3,27.5-27.4,27.5c-15.2,0-27.5-12.3-27.5-27.4c0-15.2,12.3-27.5,27.4-27.5
					C252.5,42.8,264.8,55.1,264.8,70.2z"/>
				<path class="st12" d="M310.4,66.3c-0.9,6.9-6.3,15.8-11.4,13.1c-4.1-2.2-7.6-5.7-6.7-12.7c0.9-6.9,4.5-10.3,10-11.4
					C308.3,54.1,311.3,59.3,310.4,66.3z"/>
				<path class="st13" d="M308.8,57.5c-1.1-1.4-7-2.1-8.8,3.1l0.6-4.9c0,0,1.9-0.9,4.2-0.5C307.8,55.6,308.8,57.5,308.8,57.5z"/>
				<path class="st12" d="M221.2,66.3c0.9,6.9,6.3,15.8,11.4,13.1c4.1-2.2,7.6-5.8,6.7-12.7c-0.9-6.9-4.5-10.3-10-11.4
					C223.3,54.1,220.2,59.4,221.2,66.3z"/>
				<path class="st13" d="M222.8,57.6c1.1-1.4,7-2.1,8.8,3.1l-0.6-4.9c0,0-1.9-0.9-4.2-0.5C223.8,55.7,222.8,57.6,222.8,57.6z"/>
				<path class="st13" d="M245,103.1c1.7,7-1.7,22.2-2.4,26.1c-1.4,0.5-9,4.3-9,4.3c0,8.2,1.3,21,9.5,30.2
					c9.6,10.7,19.6,25.3,19.6,37.6l2.5,0.1c0-13.2,10.4-27.7,20.9-39c9.4-10.1,7.3-22,7.3-27.1l-9.4-3.9c-0.5-1.5-3.2-14.5-0.3-25.7
					L245,103.1z"/>
				<path class="st12" d="M245.3,106.4c0,0,0.2,2.7-0.3,7.3c0,0,10.6,15.2,18.6,15.6c8,0.4,18.9-12.8,18.9-12.8s0.2-9.1,0.8-12.9
					L245.3,106.4z"/>
				<path class="st13" d="M301.4,57.6c-0.9,19.3-17.2,34.3-36.5,33.5c-19.3-0.9-34.3-17.2-33.5-36.6c1.1-26,17.4-37.7,36.7-36.9
					C287.5,18.4,302.6,32.1,301.4,57.6z"/>
				<path class="st13" d="M301.4,57.6c-0.8,18.7-1.5,34.4-9.1,44.3c-4.6,5.9-16.2,16-24.4,18.3c-2,0.6-7.8,0-9.7-0.8
					c-7.9-3.2-17.7-13.9-21.6-19.9c-6.7-10.5-6-26.2-5.2-44.9"/>
				<path class="st11" d="M286.7,71.1c-0.1,3.2-2.2,5.7-4.5,5.6c-2.4-0.1-4.2-2.8-4-6c0.1-3.2,2.2-5.7,4.5-5.6
					C285,65.3,286.8,67.9,286.7,71.1z"/>
				<path class="st11" d="M253.9,69.8c-0.1,3.2-2.2,5.7-4.5,5.6c-2.4-0.1-4.2-2.8-4-6c0.1-3.2,2.2-5.7,4.5-5.6
					C252.3,64,254.1,66.7,253.9,69.8z"/>
				<g class="st7">
					<path class="st14" d="M273,54.9c2-0.4,4-0.6,6-0.5c2,0,4,0.2,6,0.5c2,0.4,3.9,0.8,5.8,1.7c1.9,0.8,3.7,1.9,5,3.5
						c0.1,0.1,0.1,0.3,0,0.4c-0.1,0.1-0.2,0.1-0.3,0.1l0,0c-1.9-0.7-3.7-1.1-5.5-1.6c-1.8-0.4-3.7-0.8-5.5-1.2l-5.6-1.1
						c-1.9-0.4-3.8-0.7-5.7-1.2l0,0c-0.2,0-0.3-0.2-0.2-0.4C272.8,55,272.8,54.9,273,54.9z"/>
				</g>
				<g class="st7">
					<path class="st14" d="M258.6,55.9c-3.8,0.7-7.5,1.2-11.1,1.9c-1.8,0.3-3.6,0.7-5.4,1.1c-1.8,0.4-3.5,0.9-5.3,1.5l0,0
						c-0.2,0.1-0.4,0-0.5-0.3c0-0.1,0-0.3,0.1-0.4c1.4-1.5,3.2-2.5,5-3.3c1.8-0.8,3.8-1.2,5.7-1.6c1.9-0.3,3.9-0.4,5.8-0.4
						c1.9,0,3.9,0.2,5.8,0.7c0.2,0.1,0.4,0.3,0.3,0.5C258.8,55.8,258.7,55.9,258.6,55.9L258.6,55.9z"/>
				</g>
				<path class="st12" d="M258.9,89.7c2.1-0.8,9.4-0.5,11.1,0.5c1.7,1-3.8,2-5.6,1.9C262.5,92,257.2,90.4,258.9,89.7z"/>
				<path class="st15" d="M268.7,110.4c-3.2-0.7-8.7-0.8-11.2-0.5c-1.8,0.2,2.4-1.4,5.6-1.2C266.1,108.8,270.4,110.8,268.7,110.4z"
					/>
				<path class="st6" d="M253.5,97.2c6.7,2.3,15,2.3,21.5,1.8c0.8-0.1,0.4,0.1-0.3,1c-1.3,1.5-5.4,6-10.8,5.7
					c-5.2-0.3-9.8-6.8-10.9-8.7C252.5,96.2,252.9,96.9,253.5,97.2z"/>
				<path class="st12" d="M251.9,95.8c4.3,0.7,9.6-1.7,12,1c3.4-2.1,9.1,1.7,13.5,1.7c0.1,0,0.2,0.2-0.1,0.2
					c-2.3,0.7-15.3,3.3-25.5-2.4C251.3,96,251.3,95.7,251.9,95.8z"/>
				<path class="st12" d="M252.1,96.4c0,0,3.4,5.6,5.8,7.9c2.3,2.2,9,2.9,11.7,1.1c2.5-1.7,6.6-6.6,6.6-6.6s-1,0.3-1,0.3
					c-2.4,1.4-3.8,2.9-6.5,3.8c-2.7,0.9-5.6,1-8.2,0.1c-3.5-1.1-4.2-3.7-6.6-5.6c0,0-1.2-0.7-1.2-0.7L252.1,96.4z"/>
				<path class="st16" d="M254.5,97.6c1.8,1.4,5.2,2.7,9.6,3c5.2,0.4,10.8-1.4,10.8-1.4s-5.6,0.8-10.5,0.6
					C259.2,99.6,254.5,97.6,254.5,97.6z"/>
				<path class="st17" d="M207.7,215.6c-1.9-33.5,6.9-75,34.3-86.4"/>
				<path class="st9" d="M228.6,138.4l-3.9,98l14.7,1.6l-10.9,11.4l37.6,24.9c0,0-0.3-16.9-21.2-61
					C229.7,181.3,229.3,164.6,228.6,138.4z"/>
				<path class="st9" d="M297.2,136.8l7.2,99.7l-13.9,1.6l11,11.4l-35.3,24.9l-0.8-5.7c0,0,16.2-43.3,23.3-69.6
					C297.8,165.6,297.2,136.8,297.2,136.8z"/>
				<path class="st13" d="M336.7,278c-21-0.7-63.5-12-98.2-11.9c-2.3,0.1-32,8-32.1,11.5c4.5-0.3,13.8,0.9,22.3,5.9
					c11.1,6.6,21.3,17.4,22.7,15.1c18.9,0.5,117.6,37.5,125.7,23.9c8.5-14.2-0.2-44.8-2.7-59.3c-4.6-27.3-9.8-54.9-17.1-81.6
					c-5-18.3-19.9-47.4-38.6-22.9c-9.1,11.9-0.5,43.5,4.3,49.5C327.6,214.3,336.7,278,336.7,278z"/>
				<path class="st12" d="M271.4,305.3l-21.8-10c0,0-23.9-18.6-41.8-19.1l-1.5,1.3c0,0,21.6,0.4,32.5,14.3
					c5.1,6.5,16.5,8.3,19.5,15.7C258.4,307.5,267.8,305.9,271.4,305.3z"/>
				<path class="st6" d="M260.9,267.3c0,0-11.7,21.5-0.3,45.1c0,0,104.4,17.9,115.8,14c11.4-3.9,2.2-50-1.3-67.5
					c-3.4-17.5-14.9-103-38.9-109.6l-9.6-3.8l-12.8,6.1c0,0-8.9,30.4-9.1,31.1c-0.2,0.7,1.7,48.5,1.7,48.5l25.5,41.2L260.9,267.3z"
					/>
				<path class="st13" d="M333.6,257.5c8.7,1.4,13.5,24.5,1.2,26.2c-7.5,1-12.3-1.7-18.3-6.8c-5.1-4.4-18.4-6.9-26.1-7.4
					C290.5,269.5,318.6,255.1,333.6,257.5z"/>
				<path class="st9" d="M329.5,218.6c0.5,1.9,4.1,38.9,4.1,38.9s-3.8-0.7-8.2,0C325.4,257.5,332,254.1,329.5,218.6z"/>
				<path class="st18" d="M294.5,249.2c0,1.3-1.1,2.4-2.4,2.4c-1.3,0-2.4-1.1-2.4-2.4c0-1.3,1.1-2.4,2.4-2.4
					C293.4,246.8,294.5,247.8,294.5,249.2z"/>
				<path class="st18" d="M321.5,249.2c0,1.3-1.1,2.4-2.4,2.4c-1.3,0-2.4-1.1-2.4-2.4c0-1.3,1.1-2.4,2.4-2.4
					C320.4,246.8,321.5,247.8,321.5,249.2z"/>
				<path class="st18" d="M292.2,249.2c0,1-0.8,1.8-1.8,1.8H289c-1,0-1.8-0.8-1.8-1.8l0,0c0-1,0.8-1.8,1.8-1.8h1.4
					C291.4,247.3,292.2,248.2,292.2,249.2L292.2,249.2z"/>
				<path class="st18" d="M323.7,249.2c0,1-0.8,1.8-1.8,1.8h-1.4c-1,0-1.8-0.8-1.8-1.8l0,0c0-1,0.8-1.8,1.8-1.8h1.4
					C322.9,247.3,323.7,248.2,323.7,249.2L323.7,249.2z"/>
				<path class="st17" d="M284.5,130.6c16,9.8,18.9,32.2,21.7,53.9"/>
				<path class="st2" d="M292.1,249.2c-18.8-43.9,14.2-64.7,14.2-64.7s35.3,21.4,12.8,64.7"/>
				<g class="st7">
					<path class="st8" d="M280.5,334.1c0,1.9,1.6,0,3.5,0c2,0,3.5,1.9,3.5,0c0-2-1.6-3.5-3.5-3.5
						C282.1,330.5,280.5,332.1,280.5,334.1z"/>
				</g>
				<g class="st7">
					<path class="st8" d="M283.5,382.8c0,2,1.6,0,3.5,0c2,0,3.5,1.9,3.5,0c0-1.9-1.6-3.5-3.5-3.5
						C285.1,379.3,283.5,380.9,283.5,382.8z"/>
				</g>
				<path class="st13" d="M301.2,64.5c0,0,2.6,3.5,2.2,5.6c-0.4,2.1-3.1,3.8-3.1,3.8L301.2,64.5z"/>
				<path class="st13" d="M230.4,64.5c0,0-2.6,3.5-2.2,5.6c0.4,2.1,3.1,3.8,3.1,3.8L230.4,64.5z"/>
				<path class="st12" d="M231.4,67.9c0.2-7.3,4.9-22.6,11.8-27.4c7-4.9,11.4-12,11.4-12s-0.2,10.1,12.6,13.1
					c14,3.2,27.3,5.6,31.8,16.5l0.8-4.9l-44-34.4l-20.2,22.9l-5.7,13.8L231.4,67.9z"/>
				<path class="st11" d="M300.2,72.9c-0.2-9.6,0.5-17.2-7.3-24.1c-11-9.7-20.7-6.3-29.5-12.3c-8.2-5.6-9.1-14.4-8.2-23
					c0.5-4.5,10.5-6.9,17.9-5.5c24,4.6,30.4,29.6,29.5,48.8C302.1,66.7,300.2,72.9,300.2,72.9z"/>
				<path class="st11" d="M254.9,22.1c-1.7,5.8-6.3,10.5-12.1,14.9c-11.6,8.8-12,31.6-11.3,37.7c0,0-4.2-11.8-4.4-25.9
					c-0.3-19.8,16-44.1,29.3-35.1C256.2,16.7,255.7,19.5,254.9,22.1z"/>
			</g>
			<path class="st19" d="M337,130.4c0.6,0,1.1-0.5,1.1-1.2c0-0.6-0.5-1.1-1.1-1.1c-0.6,0-1.2,0.5-1.2,1.1
				C335.8,129.9,336.3,130.4,337,130.4z"/>
			<g>
				<g>
					<defs>
						<rect id="SVGID_3_" x="338.4" y="127" width="15.7" height="8.5"/>
					</defs>
					<clipPath id="SVGID_4_">
						<use xlink:href="#SVGID_3_"  style="overflow:visible;"/>
					</clipPath>
					<path class="st20" d="M353.9,127h-14c-0.1,0-0.2,0.1-0.2,0.2v2.1h-1.1c-0.1,0-0.2,0.1-0.2,0.2v3.5c0,0.1,0.1,0.2,0.2,0.2h1.1
						v2.1c0,0.1,0.1,0.2,0.2,0.2h14c0.1,0,0.2-0.1,0.2-0.2v-8.1C354.1,127.1,354,127,353.9,127L353.9,127z M351.9,133.3h-4.4v-4.1
						h4.4V133.3z"/>
				</g>
				<path class="st21" d="M334.3,131.3L334.3,131.3c0.2-0.4,0.3-0.9,0.3-1.3c0-1.7-1.3-3-3-3c-1.7,0-3,1.4-3,3
					c0,0.5,0.1,0.9,0.3,1.3l0,0c0,0,0,0.1,0.1,0.2c0,0.1,0.1,0.1,0.1,0.2c0.6,0.9,1.9,3.1,2.1,3.5c0.3,0.4,0.5,0.3,0.7,0
					c0.2-0.2,1.6-2.6,2.1-3.5c0-0.1,0.1-0.1,0.1-0.2C334.3,131.4,334.3,131.3,334.3,131.3z M331.6,128.5c0.8,0,1.5,0.7,1.5,1.5
					c0,0.8-0.7,1.5-1.5,1.5c-0.8,0-1.5-0.7-1.5-1.5C330.1,129.2,330.8,128.5,331.6,128.5z"/>
				<rect x="317.2" y="131.5" class="st22" width="0.9" height="3.3"/>
				<rect x="320.2" y="129.3" class="st22" width="0.9" height="5.5"/>
				<rect x="323.2" y="127.1" class="st22" width="0.9" height="7.7"/>
			</g>
			<polygon class="st23" points="199.9,476.1 194.2,470.3 188.4,476.1 188.4,481.9 199.9,481.9 			"/>
			<path class="st23" d="M266.7,476.1c0,3.2-2.6,5.8-5.8,5.8c-3.2,0-5.8-2.6-5.8-5.8c0-3.2,2.6-5.8,5.8-5.8
				C264.1,470.3,266.7,472.9,266.7,476.1z"/>
			<g>
				<line class="st23" x1="329.5" y1="481.9" x2="329.5" y2="472.2"/>
				<line class="st23" x1="325.2" y1="481.9" x2="325.2" y2="472.2"/>
				<line class="st23" x1="321" y1="481.9" x2="321" y2="472.2"/>
			</g>
			<path class="st21" d="M176.4,110.1c0,1.7-1.4,3.1-3.1,3.1c-1.7,0-3.1-1.4-3.1-3.1c0-1.7,1.4-3.1,3.1-3.1
				C175.1,107,176.4,108.4,176.4,110.1z"/>
			<path class="st24" d="M185.4,110.1c0,1.7-1.4,3.1-3.1,3.1c-1.7,0-3.1-1.4-3.1-3.1c0-1.7,1.4-3.1,3.1-3.1
				C184,107,185.4,108.4,185.4,110.1z"/>
		</g>
	</g>
</g>
<g>
</g>
<g>
</g>
<g>
</g>
<g>
</g>
<g>
</g>
<g>
</g>
<g>
</g>
<g>
</g>
<g>
</g>
<g>
</g>
<g>
</g>
<g>
</g>
<g>
</g>
<g>
</g>
<g>
</g>
</svg>
