<?xml version="1.0" encoding="utf-8"?>
<!-- Generator: Adobe Illustrator 24.1.0, SVG Export Plug-In . SVG Version: 6.00 Build 0)  -->
<svg version="1.1" id="Layer_1" xmlns="http://www.w3.org/2000/svg" xmlns:xlink="http://www.w3.org/1999/xlink" x="0px" y="0px"
	 viewBox="0 0 500 500" style="enable-background:new 0 0 500 500;" xml:space="preserve">
<style type="text/css">
	.st0{fill:#D71515;}
	.st1{fill:#4398D1;}
	.st2{fill:#939393;}
	.st3{fill:#BFDFE7;}
	.st4{fill:#3E8CC7;}
</style>
<path class="st0" d="M350.1,361.8"/>
<g>
	<g>
		<path class="st1" d="M352.9,0c-23.8,0-43.1,19.3-43.1,43.1s-19.3,43.1-43.1,43.1v43.1h103.4c23.8,0,43.1-19.3,43.1-43.1
			c23.8,0,43.1-19.3,43.1-43.1c23.8,0,43.1-19.3,43.1-43.1C499.4,0,352.9,0,352.9,0z"/>
		<path class="st1" d="M189.1,43.1C189.1,19.3,169.8,0,146,0H-0.5c0,23.8,19.3,43.1,43.1,43.1c0,23.8,19.3,43.1,43.1,43.1
			c0,23.8,19.3,43.1,43.1,43.1h103.4V86.2C208.4,86.2,189.1,66.9,189.1,43.1z"/>
	</g>
	<path class="st2" d="M249.5,0c-14.3,0-25.9,11.5-25.9,25.8c0,7.4,3.1,14.4,8.6,19.3v446.1h34.5V45.2c10.7-9.5,11.6-25.8,2.1-36.5
		C263.9,3.1,256.9,0,249.5,0z"/>
	<g>
		<rect x="232.2" y="318.9" class="st2" width="34.5" height="25.9"/>
		<rect x="232.2" y="413.7" class="st2" width="34.5" height="25.9"/>
	</g>
	<path class="st3" d="M249.5,499.9c-0.8,0.1-1.6,0.1-2.3,0l0,0c-35.7,0-64.7-28.9-64.7-64.6l0,0l0,0c0-35.7,28.9-64.6,64.6-64.6l0,0
		h45.4c14.3,0,25.9-11.6,25.9-25.9l0,0c0-14.3-11.6-25.9-25.9-25.9h-86.2v-43.1h86.2c38.1,0,69,30.9,69,69l0,0c0,38.1-30.9,69-69,69
		H255c-16.2,0-29.3,13-29.4,29.2c0,0.1,0,0.1,0,0.2l0,0l0,0c0,6.8,2.4,13.4,6.6,18.7l11.6,14.1"/>
	<path class="st3" d="M316.9,336.2h44c-4.3-34.5-33.6-60.3-68.4-60.3v43.1C303.5,319,313.2,325.9,316.9,336.2z"/>
	<path class="st3" d="M145.2,318.3c-38.9-4.8-68.1-37.8-68.1-77l0,0c0-42.9,34.7-77.6,77.6-77.6h17.2l25.9,25.9v17.2h-43.1
		c-19,0-34.5,15.4-34.5,34.5l0,0c0,19,15.4,34.5,34.5,34.5h137.9"/>
	<g>
		<path class="st1" d="M344.3,163.8h-17.2l-25.9,25.9v17.2h43.1c19,0,34.5,15.4,34.5,34.5s-15.4,34.5-34.5,34.5H206.4
			c-38.1,0.1-68.9,31-68.8,69.1c0.1,30.6,20.3,57.5,49.6,66c10-24.5,33.9-40.5,60.3-40.3h-41.2c-14.3,0-25.9-11.6-25.9-25.9
			s11.6-25.9,25.9-25.9h137.9c42.9,0,77.6-34.7,77.6-77.6S387.1,163.8,344.3,163.8z"/>
		<path class="st1" d="M309.8,435.3c0-7.3-1.2-14.6-3.7-21.5l-0.6-1.3c-4.3,0.9-8.6,1.3-12.9,1.3H255c-1.6-0.1-3.2-0.1-4.7,0
			c10.3,5.5,16.6,16.3,16.5,27.9v1.5c-0.1,8.6-3.9,16.8-10.6,22.3l-12.3,10.3l-5.6,4.6c-4.6,3.9-5.2,10.7-1.3,15.3
			c1.9,2.2,4.5,3.6,7.4,3.8h5.3C283.4,497.4,309.7,469.3,309.8,435.3z"/>
	</g>
	<g>
		<path class="st4" d="M264.7,431h45.1c-0.3-5.9-1.5-11.7-3.4-17.2l-0.6-1.3c-4.4,0.9-8.8,1.3-13.3,1.3H255c-1.6-0.1-3.2-0.1-4.7,0
			C257.1,417.5,262.2,423.6,264.7,431z"/>
		<path class="st4" d="M442.1,0C417.5,75.8,330,105.2,266.7,120.7v8.6h103.4c23.8,0,43.1-19.3,43.1-43.1c23.8,0,43.1-19.3,43.1-43.1
			c23.8,0,43.1-19.3,43.1-43.1L442.1,0L442.1,0z"/>
	</g>
</g>
</svg>
