<?xml version="1.0" encoding="utf-8"?>
<!-- Generator: Adobe Illustrator 24.1.0, SVG Export Plug-In . SVG Version: 6.00 Build 0)  -->
<svg version="1.1" id="Layer_1" xmlns="http://www.w3.org/2000/svg" xmlns:xlink="http://www.w3.org/1999/xlink" x="0px" y="0px"
	 viewBox="0 0 500 500" style="enable-background:new 0 0 500 500;" xml:space="preserve">
<style type="text/css">
	.st0{fill:#B2F7ED;}
	.st1{fill:#FCCEB6;}
	.st2{fill:#19BDB9;}
	.st3{fill:#FDDCC9;}
	.st4{fill:#FDB296;}
	.st5{fill:#663D3D;}
	.st6{fill:#E55959;}
	.st7{fill:#FAA0A0;}
	.st8{fill:#FFFFFF;}
	.st9{fill:#19CFCD;}
	.st10{opacity:0.2;}
	.st11{fill:#EFF0F0;}
	.st12{fill:none;stroke:#92DAF0;stroke-width:0.75;stroke-miterlimit:10;}
	.st13{fill:#92DAF0;}
	.st14{opacity:0.7;fill:#FFFFFF;}
	.st15{fill:#919395;}
</style>
<g>
	<circle class="st0" cx="252.3" cy="247.3" r="239.5"/>
</g>
<g>
	<g>
		<polyline class="st1" points="186.6,282.4 184.4,421.7 199.6,421.7 213.3,279.7 		"/>
		<path class="st2" d="M191.7,413.2c-6.7,0-12.1,5.4-12.1,12.1h24.1C203.8,418.6,198.4,413.2,191.7,413.2z"/>
	</g>
	<g>
		<polyline class="st1" points="243.2,282.4 245.4,421.7 230.2,421.7 216.5,279.7 		"/>
		<path class="st2" d="M238.3,413.2c6.7,0,12.1,5.4,12.1,12.1h-24.1C226.3,418.6,231.7,413.2,238.3,413.2z"/>
	</g>
	<polygon class="st2" points="222,259.6 205,259.6 180.7,259.6 182.8,402.7 207.9,402.7 214.5,294.2 222.8,402.7 247.9,402.7 
		249.8,259.6 	"/>
	<path class="st3" d="M246.5,169.8l19.7,20.8l14.5-6c0,0-16.8-37-32.8-41.4C247.9,143.2,227.1,149.7,246.5,169.8z"/>
	<g>
		<path class="st3" d="M314.4,168.6l-43.6,8.3c0,0-8.2,2.6-5.5,12.2c1.6,5.4,11.5,4.4,11.5,4.4c7.4,0,40.3-13.9,40.3-13.9
			L314.4,168.6z"/>
		<path class="st3" d="M312.6,180.9c6.7,0.5,8.3,0.9,11.4-2c2.4-2.2,3.8-6.9,3.5-10.4c-0.6-7.1-6.1-5.8-6.1-5.8s-0.7-3.5-4.7-1.9
			c-4,1.6-8.2,11.3-8.2,11.3"/>
	</g>
	<g>
		<g>
			<g>
				<g>
					<g>
						<path class="st1" d="M197.1,161.6c0.1-6.1,0.5-12.7-0.4-18.9c-18.7-9-48.3-12.2-54.7-13.2l-2.7,16c0,0,39.6,15.9,57.5,22
							C197.1,165.3,197.1,163.1,197.1,161.6z"/>
					</g>
					<g>
						<g>
							<path class="st1" d="M144,97.1c-5.1-3.1-8.9-5.5-9.6-9.2c-0.6-2.9,2.8-6.9,5.2-8.8c5-4,7.7,2.5,7.7,2.5s2.2-4.4,4.2-1.2
								c2.1,3.2,0,12.4,0,12.4"/>
							<path class="st1" d="M151.9,90.3l1,48c0,0-1.2,9.3-11.5,7.9c-6.9-0.9-6.6-10.9-6.6-10.9c-1.3-7.5,7.6-46.9,7.6-46.9
								L151.9,90.3z"/>
						</g>
					</g>
				</g>
				<path class="st1" d="M147.7,80.8c1.7,2.6-0.2,6.4-3.6,9.3c-5,4.2-7,2.9-9,0.5c-1.9-2.5-0.9-7.7,2.5-10.4
					C141.2,77.4,144.7,76.2,147.7,80.8z"/>
			</g>
			<polygon class="st1" points="227.3,131.3 225.6,113.4 206.6,113.4 205,131.3 191.5,135.1 202.6,163.1 229.6,163.1 240.8,135.1 
							"/>
			<g>
				<path class="st3" d="M236.7,107.2c0,10.7-9.2,19.4-20.6,19.4c-11.4,0-20.6-8.7-20.6-19.4c0-27.1,9.2-28,20.6-28
					C227.5,79.2,236.7,81,236.7,107.2z"/>
				<path class="st3" d="M232.5,104.2c0,3.3,1.9,6.1,4.3,6.1c2.4,0,4.3-2.7,4.3-6.1c0-3.3-1.9-6.1-4.3-6.1
					C234.4,98.1,232.5,100.8,232.5,104.2"/>
				<path class="st3" d="M191.5,104.2c0,3.3,1.9,6.1,4.3,6.1c2.4,0,4.3-2.7,4.3-6.1c0-3.3-1.9-6.1-4.3-6.1
					C193.4,98.1,191.5,100.8,191.5,104.2"/>
			</g>
			<g>
				<g>
					<g>
						<path class="st4" d="M219,110.8c0,0.7-1.1,1.3-2.4,1.3c-1.3,0-2.4-0.6-2.4-1.3c0-0.7,1.1-1.3,2.4-1.3
							C217.9,109.5,219,110,219,110.8z"/>
					</g>
				</g>
				<g>
					<path class="st5" d="M206,105c0,1.4,0.8,0.1,1.8,0.1c1,0,1.8,1.3,1.8-0.1c0-1.4-0.8-2.5-1.8-2.5C206.8,102.5,206,103.6,206,105
						z"/>
				</g>
				<g>
					<path class="st5" d="M223.5,105c0,1.4,0.8,0.1,1.8,0.1c1,0,1.8,1.3,1.8-0.1c0-1.4-0.8-2.5-1.8-2.5
						C224.3,102.5,223.5,103.6,223.5,105z"/>
				</g>
			</g>
			<g>
				<g>
					<path class="st6" d="M224.5,116.6c0,3.4-3.7,6.2-8.2,6.2c-4.5,0-8.2-2.8-8.2-6.2c0-3.4,3.7,0.3,8.2,0.3
						C220.8,116.9,224.5,113.2,224.5,116.6z"/>
				</g>
				<path class="st7" d="M216.2,119.8c-2,0-3.9,0.6-5.3,1.5c1.4,0.9,3.3,1.5,5.3,1.5c2,0,3.9-0.6,5.3-1.5
					C220.1,120.4,218.3,119.8,216.2,119.8z"/>
				<path class="st8" d="M216.2,116.9c-2.7,0-5-1.3-6.5-1.6c1.3,2.4,3.7,2.7,6.5,2.7c2.9,0,5.3-0.3,6.5-2.7
					C221.3,115.6,218.9,116.9,216.2,116.9z"/>
			</g>
			<path class="st9" d="M249.7,220.9l-0.3-51.8l3.9-33.9c0,0-10.1-1.8-23.1-3.5l-14.2,11l-14.2-11c-11.9-0.3-23.7,3.9-23.7,3.9
				l4.5,33.5l-0.3,51.8c0,0-4.8,48.5-4.2,47.6H254C254.5,269.4,249.7,220.9,249.7,220.9z"/>
			<polyline class="st9" points="187.5,133.3 164.2,132.3 169.7,163.8 203.8,169.8 			"/>
			<polyline class="st9" points="245.7,174.2 254.2,187.4 275,162 253.3,135.2 			"/>
		</g>
	</g>
	<g>
		<g>
			<path class="st8" d="M231.5,122.8c0,0-5.5,2.1-14.9,2.1c-9.5,0-15-2.1-15-2.1V108c0,0,7.9,0.8,14.9,0.8c7,0,15-0.8,15-0.8V122.8z
				"/>
			<path class="st8" d="M236.8,102.4c-2.5,3.4-6.6,6.3-6.6,6.3l0.8,1.2c1.9-1.2,4.3-3.8,5.8-5.6
				C236.8,103.7,236.8,103.1,236.8,102.4z"/>
		</g>
		<path class="st8" d="M236.8,108.6c-0.3,1.5-1.7,6.7-6.4,12.9l0.6,1.3c2.9-2.6,5.4-9.6,6.3-12.5
			C236.9,109.8,236.8,109.1,236.8,108.6z"/>
		<path class="st8" d="M195.5,102.4c2.5,3.4,7.1,6.3,7.1,6.3l-0.8,1.2c-1.9-1.2-4.8-3.8-6.3-5.6
			C195.5,103.7,195.5,103.1,195.5,102.4z"/>
		<path class="st8" d="M196.1,108.6c0.3,1.5,1.7,6.7,6.4,12.9l-0.6,1.3c-2.9-2.6-5.4-9.6-6.3-12.5
			C196,109.8,196.1,109.1,196.1,108.6z"/>
	</g>
	<g>
		<path class="st5" d="M216.1,91.1c2.8,0,6.2-0.2,9.9-0.9c12-2.4,10.5,15.9,10.5,15.9c4.7-15,1.9-22.8,1.9-22.8
			c-0.8-2.2-1.6-3.9-2.9-5.9c-4.3-6.3-12.2-8.2-19.4-8c-7.2-0.2-15,1.7-19.4,8c-1.3,1.9-2.2,3.6-2.9,5.9c0,0-2.7,7.9,1.9,22.8
			c0,0-1.5-18.3,10.5-15.9C209.9,90.9,213.3,91.1,216.1,91.1z"/>
		<g class="st10">
			<path class="st8" d="M238.9,85.8c-0.8,1.7-2.6,4.9-5.7,6.5c4,4.4,3.2,13.8,3.2,13.8C239.6,96,239.4,89.2,238.9,85.8z"/>
			<path class="st8" d="M193.1,87.5c-0.3,3.8,0,10,2.6,18.6c0,0-0.7-8.9,2.9-13.5C196,91.5,194.2,89.3,193.1,87.5z"/>
		</g>
	</g>
	<g>
		
			<rect x="300.7" y="175.2" transform="matrix(0.9501 -0.3119 0.3119 0.9501 -39.4639 104.8364)" class="st8" width="14.6" height="1.1"/>
		<g>
			
				<rect x="310" y="171.4" transform="matrix(0.9565 -0.2917 0.2917 0.9565 -37.3985 98.5598)" class="st11" width="3.5" height="6.5"/>
			
				<rect x="303.7" y="173.6" transform="matrix(0.9564 -0.292 0.292 0.9564 -38.3139 96.9266)" class="st11" width="3.5" height="6.5"/>
		</g>
	</g>
	<path class="st12" d="M302.4,135.7v116.8c0,0,2,88.2-12.2,74.1c-14.2-14.2-17-138.2,11-148.6"/>
	<g>
		<g>
			<g>
				<g>
					<path class="st11" d="M301.8,102.7c-1.9,0-3.3-3.3-3.3-7.6c0-4.3,1.4-7.6,3.3-7.6c1.9,0,3.3,3.3,3.3,7.6
						C305.1,99.5,303.7,102.7,301.8,102.7z M301.8,88.5c-1.1,0-2.4,2.8-2.4,6.6c0,3.8,1.2,6.6,2.4,6.6c1.1,0,2.4-2.8,2.4-6.6
						C304.2,91.4,302.9,88.5,301.8,88.5z"/>
				</g>
				<g>
					<path class="st11" d="M314.9,131c0,2.2-1.8,4-4,4h-17c-2.2,0-4-1.8-4-4v-28.2c0-2.2,1.8-4,4-4h17c2.2,0,4,1.8,4,4V131z"/>
					<path class="st11" d="M304.7,137.2c0,0.4-0.3,0.8-0.8,0.8h-3.2c-0.4,0-0.8-0.3-0.8-0.8v-2.9c0-0.4,0.3-0.8,0.8-0.8h3.2
						c0.4,0,0.8,0.3,0.8,0.8V137.2z"/>
					<path class="st13" d="M290.8,112.7v17.1c0,2,1.7,3.7,3.7,3.7h15.7c2.1,0,3.7-1.6,3.7-3.7v-17.1H290.8z"/>
					<rect x="294.3" y="98.8" class="st14" width="6.3" height="36.2"/>
				</g>
			</g>
			<g>
				<rect x="330.5" y="82.7" class="st11" width="3.6" height="328"/>
				<rect x="330.5" y="210.1" class="st15" width="3.6" height="73.2"/>
				<rect x="330.5" y="391.3" class="st15" width="3.6" height="19.4"/>
				<path class="st11" d="M365.8,88.2c-3.2,4.8-5.8-2.8-6.1-4.7c-0.2-1.5-1-2.9-2.4-3.6c-1.7-1-4.7-0.5-6.6-0.5
					c-5.9,0-11.8-0.1-17.6-0.1c0,0,0,0-0.1,0c-0.2,0-0.4,0-0.6,0c-0.2,0-0.4,0-0.6,0c0,0,0,0-0.1,0c-5.9,0-11.8,0.1-17.6,0.1
					c-1.8,0-4.9-0.5-6.6,0.5c-1.3,0.8-2.1,2.1-2.4,3.6c-0.3,1.9-2.9,9.5-6.1,4.7c-1.7-2.6-6-0.2-4.2,2.5c2.6,4,7.3,4.8,11.2,1.8
					c2.2-1.7,3.3-3.8,3.7-6.6c0.3-1.9-0.1-1.6,1.7-1.6c7,0,13.9-0.1,20.9-0.1c7,0,13.9,0.1,20.9,0.1c1.8,0,1.4-0.2,1.7,1.6
					c0.4,2.8,1.5,4.8,3.7,6.6c3.8,3,8.5,2.2,11.2-1.8C371.8,88,367.6,85.6,365.8,88.2z"/>
			</g>
		</g>
		<rect x="309.1" y="407.5" class="st15" width="47.1" height="4.9"/>
		<g>
			<rect x="330.9" y="408.6" class="st15" width="3.4" height="8.7"/>
			<path class="st15" d="M336,417.3c0,1.9-1.5,3.4-3.4,3.4c-1.9,0-3.4-1.5-3.4-3.4c0-1.9,1.5-3.4,3.4-3.4
				C334.5,414,336,415.5,336,417.3z"/>
		</g>
		<g>
			<rect x="309" y="408.6" class="st15" width="3.4" height="8.7"/>
			<path class="st15" d="M314.1,417.3c0,1.9-1.5,3.4-3.4,3.4c-1.9,0-3.4-1.5-3.4-3.4c0-1.9,1.5-3.4,3.4-3.4
				C312.6,414,314.1,415.5,314.1,417.3z"/>
		</g>
		<g>
			<rect x="352.7" y="408.6" class="st15" width="3.4" height="8.7"/>
			<path class="st15" d="M357.8,417.3c0,1.9-1.5,3.4-3.4,3.4c-1.9,0-3.4-1.5-3.4-3.4c0-1.9,1.5-3.4,3.4-3.4
				C356.3,414,357.8,415.5,357.8,417.3z"/>
		</g>
	</g>
</g>
<g>
</g>
<g>
</g>
<g>
</g>
<g>
</g>
<g>
</g>
<g>
</g>
<g>
</g>
<g>
</g>
<g>
</g>
<g>
</g>
<g>
</g>
<g>
</g>
<g>
</g>
<g>
</g>
<g>
</g>
</svg>
