<?xml version="1.0" encoding="utf-8"?>
<!-- Generator: Adobe Illustrator 24.1.0, SVG Export Plug-In . SVG Version: 6.00 Build 0)  -->
<svg version="1.1" id="Layer_1" xmlns="http://www.w3.org/2000/svg" xmlns:xlink="http://www.w3.org/1999/xlink" x="0px" y="0px"
	 viewBox="0 0 500 500" style="enable-background:new 0 0 500 500;" xml:space="preserve">
<style type="text/css">
	.st0{fill:#B2F7ED;}
	.st1{fill:#D5D6DB;}
	.st2{fill:#E56353;}
	.st3{fill:#EBF0F3;}
	.st4{fill:#27A2DB;}
	.st5{opacity:0.25;}
	.st6{fill:#474C5B;}
</style>
<g>
	<circle class="st0" cx="247.1" cy="249.5" r="239.5"/>
</g>
<g>
	<path class="st1" d="M73.2,221h349.4v173.9H73.2V221z"/>
	<path class="st2" d="M63,215.6h368.1v24.2H63V215.6z"/>
	<path class="st3" d="M155.7,113.2h184.4v281.6H155.7V113.2z"/>
	<path class="st2" d="M144.2,104.1h207.4v22.2H144.2V104.1z"/>
	<path class="st4" d="M365.2,262.6H396v30.8h-30.8V262.6z"/>
	<g class="st5">
		<path class="st3" d="M391.7,262.6l-26.6,26.6v-1.9l24.7-24.7H391.7z"/>
		<path class="st3" d="M396,263v5.7l-24.7,24.7h-5.7L396,263z"/>
	</g>
	<path class="st4" d="M365.2,316.1H396v30.8h-30.8V316.1z"/>
	<g class="st5">
		<path class="st3" d="M391.7,316.1l-26.6,26.6v-1.9l24.7-24.7H391.7z"/>
		<path class="st3" d="M396,316.5v5.7l-24.7,24.7h-5.7L396,316.5z"/>
	</g>
	<path class="st4" d="M101.9,262.6h30.8v30.8h-30.8V262.6z"/>
	<g class="st5">
		<path class="st3" d="M128.4,262.6l-26.6,26.6v-1.9l24.7-24.7H128.4z"/>
		<path class="st3" d="M132.7,263v5.7L108,293.4h-5.7L132.7,263z"/>
	</g>
	<path class="st4" d="M101.9,316.1h30.8v30.8h-30.8V316.1z"/>
	<g class="st5">
		<path class="st3" d="M128.4,316.1l-26.6,26.6v-1.9l24.7-24.7H128.4z"/>
		<path class="st3" d="M132.7,316.5v5.7L108,346.9h-5.7L132.7,316.5z"/>
	</g>
	<path class="st4" d="M186.7,205h30.8v30.8h-30.8V205z"/>
	<g class="st5">
		<path class="st3" d="M213.3,205l-26.6,26.6v-1.9l24.7-24.7H213.3z"/>
		<path class="st3" d="M217.5,205.4v5.7l-24.7,24.7h-5.7L217.5,205.4z"/>
	</g>
	<path class="st4" d="M186.7,258.5h30.8v30.8h-30.8V258.5z"/>
	<g class="st5">
		<path class="st3" d="M213.3,258.5l-26.6,26.6v-1.9l24.7-24.7H213.3z"/>
		<path class="st3" d="M217.5,258.9v5.7l-24.7,24.7h-5.7L217.5,258.9z"/>
	</g>
	<path class="st4" d="M232.5,205h30.8v30.8h-30.8V205z"/>
	<g class="st5">
		<path class="st3" d="M259.1,205l-26.6,26.6v-1.9l24.7-24.7H259.1z"/>
		<path class="st3" d="M263.3,205.4v5.7l-24.7,24.7h-5.7L263.3,205.4z"/>
	</g>
	<path class="st4" d="M232.5,258.5h30.8v30.8h-30.8V258.5z"/>
	<g class="st5">
		<path class="st3" d="M259.1,258.5l-26.6,26.6v-1.9l24.7-24.7H259.1z"/>
		<path class="st3" d="M263.3,258.9v5.7l-24.7,24.7h-5.7L263.3,258.9z"/>
	</g>
	<path class="st4" d="M278.3,205h30.8v30.8h-30.8V205z"/>
	<g class="st5">
		<path class="st3" d="M304.8,205l-26.6,26.6v-1.9L303,205H304.8z"/>
		<path class="st3" d="M309.1,205.4v5.7l-24.7,24.7h-5.7L309.1,205.4z"/>
	</g>
	<path class="st4" d="M278.3,258.5h30.8v30.8h-30.8V258.5z"/>
	<g class="st5">
		<path class="st3" d="M304.8,258.5l-26.6,26.6v-1.9l24.7-24.7H304.8z"/>
		<path class="st3" d="M309.1,258.9v5.7l-24.7,24.7h-5.7L309.1,258.9z"/>
	</g>
	<path class="st6" d="M207.3,318.8h81.2v76.1h-81.2V318.8z"/>
	<path class="st2" d="M267.3,154h-13.6v-13.6h-11.6V154h-13.6v11.6h13.6v13.6h11.6v-13.6h13.6V154z"/>
</g>
<g>
</g>
<g>
</g>
<g>
</g>
<g>
</g>
<g>
</g>
<g>
</g>
<g>
</g>
<g>
</g>
<g>
</g>
<g>
</g>
<g>
</g>
<g>
</g>
<g>
</g>
<g>
</g>
<g>
</g>
</svg>
