<?xml version="1.0" encoding="utf-8"?>
<!-- Generator: Adobe Illustrator 24.1.0, SVG Export Plug-In . SVG Version: 6.00 Build 0)  -->
<svg version="1.1" id="Layer_1" xmlns="http://www.w3.org/2000/svg" xmlns:xlink="http://www.w3.org/1999/xlink" x="0px" y="0px"
	 viewBox="0 0 500 500" style="enable-background:new 0 0 500 500;" xml:space="preserve">
<style type="text/css">
	.st0{fill:#D53D33;}
	.st1{fill:#E54D42;}
</style>
<g>
	<g>
		<path class="st0" d="M251.7,7c0,0-0.5,0.5-1.2,1.2c-0.7-0.7-1.2-1.2-1.2-1.2S81,164.5,81,328.6C81,410.4,156.3,493,249.3,493
			c0.4,0,0.8,0,1.2,0s0.8,0,1.2,0c92.9,0,168.3-82.6,168.3-164.4C420,164.5,251.7,7,251.7,7z"/>
	</g>
	<g>
		<path class="st1" d="M251.5,7c0,0-0.4,0.4-1,1c-0.6-0.6-1-1-1-1S107.6,139.7,107.6,278.1c0,69,63.5,138.6,141.8,138.6
			c0.3,0,0.7,0,1,0s0.7,0,1,0c78.3,0,141.9-69.7,141.9-138.6C393.4,139.7,251.5,7,251.5,7z"/>
	</g>
</g>
<g>
</g>
<g>
</g>
<g>
</g>
<g>
</g>
<g>
</g>
<g>
</g>
<g>
</g>
<g>
</g>
<g>
</g>
<g>
</g>
<g>
</g>
<g>
</g>
<g>
</g>
<g>
</g>
<g>
</g>
</svg>
