<?xml version="1.0" encoding="utf-8"?>
<!-- Generator: Adobe Illustrator 24.1.0, SVG Export Plug-In . SVG Version: 6.00 Build 0)  -->
<svg version="1.1" id="Layer_1" xmlns="http://www.w3.org/2000/svg" xmlns:xlink="http://www.w3.org/1999/xlink" x="0px" y="0px"
	 viewBox="0 0 500 500" style="enable-background:new 0 0 500 500;" xml:space="preserve">
<style type="text/css">
	.st0{fill:#24BAE5;}
</style>
<g>
	<path class="st0" d="M322.9,154.9c-3.7-10-13.8-15.7-24-15.7c-5.1,0-5.6,0.1-8.6,0.1h-82.8c-3,0-5.8,0-8.6,0
		c-11.7,0-20.3,5.5-24,15.6l-44.2,134.5c-4.2,11.3,1.5,24,12.7,28.2c11.2,4.3,23.8-1.5,28-12.8l11.8-31.6c0,0,0.8-3.2,0.8,10.7
		v186.6c0,16.3,13.1,29.5,29.3,29.5s29.3-13.2,29.3-29.5V348.5c0,0-0.1-1.1,1-1.1c2.7,0,8.2,0,11,0c1.1,0,1,1.1,1,1.1v121.9
		c0,16.3,13.1,29.5,29.3,29.5c16.2,0,29.3-13.2,29.3-29.5V283.8c0-14.2,1.2-9.7,1.2-9.7l11.4,30.6c4.2,11.3,16.7,17.1,28,12.8
		c11.2-4.3,16.9-16.9,12.7-28.2L322.9,154.9z"/>
	<ellipse class="st0" cx="249.4" cy="62.2" rx="62.8" ry="62.2"/>
</g>
<g>
</g>
<g>
</g>
<g>
</g>
<g>
</g>
<g>
</g>
<g>
</g>
<g>
</g>
<g>
</g>
<g>
</g>
<g>
</g>
<g>
</g>
<g>
</g>
<g>
</g>
<g>
</g>
<g>
</g>
</svg>
