<?xml version="1.0" encoding="utf-8"?>
<!-- Generator: Adobe Illustrator 24.1.0, SVG Export Plug-In . SVG Version: 6.00 Build 0)  -->
<svg version="1.1" id="Capa_1" xmlns="http://www.w3.org/2000/svg" xmlns:xlink="http://www.w3.org/1999/xlink" x="0px" y="0px"
	 viewBox="0 0 468.3 468.3" style="enable-background:new 0 0 468.3 468.3;" xml:space="preserve">
<style type="text/css">
	.st0{fill:#27A2DB;}
	.st1{fill:#F7F7F7;}
	.st2{fill:#2D93BA;}
	.st3{fill:#E56353;}
	.st4{fill:#FCD462;}
	.st5{fill:#64798A;}
	.st6{fill:#FFFFFF;}
	.st7{fill:#5D5360;}
	.st8{fill:#4B3F4E;}
	.st9{fill:#6F6571;}
	.st10{fill:#857E87;}
</style>
<g>
	<path class="st0" d="M37,238v76.7c0,5.9,4.8,11.2,11.2,11.2h383c3.2,0,5.3-2.7,5.3-5.3v-46.3c0-10.1-3.2-19.2-8.5-26.6
		c-8.5-12.3-22.4-19.7-38.4-19.7h-39.4L306,158.1c-7.5-11.7-20.8-19.2-34.6-19.2H128.1c-13.9,0-27.2,6.9-34.6,19.2l-44.2,68.7h-1.1
		C41.8,226.8,37,232.1,37,238z"/>
	<path class="st1" d="M188.8,210.8H89.2l22.4-39.4c3.7-6.4,9.6-10.1,16.5-10.1h60.7L188.8,210.8L188.8,210.8z"/>
	<path class="st1" d="M205.3,161.3v49.5h105l-22.4-39.4c-3.7-6.4-9.6-10.1-16.5-10.1H205.3L205.3,161.3z"/>
	<path class="st2" d="M37,306.2v8c0,5.9,4.8,11.2,11.2,11.2h383c3.2,0,5.3-2.7,5.3-5.3v-13.9H37z"/>
	<path class="st3" d="M401.4,247.1c-4.8,0-9.1,4.8-7.5,9.6c1.6,7.5,5.3,13.9,10.7,18.6c7.5,7.5,17.6,11.7,28.2,11.7h3.7v-13.3
		c0-10.1-3.2-19.2-8.5-26.6L401.4,247.1L401.4,247.1z"/>
	<path class="st4" d="M412.6,247.1c-4.8,0-9.1,4.8-7.5,9.6c1.6,7.5,5.3,13.9,10.7,18.6c4.8,4.8,12.8,8,20.8,10.1v-11.7
		c0-10.1-3.2-19.2-8.5-26.6H412.6z"/>
	<circle class="st5" cx="111.1" cy="325.4" r="35.7"/>
	<circle class="st1" cx="111.1" cy="325.4" r="19.2"/>
	
		<ellipse transform="matrix(9.853760e-02 -0.9951 0.9951 9.853760e-02 2.9984 654.0507)" class="st5" cx="362.5" cy="325.4" rx="35.7" ry="35.7"/>
	<circle class="st1" cx="362.5" cy="325.4" r="19.2"/>
	<path class="st3" d="M37,238v28.8h10.7c10.7,0,18.6-8.5,18.6-18.6v-14.4c0-3.7-3.2-6.9-6.9-6.9H47.7C41.8,226.8,37,232.1,37,238z"
		/>
	<path class="st4" d="M37,238v28.8h2.1c10.7,0,18.6-8.5,18.6-18.6v-11.2c0-5.9-4.8-10.1-10.1-10.1l0,0C41.8,226.8,37,232.1,37,238z"
		/>
</g>
<g>
	<path class="st6" d="M309.6,306.9h5.4v-51.5l-5.4-2.7V306.9z"/>
	<path class="st7" d="M309.6,309.6H334c1.5,0,2.7-1.2,2.7-2.7v-2.7c0-1.5-1.2-2.7-2.7-2.7h-24.4V309.6z"/>
	<g>
		<path class="st8" d="M309.6,306.9v5.4H334c1.5,0,2.7-1.2,2.7-2.7v-2.7H309.6z"/>
		<path class="st8" d="M220.1,244.6h86.7c4.5,0,8.1,3.6,8.1,8.1v2.7h-94.9V244.6z"/>
		<path class="st8" d="M282.5,206.6v-2.7c0-4.5-3.6-8.1-8.1-8.1h-54.2v10.8H282.5z"/>
	</g>
	<path class="st6" d="M263.5,271.7h-36.8l26-26l-3.8-3.8l-26,26V231h-5.4v36.8l-26-26l-3.8,3.8l26,26h-36.8v5.4h36.8l-26,26l3.8,3.8
		l26-26v36.8h5.4v-36.8l26,26l3.8-3.8l-26-26h36.8L263.5,271.7z"/>
	<circle class="st3" cx="301.4" cy="312.4" r="13.6"/>
	<circle class="st7" cx="301.4" cy="312.4" r="8.1"/>
	<path class="st9" d="M285.2,203.9h-62.3v-19c0-7.5-6.1-13.6-13.6-13.6h-10.8v5.4h10.8c4.5,0,8.1,3.6,8.1,8.1v40.7h5.4v-16.3h62.3
		c7.5,0,13.6,6.1,13.6,13.6v89.4c0,1.5,1.2,2.7,2.7,2.7c1.5,0,2.7-1.2,2.7-2.7v-89.4C304.1,212.4,295.6,203.9,285.2,203.9z"/>
	<path class="st8" d="M198.4,179.5h-16.3c-3,0-5.4-2.4-5.4-5.4c0-3,2.4-5.4,5.4-5.4h16.3c1.5,0,2.7,1.2,2.7,2.7v5.4
		C201.1,178.3,199.9,179.5,198.4,179.5z"/>
	<path class="st3" d="M220.1,222.9c-13.2,0-25.2,5-34.3,13.1c-10.5,9.4-15,23.1-15,38.4c0,28.4,20.9,49.6,49.3,49.6
		c15.3,0,29-4.7,38.4-15.3c8.1-9.1,13.1-21.1,13.1-34.3C271.6,246,248.6,222.9,220.1,222.9L220.1,222.9z M220.1,315.1
		c-22.5,0-40.7-18.2-40.7-40.7s18.2-40.7,40.7-40.7s40.7,18.2,40.7,40.7C260.8,296.9,242.6,315.1,220.1,315.1L220.1,315.1z"/>
	<path class="st4" d="M224.2,321.8c-28.4,0-51.5-23.1-51.5-51.5c0-13.2,5-25.2,13.1-34.3c-10.5,9.4-17.2,23.1-17.2,38.4
		c0,28.4,23.1,51.5,51.5,51.5c15.3,0,29-6.7,38.4-17.2C249.4,316.8,237.4,321.8,224.2,321.8L224.2,321.8z"/>
	<circle class="st7" cx="220.1" cy="274.4" r="8.1"/>
	<circle class="st10" cx="220.1" cy="274.4" r="2.7"/>
</g>
</svg>
