<?xml version="1.0" encoding="utf-8"?>
<!-- Generator: Adobe Illustrator 24.1.0, SVG Export Plug-In . SVG Version: 6.00 Build 0)  -->
<svg version="1.1" id="Layer_1" xmlns="http://www.w3.org/2000/svg" xmlns:xlink="http://www.w3.org/1999/xlink" x="0px" y="0px"
	 viewBox="0 0 500 289" style="enable-background:new 0 0 500 289;" xml:space="preserve">
<style type="text/css">
	.st0{opacity:0.32;}
	.st1{fill:#A0DCFF;}
	.st2{fill:#00968B;}
	.st3{fill:#FFFFFF;}
	.st4{fill:#D9D9D9;}
	.st5{fill:#58B8D2;}
	.st6{fill:#0098B7;}
	.st7{fill:#2A2A2A;}
	.st8{fill:#36D4C6;}
	.st9{fill:#1E0315;}
	.st10{fill:#FFC0BE;}
	.st11{fill:#FF8A91;}
	.st12{fill:#345199;}
	.st13{fill:#AB6C6C;}
	.st14{fill:#EFEFEF;}
	.st15{fill:#00EDD4;}
	.st16{fill:#4D72D1;}
	.st17{fill:#0F1E3F;}
	.st18{fill:#633131;}
	.st19{fill:#3E3E3E;}
	.st20{fill:#6A1A51;}
	.st21{fill:#7992E5;}
	.st22{fill:#84E3DF;}
	.st23{fill:#191919;}
	.st24{fill:#1B305D;}
	.st25{fill:#102041;}
	.st26{fill:#E98F11;}
	.st27{fill:#C77B0D;}
	.st28{fill:#F6A439;}
	.st29{fill:#FFD4BD;}
	.st30{fill:#DD976D;}
	.st31{fill:#FF9EB1;}
	.st32{fill:#EF6C82;}
	.st33{fill:#3D5DAB;}
</style>
<g id="Layer_2_1_">
	<g class="st0">
		<path class="st1" d="M95.5,55.1c28.7,5.6,55.5,18.2,83.7,25.8c28.2,7.6,59.8,9.8,85.3-4.6c14-7.9,24.8-20.1,36.1-31.5
			c11.2-11.4,23.6-22.6,38.9-27.4s34.2-1.7,43.5,11.3c8.5,11.8,7.4,28.4,15.3,40.6c12.9,19.9,41.9,19,63.5,28.9
			c29.9,13.8,44.6,51,38.1,83.3s-30.7,59-59.5,75c-28.7,16.1-61.8,22.8-94.4,26.8c-41.8,5.2-84.1,6.4-126.1,3.7
			c-38.8-2.5-77.9-8.6-113.8-23.8c-35.9-15.2-68.5-40.1-87.7-74C3.8,163.6-2.2,132.6,3.5,103.4c5.1-26.3,12.8-40.7,40.2-47.8
			C60.5,51.3,78.5,51.8,95.5,55.1z"/>
		<path class="st1" d="M447,70.8c6,0.1,12.3-1.4,16.9-5.3c7.1-6,8.8-16.6,6.5-25.5c-4.8-18.4-25.4-30.5-43.9-25.2
			c-17.8,5.1-16.4,28.5-7.5,41C425.3,64.7,436,70.5,447,70.8z"/>
		<path class="st1" d="M188.1,67.9c-5.1-1.8-10.1-4.3-13.4-8.5c-3.3-4.2-4.5-10.5-1.6-15c2.3-3.6,6.4-5.3,10.3-6.9
			c11.6-4.7,23.2-9.4,34.7-14.1c6.5-2.7,13.1-5.3,20.1-6.2c15.1-1.8,35.6,12.3,26.9,29.3c-7.6,14.9-30.5,22.9-45.9,24.7
			C208.9,72.4,198.1,71.4,188.1,67.9z"/>
	</g>
</g>
<g id="Layer_1_1_">
	<g>
		<g>
			<g>
				<path class="st2" d="M355.1,113c0,0,11.2-3.9,10.1-19.1l-9.5,3.3C355.7,97.3,350.9,104.5,355.1,113z"/>
				<g>
					<path class="st3" d="M386.8,83.6c-1.5,2.9-3.6,7-5.8,11.2c-4.3,8.3-9,17.1-10.7,18.2c-0.6,0.4-1.5,0.9-2.6,1.3
						c-1.5,0.6-3.2,1.1-4.3,1.1c-1.6,0-9.5-8.7-9.5-8.7L365.2,94c0,0,11.6-9.2,16.4-15.8C382.1,79.6,383.4,82.2,386.8,83.6z"/>
					<path class="st4" d="M370.2,110.6c-0.5,0.7-1.3,1.6-2.5,2.6c-1.5,0.6-3.2,2.3-4.3,2.3c-1.6,0-9.5-8.6-9.5-8.6L365.2,94
						c0,0,0,0.1-0.1,0.3l0,0c-0.9,1.6-5.9,10-5.8,12.4c0.1,2.7,2.2,4.9,3.6,5.8C365,113.8,368.1,112.2,370.2,110.6z"/>
					<path class="st4" d="M402,69.9c-0.7,0.5-11.4,8.1-12.8,9.4c-0.7,0.7-4.3,7.9-8.2,15.5l6.3-17.2L402,69.9z"/>
				</g>
				<g>
					<path class="st5" d="M402,69.8L402,69.8c-0.7,0.5-11.5,8.1-12.8,9.5c0,0-0.1,0.1-0.2,0.2c0,0-0.1,0.1-0.1,0.2
						c-0.2,0.3-0.4,0.7-0.8,1.3c-0.1,0.1-0.1,0.2-0.2,0.3c-0.1,0.1-0.1,0.2-0.2,0.3c-0.1,0.1-0.1,0.2-0.2,0.3l-0.1,0.1
						c-0.1,0.2-0.2,0.4-0.3,0.6c-0.2,0.3-0.3,0.6-0.5,0.9c-0.5-0.2-1-0.4-1.4-0.7c-2.4-1.4-3.4-3.5-3.8-4.6c0.1-0.1,0.2-0.3,0.3-0.4
						c0.2-0.3,0.4-0.6,0.6-0.9c0,0,0.4-13.4-0.2-15.6c-0.6-2.2,1.4-0.4,2.2,0.2c0.8,0.6,1.2,4.3,1.6,5.3s2.6,0.4,3-0.4
						s5.1-6.3,5.1-6.3s4.1,0.8,5.3,1.8C400.6,62.9,402,69.8,402,69.8z"/>
					<path class="st6" d="M402,69.9c-0.7,0.5-11.4,8.1-12.8,9.4c0,0-0.1,0.1-0.2,0.2c0,0-0.1,0.1-0.1,0.2c-0.2,0.3-0.4,0.7-0.8,1.3
						c-0.1,0.1-0.1,0.2-0.2,0.3c-0.1,0.1-0.1,0.2-0.2,0.3c-0.1,0.1-0.1,0.2-0.2,0.3l-0.1,0.1c-0.1,0.2-0.2,0.4-0.3,0.6
						c-0.2,0.3-0.3,0.6-0.5,0.9c-0.5-0.2-1-0.4-1.4-0.7l1.9-5.2L402,69.9z"/>
				</g>
			</g>
			<g>
				<path class="st7" d="M333.7,275.2c0,0-1.3,4.9-1.4,5.7c-0.1,0.8,0.1,4.6,0.1,4.6s8.8,1.2,16.3,1.4c7.5,0.3,17.9-0.1,18.7-0.3
					c0.8-0.1-1.1-7.2-2.5-8.4c-1.4-1.2-9.2-1.3-11.2-1.6c-2-0.3-3.9-1.6-3.9-1.6L333.7,275.2z"/>
				<g>
					<path class="st8" d="M351.1,275.4c0,0-11.2,1.8-19.7,0.4c0,0-1-44-1.6-50.5c-0.1-0.9-0.3-2.8-0.6-5.3l0,0
						c-2-15.7-7.8-56.6-7.8-56.6l26.8,1.8c0,0,0.1,1,0.1,2.6c0.4,8.5,1.6,35.3,1.3,42.8C349.2,219.3,351.1,275.4,351.1,275.4z"/>
					<path class="st2" d="M329.5,209.9c0.2,0.8,0,5.1-0.3,10c-2-15.7-7.8-56.6-7.8-56.6l26.8,1.8c0,0,0.1,1,0.1,2.6l-20,2.2
						C328.3,169.8,329.1,207.9,329.5,209.9z"/>
				</g>
			</g>
			<g>
				<path class="st7" d="M298.3,273c0,0.4-2.1,3.9-2.4,6s-0.3,7-0.3,7s7.9,1.4,10.8,1.2c2.9-0.3,9.2-0.1,9.2-0.1s0.4-11.6-1.1-13.1
					C313.1,272.4,298.3,273,298.3,273z"/>
				<g>
					<path class="st8" d="M327.3,163.7c-0.4,0.8-3.7,43.6-4.7,48.5c-1,4.9-6.7,62.3-6.7,62.3s-12.4,0.2-19.1-0.8
						c0,0,1.1-37.7,1.6-58.5l0,0c0.2-7.2,0.3-12.4,0.3-13.3c0-3.4-1-41.4-1-41.4l27.1,2.9L327.3,163.7z"/>
					<path class="st2" d="M326.1,165.3c0,0.6-0.6,3.7-1,4.3s-21.7,1.8-21.7,1.8s-0.8,24.5-0.8,25.8c0,0.8-2.4,10.5-4.3,18
						c0.2-7.2,0.3-12.4,0.3-13.3c0-3.4-1-41.4-1-41.4l27.1,2.9L326.1,165.3z"/>
				</g>
			</g>
			<g>
				<path class="st8" d="M365.2,94c0,0-6,6.4-8.8,13.7c-0.7,1.8-1.2,3.6-1.4,5.4c0,0-11-16-15-31c0-0.1-0.1-0.2-0.1-0.3
					c-3.8-14.8,0.9-22.2,0.9-22.2s10.4,15,12.4,17.2S365.2,94,365.2,94z"/>
				<path class="st2" d="M356.5,107.6c-0.7,1.8-1.2,3.6-1.4,5.4c0,0-11-16-15-31c0-0.1-0.1-0.2-0.1-0.3l4.8-12.3l5.9,16.8
					L356.5,107.6z"/>
			</g>
			<g>
				<path class="st8" d="M350.2,166.8c0,0-6.8,1.2-20.9,0.4s-34.1-4.5-34.1-4.5s0.1-0.5,0.2-1.3c0.7-5,3.1-22.4,3.2-23.7
					c0.1-1.4,3.7-37.7,3.2-42.9c-0.3-2.7-2.1-10.7-3.5-18c-1.3-6.5-2.3-12.3-1.6-12.9c1.4-1.4,14.8-7.2,14.8-7.2l20.2-0.1
					c0,0,8.3,1.6,9.2,2.8c0.9,1.2,6.3,15.5,6.5,19.5c0.1,3.9,0.4,40.5,0.9,50.9C348.8,140.3,350.2,166.8,350.2,166.8z"/>
				<path class="st2" d="M304.6,130.4l0.4,31.2l-9.6-0.1c0.7-5,3.1-22.4,3.2-23.7c0.1-1.4,3.7-37.7,3.2-42.9
					c-0.3-2.7-2.1-10.7-3.5-18l3.6-2c0,0,2.5,8.7,3.3,18.4S304.6,130.4,304.6,130.4z"/>
				<rect x="337.4" y="80.1" class="st3" width="5" height="1.9"/>
			</g>
			<g>
				<g>
					<path class="st3" d="M299.6,112.1l-0.1,4.1l-0.2,6.5l-0.6,34.2c-2.9,0.3-5.9,0.2-8,0c-0.6-7.6-2.3-27.6-2.5-30.5
						c-0.2-2.4,0.2-6.2,0.4-8.3c0.1-1,0.2-1.7,0.2-1.7v-7.9L299.6,112.1z"/>
					<path class="st4" d="M299.6,112.1l-0.1,4.1c-2.5,0.9-6.7,2-10.9,1.9c0.1-1,0.2-1.7,0.2-1.7v-7.9L299.6,112.1z"/>
				</g>
				<g>
					<path class="st5" d="M301.6,179.3l-4.3,2.2c0,0-0.6-0.1-1.3-0.4c-1.3-0.4-3.2-1-3.6-1.6c-0.7-0.9-2.6-13.3-2.6-13.3
						s1.3-5.8,1.3-6.4c0-0.1-0.1-1.2-0.2-2.9c0.1,0,0.3,0,0.4,0c2.1,0.2,4.9,0.3,7.6,0v1.7l1.5,4.8c0,0.1,0.1,0.2,0.1,0.3
						s0,0.1,0.1,0.2l0.6,1.9L301.6,179.3z"/>
					<path class="st6" d="M300.1,172.1l-0.5-4.3l-1.9-5.4l-1.6-3l-0.3-1.8c-2.2-0.1-3.8-0.4-4.7-0.6c2.1,0.2,4.9,0.3,7.6,0v1.7
						l1.5,4.8c0,0.1,0.1,0.2,0.1,0.3s0,0.1,0.1,0.2C300.7,165.7,300.1,172.1,300.1,172.1z"/>
					<path class="st6" d="M297.2,181.5c0,0-0.6-0.1-1.3-0.4l0.5-3.7L297.2,181.5z"/>
				</g>
			</g>
			<path class="st8" d="M296.7,64c0,0-2.4,3.6-4.3,10c-2.1,7-6.2,19.5-7.4,37.7c0,0,10.9,2.4,17.4,2.4c0,0,1.3-15,0.8-27.3
				C302.6,74.4,300.4,65.8,296.7,64z"/>
			<g>
				<circle class="st9" cx="324.8" cy="95.5" r="1.4"/>
				<g>
					<g>
						<path class="st9" d="M315.6,80.1l-1,0.3c-1-3.8-5.7-22.7-2.5-24.8c0.7-0.5,1.7-1,3-1.4c-0.1,0.4-0.3,0.8-0.4,1.2
							c-0.8,0.3-1.5,0.7-2,1c-0.1,0.1-0.2,0.2-0.2,0.3c-0.2,0.2-0.3,0.6-0.3,1C311.5,61.5,313.6,72.3,315.6,80.1z"/>
						<path class="st9" d="M337.9,71.8l-1,0.1c0-0.1-1.2-10.4-5.2-15c-0.1-0.1-0.1-0.1-0.2-0.2c-0.6-0.6-1.2-1.1-1.8-1.4
							c-0.3-0.1-0.6-0.3-0.8-0.4l0.1-1c0.4,0.1,0.8,0.3,1.2,0.5C336.3,57.4,337.9,71.2,337.9,71.8z"/>
					</g>
					<g>
						<path class="st9" d="M313.3,96.2c-0.2-0.5-4.6-13.5,0.5-16.3c1.1-0.6,2.3-0.7,3.5-0.2c3.7,1.7,6.5,9.1,7.8,14.9l-1,0.2
							c-1.3-6.1-4.1-12.8-7.2-14.2c-0.9-0.4-1.7-0.3-2.6,0.1c-3.6,2-1.3,11.6-0.1,15.1L313.3,96.2z"/>
					</g>
					<path class="st9" d="M340.6,74c0,1.5-1.2,2.7-2.7,2.7s-2.7-1.2-2.7-2.7s1.2-2.7,2.7-2.7S340.6,72.6,340.6,74z"/>
					<circle class="st3" cx="337.9" cy="74" r="1.6"/>
					<path class="st9" d="M315.4,96.8c0,0.8-0.6,1.4-1.4,1.4s-1.4-0.6-1.4-1.4s0.6-1.4,1.4-1.4S315.4,96,315.4,96.8z"/>
					<g>
						<path class="st9" d="M314.2,77.3c-0.5,0-0.9-0.3-1-0.8c-0.4-2-1.3-5.7-1.3-5.7l2-0.4c0,0,0.8,3.7,1.3,5.7
							c0.1,0.6-0.2,1.1-0.8,1.2C314.4,77.3,314.3,77.3,314.2,77.3z"/>
					</g>
				</g>
			</g>
			<g>
				<path class="st10" d="M331.7,56.9c-0.1,4.4-6.4,13.2-6.4,13.2C320,68,314,60.2,312.1,57.6c0.1-0.4,0.2-0.8,0.3-1l1.9-0.4
					c0.1-0.3,0.2-0.6,0.3-0.8c0.2-0.4,0.3-0.8,0.4-1.2c0.1-0.2,0.1-0.5,0.2-0.7c0.2-0.6,0.3-1.1,0.4-1.7c0.3-1.6,0.5-2.8,0.5-2.8
					h13.3l-0.4,3.9l0,0l-0.1,1.1l-0.1,1l-0.1,1.1l2.8,0.7C331.6,56.8,331.7,56.8,331.7,56.9z"/>
				<path class="st11" d="M329.5,48.9l-0.4,3.9l0,0c-1.8,2.4-4.9,5.3-7,4.5c-1.9-0.7-4.6-3.4-6.4-5.5c0.3-1.6,0.5-2.8,0.5-2.8h13.3
					V48.9z"/>
				<path class="st12" d="M335.9,29.3c0,0,0.3,5.2,0,6.1c-0.3,1-0.6,5-1.4,5.2c-0.9,0.3-1.2-10.5-1.1-11.7s2.2-0.8,2.2-0.8
					L335.9,29.3z"/>
				<path class="st10" d="M334.6,31.8c0,0.4-0.1,9.9-0.1,11.3s-4.7,7.9-7,9.7c-2.2,1.8-3.3,1.8-4.5,2.1s-8.5-5.3-9.7-7.1
					s-2.1-10.9-1.6-15.5s2.4-8.5,7.2-9.7s7.6-2.1,11-0.8C333.4,23.1,334.8,27.7,334.6,31.8z"/>
				<path class="st13" d="M323.7,35.1c-0.2-0.2-0.5-0.3-0.7-0.4c-0.5-0.2-1-0.3-1.5-0.3s-0.9,0.2-1.3,0.5c-0.2,0.1-0.4,0.3-0.5,0.4
					c-0.2,0.2-0.2,0.4-0.4,0.6c-0.3,0.4,0.5,0.8,0.6,0.3c0-0.1,0.2-0.3,0.3-0.4c0.1-0.1,0.3-0.2,0.4-0.3c0.3-0.2,0.7-0.3,1-0.3
					c0.4,0,0.7,0.1,1,0.3c0.2,0.1,0.4,0.3,0.5,0.4c0.2,0.2,0.4,0.4,0.7,0.4c0.3,0,0.6-0.3,0.5-0.6S323.9,35.3,323.7,35.1z"/>
				<path class="st13" d="M331.7,36.3c-0.1-0.1-0.3-0.3-0.4-0.4c-0.3-0.2-0.7-0.4-1.1-0.4c-0.4-0.1-0.8-0.1-1.1,0
					c-0.4,0.1-1,0.2-1.1,0.7c-0.1,0.2,0,0.5,0.3,0.5c0.2,0,0.4,0,0.6-0.1c0.1,0,0.1-0.1,0.2-0.1h0.1c-0.1,0,0.1,0,0.1,0
					c0.3-0.1,0.6-0.1,0.9,0c0.3,0,0.5,0.1,0.8,0.3c0.1,0.1,0.2,0.1,0.4,0.2c0.1,0.1,0.2,0.3,0.4,0.3c0.2,0.1,0.5-0.1,0.4-0.3
					C332,36.6,331.9,36.4,331.7,36.3z"/>
				<g>
					<path class="st12" d="M330.4,39.8L330.4,39.8L330.4,39.8C330.4,39.7,330.4,39.7,330.4,39.8C330.4,39.7,330.4,39.7,330.4,39.8z"
						/>
					<path class="st12" d="M330.6,39.2c0-0.2,0-0.3-0.1-0.5c-0.1-0.1-0.2-0.2-0.3-0.3c-0.3-0.2-0.6-0.2-0.9,0
						c-0.1,0.1-0.2,0.2-0.3,0.3c-0.1,0.1-0.1,0.3-0.1,0.5s0,0.3,0.1,0.5l0,0l0,0l0.1,0.2l0,0c0.1,0,0.1,0.1,0.2,0.1l0,0
						c0.1,0,0.1,0.1,0.2,0.1s0.3,0.1,0.4,0c0.2-0.1,0.2-0.1,0.4-0.2l0,0c0,0,0-0.1,0.1-0.1l0.1-0.1l0,0l0,0l0,0l0,0l0,0l0,0
						C330.5,39.5,330.6,39.4,330.6,39.2z"/>
				</g>
				<path class="st12" d="M322.8,38.4c0-0.1,0-0.1-0.1-0.2l-0.1-0.1c-0.1-0.1-0.1-0.1-0.2-0.1l0,0l0,0c0,0-0.1,0-0.1-0.1l-0.1-0.1
					c-0.1,0-0.2,0-0.2,0c-0.2,0-0.3,0-0.5,0.1c-0.1,0-0.1,0.1-0.2,0.1c-0.1,0.1-0.2,0.2-0.2,0.4c0,0.1,0,0.2,0,0.4
					c0,0.1,0,0.2,0.1,0.3s0.1,0.2,0.2,0.3s0.2,0.1,0.3,0.2c0.1,0,0.2,0,0.4,0c0.1,0,0.2,0,0.3-0.1c0.1-0.1,0.2-0.1,0.3-0.2
					c0,0,0-0.1,0.1-0.1l0,0c0.1-0.1,0.1-0.1,0.1-0.2c0-0.1,0-0.1,0-0.2C322.8,38.6,322.8,38.5,322.8,38.4z"/>
				<path class="st11" d="M328,44c0-0.3-0.3-0.6-0.5-0.8c-0.2-0.1-0.5-0.3-0.5-0.5c0-0.1,0-0.2,0.1-0.3c0-0.1,0.1-0.2,0.1-0.4
					s0.1-0.4,0.1-0.7c0.1-0.5,0.2-1.1,0.1-1.6c-0.1-0.4-0.8-0.5-1-0.1c-0.4,0.7-0.3,1.7-0.4,2.5c0,0.4,0,0.7,0.3,1
					c0.2,0.2,0.4,0.3,0.6,0.5c0.2,0.1,0.5,0.3,0.5,0.5c0,0.3-0.3,0.6-0.5,0.8c-0.5,0.4-1.3,0.6-1.8,0.1c-0.2-0.2-0.5,0.1-0.4,0.3
					c0.4,0.8,1.3,0.8,2.1,0.5C327.3,45.4,328.1,44.7,328,44z"/>
				<path class="st11" d="M327.2,47.6c-1.6,1.4-4.1,1.3-5.6-0.3c-0.1-0.1-0.3,0-0.2,0.2c0.6,1,1.7,1.7,2.9,1.8
					c1.2,0.1,2.5-0.4,3.3-1.4C327.7,47.7,327.4,47.4,327.2,47.6z"/>
				<path class="st3" d="M331.7,56.9c-0.1,4.4-6.4,13.2-6.4,13.2C320,68,314,60.2,312.1,57.6c0.1-0.4,0.2-0.8,0.3-1l1.9-0.4
					c0.1-0.3,0.2-0.6,0.3-0.8c0.2-0.4,0.3-0.8,0.4-1.2c0.1-0.2,0.1-0.5,0.2-0.7c0.6,0.5,3.2,2.8,6.9,2.8c4.2,0,6.7-2.3,6.7-2.3
					l-0.1,1l-0.1,1.1l2.8,0.7C331.6,56.8,331.7,56.8,331.7,56.9z"/>
				<path class="st4" d="M322.3,56.1c-0.8,0-1.6-0.1-2.3-0.3c0.8,0.6,1.5,1.1,2.2,1.4c1.4,0.5,3.2-0.6,4.8-2.1
					C325.8,55.7,324.3,56.1,322.3,56.1z"/>
				<path class="st3" d="M333.8,44.7c0,0-0.2,0.3-0.4,0.8c-0.7,1.4-2.1,4.1-3,5s-2.7,3.5-5.1,4.6c-0.7,0.3-1.5,0.5-2.3,0.5
					c-3.6-0.1-7.7-4.7-8.4-5.8c0,0,1.4-3.9,1.5-6.2c0,0,4.6-2.2,8.7-1.8C329.1,42.3,333.8,44.7,333.8,44.7z"/>
				<path class="st3" d="M316.4,44.3c-0.9-1.8-4.8-5-4.8-5l0.3-0.4c0.2,0.1,4,3.3,5,5.2L316.4,44.3z"/>
				<path class="st3" d="M314.7,49.8c-0.1-0.1-2.2-2.6-3.4-5.8l0.5-0.2c1.2,3.1,3.7,5.9,3.7,5.9L314.7,49.8z"/>
				<path class="st8" d="M337.4,32.8c-0.1,4.7-2.9,8.2-2.9,8.2c0.6-3.1,0.6-5.4,0.1-7.1c-0.6-2-1.7-3.2-3.1-3.9l0,0
					c-2.4-1.2-5.6-0.9-7.9-0.3c-4.9,1.4-7.3,4.1-8.8,8.4c-0.8,2.2-1,4.8-1,6.9l0,0c0,2.1,0.1,3.6,0.1,3.6c-2.6-1-4.3-3.1-5.7-6.9
					c-0.2-0.5-0.4-1.1-0.5-1.8c-0.9-4.6-0.6-12.7,2.3-16.1c3.1-3.6,11.1-6.9,17.8-4.7c0.4,0.1,0.9,0.3,1.3,0.5
					c1.4,0.6,2.6,1.4,3.6,2.2l0,0C336.4,24.8,337.5,29,337.4,32.8z"/>
				<path class="st14" d="M333.4,45.5c-0.7,1.4-2.1,4.1-3,5s-2.7,3.5-5.1,4.6c-1.7-0.2-3.4-0.5-3.4-0.5l-1.7-1.5c0,0,2.6,0.7,3.6,0
					c0,0,4.2-4,4.5-5.8s-0.6-3.7-0.6-3.7S332.5,44.8,333.4,45.5z"/>
				<path class="st2" d="M337.4,32.8c-0.1,4.7-2.9,8.2-2.9,8.2c0.6-3.1,0.6-5.4,0.1-7.1l0.1-1.6c1.2,0.2,1.6-2,0.9-4.1
					c-0.6-2-3-6.1-3.1-6.4C336.4,24.8,337.5,29,337.4,32.8z"/>
				<path class="st15" d="M327.6,19c-7-0.7-13.6,1.6-17.2,5.7s-2.9,15.1-2.9,15.1c-0.9-4.6-0.6-12.7,2.3-16.1
					C313,20.1,321,16.8,327.6,19z"/>
				<path class="st15" d="M331.4,29.9c-2.4-1.2-5.6-0.9-7.9-0.3c-4.9,1.4-7.3,4.1-8.8,8.4c-0.8,2.2-1,4.8-1,6.9
					c-0.1-0.3-0.6-4.3,0.1-6c0.7-1.8,2.3-5.7,3.9-7.3c1.5-1.5,4.2-3.3,5.8-3.4C325.1,28.2,329.5,28.3,331.4,29.9z"/>
			</g>
		</g>
		<g>
			<path class="st16" d="M114.7,131.3c0,0,3.1-34.1,3.1-44.1c0-9.9,8.5-40.8,8.5-40.8l5.6-1.8l15.9,0.7l6.8-1.1l5.8,3.7l5.5,82
				c0,0-3.3,2.4-7,2.7C155.3,133,119.3,134.1,114.7,131.3z"/>
			<g>
				<path class="st2" d="M149.9,36.6c0,0,5-3.4,6.2-8.5s0.7-9.7,0.7-9.7l-5.8,12L149.9,36.6z"/>
				<path class="st10" d="M147.8,53.7c-2.3,2.9-6.9,5.3-9.2,3.7s-3.7-4.3-4.2-6.8s0.2-6.9,0.2-6.9s0.2-0.7,0.4-1.7
					c0.1-0.3,0.1-0.5,0.2-0.8c0-0.2,0.1-0.4,0.1-0.6c0.2-1.2,0.4-2.6,0.4-3.7c0-2.7,12.7-0.7,12.7-0.7l0.4,2.6l0.3,2.1l0.1,0.9
					l0.3,1.6C149.5,43.3,150.1,50.8,147.8,53.7z"/>
				<path class="st11" d="M148.8,38.8c-1.5,1.8-4.4,5.1-6.5,6c-2.2,1-5.3-1.7-7.1-4.1c0.2-1.2,0.4-2.6,0.4-3.7
					c0-2.7,12.7-0.7,12.7-0.7L148.8,38.8z"/>
				<path class="st10" d="M130.1,18.8c0,0,0,11.7,1.2,14.5s6.5,8.5,8.3,8.9c1.8,0.4,8.5-3,11.5-7.9c3-4.8,2.4-15.1,2.2-18
					c-0.2-2.8-10.3-9.7-13.9-8.5s-8.9,1.2-9.3,3.8C129.6,14.3,130.1,18.8,130.1,18.8z"/>
				<g>
					<path class="st16" d="M136.4,23.8c-0.1-0.1-0.1-0.2-0.2-0.2c-0.1-0.1-0.2-0.1-0.3-0.1s-0.2,0-0.3,0.1l0,0l0,0
						c-0.1,0.1-0.2,0.1-0.3,0.3l0,0c-0.1,0.1-0.1,0.2-0.1,0.3c0,0.1,0,0.1,0,0.2s0.1,0.2,0.2,0.3c0.1,0.1,0.1,0.1,0.2,0.1
						c0.1,0,0.2,0.1,0.3,0.1s0.2,0,0.3-0.1c0.1,0,0.2-0.1,0.2-0.1c0.1-0.1,0.1-0.2,0.2-0.3c0,0,0,0,0-0.1s0-0.2,0-0.2
						C136.5,24.1,136.5,23.9,136.4,23.8z"/>
					<path class="st16" d="M145,23.8l-0.1-0.2c0-0.1-0.1-0.1-0.1-0.2c-0.1-0.1-0.2-0.1-0.3-0.2c-0.1,0-0.1-0.1-0.2-0.1
						c-0.1,0-0.2,0-0.3,0s-0.1,0.1-0.2,0.1c-0.1,0-0.1,0.1-0.2,0.1c-0.1,0.1-0.1,0.1-0.1,0.2l0,0l0,0l0,0c-0.1,0.1-0.1,0.2-0.1,0.4
						c0,0.1,0,0.1,0,0.2s0.1,0.2,0.2,0.3c0,0.1,0.1,0.1,0.2,0.1c0.1,0,0.2,0.1,0.3,0.1h0.1l0,0l0,0l0,0l0,0l0,0l0,0h0.1
						c0.1,0,0.2,0,0.3-0.1c0.1,0,0.1-0.1,0.2-0.1c0-0.1,0.1-0.1,0.1-0.2c0.1-0.1,0.1-0.2,0.1-0.3C145,24,145,23.9,145,23.8z"/>
					<path class="st13" d="M137.5,21.2c-0.2-0.3-0.7-0.3-1-0.3s-0.7,0-1,0c-0.7,0.1-1.3,0.3-1.9,0.6c-0.2,0.1-0.1,0.5,0.2,0.4
						c0.6-0.2,1.2-0.3,1.8-0.4c0.3,0,0.6,0,0.9,0c0.1,0,0.3,0.1,0.4,0.1c0.2,0,0.4,0,0.6-0.1C137.6,21.5,137.6,21.3,137.5,21.2z"/>
					<path class="st13" d="M146.3,21.3c-0.5-0.3-1-0.5-1.6-0.5c-0.3,0-0.5,0-0.8,0c-0.1,0-0.3,0-0.4,0.1c-0.1,0-0.1,0-0.2,0.1h-0.1
						h-0.1c-0.3,0-0.5,0.3-0.4,0.6c0.1,0.3,0.5,0.3,0.7,0.1c0.1-0.1,0.4-0.2,0.6-0.2c0.2-0.1,0.4-0.1,0.6-0.1c0.5,0,0.9,0.1,1.4,0.3
						C146.3,21.8,146.5,21.4,146.3,21.3z"/>
					<path class="st3" d="M145,33.5c-1,1.6-2.8,2.6-4.6,2.7c-1.8,0.1-3.8-0.8-4.8-2.3c1.5-0.2,2.9-0.2,4.4-0.3c0.9,0,1.7,0,2.6,0
						C142.9,33.6,144.9,33.7,145,33.5z"/>
					<path class="st13" d="M139.8,30.6c-0.4-0.2-1.2-0.4-1.3-0.9c-0.2-0.5,0.3-1,0.7-1.2c0.2-0.2,0.5-0.4,0.5-0.7
						c0.1-0.4-0.1-0.7-0.2-1.1c-0.1-0.4-0.1-0.8-0.1-1.1c0-0.4,0.1-0.8,0.1-1.2c0-0.5-0.7-0.5-0.8-0.1s-0.1,0.9-0.1,1.4
						s0,0.9,0.1,1.4c0,0.2,0,0.4,0,0.5c-0.1,0.1-0.2,0.2-0.3,0.3c-0.3,0.2-0.5,0.4-0.7,0.8c-0.3,0.6-0.2,1.3,0.3,1.8
						c0.4,0.5,1.1,0.6,1.7,0.6C140,30.9,140,30.7,139.8,30.6z"/>
				</g>
				<path class="st3" d="M150.8,31l-0.5-0.1c0-0.2,1-3.7,2.9-6l0.4,0.3C151.7,27.3,150.8,30.9,150.8,31z"/>
				<path class="st3" d="M152.2,32.2l-0.4-0.3c0,0,1.2-1.9,1.5-5.2l0.5,0.1C153.4,30.2,152.2,32.1,152.2,32.2z"/>
				<g>
					<path class="st3" d="M130.3,30.3c0,0-0.4-3.4-0.6-6h0.5c0.2,2.6,0.8,6.3,0.8,6.4L130.3,30.3z"/>
				</g>
				<path class="st3" d="M130.3,30.3c0,0,3.2-1.8,8.2-2.8s11.2,2.1,13.8,4.2c0,0,0.3,1.6-1.4,4.3s-5.9,8.3-10.5,7.6
					C137.2,43.1,130.3,38.3,130.3,30.3z"/>
				<path class="st14" d="M149.8,31c-0.8-0.2-2.2-1.1-3.9-1.7c-1.7-0.5-5.5-0.7-5.5-0.7s1.6,1.1,2.8,1.8c-1.7-0.3-3.8-0.6-4-0.6
					l4,1.5l1.4,0.2c0.4,0.4,0.7,1,1.1,1.9c0.8,1.7-0.5,4.6-1.5,6.4c-1,1.8-4.5,2.9-4.5,2.9s2.3,0.3,3.6-0.2s3.9-2.6,5.1-4
					c1.2-1.4,3.3-6.7,3.3-6.7S150.6,31.2,149.8,31z"/>
				<path class="st17" d="M138.2,22.9c-0.5-0.7-1.3-1.3-2.2-1.5c-1.8-0.5-3.9,0.2-4.9,1.8c-0.8,1.4-0.7,3.1,0.3,4.4
					c0.5,0.7,1.2,1.2,2,1.5c1.6,0.6,3.5-0.1,4.5-1.4c0.9-1.1,1.1-2.5,0.7-3.8C138.6,23.5,138.4,23.2,138.2,22.9z M137.6,26.8
					c-0.8,1-2,1.8-3.4,1.6c-1.3-0.2-2.4-1.2-2.7-2.4c-0.3-1.2,0.1-2.6,1.1-3.2c1.1-0.7,2.4-0.9,3.6-0.3
					C137.7,23.2,138.7,25.3,137.6,26.8L137.6,26.8z"/>
				<path class="st17" d="M141.2,23.1c-0.1-0.1-0.3-0.1-0.4-0.2c-0.3-0.1-0.6-0.2-0.9-0.2c-0.6,0-1.3,0.1-1.8,0.5
					c-0.2,0.2-0.1,0.5,0.2,0.4s0.5-0.1,0.8-0.2c0.3,0,0.5,0,0.8,0c0.2,0,0.5,0,0.8,0.1c0.1,0,0.3,0.1,0.4,0.1
					c0.1,0.1,0.3,0.1,0.4,0.1c0.1,0,0.2-0.2,0.2-0.3C141.5,23.3,141.3,23.2,141.2,23.1z"/>
				<path class="st17" d="M153.7,21c-1,0.1-2,0.4-3,0.8c-0.8,0.3-1.6,0.6-2.4,1c-0.5-0.8-1.2-1.3-2.1-1.4c-0.9-0.1-2-0.2-2.9,0.1
					c-2.5,0.9-3.3,4-1.7,6.1c0.5,0.7,1.2,1.2,2,1.5c1.6,0.6,3.5-0.1,4.5-1.4c1-1.2,1.2-3,0.5-4.4c0.8-0.2,1.6-0.4,2.4-0.7
					c0.9-0.3,2-0.7,2.8-1.2C154,21.3,153.9,21,153.7,21z M147.8,26.8c-0.9,1.6-3,2.1-4.6,1.2c-1.5-0.9-2.2-3-1.1-4.5
					c0.9-1.3,2.7-1.7,4.2-1.2C148.1,22.9,148.7,25.2,147.8,26.8z"/>
				<path class="st17" d="M131.4,23.3c-0.1-0.1-0.3-0.2-0.4-0.3c-0.1-0.1-0.3-0.1-0.4-0.2c-0.1-0.1-0.3-0.1-0.4-0.2
					c-0.1,0-0.1-0.1-0.2-0.1c0,0-0.1,0-0.1-0.1c-0.1,0-0.2-0.1-0.3-0.1c-0.2,0-0.3,0.1-0.4,0.3c-0.1,0.2,0,0.3,0.1,0.5
					c0.1,0.1,0.3,0.2,0.5,0.3c0.2,0.1,0.4,0.2,0.5,0.2c0.2,0.1,0.3,0.1,0.5,0.2c0.2,0,0.4,0.1,0.5,0.1s0.2-0.1,0.3-0.2
					C131.5,23.5,131.5,23.4,131.4,23.3z"/>
				<path class="st8" d="M156.6,24.2c-0.7,5.3-4.3,7.5-4.3,7.5s1.8-7.7,0-10.5c-0.3-0.6-0.8-1.1-1.3-1.6c-2.1-2-5.5-3.6-9-3.8
					c-4.5-0.3-9,0.2-10.9,3.3s-0.9,11-0.9,11c-3.1-2.1-3.3-11.3-2.5-14.7c0.8-3.3,3.5-7.5,9.4-9.5s12.6-0.2,16,2.1
					c0.9,0.6,1.7,1.7,2.2,3.1C156.8,14.7,157.1,20.2,156.6,24.2z"/>
				<path class="st2" d="M156.6,24.2c-0.7,5.3-4.3,7.5-4.3,7.5s1.8-7.7,0-10.5c-0.3-0.6-0.8-1.1-1.3-1.6c1,0.2,2,0.5,2.3,0.8
					c0.6,0.5,1.1,0.1,1.8-1.8s0.7-3.1,0.6-4.8c0-0.7-0.2-1.7-0.4-2.7C156.8,14.7,157.1,20.2,156.6,24.2z"/>
				<path class="st15" d="M146.4,15.7c-1-0.8-6.7-1.2-8.9-1.1c-2.1,0.1-5.8,2-7.2,4.3c-0.9,1.5-0.6,4.3-0.4,6.1
					c0-2.2,0.3-4.7,1.1-6.1c1.9-3.1,6.4-3.6,10.9-3.3c2.2,0.2,4.3,0.8,6.1,1.7C147.5,16.8,146.9,16.1,146.4,15.7z"/>
				<path class="st15" d="M137.1,5.8c-5.9,2-8.5,6.2-9.4,9.5c-0.5,2-0.6,6.2,0.1,9.7c0.1-3.3,0.3-8.5,0.6-9.7c0.5-1.8,3.5-5.4,4.1-6
					c0.7-0.6,2.9-1.3,2.9-1.3s-2.4,1.7-1.7,2.4s5.1-0.3,5.9-1.6c0.7-1.3,0.2-2.6,0.2-2.6s3.2-0.6,5.8-0.3c1,0.1,2.4,0.2,3.7,0.2
					C145.8,4.9,141.3,4.5,137.1,5.8z"/>
			</g>
			<g>
				<path class="st18" d="M152.6,274.8c0,0-1.8,3.2-2.1,4.2c-0.3,1.1-0.2,8.8-0.2,8.8s12.1,1.5,19.3-0.1c0,0-0.5-8.7-0.8-10.1
					s-2-4.2-2-4.2L152.6,274.8z"/>
				<path class="st18" d="M136.1,274.6c0,0,0.8,12.9,0.5,13s-12.2,0.1-12.2,0.1l-0.6-1.6l-1,1.7c0,0-22.3,0-23.1-0.1
					s1.2-6.9,3.4-7.8c2.2-0.9,12-2.3,12-2.3l3.9-4.7L136.1,274.6z"/>
				<g>
					<path class="st19" d="M140.3,132.7c0,0,0,0.5-0.1,1.4c-0.2,4.3-0.7,17.5-1.3,31.7l0,0c0,0.3,0,0.5,0,0.8l0,0
						c-0.6,14.6-1.3,30.2-1.7,38.2c-0.8,17.6,0,70,0,70s-11.1,2.4-19.7-0.5c0,0-2-71.4-2.5-95.7c-0.1-3.9-0.1-6.6-0.1-7.6
						c0.2-7.1,0-36.1,0-36.1L140.3,132.7z"/>
					<path class="st19" d="M169.8,275.3c0,0-0.6,0.1-1.7,0.3c-2.8,0.4-8.8,0.9-15.8-0.2c-0.7-0.1-1.4-0.2-2.2-0.4
						c0,0-4.7-52.6-5-58.4c-0.1-2.4-1.9-17-3.9-33.2c-0.7-5.8-1.5-11.8-2.2-17.6l0,0c0-0.3-0.1-0.6-0.1-0.9c-1.6-12.2-3-23.1-3.6-28
						c-0.1-0.7-0.2-1.2-0.2-1.6c-0.1-0.7-0.1-1.1-0.1-1.1h0.5l5-0.2h0.1h1.1l2.5-0.1l18.2-0.7c0,0,0,0.4,0,1c0,0.8,0.1,2.2,0.1,3.9
						c0.2,5.2,0.5,13.9,0.8,23.7c0,0.3,0,0.6,0,0.9c0,0.2,0,0.4,0,0.6c0.3,7.5,0.5,15.5,0.8,23c0.2,4.4,0.3,8.5,0.5,12.4
						c0.4,9.9,0.7,17.3,0.8,18.7C165.8,222.4,169.8,275.3,169.8,275.3z"/>
					<path class="st7" d="M164.4,198.7l-13.6-6.8l-0.3-3.1l-0.3-4.3l-3.5-0.4l-5.7-0.6c-0.7-5.8-1.5-11.8-2.2-17.6l0,0
						c0-0.3-0.1-0.6-0.1-0.9l-3.7-17.2l-2.6,34.5c0,0-2.3-0.5-5-1.1c-3.7-0.8-8.2-1.8-8.9-1.8l-3.5-0.8c-0.1-3.9-0.1-6.6-0.1-7.6
						c0.2-7.1,0-36.1,0-36.1l25.4-2.1c0,0,0,0.5-0.1,1.4h0.1h1.1l2.5-0.1l18.2-0.7c0,0,0,0.4,0,1c0,0.8,0.1,2.2,0.1,3.9
						c0.2,5.2,0.5,13.9,0.8,23.7c0,0.3,0,0.6,0,0.9c0,0.2,0,0.4,0,0.6c0.3,7.5,0.5,15.5,0.8,23C164.1,190.7,164.3,194.9,164.4,198.7
						z"/>
					<g>
						<path class="st9" d="M113.3,131.2c0,0,30,2.2,52.6-1.2v4.1c0,0-36,2.6-52.6,0.5C113.3,134.6,113.3,131.2,113.3,131.2z"/>
						<g>
							<path class="st20" d="M140.8,136.9l-5.9,0.1c-0.4,0-0.7-0.3-0.7-0.7l-0.1-5.9c0-0.4,0.3-0.7,0.7-0.7l5.9-0.1
								c0.4,0,0.7,0.3,0.7,0.7l0.1,5.9C141.5,136.6,141.2,136.9,140.8,136.9z"/>
							
								<rect x="135.19" y="130.79" transform="matrix(0.9998 -0.0175 0.0175 0.9998 -2.3056 2.4236)" class="st3" width="5" height="5"/>
						</g>
					</g>
				</g>
			</g>
			<g>
				<path class="st3" d="M131.8,109.3c-0.1,1.1-0.2,2.8-0.2,4.8c0,8.3,0.7,22.7,0.6,29.1c-0.1,8-5.3,41-5.3,41
					c-10.9,0.9-21.8-2.6-21.8-2.6s7.4-50.4,7.6-59.7c0.1-2.4,0.2-6,0.5-10.2c0.1-2.5,0.3-5.3,0.5-8.3c0.7-10.8,1.7-23.6,2.6-33.9
					c1.6-17.6,10.1-23.3,10.1-23.3s1.8,7.1,2.5,14.7s5,17.4,5,17.4s-0.8,13.3-1.5,22.7C132.1,104.8,131.9,107.8,131.8,109.3z"/>
				<path class="st4" d="M132.4,101.2c-0.3,3.6-0.5,6.7-0.6,8.2c-0.1,1.1-0.2,2.8-0.2,4.8c-3.9-0.5-13.5-1.8-18.4-2.4
					c0.1-2.5,0.3-5.3,0.5-8.3L132.4,101.2z"/>
				<path class="st3" d="M174.6,182.2c-3.3,1.8-7,3.2-10.6,4.2c-5.2,1.4-10.2,2.1-13.3,2.4c-2,0.2-3.2,0.3-3.2,0.3s-0.2-2-0.6-5
					c-0.9-7.4-2.5-20.5-2.5-22c-0.1-1.2-0.1-14-0.3-26.9c0-0.4,0-0.8,0-1.2c0-0.3,0-0.6,0-0.8c0-0.5,0-0.9,0-1.4
					c-0.1-5.3-0.2-10.4-0.4-14.7c0-0.6-0.1-1.1-0.1-1.6c-0.1-2.2-0.2-4.1-0.4-5.5c-0.1-1.3-0.3-2.8-0.4-4.4c0-0.2,0-0.3,0-0.5
					c-0.1-1.5-0.2-3-0.3-4.6c-0.1-2.2-0.2-4.4-0.2-6.6c0-1.1-0.1-2.2-0.1-3.2c-0.1-6.5-0.1-11.7-0.1-11.7l0,0l0,0l0,0
					c3.5-4.3,7.3-12.4,9.9-18.6c0.3-0.8,0.7-1.5,0.9-2.3c1.4-3.4,2.3-5.8,2.3-5.8l1.7-1.4l2.9-2.4l0.8-0.7l4.6,1.7
					c0,0,0,0.7-0.1,1.9v0.2c-0.2,4.3-0.7,14-1,20.5c-0.1,2.5-0.2,4.5-0.2,5.6c0,1.3,0.3,4.8,0.7,9.6c0.1,0.7,0.1,1.5,0.2,2.2
					c0,0.1,0,0.3,0.1,0.4c0.1,0.7,0.1,1.4,0.2,2.1c0.1,0.4,0.1,0.8,0.1,1.2c0,0.3,0.1,0.6,0.1,0.9c0.4,3.7,0.8,7.8,1.2,11.9
					c0.1,1.2,0.2,2.3,0.4,3.5c0.1,0.5,0.1,0.9,0.1,1.4c0.1,0.6,0.1,1.1,0.2,1.7c0.3,2.8,0.5,5.4,0.8,7.9c0.4,4.7,0.7,8.8,0.8,11.6
					c0,1.4,0.2,3.1,0.3,5.1c0.1,1.6,0.3,3.3,0.5,5.2c0.1,0.8,0.2,1.5,0.3,2.3c0.1,0.7,0.1,1.3,0.2,2c0,0.2,0,0.3,0.1,0.5
					c0.1,0.8,0.2,1.7,0.3,2.5c0.1,0.5,0.1,1,0.2,1.6c0.1,0.8,0.2,1.5,0.3,2.3s0.2,1.5,0.3,2.3c0.2,1.3,0.3,2.7,0.5,4
					c0,0.2,0.1,0.4,0.1,0.6c0.1,0.6,0.2,1.3,0.3,1.9C173.3,173.1,174.6,182.2,174.6,182.2z"/>
				<rect x="149.6" y="80.5" class="st21" width="6.4" height="1.8"/>
				<path class="st4" d="M165.2,119.8l-10-3.6l7.6,7.1l-19.4-6.2c0-0.6-0.1-1.1-0.1-1.6c-0.1-2.2-0.2-4.1-0.4-5.5
					c-0.1-1.3-0.3-2.8-0.4-4.4c0-0.2,0-0.3,0-0.5c-0.1-1.5-0.2-3-0.3-4.6c-0.1-2.2-0.2-4.4-0.2-6.6l4.6-2.2l11.6-5.4l2.5-16h0.1
					L162,71l1.9,1.1c-0.1,2.5-0.2,4.5-0.2,5.6c0,1.3,0.3,4.8,0.7,9.6c0.1,0.7,0.1,1.5,0.2,2.2c0,0.1,0,0.3,0.1,0.4
					c0.1,0.7,0.1,1.4,0.2,2.1c0.1,0.4,0.1,0.8,0.1,1.2c0,0.3,0.1,0.6,0.1,0.9c0.4,3.7,0.8,7.8,1.2,11.9c0.1,1.2,0.2,2.3,0.4,3.5
					c0.1,0.5,0.1,0.9,0.1,1.4c0.1,0.6,0.1,1.1,0.2,1.7c0.3,2.8,0.5,5.4,0.8,7.9L165.2,119.8z"/>
				<g>
					<path class="st4" d="M159,47l1.4,0.9c0,0-0.9,12.6-3.2,17.4l-2.4,0.7l0.8,2.2c0,0-7.5,7.9-13.8,10.9c0,0,7.1-7,10.1-16.6
						C155,52.9,159,47,159,47z"/>
					<path class="st3" d="M154.6,44.2l5.3,2.4c0,0-1.6,12.6-3.8,18.1l-3.2,0.3l1.2,2.8c0,0-5.3,6.4-12.2,11.3
						C141.9,79.1,155.2,55.7,154.6,44.2z"/>
				</g>
				<g>
					<path class="st4" d="M126.3,47.7c0,0-2.5,6.8-2.5,11.6s3.6,15.7,10,19.1l-3.9-11l-1.1-12.8L126.3,47.7z"/>
					<path class="st3" d="M133.9,78.4c0,0-6.3-19.7-1.9-33.9l-5.6,1.8c0,0-2.6,9.5-1.6,15l2.9,1.6l-2.4,1.4
						C125.3,64.4,128.2,73.8,133.9,78.4z"/>
				</g>
				<path class="st3" d="M171.6,160.6c-2,0.8-5.9,2.2-7.2,2.3c-0.3,0-0.8,0-1.2-0.1c-2-0.3-4.7-1.4-4.9-1.5l0,0c0,0-1.2-5.4-2.2-12
					c-0.5-3.3-0.9-6.8-1.2-10.1c0,0,3.6-0.5,7.4-1c2.4-0.3,4.9-0.7,6.6-0.9c0.1,1.6,0.3,3.3,0.5,5.2c0.1,0.8,0.2,1.5,0.3,2.3
					c0.1,0.7,0.1,1.3,0.2,2c0,0.2,0,0.3,0.1,0.5c0.1,0.8,0.2,1.7,0.3,2.5c0.1,0.5,0.1,1,0.2,1.6c0.1,0.8,0.2,1.5,0.3,2.3
					s0.2,1.5,0.3,2.3c0.2,1.3,0.3,2.7,0.5,4C171.5,160.2,171.6,160.4,171.6,160.6z"/>
				<path class="st3" d="M110.3,137.7H121c0,0-2,18.1-3.6,20.6c-1.7,2.5-8.6,1.9-8.6,1.9L110.3,137.7z"/>
				<path class="st4" d="M171.9,162.5c-3.1,0.4-7.8,1.1-8.5,0.9c-0.1,0-0.1,0-0.2,0c-1.2-0.3-4-0.9-4.9-2l0,0
					c-1-1.2-2.3-12.4-2.3-12.4s0,0.1,0.1,0.4c0.5,1.9,2.6,10.5,2.9,11.2c0.3,0.5,2.7,1.1,4.1,1.4c0.7,0.1,1.1,0.2,1.1,0.2l5.1-3
					l-1.3-6.8l-3.2-1.3l4.3-4.3l0.2-4.1c0.1,0.8,0.2,1.5,0.3,2.3c0.1,0.7,0.1,1.3,0.2,2c0,0.2,0,0.3,0.1,0.5
					c0.1,0.8,0.2,1.7,0.3,2.5c0.1,0.5,0.1,1,0.2,1.6c0.1,0.8,0.2,1.5,0.3,2.3s0.2,1.5,0.3,2.3c0.2,1.4,0.3,2.7,0.5,4
					c0,0.2,0.1,0.4,0.1,0.6C171.7,161.2,171.8,161.9,171.9,162.5z"/>
				<path class="st4" d="M119.5,147.2c0,0-0.8,10.5-2.2,11.8c-1.4,1.3-8.5,1.2-8.5,1.2l0.2-1.3c0,0,6.3,0.9,7.5-0.9
					C117.7,156.2,119.5,147.2,119.5,147.2z"/>
				<polygon class="st4" points="116.1,137.5 120.2,137.9 120.4,142 121,137 				"/>
			</g>
			<g>
				<g>
					<path class="st20" d="M138.1,66.2c0,0-4.9,23.8-5.6,34.1c0,0,0.4,14.7,3.6,20.8c0,0,5.7-15.9,5.9-21.4l-1.1-33.5
						C140.8,66.2,139.1,65.1,138.1,66.2z"/>
					<path class="st20" d="M136.5,57.9c0,0,0.6,5.6,1.6,8.3c0,0,1.4-0.4,2.8,0c0,0,3.2-5.3,3.5-7.9c0.3-2.6-3.3-3.3-3.3-3.3l-4.1,1
						L136.5,57.9z"/>
				</g>
				<path class="st21" d="M141,55c0,0,2.2,2.4,3.6,5.1c0,0,9.5-6.1,10.1-16l-5.3-2C149.3,42.2,148.1,50.5,141,55z"/>
				<path class="st21" d="M141,55c0,0-3.6,0.8-5,5.1c0,0-4.4-6-4-15.6l3-2.4C134.9,42.2,134.3,51.7,141,55z"/>
			</g>
			<g>
				<path class="st3" d="M143.2,105c0,0-3.5,0.6-8.2,1.3c-5,0.8-11.4,1.7-15.9,2.3c-8.7,1-15.5-0.1-15.5-0.1s-4.3-7.8-4.6-10.3
					c-0.3-2.5,11.2-41.9,13.7-46c0,0,7.4-4.2,13.7-5.8c0,0-4.7,6.2-7.3,14c-0.5,1.4-0.9,2.9-1.2,4.4c-2,9.7-3,31.4-3,31.4
					s22.7-2.4,25.9-3.1l1.1,5.3L143.2,105z"/>
				<path class="st4" d="M106.8,104.2c0,0,15.1-0.2,25.1-2.4l3.3,2.4C135.2,104.2,115.4,106.5,106.8,104.2z"/>
				<path class="st4" d="M143.2,105c0,0-3.5,0.6-8.2,1.3l-3.1-4.5l7.8-4.1l2.2,0.7L143.2,105z"/>
				<path class="st4" d="M119,60.4c-0.5,1.4-0.9,2.9-1.2,4.4c-2,9.7-3,31.4-3,31.4s-5.1-0.5-8,0l4-2.8l-2-7.3l3.4-0.3
					c0,0,0.8-19.7,6.8-28.6L119,60.4z"/>
			</g>
			<g>
				<path class="st5" d="M137.5,91.6l-4.3,7.2l-0.5,0.9c0,0-6.3-2.1-8.6-2.8c-2-0.6-5.6-0.9-6.5-1c-0.1,0-0.2,0-0.2,0
					s0.7-0.7,1.7-1.6c1.7-1.5,4.4-3.7,6.6-4.3c2.9-0.8,9.1,0.8,11.2,1.3C137.2,91.5,137.5,91.6,137.5,91.6z"/>
				<path class="st22" d="M136.8,91.4l-0.3,0.5c0,0-5.8-1.9-8.6-1.8c-2.8,0.1-8.9,4.2-8.9,4.2c1.7-1.5,4.4-3.7,6.6-4.3
					C128.5,89.2,134.8,90.8,136.8,91.4z"/>
				<path class="st6" d="M134,93.4l-0.8,5.4l-0.5,0.9c0,0-6.3-2.1-8.6-2.8c-2-0.6-5.6-0.9-6.5-1c1.4-0.5,3.7-1.2,5-1.3
					c2-0.3,7.3,0.3,7.3,0.3L134,93.4z"/>
			</g>
			<g>
				<path class="st3" d="M172.6,54.7c-2-2.6-7.6-5-7.6-5c-1.4,1.6-4.2,10.1-4.3,17c-0.1,4.5,0.9,15,1.6,21.6
					c0.4,3.4,0.6,5.8,0.6,5.8c-2.7,0-6.2-0.4-9.7-0.9C145.7,92,138,90,138,90s-4.2,1.7-5.3,3.3s-0.9,8.7-0.9,8.7s6,2.1,13.7,4.9
					c7.6,2.8,25.4,5.4,27,4.5s6-6.7,6-7.4C178.6,103.2,174.6,57.3,172.6,54.7z"/>
				<path class="st4" d="M168.2,87.5c0,0,3.2,1.1,3.5,1.7c0.3,0.7-4.1,5.9-4.1,5.9l-1.2-4.5L168.2,87.5z"/>
				<path class="st4" d="M147.1,106c0,0,20.4,0.6,23,0s6.9-2,6.9-2s-2.7,4.4-3.1,4.4c-0.4,0-6.6,0.6-6.6,0.6l4.8,0.5l-1.3,0.7
					C170.8,110.2,152.8,108.4,147.1,106z"/>
				<path class="st4" d="M161.3,61.7c0,0,0.9-7.5,4.1-10.5C165.5,51.2,160.9,53.7,161.3,61.7z"/>
			</g>
			<g>
				<path class="st9" d="M135.1,41.2c-0.1,0.3-0.1,0.6-0.2,0.8c-11.5,4.8-9.7,29.4-9.7,29.7l-0.7,0.1
					C124.5,70.7,122.7,45.7,135.1,41.2z"/>
				<path class="st9" d="M151.5,69.4l-0.7-0.1c0-0.2,2.4-19.6,1.7-22.7c-0.5-2.3-1.6-3.8-3.3-4.8l-0.1-0.9c0.2,0.1,0.3,0.2,0.4,0.2
					c1.9,1.1,3.1,2.8,3.7,5.3C154,49.7,151.6,68.6,151.5,69.4z"/>
				<circle class="st9" cx="150.9" cy="71.5" r="2.6"/>
				<path class="st3" d="M152.3,71.5c0,0.8-0.6,1.4-1.4,1.4c-0.8,0-1.4-0.6-1.4-1.4s0.6-1.4,1.4-1.4C151.7,70,152.3,70.7,152.3,71.5
					z"/>
				<g>
					<path class="st9" d="M121.6,83.9c0-0.3-1.1-8.4,1.3-11.4c0.5-0.7,1.2-1,2-1.1c1.5,0,2.7,0.5,3.6,1.5c2.8,3.2,1.6,10.4,1.6,10.7
						l-0.7-0.1c0-0.1,1.1-7.2-1.4-10.1c-0.8-0.9-1.7-1.3-3-1.3c-0.6,0.1-1,0.3-1.5,0.9c-2.2,2.8-1.2,10.8-1.2,10.8L121.6,83.9z"/>
				</g>
				<path class="st9" d="M123.2,83.8c0,0.7-0.5,1.2-1.2,1.2s-1.2-0.5-1.2-1.2s0.5-1.2,1.2-1.2C122.6,82.6,123.2,83.2,123.2,83.8z"/>
				<circle class="st9" cx="129.5" cy="83.7" r="1.2"/>
				<g>
					<path class="st9" d="M124.9,68.3c-0.4,0-0.7-0.3-0.8-0.7c-0.2-2.2,0.3-7.1,0.3-7.3c0-0.4,0.4-0.7,0.8-0.7s0.7,0.4,0.7,0.8
						c0,0-0.5,5-0.3,7C125.7,67.9,125.4,68.2,124.9,68.3C125,68.3,124.9,68.3,124.9,68.3z"/>
				</g>
			</g>
			<g>
				<path class="st5" d="M168.6,92.5c-0.1,0.4-0.2,0.9-0.4,1.3c-0.3,0.8-0.6,1.4-0.6,1.4s-2.1-1-4.9-1.2c-1.4,0-2.9-0.1-4.6-0.2l0,0
					c-1.5-0.2-3.1-0.4-4.7-0.6c-0.2,0-0.5-0.1-0.7-0.1c1-0.8,5.5-4.1,9.3-5l0,0c4.4-1,5.3-0.8,5.7-0.7c0.3,0.1,0.5,0.4,0.6,0.8
					c0,0.1,0,0.2,0,0.3c0,0.2-0.1,0.4-0.1,0.7c-0.1,0.3-0.2,0.6-0.2,0.6l0,0C168.2,89.7,168.8,91.4,168.6,92.5z"/>
				<path class="st22" d="M168.4,88c-1.2,0-6.3,0.2-7.7,0.6c-1.3,0.4-5.5,3.3-7.3,4.4c-0.2,0-0.5-0.1-0.7-0.1c1-0.8,5.5-4.1,9.3-5
					l0,0c4.4-1,5.3-0.8,5.7-0.7C168.1,87.4,168.3,87.7,168.4,88z"/>
				<path class="st6" d="M168.3,89c-0.1,0.3-0.2,0.6-0.2,0.6l0,0c-0.6,0-2,0.2-2.8,0.4c-0.9,0.3-2.2,0.8-2.3,0.9
					c0.2-0.2,1.7-1.4,3.1-1.6C166.8,89.1,167.7,89,168.3,89z"/>
				<path class="st6" d="M168.2,93.7c-0.3,0.8-0.6,1.4-0.6,1.4s-2.1-1-4.9-1.2c-1.4,0-2.9-0.1-4.6-0.2c1.1-0.2,4.2-0.7,5.2-1
					c1.3-0.5,3.5-0.7,3.5-0.7l0.4,0.2l-2.3,1.3c0,0,1.1,0,1.8,0.1C167.2,93.5,167.7,93.6,168.2,93.7z"/>
			</g>
		</g>
		<g>
			<g>
				<path class="st3" d="M288.2,153.4L288.2,153.4l-3.8-0.4l-8.1-0.9l-0.2-8.2l-1.2-41l-4.4-24.6l-1.9-10.9l2.4-6.8
					c0,0,7.9,8.3,8.8,9.2c0.2,0.2,1.6,2.3,2.2,5.3c1.4,6.2,2.6,11.9,3.7,17.8c0.4,2,0.6,8.1,0.7,8.7
					C286.6,104.6,288.2,153.4,288.2,153.4z"/>
				<path class="st4" d="M288.1,153.4l-3.8-0.4c-3.1-2.3-6-5.8-8.4-9.1l-1.2-41l-4.4-24.6V62.9l9.3,12l3,8.1
					c0.8,3.9,1.6,8.1,2.2,11.4l-0.5,8.3l-1.2,6.2l1.7,15L288.1,153.4z"/>
			</g>
			<g>
				<polygon class="st19" points="304.9,133.4 302.3,156.7 289.3,155.2 276.9,153.8 268.3,152.9 269.2,144.6 270.9,129.6 
					285.6,131.3 				"/>
				<polygon class="st23" points="289.3,155.2 276.9,153.8 269.2,144.6 270.9,129.6 285.6,131.3 285.7,131.3 				"/>
				
					<rect x="288" y="139.49" transform="matrix(0.1108 -0.9938 0.9938 0.1108 120.5828 422.0443)" class="st3" width="16.3" height="8.3"/>
			</g>
			<g>
				<path class="st5" d="M291.1,155.3l-0.1,0.1l0,0c-0.5,0.6-3.4,1.2-4.6,0.3c-1.3-1,0-5,0-5s1-0.2,1.9-0.1c0.5,0.1,1,0.2,1.2,0.5
					C290.1,152,291.1,154.7,291.1,155.3z"/>
				<path class="st6" d="M291.1,155.3l-0.1,0.1l0,0c-0.5,0.6-3.4,1.2-4.6,0.3c-1.3-1,0-5,0-5s1-0.2,1.9-0.1c0.1,0.9,0.2,2.3,0.3,3.5
					L291.1,155.3z"/>
			</g>
			<g>
				<path class="st12" d="M245.8,284.7c0,0.7-0.9,3.2-0.9,3.2s-13.2,1.5-13.9,0.4s0-6.5,0-6.5l3-7h1l9.9,0.2h0.6
					C245.4,275,245.8,284,245.8,284.7z"/>
				<path class="st14" d="M244.8,274.9c0,1.5-0.3,8.4-0.7,8.9c-0.4,0.6-8.7,0.1-10.2-0.4c-1.3-0.4,0.6-6.6,1-8.7L244.8,274.9z"/>
			</g>
			<g>
				<path class="st12" d="M295.9,286.6c-0.4,0.4-5.9,0.6-10.2,0.4c-4.2-0.2-18.5,0.2-18.5,0.2l-2.1-2.1c0,0,0.2-3.6,0.4-4.8
					c0.1-0.5,0.2-1.5,0.4-2.7c0.2-1.8,0.5-3.7,0.5-3.7l9.6-0.2c0.9,3,6.4,6.8,9.6,7.3c0.3,0,0.6,0.1,1,0.2c2.3,0.5,6.5,1.5,8.5,2.1
					c0.7,0.2,1.2,0.9,1.2,1.6C296.2,285.6,296.1,286.4,295.9,286.6z"/>
				<path class="st14" d="M286.5,281.1c-0.9,0.9-2.6,2-5.6,2.1c-5,0.2-13.2-3.4-14.1-4.5c-0.2-0.3-0.6-0.7-0.9-1.1
					c0.2-1.8,0.5-3.7,0.5-3.7l9.6-0.2c0.9,3,6.4,6.8,9.6,7.3C285.8,281,286.2,281.1,286.5,281.1z"/>
			</g>
			<g>
				<path class="st24" d="M283.7,141.2v58.4c0,0-1.8,18-2.8,23.5s-4.1,51.3-4.1,51.3c-4.7,0.8-11.4,0.4-11.4,0.4s-1.2-34.7-1.6-43.8
					s1-31,1-31l-1.5-25l-0.1-1.5l0,0l-0.8-12.4l-0.2-3.7l0.2-15l4.4-0.2L283.7,141.2z"/>
				<path class="st24" d="M264.4,166.6L264.4,166.6c-0.4,2.3-0.8,4.7-1.2,7l0,0c-2.3,13-4.8,25.7-5.3,27.8
					c-1,4.3-11.6,74.2-11.6,74.2c-3.7,0.8-14-0.2-14-0.2c0.6-12.4,6.1-74.9,6.1-74.9c0-3,0.2-8.4,0.4-14.7c0.6-15.5,1.6-36,1.6-36
					l4.3-8.3c0,0,18.7-3.5,22.1,0.7c0.3,0.4,0.5,0.8,0.5,1.2C267.7,146,266.2,155.7,264.4,166.6z"/>
				<path class="st25" d="M283.7,141.2v40.2l-7.8-2.1l-0.5-12.4l-8.2,11.3l-2.5,21.8l-1.5-25l0.1-0.5l1.1-7.9v-0.1l1.3-9.6l-3.3,4.2
					l-4.1,5.3l0.3,13.4l-19.9,5.9c0.6-15.5,1.6-36,1.6-36l4.3-8.3c0,0,18.7-3.5,22.1,0.7L283.7,141.2z"/>
			</g>
			<g>
				<path class="st26" d="M278.1,126.7c0.4,7.4,0.4,14.7-1.3,16.6c-0.3,0.3-0.6,0.5-0.9,0.5c-1.4,0.2-4,0.3-7,0.4
					c-8.1,0.3-19.3,0.4-19.3,0.4L248.8,59l18.5-0.3l11,31.5l0.9,2.7c0,0-1.3,11.5-2.2,14.7C276.6,109.3,277.6,118.2,278.1,126.7z"/>
				<path class="st27" d="M278.1,126.7l-1.3,16.6c-0.3,0.3-0.6,0.5-0.9,0.5c-1.4,0.2-4,0.3-7,0.4l-0.6-30.5l-8.5,0.8l-9.2-1
					l-0.4-9.5l4.5-10.1c0,0,10.6,1.3,13.7,0.1c3-1.2,8.7-6.4,8.7-6.4l1.3,2.7l0.9,2.7c0,0-1.3,11.5-2.2,14.7
					C276.6,109.3,277.6,118.2,278.1,126.7z"/>
			</g>
			<g>
				<g>
					<path class="st3" d="M262.3,133.7c-0.1,5.7-1.2,44.4-1.2,44.4s-7.4-0.4-12-0.5s-18.3-3.7-18.3-3.7s2-5.7,3.9-12.2
						c1-3.3,3.3-16.2,5.5-28.4c0.6-3.5,1.2-7,1.7-10.1c0.4-2.4,0.8-4.6,1.1-6.5c0.8-4.6,1.3-7.7,1.3-7.7c-1.9-5.9-4.1-14.9-6-23.3
						c-2.4-11-4.3-20.9-4.3-20.9l9.4-5.7l8.5,0.5l11.6,34.2c0,0-1,13.1-1.4,16.3c-0.1,0.4-0.1,0.9-0.1,1.6
						C262,116.7,262.4,128.7,262.3,133.7z"/>
					<path class="st4" d="M255.1,143.1l-1.8,14c0,0-9.2,2-10,1.8s-2.4-5.7-2.4-6.1c0-0.4,1.9-10.1,1.9-10.1l-1.1,10l1.9,5.2l8.9-1.7
						L255.1,143.1z"/>
					<path class="st4" d="M245.9,142.1c0,0,5.3,0.1,7.7,0.8C253.6,142.9,250.1,141.3,245.9,142.1z"/>
					<path class="st4" d="M252.3,127.2c0,0-2.5,1.4-6.2,3.4c-1.5,0.8-3.7,1.8-5.8,2.7c0.6-3.5,1.2-7,1.7-10.1l9-2.1L252.3,127.2z"/>
					<path class="st4" d="M263.6,93.9c0,0-0.6,7.5-1,12.5l-9.8,1.8l-6.4-2.6c-0.9-0.8-1.6-1.4-1.6-1.4l-0.1-8.4l8.7,2.6
						C253.5,98.3,263.3,94.8,263.6,93.9z"/>
					<path class="st4" d="M246.2,109.3c0,0.6-2,6.9-2,7.5l-1.2-0.1c0.8-4.6,1.3-7.7,1.3-7.7c-1.9-5.9-4.1-14.9-6-23.3l0.6-0.9
						c2.1-3.2,1-10,0.9-10.7c0.3,1.2,4.9,17.7,5.1,18.3C245.2,92.9,246.2,108.7,246.2,109.3z"/>
				</g>
				<g>
					<path class="st4" d="M244.3,58.5l-0.8,0.7c0,0,3.4,12,4.5,13.5l1.2-0.1l-0.4,1.1c0,0,9.5,17.5,14.7,20.3l-11.7-27.4L244.3,58.5
						z"/>
					<path class="st3" d="M250.6,56l-6.8,2.2c0,0,1.2,7.2,5.5,12.8l2.7-0.8l-1.3,2.6c0,0,8.7,17.4,13,21c0,0-3.4-19.2-5.5-25.2
						C256,62.8,250.6,56,250.6,56z"/>
				</g>
			</g>
			<g>
				<path class="st3" d="M290.7,175.6c0,0-1.8,0.8-4.5,1.6c-2.6,0.8-11.7-0.3-11.7-0.3s-4.9-63.6-4.7-64.7c0.1-1,3.5-23.3,3.5-23.3
					l-0.2-6.7L271.2,62v-0.1c0,0,0.5,0.8,1.2,2.1l0,0c1.1,2.1,2.9,5.4,4.6,8.5c0.8,1.5,1.6,3,2.3,4.3c1.5,4.5,3.5,11.1,3.4,12
					c-0.1,1.3-3.3,22.2-3.5,23.5v0.1c0,0,5.3,20.4,5.8,24.2c0.3,1.9,1.7,11.8,3,21.2c0.1,0.6,0.2,1.1,0.2,1.7
					C289.5,167.9,290.7,175.6,290.7,175.6z"/>
				<path class="st4" d="M285.3,138.6c-2.4,0.6-7.4,1.8-7.4,1.8l7.7,0.7C285.5,140.2,285.4,139.3,285.3,138.6z"/>
				<path class="st3" d="M280.2,140.4c0.3,0,6.5,0,6.5,0l1.4,18.5l-6.6-0.9l-3.3-17.6H280.2z"/>
				<path class="st4" d="M282.8,88.8l-2.8,7.1l-4.2,7.6l-5,1.7c0.1-1,2.5-16.3,2.5-16.3s5.1,1.4,6,1.1
					C280.1,89.7,282.8,88.8,282.8,88.8z"/>
				<g>
					<path class="st4" d="M273.3,89l-1.7-16.4l-1-11.6l0.6,1l1.2,2l0,0c0.4,0.7,0.9,1.6,1.4,2.6c0.4,2,0.5,4,0.5,4s0.2,1.4,0.3,4.1
						C274.6,77.4,273.3,89,273.3,89z"/>
					<path class="st3" d="M273.3,89c0,0-3.5-13.4-5.8-24.5c0.3-1.5,0.6-3.8,0.4-6.1l3.1,1c0,0,2,7.8,2.9,10.6l-1.3,0.7l1.2,2.1
						C273.6,72.6,275,79.5,273.3,89z"/>
				</g>
				<polygon class="st12" points="279.3,82.2 275.4,82.5 274.8,80.7 278.8,80.5 				"/>
			</g>
			<g>
				<path class="st6" d="M243.3,116.3c0.1-0.1,3.4-2,4.1-2.8c0.7-0.8,1-1.4,1.2-1.4c0.1,0,1.2,0.4,1,1.6c-0.1,0.3-1.3,2.4-1.3,2.4
					L243.3,116.3z"/>
				<path class="st5" d="M255,116.7c0,0-0.4,4.9-0.5,5.4s-2.3,5.1-2.3,5.1s-5.8-1-6.1-0.9s-4.9,0.5-4.9,0.5s-4.9-3-6.5-5.5
					c-0.7-1.1,0.2-2.5,1.5-3.7l0,0c1.7-1.6,3.8-2.8,3.8-2.8s0.1,0,0.2,0.1c0.1,0.1,0.2,0.1,0.4,0.2c0.7,0.4,1.7,0.9,2.1,0.9
					c0.6,0.1,6.9-1,6.9-1L255,116.7z"/>
				<path class="st6" d="M252.3,127.2c0,0-5.8-1-6.1-0.9s-4.9,0.5-4.9,0.5s-4.9-3-6.5-5.5c-0.7-1.1,0.2-2.5,1.5-3.7l0,0l4-2.7
					l0.5-0.3c0,0,0,0.2-0.1,0.5c-0.3,1.5-1.3,6.2-2,7.1c-0.8,1.2,2.2,2.7,2.2,2.7l6.3,0.5L252.3,127.2z"/>
			</g>
			<g>
				<path class="st3" d="M234.1,64.8c0,0-17.5,19.8-20,22.4c0,0-0.5,4.2-0.5,5.7c0,1.4,11.8,26.3,18.4,32.5c0,0,6.8-3.8,8.8-10.8
					c0,0-12.8-16.4-14.9-21.3l12.5-7.5C238.4,85.7,238.9,70.8,234.1,64.8z"/>
				<polygon class="st4" points="226,93.2 223.7,90.3 230.3,88.8 235.8,86.3 				"/>
			</g>
			<g>
				<path class="st28" d="M254,55.1c0,0,2.2,5.8,7.2,8.1l-3,5.5c0,0-6.9-6.2-7.6-12.7L254,55.1z"/>
				<path class="st28" d="M267.4,64.4c-0.2,1-0.4,1.7-0.4,1.7c-1.6-1.8-5.9-2.9-5.9-2.9c2.3-1.8,4.2-6.4,4.2-6.4l2.4,1.1
					c0,0.1,0,0.3,0.1,0.4C268.1,60.6,267.8,62.9,267.4,64.4z"/>
				<g>
					<path class="st29" d="M260.2,63.4c-3.8-0.2-5.6-1.7-6.1-3.1c-0.5-1.4-0.1-5.2-0.1-5.2s0.6-1.9,1-4c0.1-0.5,0.2-1,0.2-1.5
						c0.2-2.5,9.8,1.9,9.8,1.9s-0.3,1.9-0.1,3.5c0.1,0.6,0.2,1.2,0.5,1.7C266.3,58.4,264.1,63.6,260.2,63.4z"/>
					<path class="st30" d="M264.9,55.1c-1.6,1.1-3.5,2-4.9,1.4c-1.8-0.8-3.8-3.5-5-5.4c0.1-0.5,0.2-1,0.2-1.5
						c0.2-2.5,9.8,1.9,9.8,1.9S264.7,53.5,264.9,55.1z"/>
					<path class="st29" d="M252,36.5c0,0,0.2,9.7,1.3,11.2c1.1,1.6,4.3,6.5,7.3,6.9s8.9-3.7,10.4-7.1c1.4-3.4,0.5-4.9,0.9-8.2
						s1.8-7.6-0.5-11.3s-16.6-3.1-17.7,0.3C252.4,31.8,252,36.5,252,36.5z"/>
					<path class="st29" d="M252.9,38.8c0,0-2-2-2.9-1c-1,1-0.4,3.8,0.4,4.8c0.8,1,2.2,1.6,2.2,1.6L252.9,38.8z"/>
					<path class="st17" d="M270,41.9c0-0.1-0.1-0.1-0.2-0.2c-0.1-0.1-0.2-0.2-0.3-0.3c-0.2-0.2-0.5-0.3-0.8-0.3
						c-0.6-0.1-1.1,0.2-1.5,0.6c-0.1,0.2,0.1,0.4,0.3,0.3c0.3-0.3,0.7-0.4,1.1-0.3c0.1,0,0.1,0,0.2,0l0,0c0,0,0,0,0.1,0l0.1,0.1l0,0
						c0,0,0,0,0.1,0l0.1,0.1c0,0,0,0,0,0.1c0,0,0.1,0.1,0,0l0,0c0,0,0,0,0,0.1s0.1,0.1,0.2,0.2c0.1,0.1,0.2,0.1,0.4,0.1
						c0.1-0.1,0.2-0.2,0.2-0.3C270.1,42.1,270.1,42,270,41.9z"/>
					<path class="st17" d="M261.7,41c-0.1-0.1-0.1-0.2-0.2-0.3c-0.2-0.2-0.4-0.3-0.7-0.4c-0.3-0.1-0.6-0.1-0.9-0.1s-0.7,0.1-1,0.3
						c-0.2,0.1-0.1,0.5,0.1,0.5c0.5,0,1-0.2,1.4,0h0.1c0.1,0,0,0,0,0h0.1c0,0,0.1,0,0.1,0.1l0,0c0,0,0,0,0.1,0
						c0.1,0.1,0.1,0.1,0.2,0.2l0,0l0.1,0.1c0,0,0.1,0,0.1,0.1c0.1,0.1,0.4,0,0.3-0.2c0,0,0-0.1,0-0.2
						C261.8,41.2,261.7,41.1,261.7,41z"/>
					<path class="st30" d="M264.9,45c-0.1-0.3,0-0.5,0-0.8c0.1-0.3,0.2-0.6,0.3-0.9c0.1-0.3,0.2-0.6,0.1-0.9
						c-0.1-0.2-0.4-0.3-0.5-0.1s-0.2,0.5-0.2,0.7c-0.1,0.3-0.2,0.5-0.2,0.8c-0.1,0.5-0.2,1,0,1.5c0.1,0.2,0.3,0.4,0.3,0.6
						c0,0.2,0,0.3-0.1,0.5c-0.3,0.3-0.8,0.3-1.2,0.3c-0.1,0-0.2,0.1-0.1,0.2c0.9,0.8,2.2-0.1,2-1.2C265.2,45.4,265,45.2,264.9,45z"
						/>
					<path class="st17" d="M270.5,39.3c-0.2-0.1-0.4-0.1-0.6-0.2c-0.2-0.1-0.5-0.1-0.7-0.1s-0.4,0-0.6,0c-0.3,0-0.5,0-0.7,0.2
						c-0.1,0.1-0.1,0.3,0,0.4c0.1,0.1,0.2,0.1,0.3,0.1c0.1,0,0.2,0,0.4-0.1c0.2,0,0.4,0,0.6-0.1c0.2,0,0.4,0,0.6,0s0.4,0,0.6,0
						C270.6,39.7,270.7,39.4,270.5,39.3z"/>
					<path class="st17" d="M262.9,38.6c-0.2-0.1-0.3-0.2-0.5-0.3c-0.1-0.1-0.3-0.2-0.4-0.3s-0.3-0.2-0.5-0.2
						c-0.2-0.1-0.4-0.2-0.6-0.2c-0.1,0-0.2,0.1-0.3,0.2c-0.1,0.1-0.1,0.2,0,0.3s0.2,0.2,0.3,0.3c0,0,0.1,0,0.2,0.1
						c-0.1,0,0.1,0,0.1,0c0.2,0.1,0.4,0.1,0.6,0.2c0.2,0.1,0.3,0.1,0.5,0.2c0.2,0,0.4,0.1,0.5,0.2C262.9,39.1,263,38.7,262.9,38.6z"
						/>
					<path class="st11" d="M265.9,48.8c-0.5,0.1-0.9,0.3-1.4,0.4c-0.5,0.1-1,0.1-1.4,0c-0.9-0.1-1.8-0.4-2.2-1.2
						c-0.1-0.2-0.5-0.1-0.4,0.2c0.4,1,1.4,1.6,2.4,1.7c0.6,0.1,1.1,0,1.7-0.1s1.1-0.3,1.5-0.7C266.1,48.9,266,48.8,265.9,48.8z"/>
					<path class="st3" d="M271.3,46.5c0,0-0.1,0.3-0.4,0.9c-0.6,1.4-2,4.1-3.7,5.4c-2.4,1.8-5.2,3.1-7.3,2.7
						c-0.9-0.2-2.1-1.3-3.2-2.6l0,0c-1.4-1.5-2.6-3.3-2.9-4c0,0,3-2.6,3.3-3.8c0,0,5.3-1.8,8.9-0.9
						C269.6,45.1,271.3,46.5,271.3,46.5z"/>
					<path class="st3" d="M256.9,45.6c0,0-1.8-4.3-4.6-5.7l0.2-0.5c2.9,1.5,4.7,5.7,4.8,5.9L256.9,45.6z"/>
					<path class="st3" d="M253.8,48.9c-0.1-0.1-1.5-2.4-2.5-6.2l0.5-0.1c1,3.8,2.8,6.2,2.8,6.2L253.8,48.9z"/>
					<path class="st8" d="M272.2,37.6c-0.6-1-2.5-2.8-4.8-3.6l0,0h-0.1c-0.8-0.3-1.6-0.4-2.4-0.4c-3.3,0-6.6,1.4-8.6,4.1
						s-3.1,10-3.1,10c-2.2-1-3.6-2.8-4.5-5l0,0c-0.1-0.2-0.1-0.3-0.2-0.5c-1.7-4.3-1.5-9.5-1.2-11c0.4-2.4,1.2-7.5,7.6-10.5
						c1-0.5,4.1-1,5.7-0.8c2.1,0.1,4,0.7,5.8,1.7c1.5,0.8,2.8,1.9,4,3.2l0,0c1.8,1.9,2.6,4.4,2.9,6.9
						C273.6,34.6,272.3,36.9,272.2,37.6z"/>
					<path class="st15" d="M267.4,34c-0.8-0.3-1.6-0.4-2.4-0.4c-3.3,0-6.6,1.4-8.6,4.1s-3.1,10-3.1,10s0-5,0.6-6.8s3.6-5.8,5.1-6.5
						s1.2-0.7,3.3-1C264.2,33.2,265.7,33.3,267.4,34z"/>
					<path class="st15" d="M259.7,20.6c-2.9,0.1-5.9,2.3-5.9,2.3s0.7,0.9,0.8,1.8c0.1,0.8-1.9,2.3-3,2.6c-1.1,0.3-1.2-0.8-1.2-0.8
						s-2.2,4-2.5,6c-0.2,1.9,0.7,9.8,0.7,10.3c-0.1-0.2-0.1-0.3-0.2-0.5c-1.7-4.3-1.5-9.5-1.2-11c0.4-2.4,1.2-7.5,7.6-10.5
						c1-0.5,4.1-1,5.7-0.8c2.1,0.1,4,0.7,5.8,1.7C264.6,21.2,261.6,20.6,259.7,20.6z"/>
					<path class="st2" d="M272.2,37.6c-0.4-1.4-2.3-3.3-2.4-3.3l1.5-0.5l0.4-1.4c0,0,0.2-2.3-0.1-3.6c-0.3-1.3-1.6-4.1-1.6-4.1
						s0.1,0,0.3,0.1l0,0c1.8,1.9,2.6,4.4,2.9,6.9C273.6,34.6,272.3,36.9,272.2,37.6z"/>
					<path class="st14" d="M270.9,47.4c-0.6,1.4-2,4.1-3.7,5.4c-2.4,1.8-5.2,3.1-7.3,2.7c-0.9-0.2-2.1-1.3-3.2-2.6
						c0.3,0.1,3,1.1,4.1,1.2c1.1,0,3.4-1.2,4-1.8c0.7-0.6,2.9-3.1,3.1-3.8s-0.2-1.7-0.2-1.7l-1.7-1.9c0.3,0,3.2,1.1,4,1.7
						C270.4,46.9,270.7,47.1,270.9,47.4z"/>
				</g>
			</g>
		</g>
		<g>
			<g>
				<path class="st12" d="M208.5,266.1c0,0.4-0.9,9.6-1.1,12.6c-0.1,3-0.3,8,0.9,8.9s9.7,1.1,11.6,0.1c1.8-0.9,0.9-8.2,0.8-10.4
					c-0.1-2.2-1.3-11.3-1.3-11.3h-10.9V266.1z"/>
				<path class="st14" d="M209.2,267.3c0,0.3-0.8,12-0.6,13.3s10.3,1.6,10.7,0.8s-0.9-14-0.9-14L209.2,267.3z"/>
			</g>
			<g>
				<g>
					<path class="st12" d="M197.5,284.6l-0.1,1.6c0,0-4.2,0-4.4-0.3s0.2-7.3,0.2-7.3s-3.5,5.3-5.1,6.3c-1.7,1-13,1.2-14.1,0.5
						s-1.7-2.8-0.7-3.9s5.3-2.1,6.2-2.5s4.3-6.8,6-8.6c1.7-1.8,1.8-4.5,1.8-4.5l7.6,0.5l2.2,0.2C197.1,267,197.5,284.6,197.5,284.6z
						"/>
					<path class="st14" d="M194.8,266.5c-0.1,0.9-0.5,5.8-2.3,8.5c-2,3-9.4,6.1-13.1,4c0.9-0.4,4.3-6.8,6-8.6
						c1.7-1.8,1.8-4.5,1.8-4.5L194.8,266.5z"/>
				</g>
				<g>
					<path class="st31" d="M199.5,211.1c0,0,0.6,13.2,0.2,17.4c-0.4,4.1-1.6,38.9-1.6,38.9c-0.7,0.1-1.4,0.2-2.1,0.3
						c-4.7,0.3-10.5-0.7-10.5-0.7c0-3.9-1.2-52.3-1.2-52.3s-4.1-28.6-5.1-38.3c-0.6-6-0.3-12.1,0-15.7c0.2-2.2,0.4-3.6,0.4-3.6
						l24.5,1L199.5,211.1z"/>
					<path class="st32" d="M199.5,211.1c0,0,0.6,13.2,0.2,17.4c-0.4,4.1-1.6,38.9-1.6,38.9c-0.7,0.1-1.4,0.2-2.1,0.3l1.5-15.9
						l-1.2-37.3l-3.4-0.8l2.4-2.8c0,0,2.2-7.1,2.4-9.3s-2.2-35.3-2.2-35.3l-16.4-5.7c0.2-2.2,0.4-3.6,0.4-3.6l24.5,1L199.5,211.1z"
						/>
				</g>
			</g>
			<g>
				<path class="st31" d="M225,184.2c-0.4,6.1-3,23.7-3,23.7s0,8.4-0.1,18.9c-0.1,16-0.2,37.9-0.3,41.1c0,0-8.9,0.8-14.2-0.4
					c0,0-3.6-56.1-3.6-59c0-3-6.3-51.3-6.3-51.3l7-0.5l19.9-1.3C224.2,156,225.4,178.1,225,184.2z"/>
				<path class="st32" d="M225,184.2c-0.4,6.1-3,23.7-3,23.7s0,8.4-0.1,18.9l-1.3-19.7l1.6-23.5l-1.4-19.2l-20.7-0.3l-1.6-5.5l6-1.8
					l19.9-1.3C224.2,156,225.4,178.1,225,184.2z"/>
			</g>
			<g>
				<g>
					<path class="st5" d="M186.1,123c-0.2,1.6-0.6,3.4-1.1,5.2l0,0c-1.8,6.7-5,13.9-5,13.9s-0.5-1.1-1-2.3c-0.4-0.9-0.7-1.9-0.9-2.6
						c-0.1-0.2-0.1-0.4-0.1-0.5c0-0.6,0.9-3.8,1.3-5c0.1-0.3,0.2-0.5,0.2-0.5s0-1.1-0.1-2.8c-0.2-5.9-0.7-19.1-0.7-20.1
						c0-0.7,0-4.6,0.1-7.8c0-2.6,0.1-4.8,0.1-4.8l7,0.7C185.9,96.3,187.1,115.5,186.1,123z"/>
					<path class="st6" d="M185,128.2c-1.8,6.7-5,13.9-5,13.9s-0.5-1.1-1-2.3c0.1-0.4,0.2-1.1,0.3-2.1c0.2-1.7,0.8-5.4,0.8-5.4
						l-0.8-0.6c0.1-0.3,0.2-0.5,0.2-0.5s0-1.1-0.1-2.8L185,128.2z"/>
				</g>
				<g>
					<path class="st32" d="M186.7,98.6c-0.5,0.1-1.1,0.1-1.7,0.1l-0.7,32.2c-1.6,0.2-2.8,0.2-3.6,0.1c-1.4-0.2-2.1-0.5-2.1-0.5
						c-1.6-12.2-1.5-37.3-0.8-43.1v-0.1c0.6-5.1,1.4-10.8,2.8-14c0.9-2.1,2-3.8,3.1-5.1c2.6-3,5.4-4.1,5.4-4.1s0.1,2.4,0.1,5.8
						C189.3,79.6,189.2,98.3,186.7,98.6z"/>
					<path class="st31" d="M179,103.4c0.3,2.2,1.3,22,1.5,27.5c-1.4-0.2-2.1-0.5-2.1-0.5c-1.6-12.2-1.5-37.3-0.8-43.1v-0.1
						c0.6-5.1,1.4-10.8,2.8-14c0.9-2.1,2-3.8,3.1-5.1c-1.3,3.8-3.8,10.9-4,11.9C179.3,81.3,178.7,100.9,179,103.4z"/>
				</g>
			</g>
			<g>
				<path class="st31" d="M227.3,156.8c0,0-12.5,2.8-22.1,3.4c-9.6,0.7-28.5-2-28.5-2s0.9-8.9,1.8-11.7s6.4-35.4,6.4-35.4
					s-6.7-21-6.4-22c0.6-2.2,2.5-8.9,3.4-10.8c0.9-1.8,4.9-13.1,7.1-14.5c2.2-1.3,8.1-2.5,8.1-2.5l14.3,0.1l8.3,2.1
					c0,0,0.1,13-0.3,20.2c-0.1,1.8-0.2,3.3-0.4,4.1c-0.8,3.8-2.5,21.7-2.5,24.2c0,1.4,3.4,15.4,6.4,27.3
					C225.2,148.8,227.3,156.8,227.3,156.8z"/>
				<path class="st32" d="M217.3,138l4.7,6.7l-23.8-1.3l-8.5-31.2l-4.7-1c0,0-6.7-21-6.4-22c5.8,2.9,10.9,1,10.9,1l4.3,4.7l-0.4-5.1
					c0,0,8.8,3,12.1,3s6.3-2.5,7-3.9s4.1-12.4,4.1-12.4l2.9,7.4c-0.1,1.8-0.2,3.3-0.4,4.1c-0.8,3.8-2.5,21.7-2.5,24.2
					c0,1.4,3.4,15.4,6.4,27.3L217.3,138z"/>
				
					<rect x="205.81" y="75.1" transform="matrix(0.085 -0.9964 0.9964 0.085 111.6193 277.0514)" class="st3" width="1.7" height="5.3"/>
			</g>
			<g>
				<polygon class="st16" points="224.8,128.7 198.7,139.9 193.7,128.2 192.5,125.6 182.2,101.3 208.2,90.2 217.5,111.7 
					222.4,123.2 				"/>
				<path class="st33" d="M201.6,127.5c1.4-0.9,7.9-3.3,11.6-3.4c2-0.1,6-0.5,9.2-0.8l-5-11.6l-23.8,11.2l-1.1,2.7l1.1,2.6
					C196.4,128.3,200.6,128.2,201.6,127.5z"/>
			</g>
			<g>
				<path class="st5" d="M232.9,106.1c-0.1,0.6-1.8,4.4-4.2,5.8c-0.9,0.5-4.9,2.2-9.4,4.1c-7.2,3-15.8,6.5-15.8,6.5l0,0
					c-0.1,0.1-0.7,1.2-1.4,2.1c-0.4,0.6-0.8,1.1-1.1,1.4c-0.9,0.9-6.8,2.8-8.9,2.3c-0.7-0.2-1.5-0.8-2.2-1.7
					c-0.6-0.7-1.2-1.5-1.6-2.2c-0.1-0.2-0.2-0.3-0.3-0.5c-0.3-0.6-0.6-1-0.6-1.2v-0.2c0-0.2,0.1-0.5,0.2-0.8c0.2-0.7,0.5-1.5,0.8-2
					l2.7-1.1c0,0-2.3,0.1-3.1-0.3c-0.6-0.3-1.2-1.4-1.2-1.9l0,0c0-0.2,0.1-0.3,0.3-0.2c0.8,0.1,6.2-0.5,7-0.7s4.9,1.3,5.1,1.4l0,0
					c0,0,8.1-3.1,11.4-5.9c3.4-2.9,10.3-7.7,10.3-7.7s-1.3-4.5-2.1-7.2c-0.3-1.1-0.5-1.9-0.5-2l11.2-2.3c0,0,0.5,2,1.1,4.5
					C231.7,100.4,232.9,105.8,232.9,106.1z"/>
				<path class="st22" d="M199.3,116.9c0,0-4.7-1-5.1-0.9c-0.4,0.1-4.4,0.6-5,0.6s-2.1,0.4-2.3-0.1l0,0c0-0.2,0.1-0.3,0.3-0.2
					c0.8,0.1,6.2-0.5,7-0.7C195,115.3,199.1,116.8,199.3,116.9L199.3,116.9z"/>
				<path class="st22" d="M191.5,120.8l-2,0.9l-2,1.1v-0.2c0-0.2,0.1-0.5,0.2-0.8L191.5,120.8z"/>
				<path class="st6" d="M191.8,123.7c-0.4,0.1-2.9,0.6-3.5,0.7c-0.1-0.2-0.2-0.3-0.3-0.5c0.4,0,1.1-0.1,1.5,0
					C190.2,124,191.5,123.7,191.8,123.7z"/>
				<path class="st6" d="M221.3,112.6c-1.1,0.5-17.9,8.7-17.9,8.7l-2.9,3.7h0.1c-0.6,0.5-1.2,0.9-1.5,1.1c-0.9,0.4-6.7,2.1-7.1,1.8
					c-0.4-0.2-0.7-0.6-0.7-0.6l1.7-0.8l-1.5,0.2H190c0.7,0.8,1.5,1.5,2.2,1.7c2.1,0.5,8-1.4,8.9-2.3c0.3-0.3,0.7-0.8,1.1-1.4l0,0
					c0.1-0.2,0.3-0.4,0.4-0.6c0,0,0-0.1,0.1-0.1c0.1-0.1,0.2-0.2,0.2-0.4c0.4-0.6,0.6-1,0.7-1.1l0,0c0,0,8.6-3.5,15.8-6.5l9.1-5.8
					C228.1,110.3,222.4,112.2,221.3,112.6z"/>
			</g>
			<g>
				<path class="st31" d="M230.7,110.8c-2.1,2.2-26.8,13.3-26.8,13.3c-0.2-0.8-0.5-1.6-0.8-2.4c-1-2.8-2.5-5.4-2.5-5.4
					c6.1-3.1,20.3-12.9,20.3-12.9c-0.7-1.8-1.5-4.7-2.3-7.8c-1.4-5.6-2.7-11.5-2.8-11.8l0,0c-0.4-5.2-0.6-10.6,0.1-13
					c1.4-5.1,3.7-7,3.7-7s3,2.8,5.5,6.8c0.5,0.8,1,2,1.5,3.5l0,0l0,0c1.3,3.7,2.5,9,3.4,13.2c0,0,0,0.1,0.1,0.3
					c0.5,2.4,0.8,4.5,0.9,5.6l0,0c0.7,4.2,2,10.6,2,12.3C233.2,108.7,232.9,108.6,230.7,110.8z"/>
				<path class="st32" d="M230.7,110.8c-2.1,2.2-26.8,13.3-26.8,13.3c-0.2-0.8-0.5-1.6-0.8-2.4c1.5-1,11.1-4.6,14.1-6.6
					c3.3-2.2,12.3-7,12.9-8c0.6-0.9-0.4-11.6-0.9-16.9c-0.5-5.2-2.5-15.4-2.6-16.1l0,0c1.3,3.7,2.5,9,3.4,13.2c0,0,0,0.1,0.1,0.3
					c0.5,2.4,0.8,4.5,0.9,5.6l0,0c0.7,4.2,2,10.6,2,12.3C233.2,108.7,232.9,108.6,230.7,110.8z"/>
			</g>
			<g>
				<path class="st3" d="M193.1,47.9c0-0.2-1-5.7-1.1-7.3h0.5c0.1,1.6,1.2,7.2,1.2,7.3H193.1z"/>
			</g>
			<g>
				<path class="st10" d="M211.4,61.7C207.9,68,199.6,73,199.6,73c-2-4.3-2.5-11.4-2.5-11.4s0,0,0-0.1c0.3-0.6,0.5-1.2,0.7-1.9
					c0-0.1,0.1-0.3,0.1-0.4c0.2-0.9,0.3-1.7,0.3-2.5c0.1-1.3,0-2.3,0-2.3s2.7-1.2,5.5-1.9c2.9-0.7,5.9-0.9,6,1.4c0,0.2,0,0.4,0,0.6
					c0,0.3,0,0.6,0.1,0.9c0.1,1.5,0.4,2.7,0.7,3.8C210.9,60.5,211.3,61.4,211.4,61.7L211.4,61.7z"/>
				<path class="st3" d="M211.4,61.7C207.9,68,199.6,73,199.6,73c-2-4.3-2.5-11.4-2.5-11.4s0,0,0-0.1c0.1-0.3,0.5-1.2,0.7-1.9
					c0-0.2,0.1-0.3,0.1-0.4l0,0c0,0,7.2,1.9,12.6,0L211.4,61.7L211.4,61.7z"/>
				<path class="st4" d="M203.3,60.5c0.5,0,1-0.2,1.5-0.5c-1.3,0-2.4-0.1-3.5-0.2C202,60.2,202.7,60.5,203.3,60.5z"/>
				<path class="st11" d="M209.8,55.3c-1.1,1.3-4.3,5-6.5,5.1c-1.6,0.1-3.7-2-5.1-3.8c0.1-1.3,0-2.3,0-2.3s2.7-1.2,5.5-1.9
					c2.2,0.6,4.9,1.4,6,2C209.7,54.8,209.8,55.1,209.8,55.3z"/>
				<path class="st10" d="M192.3,36.2c0,0,0.6,12.3,1.4,14.1s7.3,7.1,9,7.7c1.7,0.6,7.1-2.6,9.3-5.9c2.2-3.4,2.3-7.2,2.6-11.2
					s1.3-8.7-1.4-10.2s-13.3-3.6-17.7-1.8C191.2,30.7,192.3,36.2,192.3,36.2z"/>
				<g>
					<path class="st16" d="M198.7,42.6c-0.1-0.1-0.1-0.2-0.2-0.2c-0.1-0.1-0.2-0.1-0.3-0.1s-0.2,0-0.3,0.1l0,0l0,0
						c-0.1,0.1-0.2,0.1-0.3,0.3l0,0c-0.1,0.1-0.1,0.2-0.1,0.3s0,0.1,0,0.2c0,0.1,0.1,0.2,0.2,0.3c0.1,0.1,0.1,0.1,0.2,0.1
						c0.1,0,0.2,0.1,0.3,0.1s0.2,0,0.3-0.1c0.1,0,0.2-0.1,0.2-0.1c0.1-0.1,0.1-0.2,0.2-0.3c0,0,0,0,0-0.1s0-0.2,0-0.2
						C198.8,42.8,198.7,42.7,198.7,42.6z"/>
					<path class="st16" d="M207.3,42.6l-0.1-0.2c0-0.1-0.1-0.1-0.1-0.2c-0.1-0.1-0.2-0.1-0.3-0.2c-0.1,0-0.1-0.1-0.2-0.1
						c-0.1,0-0.2,0-0.3,0s-0.1,0.1-0.2,0.1c-0.1,0-0.1,0.1-0.2,0.1c-0.1,0.1-0.1,0.1-0.1,0.2l0,0l0,0l0,0c-0.1,0.1-0.1,0.2-0.1,0.4
						c0,0.1,0,0.1,0,0.2c0,0.1,0.1,0.2,0.2,0.3c0,0.1,0.1,0.1,0.2,0.1c0.1,0,0.2,0.1,0.3,0.1h0.1l0,0l0,0l0,0l0,0l0,0l0,0h0.1
						c0.1,0,0.2,0,0.3-0.1c0.1,0,0.1-0.1,0.2-0.1c0-0.1,0.1-0.1,0.1-0.2c0.1-0.1,0.1-0.2,0.1-0.3C207.3,42.8,207.3,42.7,207.3,42.6z
						"/>
					<path class="st13" d="M199.8,39.9c-0.2-0.3-0.7-0.3-1-0.3s-0.7,0-1,0c-0.7,0.1-1.3,0.3-1.9,0.6c-0.2,0.1-0.1,0.5,0.2,0.4
						c0.6-0.2,1.2-0.3,1.8-0.4c0.3,0,0.6,0,0.9,0c0.1,0,0.3,0.1,0.4,0.1c0.2,0,0.4,0,0.6-0.1C199.8,40.2,199.8,40.1,199.8,39.9z"/>
					<path class="st13" d="M208.6,40.1c-0.5-0.3-1-0.5-1.6-0.5c-0.3,0-0.5,0-0.8,0c-0.1,0-0.3,0-0.4,0.1c-0.1,0-0.1,0-0.2,0.1h-0.1
						h-0.1c-0.3,0-0.5,0.3-0.4,0.6s0.5,0.3,0.7,0.1c0.1-0.1,0.4-0.2,0.6-0.2c0.2-0.1,0.4-0.1,0.6-0.1c0.5,0,0.9,0.1,1.4,0.3
						C208.6,40.5,208.8,40.2,208.6,40.1z"/>
					<path class="st13" d="M202.8,48.6c-0.5-0.1-1-0.2-1.4-0.6c-0.1-0.1-0.2-0.4-0.2-0.5c0-0.2,0.2-0.3,0.4-0.4
						c0.2-0.1,0.4-0.2,0.5-0.4c0.2-0.2,0.2-0.5,0.3-0.7c0-0.3,0.1-0.6,0.1-1c0-0.3,0-0.6-0.1-0.9c-0.1-0.4-0.6-0.4-0.8,0
						c-0.2,0.6,0,1.4-0.1,2c0,0.2-0.2,0.4-0.4,0.5c-0.2,0.2-0.3,0.4-0.4,0.6c-0.2,0.5,0,1,0.4,1.3c0.4,0.4,1,0.4,1.6,0.5
						C202.9,49,203,48.6,202.8,48.6z"/>
					<path class="st11" d="M204.8,50.7c-0.3,0.1-0.5,0.3-0.8,0.4c-0.3,0.1-0.6,0.1-0.9,0.1c-0.3,0-0.6,0-0.9-0.1
						c-0.2,0-0.3-0.1-0.4-0.1c-0.2-0.1-0.3-0.1-0.5-0.2c-0.4-0.1-0.6,0.3-0.4,0.6c0.3,0.3,0.7,0.4,1,0.5c0.4,0.1,0.8,0.1,1.2,0
						c0.3-0.1,0.7-0.2,1-0.4s0.6-0.4,0.9-0.6C205.1,50.8,205,50.6,204.8,50.7z"/>
					<path class="st13" d="M203.1,53.3l-0.1-0.1c-0.1,0-0.1,0-0.2,0c-0.1,0-0.1,0-0.2,0c-0.2,0-0.3,0-0.4,0.1
						c-0.1,0-0.2,0.2-0.2,0.3s0.2,0.2,0.3,0.2h0.1c0.1,0,0.2,0,0.3,0h0.1c0.1,0,0.1,0,0.2,0h0.1c0.1,0,0.1-0.1,0.1-0.2
						C203.2,53.5,203.1,53.4,203.1,53.3z"/>
				</g>
				<path class="st10" d="M213.1,43.5c0,0,2.2-2.6,3.6-0.8c1.4,1.8-3.2,6.4-3.2,6.4L213.1,43.5z"/>
				<g>
					<path class="st3" d="M210.9,49.3l-0.5-0.2c0.1-0.2,2.5-4.8,4.3-6.2l0.3,0.4C213.4,44.6,211,49.2,210.9,49.3z"/>
				</g>
				<g>
					<path class="st3" d="M211.9,50.9l-0.2-0.5l0.1,0.2l-0.1-0.2c0,0,1.5-0.7,3-3.5l0.4,0.2C213.5,50.1,212,50.8,211.9,50.9z"/>
				</g>
				<path class="st3" d="M193.1,47.9c0,0,4.5-2.3,9.9-2c5.4,0.2,10.1,4.1,10.1,4.1s-2,4-4.4,6c-2.3,2-4.9,2.8-6.7,2.7
					s-5.6-3.4-6.9-5.5C193.8,51.2,193.1,47.9,193.1,47.9z"/>
				<path class="st8" d="M218.7,41.6c-0.8,4.6-5.3,8.1-5.6,8.4c1.1-2.1,2.2-7.4,1.2-8.9c-0.8-1.1-1.9-3.5-4.2-4.8
					c-0.6-0.4-1.4-0.7-2.2-0.9c-3.9-0.9-8.2-1.5-12.4,1.7c-3.8,2.9-3.1,6.7-2.9,7.3c-0.2-0.4-0.3-0.8-0.4-1.3l0,0
					c-2.7-8.8,0.3-16.9,6.2-19.8c4.1-2,9.3-1.6,13.3,0.2c1.1,0.5,2.1,1,2.9,1.7c0.8,0.5,1.4,1.1,2,1.8
					C219.9,31.1,219.5,36.9,218.7,41.6z"/>
				<path class="st14" d="M200.3,46.9c0,0,3.8,0,6.2,1c2.4,1.1,5.5,2.4,5.5,2.4s-2.4,4.9-4.9,6.2s-4.7,1.5-4.7,1.5s1.6-1.3,2.5-2.9
					c0.8-1.6,1.8-3.9,0.5-5.2C204,48.7,200.3,46.9,200.3,46.9z"/>
				<path class="st2" d="M218.7,41.6c-0.8,4.6-5.3,8.1-5.6,8.4c1.1-2.1,2.2-7.4,1.2-8.9c-0.8-1.1-1.9-3.5-4.2-4.8
					c0.7,0.1,3.6,0.6,4.9,1.2c1.4,0.7,1.5,0.4,0.3-1.9c-1.2-2.3-1.7-3.3-0.2-3.7c1.4-0.4,3.3,0.6,1.9-2c-0.8-1.4-1.7-3.3-2.4-4.7
					c0.8,0.5,1.4,1.1,2,1.8C219.9,31.1,219.5,36.9,218.7,41.6z"/>
				<path class="st15" d="M211.5,23.5c-1.1-0.3-2.3-0.5-2.8-0.4c-1.2,0.2-4.8,0.1-7.4,0.8c-2.5,0.7-5.5,2.7-5.5,2.7s-2.6,3-3.2,5.3
					c-0.6,2.2-0.6,10.8-0.6,11.2c-2.7-8.8,0.3-16.9,6.2-19.8C202.3,21.3,207.5,21.8,211.5,23.5z"/>
			</g>
		</g>
	</g>
</g>
</svg>
