<?xml version="1.0" encoding="utf-8"?>
<!-- Generator: Adobe Illustrator 24.1.0, SVG Export Plug-In . SVG Version: 6.00 Build 0)  -->
<svg version="1.1" id="Solid" xmlns="http://www.w3.org/2000/svg" xmlns:xlink="http://www.w3.org/1999/xlink" x="0px" y="0px"
	 viewBox="0 0 512 512" style="enable-background:new 0 0 512 512;" xml:space="preserve">
<style type="text/css">
	.st0{fill:#0FAAC9;}
</style>
<path class="st0" d="M256,477.3l47-10.8l-36.2-36.2L256,477.3z"/>
<path class="st0" d="M246.7,446.4l7.8-33.7c0-0.1,0-0.2,0.1-0.2c0-0.1,0.1-0.3,0.1-0.4s0.1-0.3,0.1-0.4s0.1-0.2,0.1-0.3
	c0.1-0.1,0.1-0.3,0.2-0.4c0-0.1,0.1-0.2,0.2-0.3c0.1-0.1,0.2-0.3,0.2-0.4c0.1-0.1,0.1-0.2,0.2-0.3c0.1-0.1,0.2-0.3,0.3-0.4
	c0.1-0.1,0.1-0.2,0.2-0.2c0.1-0.1,0.2-0.2,0.3-0.4l0.1-0.1L361.4,304c-29.3-60.2-83.4-96-145.4-96c-45.5,0-87.6,19.5-118.4,54.9
	C66.5,298.5,49,348.2,48,403.2c18.4,9.3,93.8,44.8,168,44.8C226.3,448,236.5,447.4,246.7,446.4L246.7,446.4z"/>
<path class="st0" d="M273.5,414.5L398,290l45.2,45.2L318.8,459.7L273.5,414.5z"/>
<circle class="st0" cx="216" cy="112" r="80"/>
<path class="st0" d="M464,301.3c0-17.7-14.3-32-32-32c-8.5,0-16.6,3.4-22.6,9.4l45.3,45.3C460.6,318,464,309.8,464,301.3L464,301.3z
	"/>
</svg>
