<?xml version="1.0" encoding="utf-8"?>
<!-- Generator: Adobe Illustrator 24.1.0, SVG Export Plug-In . SVG Version: 6.00 Build 0)  -->
<svg version="1.1" xmlns="http://www.w3.org/2000/svg" xmlns:xlink="http://www.w3.org/1999/xlink" x="0px" y="0px"
	 viewBox="0 0 500 500" style="enable-background:new 0 0 500 500;" xml:space="preserve">
<style type="text/css">
	.st0{fill:#FFFFFF;}
	.st1{fill:#6E84F5;}
	.st2{fill:#FFBA26;}
	.st3{fill:#E83C67;}
</style>
<g id="BACKGROUND">
	<rect class="st0" width="500" height="500"/>
</g>
<g id="OBJECTS">
	<g>
		<g>
			<path class="st1" d="M164,140.8c3.7,17.3-5.7,34-21.1,37.3c-15.3,3.3-30.8-8.1-34.5-25.4c-3.7-17.3,5.7-34,21.1-37.3
				S160.3,123.5,164,140.8z"/>
			<path class="st1" d="M135.7,186.4c0,0,20.1,5.9,26.8,15.8c6.7,9.9,9.5,69,8.3,114.4c-1.2,46.2-5.1,86.4-12.2,97.5
				c-5.2,8.1-11,7.1-14.2-0.8c-3.2-7.9-1.6-38.7-2-70.6c-0.3-26.5-1.2-41-6.7-38.7c-5.5,2.4-13.4,24.5-37.9,55.6
				c-21.4,27.2-34.3,42.6-44.2,35.9c-9.9-6.7,8.3-29.2,23.7-52.1c14.6-21.7,17.8-37.9,22.5-61.6c4.7-23.7,2.8-72.6,1.6-79.7
				C100.2,195.1,110.5,178.1,135.7,186.4z"/>
			<path class="st1" d="M128.8,185c0,0-12.2-3.6-26,1.5C89,191.6,85.2,215.6,54,222.3c-31.2,6.7-39.5-1.6-46.2,3.6
				c-6.7,5.1-5.1,15,18.5,18.9c23.7,3.9,46.7-1.2,69.5-18.2C118.8,209.7,128.8,185,128.8,185z"/>
			<path class="st1" d="M155.1,195.3c0,0,15.7,9.5,19.8,20.1c3.7,9.5,3.4,32.2,10.1,47.3c7.4,16.9,20.4,28.4,21.3,35.8
				c1,8.4-4.1,12.1-13.3,4.7c-8.5-6.8-18.3-16.9-30.8-51.8C155.6,232.8,155.1,195.3,155.1,195.3z"/>
			<path class="st2" d="M329.6,140.8c-3.7,17.3,5.7,34,21.1,37.3c15.3,3.3,30.8-8.1,34.5-25.4c3.7-17.3-5.7-34-21.1-37.3
				C348.7,112.1,333.3,123.5,329.6,140.8z"/>
			
				<ellipse transform="matrix(0.209 -0.9779 0.9779 0.209 -84.753 462.7536)" class="st3" cx="243.7" cy="283.8" rx="26.4" ry="23.4"/>
			<path class="st2" d="M357.8,186.4c0,0-20.1,5.9-26.8,15.8c-6.7,9.9-9.5,69-8.3,114.4c1.2,46.2,5.1,86.4,12.2,97.5
				c5.2,8.1,11,7.1,14.2-0.8c3.2-7.9,1.6-38.7,2-70.6c0.3-26.5,1.2-41,6.7-38.7c5.5,2.4,13.4,24.5,37.9,55.6
				c21.4,27.2,34.3,42.6,44.2,35.9c9.9-6.7-8.3-29.2-23.7-52.1c-14.6-21.7-17.8-37.9-22.5-61.6c-4.7-23.7-2.8-72.6-1.6-79.7
				C393.3,195.1,383.1,178.1,357.8,186.4z"/>
			<path class="st2" d="M365.4,205.4c0,0-16.1-15.5-2.2-20.1c24.3-8.1,44.9-2.4,64.9-3.3c8.5-0.4,19.1-2.4,34.8-11.5
				c14.5-8.5,19.4-17.7,26.8-17.9c8.4-0.2,12.4,6.5-3.6,24.5c-15.9,18-37.1,30.8-67.5,34.3c-9.3,1.1-24.4,2-32,1.2
				C371.1,210.8,365.4,205.4,365.4,205.4z"/>
			<path class="st2" d="M344.1,192.1c0,0-20.6,9.8-25.6,22.6c-3.8,9.5-5,32-12.3,46.8c-8.2,16.5-21.8,27.4-23,34.7
				c-1.4,8.3,3.5,12.3,13.1,5.4c8.8-6.4,19.1-16,33.3-50.2C337,233,344.1,192.1,344.1,192.1z"/>
			<path class="st3" d="M284.7,318.8c6.2-9,10-18.7,8.7-25c-1.6-7.4-8.1-4-8.1-4c-5.9,2.8-9,16.3-22.6,26.9
				c-10.6,8.2-26.9,8.7-38,1.3c-0.6-0.4-1.2-0.8-1.8-1.3c-13.6-10.5-16.7-24-22.6-26.9c0,0-6.5-3.4-8.1,4c-1.3,6.3,2.5,16,8.7,25
				c10.7,15.3,22.7,22.1,22.7,22.1s-2.7,17.6-5.7,42.7c-2.8,23.5-1.3,34.5,3.7,36c5.9,1.8,10.1-6.7,12.1-15.6
				c2.3-9.9,1.9-34.6,10.8-33.7s17.7,48.4,28.5,48c10.8-0.3,3.1-25.7-0.6-41.5c-3-12.9-7.6-30.6-9.2-36.7
				C266.7,337.9,276.1,331.1,284.7,318.8z"/>
			<path class="st3" d="M241.3,145.6c0.4-1.2,15.8-50.1,47.6-42c29.3,7.4,9.6,49-11.2,73.4c-19.5,22.8-33.7,36.2-37.3,34.6
				c-3.6-1.6-56.8-45.4-56.8-76.9c0-34.3,25.1-33.7,33.1-27.9C232.1,117.8,241.3,145.6,241.3,145.6z"/>
		</g>
	</g>
</g>
</svg>
