<?xml version="1.0" encoding="utf-8"?>
<!-- Generator: Adobe Illustrator 24.1.0, SVG Export Plug-In . SVG Version: 6.00 Build 0)  -->
<svg version="1.1" id="Layer_1" xmlns="http://www.w3.org/2000/svg" xmlns:xlink="http://www.w3.org/1999/xlink" x="0px" y="0px"
	 viewBox="0 0 500 500" style="enable-background:new 0 0 500 500;" xml:space="preserve">
<style type="text/css">
	.st0{fill:#679326;}
	.st1{fill:#2EDED1;}
	.st2{opacity:0.26;fill:url(#SVGID_1_);enable-background:new    ;}
	.st3{fill:url(#SVGID_2_);}
	.st4{opacity:0.26;}
	.st5{fill:url(#SVGID_3_);}
	.st6{fill:url(#SVGID_4_);}
	.st7{opacity:0.46;fill:url(#SVGID_5_);enable-background:new    ;}
	.st8{fill:url(#SVGID_6_);}
	.st9{opacity:0.26;fill:url(#SVGID_7_);enable-background:new    ;}
	.st10{fill:#27A0D6;}
	.st11{fill:url(#SVGID_8_);}
	.st12{opacity:0.3;fill:url(#SVGID_9_);enable-background:new    ;}
	.st13{opacity:0.3;fill:url(#SVGID_10_);enable-background:new    ;}
</style>
<path class="st0" d="M144.8,373.6L144.8,373.6L144.8,373.6C144.7,373.7,144.8,373.7,144.8,373.6z"/>
<path class="st0" d="M144.7,373.7L144.7,373.7L144.7,373.7C144.7,373.7,144.7,373.7,144.7,373.7z"/>
<g>
	<path class="st1" d="M434.1,251.1c-4.5,22.3-38.2,64-51.1,76.9c-12.9,12.9-44.2,41.2-65,58.5c-20.8,17.3-57.5,70.5-57.5,70.5
		s-5.9,3.5-12.2,3.7h-0.1h-0.1c-6.3-0.2-12.2-3.7-12.2-3.7s-36.7-53-57.5-70.5c-20.8-17.3-52.1-45.7-65-58.5
		c-12.9-12.9-46.6-54.6-51.1-76.9c-4.5-22.3-2-42.7-2-42.7s7,52.6,44.7,93.8l43.2,39.2c0,0,41.2,34.2,60.1,56l11.1,14.9l11.6,15.8
		l5,8.6c0,0,2.2,3.7,12.3,4.3h0.2c10.1-0.6,12.4-4.3,12.4-4.3l5-8.6l11.6-15.8l11.1-14.9c18.8-21.8,60.1-56,60.1-56l43.2-39.2
		c37.7-41.2,44.7-93.8,44.7-93.8S438.6,228.7,434.1,251.1z"/>
	
		<radialGradient id="SVGID_1_" cx="248.1987" cy="167.5038" r="160.425" gradientTransform="matrix(1 0 0 -1 0 502)" gradientUnits="userSpaceOnUse">
		<stop  offset="0" style="stop-color:#49BEB7"/>
		<stop  offset="0.1077" style="stop-color:#58C3BD"/>
		<stop  offset="0.3159" style="stop-color:#80D2CD"/>
		<stop  offset="0.6008" style="stop-color:#C1E9E6"/>
		<stop  offset="0.8538" style="stop-color:#FFFFFF"/>
	</radialGradient>
	<path class="st2" d="M434.1,251.1c-4.5,22.3-38.2,64-51.1,76.9c-12.9,12.9-44.2,41.2-65,58.5c-20.8,17.3-57.5,70.5-57.5,70.5
		s-5.9,3.5-12.2,3.7h-0.1h-0.1c-6.3-0.2-12.2-3.7-12.2-3.7s-36.7-53-57.5-70.5c-20.8-17.3-52.1-45.7-65-58.5
		c-12.9-12.9-46.6-54.6-51.1-76.9c-4.5-22.3-2-42.7-2-42.7s7,52.6,44.7,93.8l43.2,39.2c0,0,41.2,34.2,60.1,56l11.1,14.9l11.6,15.8
		l5,8.6c0,0,2.2,3.7,12.3,4.3h0.2c10.1-0.6,12.4-4.3,12.4-4.3l5-8.6l11.6-15.8l11.1-14.9c18.8-21.8,60.1-56,60.1-56l43.2-39.2
		c37.7-41.2,44.7-93.8,44.7-93.8S438.6,228.7,434.1,251.1z"/>
	<g>
		
			<linearGradient id="SVGID_2_" gradientUnits="userSpaceOnUse" x1="269.3187" y1="336.1743" x2="344.2634" y2="206.3664" gradientTransform="matrix(1 0 0 -1 0 502)">
			<stop  offset="0" style="stop-color:#49BEB7"/>
			<stop  offset="0.8538" style="stop-color:#2EDED1"/>
		</linearGradient>
		<path class="st3" d="M295.5,165.4l28.4-0.4c11,0,20.4,3.2,28.5,9.6c9.2,8,13.9,17.9,14.1,30c0,13.9-4.2,24.7-12.6,32.5
			c-8.4,7.8-18.8,11.7-31.4,11.7c-7.5-0.1-11.3-2.3-11.4-6.6c0-0.7,0.2-1.1,0.5-1.1c0.3,0,1.3,0.3,3.1,0.8c1.8,0.5,3.5,0.8,5.1,0.8
			c9.2,0,16.2-3.3,21.1-10c4.9-6.7,7.3-14.8,7.3-24.2c0-14.8-4.6-25-13.7-31.1c-5.2-3.4-11.3-5.2-18-5.1c-6.9,0-10.6,0.8-11.3,2.1
			c-0.7,1.8-1,7.3-1,16.4v93.5c0,8.5,0.3,13.9,1,16.2c0.4,1.6,4.2,2.8,11.5,3.4c1,0.1,1.8,0.1,2.3,0.1c0.7,1,1,2.2,0.8,3.7
			s-0.5,2.4-0.8,2.7c-13.8-0.7-21.6-1.1-23.6-1.1c-2,0-9.9,0.4-23.3,1.1c-0.8-0.9-1.1-2.1-0.7-3.6c0.3-1.5,0.5-2.5,0.7-2.8
			c3.9,0,7.1-0.4,9.7-1.3c2.6-0.8,4-1.6,4.2-2.3c0.7-2.4,1-7.9,1-16.2v-93.7c0-8.5-0.3-13.9-1-16.2c-0.4-1.6-4.2-2.8-11.5-3.4
			c-1-0.1-1.8-0.1-2.3-0.1c-0.7-1-1-2.2-0.7-3.7c0.2-1.5,0.5-2.4,0.7-2.7C285.7,165,293.5,165.4,295.5,165.4z"/>
	</g>
	<g class="st4">
		
			<linearGradient id="SVGID_3_" gradientUnits="userSpaceOnUse" x1="272.3488" y1="266.2354" x2="367.8354" y2="266.2354" gradientTransform="matrix(1 0 0 -1 0 502)">
			<stop  offset="0" style="stop-color:#49BEB7"/>
			<stop  offset="0.8538" style="stop-color:#FFFFFF"/>
		</linearGradient>
		<path class="st5" d="M296.8,163.7l28.4-0.4c11,0,20.4,3.2,28.5,9.6c9.2,8,13.9,17.9,14.1,30c0,13.9-4.2,24.7-12.6,32.5
			c-8.4,7.8-18.8,11.7-31.4,11.7c-7.5-0.1-11.3-2.3-11.4-6.6c0-0.7,0.2-1.1,0.5-1.1c0.3,0,1.3,0.3,3.1,0.8c1.8,0.5,3.5,0.8,5.1,0.8
			c9.2,0,16.2-3.3,21.1-10c4.9-6.7,7.3-14.8,7.3-24.2c0-14.8-4.6-25-13.7-31.1c-5.2-3.4-11.3-5.2-18-5.1c-6.9,0-10.6,0.8-11.3,2.1
			c-0.7,1.8-1,7.3-1,16.4v93.5c0,8.5,0.3,13.9,1,16.2c0.4,1.6,4.2,2.8,11.5,3.4c1,0.1,1.8,0.1,2.3,0.1c0.7,1,1,2.2,0.8,3.7
			c-0.2,1.5-0.5,2.4-0.8,2.7c-13.8-0.7-21.6-1.1-23.6-1.1c-2,0-9.9,0.4-23.3,1.1c-0.8-0.9-1.1-2.1-0.7-3.6c0.3-1.5,0.5-2.5,0.7-2.8
			c3.9,0,7.1-0.4,9.7-1.3c2.6-0.8,4-1.6,4.2-2.3c0.7-2.4,1-7.9,1-16.2v-93.7c0-8.5-0.3-13.9-1-16.2c-0.4-1.6-4.2-2.8-11.5-3.4
			c-1-0.1-1.8-0.1-2.3-0.1c-0.7-1-1-2.2-0.7-3.7c0.2-1.5,0.5-2.4,0.7-2.7C287,163.4,294.8,163.7,296.8,163.7z"/>
	</g>
	
		<linearGradient id="SVGID_4_" gradientUnits="userSpaceOnUse" x1="59.9571" y1="365.4254" x2="234.4198" y2="365.4254" gradientTransform="matrix(1 0 0 -1 0 502)">
		<stop  offset="0" style="stop-color:#49BEB7"/>
		<stop  offset="0.8538" style="stop-color:#2EDED1"/>
	</linearGradient>
	<path class="st6" d="M234.4,112.6c-23.4-15.2-53.1-21.7-83.5-15.8c-50.2,9.7-86.4,50-90.5,96.2C55.7,140.2,90.3,91.9,141.8,82
		C176.9,75.2,211.2,87.9,234.4,112.6z"/>
	
		<linearGradient id="SVGID_5_" gradientUnits="userSpaceOnUse" x1="59.9571" y1="365.4254" x2="234.4198" y2="365.4254" gradientTransform="matrix(1 0 0 -1 0 502)">
		<stop  offset="0" style="stop-color:#2EDED1"/>
		<stop  offset="9.590545e-02" style="stop-color:#3DE0D4"/>
		<stop  offset="0.2815" style="stop-color:#65E7DD"/>
		<stop  offset="0.5381" style="stop-color:#A6F1EB"/>
		<stop  offset="0.8538" style="stop-color:#FFFFFF"/>
	</linearGradient>
	<path class="st7" d="M234.4,112.6c-23.4-15.2-53.1-21.7-83.5-15.8c-50.2,9.7-86.4,50-90.5,96.2C55.7,140.2,90.3,91.9,141.8,82
		C176.9,75.2,211.2,87.9,234.4,112.6z"/>
	
		<linearGradient id="SVGID_6_" gradientUnits="userSpaceOnUse" x1="159.953" y1="316.7296" x2="119.2136" y2="357.4689" gradientTransform="matrix(1 0 0 -1 0 502)">
		<stop  offset="0" style="stop-color:#49BEB7"/>
		<stop  offset="0.8538" style="stop-color:#2EDED1"/>
	</linearGradient>
	<circle class="st8" cx="139.6" cy="164.9" r="28.8"/>
	
		<linearGradient id="SVGID_7_" gradientUnits="userSpaceOnUse" x1="345.0521" y1="514.3539" x2="399.1628" y2="514.3539" gradientTransform="matrix(-0.4342 -0.925 -0.9401 0.4413 786.1342 282.8557)">
		<stop  offset="0" style="stop-color:#49BEB7"/>
		<stop  offset="0.1077" style="stop-color:#58C3BD"/>
		<stop  offset="0.3159" style="stop-color:#80D2CD"/>
		<stop  offset="0.6008" style="stop-color:#C1E9E6"/>
		<stop  offset="0.8538" style="stop-color:#FFFFFF"/>
	</linearGradient>
	<path class="st9" d="M129.3,140.6c14.1-6.6,30.7-0.7,37.2,13.1c6.5,13.8,0.4,30.3-13.7,37c-14.1,6.6-30.7,0.7-37.2-13.1
		C109.1,163.7,115.2,147.2,129.3,140.6z"/>
	<path class="st10" d="M436.6,181.1c0,0-6.5-63.5-80.8-77c0,0-57.5-9.5-98.3,34.7s-51.1,75-51.1,75s-19.8,36.7-7.5,81.3
		s60,93.8,60,93.8s-52.6-26.3-82.8-75s-31.2-99.7-31.2-99.7c-0.3,1,26.3-1.3,41.7-22.8c13.3-18.5,43.3-60.4,64-77.9
		c35.9-30.4,53.9-34.5,83.3-34.7c27.3-0.3,64,12.4,81.8,34.7C433.5,135.8,436.6,181.1,436.6,181.1z"/>
	
		<linearGradient id="SVGID_8_" gradientUnits="userSpaceOnUse" x1="52.8507" y1="290.8498" x2="284.4382" y2="157.1427" gradientTransform="matrix(1 0 0 -1 0 502)">
		<stop  offset="0" style="stop-color:#89CDF6"/>
		<stop  offset="0.1492" style="stop-color:#70BDEE"/>
		<stop  offset="0.4635" style="stop-color:#3295D9"/>
		<stop  offset="0.6769" style="stop-color:#0478C9"/>
	</linearGradient>
	<path class="st11" d="M82.8,159.3c0,0,0.3,0.8,1,2.2c5.1,11,29,58.1,61,52.8c0,0,3.5,57.5,31.3,99.8s82.8,75,82.8,75
		s-45.7-11-72.5-33.3S128,299.2,116,273.4S82.8,195.4,82.8,159.3z"/>
	
		<radialGradient id="SVGID_9_" cx="290.687" cy="268.1319" r="150.5365" gradientTransform="matrix(1 0 0 -1 0 502)" gradientUnits="userSpaceOnUse">
		<stop  offset="0.1897" style="stop-color:#27A0D6"/>
		<stop  offset="0.411" style="stop-color:#29A1D6"/>
		<stop  offset="0.4907" style="stop-color:#30A4D8"/>
		<stop  offset="0.5476" style="stop-color:#3BA9DA"/>
		<stop  offset="0.5935" style="stop-color:#4CB0DD"/>
		<stop  offset="0.6329" style="stop-color:#62BAE1"/>
		<stop  offset="0.6677" style="stop-color:#7EC6E6"/>
		<stop  offset="0.6993" style="stop-color:#9ED4ED"/>
		<stop  offset="0.7283" style="stop-color:#C4E5F4"/>
		<stop  offset="0.7541" style="stop-color:#EDF7FC"/>
		<stop  offset="0.7641" style="stop-color:#FFFFFF"/>
	</radialGradient>
	<path class="st12" d="M436.6,181.1c0,0-6.5-63.5-80.8-77c0,0-57.5-9.5-98.3,34.7s-51.1,75-51.1,75s-19.8,36.7-7.5,81.3
		s60,93.8,60,93.8s-52.6-26.3-82.8-75s-31.2-99.7-31.2-99.7c-0.3,1,26.3-1.3,41.7-22.8c13.3-18.5,43.3-60.4,64-77.9
		c35.9-30.4,53.9-34.5,83.3-34.7c27.3-0.3,64,12.4,81.8,34.7C433.5,135.8,436.6,181.1,436.6,181.1z"/>
	
		<linearGradient id="SVGID_10_" gradientUnits="userSpaceOnUse" x1="52.8507" y1="290.8498" x2="284.4382" y2="157.1427" gradientTransform="matrix(1 0 0 -1 0 502)">
		<stop  offset="0" style="stop-color:#FFFFFF"/>
		<stop  offset="8.476968e-02" style="stop-color:#E6F2FA"/>
		<stop  offset="0.2648" style="stop-color:#A7D0EC"/>
		<stop  offset="0.5233" style="stop-color:#439AD7"/>
		<stop  offset="0.6769" style="stop-color:#0478C9"/>
	</linearGradient>
	<path class="st13" d="M82.8,159.3c0,0,0.3,0.8,1,2.2c5.1,11,29,58.1,61,52.8c0,0,3.5,57.5,31.3,99.8s82.8,75,82.8,75
		s-45.7-11-72.5-33.3S128,299.2,116,273.4S82.8,195.4,82.8,159.3z"/>
</g>
<g>
</g>
<g>
</g>
<g>
</g>
<g>
</g>
<g>
</g>
<g>
</g>
</svg>
