<?xml version="1.0" encoding="utf-8"?>
<!-- Generator: Adobe Illustrator 24.1.0, SVG Export Plug-In . SVG Version: 6.00 Build 0)  -->
<svg version="1.1" id="Capa_1" xmlns="http://www.w3.org/2000/svg" xmlns:xlink="http://www.w3.org/1999/xlink" x="0px" y="0px"
	 viewBox="0 0 512 512" style="enable-background:new 0 0 512 512;" xml:space="preserve">
<style type="text/css">
	.st0{opacity:2.000000e-02;fill:#FFFAD2;}
	.st1{fill:#00628D;}
	.st2{fill:#2190C7;}
	.st3{fill:#5EC4E8;}
	.st4{opacity:0.53;fill:none;stroke:#C4FFFF;stroke-width:12.352;stroke-linecap:round;stroke-miterlimit:10;}
	.st5{opacity:0.12;fill:#00A3FF;}
</style>
<g>
	
		<ellipse transform="matrix(0.7071 -0.7071 0.7071 0.7071 -79.3856 165.0243)" class="st0" cx="159.5" cy="178.3" rx="124.7" ry="124.7"/>
	
		<rect x="260.3" y="282.8" transform="matrix(0.7425 0.6698 -0.6698 0.7425 275.4865 -121.1263)" class="st1" width="70" height="30"/>
	
		<rect x="280.5" y="282.8" transform="matrix(0.7425 0.6698 -0.6698 0.7425 275.4828 -121.1261)" class="st2" width="29.6" height="30"/>
	<g>
		<path class="st2" d="M300.5,355.8c-6.3-5.7-6.8-15.5-1.1-21.8l34.7-38.4c5.7-6.3,15.5-6.8,21.8-1.1l126.9,115.5l-56.1,60.6
			L300.5,355.8z"/>
		<path class="st1" d="M448.6,490.4l-22-19.8l56.1-60.6l21.2,19.1c6.3,5.7,6.8,15.5,1.1,21.8l-34.7,38.4
			C464.6,495.6,454.9,496.1,448.6,490.4z"/>
	</g>
	<g>
		<path class="st3" d="M334.1,295.6l-15.6,17.2l138.1,125.3l26.1-28.2L355.8,294.5C349.5,288.8,339.8,289.3,334.1,295.6z"/>
		<path class="st2" d="M489.5,468l15.5-17.2c5.7-6.3,5.2-16.1-1.1-21.8l-21.2-19.1l-26.1,28.2L489.5,468z"/>
	</g>
	<g>
		<path class="st2" d="M4.2,186.3c4.4,85.8,77.5,151.7,163.3,147.3c85.8-4.4,151.7-77.5,147.3-163.3C310.4,84.6,237.3,18.6,151.5,23
			C65.7,27.5-0.2,100.6,4.2,186.3z M284,171.9c3.5,68.8-49.3,127.4-118.1,130.9C97.1,306.4,38.5,253.5,35,184.7
			C31.4,116,84.3,57.3,153.1,53.8C221.9,50.3,280.5,103.2,284,171.9z"/>
	</g>
	<path class="st4" d="M62.4,171.7C59.6,132.3,106,67.5,175.2,76.6"/>
	<g>
		<path class="st5" d="M226.9,73.4c31.1,93.7-20.5,183.7-98.3,225.7c11.9,3,24.4,4.4,37.3,3.7c60-3.1,107.8-48.1,116.8-105.1
			c1.3-8.4,1.8-17,1.3-25.8C281.9,130.3,259.5,94.4,226.9,73.4z"/>
		<path class="st1" d="M284,171.9c0.5,8.8,0,17.5-1.3,25.8c-8.9,57.1-56.8,102-116.8,105.1c-12.9,0.7-25.4-0.7-37.3-3.7
			c-13.1,7.1-26.9,12.8-41.2,16.9c23.9,12.5,51.3,19,80.1,17.5c85.8-4.4,151.7-77.5,147.3-163.3c-3.4-66.6-48.3-121.2-108.3-140.3
			c8.9,14.4,15.6,28.9,20.4,43.4C259.5,94.4,281.9,130.3,284,171.9z"/>
	</g>
	<path class="st3" d="M24.5,185.2c3.8,74.6,67.4,131.9,141.9,128c74.6-3.8,131.9-67.4,128-141.9c-3.8-74.6-67.4-131.9-141.9-128
		C78,47.1,20.7,110.6,24.5,185.2z M284,171.8c3.5,68.8-49.3,127.4-118.1,130.9C97.1,306.3,38.5,253.4,35,184.6
		C31.4,115.8,84.3,57.2,153.1,53.7C221.9,50.1,280.5,103,284,171.8z"/>
</g>
</svg>
