<?xml version="1.0" encoding="utf-8"?>
<!-- Generator: Adobe Illustrator 24.1.0, SVG Export Plug-In . SVG Version: 6.00 Build 0)  -->
<svg version="1.1" xmlns="http://www.w3.org/2000/svg" xmlns:xlink="http://www.w3.org/1999/xlink" x="0px" y="0px"
	 viewBox="0 0 750 500" style="enable-background:new 0 0 750 500;" xml:space="preserve">
<style type="text/css">
	.st0{fill:url(#SVGID_1_);}
	.st1{fill:url(#SVGID_2_);}
	.st2{fill:url(#SVGID_3_);}
	.st3{fill:url(#SVGID_4_);}
	.st4{fill:url(#SVGID_5_);}
	.st5{fill:url(#SVGID_6_);}
	.st6{fill:url(#SVGID_7_);}
	.st7{fill:url(#SVGID_8_);}
	.st8{fill:url(#SVGID_9_);}
	.st9{fill:#FFFFFF;}
	.st10{fill:url(#SVGID_10_);}
	.st11{fill:url(#SVGID_11_);}
	.st12{fill:url(#SVGID_12_);}
	.st13{fill:url(#SVGID_13_);}
	.st14{fill:url(#SVGID_14_);}
	.st15{fill:url(#SVGID_15_);}
	.st16{fill:url(#SVGID_16_);}
	.st17{fill:url(#SVGID_17_);}
	.st18{fill:url(#SVGID_18_);}
	.st19{fill:url(#SVGID_19_);}
	.st20{fill:url(#SVGID_20_);}
	.st21{fill:url(#SVGID_21_);}
	.st22{fill:url(#SVGID_22_);}
	.st23{fill:url(#SVGID_23_);}
	.st24{fill:url(#SVGID_24_);}
	.st25{fill:url(#SVGID_25_);}
	.st26{fill:url(#SVGID_26_);}
	.st27{fill:url(#SVGID_27_);}
	.st28{fill:url(#SVGID_28_);}
	.st29{fill:url(#SVGID_29_);}
	.st30{fill:url(#SVGID_30_);}
	.st31{fill:url(#SVGID_31_);}
	.st32{fill:url(#SVGID_32_);}
	.st33{fill:url(#SVGID_33_);}
	.st34{fill:#D2D2D2;}
	.st35{fill:#F9F9F9;}
	.st36{fill:url(#SVGID_34_);}
	.st37{fill:url(#SVGID_35_);}
	.st38{fill:url(#SVGID_36_);}
	.st39{fill:url(#SVGID_37_);}
	.st40{fill:url(#SVGID_38_);}
	.st41{fill:url(#SVGID_39_);}
</style>
<g id="OBJECTS">
	<g>
		<g>
			<g>
				<linearGradient id="SVGID_1_" gradientUnits="userSpaceOnUse" x1="377.2786" y1="15.9912" x2="453.288" y2="15.9912">
					<stop  offset="0" style="stop-color:#C0CEE5"/>
					<stop  offset="1" style="stop-color:#D6E5F8"/>
				</linearGradient>
				<path class="st0" d="M453.28,28.63c0-0.03,0-0.05,0-0.08c0-7.99-10.07-14.47-22.49-14.47c-0.75,0-1.49,0.02-2.22,0.07
					c-2.64-6.34-8.89-10.79-16.18-10.79c-7.51,0-13.91,4.72-16.4,11.36c-1.35-0.41-2.77-0.64-4.25-0.64
					c-7.99,0-14.47,6.48-14.47,14.47c0,0.03,0,0.05,0,0.08H453.28z"/>
				<g>
					<g>
						<linearGradient id="SVGID_2_" gradientUnits="userSpaceOnUse" x1="138.1489" y1="412.3377" x2="231.1743" y2="412.3377">
							<stop  offset="0" style="stop-color:#C0CEE5"/>
							<stop  offset="1" style="stop-color:#D6E5F8"/>
						</linearGradient>
						<path class="st1" d="M138.15,420.14c0.46,2.72,1.15,5.43,2.11,8.12c0.96,2.68,2.16,5.22,3.53,7.61l13-4.66
							c1.81,2.68,3.98,5.04,6.41,7.05l-5.9,12.49c4.57,3.25,9.69,5.67,15.11,7.13l5.9-12.49c3.09,0.6,6.29,0.77,9.51,0.47l4.66,13
							c2.72-0.46,5.43-1.15,8.12-2.11c2.68-0.96,5.22-2.16,7.61-3.53l-4.66-13c2.68-1.81,5.04-3.98,7.05-6.41l12.49,5.9
							c3.25-4.57,5.67-9.69,7.13-15.11l-12.49-5.9c0.6-3.09,0.77-6.29,0.47-9.51l13-4.66c-0.46-2.72-1.15-5.43-2.11-8.12
							c-0.96-2.68-2.16-5.22-3.53-7.61l-13,4.66c-1.81-2.68-3.98-5.04-6.41-7.05l5.9-12.49c-4.57-3.25-9.69-5.67-15.11-7.13
							l-5.9,12.49c-3.09-0.6-6.29-0.77-9.51-0.47l-4.66-13c-2.72,0.46-5.43,1.15-8.12,2.11c-2.68,0.96-5.22,2.16-7.61,3.53l4.66,13
							c-2.68,1.81-5.04,3.98-7.05,6.41l-12.49-5.9c-3.25,4.57-5.67,9.69-7.13,15.11l12.49,5.9c-0.6,3.09-0.77,6.29-0.47,9.51
							L138.15,420.14z M179.69,398.46c7.66-2.75,16.1,1.24,18.85,8.9c2.75,7.66-1.24,16.1-8.9,18.85c-7.66,2.75-16.1-1.24-18.85-8.9
							C168.04,409.65,172.02,401.21,179.69,398.46z"/>
					</g>
					<g>
						<linearGradient id="SVGID_3_" gradientUnits="userSpaceOnUse" x1="94.0983" y1="427.8403" x2="94.0983" y2="349.4828">
							<stop  offset="0" style="stop-color:#5596CB"/>
							<stop  offset="1" style="stop-color:#9BBEEE"/>
						</linearGradient>
						<path class="st2" d="M54.92,395.24c0.39,2.29,0.97,4.58,1.78,6.84c0.81,2.26,1.82,4.4,2.97,6.41l10.95-3.93
							c1.52,2.26,3.35,4.24,5.4,5.94l-4.97,10.52c3.85,2.74,8.16,4.77,12.72,6.01l4.97-10.52c2.61,0.5,5.3,0.65,8.01,0.39
							l3.93,10.95c2.29-0.39,4.58-0.97,6.84-1.78s4.4-1.82,6.41-2.97l-3.93-10.95c2.26-1.52,4.24-3.35,5.93-5.4l10.52,4.97
							c2.74-3.85,4.77-8.16,6.01-12.73l-10.52-4.97c0.5-2.61,0.65-5.3,0.39-8.01l10.95-3.93c-0.39-2.29-0.97-4.58-1.78-6.84
							s-1.82-4.4-2.97-6.41l-10.95,3.93c-1.52-2.26-3.35-4.24-5.4-5.94l4.97-10.52c-3.85-2.74-8.16-4.77-12.72-6.01l-4.97,10.52
							c-2.61-0.5-5.3-0.65-8.01-0.39l-3.93-10.95c-2.29,0.39-4.58,0.97-6.84,1.78c-2.26,0.81-4.4,1.82-6.41,2.97l3.93,10.95
							c-2.26,1.52-4.24,3.35-5.94,5.4l-10.52-4.97c-2.74,3.85-4.77,8.16-6.01,12.72l10.52,4.97c-0.5,2.61-0.65,5.3-0.39,8.01
							L54.92,395.24z M89.91,376.97c6.45-2.31,13.56,1.04,15.88,7.5c2.31,6.46-1.04,13.56-7.5,15.88
							c-6.46,2.31-13.56-1.04-15.88-7.5C80.1,386.4,83.45,379.29,89.91,376.97z"/>
					</g>
					<g>
						<linearGradient id="SVGID_4_" gradientUnits="userSpaceOnUse" x1="147.1019" y1="357.8455" x2="147.1019" y2="316.9841">
							<stop  offset="0" style="stop-color:#3863AE"/>
							<stop  offset="1" style="stop-color:#243F89"/>
						</linearGradient>
						<path class="st3" d="M118.58,338.24c0.28,1.67,0.7,3.33,1.29,4.98c0.59,1.65,1.32,3.2,2.16,4.67l7.97-2.86
							c1.11,1.64,2.44,3.09,3.93,4.32l-3.62,7.66c2.8,1.99,5.94,3.48,9.26,4.37l3.62-7.66c1.9,0.37,3.86,0.47,5.83,0.29l2.86,7.97
							c1.67-0.28,3.33-0.7,4.98-1.29c1.65-0.59,3.2-1.32,4.67-2.16l-2.86-7.97c1.64-1.11,3.09-2.44,4.32-3.93l7.66,3.62
							c1.99-2.8,3.48-5.94,4.37-9.26l-7.66-3.62c0.37-1.9,0.47-3.86,0.29-5.83l7.97-2.86c-0.28-1.67-0.7-3.33-1.29-4.98
							c-0.59-1.65-1.32-3.2-2.16-4.67l-7.97,2.86c-1.11-1.64-2.44-3.09-3.93-4.32l3.62-7.66c-2.8-1.99-5.94-3.48-9.26-4.37
							l-3.62,7.66c-1.9-0.37-3.86-0.47-5.83-0.29l-2.86-7.97c-1.67,0.28-3.33,0.7-4.98,1.29c-1.65,0.59-3.2,1.32-4.67,2.16
							l2.86,7.97c-1.64,1.11-3.09,2.44-4.32,3.93l-7.66-3.62c-1.99,2.8-3.48,5.94-4.37,9.26l7.66,3.62
							c-0.37,1.9-0.47,3.86-0.29,5.83L118.58,338.24z M144.05,324.95c4.7-1.69,9.87,0.76,11.56,5.46c1.68,4.7-0.76,9.87-5.46,11.56
							c-4.7,1.69-9.87-0.76-11.56-5.46C136.91,331.81,139.35,326.63,144.05,324.95z"/>
					</g>
				</g>
				<g>
					<linearGradient id="SVGID_5_" gradientUnits="userSpaceOnUse" x1="383.3898" y1="379.4283" x2="383.3898" y2="163.9248">
						<stop  offset="0" style="stop-color:#2B3442"/>
						<stop  offset="1" style="stop-color:#45475C"/>
					</linearGradient>
					<path class="st4" d="M591.54,379.43H175.24c-2.01,0-3.63-1.63-3.63-3.63V167.56c0-2.01,1.63-3.63,3.63-3.63h416.29
						c2.01,0,3.63,1.63,3.63,3.63V375.8C595.17,377.8,593.54,379.43,591.54,379.43z"/>
					<linearGradient id="SVGID_6_" gradientUnits="userSpaceOnUse" x1="383.3899" y1="374.5972" x2="383.3899" y2="419.8694">
						<stop  offset="0" style="stop-color:#C0CEE5"/>
						<stop  offset="1" style="stop-color:#D6E5F8"/>
					</linearGradient>
					<rect x="351.5" y="379.43" class="st5" width="63.79" height="41.36"/>
					<linearGradient id="SVGID_7_" gradientUnits="userSpaceOnUse" x1="383.3899" y1="436.71" x2="383.3899" y2="420.7924">
						<stop  offset="0" style="stop-color:#2B3442"/>
						<stop  offset="1" style="stop-color:#45475C"/>
					</linearGradient>
					<rect x="296.43" y="420.79" class="st6" width="173.93" height="15.92"/>
					<linearGradient id="SVGID_8_" gradientUnits="userSpaceOnUse" x1="383.39" y1="172.3613" x2="383.39" y2="356.1058">
						<stop  offset="0" style="stop-color:#C0CEE5"/>
						<stop  offset="1" style="stop-color:#D6E5F8"/>
					</linearGradient>
					<polygon class="st7" points="180.81,369.6 180.81,173.75 585.97,173.75 585.97,369.6 					"/>
					<g>
						<linearGradient id="SVGID_9_" gradientUnits="userSpaceOnUse" x1="191.2082" y1="265.5798" x2="517.2267" y2="265.5798">
							<stop  offset="0" style="stop-color:#2B3442"/>
							<stop  offset="1" style="stop-color:#45475C"/>
						</linearGradient>
						<path class="st8" d="M507.03,181.69H201.41c-5.63,0-10.2,4.57-10.2,10.2v147.39c0,5.63,4.57,10.2,10.2,10.2h305.62
							c5.63,0,10.2-4.57,10.2-10.2V191.89C517.23,186.25,512.66,181.69,507.03,181.69z"/>
						<path class="st9" d="M517.23,203.67v-11.78c0-5.63-4.57-10.2-10.2-10.2H201.41c-5.63,0-10.2,4.57-10.2,10.2v11.78H517.23z"/>
						<linearGradient id="SVGID_10_" gradientUnits="userSpaceOnUse" x1="201.7671" y1="192.6787" x2="209.599" y2="192.6787">
							<stop  offset="0" style="stop-color:#D77727"/>
							<stop  offset="1" style="stop-color:#D13F1E"/>
						</linearGradient>
						<circle class="st10" cx="205.68" cy="192.68" r="3.92"/>
						<linearGradient id="SVGID_11_" gradientUnits="userSpaceOnUse" x1="225.4444" y1="196.5947" x2="225.4444" y2="188.7628">
							<stop  offset="0" style="stop-color:#DD8A24"/>
							<stop  offset="1" style="stop-color:#EBCF33"/>
						</linearGradient>
						<circle class="st11" cx="225.44" cy="192.68" r="3.92"/>
						<linearGradient id="SVGID_12_" gradientUnits="userSpaceOnUse" x1="245.2057" y1="196.5947" x2="245.2057" y2="188.7628">
							<stop  offset="0" style="stop-color:#5596CB"/>
							<stop  offset="1" style="stop-color:#9BBEEE"/>
						</linearGradient>
						<circle class="st12" cx="245.21" cy="192.68" r="3.92"/>
						<rect x="201.77" y="216.76" class="st9" width="69.39" height="14.24"/>
						<linearGradient id="SVGID_13_" gradientUnits="userSpaceOnUse" x1="286.8348" y1="223.8823" x2="499.8622" y2="223.8823">
							<stop  offset="0" style="stop-color:#DD8A24"/>
							<stop  offset="1" style="stop-color:#EBCF33"/>
						</linearGradient>
						<rect x="286.83" y="216.76" class="st13" width="213.03" height="14.24"/>
						<linearGradient id="SVGID_14_" gradientUnits="userSpaceOnUse" x1="350.0913" y1="350.9984" x2="350.0913" y2="253.6688">
							<stop  offset="0" style="stop-color:#C0CEE5"/>
							<stop  offset="1" style="stop-color:#D6E5F8"/>
						</linearGradient>
						<rect x="201.77" y="250.21" class="st14" width="296.65" height="87.01"/>
					</g>
					<g>
						<linearGradient id="SVGID_15_" gradientUnits="userSpaceOnUse" x1="480.9436" y1="264.2658" x2="480.9436" y2="355.2265">
							<stop  offset="0" style="stop-color:#2B3442"/>
							<stop  offset="1" style="stop-color:#45475C"/>
						</linearGradient>
						<path class="st15" d="M562.81,250.21H399.08c-5.63,0-10.2,4.57-10.2,10.2v91.06c0,5.63,4.57,10.2,10.2,10.2h163.73
							c5.63,0,10.2-4.57,10.2-10.2v-91.06C573.01,254.78,568.44,250.21,562.81,250.21z"/>
						<path class="st9" d="M573.01,272.19v-11.78c0-5.63-4.57-10.2-10.2-10.2H399.08c-5.63,0-10.2,4.57-10.2,10.2v11.78H573.01z"/>
						<linearGradient id="SVGID_16_" gradientUnits="userSpaceOnUse" x1="399.4387" y1="261.2001" x2="407.2706" y2="261.2001">
							<stop  offset="0" style="stop-color:#D77727"/>
							<stop  offset="1" style="stop-color:#D13F1E"/>
						</linearGradient>
						<circle class="st16" cx="403.35" cy="261.2" r="3.92"/>
						<linearGradient id="SVGID_17_" gradientUnits="userSpaceOnUse" x1="423.116" y1="265.1161" x2="423.116" y2="257.2841">
							<stop  offset="0" style="stop-color:#DD8A24"/>
							<stop  offset="1" style="stop-color:#EBCF33"/>
						</linearGradient>
						<circle class="st17" cx="423.12" cy="261.2" r="3.92"/>
						<linearGradient id="SVGID_18_" gradientUnits="userSpaceOnUse" x1="442.8773" y1="265.1161" x2="442.8773" y2="257.2841">
							<stop  offset="0" style="stop-color:#5596CB"/>
							<stop  offset="1" style="stop-color:#9BBEEE"/>
						</linearGradient>
						<circle class="st18" cx="442.88" cy="261.2" r="3.92"/>
						<g>
							<path class="st9" d="M430.54,332.36l-15.44-17.4l15.44-17.4c1.06-1.2,0.95-3.03-0.24-4.09c-1.2-1.06-3.03-0.95-4.09,0.24
								l-17.15,19.33c-0.97,1.1-0.97,2.75,0,3.85l17.15,19.33c0.57,0.65,1.37,0.98,2.17,0.98c0.68,0,1.37-0.24,1.92-0.73
								C431.49,335.38,431.6,333.55,430.54,332.36z"/>
							<path class="st9" d="M552.84,313.03l-17.15-19.33c-1.06-1.2-2.89-1.31-4.09-0.24c-1.2,1.06-1.31,2.9-0.24,4.09l15.44,17.4
								l-15.44,17.4c-1.06,1.2-0.95,3.03,0.24,4.09c0.55,0.49,1.24,0.73,1.92,0.73c0.8,0,1.6-0.33,2.17-0.98l17.15-19.33
								C553.81,315.78,553.81,314.12,552.84,313.03z"/>
							<path class="st9" d="M462.41,285.58c-1.49-0.58-3.17,0.15-3.76,1.64l-21.61,55.09c-0.58,1.49,0.15,3.17,1.64,3.76
								c0.35,0.14,0.71,0.2,1.06,0.2c1.16,0,2.25-0.7,2.7-1.84l21.61-55.09C464.64,287.84,463.9,286.16,462.41,285.58z"/>
							<path class="st9" d="M479.67,285.58c-1.49-0.58-3.17,0.15-3.76,1.64L454.3,342.3c-0.58,1.49,0.15,3.17,1.64,3.76
								c0.35,0.14,0.71,0.2,1.06,0.2c1.16,0,2.25-0.7,2.7-1.84l21.61-55.09C481.89,287.84,481.16,286.16,479.67,285.58z"/>
							<path class="st9" d="M493.78,301.47c-2.28,0-4.13,1.85-4.13,4.13c0,2.28,1.85,4.13,4.13,4.13c2.28,0,4.13-1.85,4.13-4.13
								C497.91,303.32,496.06,301.47,493.78,301.47z"/>
							<path class="st9" d="M493.78,321.57c-2.28,0-4.13,1.85-4.13,4.13c0,2.28,1.85,4.13,4.13,4.13c2.28,0,4.13-1.85,4.13-4.13
								C497.91,323.42,496.06,321.57,493.78,321.57z"/>
							<path class="st9" d="M511.18,321.57c-2.28,0-4.13,1.85-4.13,4.13c0,2.28,1.85,4.13,4.13,4.13c2.28,0,4.13-1.85,4.13-4.13
								C515.31,323.42,513.46,321.57,511.18,321.57z"/>
						</g>
					</g>
				</g>
				<linearGradient id="SVGID_19_" gradientUnits="userSpaceOnUse" x1="59.6223" y1="304.4108" x2="136.0148" y2="228.0183">
					<stop  offset="0" style="stop-color:#C0CEE5"/>
					<stop  offset="1" style="stop-color:#D6E5F8"/>
				</linearGradient>
				<path class="st19" d="M159.96,223.31l-11.73,6.17l-10.08-6.37l0.47-11.91l11.73-6.17c0.86-0.45,0.79-1.73-0.12-2.07
					c-4.65-1.7-9.97-1.5-14.69,0.98c-6.9,3.63-10.5,11.07-9.58,18.37l-42.28,43.34c-3.47-0.69-7.19-0.24-10.57,1.54
					c-4.17,2.19-6.97,5.96-8.07,10.19c-0.22,0.83,0.68,1.52,1.44,1.12l10.35-5.44l8.9,5.62l-0.42,10.52l-10.36,5.44
					c-0.76,0.4-0.7,1.53,0.11,1.82c4.1,1.5,8.8,1.32,12.97-0.87c5.74-3.02,8.88-9.01,8.55-15.09c0.31-0.25,0.6-0.52,0.88-0.81
					l41.25-42.27c4.41,1.33,9.32,1.01,13.72-1.31c4.72-2.48,7.9-6.75,9.14-11.54C161.84,223.63,160.83,222.85,159.96,223.31z"/>
				<g>
					<linearGradient id="SVGID_20_" gradientUnits="userSpaceOnUse" x1="553.5688" y1="201.9901" x2="553.5688" y2="102.4471">
						<stop  offset="0" style="stop-color:#DD8A24"/>
						<stop  offset="1" style="stop-color:#EBCF33"/>
					</linearGradient>
					<path class="st20" d="M596.93,145.8c0-24.29-19.98-43.92-44.4-43.35c-23.06,0.54-41.84,19.39-42.31,42.45
						c-0.26,13.11,5.3,24.93,14.28,33.04c1.46,1.32,2.3,3.2,2.3,5.17v11.89c0,3.85,3.12,6.97,6.97,6.97h39.6
						c3.85,0,6.97-3.12,6.97-6.97v-11.89c0-1.97,0.84-3.85,2.3-5.17C591.41,170.03,596.93,158.56,596.93,145.8z"/>
					<linearGradient id="SVGID_21_" gradientUnits="userSpaceOnUse" x1="553.5689" y1="240.8511" x2="553.5689" y2="210.6084">
						<stop  offset="0" style="stop-color:#2B3442"/>
						<stop  offset="1" style="stop-color:#45475C"/>
					</linearGradient>
					<path class="st21" d="M573.37,205.55h-39.6c-3.85,0-6.97,3.12-6.97,6.97l0,0c0,3.85,3.12,6.97,6.97,6.97h39.6
						c3.85,0,6.97-3.12,6.97-6.97l0,0C580.34,208.68,577.22,205.55,573.37,205.55z"/>
					<linearGradient id="SVGID_22_" gradientUnits="userSpaceOnUse" x1="553.5689" y1="240.8512" x2="553.5689" y2="210.6086">
						<stop  offset="0" style="stop-color:#2B3442"/>
						<stop  offset="1" style="stop-color:#45475C"/>
					</linearGradient>
					<path class="st22" d="M573.37,222.94h-39.6c-3.85,0-6.97,3.12-6.97,6.97l0,0c0,3.85,3.12,6.97,6.97,6.97h39.6
						c3.85,0,6.97-3.12,6.97-6.97l0,0C580.34,226.06,577.22,222.94,573.37,222.94z"/>
					<g>
						<path class="st9" d="M564.58,150.76c-5.54,0-10.05,4.51-10.05,10.05v5.07v3.2v32.91h2.91v-32.91h7.14
							c5.05,0,9.16-4.11,9.16-9.16C573.74,154.87,569.63,150.76,564.58,150.76z M564.58,166.17h-7.14v-0.29v-5.07
							c0-3.93,3.2-7.14,7.14-7.14c3.45,0,6.25,2.8,6.25,6.25C570.83,163.37,568.03,166.17,564.58,166.17z"/>
						<path class="st9" d="M542.55,150.76c-5.05,0-9.16,4.11-9.16,9.16c0,5.05,4.11,9.16,9.16,9.16h7.14v32.91h2.91v-32.91v-3.2
							v-5.07C552.6,155.27,548.09,150.76,542.55,150.76z M549.69,165.88v0.29h-7.14c-3.45,0-6.25-2.8-6.25-6.25
							c0-3.45,2.8-6.25,6.25-6.25c3.93,0,7.14,3.2,7.14,7.14V165.88z"/>
					</g>
				</g>
				<g>
					<linearGradient id="SVGID_23_" gradientUnits="userSpaceOnUse" x1="628.3085" y1="353.1043" x2="628.3085" y2="243.4112">
						<stop  offset="0" style="stop-color:#5596CB"/>
						<stop  offset="1" style="stop-color:#9BBEEE"/>
					</linearGradient>
					<circle class="st23" cx="628.31" cy="298.26" r="54.85"/>
					<g>
						<linearGradient id="SVGID_24_" gradientUnits="userSpaceOnUse" x1="611.9277" y1="349.1255" x2="611.9277" y2="244.9668">
							<stop  offset="0.0216" style="stop-color:#568B2F"/>
							<stop  offset="1" style="stop-color:#79AC42"/>
						</linearGradient>
						<path class="st24" d="M593.11,282.47c1.54-0.71,3.34-0.01,4.02,1.54c1.19,2.7,4.22,4.74,7.28,5.1
							c2.94,0.34,5.83-0.41,8.63-1.48c1.58-0.61,3.37,0.19,3.91,1.79c0.44,1.31,1.26,2.5,2.37,3.34c1.14,0.87,2.56,1.34,3.99,1.39
							c1.75,0.06,3.18,1.39,3.23,3.14c0.02,0.82-0.42,1.59-1.16,1.96c-0.81,0.41-1.43,1.33-1.65,2.25c-0.32,1.34-0.1,2.76-0.35,4.12
							c-0.75,4.05-5.16,6.17-9.09,7.41c-4.49,1.42-9.7,3.04-10.68,8.13c-0.32,1.65-0.05,3.37,0.61,4.92
							c1.6,3.77,4.88,6.17,8.15,8.38c1.48,1.01,3.01,2.02,4.12,3.42c1.11,1.41,1.77,3.3,1.24,5.02c-0.42,1.36-1.54,2.54-1.05,4.08
							c0.52,1.65,2.37,2.48,4.05,2.04c3.06-0.82,4.28-3.75,5.63-6.31c2.88-5.44,7.25-10.08,12.5-13.3c3.92-2.39,8.65-4.35,9.04-9.81
							c0.12-1.73-0.28-3.47-1.06-5.03c-2.16-4.33-6.29-6.81-10.34-9.09c-1.09-0.61-2.22-1.25-3-2.22c-0.79-0.98-1.16-2.39-0.58-3.5
							c0.5-0.94,1.54-1.45,2.23-2.26c1.67-1.93,0.89-5.03-0.72-7.01c-1.61-1.98-3.88-3.33-5.57-5.24c-1.69-1.91-2.73-4.86-1.32-6.99
							c0.59-0.89,1.58-1.62,1.67-2.68c0.16-1.97-2.78-2.94-3.03-4.91c-0.15-1.22,0.84-2.31,1.93-2.89c1.09-0.58,2.33-0.85,3.37-1.52
							c2.42-1.57,3.04-5.11,1.83-7.73c-1.21-2.62-3.86-4.36-6.63-5.15c-1.44-0.41-2.92-0.61-4.41-0.7
							c-2.55-0.16-4.75-1.83-5.52-4.26l-1.07-3.38c-0.11-0.02-0.22-0.05-0.34-0.07c-18.75,4.55-33.73,18.71-39.41,36.98
							c1.18,1.14,2.59,2.02,4.17,2.51C584.41,285.8,588.91,284.42,593.11,282.47z"/>
						<linearGradient id="SVGID_25_" gradientUnits="userSpaceOnUse" x1="664.2874" y1="319.5565" x2="664.2874" y2="249.2889">
							<stop  offset="0.0216" style="stop-color:#568B2F"/>
							<stop  offset="1" style="stop-color:#79AC42"/>
						</linearGradient>
						<path class="st25" d="M650.21,252.12c-2.16,3.11-2.73,7.07-3.55,10.7c-0.3,1.34-0.02,2.78,0.88,3.81
							c1.73,1.98,4.2,0.86,6.41,0.42c3.08-0.6,6.43,0.33,8.76,2.44c1.33,1.21,2.31,2.79,2.85,4.51c0.48,1.54,1.56,2.87,3.1,3.36
							c0.97,0.3,1.86,1.05,2.2,2.01c0.68,1.93-0.22,4.08-1.45,5.71c-1.55,2.05-3.62,3.66-5.13,5.74c-1.51,2.08-2.39,4.94-1.19,7.2
							c0.83,1.57,2.63,2.57,4.4,2.44c0.59-0.04,1.17-0.21,1.69-0.47c1.83-0.91,3.86,0.93,3.25,2.88c-0.19,0.62-0.46,1.22-0.79,1.76
							c-1.75,2.92-4.75,4.95-5.92,8.3c-0.34,0.97-0.46,2.03-0.25,3.04c0.88,4.31,5.9,4.34,8.63,2.09c2.22-1.82,3.31-4.64,4.31-7.33
							c1.19-3.21,2.41-6.6,1.88-9.99c-0.43-2.74-1.99-5.41-1.45-8.13c0.38-1.93,1.76-3.48,2.91-5.07c0.1-0.13,0.18-0.27,0.27-0.4
							c-3.41-16.59-14.32-30.44-29.03-37.87C651.93,250.07,650.97,251.03,650.21,252.12z"/>
					</g>
				</g>
				<g>
					<linearGradient id="SVGID_26_" gradientUnits="userSpaceOnUse" x1="365.4587" y1="102.0615" x2="365.4587" y2="26.848">
						<stop  offset="0" style="stop-color:#D77727"/>
						<stop  offset="1" style="stop-color:#D13F1E"/>
					</linearGradient>
					<path class="st26" d="M406.34,44.23c0-22.9-18.84-41.41-41.87-40.87c-22.15,0.52-40.01,18.94-39.89,41.09
						c0.08,13.77,6.97,25.93,17.47,33.28c6.74,4.72,10.89,12.31,10.89,20.53v0.68h25.04v-0.69c0-8.08,3.89-15.74,10.56-20.3
						C399.28,70.61,406.34,58.25,406.34,44.23z"/>
					<linearGradient id="SVGID_27_" gradientUnits="userSpaceOnUse" x1="365.4586" y1="98.959" x2="365.4586" y2="3.3548">
						<stop  offset="0" style="stop-color:#DD8A24"/>
						<stop  offset="1" style="stop-color:#EBCF33"/>
					</linearGradient>
					<path class="st27" d="M385.74,44.23c0-22.9-9.35-41.41-20.77-40.87c-10.99,0.52-19.85,18.94-19.79,41.09
						c0.04,13.77,3.46,25.93,8.67,33.28c3.34,4.72,5.4,12.31,5.4,20.53v0.68h12.42v-0.69c0-8.08,1.93-15.74,5.24-20.3
						C382.24,70.61,385.74,58.25,385.74,44.23z"/>
					<linearGradient id="SVGID_28_" gradientUnits="userSpaceOnUse" x1="350.6696" y1="128.6324" x2="380.2478" y2="128.6324">
						<stop  offset="0" style="stop-color:#2B3442"/>
						<stop  offset="1" style="stop-color:#45475C"/>
					</linearGradient>
					<path class="st28" d="M380.25,115.76h-29.58v22.57c0,1.75,1.42,3.18,3.18,3.18h23.23c1.75,0,3.18-1.42,3.18-3.18V115.76z"/>
					<linearGradient id="SVGID_29_" gradientUnits="userSpaceOnUse" x1="365.4587" y1="140.3441" x2="365.4587" y2="118.7707">
						<stop  offset="0" style="stop-color:#DD8A24"/>
						<stop  offset="1" style="stop-color:#EBCF33"/>
					</linearGradient>
					<rect x="360.11" y="115.76" class="st29" width="10.69" height="25.75"/>
					<linearGradient id="SVGID_30_" gradientUnits="userSpaceOnUse" x1="348.0826" y1="113.1302" x2="382.8348" y2="113.1302">
						<stop  offset="0" style="stop-color:#D77727"/>
						<stop  offset="1" style="stop-color:#D13F1E"/>
					</linearGradient>
					<path class="st30" d="M380.21,115.76h-29.49c-1.45,0-2.63-1.18-2.63-2.63l0,0c0-1.45,1.18-2.63,2.63-2.63h29.49
						c1.45,0,2.63,1.18,2.63,2.63l0,0C382.83,114.58,381.66,115.76,380.21,115.76z"/>
					<linearGradient id="SVGID_31_" gradientUnits="userSpaceOnUse" x1="353.5787" y1="97.784" x2="353.5787" y2="121.6651">
						<stop  offset="0" style="stop-color:#2B3442"/>
						<stop  offset="1" style="stop-color:#45475C"/>
					</linearGradient>
					<rect x="352.94" y="98.96" class="st31" width="1.28" height="11.54"/>
					<linearGradient id="SVGID_32_" gradientUnits="userSpaceOnUse" x1="377.3386" y1="97.784" x2="377.3386" y2="121.6651">
						<stop  offset="0" style="stop-color:#2B3442"/>
						<stop  offset="1" style="stop-color:#45475C"/>
					</linearGradient>
					<polygon class="st32" points="376.7,110.5 377.98,110.5 377.98,98.96 376.7,98.96 					"/>
					<linearGradient id="SVGID_33_" gradientUnits="userSpaceOnUse" x1="365.4587" y1="97.784" x2="365.4587" y2="121.6651">
						<stop  offset="0" style="stop-color:#2B3442"/>
						<stop  offset="1" style="stop-color:#45475C"/>
					</linearGradient>
					<rect x="364.82" y="98.96" class="st33" width="1.28" height="11.54"/>
				</g>
				<g>
					<path class="st34" d="M199.25,205.22l40.44,256.48h7.43l-6.27-39.75h47.13l6.27,39.75h7.43l-40.44-256.48h-7.43l3.87,24.52
						h-47.13l-3.87-24.52H199.25z M258.85,237.16l4.66,29.53h-47.13l-4.66-29.53H258.85z M228.03,340.6l-4.66-29.53h47.13
						l4.66,29.53H228.03z M276.33,348.03l4.66,29.53h-47.13l-4.66-29.53H276.33z M222.2,303.64l-4.66-29.53h47.13l4.66,29.53H222.2z
						 M239.68,414.51l-4.66-29.53h47.13l4.66,29.53H239.68z"/>
					<path class="st35" d="M252.04,205.22l-3.87,24.52h-47.13l3.87-24.52h-7.43l-40.44,256.48h7.43l6.27-39.75h47.13l-6.27,39.75
						h7.43l40.44-256.48H252.04z M247,237.16l-4.66,29.53h-47.13l4.66-29.53H247z M183.56,340.6l4.66-29.53h47.13l-4.66,29.53
						H183.56z M229.52,348.03l-4.66,29.53h-47.13l4.66-29.53H229.52z M189.39,303.64l4.66-29.53h47.13l-4.66,29.53H189.39z
						 M171.91,414.51l4.66-29.53h47.13l-4.66,29.53H171.91z"/>
				</g>
				<g>
					<linearGradient id="SVGID_34_" gradientUnits="userSpaceOnUse" x1="210.4386" y1="440.0225" x2="272.141" y2="440.0225">
						<stop  offset="0" style="stop-color:#D77727"/>
						<stop  offset="1" style="stop-color:#D13F1E"/>
					</linearGradient>
					<polygon class="st36" points="248.44,409.46 234.14,409.46 210.44,470.58 272.14,470.58 					"/>
					<linearGradient id="SVGID_35_" gradientUnits="userSpaceOnUse" x1="192.8079" y1="476.7401" x2="289.7717" y2="476.7401">
						<stop  offset="0" style="stop-color:#D77727"/>
						<stop  offset="1" style="stop-color:#D13F1E"/>
					</linearGradient>
					<polygon class="st37" points="192.81,482.9 289.77,482.9 283.2,470.58 199.38,470.58 					"/>
					<g>
						<polygon class="st9" points="250.12,413.77 227.88,425.59 221.11,443.05 254.57,425.27 						"/>
						<polygon class="st9" points="211.72,467.27 210.44,470.58 231.57,470.58 265.21,452.71 260.75,441.21 						"/>
					</g>
				</g>
				<linearGradient id="SVGID_36_" gradientUnits="userSpaceOnUse" x1="526.9423" y1="79.2811" x2="602.9517" y2="79.2811">
					<stop  offset="0" style="stop-color:#C0CEE5"/>
					<stop  offset="1" style="stop-color:#D6E5F8"/>
				</linearGradient>
				<path class="st38" d="M602.95,91.92c0-0.03,0-0.05,0-0.08c0-7.99-10.07-14.47-22.49-14.47c-0.75,0-1.49,0.02-2.22,0.07
					c-2.64-6.34-8.89-10.79-16.18-10.79c-7.51,0-13.91,4.72-16.4,11.36c-1.35-0.41-2.77-0.64-4.26-0.64
					c-7.99,0-14.47,6.48-14.47,14.47c0,0.03,0,0.05,0,0.08H602.95z"/>
				<linearGradient id="SVGID_37_" gradientUnits="userSpaceOnUse" x1="209.599" y1="113.6123" x2="324.8395" y2="113.6123">
					<stop  offset="0" style="stop-color:#C0CEE5"/>
					<stop  offset="1" style="stop-color:#D6E5F8"/>
				</linearGradient>
				<path class="st39" d="M324.83,132.77c0-0.04,0-0.08,0-0.12c0-12.12-15.27-21.94-34.1-21.94c-1.13,0-2.25,0.04-3.36,0.11
					c-4-9.6-13.47-16.36-24.53-16.36c-11.38,0-21.08,7.16-24.86,17.22c-2.04-0.63-4.21-0.97-6.45-0.97
					c-12.12,0-21.94,9.83-21.94,21.94c0,0.04,0.01,0.08,0.01,0.12H324.83z"/>
				<g>
					<linearGradient id="SVGID_38_" gradientUnits="userSpaceOnUse" x1="597.4573" y1="455.4749" x2="659.1597" y2="455.4749">
						<stop  offset="0" style="stop-color:#D77727"/>
						<stop  offset="1" style="stop-color:#D13F1E"/>
					</linearGradient>
					<polygon class="st40" points="635.46,424.91 621.15,424.91 597.46,486.04 659.16,486.04 					"/>
					<linearGradient id="SVGID_39_" gradientUnits="userSpaceOnUse" x1="579.8266" y1="492.1926" x2="676.7904" y2="492.1926">
						<stop  offset="0" style="stop-color:#D77727"/>
						<stop  offset="1" style="stop-color:#D13F1E"/>
					</linearGradient>
					<polygon class="st41" points="579.83,498.35 676.79,498.35 670.22,486.04 586.39,486.04 					"/>
					<g>
						<polygon class="st9" points="637.13,429.23 614.9,441.04 608.13,458.5 641.59,440.72 						"/>
						<polygon class="st9" points="598.74,482.72 597.46,486.04 618.59,486.04 652.23,468.16 647.77,456.66 						"/>
					</g>
				</g>
			</g>
		</g>
	</g>
</g>
<g id="DESIGNED_BY_FREEPIK">
</g>
</svg>
