<?xml version="1.0" encoding="utf-8"?>
<!-- Generator: Adobe Illustrator 24.1.0, SVG Export Plug-In . SVG Version: 6.00 Build 0)  -->
<svg version="1.1" xmlns="http://www.w3.org/2000/svg" xmlns:xlink="http://www.w3.org/1999/xlink" x="0px" y="0px"
	 viewBox="0 0 800 800" style="enable-background:new 0 0 800 800;" xml:space="preserve">
<style type="text/css">
	.st0{fill:none;}
	.st1{fill:#C37E4C;}
	.st2{fill:#DE9967;}
	.st3{fill:#EA7128;}
	.st4{fill:#985321;}
	.st5{fill:#EFC2A3;}
	.st6{fill:#2D1300;}
</style>
<g id="Background">
</g>
<g id="Objects">
	<g>
		<g>
			<path class="st0" d="M479,378.3c-10.5-9.2-21-18.4-31.4-27.7l-13.2,5.8c-15.3,6.8-33.1,1.3-43.5-10.3c0,0-10.4,5-25.9,12.2
				l0.7,11.5c1.1,16.7-10.2,31.6-24.7,37.3c0,0,2.2,23.3,4.6,53.1l13.1,2c16.6,2.5,28.7,16.6,31.3,32c0,0,16.3,1.9,39,4.8l3.6-7.3
				c7.4-15,24.6-22.3,40-19.9c0,0,8.6-18.9,20.3-43.6l-6.3-5.8C474.5,410.9,472.4,392.4,479,378.3z"/>
			<path class="st1" d="M284.2,156c15.2,24.7,30.6,49.4,46.7,73.6c7,10.6,14,21.3,22,31.2c0,0,0,0,0,0c5.6,7,12.2,13.4,18.6,19.7
				c5.9-18.4,23.1-28.6,31.7-33.3c5.8-3.2-8.6,4.7,0,0c5.8-3.2,10.4-4.4,14.1-4.5c-4.4-4.6-8.7-9.4-12.5-14.6
				c-4.1-5.6-7.7-11.6-11.3-17.5c-7.6-12.7-14.6-25.7-21.6-38.7c-7.1-13.2-14-26.6-20.8-40"/>
			<path class="st1" d="M491.4,331.3l-21.4,9.4l-13.2,5.8l-9.2,4.1c10.4,9.3,20.9,18.5,31.4,27.7c-6.6,14.1-4.5,32.7,7.8,44l6.3,5.8
				l11.7,10.8l10.6,9.8l17.2,15.9c4.5,4.1,12.2,4.7,17.5,2.1c2.3-1.1,4.3-2.7,4.8-5.3c0.5-2.4,0.3-4.8,0.4-7.2
				c0.1-1.8,0.4-3,2.2-3.7c2.2-0.8,4.5-1.1,6.7-2c2.5-1,5.3-2.8,6.2-5.5c0.8-2.5,0.3-5.3,0.5-7.9c0.5-6,7.3-4.7,11.4-6.6
				c2.4-1.1,3.9-2.9,4.4-5.5c0.5-2.4,0.3-4.8,0.4-7.2c0-1.6,0-3.7,1.5-4.7c1.5-1,3.7-0.9,5.4-1.6c5.6-2.4,7.5-8.1,6.2-13.7
				c-0.8-3.2-2.3-6.4-4.8-8.7L584,377c5.4-0.5,4.6-7,3.1-10.6c-2.1-4.9-5.6-9.2-9.3-13c-7.9-8.3-17.7-14.6-28.8-17.6
				c-3-0.8-6.1-1.4-9.3-1.6c0.1-0.1,0.2-0.3,0.2-0.4c-6.5-0.2-13.5,0.8-20.3,3.5c0,0-1.3-1.1-3.7-3.2v0c-3.4-3-9.1-7.8-16-14
				C498.8,324.9,495.6,329.5,491.4,331.3z"/>
			<path class="st2" d="M123,434.6c28-4.1,56-8.4,83.7-13.6c9.2-1.8,18.5-3.5,27.6-6.1c11.5-3.3,22.7-8.2,33.7-12.8
				c0.3-0.1,0.6-0.2,0.9-0.4c-11.4-7.9-13.9-18-16.5-40c-1-7.9,2.7,21.9,0,0c-1-7.9-0.5-13.3,0.6-16.9c-10.6,4.2-21.4,8.3-32.6,10.5
				c-11,2.1-22.3,3.4-33.4,4.6c-19.8,2.1-39.6,3.5-59.4,4.9"/>
			<path class="st2" d="M363.2,331l0.9,14.4l0.8,12.9c15.5-7.3,25.9-12.2,25.9-12.2c10.4,11.7,28.2,17.1,43.5,10.3l13.2-5.8l9.2-4.1
				l13.2-5.8l21.4-9.4c5.7-2.5,9.2-9.5,8.9-15.5c-0.2-2.8-1-5-3.4-6.5c-1.9-1.2-4-1.9-6-2.9c-1.7-0.8-2.6-1.6-2.4-3.6
				c0.3-2.9,1-5.8,0.7-8.8c-0.3-2.9-1.4-5.3-3.9-6.8c-1.9-1.1-4.2-1.7-6.1-2.8c-4.9-3-0.6-9.2-1.1-13.6c-0.6-5.3-5.8-6.7-9.9-8.7
				c-1.4-0.6-3.2-1.4-3.5-3.1c-0.3-1.7,0.6-3.5,0.7-5.2c0.2-5.5-3.3-9.7-8.4-11.1c-3.7-1-8.1-1-11.6,0.5l-18.5,8.1
				c1.4-4.3-3-7.6-6.7-8.3c-5.9-1.1-12.1,1.5-17.2,4.3c-8.1,4.5-15.9,9.8-22.1,16.9c-6.9,7.9-11.2,17.8-11.5,28.3
				c0,0-4.6,2.2-12.2,5.9c2.6,2.6,4.4,6,4.6,9.4L363.2,331z"/>
			<path class="st3" d="M293.7,552.9l-1.3-0.2c0,0.6,0,1.1,0,1.6C292.8,553.8,293.3,553.3,293.7,552.9z"/>
			<path class="st4" d="M297.2,453l23.1,3.4l14.3,2.1l11.1,1.6c-2.4-29.8-4.6-53.1-4.6-53.1c14.5-5.7,25.8-20.6,24.7-37.3l-0.7-11.5
				l-0.8-12.9l-0.9-14.4l-1.5-23.3c-0.4-6.4-6.1-12.4-12.3-13.9c-2.7-0.7-4.9-0.3-7,1.5c-1.8,1.5-3.2,3.4-5,4.9
				c-1.5,1.2-2.6,0.9-4.2,0.1c-2.2-1.2-4.3-2.5-6.7-3.2c-2.5-0.7-5.3-1-7.6,0.5c-1.9,1.3-3.2,3.2-4.9,4.7c-1.5,1.4-3.2,2.3-5.3,1.6
				c-2.1-0.7-3.8-2.3-5.7-3.3c-2.1-1.2-4.8-2-7.1-1.1c-2.3,0.8-4,2.8-5.7,4.4c-1.3,1.3-2.8,3.4-4.6,3.9c-1.4,0.4-2.7-0.6-3.9-1.3
				c-4.1-2.6-9.5-2.6-13.2,0.6c-3.6,3.2-5.9,8.6-5.6,13.4l1.1,17.6c-2.1-0.7-4.6-0.6-6.5,0.4c-4.3,2.2-5.4,7.6-5.7,12
				c-0.5,6.6,0.6,13.3,1.6,19.8c0.8,5.2,1.7,10.4,3.4,15.4c1.6,4.7,4.1,9,7.7,12.4c5.2,5,12,8,18.6,10.7c0,0,2.1,20.1,4.3,46.3
				C290.5,453.5,294,452.5,297.2,453z"/>
			<path class="st4" d="M332.2,688.7c5.7-27.1,8.8-43.3,13.7-70.5c2.8-16,6-32.3,6.1-48.6c-9.8,2.4-19.1,2-24.9,1.7
				c-23.3-1.5,5.8,0.4,0,0c-23.3-1.5-32.3-5.9-34.9-10.2c-0.6,9.2-2.6,18.3-4.7,27.2c-3,13.2-6.5,26.3-10.1,39.4
				c-4,14.4-5.7,17.8-9.9,32.1"/>
			<path class="st5" d="M415.4,526.5l6.4-12.9l7.2-14.6c-22.7-2.9-39-4.8-39-4.8c-2.5-15.4-14.7-29.5-31.3-32l-13.1-2l-11.1-1.6
				l-14.3-2.1l-23.1-3.4c-6.3-0.9-13.3,3.3-16.1,8.9c-1.2,2.5-1.4,4.7-0.2,7.2c1.1,2.2,2.7,4,3.8,6.1c0.9,1.6,0.5,2.7-0.6,4
				c-1.5,1.8-3.1,3.4-4.3,5.4c-1.3,2.2-2.4,5-1.6,7.6c0.7,2.4,2.5,4.2,3.7,6.2c1.1,1.8,1.6,3.8,0.4,5.7c-1.1,1.8-2.9,3.1-4.3,4.7
				c-1.5,1.7-2.9,4.1-2.6,6.5c0.3,2.4,1.7,4.5,3,6.5c1.1,1.6,2.7,3.5,3,5.5c0.2,1.5-1,2.6-1.9,3.5c-3.5,3.5-4.8,8.9-2.2,13.3
				c2.4,4.1,7.2,7.5,11.9,8.2l3.3,0.5l1.3,0.2c-2.5,2.1-3.4,5.5-1.5,8.3c0.5,0.8,1.2,1.6,2,2.2c2.4,2,5.4,3.1,8.4,4.1
				c5.1,1.6,10.4,2.4,15.7,3c6.4,0.7,12.9,1.2,19.3,1c8.2-0.3,16.5-1.8,24-5.2c7.3-3.4,13.6-8.6,18.1-15.3c0,0,9.5,1,24,2.8
				c-0.1-2.3,0.3-4.5,1.3-6.4L415.4,526.5z"/>
			<path class="st6" d="M632.5,220.1c-18.2,20.2-36.3,40.6-53.9,61.3c-12.7,15-25.9,30-35.7,47.1c-1.1,1.9-2.1,3.7-3.1,5.6
				c15.8,1.2,28.8,10.2,34.9,16c8.7,8.4-6-5.8,0,0c8.7,8.4,12.5,14.7,13.5,19.2c2.6-4.3,5.3-8.4,8.4-12.3c2.9-3.7,6-7.2,9.1-10.6
				c8.5-9.4,17.3-18.5,26.3-27.4c13.8-13.8,27.9-27.3,42.2-40.7"/>
			<path class="st6" d="M526.7,555.4c2.1-8.6,5-16.9,5.6-25.9c0.7-11-1.9-21.8-8.7-30.5c0,0,5.9-13.1,14.4-31.4
				c-2.1-0.6-4.1-1.6-5.6-3l-17.2-15.9l-10.6-9.8L493,428.1c-11.7,24.7-20.3,43.6-20.3,43.6c-15.4-2.3-32.6,4.9-40,19.9l-3.6,7.3
				l-7.2,14.6l-6.4,12.9L405,547.4c-2.7,5.5-1.1,13,2.9,17.5c1.7,1.9,3.8,3.3,6.5,3.1c2.4-0.2,4.7-1.1,7.1-1.7
				c1.7-0.4,2.9-0.4,4,1.1c1.2,1.7,2.1,3.7,3.4,5.4c1.5,2,3.8,4.2,6.4,4.7c2.6,0.5,5.2-0.8,7.7-1.5c2.2-0.6,4.4-0.6,6,1.3
				c1.4,1.7,2.1,3.9,3.3,5.8c1.3,2,3.2,4,5.7,4.3c2.4,0.3,4.9-0.5,7.2-1.1c1.7-0.5,4.1-1.5,5.9-1c1.5,0.5,2.1,2.3,2.8,3.6
				c2.8,5,8.7,6.9,13.9,4.8c3.7-1.5,7.3-4.4,9.1-8.1l8.2-16.6c0.9,2.3,3.8,3.4,6.2,3.5c2.8,0.1,5.6-1.1,7.7-2.9
				C523.3,566.1,525.5,560.6,526.7,555.4C528.9,546.6,524.6,564.2,526.7,555.4z"/>
			<path class="st5" d="M668.7,564.3c-25.6-11.4-51.4-22.6-77.4-33.1c-9.2-3.7-18.5-7.4-28-10.4c-10.5-3.4-21.5-5.3-32.3-7.2
				c3.1,11.5,1,23.5-2.2,34.7c-2.2,7.9-3.8,18.3-11.7,22.7c5.8,1.3,11.7,2.6,17.4,4.5c4.2,1.4,8.2,3.1,12.3,4.8
				c11.5,5,22.7,10.5,33.8,16.2c15.2,7.7,30.3,15.8,45.3,23.9"/>
		</g>
	</g>
</g>
</svg>
