<?xml version="1.0" encoding="utf-8"?>
<!-- Generator: Adobe Illustrator 24.1.0, SVG Export Plug-In . SVG Version: 6.00 Build 0)  -->
<svg version="1.1" id="Layer_1" xmlns="http://www.w3.org/2000/svg" xmlns:xlink="http://www.w3.org/1999/xlink" x="0px" y="0px"
	 viewBox="0 0 500 500" style="enable-background:new 0 0 500 500;" xml:space="preserve">
<style type="text/css">
	.st0{fill:#2EDED1;stroke:#2EDED1;stroke-miterlimit:10;}
	.st1{fill:#2190C7;}
</style>
<g>
	<g>
		<path class="st0" d="M130.4,184.8c2.3,0,4.3,0.8,6.1,2.5s2.6,3.8,2.6,6.3c0,4.3-1.3,13.7-4,28.2c-3.3,17.8-5.6,36.7-6.9,56.8
			c-1.3,20.1-2,32.7-2,37.8c0,2.8-1.3,5.5-3.8,8.3c-2.5,2.7-4.7,4.1-6.6,4.1c-2,0-3.9-0.8-5.6-2.4c-1.8-1.6-2.6-3.6-2.6-6
			c0-2.2,0.9-9.9,2.8-23.1c1.6-11.2,2.4-19.3,2.4-24.2c0-2.9-0.4-4.9-1.3-6c-0.8-1.1-2.3-1.6-4.3-1.6c-3,0-9,0.3-17.8,1
			c-9.6,0.8-15.5,1.2-17.9,1.2c-2.5,0-8.8,0.4-18.9,1.2s-15.7,1.5-16.8,2c-1.1,0.6-2.1,4.6-3.3,12c-1.1,7.4-1.8,13.6-2,18.5
			c-0.3,8.4-1.3,15.3-2.9,20.8s-3.7,8.2-6.2,8.2c-1.8,0-3.9-1.4-6.5-4.1c-2.6-2.8-3.9-5.5-3.9-8.3c0-2.4,0.7-6.6,2.2-12.4
			c2-8,4.4-22.4,7.2-43.1c2.8-20.7,5.2-42.2,7.3-64.5c0.1-1.5,0.9-2.9,2.4-4.4c1.5-1.5,3.1-2.3,4.8-2.3c5.9,0,8.9,4.3,8.9,12.8
			c0,5-1.1,13.1-3.3,24.2c-1.9,10-2.9,17.3-2.9,21.8c0,1.9,0.6,3.2,1.8,4.1c1.2,0.8,4.1,1.3,8.6,1.3c9.9,0,23.3-0.8,40.1-2.4
			c16.8-1.6,25.8-3.9,27.1-6.9c1.3-3,2.6-9.8,4-20.4c1.4-10.6,2-21.7,2-33.3c0-1.3,0.9-2.9,2.8-4.7
			C126.2,185.7,128.2,184.8,130.4,184.8z"/>
		<path class="st0" d="M237,292.7c0,6.2-5.5,13.6-16.4,22.3c-10.9,8.7-22.2,13.1-33.8,13.1c-9.7,0-17.3-2.9-22.5-8.6
			c-5.3-5.7-7.9-13.8-7.9-24c0-17.3,5.8-33.8,17.5-49.4s24.4-23.4,38.3-23.4c4.5,0,8.2,1.5,11.1,4.4c2.9,3,4.3,6.5,4.3,10.7
			c0,9.3-4.6,18.2-13.7,26.8c-9.1,8.5-21.4,16.9-36.7,25.1c-3.1,1.6-4.7,3.8-4.7,6.4c0,5,1.5,9,4.4,12.1c2.9,3,7.2,4.5,12.9,4.5
			c13,0,26.3-7.2,39.8-21.6c2-2,3.5-3,4.5-3C236.1,288.1,237,289.7,237,292.7z M174,278.6c25.6-15.2,38.5-27.5,38.5-36.7
			c0-3.6-1.6-5.4-4.9-5.4c-5.6,0-11.8,4.1-18.8,12.2C181.7,256.8,176.8,266.8,174,278.6z"/>
		<path class="st0" d="M431.1,328c-8.3,0-15.1-3.1-20.5-9.4c-5.4-6.3-8.1-14.1-8.1-23.3c0-15.6,5.2-31,15.7-46.1
			c10.5-15.2,23.1-22.7,37.7-22.7c9.7,0,17.5,3.7,23.5,11.2c6,7.4,9,16.3,9,26.6c0,15.7-6.2,30.3-18.6,43.7
			C457.4,321.4,444.5,328,431.1,328z M418.5,292.9c0,6.1,1.3,11.1,3.9,15s6,5.8,10.2,5.8c9,0,18.1-4.9,27.1-14.8
			c9.1-9.9,13.6-20.9,13.6-33c0-7.4-1.7-13.5-5.2-18.1c-3.5-4.6-8.2-6.9-14-6.9c-9.7,0-18.1,6-25.1,17.9
			C422,270.7,418.5,282.1,418.5,292.9z"/>
	</g>
</g>
<g>
	<g>
		<g>
			<path class="st1" d="M303,312.8l-4-16l-3.6-14.2c-0.7-2.7-3.4-4.6-6.1-4.3l-12,1.4c-2.6,0.3-5.1-1.3-6-3.9
				c-1.9-5.6-4.6-11.7-5.5-30.4s1.1-24.8,2.4-30.3c0.6-2.5,3-4.1,5.6-3.7l12.1,1.7c2.8,0.4,5.3-1.4,5.7-4.2l2-13.7l2.4-16.4
				c0.4-2.8-1.5-5.5-4.3-6.3l-12.2-3.3c-3.3-0.9-6.7-0.5-9.6,1.1c-9.3,5.4-25.6,21.4-22.8,74.7c2.8,53.4,20.7,69.8,30.6,75.4
				c3,1.7,6.5,2.2,9.7,1.4l12-2.9C302.1,318.3,303.7,315.6,303,312.8z"/>
		</g>
	</g>
</g>
<g>
	<g>
		<g>
			<path class="st1" d="M370.1,312.8l-4-16l-3.6-14.2c-0.7-2.7-3.4-4.6-6.1-4.3l-12,1.4c-2.6,0.3-5.1-1.3-6-3.9
				c-1.9-5.6-4.6-11.7-5.5-30.4c-1-18.7,1.1-24.8,2.4-30.3c0.6-2.5,3-4.1,5.6-3.7l12.1,1.7c2.8,0.4,5.3-1.4,5.7-4.2l2-13.7l2.4-16.4
				c0.4-2.8-1.5-5.5-4.3-6.3l-12.2-3.3c-3.3-0.9-6.7-0.5-9.6,1.1c-9.3,5.4-25.6,21.4-22.8,74.7c2.8,53.4,20.7,69.8,30.6,75.4
				c3,1.7,6.5,2.2,9.7,1.4l12-2.9C369.3,318.3,370.9,315.6,370.1,312.8z"/>
		</g>
	</g>
</g>
<g>
</g>
<g>
</g>
<g>
</g>
<g>
</g>
<g>
</g>
<g>
</g>
<g>
</g>
<g>
</g>
<g>
</g>
<g>
</g>
<g>
</g>
<g>
</g>
<g>
</g>
<g>
</g>
<g>
</g>
</svg>
