<?xml version="1.0" encoding="utf-8"?>
<!-- Generator: Adobe Illustrator 24.1.0, SVG Export Plug-In . SVG Version: 6.00 Build 0)  -->
<svg version="1.1" id="Layer_1" xmlns="http://www.w3.org/2000/svg" xmlns:xlink="http://www.w3.org/1999/xlink" x="0px" y="0px"
	 viewBox="0 0 500 500" style="enable-background:new 0 0 500 500;" xml:space="preserve">
<style type="text/css">
	.st0{fill:#E0342F;}
	.st1{fill:#2190C7;}
	.st2{fill:#C72D23;}
	.st3{fill:#FFFFFF;}
</style>
<path class="st0" d="M353.2,167.4C283.8,151.2,247,221.3,247,221.3s-36.8-70.1-106.2-53.8c-63.1,14.8-80.6,92.7-26.2,149
	C169,372.8,247,396.1,247,429.1c0-33,78-56.3,132.4-112.7C433.8,260.1,416.3,182.2,353.2,167.4z"/>
<g>
	<path class="st1" d="M178.3,368.2c-7.5-3.9-15.7-6-23.6-8.9c-25.7-9.4-48-27.7-62.3-51c-4.8-7.8-9.8-17-18.7-18.7
		c-6-1.2-12.6,1.9-15.6,7.2c-4.9,8.8,2,22.4,6.2,30.4c10.4,19.6,24.1,37.5,40.5,52.5c-24.1-1.2-37.5-28.3-46.7-47.2
		c-10.5-21.6-17.2-45.1-19.5-69.1c-0.7-7.8-1.2-16.2-6.2-22.2c-4.7-5.7-14.1-6.5-19.8-1.7c-6.3,5.3-5.4,14.6-4.7,22
		c2.8,29.8,5.7,59.5,8.5,89.3c1.6,17.1,3.5,34.9,12.2,49.7c10.8,18.3,30.7,29.4,50.4,37.5c12.3,5.1,36.3,9.7,45.9,18.9
		c9.6,9.3,10.8,28.4,10.8,42.2h69.9c0,0,0-57.5,0-74.3c0-21.1-6.2-45.1-26.2-56.1C179,368.6,178.6,368.4,178.3,368.2z"/>
	<path class="st1" d="M317.1,368.2c7.5-3.9,15.7-6,23.6-8.9c25.7-9.4,48-27.7,62.3-51c4.8-7.8,9.8-17,18.7-18.7
		c6-1.2,12.6,1.9,15.6,7.2c4.9,8.8-2,22.4-6.2,30.4c-10.4,19.6-24.1,37.5-40.5,52.5c24.1-1.2,37.5-28.3,46.7-47.2
		c10.5-21.6,17.2-45.1,19.5-69.1c0.7-7.8,1.2-16.2,6.2-22.2c4.7-5.7,14.1-6.5,19.8-1.7c6.3,5.3,5.4,14.6,4.7,22
		c-2.8,29.8-5.7,59.5-8.5,89.3c-1.6,17.1-3.5,34.9-12.2,49.7c-10.8,18.3-30.7,29.4-50.4,37.5c-12.3,5.1-36.3,9.7-45.9,18.9
		c-9.6,9.3-10.8,28.4-10.8,42.2h-69.9c0,0,0-57.5,0-74.3c0-21.1,6.2-45.1,26.2-56.1C316.4,368.6,316.7,368.4,317.1,368.2z"/>
</g>
<path class="st2" d="M379.4,316.5c54.4-56.3,36.8-134.3-26.2-149C283.8,151.2,247,221.3,247,221.3v207.8
	C247,396.1,325,372.8,379.4,316.5z"/>
<g>
	<g>
		<g>
			<path class="st3" d="M201.3,232.6c5.7,0,10.3-4.6,10.3-10.3c0-5.7-4.6-10.3-10.3-10.3c-5.7,0-10.3,4.6-10.3,10.3
				C190.9,228,195.6,232.6,201.3,232.6z"/>
			<path class="st3" d="M291.5,235.6c0.1,0,0.2,0,0.2,0c3.6,0,7-2,8.8-5c1.9-3.1,1.9-7.2,0.1-10.3c-1.8-3.1-5.2-5.1-8.8-5.1
				c-3.6,0-7,1.9-8.9,5c-1.9,3.1-2,7.1-0.2,10.3C284.6,233.5,287.9,235.5,291.5,235.6z"/>
			<path class="st3" d="M311,266C311,266,311,266,311,266c0-0.4,0-0.3,0-0.2c-0.1-2.4-0.2-4.8-0.6-7.2c-0.4-2.6-1-5.1-1.9-7.5
				c-1.7-4.6-4.5-9-8.6-11.9c-0.8-0.6-1.8-1.1-2.7-1.6c-3.5-1.9-7.4-1.9-10.9,0c-4.3,2.3-7.8,5.9-10,10.2c-1.2,2.3-2.1,4.7-2.7,7.2
				c-0.7,2.5-1,5-1.3,7.6c-0.2,2-0.2,4.1-0.2,6.1c-0.2,0-0.4-0.1-0.6-0.1c-0.4-0.1-0.8-0.2-1.1-0.4c-0.8-0.3-1.5-0.7-2.3-1.2
				c-1.4-0.8-2.7-1.7-3.9-2.7c-1.5-1.2-3.1-1.8-4.7-1.8v0c0,0,0,0,0,0c0,0,0,0,0,0v0c-1.6,0-3.2,0.6-4.7,1.8c-1.2,1-2.5,1.9-3.9,2.7
				c-0.7,0.4-1.5,0.8-2.3,1.2c-0.4,0.1-0.7,0.3-1.1,0.4c-0.3,0.1-0.7,0.2-1,0.1c0,0-0.9-0.6-0.9-0.6c-0.4-0.3-0.8-0.3-1.3-0.3
				c-0.4,0-0.7,0.2-1,0.4c-1.1,0.9-2.4,1.7-3.9,1.9c-1.4,0.2-3-0.2-4-1.1c-2.5-2.2-5.8-2-8.3,0c-1.1,0.9-2.6,1.3-4,1.1
				c-1.1-0.1-2-0.6-2.9-1.2c0,0,0-0.1,0-0.1l0,0c0,0,0.1-0.6,0.2-1.6c0.1-1,0.2-2.5,0.3-4.3c0.1-1.8,0.1-3.9-0.1-6.2
				c-0.2-2.3-0.6-4.7-1.3-7.2c-0.7-2.5-1.7-4.9-3.1-7.1c-0.7-1.1-1.4-2.1-2.2-3c-0.8-0.9-1.6-1.7-2.5-2.4c-1.7-1.4-3.3-2.2-4.6-2.8
				c-0.6-0.3-1.2-0.4-1.6-0.6c-2.5-0.7-5.4-0.6-7.8-0.1c-0.2,0-0.4,0.1-0.6,0.1c-0.4,0.1-1,0.3-1.6,0.6c-1.3,0.5-2.9,1.4-4.6,2.8
				c-0.8,0.7-1.7,1.5-2.5,2.4c-0.8,0.9-1.5,1.9-2.2,3c-1.3,2.2-2.4,4.6-3.1,7.1c-0.7,2.5-1.1,4.9-1.3,7.2c-0.2,2.3-0.2,4.4-0.1,6.2
				c0.1,1.8,0.2,3.3,0.3,4.3c0.1,1,0.2,1.6,0.2,1.6l0,0c0.2,1.6,1.6,2.7,3.2,2.7c1.7-0.1,3-1.5,2.9-3.2c0,0,0-0.5,0-1.5
				c0-0.9,0-2.3,0.1-3.9c0.1-1.6,0.2-3.4,0.6-5.3c0.3-1.9,0.8-3.9,1.5-5.7c0.4-1,0.8-2,1.4-2.9l-2.3,18.7c-0.1,0.9-0.1,1.9,0,2.9
				c0.2,2,0.9,3.7,2,5.3l1.6,33.6c0.1,1.8,1.6,3.3,3.4,3.4c2,0.1,3.6-1.4,3.7-3.4l1.1-25.3l1.2,25.4c0.1,1.8,1.6,3.3,3.4,3.4
				c2,0.1,3.6-1.4,3.7-3.4l1.5-33.7c1.5-2.3,2.2-5.1,1.9-8l-2.2-18.5c0.5,0.8,0.9,1.8,1.2,2.7c0.7,1.8,1.2,3.8,1.5,5.7
				c0.3,1.9,0.5,3.8,0.6,5.3c0.1,1.6,0.1,2.9,0.1,3.9c0,0.9,0,1.5,0,1.5c-0.1,1.6,1.1,3,2.7,3.2c0.2,0,0.4,0,0.7,0
				c1,1,2,1.8,3.3,2.4c1.4,0.7,3,0.9,4.5,0.8l0,5.8l-3.4,15.3c-0.1,0.4,0,0.7,0.3,1c0.2,0.3,0.6,0.4,0.9,0.4h2.6l0.6,12.9
				c0.1,1.1,1,2,2.1,2c1.1,0,2-0.9,2.1-2l0.7-12.9h0.3l0.6,12.9c0.1,1.1,1,2,2.1,2c1.1,0,2-0.9,2.1-2l0.7-12.9h2.4
				c0.4,0,0.7-0.2,0.9-0.4c0.2-0.3,0.3-0.6,0.3-1l-3.2-15l0-6.1c1.5,0.1,3.1-0.2,4.5-0.8c1-0.4,1.8-1,2.6-1.7c0,0,0,0,0.1,0.1
				c0.8,0.5,1.7,0.8,2.7,0.8c1.9,0.1,3.8-0.5,5.6-1.2l-0.6,11.8c-0.1,1.5,0.3,2.7,0.9,3.9l1.1,22.2c0.1,1.2,1.1,2.2,2.3,2.2
				c1.2,0,2.2-1,2.3-2.2l0.9-17.3l0.9,17.3c0.1,1.2,1.1,2.2,2.3,2.2c1.2,0,2.2-1,2.3-2.2l1.1-22.2c0.7-1.2,1-2.5,0.9-3.9l-0.6-11.8
				c1.8,0.7,3.7,1.3,5.6,1.2c0.9,0,1.7-0.2,2.4-0.7c0.2,0.1,0.4,0.1,0.7,0.1c1.6,0.1,3-1.2,3.2-2.8c0.1-0.8,0.1-1.5,0.2-2.3
				c0.1-1.2,0.3-2.4,0.5-3.5c0.4-2.5,1-4.9,1.9-7.2c0.2-0.6,0.5-1.2,0.7-1.7l0.1,7.2l-5.8,26.3c-0.1,0.6,0,1.2,0.4,1.7
				c0.4,0.5,1,0.8,1.6,0.8h4.5l0.9,18.5c0.1,1.9,1.7,3.4,3.5,3.4c1.9,0,3.4-1.5,3.6-3.3c0,0,0,0,0-0.1l1-18.5h0.8l0.9,18.5
				c0.1,1.9,1.7,3.4,3.5,3.4c1.8,0,3.4-1.5,3.6-3.3c0,0,0,0,0-0.1l1-18.5h4.5c0.6,0,1.2-0.3,1.6-0.7c0.4-0.5,0.5-1.1,0.4-1.7
				l-5.8-26.4l0.1-7.1c1,2.4,1.7,5.3,2.1,7.8c0.4,2.2,0.6,4.4,0.8,6.6c0,0.1,0,0.1,0,0.2c0.1,1.6,1.6,2.8,3.2,2.8
				c1.6-0.1,2.9-1.4,2.9-3C311,268.1,311,267.1,311,266z"/>
			<path class="st3" d="M259.5,262C259.5,262,259.5,262,259.5,262C259.5,262,259.5,262,259.5,262c1.9,0,3.7-0.8,4.9-2.1
				c1.3-1.3,1.9-3.2,1.8-5c-0.1-1.8-1-3.5-2.4-4.7c-1.2-1-2.8-1.6-4.3-1.6l0,0c0,0,0,0,0,0c0,0,0,0,0,0l0,0c-1.6,0-3.1,0.6-4.3,1.6
				c-1.4,1.2-2.2,2.9-2.4,4.7c-0.1,1.8,0.6,3.7,1.8,5C255.9,261.2,257.6,262,259.5,262z"/>
			<path class="st3" d="M229.1,266.4c0.7,0.3,1.4,0.4,2.1,0.4c2,0,3.9-1,5-2.7c1.1-1.7,1.3-3.9,0.5-5.7c-0.8-1.8-2.5-3.1-4.4-3.5
				c-2-0.4-4,0.3-5.4,1.8c-1.4,1.5-2,3.6-1.5,5.5C225.9,264.1,227.3,265.7,229.1,266.4z"/>
		</g>
		<g>
			<path class="st3" d="M267.1,338.5h74c4.3,0,7.8-3.6,7.8-7.9V214.9c0-4.3-3.5-7.9-7.8-7.9c-4.6,0-8.1,3.6-8.1,7.9v107.5h-57.6
				h-57.9h-57.7V211.2c0-4.6-3.5-8.1-8.1-8.1l0,0c-4.3,0-7.8,3.5-7.8,8.1v119.4c0,4.3,3.5,7.9,7.8,7.9h73.7H267.1z M151.7,203.1"/>
			<path class="st1" d="M107.5,209.4c-3.2,3.2-3,8.6,0,11.6c1.6,1.3,3.6,2.1,5.8,2.1c2.5,0,4.4-0.8,5.8-2.1L246.3,92.5l127.5,127.2
				c3.2,3.2,8.3,3.4,11.3,0c3.4-2.9,3.2-8,0-11.2l-133-133c-1.6-1.6-3.5-2.5-5.8-2.5c-1.9,0-3.9,0.9-5.5,2.5l-53,53.3V101
				c0-4.6-3.5-8.1-7.8-8.1c-4.6,0-8.3,3.5-8.3,8.1v44L107.5,209.4L107.5,209.4z M107.5,209.4"/>
		</g>
	</g>
</g>
<g>
</g>
<g>
</g>
<g>
</g>
<g>
</g>
<g>
</g>
<g>
</g>
<g>
</g>
<g>
</g>
<g>
</g>
<g>
</g>
<g>
</g>
<g>
</g>
<g>
</g>
<g>
</g>
<g>
</g>
</svg>
