<?xml version="1.0" encoding="utf-8"?>
<!-- Generator: Adobe Illustrator 24.1.0, SVG Export Plug-In . SVG Version: 6.00 Build 0)  -->
<svg version="1.1" id="Layer_1" xmlns="http://www.w3.org/2000/svg" xmlns:xlink="http://www.w3.org/1999/xlink" x="0px" y="0px"
	 viewBox="0 0 512 512" style="enable-background:new 0 0 512 512;" xml:space="preserve">
<style type="text/css">
	.st0{fill:#D53D33;}
	.st1{fill:#AB2300;}
	.st2{fill:#2190C7;}
	.st3{fill:#B9E7FB;}
	.st4{fill:#0D75A8;}
	.st5{fill:#94DEFE;}
	.st6{fill:#FFFFFF;}
</style>
<g id="Medical_insurance">
	<path class="st0" d="M352,24c-22.2,0-44,5.5-63.6,16c-11.9,6.4-22.8,14.5-32.4,24c-9.6-9.5-20.5-17.6-32.4-24
		C204,29.5,182.2,24,160,24C84.9,24,24,84.9,24,160c0,107.5,116.1,203,184,249.7c28.2,19.4,48,30.3,48,30.3s19.8-11,48-30.3
		C371.9,363,488,267.5,488,160C488,84.9,427.1,24,352,24z"/>
	<path class="st1" d="M488,160c0,107.5-116.1,203-184,249.7C275.8,429,256,440,256,440s-7.6-4.2-20-12c7.7-4.7,17.3-11,28-18.3
		C331.9,363,448,267.5,448,160c0-67.4-49.3-124.6-115.9-134.5c6.6-1,13.3-1.5,19.9-1.5C427.1,24,488,84.9,488,160z"/>
	<path class="st2" d="M488,216v96c0,29.4-11.8,57.5-32.8,78.1L360,488l-68.2-70.2l-27-27.8c-21-20.5-32.8-48.7-32.8-78.1v-96l128-48
		l119,44.6L488,216z"/>
	<path class="st3" d="M456,240v70.9c0,21.2-8.4,41.6-23.4,56.6L360,440l-72.6-72.6c-15-15-23.4-35.3-23.4-56.6V240l96-40L456,240z"
		/>
	<path class="st4" d="M488,216v96c0,29.4-11.8,57.5-32.8,78.1L360,488l-16-16.5l79.2-81.4c21-20.5,32.8-48.7,32.8-78.1v-96l-112-42
		l16-6L488,216z"/>
	<path class="st5" d="M456,240v70.9c0,21.2-8.4,41.6-23.4,56.6L360,440l-16-16l56.6-56.6c15-15,23.4-35.3,23.4-56.6V240l-80-33.4
		l16-6.6L456,240z"/>
	<path class="st6" d="M314.4,310.1l-11.3,11.3l28.3,28.3c3.1,3.1,8.2,3.1,11.3,0l67.9-67.9l-11.3-11.3L337,332.7L314.4,310.1z"/>
</g>
</svg>
