<?xml version="1.0" encoding="utf-8"?>
<!-- Generator: Adobe Illustrator 24.1.0, SVG Export Plug-In . SVG Version: 6.00 Build 0)  -->
<svg version="1.1" xmlns="http://www.w3.org/2000/svg" xmlns:xlink="http://www.w3.org/1999/xlink" x="0px" y="0px"
	 viewBox="0 0 840 232" style="enable-background:new 0 0 840 232;" xml:space="preserve">
<style type="text/css">
	.st0{fill:#EFFCFF;}
	.st1{fill:#00B7AE;}
	.st2{fill:#FF6969;}
	.st3{fill:#FFD256;}
	.st4{fill:#A3B6F1;}
	.st5{fill:#000149;}
	.st6{fill:#FFFFFF;}
	.st7{fill:#5577C2;}
	.st8{fill:#3FD3C9;}
	.st9{opacity:0.13;}
	.st10{fill:#0FAAC9;}
	.st11{opacity:0.13;fill:#0FAAC9;stroke:#FFFFFF;stroke-miterlimit:10;enable-background:new    ;}
	.st12{opacity:0.53;}
</style>
<g id="Layer_2">
	<rect class="st0" width="840" height="232"/>
</g>
<g id="Layer_1">
	<g>
		<g>
			<path class="st1" d="M716.2,78.6c-0.3-0.1-0.6-0.3-0.9-0.4c-0.4-0.5-0.7-1-1.1-1.5c-0.1-0.1-0.2-0.2-0.3-0.2
				c-1.5-3.2-4.2-5.9-6.9-8.7c-0.9-1.1-1.8-2.3-2.6-3.4c-0.2-0.3-0.5-0.4-0.8-0.4l-0.1-0.1c-0.4-0.7-0.8-1.4-1.1-2.2
				c-0.3-0.9-2.4-0.8-2.3,0.2c0.1,0.6,0.1,1.1,0.2,1.7c-0.3,0.1-0.6,0.4-0.6,0.7c0,0.6-0.1,1.2-0.2,1.8c-0.6,4.7-2.9,9.2-3.1,14
				c0,0.2,0.1,0.4,0.3,0.6c-0.2,1.4-0.3,2.8-0.2,4.1l0,0c-0.6,0.2-1.1,0.7-0.6,1.2l0.2,0.2l0,0c-0.2,0.8-0.5,1.6-0.8,2.4
				c-0.2,0.7,0.6,1.2,1.4,1.1c4.1-0.6,7.5-2.4,10.8-4.3c2.4-1.2,4.9-2.3,7.4-3.4c0.2-0.1,0.3-0.2,0.4-0.3
				C717.2,81.6,718.3,79.5,716.2,78.6z"/>
			<polygon class="st2" points="701.8,60.6 736.9,71.8 718.3,81 			"/>
			<path class="st3" d="M718.3,81l14.6,22.2c0,0-13.2-3-27.6-8.5l-10.2-4.3L718.3,81z"/>
			<path class="st4" d="M736.9,71.8L718.3,81l14.6,22.2C732.9,103.1,737.6,80.1,736.9,71.8z"/>
			<g>
				<g>
					<g>
						<path class="st5" d="M699.8,60c-1.2,6.7-2.5,13.3-3.7,20c-0.3,1.7-0.6,3.5-0.9,5.2c-0.3,1.6-0.6,3.2-0.7,4.7
							c-0.1,1.2,1.6,1.6,2.5,2c4,1.8,8.1,3.2,12.2,4.6c4.9,1.7,9.9,3.3,14.8,4.9c2,0.6,4,1.3,6.1,1.8c0.9,0.3,1.9,0.6,2.8,0.6
							c0.3,0,0.5-0.2,0.6-0.5c1.1-5.4,2-10.9,2.8-16.4c0.7-5,1.6-10.2,1.2-15.2c0-0.3-0.2-0.5-0.5-0.6c-12.2-3.8-24.3-7.6-36.4-11.6
							c-0.8-0.3-1.1,1-0.3,1.2c12.1,4,24.3,7.8,36.4,11.6c-0.2-0.2-0.3-0.4-0.5-0.6c0.4,5-0.5,10.3-1.2,15.3
							c-0.8,5.4-1.7,10.8-2.8,16.1c0.2-0.2,0.4-0.3,0.6-0.5c-0.1,0-0.6,0-0.3,0c-0.1,0-0.2,0-0.1,0c-0.3,0-0.5-0.1-0.8-0.2
							c-0.9-0.2-1.8-0.5-2.6-0.7c-2.8-0.8-5.5-1.7-8.3-2.5c-6.6-2.1-13.1-4.3-19.6-6.8c-1.8-0.7-4.4-1.4-5.8-2.6
							c0.1,0.2,0.1,0.4,0.2,0.6c1.4-10.1,3.6-20.1,5.3-30.1C701.2,59.6,700,59.2,699.8,60L699.8,60z"/>
					</g>
				</g>
				<g>
					<g>
						<path class="st5" d="M700.7,61.3c3.5,3.2,6.1,7.2,9.4,10.6c1.9,2,3.6,4.2,5.2,6.4c4.2,5.7,8.2,11.7,12,17.7
							c1.6,2.5,3.2,5.1,4.8,7.6c0.4,0.7,1.5,0.1,1.1-0.6c-3.2-5.2-6.6-10.4-10-15.5c-3.6-5.3-7.1-10.8-11.4-15.6
							c-1.6-1.8-3.2-3.5-4.8-5.4c-1.7-2.1-3.5-4.2-5.5-6.1C701,59.9,700.1,60.8,700.7,61.3L700.7,61.3z"/>
					</g>
				</g>
				<g>
					<g>
						<path class="st5" d="M736.5,71.4c-13.7,6.3-27.3,13.5-41.6,18.3c-0.8,0.3-0.4,1.5,0.3,1.2c14.5-4.8,28.1-12.1,41.9-18.4
							C737.9,72.2,737.3,71.1,736.5,71.4L736.5,71.4z"/>
					</g>
				</g>
				<g>
					<g>
						<path class="st5" d="M700.1,83.8c3.6-1.2,7.1-2.8,10.7-4.2c0.7-0.3,0.4-1.5-0.3-1.2c-3.6,1.3-7,3-10.7,4.2
							C699,82.9,699.4,84.1,700.1,83.8L700.1,83.8z"/>
					</g>
				</g>
				<g>
					<g>
						<path class="st5" d="M702.9,80.4c1.6-0.5,3.2-1.3,4.8-2c0.3-0.1,0.4-0.6,0.2-0.9s-0.5-0.4-0.9-0.2c-1.5,0.6-2.9,1.3-4.5,1.8
							c-0.3,0.1-0.5,0.4-0.4,0.8C702.2,80.2,702.6,80.5,702.9,80.4L702.9,80.4z"/>
					</g>
				</g>
				<g>
					<g>
						<path class="st5" d="M701.2,77.9c1.7-0.9,3.4-1.7,5.2-2.2c0.8-0.2,0.4-1.4-0.3-1.2c-1.9,0.5-3.7,1.4-5.5,2.3
							C699.9,77.2,700.5,78.2,701.2,77.9L701.2,77.9z"/>
					</g>
				</g>
				<g>
					<g>
						<path class="st5" d="M716.5,73.5c2.5-1.1,5-1.9,7.4-3.1c0.7-0.4,0.1-1.4-0.6-1.1c-2.4,1.2-5,2-7.4,3.1
							c-0.3,0.1-0.4,0.6-0.2,0.9C715.8,73.6,716.2,73.7,716.5,73.5L716.5,73.5z"/>
					</g>
				</g>
				<g>
					<g>
						<path class="st5" d="M719.3,75.3c1.7-0.7,3.5-1.4,5.1-2.3c0.3-0.2,0.4-0.6,0.2-0.9s-0.6-0.4-0.9-0.2c-1.6,0.9-3.4,1.5-5.1,2.3
							c-0.3,0.1-0.4,0.6-0.2,0.9C718.6,75.4,719,75.4,719.3,75.3L719.3,75.3z"/>
					</g>
				</g>
				<g>
					<g>
						<path class="st5" d="M721.2,77.2c1.1-0.3,2.2-0.7,3.2-1.4c0.3-0.2,0.4-0.6,0.2-0.9s-0.6-0.4-0.9-0.2c-0.4,0.3-0.9,0.6-1.4,0.8
							h-0.1c-0.1,0,0.1,0,0,0s-0.1,0-0.2,0.1c-0.1,0-0.3,0.1-0.4,0.1c-0.3,0.1-0.6,0.2-0.8,0.3c-0.3,0.1-0.5,0.4-0.4,0.8
							C720.6,77.1,720.9,77.3,721.2,77.2L721.2,77.2z"/>
					</g>
				</g>
				<g>
					<g>
						<path class="st5" d="M707.5,91.7c2.8-1.4,5.7-2.6,8.7-3.7c0.3-0.1,0.5-0.4,0.4-0.8c-0.1-0.3-0.5-0.6-0.8-0.4
							c-3,1.2-6.1,2.4-9,3.9C706.1,91,706.7,92.1,707.5,91.7L707.5,91.7z"/>
					</g>
				</g>
				<g>
					<g>
						<path class="st5" d="M711.9,93.6c1.2-0.5,2.4-1.1,3.5-1.7c0.3-0.2,0.4-0.6,0.2-0.9s-0.6-0.4-0.9-0.2c-1.1,0.7-2.3,1.2-3.5,1.7
							c-0.3,0.1-0.4,0.6-0.2,0.9C711.2,93.7,711.6,93.8,711.9,93.6L711.9,93.6z"/>
					</g>
				</g>
				<g>
					<g>
						<path class="st5" d="M715.2,95.1c0.5-0.2,0.9-0.4,1.4-0.6c0.1,0,0.2-0.1,0.3-0.1c-0.2,0.1,0,0,0,0c0.1,0,0.1,0,0.2-0.1
							c0.2-0.1,0.4-0.2,0.7-0.3c0.3-0.1,0.5-0.4,0.4-0.8c-0.1-0.3-0.4-0.6-0.8-0.4c-0.5,0.2-0.9,0.4-1.4,0.6c-0.1,0-0.2,0.1-0.3,0.1
							c0.2-0.1,0,0,0,0c-0.1,0-0.1,0-0.2,0.1c-0.2,0.1-0.4,0.2-0.7,0.3c-0.3,0.1-0.5,0.4-0.4,0.8C714.5,94.9,714.9,95.2,715.2,95.1
							L715.2,95.1z"/>
					</g>
				</g>
				<g>
					<g>
						<path class="st5" d="M725.4,84c2.1-0.9,4.2-1.6,6.3-2.4c0.3-0.1,0.5-0.4,0.4-0.8c-0.1-0.3-0.5-0.6-0.8-0.4
							c-2.1,0.9-4.2,1.6-6.3,2.4c-0.3,0.1-0.5,0.4-0.4,0.8C724.7,83.8,725.1,84.1,725.4,84L725.4,84z"/>
					</g>
				</g>
				<g>
					<g>
						<path class="st5" d="M727.3,86.8c1.4-0.3,2.6-0.9,3.9-1.4c0.3-0.1,0.5-0.4,0.4-0.8c-0.1-0.3-0.4-0.6-0.8-0.4
							c-1.3,0.5-2.6,1-3.9,1.4c-0.3,0.1-0.5,0.5-0.4,0.8C726.6,86.7,726.9,86.8,727.3,86.8L727.3,86.8z"/>
					</g>
				</g>
				<g>
					<g>
						<path class="st5" d="M729.6,89.5c0.7-0.2,1.3-0.6,2-0.9c0.3-0.1,0.4-0.6,0.2-0.9s-0.5-0.4-0.9-0.2c-0.4,0.2-0.9,0.5-1.3,0.7
							c0,0,0.1,0,0.1-0.1c-0.2,0.1-0.3,0.1-0.5,0.2c-0.3,0.1-0.5,0.5-0.4,0.8C728.9,89.4,729.3,89.6,729.6,89.5L729.6,89.5z"/>
					</g>
				</g>
				<g>
					<g>
						<path class="st5" d="M732.1,103.8c4.7,3.1,7.2,8.7,6.1,14.2c-0.9,4.5-3.9,8.1-8.3,9.5c-3.9,1.2-8.1,1.1-12.1,0.3
							c-3.5-0.7-7.4-2.1-9.9-4.7c-2.3-2.4-1.9-5.2,0.3-7.4c3.7-3.8,10.5-4.8,14.7-1.2c1.7,1.4,3.1,3.9,2,6s-3.6,3.2-5.7,4.1
							c-5.5,2.3-11.5,3.3-17.1,5.5c-5.3,2-10.9,5.2-12.4,11c-0.6,2.2-0.5,4.5,0.7,6.5c1.4,2.4,3.9,3.7,6.5,4.3
							c0.8,0.2,1.1-1,0.3-1.2c-2.7-0.7-5.4-2.1-6.3-5c-0.7-2.3-0.1-4.8,1-6.9c3.3-5.8,10.9-8,16.9-9.7c3-0.9,6-1.7,8.9-2.7
							c2.4-0.8,4.9-1.8,6.8-3.5c4-3.6,1-8.9-3.2-10.8c-4.9-2.2-10.9-0.9-14.5,3.1c-2.2,2.5-2.6,5.6-0.4,8.2c2.4,2.9,6.3,4.5,9.9,5.4
							c4.2,1,8.8,1.3,13,0.2c4.4-1.2,7.7-4.1,9.3-8.4c1.9-5.1,0.8-10.9-2.7-15c-1-1.1-2.1-2-3.3-2.8
							C732.1,102.3,731.5,103.4,732.1,103.8L732.1,103.8z"/>
					</g>
				</g>
				<g>
					<g>
						<path class="st5" d="M733.5,103.9c1.4-0.3,3-0.3,4.3,0.3c1.2,0.5,2.1,1.5,2.7,2.6c1.4,2.3,1.9,5,2.2,7.7
							c0.1,1.2,0.2,2.4,0.2,3.6c0,0.4,0.3,0.6,0.6,0.6c4,0.2,3.2-4.7,2.5-7.2c-0.4-1.4-0.9-2.8-1.5-4.2c-0.8-2-2.4-3.8-4.3-4.9
							c-2.5-1.5-5.4-1.6-7.8,0c-0.7,0.5,0,1.5,0.6,1.1c1.9-1.3,4.1-1.3,6.2-0.2c1.7,0.9,3.1,2.4,4,4.1c0.5,1.1,0.9,2.2,1.3,3.4
							c0.4,1.4,0.8,2.8,0.9,4.3c0,1.4-0.4,2.4-1.9,2.3c0.2,0.2,0.4,0.4,0.6,0.6c0-2.6-0.2-5.3-0.9-7.8c-0.7-2.7-2.1-5.7-4.7-7
							c-1.7-0.9-3.6-0.9-5.4-0.5C732.4,102.9,732.8,104.1,733.5,103.9L733.5,103.9z"/>
					</g>
				</g>
				<g>
					<g>
						<path class="st5" d="M732.5,103.2c-0.8,0.7-1.4,1.6-1.6,2.7c-0.2,1,0.1,2.1,0.2,3.1c0.2,1.3,0.4,2.5,0.3,3.9
							c-0.2,1.3-0.6,2.6-0.9,3.9c-0.1,0.3,0.1,0.7,0.4,0.8c0.8,0.2,1.6,0,2.5,0c0.3,0,0.6-0.2,0.6-0.5c0.9-4.7-0.6-9.3-0.4-14
							c0-0.8-1.2-0.8-1.3,0c-0.2,4.6,1.3,9.1,0.5,13.7c0.2-0.2,0.4-0.3,0.6-0.5c-0.7,0-1.5,0.2-2.2,0c0.1,0.3,0.3,0.5,0.4,0.8
							c0.6-2.3,1.2-4.6,0.9-7c-0.2-1.1-0.4-2.1-0.4-3.2c0-1.2,0.4-2.1,1.3-2.8C734,103.6,733.1,102.7,732.5,103.2L732.5,103.2z"/>
					</g>
				</g>
				<g>
					<g>
						<path class="st5" d="M732.4,103.2c-1.2,2-3.8,2.9-6,3.3c-2.6,0.6-5.3,0.7-7.9,0.3c0.2,0.2,0.3,0.4,0.5,0.6
							c0-0.8,0-1.5,0.2-2.3c-0.3,0.1-0.6,0.2-0.9,0.4c2.3,1.4,5.4,1.2,7.9,0.7c2.4-0.4,5.2-1.3,7-3.1c0.6-0.6-0.3-1.5-0.9-0.9
							c-1.6,1.6-4.2,2.3-6.3,2.7c-2.2,0.4-5.1,0.7-7.1-0.5c-0.3-0.2-0.8,0-0.9,0.4c-0.2,0.8-0.3,1.7-0.3,2.6c0,0.2,0.2,0.6,0.5,0.6
							c2.9,0.4,5.9,0.3,8.8-0.4c2.4-0.6,5.2-1.6,6.5-3.9C733.9,103.1,732.8,102.5,732.4,103.2L732.4,103.2z"/>
					</g>
				</g>
			</g>
		</g>
		<g>
			<g>
				<path class="st2" d="M625.8,150.4c-1.2,0.2-2.4,0.7-3.6,1.1c-1.6,0.6-4.2,1.2-5.3,2.3c-1.2,1.4-1,3.8-1.3,5.3
					c-0.4,2.2-0.8,4.3-1.3,6.4c-0.4,1.2-1.1,2.6-0.7,3.7c3.6-2.7,5.6-6.7,8.5-9.8"/>
			</g>
			<g>
				<path class="st2" d="M649.8,160.7c0.4,0.9,0.4,1.9,0.4,2.9c0.1,1.3,0.6,3.3-0.1,4.5c-1,1.4-4,2.5-5.6,3.4
					c-2.4,1.3-4.6,2.6-6.8,3.9c-1.2,0.8-2.5,2-4,2.2c1.4-3.6,5.2-6.9,7.4-10.3"/>
			</g>
			<g>
				<path class="st6" d="M628.8,162.8c-1-0.6-7.7-3.8-7.5-5.1c0.4-2.4,12.9-18.2,16.3-21.6c2.3-2.3,20.1-10.8,21.5-9.6
					c1.1,0.9,2.3,15.9,2.1,17.1c-0.8,4.2-14.9,22.2-16.6,23.3c-2.8,1.6-9.7-1.6-12.2-2.8"/>
			</g>
			<g>
				<path class="st4" d="M652.9,128.5c2.1,1.5,4.6,2.1,7.3,2.3c-0.3-2.3-0.7-4-1.1-4.3c-0.5-0.4-3.2,0.4-6.6,1.8
					C652.7,128.4,652.8,128.4,652.9,128.5z"/>
			</g>
			<g>
				<path class="st4" d="M661.2,143.5c-3.1,0.2-6.3,0.2-8.7-1.3c-4.9-1-9.5-2.7-12.9-5.3c-0.5-0.2-1.1-0.4-1.6-0.7
					c-0.1,0-0.2-0.1-0.3-0.1l-0.1,0.1c-2.5,2.5-10,11.8-13.9,17.4c0.7,0.1,1.4,0.5,2,1c0.6,0.6,3,1.4,4.1,1.8c2,0.8,4,1.7,6,2.6
					c3.9,1.6,7.8,3.1,11.9,4.4C652.4,157.7,660.5,146.7,661.2,143.5C661.2,143.5,661.2,143.5,661.2,143.5z"/>
			</g>
			<g>
				<path class="st2" d="M636.2,153.2c1.3,0.7,3,1.1,4.1,1.9c-6.1,7.3-11.7,12.9-17.9,19c0.6-2.2,2.2-4.5,3.5-6.4
					C628.2,164,633.3,156.6,636.2,153.2"/>
			</g>
			<g>
				<path class="st7" d="M641.1,142.7c-4.9,1.1-6.8,6.4-2.4,8.7c4.2,2.3,11.8,0.2,11.4-4.2C649.9,144.3,646.4,141.5,641.1,142.7"/>
				<g>
					<path class="st5" d="M640.9,142.1c-2.6,0.6-5.2,2.6-5.3,5.5s2.6,4.7,5.1,5.2c2.6,0.5,5.7,0.1,7.9-1.5c0.9-0.7,1.8-1.6,2.1-2.7
						c0.3-1.2,0.1-2.4-0.5-3.5C648.3,141.9,644.2,141.4,640.9,142.1c-0.8,0.2-0.5,1.4,0.3,1.2c2.5-0.6,5.6-0.3,7.3,1.8
						c1.3,1.5,1.2,3.5-0.3,4.9c-1.6,1.4-4.1,1.9-6.2,1.8c-2-0.1-4.7-1.1-5.2-3.3c-0.6-2.6,2.1-4.6,4.4-5.1
						C642,143.2,641.7,142,640.9,142.1L640.9,142.1z"/>
				</g>
			</g>
			<g>
				<path class="st8" d="M641.8,144.3c-3.3,0.7-4.6,4.3-1.6,5.9c2.9,1.5,8,0.1,7.7-2.8C647.7,145.3,645.4,143.4,641.8,144.3"/>
			</g>
			<g>
				<g>
					<path class="st5" d="M635.8,153.7c1.4,0.7,2.8,1.1,4.1,1.9c0-0.3-0.1-0.7-0.1-1c-5.6,6.7-11.7,12.8-17.9,19
						c0.3,0.2,0.7,0.4,1,0.6c0.7-2.4,2.2-4.4,3.5-6.4c1-1.5,2-3,3-4.5c2.3-3.3,4.5-6.6,7.1-9.6c0.5-0.6-0.4-1.5-0.9-0.9
						c-2.6,3.2-4.9,6.5-7.3,9.9c-1.1,1.5-2.1,3.1-3.1,4.7c-1.4,2.1-2.8,4.1-3.5,6.6c-0.2,0.6,0.6,1,1,0.6c6.2-6.1,12.3-12.3,17.9-19
						c0.3-0.3,0.2-0.8-0.1-1c-1.3-0.8-2.8-1.2-4.1-1.9C635.8,152.3,635.1,153.4,635.8,153.7L635.8,153.7z"/>
				</g>
			</g>
			<g>
				<g>
					<path class="st5" d="M629.1,162.3c-1.7-0.9-3.4-1.8-5-2.8c-0.6-0.4-1.9-1-2.2-1.7c-0.1-0.1,0,0.2,0,0c0-0.1,0.1-0.2,0.1-0.2
						c0.1-0.2,0.2-0.5,0.3-0.7c2-3.7,4.8-7.1,7.4-10.4c2.6-3.3,5.2-6.7,8.1-9.7c0.9-0.9,2.1-1.6,3.3-2.2c1.9-1.1,3.8-2.1,5.8-3
						c2.1-1,4.2-2,6.4-2.9c1.5-0.6,3.1-1.3,4.8-1.6c0.2,0,0.4-0.1,0.6-0.1c0.2,0,0,0,0,0c0.3,0.4,0.4,1.2,0.5,1.6
						c0.4,2,0.6,4.1,0.9,6.2c0.2,2.1,0.4,4.2,0.5,6.3c0.1,1.2,0.2,2.1-0.2,3.1c-1.4,3.6-4.1,6.9-6.3,10c-2.5,3.5-5.2,7-8,10.2
						c-0.7,0.8-1.4,1.9-2.4,2.1c-2.5,0.6-5.5-0.7-7.8-1.7c-1.1-0.4-2.1-0.9-3.1-1.4c-0.7-0.4-1.4,0.7-0.6,1.1
						c2.4,1.2,4.9,2.3,7.5,2.9c1.8,0.4,4.2,0.9,5.7-0.5c1.1-0.9,2-2.1,2.9-3.2c1.5-1.8,2.9-3.6,4.4-5.5c2.9-3.8,5.9-7.7,8.2-11.9
						c0.6-1,1.2-2.1,1.2-3.3c0.1-1.8-0.2-3.7-0.3-5.5c-0.2-2.4-0.4-4.8-0.8-7.2c-0.2-1.2-0.2-3.3-1.1-4.2c-0.8-0.7-2.4-0.1-3.2,0.1
						c-2.1,0.6-4.1,1.5-6,2.3c-4.1,1.8-8.4,3.7-12.1,6.3c-1.2,0.8-2.1,1.9-3,3c-1.6,1.8-3.1,3.7-4.7,5.6c-3,3.8-6.1,7.7-8.7,11.8
						c-0.5,0.9-1.6,2.2-0.9,3.2c0.4,0.7,1.3,1.3,2,1.7c1.1,0.7,2.2,1.3,3.3,2c0.7,0.4,1.5,0.8,2.2,1.2
						C629.2,163.8,629.8,162.7,629.1,162.3L629.1,162.3z"/>
				</g>
			</g>
			<g>
				<g>
					<path class="st5" d="M637.8,136.7c3.3,2.5,7.5,3.4,11.3,4.9c2,0.8,4.1,1.2,6.2,1.8c1.9,0.5,3.8,1,5.9,0.9
						c0.8-0.1,0.8-1.3,0-1.3c-2.1,0.2-4-0.4-5.9-0.9c-2-0.5-4-1-6-1.8c-3.6-1.5-7.6-2.3-10.7-4.7
						C637.7,135.2,637.1,136.2,637.8,136.7L637.8,136.7z"/>
				</g>
			</g>
			<g>
				<g>
					<path class="st5" d="M652.7,128.6c0.7,1.1,2.1,1.6,3.2,2c1.3,0.4,2.7,0.7,4,0.7c0.8,0,0.8-1.3,0-1.3c-1.2,0.1-2.4-0.2-3.5-0.6
						c-0.6-0.2-1.2-0.4-1.7-0.7c-0.2-0.1-0.5-0.3-0.6-0.4c-0.1-0.1-0.2-0.2-0.3-0.2c0,0-0.1-0.2,0,0l-0.1-0.1
						C653.3,127.2,652.2,127.9,652.7,128.6L652.7,128.6z"/>
				</g>
			</g>
			<path class="st3" d="M640.8,135.4c-0.9,0-0.8,1.1,0.1,1.1C641.8,136.5,641.7,135.4,640.8,135.4z"/>
			<path class="st3" d="M644.6,137.2c-0.9,0-0.8,1.1,0.1,1.1C645.6,138.2,645.5,137.1,644.6,137.2z"/>
			<path class="st3" d="M648.8,139c-0.9,0-0.8,1.1,0.1,1.1C649.8,140,649.7,138.9,648.8,139z"/>
			<path class="st3" d="M653.7,140.5c-0.9,0-0.8,1.1,0.1,1.1C654.8,141.5,654.7,140.5,653.7,140.5z"/>
			<path class="st3" d="M658.7,141.7c-0.9,0-0.8,1.1,0.1,1.1C659.7,142.7,659.6,141.6,658.7,141.7z"/>
			<g>
				<g>
					<path class="st5" d="M625.6,149.8c-1.3,0.2-2.5,0.7-3.8,1.2c-0.9,0.3-1.8,0.6-2.7,0.9c-1.9,0.7-3.2,1.6-3.6,3.6
						c-0.2,1-0.2,2-0.4,2.9c-0.2,1.3-0.5,2.6-0.7,3.8c-0.3,1.3-0.6,2.6-1,3.8c-0.4,1-0.7,2.1-0.4,3.2c0.1,0.4,0.6,0.6,0.9,0.4
						c3.5-2.7,5.6-6.7,8.7-9.8c0.6-0.6-0.3-1.5-0.9-0.9c-2.9,3.1-5,7-8.4,9.7c0.3,0.1,0.6,0.2,0.9,0.4c-0.3-1.1,0.3-2.1,0.6-3.1
						c0.4-1.1,0.6-2.3,0.8-3.4c0.4-2,0.6-4,1-6.1c0.1-0.9,0.4-1.8,1.1-2.4c0.7-0.6,1.6-0.8,2.4-1.1c1.9-0.7,3.9-1.5,5.9-1.9
						C626.8,150.9,626.4,149.7,625.6,149.8L625.6,149.8z"/>
				</g>
			</g>
			<g>
				<g>
					<path class="st5" d="M649.2,160.9c0.4,1.1,0.3,2.2,0.4,3.3c0.1,1,0.3,2,0.1,2.9c-0.3,1.7-2.9,2.5-4.3,3.2c-2.1,1-4.1,2.2-6,3.3
						c-1,0.6-2,1.2-2.9,1.8c-1,0.7-1.9,1.4-3.1,1.7c0.3,0.3,0.5,0.5,0.8,0.8c1.6-3.9,5-6.7,7.3-10.1c0.4-0.7-0.6-1.3-1.1-0.6
						c-2.3,3.6-5.8,6.4-7.4,10.4c-0.2,0.5,0.4,0.9,0.8,0.8c1.2-0.3,2.3-1,3.3-1.7c1-0.8,2.2-1.4,3.3-2.1c2.2-1.3,4.4-2.5,6.6-3.6
						c1.6-0.8,3.7-1.7,4-3.7c0.2-1,0-2-0.1-3c-0.1-1.2-0.1-2.5-0.5-3.7C650.2,159.8,648.9,160.1,649.2,160.9L649.2,160.9z"/>
				</g>
			</g>
			<g>
				<g>
					<path class="st5" d="M640.9,142.1c-2.6,0.6-5.2,2.6-5.3,5.5s2.6,4.7,5.1,5.2c2.6,0.5,5.7,0.1,7.9-1.5c0.9-0.7,1.8-1.6,2.1-2.7
						c0.3-1.2,0.1-2.4-0.5-3.5C648.3,141.9,644.2,141.4,640.9,142.1c-0.8,0.2-0.5,1.4,0.3,1.2c2.5-0.6,5.6-0.3,7.3,1.8
						c1.3,1.5,1.2,3.5-0.3,4.9c-1.6,1.4-4.1,1.9-6.2,1.8c-2-0.1-4.7-1.1-5.2-3.3c-0.6-2.6,2.1-4.6,4.4-5.1
						C642,143.2,641.7,142,640.9,142.1L640.9,142.1z"/>
				</g>
			</g>
			<g>
				<g>
					<path class="st5" d="M641.6,143.7c-1.8,0.4-3.6,1.9-3.7,3.9c-0.1,2,1.8,3.3,3.6,3.7c1.8,0.3,3.9,0.1,5.5-1
						c0.7-0.5,1.3-1.1,1.5-2c0.2-0.8,0-1.8-0.4-2.5C646.8,143.5,643.9,143.2,641.6,143.7c-0.8,0.2-0.5,1.4,0.3,1.2
						c1.6-0.4,3.6-0.2,4.7,1.2c0.4,0.5,0.6,1,0.6,1.6c0,0.5-0.3,1-0.7,1.4c-1,0.9-2.7,1.2-4.1,1.1c-1.3-0.1-3-0.7-3.3-2.1
						c-0.1-0.6,0.1-1.3,0.5-1.8c0.6-0.7,1.4-1.1,2.3-1.3C642.7,144.7,642.4,143.5,641.6,143.7L641.6,143.7z"/>
				</g>
			</g>
			<g>
				<g>
					<path class="st5" d="M623.7,153.9c2.5,1.9,5.4,3.4,8.3,4.5c0.8,0.3,1.1-0.9,0.3-1.2c-2.9-1-5.6-2.5-8-4.3
						c-0.3-0.2-0.7,0-0.9,0.2C623.3,153.3,623.5,153.6,623.7,153.9L623.7,153.9z"/>
				</g>
			</g>
			<g>
				<g>
					<path class="st5" d="M636.3,160.1c3.4,1.6,7,3.1,10.6,4.1c0.8,0.2,1.1-1,0.3-1.2c-3.6-1-7-2.4-10.3-4
						C636.2,158.7,635.6,159.8,636.3,160.1L636.3,160.1z"/>
				</g>
			</g>
			<g>
				<g>
					<path class="st3" d="M622.7,163.7c-4.6,5.7-9.1,11.4-13.7,17.1c-0.5,0.6,0.4,1.5,0.9,0.9c4.6-5.7,9.1-11.4,13.7-17.1
						C624,163.9,623.2,163,622.7,163.7L622.7,163.7z"/>
				</g>
			</g>
			<g>
				<g>
					<path class="st3" d="M619.7,175.7c-4.6,5.7-9.1,11.4-13.7,17.1c-0.5,0.6,0.4,1.5,0.9,0.9c4.6-5.7,9.1-11.4,13.7-17.1
						C621.1,176,620.2,175.1,619.7,175.7L619.7,175.7z"/>
				</g>
			</g>
			<g>
				<g>
					<path class="st3" d="M632.1,169.2c-4.6,5.7-9.1,11.4-13.7,17.1c-0.5,0.6,0.4,1.5,0.9,0.9c4.6-5.7,9.1-11.4,13.7-17.1
						C633.5,169.4,632.6,168.5,632.1,169.2L632.1,169.2z"/>
				</g>
			</g>
			<g>
				<g>
					<path class="st3" d="M629.5,178.6c-1.5,1.9-3,3.7-4.5,5.6c-0.2,0.3-0.3,0.6,0,0.9c0.2,0.2,0.7,0.3,0.9,0c1.5-1.9,3-3.7,4.5-5.6
						c0.2-0.3,0.3-0.6,0-0.9C630.2,178.4,629.7,178.4,629.5,178.6L629.5,178.6z"/>
				</g>
			</g>
			<g>
				<g>
					<path class="st3" d="M610.7,171.2c-1.5,1.9-3,3.7-4.5,5.6c-0.2,0.3-0.3,0.6,0,0.9c0.2,0.2,0.7,0.3,0.9,0c1.5-1.9,3-3.7,4.5-5.6
						c0.2-0.3,0.3-0.6,0-0.9C611.4,171,610.9,171,610.7,171.2L610.7,171.2z"/>
				</g>
			</g>
			<g>
				<g>
					<path class="st3" d="M608,184.2c-1.5,1.9-3,3.7-4.5,5.6c-0.2,0.3-0.3,0.6,0,0.9c0.2,0.2,0.7,0.3,0.9,0c1.5-1.9,3-3.7,4.5-5.6
						c0.2-0.3,0.3-0.6,0-0.9C608.7,184,608.2,183.9,608,184.2L608,184.2z"/>
				</g>
			</g>
			<g>
				<g>
					<path class="st3" d="M614.4,187.2c-1.5,1.9-3,3.7-4.5,5.6c-0.2,0.3-0.3,0.6,0,0.9c0.2,0.2,0.7,0.3,0.9,0c1.5-1.9,3-3.7,4.5-5.6
						c0.2-0.3,0.3-0.6,0-0.9C615.1,187,614.7,186.9,614.4,187.2L614.4,187.2z"/>
				</g>
			</g>
		</g>
		<g class="st9">
			<path class="st10" d="M410.2,33.4c-0.6-1-1.5-2.4-2.6-3.2c-1.7-1.3-5-2.3-6.2,0.2c-0.9,1.9,1.8,4.8,3.2,6.2c1.1,1,3.5,4,5.4,4.2
				s5-3,5.9-4.1c1.2-1.4,2.4-3.1,2.5-4.8c0.1-1.9-1.6-3.3-4.2-2.2C412.5,30.3,410.9,32.2,410.2,33.4"/>
		</g>
		<g class="st9">
			<g>
				<path class="st10" d="M508.2,59.7c-3.1-6.6-12.3-8-19.1-6.1c-8.6,2.5-14.6,11.3-12,17.6c1.2,2.8,2.9,5.3,5.8,7.6
					c3.8,2.9,10,3.8,14.7,2.9c5.2-1,14.4-6.8,13.2-11.4c0-0.2,0,0.2,0,0c-5.5,4.8-9.7,5-15.1,4.2c-6.4-1.1-9-6.1-6.9-10.5
					C492.1,57.4,501,57.4,508.2,59.7"/>
				<g>
					<path class="st10" d="M508.8,59.4c-2.7-5.6-9.4-7.5-15.2-7.2c-6.3,0.4-12.4,3.8-15.7,9.3c-1.4,2.4-2.3,5.2-1.9,7.9
						c0.5,3.1,2.5,6.1,4.7,8.3c4.7,4.6,12.4,6.1,18.6,4.2c3.1-1,6.1-2.7,8.6-4.9c1.1-1,2.1-2.1,2.8-3.4c0.6-1.2,0.6-2.1,0.6-3.4
						c0-0.8-1.3-0.8-1.3,0v0.1c0,0.8,1.3,0.8,1.3,0l0,0c0-0.6-0.7-0.8-1.1-0.4c-2.9,2.5-6.2,4.3-10.1,4.4c-3.2,0-7-0.4-9.4-2.7
						c-2.2-2-2.7-5.1-1.2-7.7c1.5-2.7,4.4-4.2,7.4-4.7c3.7-0.6,7.5,0.1,11,1.1c0.8,0.2,1.1-1,0.3-1.2c-6.3-1.9-15.5-2.7-19.6,3.7
						c-1.7,2.6-1.7,6,0.2,8.5c2.3,3,6.1,3.9,9.7,4.1c4.8,0.3,8.9-1.6,12.5-4.7c-0.4-0.1-0.7-0.3-1.1-0.4l0,0c0,0.8,1.3,0.8,1.3,0
						v-0.1c0-0.8-1.3-0.8-1.3,0c0,1,0.1,1.6-0.3,2.6c-0.5,1.1-1.4,2.1-2.3,2.9c-2,1.9-4.5,3.4-7,4.4c-5.2,2.1-12.1,1.7-16.8-1.5
						c-2.7-1.9-5-4.7-6.2-7.8c-0.9-2.4-0.5-5,0.6-7.3c2.4-5.2,7.7-8.8,13.2-9.8c5.9-1,13.3,0.5,16.2,6.3
						C508,60.7,509.1,60.1,508.8,59.4L508.8,59.4z"/>
				</g>
			</g>
			<g>
				<path class="st10" d="M489,56.3c-5.7,2.3-7.7,5.3-8.4,10.1"/>
				<g>
					<path class="st10" d="M488.8,55.7c-2.4,1-4.7,2.2-6.3,4.3c-1.4,1.8-2.2,4-2.5,6.2c-0.1,0.8,1.1,1.1,1.2,0.3
						c0.3-2,0.9-4,2.2-5.7c1.5-1.9,3.6-3.1,5.8-4C489.9,56.6,489.6,55.4,488.8,55.7L488.8,55.7z"/>
				</g>
			</g>
			<g>
				<path class="st10" d="M486.5,61.7c-0.8,1-1.3,2.3-1.3,3.5"/>
				<g>
					<path class="st10" d="M486.1,61.3c-0.9,1.1-1.5,2.5-1.5,3.9c0,0.3,0.3,0.6,0.6,0.6c0.3,0,0.6-0.3,0.6-0.6c0-0.1,0-0.3,0-0.4
						v-0.1c0,0.1,0,0.1,0,0s0-0.1,0-0.2c0.1-0.3,0.1-0.6,0.3-0.9v-0.1v-0.1c0,0.1,0,0,0-0.1v-0.1c0.1-0.1,0.1-0.3,0.2-0.4
						c0.1-0.1,0.2-0.3,0.2-0.4c0-0.1,0.1-0.1,0.1-0.2c0,0,0-0.1,0.1-0.1c0.1-0.1-0.1,0.1,0,0c0.2-0.3,0.3-0.6,0-0.9
						C486.8,61.1,486.3,61,486.1,61.3L486.1,61.3z"/>
				</g>
			</g>
			<g>
				<path class="st10" d="M483.4,73.7c2.6,4.2,9.1,6.5,15.1,5.2"/>
				<g>
					<path class="st10" d="M482.9,74c3.2,5.1,10.2,6.6,15.8,5.5c0.8-0.2,0.5-1.4-0.3-1.2c-5,1-11.4-0.4-14.4-4.9
						C483.5,72.7,482.5,73.4,482.9,74L482.9,74z"/>
				</g>
			</g>
			<g>
				<path class="st10" d="M489,73.9c1,1.1,2.6,1.5,4.4,1.7"/>
				<g>
					<path class="st10" d="M488.6,74.4c1.3,1.3,3.1,1.7,4.9,1.9c0.3,0,0.6-0.3,0.6-0.6c0-0.4-0.3-0.6-0.6-0.6
						c-0.7-0.1-1.6-0.2-2.3-0.5h-0.1H491h-0.1c0,0-0.1,0-0.1-0.1c-0.2-0.1-0.3-0.2-0.5-0.3c-0.1,0-0.1-0.1-0.2-0.1L490,74
						c0,0-0.1-0.1,0,0c-0.1-0.1-0.3-0.2-0.4-0.4C488.9,72.9,488,73.8,488.6,74.4L488.6,74.4z"/>
				</g>
			</g>
			<g>
				<path class="st10" d="M494.9,56.6c1.3-0.6,3.1-0.5,4.4,0"/>
				<g>
					<path class="st10" d="M495.2,57.1c-0.1,0,0.1-0.1,0.2-0.1s0.2-0.1,0.3-0.1c0.2-0.1,0.4-0.1,0.5-0.1s0.1,0,0,0h0.1
						c0.1,0,0.1,0,0.2,0c0.2,0,0.4,0,0.6,0c0.7,0,1.3,0.1,2,0.4c0.3,0.1,0.7-0.1,0.8-0.4c0.1-0.3-0.1-0.7-0.4-0.8
						c-1.5-0.6-3.4-0.6-4.9,0.1c-0.3,0.1-0.4,0.6-0.2,0.9C494.5,57.2,494.9,57.3,495.2,57.1L495.2,57.1z"/>
				</g>
			</g>
		</g>
		<g class="st9">
			<path class="st10" d="M577.5,139.2c-0.6-0.3-1.6-0.8-2.4-0.9c-1.2-0.2-3.1,0-2.7,1.4c0.3,1,2.6,1.8,3.8,2.1c0.8,0.2,3.1,1,4,0.7
				c1-0.3,1.1-2.4,1.1-3.1c0-0.9-0.1-1.9-0.7-2.7c-0.7-0.9-2-1.1-2.7-0.1C577.4,137.3,577.4,138.5,577.5,139.2"/>
			<g>
				<path class="st10" d="M578.7,137c-1.4-0.7-2.8-1.3-4.4-1.3c-1.6,0-3.2,0.5-4,2c-0.6,1.1-0.5,2.3,0,3.4c0.4,0.7,1,1.2,1.7,1.7
					c1,0.7,2.2,1.1,3.3,1.4c2.2,0.7,5.4,1.9,7.1-0.2c0.9-1.1,1.2-2.5,1.3-4c0.1-1.4-0.1-3-0.9-4.2c-1.2-1.9-3.8-2.9-5.9-1.6
					c-2,1.3-2.3,3.6-1.9,5.7c0.1,0.6,0.7,1.2,1.1,1.5c0.5,0.3,1.3,0.4,1.9,0.3c0.6-0.2,1.2-0.6,1.5-1.1c0.3-0.6,0.4-1.2,0.3-1.9
					v-0.1c0,0.2,0.1,0.4,0.1,0.7c-0.1-0.4-0.1-0.9,0-1.3c0,0.2-0.1,0.4-0.1,0.7c0-0.2,0.1-0.3,0.1-0.5c0.1-0.4-0.1,0.3-0.1,0.3
					s0.3-0.5,0,0c-0.3,0.3,0,0.1,0,0c0.2-0.2-0.4,0.3-0.2,0.2s-0.5,0.1-0.3,0.1c0.1,0,0.2,0,0.3-0.1c-0.2,0-0.4,0.1-0.7,0.1
					c0.1,0,0.3,0,0.4,0c-0.2,0-0.4-0.1-0.7-0.1l0.3,0.1c0,0-0.6-0.3-0.2-0.1c0.2,0.1-0.5-0.4-0.2-0.1l0.1,0.1
					c0.1,0.1,0.1,0.1-0.2-0.3c0,0.1,0.1,0.2,0.2,0.3c0.2,0.3-0.2-0.6-0.1-0.1c0.1,0.3,0.1,0.5,0.2,0.8c0-0.2-0.1-0.4-0.1-0.7
					c0.1,0.6,0.1,1.3,0,1.9c0-0.2,0.1-0.4,0.1-0.7c-0.1,0.4-0.2,0.8-0.3,1.2c0.2-0.7,0.2-0.5,0.1-0.3c-0.2,0.3,0.4-0.5,0.2-0.2
					c-0.3,0.3,0.6-0.4,0.3-0.2c0.7-0.4,0.5-0.2,0.2-0.1c0.2,0,0.4-0.1,0.7-0.1c-0.2,0-0.5,0-0.7,0c0.2,0,0.4,0.1,0.7,0.1
					c-1.2-0.2-2.4-0.6-3.5-0.9c-0.3-0.1-0.6-0.2-0.9-0.3c-0.1,0-0.7-0.3-0.2-0.1c0.4,0.2-0.1-0.1-0.2-0.1c-0.1-0.1-0.3-0.2-0.4-0.2
					c-0.1,0-0.1-0.1-0.2-0.1c-0.2-0.1,0.4,0.4,0.3,0.2c-0.1-0.1-0.1-0.1-0.2-0.2c-0.2-0.2,0.2,0.3,0.2,0.3c-0.1-0.1-0.2-0.4,0,0.1
					s0.1,0.2,0,0c0,0.2,0.1,0.4,0.1,0.7c0-0.1,0-0.2,0-0.4c0,0.2-0.1,0.4-0.1,0.7c0.1-0.2,0-0.1-0.2,0.4c0.1-0.2,0-0.1-0.3,0.3
					c0.2-0.3-0.6,0.4-0.2,0.1c0.3-0.2-0.7,0.2-0.2,0.1c0.1,0,0.3-0.1,0.4-0.1c-0.2,0-0.4,0.1-0.7,0.1c0.4-0.1,0.8,0,1.2,0
					c-0.2,0-0.4-0.1-0.7-0.1c0.4,0.1,0.8,0.2,1.2,0.3c0.1,0,0.4,0.2,0,0s0,0,0.1,0c0.2,0.1,0.4,0.2,0.6,0.3c0.6,0.3,1.2,0.4,1.9,0.3
					c0.6-0.2,1.2-0.6,1.5-1.1C580.2,139.3,580,137.6,578.7,137L578.7,137z"/>
			</g>
		</g>
		<g class="st9">
			<path class="st10" d="M294,40.5c-0.4-0.7-0.9-1.7-1.5-2.2c-1.1-0.9-3.2-1.7-4.2,0c-0.7,1.3,0.9,3.3,1.8,4.3
				c0.7,0.7,2.1,2.8,3.3,3c1.3,0.2,3.6-1.9,4.2-2.5c0.9-0.9,1.8-2,1.9-3.1c0.2-1.3-0.9-2.2-2.7-1.6C295.8,38.5,294.6,39.7,294,40.5"
				/>
			<g>
				<path class="st10" d="M296.2,39.2c-0.8-1.5-1.7-2.9-3.3-3.7c-1.6-0.8-3.6-1.2-5.2-0.1c-0.9,0.6-1.7,1.5-1.9,2.6
					c-0.2,1.1,0,2.2,0.5,3.2c0.6,1.3,1.5,2.3,2.4,3.4c0.9,1,1.8,2.1,3,2.8c1.7,0.9,3.4,0.6,5-0.4c1-0.6,2-1.4,2.8-2.3
					c1.3-1.4,2.8-3.3,2.7-5.3c-0.1-1.3-0.7-2.5-1.8-3.2c-1-0.7-2.2-0.7-3.4-0.6c-2.1,0.3-3.8,2-5,3.6c-0.4,0.5-0.4,1.4-0.3,1.9
					c0.2,0.6,0.6,1.2,1.1,1.5c1.3,0.7,2.6,0.2,3.4-0.9c-0.5,0.7,0,0,0.2-0.2s0.4-0.4,0.6-0.6c0,0,0.2-0.2,0.3-0.2
					c-0.1,0.1-0.2,0.1-0.2,0.2c0.1-0.1,0.2-0.1,0.3-0.2c0.1-0.1,0.2-0.1,0.3-0.2c0.5-0.3,0-0.1,0,0l0.5-0.1c0,0-0.7,0-0.2,0
					s-0.5-0.1-0.2,0s0.1,0.1-0.2-0.1l0.2,0.1c-0.1-0.1-0.2-0.2-0.3-0.2c0.2,0.2,0.1,0.1-0.2-0.2c0.1,0.2-0.1,0.1-0.1-0.3
					c0,0.1,0,0.1,0.1,0.2c0-0.1,0-0.3-0.1-0.4v0.1c0,0.2,0,0.2,0-0.2c0,0-0.1,0.4-0.1,0.3c-0.2,0.5,0.2-0.3,0,0
					c-0.1,0.1-0.1,0.3-0.2,0.4c-0.1,0.1-0.2,0.3-0.3,0.4c-0.2,0.3,0.4-0.4,0,0c-0.2,0.3-0.4,0.5-0.7,0.7c-0.2,0.2-0.4,0.4-0.7,0.6
					c-0.2,0.1-0.3,0.3-0.5,0.4c-0.1,0.1-0.2,0.1-0.2,0.2c0.5-0.5,0.2-0.1,0,0c-0.4,0.3-0.8,0.4-1.1,0.7c0.5-0.3,0.4-0.2,0.2-0.1
					c-0.1,0-0.2,0-0.3,0.1c0.3-0.2,0.6-0.1,0.4-0.1c-0.4,0,0.7,0.2,0.2,0c-0.3-0.1,0.6,0.3,0.2,0.1c-0.1,0-0.1-0.1-0.2-0.1
					c-0.4-0.3,0.4,0.4,0.1,0c-0.1-0.1-0.1-0.1-0.2-0.2c-0.4-0.4-0.7-0.7-1.1-1.1c-0.2-0.3-0.5-0.6-0.7-0.8c-0.1-0.1-0.3-0.3-0.4-0.4
					c-0.1-0.1-0.1-0.2-0.2-0.2c0.5,0.5,0.1,0.1,0,0c-0.3-0.4-0.5-0.8-0.8-1.3c0.3,0.5,0.1,0.4,0.1,0.1c0-0.1,0-0.3-0.1-0.3
					c0.2,0.4,0,0.6,0.1,0.2c0-0.2,0-0.1-0.1,0.4c0.1-0.2,0-0.2-0.1,0.3c0.1-0.3,0.1,0.1-0.1,0.1c0.1-0.1,0.1-0.1,0.2-0.2
					c-0.1,0.1-0.2,0.2-0.3,0.2c0.4-0.3-0.6,0.2-0.1,0.1c0.4-0.1-0.6,0-0.2,0c0.1,0,0.2,0,0.3,0c0.4,0-0.6-0.2-0.1,0
					c0.1,0,0.2,0.1,0.3,0.1c0.5,0.1-0.5-0.3-0.1,0c0.2,0.1,0.4,0.3,0.7,0.4c0,0-0.5-0.4-0.2-0.2c0,0.1,0.4,0.3,0.4,0.4
					c-0.1-0.1-0.1-0.2-0.2-0.2c0.1,0.1,0.1,0.2,0.2,0.3s0.2,0.3,0.3,0.5c0.2,0.3,0.3,0.6,0.5,0.8c0.6,1.1,2.3,1.6,3.4,0.9
					C296.5,41.9,296.9,40.4,296.2,39.2L296.2,39.2z"/>
			</g>
		</g>
		<g class="st9">
			<path class="st10" d="M410.2,33.4c-0.6-1-1.5-2.4-2.6-3.2c-1.7-1.3-5-2.3-6.2,0.2c-0.9,1.9,1.8,4.8,3.2,6.2c1.1,1,3.5,4,5.4,4.2
				s5-3,5.9-4.1c1.2-1.4,2.4-3.1,2.5-4.8c0.1-1.9-1.6-3.3-4.2-2.2C412.5,30.3,410.9,32.2,410.2,33.4"/>
			<g>
				<path class="st10" d="M410.7,33.1c-1.1-1.7-2.2-3.3-4.1-4.2c-1.4-0.7-3.3-1.1-4.7-0.1c-3.5,2.3,0.4,6.6,2.3,8.5
					c1.3,1.2,2.4,2.6,3.9,3.6c1.5,0.9,2.9,0.7,4.3-0.2s2.6-2,3.6-3.3c1.3-1.5,2.9-3.6,2.8-5.8c-0.1-1.9-1.9-3-3.7-2.8
					c-2.4,0.3-4.3,2.3-5.6,4.3c-0.4,0.7,0.6,1.3,1.1,0.6c0.9-1.4,2.2-2.9,3.9-3.5c1.3-0.5,3.1-0.2,3.1,1.5c0,1.8-1.4,3.5-2.5,4.8
					c-0.8,1-1.8,1.9-2.8,2.6c-1,0.7-2,1.3-3.2,0.7c-1.3-0.6-2.3-1.8-3.2-2.8c-0.9-0.9-1.8-1.8-2.6-2.8c-0.8-1-2-2.6-1.4-3.8
					c0.7-1.4,2.6-1.2,3.8-0.7c1.8,0.7,2.8,2.2,3.8,3.8C410.1,34.4,411.2,33.7,410.7,33.1L410.7,33.1z"/>
			</g>
		</g>
		<g class="st9">
			<path class="st10" d="M542.3,77.4c3.5-3.9,5.7-7.1,9.7-11.7c0.6,3.9,0.3,5.1,1,8.8c2.2-1.1,3.2-1.7,4.8-2.5
				c0.3,4.2-0.4,11.5-0.9,13.3c-0.7-2.2-1.5-3.3-1.8-4.4c-0.4-1.2-0.7-2.4-1.1-3.7c-1.4,1.1-2.5,2.2-3.8,3.3c-0.1-3-0.6-5.9-0.6-7.3
				C548.3,74.2,543.5,76.5,542.3,77.4"/>
			<g>
				<path class="st10" d="M542.8,77.9c3.4-3.8,6.3-7.9,9.7-11.7c-0.3-0.1-0.7-0.2-1-0.3c0.4,2.9,0.5,5.9,1,8.8
					c0.1,0.4,0.6,0.5,0.9,0.4c1.6-0.8,3.2-1.7,4.8-2.5c-0.3-0.2-0.6-0.4-0.9-0.5c0.1,2.5,0,5-0.1,7.4c-0.1,1.9-0.2,3.9-0.7,5.8
					c0.4,0,0.8,0,1.2,0c-0.4-1.3-1-2.5-1.6-3.7c-0.6-1.4-0.9-2.9-1.3-4.4c-0.1-0.5-0.7-0.6-1-0.3c-1.3,1.1-2.5,2.2-3.8,3.3
					c0.4,0.1,0.7,0.3,1.1,0.4c-0.1-2.4-0.6-4.9-0.6-7.3c0-0.5-0.6-0.8-0.9-0.5c-2.3,1.6-5,2.5-7.3,4.2c-0.6,0.5,0,1.6,0.6,1.1
					c2.2-1.7,5-2.6,7.3-4.2c-0.3-0.2-0.6-0.4-0.9-0.5c-0.1,2.4,0.4,4.9,0.6,7.3c0,0.6,0.6,0.8,1.1,0.4c1.3-1.1,2.5-2.2,3.8-3.3
					c-0.3-0.1-0.7-0.2-1-0.3c0.4,1.5,0.8,3,1.3,4.4c0.5,1.3,1.1,2.4,1.6,3.7c0.2,0.6,1,0.6,1.2,0c0.5-1.9,0.6-3.9,0.8-5.8
					c0.2-2.6,0.3-5.1,0.2-7.7c0-0.5-0.5-0.8-0.9-0.5c-1.6,0.8-3.2,1.7-4.8,2.5c0.3,0.1,0.6,0.2,0.9,0.4c-0.5-2.9-0.6-5.9-1-8.8
					c-0.1-0.5-0.8-0.6-1-0.3c-3.4,3.8-6.4,7.9-9.7,11.7C541.4,77.6,542.2,78.5,542.8,77.9L542.8,77.9z"/>
			</g>
		</g>
		<g class="st9">
			<path class="st10" d="M328,113.1c-1,0.2-2.1,0.4-3.1,0.5c-0.4-0.4-0.7-0.9-1-1.3c-0.4-0.8-2.8-2.2-2.7,0c0,0.6-0.2,1.3-0.3,1.9
				c-1.1,0.1-2.2,0.3-3.4,0.4c-1.4,0.2-1.2,1.7,0,2c1,0.2,1.9,0.5,2.9,0.8c-0.1,0.7-0.2,1.5-0.3,2.2c-0.4,2.5,1.9,1.3,1.4,1.6
				c0.1-0.1,1.2-1.1,1.3-1.2c0.5-0.4,1-0.9,1.5-1.3c0.8,0.3,1.6,0.6,2.4,1c0.9,0.4,2.3,0.9,2.1-0.9c-0.1-1-1.2-1.6-1.9-2.4
				c0.6-0.5,1.9-1.1,2.5-1.6C331.2,113.3,329.4,112.8,328,113.1z"/>
			<g>
				<path class="st10" d="M327.8,112.5c-1,0.2-2.1,0.4-3.1,0.5c0.2,0.1,0.4,0.1,0.6,0.2c-0.5-0.6-0.9-1.4-1.5-1.9
					c-0.4-0.4-1-0.7-1.6-0.8c-0.6-0.1-1.2,0.1-1.5,0.6c-0.2,0.3-0.2,0.7-0.2,1.1c0,0.6-0.2,1.2-0.3,1.8c0.2-0.2,0.4-0.3,0.6-0.5
					c-1.2,0.2-2.4,0.2-3.6,0.5c-0.7,0.1-1.3,0.7-1.4,1.4c0,0.7,0.4,1.3,0.9,1.6c0.5,0.3,1,0.3,1.5,0.4c0.6,0.2,1.2,0.3,1.9,0.5
					c-0.1-0.3-0.3-0.5-0.4-0.8c-0.1,0.9-0.4,1.9-0.4,2.8c0,0.5,0.1,1,0.4,1.4c0.3,0.3,0.7,0.4,1.1,0.4c0.2,0,0.3,0,0.5,0
					c0.4-0.1-0.1,0-0.3-0.2c-0.1-0.2-0.1-0.4-0.2-0.6c0.1-0.2,0.2-0.3,0.1-0.2c-0.6,0.4,0.2,1.4,0.8,1c0.4-0.3,0.7-0.7,1.1-1
					c0.6-0.6,1.2-1.1,1.8-1.5c-0.2,0.1-0.4,0.1-0.6,0.2c1,0.4,2,0.9,3,1.2c0.6,0.2,1.3,0.2,1.8-0.2c0.6-0.6,0.5-1.6,0.2-2.2
					c-0.4-0.9-1.3-1.4-1.9-2.1c0,0.3-0.1,0.7-0.1,1c1.1-0.8,3.2-1.5,3.6-3C331.1,112.4,328.8,112.3,327.8,112.5
					c-0.8,0.1-0.5,1.3,0.3,1.2c0.4-0.1,0.8-0.1,1.3,0c0.1,0,0.1,0.1,0.1,0c0,0.1-0.3,0.4-0.4,0.5c-0.8,0.7-1.8,1.1-2.6,1.7
					c-0.3,0.2-0.4,0.7-0.1,1c0.5,0.6,2,1.4,1.7,2.4c-0.2,0.5-1.3-0.1-1.6-0.3c-0.4-0.1-0.7-0.3-1.1-0.4c-0.3-0.1-0.7-0.4-1.1-0.4
					c-0.6-0.1-1.2,0.7-1.6,1.1c-0.3,0.3-0.6,0.5-0.9,0.8c-0.1,0.1-0.3,0.3-0.4,0.4s-0.4,0.3-0.2,0.2c0.3,0.3,0.5,0.7,0.8,1
					c0.1-0.1,0.2-0.2,0.2-0.3c0.1-0.2,0-0.5-0.2-0.6c-0.3-0.2-0.5-0.2-0.8-0.1c-0.1,0-0.3,0.1-0.4,0c0,0,0,0-0.1,0
					c-0.1-0.1-0.1-0.3-0.1-0.5c0-0.8,0.2-1.7,0.4-2.5c0.1-0.3-0.1-0.7-0.4-0.8c-0.8-0.2-1.6-0.5-2.4-0.7c-0.3-0.1-1-0.1-1-0.6
					c0-0.4,1-0.4,1.2-0.4c0.8-0.1,1.7-0.2,2.5-0.3c0.3,0,0.5-0.2,0.6-0.5c0.1-0.6,0.3-1.2,0.4-1.7c0-0.2-0.1-0.7,0.1-0.9
					c0.2-0.2,0.9,0.3,1.1,0.5c0.6,0.5,0.8,1.4,1.5,1.9c0.4,0.3,1.2,0,1.7-0.1c0.7-0.1,1.3-0.2,2-0.4
					C329,113.6,328.6,112.4,327.8,112.5z"/>
			</g>
		</g>
		<g class="st9">
			<path class="st10" d="M463.8,52.2c-1,0.2-2.1,0.4-3.1,0.5c-0.4-0.4-0.7-0.9-1-1.3c-0.4-0.8-2.8-2.2-2.7,0c0,0.6-0.2,1.3-0.3,1.9
				c-1.1,0.1-2.2,0.3-3.4,0.4c-1.4,0.2-1.2,1.7,0,2c1,0.2,1.9,0.5,2.9,0.8c-0.1,0.7-0.2,1.5-0.3,2.2c-0.4,2.5,1.8,1.3,1.4,1.6
				c0.1-0.1,1.2-1.1,1.3-1.2c0.5-0.4,1-0.9,1.5-1.3c0.8,0.3,1.6,0.6,2.4,1c0.9,0.4,2.3,0.9,2.1-0.9c-0.1-1-1.2-1.6-1.9-2.4
				c0.6-0.5,1.9-1.1,2.5-1.6C467,52.5,465.2,52,463.8,52.2z"/>
			<g>
				<path class="st10" d="M463.1,49.8c-1,0.2-2.1,0.4-3.1,0.5c0.8,0.2,1.6,0.4,2.4,0.6c-0.1-0.1-0.2-0.2-0.3-0.3
					c0.2,0.2,0.2,0.2,0,0c-0.1-0.2-0.2-0.4-0.4-0.6c-0.2-0.4-0.5-0.7-0.8-1c-0.7-0.6-1.5-1.1-2.4-1.3c-1.4-0.3-2.8,0.2-3.6,1.5
					c-0.4,0.6-0.5,1.3-0.5,2c0,0.1,0,0.5,0,0.2s0,0.1-0.1,0.2c-0.1,0.3-0.2,0.6-0.2,0.9c0.8-0.6,1.6-1.2,2.4-1.8
					c-1.4,0.2-2.8,0.3-4.1,0.5c-1.5,0.3-2.7,1.7-2.8,3.2c0,1.3,0.7,2.6,1.9,3.2c0.6,0.3,1.3,0.5,2,0.6c0.6,0.2,1.2,0.3,1.9,0.5
					c-0.6-1-1.2-2.1-1.7-3.1c-0.3,2-1.1,4.5,0.6,6.1c0.6,0.6,1.5,0.9,2.4,0.9c0.3,0,0.7-0.1,1-0.1c0.5-0.1-0.6,0-0.4,0.1
					c-0.6-0.2-1.2-0.5-1.8-0.7l0,0c-0.2-0.8-0.4-1.6-0.6-2.4l0,0c0.2-0.4,0.4-0.7,0.6-1.1c0,0,0,0-0.1,0c-1,0.8-0.9,2.4-0.2,3.3
					c0.7,0.9,2.2,1.4,3.2,0.6c0.5-0.4,1-0.8,1.5-1.3c0.6-0.6,1.2-1.1,1.8-1.5c-0.8,0.2-1.6,0.4-2.4,0.6c2,0.8,4.7,2.4,6.7,0.5
					c1.2-1.2,1.2-3.1,0.5-4.5c-0.5-1-1.4-1.6-2.2-2.5c-0.2,1.3-0.3,2.6-0.5,3.9c1.6-1.2,3.9-2,4.4-4.2c0.4-1.6-0.5-3-1.9-3.6
					C465.4,49.6,464.2,49.6,463.1,49.8c-1.3,0.2-2.1,1.9-1.7,3.1c0.4,1.4,1.7,2,3.1,1.7c0.5-0.1-0.4,0-0.2,0c0.1,0,0.2,0,0.3,0
					c0.1,0,0.5,0,0.1,0c-0.5-0.1-0.1,0,0,0c0,0-0.6-0.3-0.3-0.1c-0.3-0.2-0.5-0.4-0.6-0.7c-0.3-0.3-0.3-0.6-0.3-1
					c-0.1-0.3,0-0.6,0.2-0.9c0,0,0,0.1-0.1,0.1c0.2-0.3,0.3-0.3,0-0.1c-0.1,0.1-0.1,0.1-0.2,0.1c-0.2,0.2-0.1,0.1,0.2-0.2
					c-0.1,0-0.2,0.1-0.2,0.2c-0.2,0.2-0.5,0.3-0.7,0.4c-0.5,0.3-0.9,0.5-1.3,0.9c-1.3,1-1.7,2.6-0.5,3.9c0.4,0.4,0.8,0.7,1.1,1.1
					c0.1,0.1,0.1,0.1,0.2,0.2c0.1,0.1,0.1,0.1-0.1-0.2c0,0,0.1,0.3,0.2,0.3c-0.1-0.4-0.2-0.4-0.1-0.3c0,0.2,0,0.1,0-0.3
					c0,0.4,0-0.1,0.1-0.2c-0.1,0.2,0,0.2,0.1-0.1c0.1-0.2,0.2-0.4,0.4-0.6c0.2-0.2,0.5-0.4,0.8-0.5c0.6-0.2,0.6,0,0.3-0.1
					c0,0,0.7,0.2,0.4,0c-0.4-0.2-0.8-0.3-1.2-0.4c-0.8-0.3-1.6-0.8-2.4-0.9c-1.3-0.2-2.3,0.8-3.2,1.6c-0.3,0.3-0.6,0.5-0.9,0.8
					c-0.1,0.1-0.3,0.3-0.4,0.4c-0.2,0.2-0.7,0.5,0.1-0.1c1,1.3,2,2.6,3,3.9c0.3-0.3,0.6-0.8,0.7-1.2c0.2-0.8,0-1.8-0.6-2.4
					c-0.7-0.7-1.7-0.9-2.6-0.6c-0.4,0.1,0.8-0.1,0.3,0c-0.5,0,0.6,0.2,0.2,0c0.4,0.2,0.5,0.1,0.8,0.5c-0.2-0.2,0.3,0.5,0.3,0.6
					c0.2,0.5,0.1,0.2,0,0c0.2,0.8,0.1,0.4,0.1,0.2c0-0.5-0.1,0.7,0,0c0-0.2,0.1-0.4,0.1-0.7c0.1-0.4,0.1-0.9,0.2-1.3
					c0.2-1.4-0.3-2.6-1.7-3.1c-0.8-0.2-1.6-0.5-2.4-0.7c-0.1,0-0.5-0.2-0.6-0.1c0.1,0.1,0.2,0.1,0.4,0.2c-0.2-0.1-0.1-0.1,0.1,0.1
					c0.2,0.2,0.2,0.2,0.1,0c0.1,0.1,0.2,0.2,0.3,0.3c0.2,0.4,0.2,0.5,0.2,0.4c-0.1-0.2,0-0.1,0.1,0.4c0,0.4-0.2,0.7-0.4,1.1
					c-0.2,0.2-0.2,0.2-0.1,0.1c-0.1,0.1-0.2,0.2-0.3,0.3c-0.5,0.3-0.4,0.1-0.1,0.1c0.2,0,0.4-0.1,0.7-0.1c-0.4,0-0.1,0,0.1,0
					s0.4,0,0.6-0.1c0.4-0.1,0.9-0.1,1.3-0.2c1-0.1,2.2-0.7,2.4-1.8c0.1-0.8,0.4-1.5,0.4-2.2c0-0.1,0-0.3,0-0.4c0-0.1,0-0.5,0,0
					c0,0.2,0,0.3,0,0.2c0.1-0.2,0-0.1-0.2,0.4c-0.2,0.3-0.4,0.5-0.7,0.6c0,0-0.7,0.2-0.4,0.2c0,0-0.7,0.1-0.4,0.1c0,0-0.7-0.1-0.4,0
					c0.1,0,0.4,0.2,0,0c-0.5-0.2,0,0,0.1,0.1c0.1,0,0.1,0.1,0.2,0.1c0.2,0.1-0.5-0.4-0.2-0.2c0.1,0.1,0.2,0.2,0.3,0.3
					c0,0-0.3-0.5-0.2-0.3c0,0.1,0.1,0.2,0.1,0.2c0.4,0.7,0.9,1.4,1.5,1.9c1,0.8,2.2,0.5,3.3,0.3c0.7-0.1,1.3-0.2,2-0.4
					c1.3-0.2,2.1-1.9,1.7-3.1C465.7,50.2,464.5,49.6,463.1,49.8z"/>
			</g>
		</g>
		<g class="st9">
			<path class="st10" d="M501.5,114.7c-1-0.1-2.1-0.2-3.1-0.4c-0.1-0.5-0.2-1-0.2-1.5c0-0.9-1.4-2.9-2.5-0.8
				c-0.3,0.6-0.9,1.1-1.3,1.7c-1.1-0.2-2.2-0.4-3.3-0.5c-1.4-0.2-2,1.2-1,1.9c0.8,0.5,1.5,1,2.2,1.5c-0.5,0.6-0.9,1.3-1.4,1.9
				c-1.7,2.2,1,1.8,0.5,1.9c0.1,0,1.6-0.7,1.8-0.7c0.7-0.3,1.4-0.5,2.1-0.7c0.6,0.5,1.1,1,1.7,1.6s1.6,1.4,2.4-0.2
				c0.4-0.9-0.3-1.9-0.5-2.7c0.8-0.3,2.4-0.5,3.1-0.8C504.3,115.8,502.9,114.8,501.5,114.7z"/>
			<g>
				<path class="st10" d="M501.5,114.1c-1-0.1-2-0.2-3-0.4c0.1,0.1,0.3,0.3,0.4,0.4c-0.2-0.8-0.1-1.6-0.5-2.4
					c-0.3-0.5-0.7-1-1.2-1.2c-0.6-0.2-1.2,0-1.7,0.4c-0.3,0.3-0.5,0.7-0.7,1c-0.3,0.4-0.7,0.8-1,1.2c0.2-0.1,0.4-0.1,0.6-0.2
					c-1.2-0.2-2.3-0.4-3.5-0.6c-0.8-0.1-1.6,0.2-1.9,0.9c-0.3,0.6-0.3,1.4,0.2,1.9c0.3,0.3,0.8,0.6,1.2,0.8c0.5,0.3,1,0.7,1.4,1
					c-0.1-0.3-0.1-0.6-0.2-0.9c-0.6,0.8-1.2,1.5-1.7,2.3c-0.3,0.5-0.5,1-0.3,1.5c0.2,0.4,0.5,0.6,0.9,0.7c0.1,0,0.3,0.1,0.4,0.1
					s0.2,0,0.2,0c0.2,0-0.1,0-0.2-0.1s-0.2-0.2-0.3-0.4l0,0c0.1-0.2,0.1-0.4,0.2-0.6c0.2-0.1,0.3-0.2,0.2-0.1
					c-0.8,0.3-0.5,1.4,0.3,1.2c0.5-0.1,1-0.4,1.5-0.6c0.1,0,0.2-0.1,0.3-0.1c0.1,0,0.1,0,0,0c0.1-0.1,0.3-0.1,0.4-0.2
					c0.5-0.2,1.1-0.4,1.7-0.6c-0.2-0.1-0.4-0.1-0.6-0.2c0.7,0.6,1.4,1.3,2.1,1.9c0.5,0.4,1.1,0.7,1.8,0.5c0.8-0.2,1.3-1.1,1.4-1.8
					c0.2-1-0.4-1.7-0.6-2.6c-0.1,0.3-0.3,0.5-0.4,0.8c0.8-0.3,1.7-0.4,2.6-0.6c0.8-0.2,1.7-0.5,2.2-1.2
					C504.5,114.9,502.4,114.2,501.5,114.1c-0.8-0.1-0.8,1.2,0,1.3c0.4,0,0.7,0.2,1.1,0.4c0.2,0.1-0.1,0.1,0.1-0.1
					c-0.2,0.2-0.4,0.3-0.6,0.4c-1.1,0.5-2.3,0.6-3.5,0.9c-0.3,0.1-0.5,0.4-0.4,0.8c0.2,0.6,0.5,1.1,0.6,1.7c0.1,0.4-0.1,1.2-0.6,1.2
					c-0.3,0-0.6-0.4-0.8-0.5c-0.6-0.5-1.2-1.1-1.8-1.6c-0.2-0.1-0.4-0.2-0.6-0.2c-0.8,0.3-1.7,0.6-2.5,0.9c-0.4,0.2-0.9,0.4-1.3,0.6
					c0.1,0.4,0.2,0.8,0.3,1.2c0.5-0.2,0.8-0.9,0.2-1.2c-0.1-0.1-0.3-0.1-0.4-0.1c-0.2,0,0.1,0-0.1,0c-0.1,0-0.1,0-0.2,0s0,0-0.1,0
					s0,0,0,0c0,0.2,0.1-0.2,0.2-0.3c0.4-0.9,1.2-1.7,1.8-2.5c0.2-0.3,0-0.7-0.2-0.9c-0.6-0.5-1.2-0.9-1.9-1.3
					c-0.3-0.2-0.7-0.4-0.5-0.7c0.3-0.4,1.1-0.1,1.5-0.1c0.8,0.1,1.6,0.3,2.4,0.4c0.2,0,0.5,0,0.6-0.2c0.4-0.5,0.9-1,1.2-1.5
					c0.2-0.3,0.4-1,0.9-0.8c0.3,0.1,0.5,0.5,0.6,0.8c0.1,0.2,0,0.5,0.1,0.8c0,0.4,0.1,0.8,0.2,1.1c0.1,0.2,0.2,0.4,0.4,0.4
					c1.1,0.2,2.2,0.3,3.3,0.4C502.3,115.4,502.2,114.2,501.5,114.1z"/>
			</g>
		</g>
		<path class="st11" d="M293.7,90c-3,0-3,3.5,0,3.5S296.7,90,293.7,90z"/>
		<path class="st11" d="M362.5,45.3c-3,0-3,3.5,0,3.5S365.5,45.3,362.5,45.3z"/>
		<path class="st11" d="M483.2,95.2c-3,0-3,3.5,0,3.5C486.2,98.6,486.2,95.2,483.2,95.2z"/>
		<path class="st11" d="M509.2,37.7c-3,0-3,3.5,0,3.5S512.2,37.7,509.2,37.7z"/>
		<g class="st9">
			<g>
				<path class="st10" d="M471.2,24.6c0,2.8,0,5.6,0,8.4"/>
				<g>
					<path class="st10" d="M470,24.6c0,2.8,0,5.6,0,8.4c0,0.7,0.6,1.3,1.3,1.3c0.7,0,1.3-0.6,1.3-1.3c0-2.8,0-5.6,0-8.4
						c0-0.7-0.6-1.3-1.3-1.3C470.5,23.4,470,24,470,24.6L470,24.6z"/>
				</g>
			</g>
			<g>
				<path class="st10" d="M465.4,28.7c3.7,0,7.5,0,11.1,0"/>
				<g>
					<path class="st10" d="M465.4,30c3.7,0,7.4,0,11.1,0c1.6,0,1.6-2.5,0-2.5c-3.7,0-7.4,0-11.1,0C463.8,27.5,463.8,30,465.4,30
						L465.4,30z"/>
				</g>
			</g>
			<g>
				<path class="st10" d="M467.7,26.5c2.1,1.5,4.3,3.2,6.4,4.8"/>
				<g>
					<path class="st10" d="M467,27.5c2.1,1.6,4.3,3.2,6.4,4.8c0.5,0.4,1.4,0.1,1.7-0.4c0.3-0.7,0.1-1.3-0.4-1.7
						c-2.1-1.6-4.3-3.2-6.4-4.8c-0.5-0.4-1.4-0.1-1.7,0.4C466.2,26.5,466.5,27.1,467,27.5L467,27.5z"/>
				</g>
			</g>
			<g>
				<path class="st10" d="M467.7,31.4c2.1-1.6,4.4-3.5,6.6-5.1"/>
				<g>
					<path class="st10" d="M468.5,32.3c2.2-1.7,4.4-3.4,6.6-5.1c0.5-0.4,0.5-1.3,0-1.8s-1.2-0.4-1.8,0c-2.2,1.7-4.4,3.4-6.6,5.1
						c-0.5,0.4-0.5,1.3,0,1.8C467.3,32.8,468,32.7,468.5,32.3L468.5,32.3z"/>
				</g>
			</g>
		</g>
		<g class="st12">
			<g>
				<path class="st6" d="M251.7,79.9c0,2.8,0,5.6,0,8.4"/>
				<g>
					<path class="st6" d="M250.5,79.9c0,2.8,0,5.6,0,8.4c0,0.7,0.6,1.3,1.3,1.3s1.3-0.6,1.3-1.3c0-2.8,0-5.6,0-8.4
						c0-0.7-0.6-1.3-1.3-1.3S250.5,79.2,250.5,79.9L250.5,79.9z"/>
				</g>
			</g>
			<g>
				<path class="st6" d="M245.9,83.9c3.7,0,7.5,0,11.1,0"/>
				<g>
					<path class="st6" d="M245.9,85.2c3.7,0,7.4,0,11.1,0c1.6,0,1.6-2.5,0-2.5c-3.7,0-7.4,0-11.1,0
						C244.3,82.7,244.3,85.2,245.9,85.2L245.9,85.2z"/>
				</g>
			</g>
			<g>
				<path class="st6" d="M248.2,81.7c2.1,1.5,4.3,3.2,6.4,4.8"/>
				<g>
					<path class="st6" d="M247.5,82.8c2.1,1.6,4.3,3.2,6.4,4.8c0.5,0.4,1.4,0.1,1.7-0.4c0.3-0.7,0.1-1.3-0.4-1.7
						c-2.1-1.6-4.3-3.2-6.4-4.8c-0.5-0.4-1.4-0.1-1.7,0.4C246.7,81.7,247,82.3,247.5,82.8L247.5,82.8z"/>
				</g>
			</g>
			<g>
				<path class="st6" d="M248.2,86.6c2.1-1.6,4.4-3.5,6.6-5.1"/>
				<g>
					<path class="st6" d="M249.1,87.5c2.2-1.7,4.4-3.4,6.6-5.1c0.5-0.4,0.5-1.3,0-1.8s-1.2-0.4-1.8,0c-2.2,1.7-4.4,3.4-6.6,5.1
						c-0.5,0.4-0.5,1.3,0,1.8S248.5,88,249.1,87.5L249.1,87.5z"/>
				</g>
			</g>
		</g>
	</g>
</g>
</svg>
