<?xml version="1.0" encoding="utf-8"?>
<!-- Generator: Adobe Illustrator 24.1.0, SVG Export Plug-In . SVG Version: 6.00 Build 0)  -->
<svg version="1.1" id="Layer_1" xmlns="http://www.w3.org/2000/svg" xmlns:xlink="http://www.w3.org/1999/xlink" x="0px" y="0px"
	 viewBox="0 0 96.5 97.3" style="enable-background:new 0 0 96.5 97.3;" xml:space="preserve">
<style type="text/css">
	.st0{fill:#2EDED1;}
	.st1{opacity:0.26;fill:url(#SVGID_1_);enable-background:new    ;}
	.st2{fill:url(#SVGID_2_);}
	.st3{opacity:0.26;}
	.st4{fill:url(#SVGID_3_);}
	.st5{fill:url(#SVGID_4_);}
	.st6{opacity:0.46;fill:url(#SVGID_5_);enable-background:new    ;}
	.st7{fill:url(#SVGID_6_);}
	.st8{opacity:0.26;fill:url(#SVGID_7_);enable-background:new    ;}
	.st9{fill:#27A0D6;}
	.st10{fill:url(#SVGID_8_);}
	.st11{opacity:0.3;fill:url(#SVGID_9_);enable-background:new    ;}
	.st12{opacity:0.3;fill:url(#SVGID_10_);enable-background:new    ;}
</style>
<g>
	<path class="st0" d="M95.4,43.9c-1.1,5.7-9.7,16.2-13,19.5c-3.3,3.3-11.2,10.4-16.5,14.8c-5.3,4.4-14.6,17.9-14.6,17.9
		s-1.5,0.9-3.1,0.9h0h0c-1.6-0.1-3.1-0.9-3.1-0.9s-9.3-13.4-14.6-17.9c-5.3-4.4-13.2-11.6-16.5-14.8c-3.3-3.3-11.8-13.9-13-19.5
		C0,38.3,0.6,33.1,0.6,33.1s1.8,13.3,11.3,23.8l10.9,9.9c0,0,10.4,8.7,15.2,14.2l2.8,3.8l2.9,4l1.3,2.2c0,0,0.6,0.9,3.1,1.1h0.1
		c2.6-0.2,3.1-1.1,3.1-1.1l1.3-2.2l2.9-4l2.8-3.8c4.8-5.5,15.2-14.2,15.2-14.2l10.9-9.9c9.6-10.4,11.3-23.8,11.3-23.8
		S96.5,38.3,95.4,43.9z"/>
	
		<radialGradient id="SVGID_1_" cx="48.25" cy="34.9213" r="40.6764" gradientTransform="matrix(1 0 0 -1 0 100)" gradientUnits="userSpaceOnUse">
		<stop  offset="0" style="stop-color:#49BEB7"/>
		<stop  offset="0.1077" style="stop-color:#58C3BD"/>
		<stop  offset="0.3159" style="stop-color:#80D2CD"/>
		<stop  offset="0.6008" style="stop-color:#C1E9E6"/>
		<stop  offset="0.8538" style="stop-color:#FFFFFF"/>
	</radialGradient>
	<path class="st1" d="M95.4,43.9c-1.1,5.7-9.7,16.2-13,19.5c-3.3,3.3-11.2,10.4-16.5,14.8c-5.3,4.4-14.6,17.9-14.6,17.9
		s-1.5,0.9-3.1,0.9h0h0c-1.6-0.1-3.1-0.9-3.1-0.9s-9.3-13.4-14.6-17.9c-5.3-4.4-13.2-11.6-16.5-14.8c-3.3-3.3-11.8-13.9-13-19.5
		C0,38.3,0.6,33.1,0.6,33.1s1.8,13.3,11.3,23.8l10.9,9.9c0,0,10.4,8.7,15.2,14.2l2.8,3.8l2.9,4l1.3,2.2c0,0,0.6,0.9,3.1,1.1h0.1
		c2.6-0.2,3.1-1.1,3.1-1.1l1.3-2.2l2.9-4l2.8-3.8c4.8-5.5,15.2-14.2,15.2-14.2l10.9-9.9c9.6-10.4,11.3-23.8,11.3-23.8
		S96.5,38.3,95.4,43.9z"/>
	<g>
		
			<linearGradient id="SVGID_2_" gradientUnits="userSpaceOnUse" x1="53.6051" y1="77.6884" x2="72.6076" y2="44.7751" gradientTransform="matrix(1 0 0 -1 0 100)">
			<stop  offset="0" style="stop-color:#49BEB7"/>
			<stop  offset="0.8538" style="stop-color:#2EDED1"/>
		</linearGradient>
		<path class="st2" d="M60.2,22.2l7.2-0.1c2.8,0,5.2,0.8,7.2,2.4c2.3,2,3.5,4.5,3.6,7.6c0,3.5-1.1,6.3-3.2,8.2c-2.1,2-4.8,3-8,3
			c-1.9,0-2.9-0.6-2.9-1.7c0-0.2,0.1-0.3,0.1-0.3s0.3,0.1,0.8,0.2c0.5,0.1,0.9,0.2,1.3,0.2c2.3,0,4.1-0.8,5.4-2.5
			c1.2-1.7,1.8-3.7,1.8-6.1c0-3.7-1.2-6.3-3.5-7.9c-1.3-0.9-2.9-1.3-4.6-1.3c-1.7,0-2.7,0.2-2.9,0.5c-0.2,0.5-0.3,1.8-0.3,4.2v23.7
			c0,2.1,0.1,3.5,0.3,4.1c0.1,0.4,1.1,0.7,2.9,0.9c0.3,0,0.5,0,0.6,0c0.2,0.3,0.3,0.6,0.2,0.9c-0.1,0.4-0.1,0.6-0.2,0.7
			c-3.5-0.2-5.5-0.3-6-0.3c-0.5,0-2.5,0.1-5.9,0.3c-0.2-0.2-0.3-0.5-0.2-0.9c0.1-0.4,0.1-0.6,0.2-0.7c1,0,1.8-0.1,2.5-0.3
			c0.7-0.2,1-0.4,1.1-0.6c0.2-0.6,0.3-2,0.3-4.1V28.6c0-2.1-0.1-3.5-0.3-4.1c-0.1-0.4-1.1-0.7-2.9-0.9c-0.3,0-0.5,0-0.6,0
			c-0.2-0.3-0.3-0.6-0.2-0.9c0.1-0.4,0.1-0.6,0.2-0.7C57.7,22.1,59.7,22.2,60.2,22.2z"/>
	</g>
	<g class="st3">
		
			<linearGradient id="SVGID_3_" gradientUnits="userSpaceOnUse" x1="54.3734" y1="59.9551" x2="78.5844" y2="59.9551" gradientTransform="matrix(1 0 0 -1 0 100)">
			<stop  offset="0" style="stop-color:#49BEB7"/>
			<stop  offset="0.8538" style="stop-color:#FFFFFF"/>
		</linearGradient>
		<path class="st4" d="M60.6,21.8l7.2-0.1c2.8,0,5.2,0.8,7.2,2.4c2.3,2,3.5,4.5,3.6,7.6c0,3.5-1.1,6.3-3.2,8.2c-2.1,2-4.8,3-8,3
			c-1.9,0-2.9-0.6-2.9-1.7c0-0.2,0.1-0.3,0.1-0.3c0.1,0,0.3,0.1,0.8,0.2c0.5,0.1,0.9,0.2,1.3,0.2c2.3,0,4.1-0.8,5.4-2.5
			c1.2-1.7,1.8-3.7,1.8-6.1c0-3.7-1.2-6.3-3.5-7.9c-1.3-0.9-2.9-1.3-4.6-1.3c-1.7,0-2.7,0.2-2.9,0.5c-0.2,0.5-0.3,1.8-0.3,4.2v23.7
			c0,2.1,0.1,3.5,0.3,4.1c0.1,0.4,1.1,0.7,2.9,0.9c0.3,0,0.5,0,0.6,0c0.2,0.3,0.3,0.6,0.2,0.9c-0.1,0.4-0.1,0.6-0.2,0.7
			c-3.5-0.2-5.5-0.3-6-0.3s-2.5,0.1-5.9,0.3c-0.2-0.2-0.3-0.5-0.2-0.9c0.1-0.4,0.1-0.6,0.2-0.7c1,0,1.8-0.1,2.5-0.3
			c0.7-0.2,1-0.4,1.1-0.6c0.2-0.6,0.3-2,0.3-4.1V28.2c0-2.1-0.1-3.5-0.3-4.1c-0.1-0.4-1.1-0.7-2.9-0.9c-0.3,0-0.5,0-0.6,0
			c-0.2-0.3-0.3-0.6-0.2-0.9c0.1-0.4,0.1-0.6,0.2-0.7C58.1,21.7,60.1,21.8,60.6,21.8z"/>
	</g>
	
		<linearGradient id="SVGID_4_" gradientUnits="userSpaceOnUse" x1="0.5206" y1="85.1051" x2="44.7563" y2="85.1051" gradientTransform="matrix(1 0 0 -1 0 100)">
		<stop  offset="0" style="stop-color:#49BEB7"/>
		<stop  offset="0.8538" style="stop-color:#2EDED1"/>
	</linearGradient>
	<path class="st5" d="M44.8,8.8c-5.9-3.8-13.5-5.5-21.2-4C10.8,7.3,1.7,17.5,0.6,29.2C-0.6,15.8,8.2,3.6,21.3,1.1
		C30.2-0.7,38.9,2.6,44.8,8.8z"/>
	
		<linearGradient id="SVGID_5_" gradientUnits="userSpaceOnUse" x1="0.5206" y1="85.1051" x2="44.7563" y2="85.1051" gradientTransform="matrix(1 0 0 -1 0 100)">
		<stop  offset="0" style="stop-color:#2EDED1"/>
		<stop  offset="9.590545e-02" style="stop-color:#3DE0D4"/>
		<stop  offset="0.2815" style="stop-color:#65E7DD"/>
		<stop  offset="0.5381" style="stop-color:#A6F1EB"/>
		<stop  offset="0.8538" style="stop-color:#FFFFFF"/>
	</linearGradient>
	<path class="st6" d="M44.8,8.8c-5.9-3.8-13.5-5.5-21.2-4C10.8,7.3,1.7,17.5,0.6,29.2C-0.6,15.8,8.2,3.6,21.3,1.1
		C30.2-0.7,38.9,2.6,44.8,8.8z"/>
	
		<linearGradient id="SVGID_6_" gradientUnits="userSpaceOnUse" x1="25.875" y1="72.7581" x2="15.5453" y2="83.0877" gradientTransform="matrix(1 0 0 -1 0 100)">
		<stop  offset="0" style="stop-color:#49BEB7"/>
		<stop  offset="0.8538" style="stop-color:#2EDED1"/>
	</linearGradient>
	<circle class="st7" cx="20.7" cy="22.1" r="7.3"/>
	
		<linearGradient id="SVGID_7_" gradientUnits="userSpaceOnUse" x1="78.0777" y1="265.4091" x2="91.7976" y2="265.4091" gradientTransform="matrix(-0.4342 -0.925 -0.9401 0.4413 307.4657 -16.293)">
		<stop  offset="0" style="stop-color:#49BEB7"/>
		<stop  offset="0.1077" style="stop-color:#58C3BD"/>
		<stop  offset="0.3159" style="stop-color:#80D2CD"/>
		<stop  offset="0.6008" style="stop-color:#C1E9E6"/>
		<stop  offset="0.8538" style="stop-color:#FFFFFF"/>
	</linearGradient>
	<path class="st8" d="M18.1,15.9c3.6-1.7,7.8-0.2,9.4,3.3c1.6,3.5,0.1,7.7-3.5,9.4c-3.6,1.7-7.8,0.2-9.4-3.3
		C13,21.8,14.5,17.6,18.1,15.9z"/>
	<path class="st9" d="M96,26.2c0,0-1.6-16.1-20.5-19.5c0,0-14.6-2.4-24.9,8.8s-13,19-13,19s-5,9.3-1.9,20.6s15.2,23.8,15.2,23.8
		s-13.3-6.7-21-19S22,34.6,22,34.6c-0.1,0.3,6.7-0.3,10.6-5.8C36,24.1,43.6,13.5,48.8,9C57.9,1.3,62.5,0.3,70,0.3
		C76.9,0.2,86.2,3.4,90.7,9S96,26.2,96,26.2z"/>
	
		<linearGradient id="SVGID_8_" gradientUnits="userSpaceOnUse" x1="-1.2813" y1="66.1962" x2="57.4387" y2="32.2942" gradientTransform="matrix(1 0 0 -1 0 100)">
		<stop  offset="0" style="stop-color:#89CDF6"/>
		<stop  offset="0.1492" style="stop-color:#70BDEE"/>
		<stop  offset="0.4635" style="stop-color:#3295D9"/>
		<stop  offset="0.6769" style="stop-color:#0478C9"/>
	</linearGradient>
	<path class="st10" d="M6.3,20.6c0,0,0.1,0.2,0.3,0.6C7.9,24,13.9,35.9,22,34.6c0,0,0.9,14.6,7.9,25.3s21,19,21,19
		s-11.6-2.8-18.4-8.4S17.8,56.1,14.7,49.6S6.3,29.8,6.3,20.6z"/>
	
		<radialGradient id="SVGID_9_" cx="59.0231" cy="60.436" r="38.1691" gradientTransform="matrix(1 0 0 -1 0 100)" gradientUnits="userSpaceOnUse">
		<stop  offset="0.1897" style="stop-color:#27A0D6"/>
		<stop  offset="0.411" style="stop-color:#29A1D6"/>
		<stop  offset="0.4907" style="stop-color:#30A4D8"/>
		<stop  offset="0.5476" style="stop-color:#3BA9DA"/>
		<stop  offset="0.5935" style="stop-color:#4CB0DD"/>
		<stop  offset="0.6329" style="stop-color:#62BAE1"/>
		<stop  offset="0.6677" style="stop-color:#7EC6E6"/>
		<stop  offset="0.6993" style="stop-color:#9ED4ED"/>
		<stop  offset="0.7283" style="stop-color:#C4E5F4"/>
		<stop  offset="0.7541" style="stop-color:#EDF7FC"/>
		<stop  offset="0.7641" style="stop-color:#FFFFFF"/>
	</radialGradient>
	<path class="st11" d="M96,26.2c0,0-1.6-16.1-20.5-19.5c0,0-14.6-2.4-24.9,8.8s-13,19-13,19s-5,9.3-1.9,20.6s15.2,23.8,15.2,23.8
		s-13.3-6.7-21-19S22,34.6,22,34.6c-0.1,0.3,6.7-0.3,10.6-5.8C36,24.1,43.6,13.5,48.8,9C57.9,1.3,62.5,0.3,70,0.3
		C76.9,0.2,86.2,3.4,90.7,9S96,26.2,96,26.2z"/>
	
		<linearGradient id="SVGID_10_" gradientUnits="userSpaceOnUse" x1="-1.2813" y1="66.1962" x2="57.4387" y2="32.2942" gradientTransform="matrix(1 0 0 -1 0 100)">
		<stop  offset="0" style="stop-color:#FFFFFF"/>
		<stop  offset="8.476968e-02" style="stop-color:#E6F2FA"/>
		<stop  offset="0.2648" style="stop-color:#A7D0EC"/>
		<stop  offset="0.5233" style="stop-color:#439AD7"/>
		<stop  offset="0.6769" style="stop-color:#0478C9"/>
	</linearGradient>
	<path class="st12" d="M6.3,20.6c0,0,0.1,0.2,0.3,0.6C7.9,24,13.9,35.9,22,34.6c0,0,0.9,14.6,7.9,25.3s21,19,21,19
		s-11.6-2.8-18.4-8.4S17.8,56.1,14.7,49.6S6.3,29.8,6.3,20.6z"/>
</g>
</svg>
