<?xml version="1.0" encoding="utf-8"?>
<!-- Generator: Adobe Illustrator 24.1.0, SVG Export Plug-In . SVG Version: 6.00 Build 0)  -->
<svg version="1.1" id="Layer_1" xmlns="http://www.w3.org/2000/svg" xmlns:xlink="http://www.w3.org/1999/xlink" x="0px" y="0px"
	 viewBox="0 0 500 500" style="enable-background:new 0 0 500 500;" xml:space="preserve">
<style type="text/css">
	.st0{fill:#5F250C;}
	.st1{fill:#D6303C;}
	.st2{fill:#FFA969;}
	.st3{fill:#FF8A54;}
	.st4{fill:#FFFFFF;}
	.st5{fill:#FFFFFF;stroke:#FF8A54;stroke-width:2.0951;stroke-linecap:round;stroke-linejoin:round;stroke-miterlimit:10;}
	.st6{fill:#4B6360;}
	.st7{fill:#211F1F;}
	.st8{fill:#C96335;}
	.st9{fill:#231F20;}
	.st10{fill:#511B08;}
</style>
<path class="st0" d="M409,238.9C412.8,140,388.6-0.6,262,2C140.4,4.5,102.4,103.4,99.6,209.6c-3.9,148.6,0,240.7,0,240.7l309.5-3.2
	C409,447.1,403.5,383.3,409,238.9z"/>
<path class="st1" d="M457.5,429c-3.2-12.2-25-29.2-35.8-35.7c-23.8-14.5-78.5-32-106.3-33.9c-15.4-1-37.5,1-60.4,4.7
	c-22.9-3.7-44.9-5.7-60.4-4.7c-27.8,1.9-82.5,19.4-106.3,33.9c-10.8,6.6-32.5,23.5-35.8,35.7c-6.2,23.6-6.5,51.1-6.5,70h207.5h2.9
	H464C464,484.6,463.7,452.6,457.5,429z"/>
<path class="st2" d="M203.5,304.1l-4.1,55l-9.5,27.7c0,0,12.9,56.2,67,87.2c0,0,87.8-42.9,88.1-66.2c0.1-7.7-14-13-21-31.9
	c-7.5-20.1-16.5-60.7-8.7-55.2c8.1,5.6-20.1-27.3-20.1-27.3L203.5,304.1z"/>
<g>
	<path class="st3" d="M213.6,326.8c0,21.3,25.2,74.7,46.8,95.6c33.6,32.6,53.2,11,53.2,11s0-97.7,0-106.6c0-21.3-24.2-38.5-54-38.5
		C229.8,288.3,213.6,305.6,213.6,326.8z"/>
</g>
<path class="st4" d="M312.6,326.3l32.7,36.5l-14.8,10.8c0,0,26.7,16.7,27.4,26.2c3.9,50.6-100.9,74.2-100.9,74.2
	s49.2-46.5,54.2-70.1c3.7-17.3,4.4-43.9,0.6-61.1C310.8,338.2,312.6,326.3,312.6,326.3z"/>
<path class="st4" d="M201.4,326.3l-32.7,36.5l14.8,10.8c0,0-26.7,16.7-27.4,26.2c-3.9,50.6,100.9,74.2,100.9,74.2
	s-49.2-46.5-54.2-70.1c-3.7-17.3-4.4-43.9-0.6-61.1C203.2,338.2,201.4,326.3,201.4,326.3z"/>
<g>
	<g>
		<path class="st2" d="M380.6,238.3c-5.8,20.8-17.6,28.4-28.2,23.4c-10.6-5-16-20.7-10.2-41.5c5.8-20.8,14.4-41.7,31.1-33.8
			C388.8,193.6,386.4,217.5,380.6,238.3z"/>
	</g>
	<g>
		<path class="st3" d="M368.3,235.2c-3,10.9-9.2,14.8-14.7,12.2c-5.6-2.6,2.2-43.5,10.9-39.4C372.6,211.8,371.4,224.3,368.3,235.2z"
			/>
	</g>
</g>
<path class="st2" d="M361.8,164.1c0.4,7.2-0.3,27-0.1,34c1,41.2,4.1,68.4-15.5,100.8c-18.5,30.6-64,57.9-86.7,59
	c-19.9,1-65-25.5-87.3-59c-19.3-29-15.9-50.8-19-89.3c-0.6-7.8-3.4-33-2.4-40.7c2.6-20.7,8.4-42.6,12.2-58.7
	c12.8-53.3,37.2-77.5,85.6-79.9c42.2-2.1,71.1,18,90.6,58.6C348.9,109.1,360.3,134.2,361.8,164.1z"/>
<g>
	<path class="st5" d="M302.7,278.1c0,11.4-20.7,22.8-41.7,22.8c-19.3,0-41.7-11.4-41.7-22.8H302.7z"/>
</g>
<g>
	<path class="st3" d="M263.5,320.2c8.9-0.9,13.1-4.5,12.1-9.3c-0.4-2.1-9.2,1.2-16.2,1.2c-10.2,0.1-17.2-4-16.3,0.2
		C244.6,319.4,253.2,321.2,263.5,320.2z"/>
</g>
<g>
	<path class="st3" d="M167.9,180.4c4-8.3,16.6-11.4,25-11.6c12.4-0.2,34.3-4.4,43,7c7.6,10,3.5,22.9,0.2,27.4
		c-11.1,15-42.9,6.6-53.5,8.2C178.9,212,157.1,202.8,167.9,180.4z"/>
</g>
<g>
	<path class="st4" d="M224.4,200c-16.6-14.1-46.4-0.8-49.9,8.1c-1.5,3.8,8.8,22.4,34.2,15.5c10.1-2.8,9-6.5,19.6-10.1
		C233.7,211.6,231.4,205.9,224.4,200z"/>
</g>
<g>
	<path class="st2" d="M222.3,201.1c5.3,2.5,7.3,5.5,8,8.6c4.2-4.3,0.9-19.1-6.6-24.4c-16.6-11.7-42.1-0.1-46.8,6.6
		c-2.6,3.7-4.9,13.1-2.9,16.2C182.5,201.1,200.7,190.7,222.3,201.1z"/>
</g>
<g>
	<path class="st6" d="M213.6,208.1c0,6.4-5.4,11.5-12,11.5c-6.6,0-12-5.2-12-11.5c0-6.4,5.4-11.5,12-11.5
		C208.3,196.6,213.6,201.8,213.6,208.1z"/>
</g>
<g>
	<path class="st7" d="M206.8,208.1c0,2.8-2.3,5-5.2,5c-2.9,0-5.2-2.2-5.2-5c0-2.8,2.3-5,5.2-5C204.5,203.1,206.8,205.4,206.8,208.1z
		"/>
</g>
<g>
	<path class="st8" d="M230.4,212.1c0.6,0,1.1-0.2,1.6-0.6c1-0.9,1.1-2.4,0.2-3.4c-25.4-28.6-59.9-2.9-60.2-2.6
		c-1,0.8-1.3,2.3-0.5,3.4c0.8,1.1,2.3,1.3,3.4,0.5c1.3-1,31.3-23.2,53.7,2C229.1,211.8,229.7,212.1,230.4,212.1z"/>
</g>
<path class="st9" d="M204,170.3c18.9,0,30.5,7.3,30.2,5.8c-1.8-8.6-12.1-15-30.2-15c-12.4,0-34.6,7.8-34.6,20.1
	C169.4,182.7,181.7,170.3,204,170.3z"/>
<path class="st3" d="M244.1,236.5c0,3.7,1.6,11.5,4,12.9c7.9,4.6,23.8,2.7,23.8-6.2c0-6.8-0.1-20.1,0-30.5
	c0.1-8.7,2.8-24.4,8.7-30.7c12.2-13,33.1-13,33.1-13s-6.4,8.8-9.3,11c-4,3-14.9,4.4-18.4,8c-15.9,15.9-3.3,59.7-6.2,62.4
	c-7.4,7.1-24.7,10.8-37.8,2.9C232.2,247.2,244.1,232.1,244.1,236.5z"/>
<path class="st4" d="M204.1,205.6c0,1.2,1,2.1,2.1,2.1c1.2,0,2.1-1,2.1-2.1c0-1.2-1-2.1-2.1-2.1
	C205.1,203.5,204.1,204.4,204.1,205.6z"/>
<g>
	<path class="st3" d="M350.3,180.4c-4-8.3-16.6-11.4-25-11.6c-12.4-0.2-34.3-4.4-43,7c-7.6,10-3.5,22.9-0.2,27.4
		c11.1,15,42.9,6.6,53.5,8.2C339.3,212,361.2,202.8,350.3,180.4z"/>
</g>
<g>
	<path class="st4" d="M293.8,200c16.6-14.1,46.4-0.8,49.9,8.1c1.5,3.8-8.8,22.4-34.2,15.5c-10.1-2.8-9-6.5-19.6-10.1
		C284.5,211.6,286.8,205.9,293.8,200z"/>
</g>
<g>
	<path class="st2" d="M295.9,201.1c-5.3,2.5-7.3,5.5-8,8.6c-4.2-4.3-0.9-19.1,6.6-24.4c16.6-11.7,42.1-0.1,46.8,6.6
		c2.6,3.7,4.9,13.1,2.9,16.2C335.7,201.1,317.5,190.7,295.9,201.1z"/>
</g>
<g>
	<path class="st6" d="M304.4,208.1c0,6.4,5.4,11.5,12,11.5c6.6,0,12-5.2,12-11.5c0-6.4-5.4-11.5-12-11.5
		C309.8,196.6,304.4,201.8,304.4,208.1z"/>
</g>
<g>
	<path class="st7" d="M311.2,208.1c0,2.8,2.3,5,5.2,5c2.9,0,5.2-2.2,5.2-5c0-2.8-2.3-5-5.2-5C313.5,203.1,311.2,205.4,311.2,208.1z"
		/>
</g>
<g>
	<path class="st8" d="M287.8,212.1c-0.6,0-1.1-0.2-1.6-0.6c-1-0.9-1.1-2.4-0.2-3.4c25.4-28.6,59.9-2.9,60.2-2.6
		c1,0.8,1.3,2.3,0.5,3.4c-0.8,1.1-2.3,1.3-3.4,0.5c-1.3-1-31.3-23.2-53.7,2C289.2,211.8,288.5,212.1,287.8,212.1z"/>
</g>
<path class="st9" d="M314.2,170.3c-18.9,0-30.5,7.3-30.2,5.8c1.8-8.6,12.1-15,30.2-15c12.4,0,34.6,7.8,34.6,20.1
	C348.8,182.7,336.5,170.3,314.2,170.3z"/>
<path class="st4" d="M323.8,205.6c0,1.2-1,2.1-2.1,2.1c-1.2,0-2.1-1-2.1-2.1c0-1.2,0.9-2.1,2.1-2.1
	C322.8,203.5,323.8,204.4,323.8,205.6z"/>
<path class="st10" d="M366,207.7c0.7,5.6,1.7,8.4,2.8,8.8c7.5,3.3,20-106.1-15.5-157c-22-31.4-73.1-45.5-100.6-45.5
	c-21.3,0-82.4,16.9-101.2,57.7c-45,98.2,4.2,232.7,15,229.4c5.8-1.8-28.8-49,10.6-109.4c35.7-54.7,91.5-61.1,133.4-80.5
	C310.4,111.4,359.8,159.1,366,207.7z"/>
<path class="st2" d="M275.7,139c6-10.5-3.2-13,10.2-17.9s26.7-14.7,27.4-35.4c0.7-20.7-3.5-29.8-3.5-29.8s8.1,18.9,12.2,38.1
	c3.3,15.5,2.3,31.2,5.7,36.3c7.7,11.2-33.3,13-33.3,13C288.3,145.7,275.7,139,275.7,139z"/>
<path class="st0" d="M345.5,111.3c-4.2,17.3-1.4,39.3-11.2,27.1c-9.8-12.2-15.9-13.1-16.8-34.6c-0.9-21.5-9.8-51-9.8-51
	s13.6-15,20.6-10.3c7,4.7,19.2,16.8,22.5,23.9c3.3,7,6.1,31.8,3.3,35.6C351.1,105.7,345.5,111.3,345.5,111.3z"/>
</svg>
