<?xml version="1.0" encoding="utf-8"?>
<!-- Generator: Adobe Illustrator 24.1.0, SVG Export Plug-In . SVG Version: 6.00 Build 0)  -->
<svg version="1.1" id="Layer_1" xmlns="http://www.w3.org/2000/svg" xmlns:xlink="http://www.w3.org/1999/xlink" x="0px" y="0px"
	 viewBox="0 0 500 500" style="enable-background:new 0 0 500 500;" xml:space="preserve">
<style type="text/css">
	.st0{fill:#F9BEA0;}
	.st1{opacity:0.1;}
	.st2{fill:#FFFFFF;}
	.st3{fill:#381402;}
	.st4{fill:#EDEAEF;}
	.st5{fill:#D05945;}
	.st6{opacity:0.2;}
	.st7{fill:#0099CC;}
	.st8{fill:#EAB096;}
	.st9{opacity:0.2;fill:#190902;}
	.st10{fill:#077F9B;}
	.st11{opacity:0.2;fill:#441A02;}
	.st12{fill:#EAAE94;}
	.st13{fill:#E0A58C;}
	.st14{fill:#190902;}
	.st15{fill:#CE5259;}
	.st16{fill:#E16567;}
	.st17{fill:#1BBDE2;}
	.st18{opacity:0.2;fill:#FFFFFF;}
	.st19{fill:#441A02;}
	.st20{fill:#F4F4F4;}
</style>
<g>
	<g>
		<g>
			<path class="st0" d="M185.5,492.3c-1.4-8.9-2.7-17.8-3.9-26.8c-0.7-4.9-1.2-8.5-1.4-10.2v-0.1c-0.1-0.7-0.2-1-0.2-1h70.5
				c-0.4,8.3-0.7,16.6-1.1,24.9"/>
		</g>
		<g>
			<path class="st0" d="M257.3,479.1c-0.4-8.3-0.7-16.6-1.1-24.9h68.9c0,0.3,0.1,0.7,0.1,1.1c0,0,0,0,0,0c0.1,2.6,0.2,5.4,0.2,8.3
				c0,0,0,0,0,0.1c-0.1,0.6-0.2,1.2-0.2,1.7c-1.2,9-2.6,17.9-4,26.8"/>
		</g>
	</g>
	<g>
		<g>
			<path class="st1" d="M180,458c0-1,0-2,0-2.9c0-3.2,0.1-6.2,0.2-9.1v-0.1c-0.1-0.7-0.2-1-0.2-1h70.5"/>
			<path class="st1" d="M254.9,444.9h67.6c0.3,4.9,0.6,10.3,0.6,16.2v0.9"/>
		</g>
		<path class="st2" d="M182,494c0-0.5-0.1-0.9-0.1-1.4c-0.1-1-0.2-2-0.3-3c-0.1-1.5-0.3-3-0.4-4.5c-0.1-1.5-0.2-2.9-0.3-4.4
			c-0.1-1.6-0.2-3.1-0.3-4.7c-0.2-3-0.3-6-0.4-9v-0.1c0-1.5-0.1-3-0.1-4.4c0-1.5,0-3-0.1-4.4c0-1,0-2,0-2.9c0-3.2,0-6.2,0.2-9.1
			v-0.1c0-0.4,0-0.7,0-1c0-0.9,0.1-1.8,0.1-2.7c0.1-1.5,0.2-3,0.3-4.4c0.3-4,0.7-7.7,1.1-11.1c0-0.3,0.1-0.7,0.1-1
			c0.2-1.1,0.3-2.2,0.5-3.3c0.5-3,1-5.7,1.5-8.1c0.4-1.8,0.8-3.5,1.3-5c0.2-0.8,0.4-1.5,0.7-2.2c0.2-0.6,0.4-1.2,0.5-1.8
			c0,0,0,0,0,0c0.6-1.7,1.1-3.2,1.6-4.3c0.1-0.3,0.2-0.6,0.3-0.8c0.1-0.2,0.1-0.3,0.2-0.4c0-0.1,0.1-0.2,0.1-0.3l-0.1-7
			c0.4-1.1,0.8-2.1,1.1-3.2c0.3-1,0.6-1.9,0.9-3c0.9-3,1.8-6.2,2.5-9.4l5.9-0.6l23.6-2.4l31.1-3.2l30.1,3.1l27.4,2.9l3.5,0.4
			c0.6,2.3,1.1,4.5,1.7,6.6c0.4,1.8,0.8,3.4,1.2,4.9v2.2l0,1.2l-0.1,7.7l0,0.9c0.2,0.4,0.4,0.9,0.5,1.4c2.6,6.7,6.5,20.2,7.3,42.9
			c0,0.3,0,0.7,0,1.1c0,0,0,0,0,0c0.1,2.6,0.2,5.4,0.2,8.3c0,0,0,0,0,0v0.6c0,12-0.8,25-1.9,37.3"/>
		<path class="st1" d="M317.8,402c-2.9,1.6-6.4,3.1-10.3,3.8c-12,2.3-71,4.5-95.6,8.5c-13.6,2.2-23.9,7.8-30.3,12.4
			c0-0.3,0.1-0.7,0.1-1c0.2-1.1,0.3-2.2,0.5-3.3c0.5-3,1-5.7,1.5-8.1c0.4-1.8,0.8-3.5,1.3-5c0.2-0.8,0.4-1.5,0.7-2.2
			c0.2-0.6,0.4-1.2,0.5-1.8c0,0,0,0,0,0c0.6-1.7,1.1-3.2,1.6-4.3c0.1-0.3,0.2-0.6,0.3-0.8c0.1-0.2,0.1-0.3,0.2-0.4
			c0-0.1,0.1-0.2,0.1-0.3l-0.1-7c0.4-1.1,0.8-2.1,1.1-3.2c0.3-1,0.6-1.9,0.9-3c0.9-3,1.8-6.2,2.5-9.4l5.9-0.6l54.7-5.6l57.5,6
			l3.5,0.4c0.6,2.3,1.1,4.5,1.7,6.6c0.4,1.8,0.8,3.4,1.2,4.9v2.2l0,1.2l-0.1,7.7l0,0.9C317.4,401.1,317.6,401.5,317.8,402z"/>
	</g>
	<path class="st3" d="M339.6,179c-2.5-5.5-4.5-11.1-6.2-15.8c-5-13.6-8.3-27.8-11.1-42c-2.3-11.5-2.1-23.4-4.4-35
		c-0.9-4.4-1.7-11.1-5.2-14.2c-3.5-3.1-9.7-4.2-14.1-4.8c-20.5-3-41.4-1.2-61.6,3.4c-3.8,0.9-7.6,1.9-11.2,3.3
		c-5.5,2.3-10.5,5.6-15.4,9c-4.2,2.8-8.5,5.8-10.9,10.2c-3.6,6.5-2.3,14.1-2.2,21.1c0.1,7-0.4,14.5,1.2,21.5
		c0.9,4.1,1.9,8.4,2.5,12.6c0.5,3.7,2,7.2,2.7,11c1.4,7.7,0.7,15.3-1.1,22.9c0.3-1.4,2.1-3.3,2.8-4.7c0.9-1.8,1.7-3.7,2.1-5.7
		c1-4.3,1.1-8.9,0.6-13.3c0.6,5.7,1.1,11.4,1,17.1c-0.1,5.6-1.7,11.2-2,16.8c-0.3,6.1-0.1,12.3,1.6,18.1c1.4,4.8,3.7,9.2,5.1,14
		c2,7.4,1.8,16.3,7.6,21.4c4.4,3.9,10.9,4.2,16.8,4.3c35.6,0,71.7,0,107,1.2c0.5-3.6-0.5-7.6-1.2-11.1c-1.6-8.3-3.2-16.6-4.8-24.8
		c5.7,8,9.7,16.9,13.2,26c3.6,9.5,5.8,17.5,3.5,27.8c-1.7,7.6-5,14.8-8.3,21.8c2.8-0.7,4.6-3.4,6-6c8.1-14.6,12.3-29.3,10.2-46.1
		c-1.7-13.8-7.1-27.3-15.7-38.3c-8.4-10.6-18.4-21.4-21.5-34.9c1.5,6.4,5.5,12.3,9.7,17.2c4.6,5.4,9.9,9.2,15.6,13.3
		C346.8,192.6,342.8,185.9,339.6,179z"/>
	<path class="st4" d="M292.1,200.8c0-2.5-0.5-5-1.3-7.3h-70.1c-0.9,2.3-1.3,4.8-1.3,7.3c0,9.9,6.9,18.5,17.3,23.3
		c3.6,1.7,7.7,2.9,12.1,3.5c2.3,0.3,4.6,0.5,7,0.5c1.2,0,2.3,0,3.4-0.1c3.8-0.3,7.5-1,10.9-2.1C283,221.8,292.1,212.1,292.1,200.8z"
		/>
	<path class="st5" d="M259.1,228.1c-1.1,0.1-2.3,0.1-3.4,0.1c-2.4,0-4.8-0.2-7-0.5l1.6-13.6h7.3L259.1,228.1z"/>
	<path class="st6" d="M249.9,216.7c1.2,0.4,2.5,0.6,3.9,0.6c1.4,0,2.7-0.2,3.9-0.6l-0.3-2.6h-7.3L249.9,216.7z"/>
	<path class="st5" d="M263.2,212.2c-2,2.4-5.4,3.9-9.3,3.9c-4,0-7.4-1.6-9.4-3.9c2.6-3.9,9.4-6.1,9.4-6.1S260.6,208.3,263.2,212.2z"
		/>
	<path class="st2" d="M329.8,266.7c0,7.1-1.9,13.9-5.2,19.6c-0.2,0.3-0.4,0.7-0.6,1c-0.9,1.5-1.9,2.9-2.9,4.2
		c-0.5,0.7-1,1.3-1.6,1.9c-9.3,10.2-14,24-14.5,37.7c-0.2,5.8,0.2,11.6,1.6,17.3c0.8,3.3,1.7,6.6,2.6,9.9c0.4,1.7,1.7,4.6,2.4,7.2
		c0,0,0,0,0,0c0.1,0.2,0.1,0.4,0.1,0.5c1,3.7,1.9,7.4,2.8,11c0.6,2.3,1.1,4.5,1.7,6.6c0.4,1.8,0.8,3.4,1.2,4.9
		c1.6,6.6,2.6,11.1,2.2,11.2h-13.5c0,0,0,0,0,0h-41.6c-3.3,0-6.5,0-9.8,0l-1.8-10.5l-1.3-7.2l-1.5,7.4l-2.1,10.3
		c-8.4,0-16.8-0.1-25.2-0.1c-10.6,0-21.1,0-31.6,0.1c-1,0-2,0-2.9,0c-0.6,0-1.1,0-1.7,0h-0.8c-0.1-1.2,0.3-2.3,0.8-3.3
		c0.5-1,1-1.9,1.4-2.9c0.1-0.4,0.3-0.7,0.4-1.1c0.4-1.1,0.8-2.1,1.1-3.2c0.3-1,0.6-1.9,0.9-3c0.9-3,1.8-6.2,2.5-9.4
		c1.9-7.9,3.4-16.2,3.7-23.7c0.5-9.4,2.5-18.7,2.8-28.1c0.2-6.7-0.6-13.5-2.4-19.9c-1.9-6.8-5.5-12.2-9.1-18.2
		c-4.5-7.7-6-16.8-5.1-25.7c0.9-8.9,4.9-16.9,6.5-25.7c1.3-6.8,1.8-13.7,1.8-20.7c0-5.7-0.9-11.5-0.6-17.2c2.5-1.2,5-2,7.1-2.6
		c2.7-0.8,4.8-1.2,6-1.4c0.7-0.1,1.1-0.2,1.1-0.2s8.7,0,21,0c16,0,38,0,54,0c12.1,0,20.9,0,20.9,0c0.1,0,0.5,0,1,0.1
		c1.2,0.2,3.4,0.6,6.1,1.4c0.5,0.2,1.1,0.3,1.7,0.5c2.6,0.9,5.5,2,8.5,3.6c0.3,2.5-0.6,5.4-0.7,7.1c-1,10.3-0.3,20.8,3.3,30.6
		C324,246.7,329.8,255.9,329.8,266.7z"/>
	<path class="st7" d="M232.8,346.1v4.7c0,1.3-1.1,2.4-2.4,2.4h-31c0.2-3.2,0.5-6.4,0.9-9.5h30.1
		C231.7,343.7,232.8,344.8,232.8,346.1z"/>
	<path class="st7" d="M305.1,353.3h-30.3c-1.3,0-2.4-1.1-2.4-2.4v-4.7c0-1.3,1.1-2.4,2.4-2.4h28.2c0.3,1.8,0.6,3.6,1.1,5.3
		C304.3,350.5,304.7,351.9,305.1,353.3z"/>
	<g>
		<path class="st6" d="M226.7,489c-1.5,0.8-3.5,1.2-5.1,1.2l-0.9,0l-3.1,0c-0.5,0-0.9,0-1.3,0l-5.9,0.2c0,0-12.3,0.5-12.5,0.5
			c-5.1,0.2-10.7,0.4-15.9,1.7c-0.1-1-0.2-2-0.3-3c-0.1-1.5-0.3-3-0.4-4.5c-0.1-1.5-0.2-2.9-0.3-4.4c-0.1-1.6-0.2-3.1-0.3-4.7
			c-0.2-3-0.3-6-0.4-9v-0.1c0-1.5-0.1-3-0.1-4.4c0-1.5,0-3-0.1-4.4c0-1,0-2,0-2.9c0-3.2,0-6.2,0.2-9.1v-0.1c0-0.4,0-0.7,0-1
			c0-0.9,0.1-1.8,0.1-2.7c0.1-1.5,0.2-3,0.3-4.4c0.3-4,0.7-7.7,1.1-11.1c0-0.3,0.1-0.7,0.1-1c0.2-1.1,0.3-2.2,0.5-3.3
			c0.5-3,1-5.7,1.5-8.1c0.4-1.8,0.8-3.5,1.3-5c0.2-0.8,0.4-1.5,0.7-2.2c0.2-0.6,0.4-1.2,0.5-1.8c0,0,0,0,0,0
			c0.6-1.7,1.1-3.2,1.6-4.3c0.1-0.3,0.2-0.6,0.3-0.8c0.1-0.2,0.1-0.3,0.2-0.4c-0.6,0-1.1,0-1.7,0h-0.8c-0.1-1.2,0.3-2.3,0.8-3.3
			c0.5-1,1-1.9,1.4-2.9c0.1-0.4,0.3-0.7,0.4-1.1c0.4-1.1,0.8-2.1,1.1-3.2c0.3-1,0.6-1.9,0.9-3c0.9-3,1.8-6.2,2.5-9.4
			c1.9-7.9,3.4-16.2,3.7-23.7c0.5-9.4,2.5-18.7,2.8-28.1c0.2-6.7-0.6-13.5-2.4-19.9c-1.9-6.8-5.5-12.2-9.1-18.2
			c-4.5-7.7-6-16.8-5.1-25.7c0.9-8.9,4.9-16.9,6.5-25.7c1.3-6.8,1.8-13.7,1.8-20.7c0-5.7-0.9-11.5-0.6-17.2c2.5-1.2,5-2,7.1-2.6
			c2.7-0.8,4.8-1.2,6-1.4c0.7-0.1,1.1-0.2,1.1-0.2s8.7,0,21,0l0.7,0.5c-1.1,1.6-1.7,4.1-2.3,6.4c-0.2,0.7-0.4,1.3-0.5,2
			c-1.3,4.5-2.4,9-3.4,13.5c-2.9,13.2-4.3,24.8-4.3,35.3c0,3.4,0.1,7.9,0.8,12.1c3,20.6,4.7,68.5,5.7,110.5c0.2,9,0.4,17.7,0.6,25.8
			c0.2,9.7,0.3,18.6,0.5,26l0.1,6.3c0.2,8.5,0.3,18.5,0.3,28.3c0,1.5,0,2.9,0,4.3c-0.1,3.7-0.2,7.5,0.6,11.1c0.4,1.8,1,3.4,1.9,5
			C227.8,483.4,230.7,486.9,226.7,489z"/>
		<path class="st6" d="M325.2,446.1c0.1,2.6,0.2,5.4,0.2,8.3c0,0,0,0,0,0v0.6c0,12-0.8,25-1.9,37.3c-5.1-1.2-10.5-1.4-15.4-1.5
			c0,0-0.3,0-0.4,0c-3.9-0.1-7.5-0.3-11.2-0.4l-5.4-0.2c-0.6,0-1.3-0.1-1.9-0.2c-1.5-0.2-2.9-0.1-4.4-0.3c-1.7-0.3-3.4,0-5.1-0.8
			c-4.2-2.3-1.4-5.3,0.2-8.4c0.8-1.6,1.4-3.3,1.8-5c0.8-3.6,0.6-7.3,0.6-11c0-1.4-0.1-2.9,0-4.3c0-9.8,0.2-19.7,0.3-28.2l0.1-6.3
			c0.1-7.4,0.3-16.3,0.5-25.9c0.2-8.1,0.4-16.9,0.6-25.9c1-42,2.7-89.8,5.7-110.3c4.3-29.7-9.1-68.3-9.6-69.9c12.1,0,20.9,0,20.9,0
			c0.1,0,0.5,0,1,0.1c1.2,0.2,3.4,0.6,6.1,1.4c0.5,0.2,1.1,0.3,1.7,0.5c2.6,0.9,5.5,2,8.5,3.6c0.3,2.5-0.6,5.4-0.7,7.1
			c-1,10.3-0.3,20.8,3.3,30.6c3.6,9.8,9.4,19,9.4,29.8c0,7.1-1.9,13.9-5.2,19.6c-0.2,0.3-0.4,0.7-0.6,1c-0.9,1.5-1.9,2.9-2.9,4.2
			c-0.5,0.7-1,1.3-1.6,1.9c-9.3,10.2-14,24-14.5,37.7c-0.2,5.8,0.2,11.6,1.6,17.3c0.8,3.3,1.7,6.6,2.6,9.9c0.4,1.7,1.7,4.6,2.4,7.2
			c0,0,0,0,0,0c0.1,0.2,0.1,0.4,0.1,0.5c1,3.7,1.9,7.4,2.8,11c0.6,2.3,1.1,4.5,1.7,6.6c0.4,1.8,0.8,3.4,1.2,4.9
			c1.6,6.6,2.6,11.1,2.2,11.2h-2.3l0,0.9c0.2,0.4,0.4,0.9,0.5,1.4c2.6,6.7,6.5,20.2,7.3,42.9C325.2,445.3,325.2,445.7,325.2,446.1
			C325.2,446,325.2,446,325.2,446.1z"/>
	</g>
	<path class="st4" d="M231.3,213c-1.9-2.4-3.8-4.8-5.6-7.4c-1.7-2.5-2.8-5.4-4.5-7.8c-1.7-2.5-1.9-4.3,1.1-5.8
		c2.6-1.2,5.4-2.3,8.1-3.2c2.4-0.8,5-1.2,7.3-2.3c2.4-1.2,5.4-1.3,8-1.6c3-0.3,6.1-0.5,9.2-0.4c3.8,0,7.5,0.4,11.2,1.2
		c4.5,1.1,8.8,2.8,13.1,4.4c2.6,1,5.4,2.1,7.1,4.4c0.2,0.3,0.4,0.5,0.4,0.9c0,0.3-0.1,0.6-0.2,1c-2,4.8-4.3,9.4-7,13.8
		c-1.4,2.2-2.9,4.3-4.6,6.3c-1.6,2-3.1,4.2-5.2,5.8c-1.6,1.3-3.5,2.2-5.5,2.3c-0.8,0-1.5-0.1-2.2-0.5c-0.7-0.5-1.1-1.2-1.7-1.9
		c-0.8-1-1.9-1.8-2.9-2.6c-0.8-0.6-1.6-1.2-2.6-1.4c-1.1-0.2-2.2,0-3.2,0.5c-1.9,0.9-3.4,2.4-5.1,3.6c-2.4,1.8-7.5,3.7-9.3-0.1
		c-0.7-1.5-1.1-2.7-2.1-4C234,216.5,232.7,214.8,231.3,213z"/>
	<g>
		<path class="st8" d="M313.1,122.4c-0.8,2-1.7,3.2-3.4,4.4c-1.2,0.9-2.4,1.6-3.7,2.3c-0.7,0.4-1.4,0.7-2.1,1.1
			c-0.8,0.4-1.6,0.8-2.5,1c-0.7,0.2-1.4,0.2-2.1,0.1c-1.2-0.2-2.2-0.9-3.1-1.7c-0.8-0.9-1.4-2-2.1-2.9l5.9-26.1
			c1.2-1.7,4.2-2.4,6.2-2.1c5.2,0.6,7.6,7.1,8.3,11.6C315.2,114.2,314.7,118.6,313.1,122.4z"/>
		<path class="st9" d="M307.5,122.3c0.4-0.3,0.6-0.7,0.6-1.2c0-0.7-0.4-1.3-0.7-1.9c-0.3-0.6-0.5-1.4-0.1-2c0.3-0.4,0.9-0.5,1.4-0.7
			c0.5-0.2,1.1-0.5,1.1-1.1c0-0.2-0.1-0.4-0.1-0.6c-0.2-0.5-0.5-0.9-0.8-1.3c-0.4-0.6-1-1.1-1.5-1.7c-0.5-0.6-0.9-1.2-1-2
			c-0.1-0.7,0-1.6,0.6-2.1c0.7-0.7,2-0.6,2.8,0c0.8,0.6,1.2,1.7,1.4,2.7c0.2,1.3,0.2,2.6-0.3,3.8c0.6-1.4,1.3-2.6,1.2-4.2
			c-0.1-1.5-0.6-2.9-1.6-4.1c-1.4-1.7-4.5-2.3-6.2-0.8c-0.6,0.6-1,1.3-1.4,2c-0.5,0.9-0.9,1.9-1,3c-0.1,1.3,0.5,2.6,1.2,3.7
			c0.6,1.1,1.2,2,0.9,3.4c-0.2,0.7-0.7,1.3-1.1,1.9c-0.3,0.6-0.5,1.2-0.5,1.8c0,0.5,0,1,0.3,1.4c0.5,0.6,1.3,0.8,2.1,0.7
			C305.7,123,306.9,122.9,307.5,122.3z"/>
	</g>
	<g>
		<path class="st8" d="M215.3,126.7c-0.7,1-1.3,2-2.1,2.9c-0.8,0.9-1.9,1.6-3.1,1.7c-0.1,0-0.2,0.1-0.4,0c-1.2,0.1-2.5-0.3-3.6-0.9
			c-0.2-0.1-0.4-0.2-0.6-0.3c-2-1-4-2-5.8-3.4c-1.7-1.3-2.6-2.5-3.4-4.4c-1.6-3.9-2.1-8.2-1.4-12.3c0.7-4.5,3.1-11,8.3-11.6
			c2-0.2,5,0.4,6.2,2.1L215.3,126.7z"/>
		<path class="st9" d="M201.9,122.3c-0.4-0.3-0.6-0.7-0.6-1.2c0-0.7,0.4-1.3,0.7-1.9c0.3-0.6,0.5-1.4,0.1-2
			c-0.3-0.4-0.9-0.5-1.4-0.7c-0.5-0.2-1.1-0.5-1.1-1.1c0-0.2,0.1-0.4,0.1-0.6c0.2-0.5,0.5-0.9,0.8-1.3c0.4-0.6,1-1.1,1.5-1.7
			c0.5-0.6,0.9-1.2,1-2c0.1-0.7,0-1.6-0.6-2.1c-0.7-0.7-2-0.6-2.8,0c-0.8,0.6-1.2,1.7-1.4,2.7c-0.2,1.3-0.2,2.6,0.3,3.8
			c-0.6-1.4-1.3-2.6-1.2-4.2c0.1-1.5,0.6-2.9,1.6-4.1c1.4-1.7,4.5-2.3,6.2-0.8c0.6,0.6,1,1.3,1.4,2c0.5,0.9,0.9,1.9,1,3
			c0.1,1.3-0.5,2.6-1.2,3.7c-0.6,1.1-1.2,2-0.9,3.4c0.2,0.7,0.7,1.3,1.1,1.9c0.3,0.6,0.5,1.2,0.5,1.8c0,0.5,0,1-0.3,1.4
			c-0.5,0.6-1.3,0.8-2.1,0.7C203.7,123,202.6,122.9,201.9,122.3z"/>
	</g>
	<g>
		<path class="st10" d="M229.9,181.2c0,0,25.4-15.5,48.9,0c0,0-21,25.5-24.5,27.2C254.4,208.5,234,190.4,229.9,181.2z"/>
		<ellipse class="st0" cx="254.2" cy="187.8" rx="19.6" ry="20.7"/>
		<g>
			<path class="st0" d="M273.7,133.1v53.5h-39.1V131h31.7C269.3,131.8,271.8,132.6,273.7,133.1z"/>
			<path class="st11" d="M273.7,138.5V167c-6,4.3-15.1,7.5-23.8,8.3c-5.8,0.6-11.2,3.2-15.3,5.9v-44.8h31.7
				C269.3,137.3,271.8,138,273.7,138.5z"/>
		</g>
	</g>
	<path class="st12" d="M213,90.8c-1.3-1.7-4.3-2.2-6.3-1.9c-5.2,0.8-7.3,7.4-7.9,11.9c-0.5,4.2,0.1,8.5,1.9,12.3
		c0.9,1.9,1.9,3.1,3.6,4.3c1.8,1.3,3.9,2.2,5.9,3.1c1.5,0.7,3.1,1.3,4.6,0.9c1.2-0.2,2.2-1,3-1.9c0.8-0.9,1.4-2,2-3"/>
	<g>
		<path class="st0" d="M301,123.3c0.3,10-3.6,17-9.4,23.5c-1.8,2.1-3.9,4.1-6,6.3c-3.3,3.2-6.3,6.9-10,10c-3.2,2.7-8.3,4.8-13.4,6.1
			c-3.2,0.8-5,1.3-7.8,1.4c-1.6,0.1-5.3-0.5-7.8-1.4c-6.9-2.6-16-8.3-22.1-13.3c-1.4-1.2-2.7-2.3-3.9-3.5
			c-7.1-6.9-10.5-14.2-10.9-25.9L208,79.4c-0.5-13.1,6.1-24.9,16.4-31.6c5.3-3.5,11.6-5.6,18.4-5.9l18.9-0.7
			c20-0.7,36.8,14.8,37.5,34.8L301,123.3z"/>
	</g>
	<path class="st13" d="M215.3,104.5c-0.1,0.3-0.3,0.6-0.3,1C215,105.1,215.1,104.8,215.3,104.5z"/>
	<g>
		<g>
			<g>
				<g>
					<path class="st14" d="M282.6,112.3c0.1,4-2.4,7.3-5.6,7.4c-3.3,0.1-6-3-6.2-7c-0.1-4,2.4-7.3,5.6-7.4
						C279.7,105.2,282.5,108.3,282.6,112.3z"/>
					<path class="st2" d="M280.6,109.2c0,0.9-0.7,1.6-1.5,1.7c-0.9,0-1.6-0.7-1.7-1.5s0.7-1.6,1.5-1.7
						C279.8,107.6,280.5,108.3,280.6,109.2z"/>
				</g>
				<path class="st14" d="M267.2,101.9c0,0,11.3-3.2,15.2-2.9c5.2,0.4,8.4,2,8.4,2s-6.2-6.6-10.8-5.8c-4.6,0.8-11,2.2-11,2.2
					S265.1,98.3,267.2,101.9z"/>
			</g>
			<g>
				<g>
					<path class="st14" d="M239,113.9c0.1,4-2.4,7.3-5.6,7.4c-3.3,0.1-6-3-6.2-7c-0.1-4,2.4-7.3,5.6-7.4
						C236.1,106.8,238.9,109.9,239,113.9z"/>
					<path class="st2" d="M236.9,110.8c0,0.9-0.7,1.6-1.5,1.7c-0.9,0-1.6-0.7-1.7-1.5c0-0.9,0.7-1.6,1.5-1.7
						C236.2,109.2,236.9,109.9,236.9,110.8z"/>
				</g>
				<path class="st14" d="M241.8,102.8c0,0-11.6-2.3-15.4-1.7c-5.2,0.8-8.3,2.6-8.3,2.6s5.7-7.1,10.4-6.6c4.6,0.5,11.1,1.4,11.1,1.4
					S243.6,99.1,241.8,102.8z"/>
			</g>
		</g>
		<path class="st13" d="M253.7,125.2c-0.6,1-1.4,1.9-2.1,2.8c-0.6,0.8-1.5,1.7-1,2.7c0.3,0.5,0.8,0.8,1.3,1.1
			c1.5,0.7,2.9,1.4,4.6,0.8c0.9-0.3,1.8-0.8,2.5-1.4L253.7,125.2z"/>
		<g>
			<g>
				<path class="st15" d="M270.4,143.1c0,3.2-1.3,6.1-3.3,8.4c-2.6,2.9-6.6,4.8-11.1,4.9c-4.5,0.1-8.5-1.6-11.3-4.3
					c-2.2-2.2-3.6-5.1-3.8-8.2c0.5,0.2,1.1,0.4,1.6,0.6c3.8,1.2,8.3,1.8,13.2,1.7c4.8-0.1,9.3-1,13.1-2.3
					C269.4,143.5,269.9,143.3,270.4,143.1z"/>
				<path class="st16" d="M267.1,151.5c-2.6,2.9-6.6,4.8-11.1,4.9c-4.5,0.1-8.5-1.6-11.3-4.3c2.6-2.9,6.6-4.8,11.1-4.9
					C260.3,147,264.3,148.7,267.1,151.5z"/>
			</g>
			<path class="st2" d="M268.8,143.7l0,1.7c0,1.8-1.4,3.3-3.2,3.4l-19.7,0.5c-1.8,0-3.3-1.4-3.4-3.2l0-1.7c3.8,1.2,8.3,1.8,13.2,1.7
				C260.6,145.9,265,145,268.8,143.7z"/>
		</g>
	</g>
	<g>
		<path class="st17" d="M224,485.6c-0.2-0.3-1.3-0.1-1.6,0c-1,0.1-2,0-2.9,0c-0.5,0-0.9,0-1.4,0c-0.3,0-1.3-0.1-1.5,0
			c0.4-0.3,0.9-0.4,1.3-0.7c0.4-0.4-0.1-0.9-0.4-1.3c-0.3-0.5-0.6-1-0.8-1.5c-0.5-1-0.9-2-1.3-3c-2-6.1-1.3-12.6-1.3-18.8
			c0-9.4-0.2-18.8-0.3-28.2c-0.8-40.9-2.3-136.5-6.8-168c-4.3-30,8.6-68.4,9.7-71.8c1.8-0.1,3.6-0.2,5.4-0.3c0,0-14.4,40.6-9.8,72.1
			c4.5,31.5,6.1,127,6.8,168c0.2,9.4,0.3,18.8,0.3,28.2C219.4,469.6,218.1,477.5,224,485.6z"/>
		<path class="st7" d="M218.7,485.6c-7,0.3-13.9,0.5-20.9,0.7c-7.7,0.3-15.6,0.6-22.6,3.7c-4.5,2-9.4,6-14.5,7.4
			c0.3-2.3,1.1-3.8,0.9-6.4c-0.2-2-0.5-3.9-0.7-5.8c-0.4-3.5-0.7-7.1-1-10.7c-0.2-2.3-0.3-4.5-0.5-6.8c-0.9-15.8-0.8-31.7,0.8-47.4
			c0-0.5,0.1-1,0.2-1.6c0.6-5.3,1.2-10.7,1.8-16.2c0.5-3.9,0.9-7.9,1.3-11.9c0-0.1,0-0.1,0-0.2c1.6-14.5,3.2-29.1,4.5-43.6
			c0.6-6.4,1.1-12.8,1.6-19.2c0.1-1.3,0.2-2.7,0.3-4c0.1-1.3,0.2-2.6,0.3-4c0.3-3.9,0.5-7.8,0.7-11.7c0.1-1.3,0.1-2.6,0.2-3.8
			c0.2-3.8,0.3-7.5,0.4-11.3c0.1-3,0.2-6.1,0.3-9.3l-11.8-3.2l-5.1-1.3c0.1-1.5,0.2-3,0.4-4.4c0-0.1,0-0.1,0-0.2
			c2.4-25.7,9.9-42.7,18.7-60.6c3.4-6.9,8.9-11.5,14.5-14.6c8.4-4.5,18.3-6.5,27.9-7.2c-1.2,3.5-14.1,41.8-9.7,71.8
			c4.5,31.5,6.1,127,6.8,168c0.2,9.4,0.3,18.8,0.3,28.2C214.1,469.6,212.8,477.5,218.7,485.6z"/>
		<path class="st7" d="M218.7,485.6c-6.8,0.3-13.5,0.5-20.3,0.7c-0.2,0-0.4,0-0.6,0c-7.7,0.3-15.6,0.6-22.6,3.7
			c-4.5,2-9.4,6-14.5,7.4c-1.8,0.5-3.6,0.7-5.4,0.4c0.3-2.5,1.2-4.1,1-6.8c-0.2-2-0.5-3.9-0.7-5.8c-0.4-3.5-0.7-7.1-1-10.7
			c-0.2-2.3-0.3-4.5-0.5-6.8c-0.1-2-0.2-3.9-0.3-5.9c-0.1-2.6-0.2-5.2-0.2-7.8c0-1,0-1.9,0-2.9c0-3.7,0-7.3,0.1-11
			c0-1.7,0.1-3.3,0.2-5c0-0.7,0.1-1.4,0.1-2c0.2-3,0.4-6,0.6-9c0.1-1.3,0.2-2.5,0.4-3.8c0-0.5,0.1-1,0.2-1.6
			c0.6-5.3,1.2-10.7,1.8-16.2c0.4-3.4,0.8-6.9,1.2-10.5c0-0.5,0.1-1,0.2-1.5c0-0.1,0-0.1,0-0.2c1.6-14.5,3.2-29.1,4.5-43.6
			c0.6-6.4,1.1-12.8,1.6-19.2c0.1-1.3,0.2-2.7,0.3-4c0.1-1.3,0.2-2.6,0.3-4c0.3-3.9,0.5-7.8,0.7-11.7c0.1-1.3,0.1-2.6,0.2-3.8
			c0.2-3.8,0.3-7.5,0.4-11.3c0.1-3,0.2-6.1,0.3-9.3l-11.8-3.2l-5.1-1.3c0.1-1.5,0.2-3,0.4-4.4c0-0.1,0-0.1,0-0.2
			c0.1-1.2,0.2-2.4,0.4-3.5c1.9-16.9,5.9-34.5,13.4-49.7c4.2-8.6,11.1-18.5,20.1-22.6c10.3-4.6,21.4-6.3,32.7-6.6c0,0,0-0.2-0.1,0
			c-0.4,1.2-2.3,6.8-4.3,14.7c-3.8,14.7-8.2,37.7-5.4,57.1c4.5,31.5,6.1,127,6.8,168c0.2,9.4,0.3,18.8,0.3,28.2
			C214.1,469.6,212.8,477.5,218.7,485.6z"/>
		<path class="st18" d="M216.7,192.3C216.7,192.3,216.7,192.1,216.7,192.3c-0.5,1.2-2.4,6.8-4.4,14.7c0,0.1-0.1,0.1-0.1,0.2
			c0.6-1.7,0.3-4.2,0.1-6c-0.3-2.9-1.2-4.2-4.3-4.5c-3-0.3-5.9,0.8-8.7,1.8c-5.5,1.9-10.9,4-15.7,7.2c-11.6,7.6-18.6,20.4-23.3,33.4
			c-3.8,10.5-6.2,21.5-9.8,32c1.9-16.9,5.9-34.5,13.4-49.7c4.2-8.6,11.1-18.5,20.1-22.6C194.3,194.2,205.4,192.5,216.7,192.3z"/>
		<path class="st6" d="M198.4,486.3c-0.2,0-0.4,0-0.6,0c-7.7,0.3-15.6,0.6-22.6,3.7c-4.5,2-9.4,6-14.5,7.4c-1.8,0.5-3.6,0.7-5.4,0.4
			c0.3-2.5,1.2-4.1,1-6.8c-0.2-2-0.5-3.9-0.7-5.8c-0.4-3.5-0.7-7.1-1-10.7c-0.2-2.3-0.3-4.5-0.5-6.8c-0.1-2-0.2-3.9-0.3-5.9
			c0-2.6-0.1-5.3-0.2-7.8c0-1,0-1.9,0-2.9c0-3.7,0-7.3,0.1-11c0-1.7,0.1-3.3,0.2-5c0-0.7,0.1-1.4,0.1-2c0.2-3,0.4-6,0.6-9
			c0.1-1.3,0.2-2.5,0.4-3.8c0-0.5,0.1-1,0.2-1.6c0.6-5.3,1.2-10.7,1.8-16.2c0.6-3.4,0.8-7,1.2-10.5c0-0.5,0.1-1,0.2-1.5
			c0-0.1,0-0.1,0-0.2c1.6-14.5,3.2-29.1,4.5-43.6c0.6-6.4,1.1-12.8,1.6-19.2c0.1-1.3,0.2-2.7,0.3-4c0.1-1.3,0.2-2.6,0.3-4
			c0.3-3.9,0.5-7.8,0.7-11.7c0.1-1.3,0.1-2.6,0.2-3.8c0.2-3.8,0.3-7.5,0.4-11.3c0.1-3,0.2-6.1,0.3-9.3l-11.8-3.2l-5.1-1.3
			c0.1-1.5,0.2-3,0.4-4.4c0-0.1,0-0.1,0-0.2l38.4,8.3c0.8-7.9,1.1-15.9,0.8-23.9c2,8.2,3.6,16.3,3.3,24.7l0.2,0c0,0-0.1,0.7-0.2,1.5
			h-0.1c-0.1,0.9-0.1,1.7-0.3,2.6c0,0.5-5.5,47.2-8.1,70.6c-1.3,12.4-4.5,24.6-8.1,36.5c-1.5,5-3.2,9.9-4.5,14.9
			c-1.5,6.3-6.5,10.8-5,18c0.9,4.4,4,8.5,3.5,12.9c-0.5,3.8-3.4,6.6-5,9.9c-1.7,3.6-1.1,7.5-2.5,11.3c-1.1,2.8-2.4,5.5-3,8.4
			c-0.9,4.4-0.1,9,1.6,13.1c-1-3.9-0.3-8.2,1.8-11.7c-0.6,4.9,0.1,9.9,2,14.4c0.2,0.5,0.5,1,0.9,1.3c0.6,0.5,1.5,0.5,2.3,0.4
			c2.8-0.4,5.2-2.1,7.8-3.1C183,482.4,191.7,484,198.4,486.3z"/>
		<g>
			<g>
				<path class="st0" d="M158.8,447c-0.3,0.6-0.6,1.8-0.5,2.5c0.1,0.8,0.5,1.2,0.3,2.2c-0.2,0.9-0.4,1.8-1,2.6
					c-1,1.4-2.8,1.9-4.4,2.2c-2.9,0.5-5.9,0.9-8.8,0.6c-3.1-0.4-5.6-2.1-8-3.9c-1.7-1.2-3.3-2.6-3.9-4.6c-0.4-1.4-0.3-2.8,0.1-4.1
					c0.4-1.3,1-2.7,1.6-3.9c0.8-1.8,1.7-3.5,2.7-5.1c1-1.6,2-3.1,2.4-4.9c0.3-1.3,0.5-2.7,0.7-4c1-6.4,1.9-12.9,2.9-19.3
					c1.6-11.4,0.6-23.3,0.7-34.9c0.1-12,2.7-23.3,5.1-35c3.5-16.8,1.4-33.6,3.7-50.4l0-0.4l29.3,4.4c0,34.6-7.8,58.1-7.8,58.1
					c3.2,20.7-8.4,50.8-14.8,65.2c-2.3,5.3-1.7,11.2,1.5,15.3c1.5,1.9,2.7,3.9,2.9,6.1c0.3,3.1,0.5,6.7-1.8,8.9
					c-0.2,0.2-0.5,0.4-0.8,0.6c-0.5,0.4-1,0.7-1.4,1.1c0,0-0.1,0-0.1,0.1C159.2,446.4,159,446.7,158.8,447z"/>
			</g>
			<path class="st1" d="M158.8,447c-0.3,0.6-0.6,1.8-0.5,2.5c0.1,0.8,0.5,1.2,0.3,2.2c-0.2,0.9-0.4,1.8-1,2.6
				c-1,1.4-2.8,1.9-4.4,2.2c-2.9,0.5-5.9,0.9-8.8,0.6c-3.1-0.4-5.6-2.1-8-3.9c-1.7-1.2-3.3-2.6-3.9-4.6c-0.4-1.4-0.3-2.8,0.1-4.1
				c0.8,0.8,1.7,1.5,2.5,2.3c0.6,0.5,1.2,1,1.8,1.4c1.3,0.8,2.8,1.3,4.3,1.8c2.6,0.8,5.3,1.6,8,1c0.4-0.1,0.8-0.2,1.1-0.4
				c0.3-0.3,0.5-0.6,0.7-0.9c1.4-2.3,1.9-4.8,3.5-7c2.4-3.3,1.1-7.8-1.4-13.4c-2.5-5.5,0.5-11.3,6.4-24.9
				c5.9-13.6,8.8-35.6,9.2-46.2c0.4-10.6-9-11.9-9-11.9s4.2-0.6,10.3-3.3c6.1-2.7,7-30.9,6.3-39.7c-0.5-7.3-18.4-14.5-24.1-16.6
				l0-0.4l29.3,4.4c0,34.6-7.8,58.1-7.8,58.1c3.2,20.7-8.4,50.8-14.8,65.2c-2.3,5.3-1.7,11.2,1.5,15.3c1.5,1.9,2.7,3.9,2.9,6.1
				c0.3,3.1,0.5,6.7-1.8,8.9c-0.2,0.2-0.5,0.4-0.8,0.6c-0.5,0.3-1,0.7-1.4,1.1c0,0-0.1,0-0.1,0.1C159.2,446.4,159,446.7,158.8,447z"
				/>
		</g>
		<path class="st7" d="M138.9,415.2l25.5,1c0,0,12.7-34.5,15.2-58.2c2.6-23.7,9.1-75.1,9.1-75.1l-38.6-8.3c0,0-7.3,51.6-6.8,78.6
			C143.9,380.2,141.4,400.4,138.9,415.2z"/>
		<path class="st1" d="M138.9,415.2c0,0,25.5,1,25.5,1c0-0.1,0-0.1,0.1-0.2c1.3-3.5,2.5-7,3.6-10.5c1.1-3.2,2.1-6.4,3-9.7
			c0.5-1.8,1-3.7,1.6-5.5c0.4-1.2,1.1-2.1,1.2-3.5c-4.1,8.1-10.1,15.1-18.5,18.7c-1.1,0.5-2.2,0.9-3.3,1.1c-1.3,0.2-2.5,0.3-3.8,0.2
			c-1.4,0-2.8-0.1-4.2-0.2c-1.3-0.1-2.9-0.4-3.5-1.6C140.4,405.9,139.1,415.2,138.9,415.2z"/>
		<path class="st17" d="M168.6,413.9l-0.4,4.6c-0.1,1.3-1.3,2.3-2.6,2.2l-27.1-2.2c-2.1-0.2-3.6-2.1-3.2-4.2
			c0.1-0.8,0.3-1.6,0.4-2.4c0.3-1.8,2-3.1,3.8-2.9l26.8,2.2C167.7,411.4,168.7,412.6,168.6,413.9z"/>
	</g>
	<g>
		<path class="st17" d="M281.9,485.6c0.2-0.3,1.3-0.1,1.6,0c1,0.1,2,0,2.9,0c0.5,0,0.9,0,1.4,0c0.3,0,1.3-0.1,1.5,0
			c-0.4-0.3-0.9-0.4-1.3-0.7c-0.4-0.4,0.1-0.9,0.4-1.3c0.3-0.5,0.6-1,0.8-1.5c0.5-1,0.9-2,1.3-3c2-6.1,1.3-12.6,1.3-18.8
			c0-9.4,0.2-18.8,0.3-28.2c0.8-40.9,2.3-136.5,6.8-168c4.3-30-8.6-68.4-9.7-71.8c-1.8-0.1-3.6-0.2-5.4-0.3c0,0,14.4,40.6,9.8,72.1
			c-4.5,31.5-6.1,127-6.8,168c-0.2,9.4-0.3,18.8-0.3,28.2C286.6,469.6,287.9,477.5,281.9,485.6z"/>
		<path class="st7" d="M287.2,485.6c7,0.3,13.9,0.5,20.9,0.7c7.7,0.3,15.6,0.6,22.6,3.7c4.5,2,9.4,6,14.5,7.4
			c-0.3-2.3-1.1-3.8-0.9-6.4c0.2-2,0.5-3.9,0.7-5.8c0.4-3.5,0.7-7.1,1-10.7c0.2-2.3,0.3-4.5,0.5-6.8c0.9-15.8,0.8-31.7-0.8-47.4
			c0-0.5-0.1-1-0.2-1.6c-0.6-5.3-1.2-10.7-1.8-16.2c-0.5-3.9-0.9-7.9-1.3-11.9c0-0.1,0-0.1,0-0.2c-1.6-14.5-3.2-29.1-4.5-43.6
			c-0.6-6.4-1.1-12.8-1.6-19.2c-0.1-1.3-0.2-2.7-0.3-4c-0.1-1.3-0.2-2.6-0.3-4c-0.3-3.9-0.5-7.8-0.7-11.7c-0.1-1.3-0.1-2.6-0.2-3.8
			c-0.2-3.8-0.3-7.5-0.4-11.3c-0.1-3-0.2-6.1-0.3-9.3l11.8-3.2l5.1-1.3c-0.1-1.5-0.2-3-0.4-4.4c0-0.1,0-0.1,0-0.2
			c-2.4-25.7-9.9-42.7-18.7-60.6c-3.4-6.9-8.9-11.5-14.5-14.6c-8.4-4.5-18.3-6.5-27.9-7.2c1.2,3.5,14.1,41.8,9.7,71.8
			c-4.5,31.5-6.1,127-6.8,168c-0.2,9.4-0.3,18.8-0.3,28.2C291.9,469.6,293.2,477.5,287.2,485.6z"/>
		<path class="st7" d="M287.2,485.6c6.8,0.3,13.5,0.5,20.3,0.7c0.2,0,0.4,0,0.6,0c7.7,0.3,15.6,0.6,22.6,3.7c4.5,2,9.4,6,14.5,7.4
			c1.8,0.5,3.6,0.7,5.4,0.4c-0.3-2.5-1.2-4.1-1-6.8c0.2-2,0.5-3.9,0.7-5.8c0.4-3.5,0.7-7.1,1-10.7c0.2-2.3,0.3-4.5,0.5-6.8
			c0.1-2,0.2-3.9,0.3-5.9c0.1-2.6,0.2-5.2,0.2-7.8c0-1,0-1.9,0-2.9c0-3.7,0-7.3-0.1-11c0-1.7-0.1-3.3-0.2-5c0-0.7-0.1-1.4-0.1-2
			c-0.2-3-0.4-6-0.6-9c-0.1-1.3-0.2-2.5-0.4-3.8c0-0.5-0.1-1-0.2-1.6c-0.6-5.3-1.2-10.7-1.8-16.2c-0.4-3.4-0.8-6.9-1.2-10.5
			c0-0.5-0.1-1-0.2-1.5c0-0.1,0-0.1,0-0.2c-1.6-14.5-3.2-29.1-4.5-43.6c-0.6-6.4-1.1-12.8-1.6-19.2c-0.1-1.3-0.2-2.7-0.3-4
			c-0.1-1.3-0.2-2.6-0.3-4c-0.3-3.9-0.5-7.8-0.7-11.7c-0.1-1.3-0.1-2.6-0.2-3.8c-0.2-3.8-0.3-7.5-0.4-11.3c-0.1-3-0.2-6.1-0.3-9.3
			l11.8-3.2l5.1-1.3c-0.1-1.5-0.2-3-0.4-4.4c0-0.1,0-0.1,0-0.2c-0.1-1.2-0.2-2.4-0.4-3.5c-1.9-16.9-5.9-34.5-13.4-49.7
			c-4.2-8.6-11.1-18.5-20.1-22.6c-10.3-4.6-21.4-6.3-32.7-6.6c0,0,0-0.2,0.1,0c0.4,1.2,2.3,6.8,4.3,14.7c3.8,14.7,8.2,37.7,5.4,57.1
			c-4.5,31.5-6.1,127-6.8,168c-0.2,9.4-0.3,18.8-0.3,28.2C291.9,469.6,293.2,477.5,287.2,485.6z"/>
		<path class="st18" d="M289.3,192.3C289.3,192.3,289.3,192.1,289.3,192.3c0.5,1.2,2.4,6.8,4.4,14.7c0,0.1,0.1,0.1,0.1,0.2
			c-0.6-1.7-0.3-4.2-0.1-6c0.3-2.9,1.2-4.2,4.3-4.5c3-0.3,5.9,0.8,8.7,1.8c5.5,1.9,10.9,4,15.7,7.2c11.6,7.6,18.6,20.4,23.3,33.4
			c3.8,10.5,6.2,21.5,9.8,32c-1.9-16.9-5.9-34.5-13.4-49.7c-4.2-8.6-11.1-18.5-20.1-22.6C311.7,194.2,300.5,192.5,289.3,192.3z"/>
		<path class="st6" d="M307.5,486.3c0.2,0,0.4,0,0.6,0c7.7,0.3,15.6,0.6,22.6,3.7c4.5,2,9.4,6,14.5,7.4c1.8,0.5,3.6,0.7,5.4,0.4
			c-0.3-2.5-1.2-4.1-1-6.8c0.2-2,0.5-3.9,0.7-5.8c0.4-3.5,0.7-7.1,1-10.7c0.2-2.3,0.3-4.5,0.5-6.8c0.1-2,0.2-3.9,0.3-5.9
			c0-2.6,0.1-5.3,0.2-7.8c0-1,0-1.9,0-2.9c0-3.7,0-7.3-0.1-11c0-1.7-0.1-3.3-0.2-5c0-0.7-0.1-1.4-0.1-2c-0.2-3-0.4-6-0.6-9
			c-0.1-1.3-0.2-2.5-0.4-3.8c0-0.5-0.1-1-0.2-1.6c-0.6-5.3-1.2-10.7-1.8-16.2c-0.6-3.4-0.8-7-1.2-10.5c0-0.5-0.1-1-0.2-1.5
			c0-0.1,0-0.1,0-0.2c-1.6-14.5-3.2-29.1-4.5-43.6c-0.6-6.4-1.1-12.8-1.6-19.2c-0.1-1.3-0.2-2.7-0.3-4c-0.1-1.3-0.2-2.6-0.3-4
			c-0.3-3.9-0.5-7.8-0.7-11.7c-0.1-1.3-0.1-2.6-0.2-3.8c-0.2-3.8-0.3-7.5-0.4-11.3c-0.1-3-0.2-6.1-0.3-9.3l11.8-3.2l5.1-1.3
			c-0.1-1.5-0.2-3-0.4-4.4c0-0.1,0-0.1,0-0.2l-38.4,8.3c-0.8-7.9-1.1-15.9-0.8-23.9c-2,8.2-3.6,16.3-3.3,24.7l-0.2,0
			c0,0,0.1,0.7,0.2,1.5h0.1c0.1,0.9,0.1,1.7,0.3,2.6c0,0.5,5.5,47.2,8.1,70.6c1.3,12.4,4.5,24.6,8.1,36.5c1.5,5,3.2,9.9,4.5,14.9
			c1.5,6.3,6.5,10.8,5,18c-0.9,4.4-4,8.5-3.5,12.9c0.5,3.8,3.4,6.6,5,9.9c1.7,3.6,1.1,7.5,2.5,11.3c1.1,2.8,2.4,5.5,3,8.4
			c0.9,4.4,0.1,9-1.6,13.1c1-3.9,0.3-8.2-1.8-11.7c0.6,4.9-0.1,9.9-2,14.4c-0.2,0.5-0.5,1-0.9,1.3c-0.6,0.5-1.5,0.5-2.3,0.4
			c-2.8-0.4-5.2-2.1-7.8-3.1C322.9,482.4,314.3,484,307.5,486.3z"/>
		<g>
			<g>
				<path class="st0" d="M347.2,447c0.3,0.6,0.6,1.8,0.5,2.5c-0.1,0.8-0.5,1.2-0.3,2.2c0.2,0.9,0.4,1.8,1,2.6c1,1.4,2.8,1.9,4.4,2.2
					c2.9,0.5,5.9,0.9,8.8,0.6c3.1-0.4,5.6-2.1,8-3.9c1.7-1.2,3.3-2.6,3.9-4.6c0.4-1.4,0.3-2.8-0.1-4.1c-0.4-1.3-1-2.7-1.6-3.9
					c-0.8-1.8-1.7-3.5-2.7-5.1c-1-1.6-2-3.1-2.4-4.9c-0.3-1.3-0.5-2.7-0.7-4c-1-6.4-1.9-12.9-2.9-19.3c-1.6-11.4-0.6-23.3-0.7-34.9
					c-0.1-12-2.7-23.3-5.1-35c-3.5-16.8-1.4-33.6-3.7-50.4l0-0.4l-29.3,4.4c0,34.6,7.8,58.1,7.8,58.1c-3.2,20.7,8.4,50.8,14.8,65.2
					c2.3,5.3,1.7,11.2-1.5,15.3c-1.5,1.9-2.7,3.9-2.9,6.1c-0.3,3.1-0.5,6.7,1.8,8.9c0.2,0.2,0.5,0.4,0.8,0.6c0.5,0.4,1,0.7,1.4,1.1
					c0,0,0.1,0,0.1,0.1C346.7,446.4,347,446.7,347.2,447z"/>
			</g>
			<path class="st1" d="M347.2,447c0.3,0.6,0.6,1.8,0.5,2.5c-0.1,0.8-0.5,1.2-0.3,2.2c0.2,0.9,0.4,1.8,1,2.6c1,1.4,2.8,1.9,4.4,2.2
				c2.9,0.5,5.9,0.9,8.8,0.6c3.1-0.4,5.6-2.1,8-3.9c1.7-1.2,3.3-2.6,3.9-4.6c0.4-1.4,0.3-2.8-0.1-4.1c-0.8,0.8-1.7,1.5-2.5,2.3
				c-0.6,0.5-1.2,1-1.8,1.4c-1.3,0.8-2.8,1.3-4.3,1.8c-2.6,0.8-5.3,1.6-8,1c-0.4-0.1-0.8-0.2-1.1-0.4c-0.3-0.3-0.5-0.6-0.7-0.9
				c-1.4-2.3-1.9-4.8-3.5-7c-2.4-3.3-1.1-7.8,1.4-13.4c2.5-5.5-0.5-11.3-6.4-24.9c-5.9-13.6-8.8-35.6-9.2-46.2
				c-0.4-10.6,9-11.9,9-11.9s-4.2-0.6-10.3-3.3c-6.1-2.7-7-30.9-6.3-39.7c0.5-7.3,18.4-14.5,24.1-16.6l0-0.4l-29.3,4.4
				c0,34.6,7.8,58.1,7.8,58.1c-3.2,20.7,8.4,50.8,14.8,65.2c2.3,5.3,1.7,11.2-1.5,15.3c-1.5,1.9-2.7,3.9-2.9,6.1
				c-0.3,3.1-0.5,6.7,1.8,8.9c0.2,0.2,0.5,0.4,0.8,0.6c0.5,0.3,1,0.7,1.4,1.1c0,0,0.1,0,0.1,0.1C346.7,446.4,347,446.7,347.2,447z"
				/>
		</g>
		<path class="st7" d="M367.1,415.2l-25.5,1c0,0-12.7-34.5-15.2-58.2c-2.6-23.7-9.1-75.1-9.1-75.1l38.6-8.3c0,0,7.3,51.6,6.8,78.6
			C362,380.2,364.6,400.4,367.1,415.2z"/>
		<path class="st1" d="M367.1,415.2c0,0-25.5,1-25.5,1c0-0.1,0-0.1-0.1-0.2c-1.3-3.5-2.5-7-3.6-10.5c-1.1-3.2-2.1-6.4-3-9.7
			c-0.5-1.8-1-3.7-1.6-5.5c-0.4-1.2-1.1-2.1-1.2-3.5c4.1,8.1,10.1,15.1,18.5,18.7c1.1,0.5,2.2,0.9,3.3,1.1c1.3,0.2,2.5,0.3,3.8,0.2
			c1.4,0,2.8-0.1,4.2-0.2c1.3-0.1,2.9-0.4,3.5-1.6C365.5,405.9,366.9,415.2,367.1,415.2z"/>
		<path class="st17" d="M337.4,413.9l0.4,4.6c0.1,1.3,1.3,2.3,2.6,2.2l27.1-2.2c2.1-0.2,3.6-2.1,3.2-4.2c-0.1-0.8-0.3-1.6-0.4-2.4
			c-0.3-1.8-2-3.1-3.8-2.9l-26.8,2.2C338.3,411.4,337.3,412.6,337.4,413.9z"/>
	</g>
	<g>
		<path class="st7" d="M254.4,208.5c0,0-6.7,2.6-9.4,7c-0.5,0.8-0.9,1.7-1,2.6c-0.1,0.3-0.1,0.6-0.1,1c-0.2,6.6-24.1-24.9-24.1-24.9
			s6.6-8.3,10.1-12.9l18.2,21.4L254.4,208.5z"/>
		<path class="st7" d="M286.3,194.1c0,0-21.2,31.5-21.4,24.9c0-0.3-0.1-0.6-0.1-1c-0.2-0.9-0.5-1.8-1-2.6c-2.6-4.4-9.3-7-9.3-7
			l6.3-5.8l18.2-21.4C282.4,186.8,286.3,194.1,286.3,194.1z"/>
	</g>
	<path class="st19" d="M206.8,103.4c0.6,0.9,1,2,1.2,3c0.3,1.4,0.4,2.9,0.4,4.4c0,0.9-0.3,1.8-0.3,2.7c0.1,2.5,2,4.5,2.4,7
		c0.3,2.2-0.3,4.3-0.9,6.4c1.5-1.8,3.1-3.6,4.3-5.7c1.8-3.1,2.3-6.3,1.7-9.8c-0.5-2.9-2.2-5.8-1.6-8.8c0.4-1.7,1.5-3.1,2.2-4.7
		c1.5-3,2.3-6.8,0.5-9.6c0.7,2.7,1.3,5.4,2,8c5.7-0.3,11.4-0.6,17.1-1c0.4-2,0.8-4,1.2-5.9c0.4,1.9,0.7,3.8,1.1,5.8
		c6.7-0.5,13.3-1,20-1.5c0.2-3,0.3-5.9,0.5-8.9c0.3,0.8,0.5,1.6,0.8,2.3c0.5-2.5,1-4.9,1.4-7.4c1,4.6,1.9,9.2,2.9,13.9
		c7.8-1.1,15.9-0.7,23.6,1.2c0-2.1,0.1-4.2,0.1-6.3c0.8,1.7,1.5,3.4,2.3,5.1c0.6-2.9,1.2-5.8,1.8-8.7c3.1,14.5,6.1,28.9,9.2,43.4
		c0.4-4.6,0.9-9.2,1.6-13.8c0.3-2.2,0.7-4.4,1.8-6.3c1.1-1.9,3-3.5,5.2-3.6c2.2-0.1,4.5,1.6,4.5,3.8c0-1.9,1.5-4.5,2-6.4
		c0.6-2.3,1.1-4.7,1.5-7.1c4.3-26.3-7.8-54.7-32.6-66.5c-10.7-5.1-23.1-6.4-34.6-3.6c-6.7,1.6-13.5,4.9-17.1,10.8
		c-4.4-1.5-9.3-0.8-13.5,1.2c-4.2,2-7.6,5.3-10.5,8.9c-6.5,8.1-10.2,18.1-11.9,28.3c-0.9,5.2-1.2,10.4-1.2,15.7c0,2.4,0,4.9,0.1,7.3
		c0,0.7,0.9,6.5,1.1,6.3c0.9-0.9,2.1-1.8,3.3-2.2c1.3-0.4,2.8-0.4,4,0.2C205.5,101.9,206.2,102.6,206.8,103.4z"/>
	<path class="st7" d="M254.2,223.8c0,1.4-1.2,2.6-2.6,2.6c-1.4,0-2.6-1.2-2.6-2.6c0-1.4,1.2-2.6,2.6-2.6
		C253,221.1,254.2,222.3,254.2,223.8z"/>
	<path class="st7" d="M255.7,239.7c0,1.4-1.2,2.6-2.6,2.6c-1.4,0-2.6-1.2-2.6-2.6c0-1.4,1.2-2.6,2.6-2.6
		C254.5,237.1,255.7,238.2,255.7,239.7z"/>
	<path class="st7" d="M256.8,259.8c0,1.4-1.2,2.6-2.6,2.6c-1.4,0-2.6-1.2-2.6-2.6s1.2-2.6,2.6-2.6
		C255.6,257.2,256.8,258.3,256.8,259.8z"/>
	<g class="st1">
		<path d="M256,304.6c-0.3,1.7-0.6,3.4-0.9,5.1c-2.3,13.3-2.3,62-2.2,79.6l-1.2-7.2l-1.5,7.4c-0.1-17.6-0.1-66.5,2.3-80.2
			c0.3-1.7,0.6-3.5,0.9-5.1c2.5-14.1,4.9-27.4,3.5-51.2c-1.6-26.4-3.8-44.1-3.9-44.3l2.7-0.3c0,0.2,2.3,18,3.9,44.5
			C261,276.8,258.6,290.3,256,304.6z"/>
	</g>
	<path class="st20" d="M292.1,61.7c-21.6-6.6-50.7-6.6-72.3,0c-1.5,0.5-2.8-0.4-3.6-1.7c-8.1-12.9-12.9-26.4-13.2-45.7
		c0-1.5,0.3-3.1,1.8-3.5c33.2-10.4,69-10.4,102.2,0c1.5,0.5,1.9,2,1.8,3.5c-1.3,17.6-3.1,29.5-13.2,45.7
		C294.8,61.3,293.6,62.2,292.1,61.7z"/>
	<path class="st1" d="M297.7,56.6c-0.6,1.1-1.3,2.3-2.1,3.4c-0.8,1.3-2.1,2.2-3.6,1.7c-21.6-6.6-50.7-6.6-72.3,0
		c-1.5,0.4-2.7-0.4-3.6-1.7c-8.1-12.9-12.8-26.4-13.2-45.7c0-1.5,0.3-3.1,1.8-3.5c1.5-0.5,3-0.9,4.5-1.3c0.2,17.9,4.6,31,12.1,43.5
		c0.8,1.3,2,2.2,3.5,1.8c21.8-6.1,50.9-5.4,72.3,1.7C297.4,56.5,297.5,56.6,297.7,56.6z"/>
</g>
</svg>
