<?xml version="1.0" encoding="utf-8"?>
<!-- Generator: Adobe Illustrator 24.1.0, SVG Export Plug-In . SVG Version: 6.00 Build 0)  -->
<svg version="1.1" id="OBJECTS" xmlns="http://www.w3.org/2000/svg" xmlns:xlink="http://www.w3.org/1999/xlink" x="0px" y="0px"
	 viewBox="0 0 500 500" style="enable-background:new 0 0 500 500;" xml:space="preserve">
<style type="text/css">
	.st0{fill:#153556;}
	.st1{fill:#1C4B72;}
	.st2{clip-path:url(#SVGID_2_);fill:none;stroke:#0A1D35;stroke-width:2;stroke-miterlimit:10;}
	.st3{clip-path:url(#SVGID_2_);fill:#4FC9B8;}
	.st4{opacity:0.3;clip-path:url(#SVGID_2_);fill:#9B9B9B;}
	.st5{opacity:0.5;clip-path:url(#SVGID_2_);fill:#9B9B9B;}
	.st6{clip-path:url(#SVGID_2_);fill:#FFFFFF;}
	.st7{clip-path:url(#SVGID_2_);}
	.st8{fill:#C7DAEA;}
	.st9{clip-path:url(#SVGID_2_);fill:#C7DAEA;}
	.st10{clip-path:url(#SVGID_2_);fill:#95B3C6;}
	.st11{clip-path:url(#SVGID_2_);fill:#0E263F;}
	.st12{clip-path:url(#SVGID_2_);fill:#F29A86;}
	.st13{clip-path:url(#SVGID_2_);fill:#FFAF99;}
	.st14{fill:#0E263F;}
	.st15{opacity:0.5;clip-path:url(#SVGID_2_);fill:#E5886E;}
	.st16{clip-path:url(#SVGID_2_);fill:#E2E2E2;}
	
		.st17{clip-path:url(#SVGID_2_);fill:none;stroke:#0A1D35;stroke-width:2;stroke-linecap:round;stroke-linejoin:round;stroke-miterlimit:10;}
	.st18{clip-path:url(#SVGID_2_);fill:#0A1D35;}
	.st19{fill:none;}
	.st20{clip-path:url(#SVGID_4_);fill:#FFFFFF;}
	.st21{fill:#FFFFFF;}
	.st22{fill:#FFFFFF;stroke:#FFFFFF;stroke-linecap:round;stroke-linejoin:round;stroke-miterlimit:10;}
	.st23{fill:none;stroke:#FFFFFF;stroke-linecap:round;stroke-linejoin:round;stroke-miterlimit:10;}
	.st24{opacity:0.3;fill:#FFFFFF;}
</style>
<g>
	<g>
		<g>
			<g>
				<path class="st0" d="M352.4,485c0,8.3-6.8,15-15,15H158.9c-8.3,0-15-6.8-15-15V110.6c0-8.3,6.8-15,15-15h178.5
					c8.3,0,15,6.8,15,15V485z"/>
			</g>
			<rect x="150.2" y="122.6" class="st1" width="196.7" height="331.6"/>
			<g>
				<defs>
					<rect id="SVGID_1_" x="126.6" width="251.6" height="454.1"/>
				</defs>
				<clipPath id="SVGID_2_">
					<use xlink:href="#SVGID_1_"  style="overflow:visible;"/>
				</clipPath>
				<path class="st2" d="M224.7,131.5c13.9-7.8,38.6-8.4,49.7,1.1"/>
				<polygon class="st3" points="217.5,135.2 230,129.2 258.9,114.8 271.4,131.3 284.5,136.8 303.3,142.4 296.7,432.7 215.2,434 
					202.6,166.5 				"/>
				<path class="st4" d="M217.5,135.7c-2.3,45.5,34.3,98.5,34.8,131.9c0,0,11.7-44.3,16.7-60.1c5-15.8,17.3-60,15.5-70.7l10.7,120.8
					l-36.5,22.8l-39.2-18.7c0,0-11.2-64.4-11.2-66.2C209.3,150.3,217.5,135.7,217.5,135.7z"/>
				<path class="st3" d="M249,493.3c-0.9,10.6-10.3,110.9-28.4,204.4c-18.4,95-13.7,191.6-13.7,191.6s-6.2,2.7-19.2,3.6
					c-12.1,0.9-22.3-2.7-22.3-2.7s-8.9-148.8-1-203.4c12.3-84.9-5.3-215.6,7.9-256.2c0,0,21.7-25,46.7-25.3
					c25.5-0.4,57.2-0.7,80.8-0.5c14.4,0.1,23.4,25,28.6,25.7c1,27.9,9.4,144.5,2.1,250c-6.4,94-0.9,177.6-0.6,204.8
					c0,0-6.2,4.8-24,6.5c-17.5,1.7-24.1-3-24.1-3s-15.9-151.5-12.4-208c2.9-46.2-12.8-187.4-12.8-187.4L249,493.3z"/>
				<path class="st5" d="M170.1,654.5c25.7,12.1,76.8,9,80.4-72.9l7.5,0c2.6,24.8,10.4,59.8,36.4,67.8c23.4,7.2,37.8,4.5,40.4,3.7
					l-27.2-156.2l-45.6-107.7l-13.4,0.1l-72.4,221.9l-6.1,29.3V654.5z"/>
				<path class="st6" d="M252.7,270.3c0.1-6.6,23.2-59.8,30.1-99.9c3.5-20.6,1.7-24.9,1.7-33.6c12.1,2.8,21.6,5.2,41,13.2l4.3,72.8
					c1.6,13-1,70.8,1.4,123.9c1.2,28.2,8.6,109,8.9,112.6c4.9,49.8,8.8,75.5,9.9,87.7c0.1,0.9-20.7,12.6-49.5,3.1
					c-15.1-5-34.6-32.7-36.9-86.2C260.4,393.6,252.7,270.7,252.7,270.3z"/>
				<path class="st6" d="M253.2,277.5c0-29.8-27.7-69.1-35.1-104.4c-3.6-17.2-3.4-30.6-0.6-38c-9.2,4.4-36.4,11.2-48,18.4l1.4,78.9
					c1.3,18.5,2.9,60.4,1.9,104.3c-1.5,67.8-20.1,137-36.9,203c-0.1,0.3,40.9,23.4,76.6,12c27.7-8.8,32.6-60.6,32.4-101.5
					C245,450.2,253.2,279,253.2,277.5z"/>
				<g class="st7">
					<path class="st8" d="M265.6,334.9c0,3.2,2.6,5.8,5.8,5.8c3.2,0,5.8-2.6,5.8-5.8c0-3.2-2.6-5.8-5.8-5.8
						C268.2,329.1,265.6,331.7,265.6,334.9z"/>
				</g>
				<g class="st7">
					<path class="st8" d="M268.6,383.3c0,3.2,2.6,5.8,5.8,5.8c3.2,0,5.8-2.6,5.8-5.8c0-3.2-2.6-5.8-5.8-5.8
						C271.2,377.5,268.6,380.1,268.6,383.3z"/>
				</g>
				<path class="st6" d="M176.1,277.5c21-0.7,52.6-1.4,87.3-1.4c9,0.2,5.5,33.3,2.1,27.9c-18.9,0.6-123.3,27.7-129.3,13.1
					c-4.1-9.9,18.7-137.6,28.8-158.1c5.8-8.9,11.3-12.3,23.9,3.1c9.4,11.6,3,38.4,0.6,45.7C185.7,219.5,176.1,277.5,176.1,277.5z"/>
				<path class="st9" d="M259.4,314.3c0,0,68,13.8,71.8,25.8l-0.4-14.7L259.4,314.3z"/>
				<path class="st9" d="M173.1,319.8l60.7-10.6c0,0-60.5,14.1-60.9,25.7"/>
				<path class="st9" d="M184.4,277.2l-8.3,0.3l10.1-55.9C186.3,221.5,181,269.2,184.4,277.2z"/>
				<path class="st9" d="M214.8,442.2c0,0-3.7,58.6-15.1,61.5c-10.1,2.6-33.4-3.8-33.4-3.8s29.5,9.3,36.6,6
					C215.4,500,214.8,442.2,214.8,442.2z"/>
				<path class="st9" d="M285,444.1c0,0,5.1,55.8,16.4,59.2c9.9,3,29.8,0.3,29.8,0.3s-26.1,5.3-33,1.7
					C285.8,499,285,444.1,285,444.1z"/>
				<path class="st9" d="M202.7,215.6c0,4.4-3.6,7.9-7.9,7.9c-4.4,0-7.9-3.5-7.9-7.9c0-4.4,3.6-7.9,7.9-7.9
					C199.2,207.7,202.7,211.3,202.7,215.6z"/>
				<path class="st10" d="M199.2,215.6c0,2.4-2,4.4-4.4,4.4c-2.4,0-4.4-2-4.4-4.4c0-2.4,2-4.4,4.4-4.4
					C197.2,211.2,199.2,213.2,199.2,215.6z"/>
				<path class="st11" d="M252.2,70.2c0,15.2-12.3,27.5-27.4,27.5c-15.2,0-27.5-12.3-27.5-27.4c0-15.2,12.3-27.5,27.4-27.5
					C239.9,42.8,252.2,55.1,252.2,70.2z"/>
				<path class="st12" d="M297.8,66.3c-0.9,6.9-6.3,15.8-11.4,13.1c-4.1-2.2-7.6-5.7-6.7-12.7c0.9-6.9,4.5-10.3,10-11.4
					C295.6,54.1,298.7,59.3,297.8,66.3z"/>
				<path class="st13" d="M296.1,57.5c-1.1-1.4-7-2.1-8.8,3.1l0.6-4.9c0,0,1.9-0.9,4.2-0.5C295.1,55.6,296.1,57.5,296.1,57.5z"/>
				<path class="st12" d="M208.5,66.3c0.9,6.9,6.3,15.8,11.4,13.1c4.1-2.2,7.6-5.8,6.7-12.7c-0.9-6.9-4.5-10.3-10-11.4
					C210.7,54.1,207.6,59.4,208.5,66.3z"/>
				<path class="st13" d="M210.1,57.6c1.1-1.4,7-2.1,8.8,3.1l-0.6-4.9c0,0-1.9-0.9-4.2-0.5C211.1,55.7,210.1,57.6,210.1,57.6z"/>
				<path class="st13" d="M232.4,103.1c1.7,7-1.7,22.2-2.4,26.1c-1.4,0.5-9,4.3-9,4.3c0,8.2,1.3,21,9.5,30.2
					c9.6,10.7,19.6,25.3,19.6,37.6l2.5,0.1c0-13.2,10.4-27.7,20.9-39c9.4-10.1,7.3-22,7.3-27.1l-9.4-3.9c-0.5-1.5-3.2-14.5-0.3-25.7
					L232.4,103.1z"/>
				<path class="st12" d="M232.6,106.4c0,0,0.2,2.7-0.3,7.3c0,0,10.6,15.2,18.6,15.6c8,0.4,18.9-12.8,18.9-12.8s0.2-9.1,0.8-12.9
					L232.6,106.4z"/>
				<path class="st13" d="M288.8,57.6c-0.9,19.3-17.2,34.3-36.5,33.5c-19.3-0.9-34.3-17.2-33.5-36.6c1.1-26,17.4-37.7,36.7-36.9
					C274.8,18.4,289.9,32.1,288.8,57.6z"/>
				<path class="st13" d="M288.8,57.6c-0.8,18.7-1.5,34.4-9.1,44.3c-4.6,5.9-16.2,16-24.4,18.3c-2,0.6-7.8,0-9.7-0.8
					c-7.9-3.2-17.7-13.9-21.6-19.9c-6.7-10.5-6-26.2-5.2-44.9"/>
				<path class="st11" d="M274,71.1c-0.1,3.2-2.2,5.7-4.5,5.6c-2.4-0.1-4.2-2.8-4-6c0.1-3.2,2.2-5.7,4.5-5.6
					C272.3,65.3,274.1,67.9,274,71.1z"/>
				<path class="st11" d="M241.3,69.8c-0.1,3.2-2.2,5.7-4.5,5.6c-2.4-0.1-4.2-2.8-4-6c0.1-3.2,2.2-5.7,4.5-5.6
					C239.6,64,241.4,66.7,241.3,69.8z"/>
				<g class="st7">
					<path class="st14" d="M260.3,54.9c2-0.4,4-0.6,6-0.5c2,0,4,0.2,6,0.5c2,0.4,3.9,0.8,5.8,1.7c1.9,0.8,3.7,1.9,5,3.5
						c0.1,0.1,0.1,0.3,0,0.4c-0.1,0.1-0.2,0.1-0.3,0.1l0,0c-1.9-0.7-3.7-1.1-5.5-1.6c-1.8-0.4-3.7-0.8-5.5-1.2l-5.6-1.1
						c-1.9-0.4-3.8-0.7-5.7-1.2l0,0c-0.2,0-0.3-0.2-0.2-0.4C260.1,55,260.2,54.9,260.3,54.9z"/>
				</g>
				<g class="st7">
					<path class="st14" d="M245.9,55.9c-3.8,0.7-7.5,1.2-11.1,1.9c-1.8,0.3-3.6,0.7-5.4,1.1c-1.8,0.4-3.5,0.9-5.3,1.5l0,0
						c-0.2,0.1-0.4,0-0.5-0.3c0-0.1,0-0.3,0.1-0.4c1.4-1.5,3.2-2.5,5-3.3c1.8-0.8,3.8-1.2,5.7-1.6c1.9-0.3,3.9-0.4,5.8-0.4
						c1.9,0,3.9,0.2,5.8,0.7c0.2,0.1,0.4,0.3,0.3,0.5C246.2,55.8,246.1,55.9,245.9,55.9L245.9,55.9z"/>
				</g>
				<path class="st12" d="M246.2,89.7c2.1-0.8,9.4-0.5,11.1,0.5c1.7,1-3.8,2-5.6,1.9C249.8,92,244.6,90.4,246.2,89.7z"/>
				<path class="st15" d="M256.1,110.4c-3.2-0.7-8.7-0.8-11.2-0.5c-1.8,0.2,2.4-1.4,5.6-1.2C253.5,108.8,257.8,110.8,256.1,110.4z"
					/>
				<path class="st6" d="M240.9,97.2c6.7,2.3,15,2.3,21.5,1.8c0.8-0.1,0.4,0.1-0.3,1c-1.3,1.5-5.4,6-10.8,5.7
					c-5.2-0.3-9.8-6.8-10.9-8.7C239.8,96.2,240.3,96.9,240.9,97.2z"/>
				<path class="st12" d="M239.2,95.8c4.3,0.7,9.6-1.7,12,1c3.4-2.1,9.1,1.7,13.5,1.7c0.1,0,0.2,0.2-0.1,0.2
					c-2.3,0.7-15.3,3.3-25.5-2.4C238.6,96,238.7,95.7,239.2,95.8z"/>
				<path class="st12" d="M239.5,96.4c0,0,3.4,5.6,5.8,7.9c2.3,2.2,9,2.9,11.7,1.1c2.5-1.7,6.6-6.6,6.6-6.6s-1,0.3-1,0.3
					c-2.4,1.4-3.8,2.9-6.5,3.8c-2.7,0.9-5.6,1-8.2,0.1c-3.5-1.1-4.2-3.7-6.6-5.6c0,0-1.2-0.7-1.2-0.7L239.5,96.4z"/>
				<path class="st16" d="M241.9,97.6c1.8,1.4,5.2,2.7,9.6,3c5.2,0.4,10.8-1.4,10.8-1.4s-5.6,0.8-10.5,0.6
					C246.5,99.6,241.9,97.6,241.9,97.6z"/>
				<path class="st17" d="M195,215.6c-1.9-33.5,6.9-75,34.3-86.4"/>
				<path class="st9" d="M215.9,138.4l-3.9,98l14.7,1.6l-10.9,11.4l37.6,24.9c0,0-0.3-16.9-21.2-61
					C217.1,181.3,216.6,164.6,215.9,138.4z"/>
				<path class="st9" d="M284.5,136.8l7.2,99.7l-13.9,1.6l11,11.4l-35.3,24.9l-0.8-5.7c0,0,16.2-43.3,23.3-69.6
					C285.1,165.6,284.5,136.8,284.5,136.8z"/>
				<path class="st13" d="M324.1,278c-21-0.7-63.5-12-98.2-11.9c-2.3,0.1-32,8-32.1,11.5c4.5-0.3,13.8,0.9,22.3,5.9
					c11.1,6.6,21.3,17.4,22.7,15.1c18.9,0.5,117.6,37.5,125.7,23.9c8.5-14.2-0.2-44.8-2.7-59.3c-4.6-27.3-9.8-54.9-17.1-81.6
					c-5-18.3-19.9-47.4-38.6-22.9c-9.1,11.9-0.5,43.5,4.3,49.5C314.9,214.3,324.1,278,324.1,278z"/>
				<path class="st12" d="M258.8,305.3l-21.8-10c0,0-23.9-18.6-41.8-19.1l-1.5,1.3c0,0,21.6,0.4,32.5,14.3
					c5.1,6.5,16.5,8.3,19.5,15.7C245.8,307.5,255.2,305.9,258.8,305.3z"/>
				<path class="st6" d="M248.2,267.3c0,0-11.7,21.5-0.3,45.1c0,0,104.4,17.9,115.8,14c11.4-3.9,2.2-50-1.3-67.5
					c-3.4-17.5-14.9-103-38.9-109.6l-9.6-3.8l-12.8,6.1c0,0-8.9,30.4-9.1,31.1c-0.2,0.7,1.7,48.5,1.7,48.5l25.5,41.2L248.2,267.3z"
					/>
				<path class="st13" d="M320.9,257.5c8.7,1.4,13.5,24.5,1.2,26.2c-7.5,1-12.3-1.7-18.3-6.8c-5.1-4.4-18.4-6.9-26.1-7.4
					C277.8,269.5,305.9,255.1,320.9,257.5z"/>
				<path class="st9" d="M316.9,218.6c0.5,1.9,4.1,38.9,4.1,38.9s-3.8-0.7-8.2,0C312.7,257.5,319.3,254.1,316.9,218.6z"/>
				<path class="st18" d="M281.8,249.2c0,1.3-1.1,2.4-2.4,2.4c-1.3,0-2.4-1.1-2.4-2.4c0-1.3,1.1-2.4,2.4-2.4
					C280.7,246.8,281.8,247.8,281.8,249.2z"/>
				<path class="st18" d="M308.9,249.2c0,1.3-1.1,2.4-2.4,2.4c-1.3,0-2.4-1.1-2.4-2.4c0-1.3,1.1-2.4,2.4-2.4
					C307.8,246.8,308.9,247.8,308.9,249.2z"/>
				<path class="st18" d="M279.6,249.2c0,1-0.8,1.8-1.8,1.8h-1.4c-1,0-1.8-0.8-1.8-1.8l0,0c0-1,0.8-1.8,1.8-1.8h1.4
					C278.7,247.3,279.6,248.2,279.6,249.2L279.6,249.2z"/>
				<path class="st18" d="M311,249.2c0,1-0.8,1.8-1.8,1.8h-1.4c-1,0-1.8-0.8-1.8-1.8l0,0c0-1,0.8-1.8,1.8-1.8h1.4
					C310.2,247.3,311,248.2,311,249.2L311,249.2z"/>
				<path class="st17" d="M271.9,130.6c16,9.8,18.9,32.2,21.7,53.9"/>
				<path class="st2" d="M279.4,249.2c-18.8-43.9,14.2-64.7,14.2-64.7s35.3,21.4,12.8,64.7"/>
				<g class="st7">
					<path class="st8" d="M267.8,334.1c0,1.9,1.6,0,3.5,0c2,0,3.5,1.9,3.5,0c0-2-1.6-3.5-3.5-3.5
						C269.4,330.5,267.8,332.1,267.8,334.1z"/>
				</g>
				<g class="st7">
					<path class="st8" d="M270.8,382.8c0,2,1.6,0,3.5,0c2,0,3.5,1.9,3.5,0c0-1.9-1.6-3.5-3.5-3.5
						C272.4,379.3,270.8,380.9,270.8,382.8z"/>
				</g>
				<path class="st13" d="M288.6,64.5c0,0,2.6,3.5,2.2,5.6c-0.4,2.1-3.1,3.8-3.1,3.8L288.6,64.5z"/>
				<path class="st13" d="M217.8,64.5c0,0-2.6,3.5-2.2,5.6c0.4,2.1,3.1,3.8,3.1,3.8L217.8,64.5z"/>
				<path class="st12" d="M218.7,67.9c0.2-7.3,4.9-22.6,11.8-27.4c7-4.9,11.4-12,11.4-12s-0.2,10.1,12.6,13.1
					c14,3.2,27.3,5.6,31.8,16.5l0.8-4.9l-44-34.4l-20.2,22.9l-5.7,13.8L218.7,67.9z"/>
				<path class="st11" d="M287.6,72.9c-0.2-9.6,0.5-17.2-7.3-24.1c-11-9.7-20.7-6.3-29.5-12.3c-8.2-5.6-9.1-14.4-8.2-23
					C243,9.1,253,6.6,260.4,8c24,4.6,30.4,29.6,29.5,48.8C289.4,66.7,287.6,72.9,287.6,72.9z"/>
				<path class="st11" d="M242.3,22.1c-1.7,5.8-6.3,10.5-12.1,14.9c-11.6,8.8-12,31.6-11.3,37.7c0,0-4.2-11.8-4.4-25.9
					c-0.3-19.8,16-44.1,29.3-35.1C243.5,16.7,243,19.5,242.3,22.1z"/>
			</g>
			<path class="st19" d="M324.3,130.4c0.6,0,1.1-0.5,1.1-1.2c0-0.6-0.5-1.1-1.1-1.1c-0.6,0-1.2,0.5-1.2,1.1
				C323.2,129.9,323.7,130.4,324.3,130.4z"/>
			<g>
				<g>
					<defs>
						<rect id="SVGID_3_" x="325.7" y="127" width="15.7" height="8.5"/>
					</defs>
					<clipPath id="SVGID_4_">
						<use xlink:href="#SVGID_3_"  style="overflow:visible;"/>
					</clipPath>
					<path class="st20" d="M341.2,127h-14c-0.1,0-0.2,0.1-0.2,0.2v2.1h-1.1c-0.1,0-0.2,0.1-0.2,0.2v3.5c0,0.1,0.1,0.2,0.2,0.2h1.1
						v2.1c0,0.1,0.1,0.2,0.2,0.2h14c0.1,0,0.2-0.1,0.2-0.2v-8.1C341.4,127.1,341.3,127,341.2,127L341.2,127z M339.3,133.3h-4.4v-4.1
						h4.4V133.3z"/>
				</g>
				<path class="st21" d="M321.7,131.3L321.7,131.3c0.2-0.4,0.3-0.9,0.3-1.3c0-1.7-1.3-3-3-3c-1.7,0-3,1.4-3,3
					c0,0.5,0.1,0.9,0.3,1.3l0,0c0,0,0,0.1,0.1,0.2c0,0.1,0.1,0.1,0.1,0.2c0.6,0.9,1.9,3.1,2.1,3.5c0.3,0.4,0.5,0.3,0.7,0
					c0.2-0.2,1.6-2.6,2.1-3.5c0-0.1,0.1-0.1,0.1-0.2C321.6,131.4,321.7,131.3,321.7,131.3z M319,128.5c0.8,0,1.5,0.7,1.5,1.5
					c0,0.8-0.7,1.5-1.5,1.5c-0.8,0-1.5-0.7-1.5-1.5C317.5,129.2,318.1,128.5,319,128.5z"/>
				<rect x="304.6" y="131.5" class="st22" width="0.9" height="3.3"/>
				<rect x="307.5" y="129.3" class="st22" width="0.9" height="5.5"/>
				<rect x="310.5" y="127.1" class="st22" width="0.9" height="7.7"/>
			</g>
			<polygon class="st23" points="187.3,476.1 181.5,470.3 175.7,476.1 175.7,481.9 187.3,481.9 			"/>
			<path class="st23" d="M254,476.1c0,3.2-2.6,5.8-5.8,5.8c-3.2,0-5.8-2.6-5.8-5.8c0-3.2,2.6-5.8,5.8-5.8
				C251.4,470.3,254,472.9,254,476.1z"/>
			<g>
				<line class="st23" x1="316.8" y1="481.9" x2="316.8" y2="472.2"/>
				<line class="st23" x1="312.5" y1="481.9" x2="312.5" y2="472.2"/>
				<line class="st23" x1="308.3" y1="481.9" x2="308.3" y2="472.2"/>
			</g>
			<path class="st21" d="M163.8,110.1c0,1.7-1.4,3.1-3.1,3.1c-1.7,0-3.1-1.4-3.1-3.1c0-1.7,1.4-3.1,3.1-3.1
				C162.4,107,163.8,108.4,163.8,110.1z"/>
			<path class="st24" d="M172.7,110.1c0,1.7-1.4,3.1-3.1,3.1c-1.7,0-3.1-1.4-3.1-3.1c0-1.7,1.4-3.1,3.1-3.1
				C171.4,107,172.7,108.4,172.7,110.1z"/>
		</g>
	</g>
</g>
<g>
</g>
<g>
</g>
<g>
</g>
<g>
</g>
<g>
</g>
<g>
</g>
<g>
</g>
<g>
</g>
<g>
</g>
<g>
</g>
<g>
</g>
<g>
</g>
<g>
</g>
<g>
</g>
<g>
</g>
</svg>
