<?xml version="1.0" encoding="utf-8"?>
<!-- Generator: Adobe Illustrator 24.1.0, SVG Export Plug-In . SVG Version: 6.00 Build 0)  -->
<svg version="1.1" xmlns="http://www.w3.org/2000/svg" xmlns:xlink="http://www.w3.org/1999/xlink" x="0px" y="0px"
	 viewBox="0 0 500 500" style="enable-background:new 0 0 500 500;" xml:space="preserve">
<style type="text/css">
	.st0{fill:#FFFFFF;}
	.st1{fill:#F8BA8C;}
	.st2{fill:#0579BD;}
	.st3{fill:#076C9E;}
	.st4{fill:#D89871;}
	.st5{fill:#D39A7A;}
	.st6{fill:#F7BB92;}
	.st7{fill:#EFE8E4;}
	.st8{fill:#3D2216;}
	.st9{fill:#49291D;}
</style>
<g id="Layer_1">
	<g>
		<rect class="st0" width="500" height="500"/>
	</g>
</g>
<g id="Layer_2">
	<g>
		<path class="st1" d="M161.1,179.6c-2.1-10.5-12.1-20.2-25.7-17.2c-13.7,3-13.7,15.8-11.6,26.2c0.1,0.5,6.8,28.9,10.8,34.8
			c4,6,9.7,17.3,19.3,14.1c6.4-2.1,10.1-13.5,11.6-21.6C167,207.7,161.1,179.6,161.1,179.6z"/>
		<path class="st1" d="M335.2,179.1c2.1-10.5,12.1-20.2,25.7-17.2c13.7,3,15,16.1,12.9,26.6c-0.1,0.6-7.4,26.8-10.8,34.8
			c-2.8,6.6-10.4,18.4-20.4,14.3c-6.2-2.6-10.3-14-11.8-22.2C329.4,207.2,335.2,179.1,335.2,179.1z"/>
		<path class="st2" d="M35.4,500h424.3c0,0-8.4-104.2-22.3-119.8c-13.9-15.6-120-50.5-120-50.5l-138.6-0.4
			c0,0-111.6,32.7-119.2,50.9C52,398.5,35.4,500,35.4,500z"/>
		<path class="st3" d="M234.3,329.5l-55.4-0.2c0,0-111.6,32.7-119.2,50.9C52,398.5,35.4,500,35.4,500h56c0,0,16.5-101.5,24.2-119.8
			C122.9,362.7,226.2,331.9,234.3,329.5z"/>
		<path class="st4" d="M193.9,322.5c0,0,35,28.7,54.6,28.7c19.6,0,54.5-28.7,54.5-28.7s-14.8-17.2-4.6-39.8
			c10.2-22.6-113.7-20.8-99.3,0C213.5,303.4,193.9,322.5,193.9,322.5z"/>
		<path class="st5" d="M230.2,346c2.6-7.2,7.8-14.3,16.2-20.5c8.4-6.1,13.4-0.6,48.8-21c-1-6.2-0.6-13.7,3.1-21.9
			c10.2-22.6-113.7-20.8-99.3,0c14.4,20.8-5.2,39.8-5.2,39.8S212.5,337.8,230.2,346z"/>
		<path class="st3" d="M187,320.5l-8.1,8.8c0,0,24.2,59.7,45.1,67.2c6.4,2.3,19.7-27.3,24.4-27.3c2.2,0,20.3,31.4,23,30.7
			c21.5-4.9,46.1-70.3,46.1-70.3l-9.1-6.9l-60,37.8L187,320.5z"/>
		<path class="st1" d="M348.6,100.8c0-45.5-28.2-91.1-102.7-91.1c-74.6,0-101.6,49.9-101.6,95.4c0,2.4-0.2,126,14.2,154.4
			c14.5,28.4,54.3,57.3,89.9,57.5c38.9,0.2,73.9-24.8,90.2-57.5C355,226.8,348.6,100.8,348.6,100.8z"/>
		<path class="st6" d="M172.9,111c0.6,0.5,1.2,0.8,2,1.4c2,1.9-8.2,24.7-5.2,24.9c14.8,3.1,32.5-28.9,46.9-24.4
			c25.4,7.9,73.2,71.9,120.1,70.7c12.3-11.9,11.9-82.8,11.9-82.8c0-45.5-28.2-91.1-102.7-91.1c-61.8,0-90.9,34.3-99.1,71.9
			C158.3,86.5,168,96,172.9,111z"/>
		<g>
			<path class="st7" d="M335.3,265.4c0.2-0.3,0.4-0.5,0.5-0.7c-0.8,0.6-1.7,1.2-2.6,1.7C333.9,266.1,334.6,265.8,335.3,265.4z"/>
			<path class="st6" d="M265.3,307.3c-35.6-0.1-75.4-29.1-89.9-57.5c-14.5-28.4-14.2-152-14.2-154.4c0-20.4,5.7-41.5,18.4-58.7
				c1.3-3.7,2.9-7.4,4.7-10.9c-28.4,18.4-40,49.7-40,79.2c0,2.4-0.2,126,14.2,154.4c14.5,28.4,54.3,57.3,89.9,57.5
				c20.2,0.1,39.2-6.8,55.2-17.8C291.7,304.4,278.7,307.4,265.3,307.3z"/>
		</g>
		<path class="st8" d="M365.3,89.9c-9.2-50-50-86.3-116.9-85.9C181.8,4.4,138,45.3,129.2,91.6c-3.8,19.8-6.7,57.6-5.1,80
			c11.3-9.3,15.9-10.5,21.4-8.3c3.7,40.9,12.6,40.3,12.6,40.3s0.8-27.8,2.6-46.1c1.8-18.3,31.8-21.7,46.9-53.4
			c47.5-2.1,77.6,58.8,129.7,62.2c-5.2,30.1,6.3,42.1,6.3,42.1s1.2-24.9,5.4-36.7c3.7-10.3,14.6-10.3,20-5.8
			C371.6,147.1,370.3,117.6,365.3,89.9z"/>
		<g>
			<path class="st9" d="M365.3,89.9c-9.2-50-50-86.3-116.9-85.9C189.9,4.4,149,35.9,134,74.9c18.7-32.1,56.3-56.2,107.4-56.5
				c66.8-0.4,107.7,35.9,116.9,85.9c3.7,20.3,5.4,41.6,5,59c2.2,0.4,4.2,1.3,5.8,2.5C371.6,147.1,370.3,117.6,365.3,89.9z"/>
		</g>
		<g>
			<path class="st9" d="M207.6,80.3c-15,31.7-63.4,61.6-83.5,67.5c-0.1-1-0.1-2.2-0.1-3.3c-0.4,9.9-0.4,19.4,0.1,27.1
				c11.3-9.3,15.9-10.5,21.4-8.3c3.7,40.9,12.6,40.3,12.6,40.3s0.8-27.8,2.6-46.1c1.8-18.3,31.8-21.7,46.9-53.4
				c47.3-2.1,77.3,58.3,129,62.1C298.5,152.9,255.2,78.2,207.6,80.3z"/>
		</g>
		<path class="st0" d="M187,306.3l-8.1,23c0,0,24.2,45.5,45.1,53c6.4,2.3,19.7-27.3,24.4-27.3c2.2,0,20.3,31.4,23,30.7
			c21.5-4.9,46.1-56.1,46.1-56.1l-9.1-21.1l-60,37.8L187,306.3z"/>
	</g>
	<g>
	</g>
	<g>
	</g>
	<g>
	</g>
	<g>
	</g>
	<g>
	</g>
	<g>
	</g>
	<g>
	</g>
	<g>
	</g>
	<g>
	</g>
	<g>
	</g>
	<g>
	</g>
	<g>
	</g>
	<g>
	</g>
	<g>
	</g>
	<g>
	</g>
</g>
</svg>
