<?xml version="1.0" encoding="iso-8859-1"?>
<!-- Generator: Adobe Illustrator 19.0.0, SVG Export Plug-In . SVG Version: 6.00 Build 0)  -->
<svg version="1.1" id="Capa_1" xmlns="http://www.w3.org/2000/svg" xmlns:xlink="http://www.w3.org/1999/xlink" x="0px" y="0px"
	 viewBox="0 0 512 512" style="enable-background:new 0 0 512 512;" xml:space="preserve">
<path style="fill:#A6D3E8;" d="M76.215,54.717v70.613H5.796c-3.201,0-5.796-2.595-5.796-5.796V54.042
	c0-10.529,4.264-20.051,11.157-26.945C18.001,20.241,27.45,15.989,37.88,15.93C58.965,15.809,76.215,33.632,76.215,54.717z"/>
<path style="fill:#D0F0FE;" d="M390.075,54.042v353.984c0,6.668-5.405,12.073-12.073,12.073H88.287
	c-6.667,0-12.073-5.405-12.073-12.073V54.042c0-21.046-17.067-38.113-38.113-38.113h313.86
	C373.011,15.929,390.075,32.993,390.075,54.042z"/>
<g>
	<path style="fill:#2B2F52;" d="M262.38,196.806l-12.903-16.77l27.348-35.539c2.664-3.463,2.017-8.431-1.445-11.096
		c-3.463-2.665-8.431-2.017-11.097,1.445l-24.791,32.216l-23.974-31.155c19.63-3.019,34.711-20.024,34.711-40.486
		c0-22.587-18.376-40.963-40.962-40.963h-33.664c-4.37,0-7.912,3.542-7.912,7.912v66.1v66.261c0,4.37,3.542,7.912,7.912,7.912
		s7.912-3.543,7.912-7.912v-58.349h12.399l33.59,43.657l-27.345,35.536c-2.664,3.463-2.017,8.431,1.446,11.096
		c1.438,1.107,3.135,1.642,4.819,1.642c2.373,0,4.719-1.063,6.277-3.088l24.791-32.216l16.041,20.845l8.744,11.366
		c0.39,0.507,0.829,0.953,1.305,1.337c1.43,1.156,3.196,1.755,4.977,1.755c1.683,0,3.381-0.536,4.82-1.642
		c3.463-2.665,4.11-7.633,1.445-11.096L262.38,196.806z M183.515,70.285h25.751c13.861,0,25.137,11.277,25.137,25.138
		s-11.276,25.137-25.137,25.137h-25.751L183.515,70.285L183.515,70.285z"/>
	<path style="fill:#2B2F52;" d="M318.827,284.701H127.328c-4.37,0-7.912-3.543-7.912-7.912s3.542-7.912,7.912-7.912h191.499
		c4.37,0,7.912,3.542,7.912,7.912S323.198,284.701,318.827,284.701z"/>
	<path style="fill:#2B2F52;" d="M318.827,337.882H127.328c-4.37,0-7.912-3.543-7.912-7.912c0-4.37,3.542-7.913,7.912-7.913h191.499
		c4.37,0,7.912,3.542,7.912,7.913C326.74,334.339,323.198,337.882,318.827,337.882z"/>
	<path style="fill:#2B2F52;" d="M458.681,299.347c-1.29,0-2.597-0.329-3.795-1.02c-3.637-2.1-4.883-6.75-2.783-10.387l41.905-72.581
		l-16.884-9.748c-3.637-2.1-4.883-6.75-2.783-10.387c2.098-3.637,6.747-4.884,10.387-2.783l23.469,13.55
		c3.637,2.099,4.883,6.75,2.783,10.387l-45.707,79.167C463.865,297.983,461.309,299.347,458.681,299.347z"/>
</g>
<path style="fill:#747693;" d="M380.962,366.433l-66.494-38.391c-1.371-0.792-1.841-2.545-1.049-3.916l96.047-166.359
	c11.393-19.733,36.625-26.494,56.359-15.101l0,0c19.733,11.393,26.494,36.625,15.101,56.359l-96.047,166.359
	C384.086,366.755,382.333,367.225,380.962,366.433z"/>
<path style="fill:#545777;" d="M465.824,142.666c8.895,5.135,11.942,16.509,6.807,25.404L365.253,354.053
	c-0.792,1.371-2.545,1.841-3.916,1.049l-13.622-7.865l33.247,19.195c1.371,0.792,3.125,0.322,3.916-1.049l96.047-166.359
	C492.318,179.292,485.557,154.059,465.824,142.666z"/>
<path style="fill:#E8C778;" d="M373.036,364.611l-63.603,98.314c-0.154,0.239-0.352,0.446-0.583,0.612l-44.217,31.745
	c-1.589,1.141-3.781-0.125-3.588-2.072l5.383-54.166c0.028-0.283,0.109-0.558,0.238-0.811l54.431-106.367l51.167,29.541
	C373.391,362.058,373.743,363.519,373.036,364.611z"/>
<polyline style="fill:#D99A4A;" points="267.713,493.071 309.2,463.286 374.335,362.603 352.928,350.243 292.018,453.366 
	265.195,491.592 "/>
<path style="fill:#747693;" d="M309.2,463.286l-45.15,32.415c-1.362,0.978-3.241-0.107-3.075-1.775l5.497-55.309L309.2,463.286z"/>
<path style="fill:#545777;" d="M292.059,453.389l17.141,9.896L264.05,495.7c-0.777,0.558-1.722,0.444-2.36-0.065L292.059,453.389z"
	/>
<g>
</g>
<g>
</g>
<g>
</g>
<g>
</g>
<g>
</g>
<g>
</g>
<g>
</g>
<g>
</g>
<g>
</g>
<g>
</g>
<g>
</g>
<g>
</g>
<g>
</g>
<g>
</g>
<g>
</g>
</svg>
