<?xml version="1.0" encoding="utf-8"?>
<!-- Generator: Adobe Illustrator 24.1.0, SVG Export Plug-In . SVG Version: 6.00 Build 0)  -->
<svg version="1.1" id="Layer_1" xmlns="http://www.w3.org/2000/svg" xmlns:xlink="http://www.w3.org/1999/xlink" x="0px" y="0px"
	 viewBox="0 0 512 512" style="enable-background:new 0 0 512 512;" xml:space="preserve">
<style type="text/css">
	.st0{fill:#54F7E8;}
	.st1{fill:#2EDED1;}
	.st2{fill:#FFD205;}
	.st3{fill:#FAA019;}
	.st4{fill:#DFF2F0;}
	.st5{fill:#A5D6D1;}
	.st6{fill:#A5FFFF;}
	.st7{fill:#FFFF50;}
	.st8{fill:#463C4B;}
	.st9{fill:#555A6E;}
	.st10{fill:#99E0D9;}
</style>
<g>
	<g>
		<g>
			<g>
				<g>
					<g>
						<path class="st0" d="M449.3,368h-64c-8.8,0-16-7.2-16-16V112h96v240C465.3,360.8,458.2,368,449.3,368z"/>
					</g>
				</g>
			</g>
		</g>
		<g>
			<g>
				<g>
					<g>
						<path class="st1" d="M369.3,112v16h32c8.8,0,16,7.2,16,16v208c0,8.8-7.2,16-16,16h48c8.8,0,16-7.2,16-16V112H369.3z"/>
					</g>
				</g>
			</g>
		</g>
		<g>
			<g>
				<g>
					<g>
						<g>
							<path class="st2" d="M369.3,304v48c0,8.8,7.2,16,16,16h64c8.8,0,16-7.2,16-16v-48H369.3z"/>
						</g>
					</g>
				</g>
			</g>
			<g>
				<g>
					<g>
						<g>
							<path class="st3" d="M417.3,304v48c0,8.8-7.2,16-16,16h48c8.8,0,16-7.2,16-16v-48H417.3z"/>
						</g>
					</g>
				</g>
			</g>
		</g>
		<g>
			<g>
				<g>
					<g>
						<path class="st0" d="M481.3,80h-128c-8.8,0-16,7.2-16,16s7.2,16,16,16h128c8.8,0,16-7.2,16-16S490.2,80,481.3,80z"/>
					</g>
				</g>
			</g>
		</g>
		<g>
			<g>
				<g>
					<g>
						<path class="st0" d="M465.3,32h-96c-8.8,0-16,7.2-16,16s7.2,16,16,16h96c8.8,0,16-7.2,16-16S474.2,32,465.3,32z"/>
					</g>
				</g>
			</g>
		</g>
		<g>
			<g>
				<g>
					<g>
						<path class="st1" d="M385.3,64h64v16h-64V64z"/>
					</g>
				</g>
			</g>
		</g>
		<g>
			<g>
				<g>
					<g>
						<path class="st3" d="M433.3,400h-32c-8.8,0-16-7.2-16-16v-16h64v16C449.3,392.8,442.2,400,433.3,400z"/>
					</g>
				</g>
			</g>
		</g>
		<g>
			<g>
				<g>
					<g>
						<path class="st4" d="M417.3,480c-7-10.4-10.7-22.7-10.7-35.2V400H428v44.8C428,457.3,424.3,469.6,417.3,480z"/>
					</g>
				</g>
			</g>
		</g>
		<g>
			<g>
				<g>
					<g>
						<path class="st5" d="M406.7,400v13.3c5.9,0,10.7,4.8,10.7,10.7v56c7-10.4,10.7-22.7,10.7-35.2V400H406.7z"/>
					</g>
				</g>
			</g>
		</g>
		<g>
			<g>
				<g>
					<g>
						<path class="st6" d="M393.3,352c-4.4,0-8-3.6-8-8V152c0-4.4,3.6-8,8-8s8,3.6,8,8v192C401.3,348.4,397.8,352,393.3,352z"/>
					</g>
				</g>
			</g>
		</g>
		<g>
			<g>
				<g>
					<g>
						<path class="st7" d="M393.3,352c-4.4,0-8-3.6-8-8v-40h16v40C401.3,348.4,397.8,352,393.3,352z"/>
					</g>
				</g>
			</g>
		</g>
	</g>
	<g>
		<g>
			<g>
				<g>
					<g>
						<path class="st8" d="M230.7,152c-4.4,0-8-3.6-8-8s3.6-8,8-8c13.2,0,24-10.8,24-24s-10.8-24-24-24c-4.4,0-8-3.6-8-8s3.6-8,8-8
							c22.1,0,40,17.9,40,40S252.7,152,230.7,152L230.7,152z"/>
					</g>
				</g>
			</g>
		</g>
		<g>
			<g>
				<g>
					<g>
						<path class="st8" d="M102.7,152c-4.4,0-8-3.6-8-8s3.6-8,8-8c13.2,0,24-10.8,24-24s-10.8-24-24-24c-4.4,0-8-3.6-8-8s3.6-8,8-8
							c22.1,0,40,17.9,40,40S124.7,152,102.7,152z"/>
					</g>
				</g>
			</g>
		</g>
		<g>
			<g>
				<g>
					<g>
						<path class="st5" d="M318.7,416h-272c-17.7,0-32-14.3-32-32V176h336v208C350.7,401.7,336.3,416,318.7,416z"/>
					</g>
				</g>
			</g>
		</g>
		<g>
			<g>
				<g>
					<g>
						<path class="st4" d="M270.7,416h-224c-17.7,0-32-14.3-32-32V176h288v208C302.7,401.7,288.3,416,270.7,416z"/>
					</g>
				</g>
			</g>
		</g>
		<g>
			<g>
				<g>
					<g>
						<path class="st3" d="M318.7,112h-272c-17.7,0-32,14.3-32,32v32h336v-32C350.7,126.3,336.3,112,318.7,112z"/>
					</g>
				</g>
			</g>
		</g>
		<g>
			<g>
				<g>
					<g>
						<path class="st2" d="M270.7,112h-224c-17.7,0-32,14.3-32,32v32h288v-32C302.7,126.3,288.3,112,270.7,112z"/>
					</g>
				</g>
			</g>
		</g>
		<g>
			<g>
				<g>
					<g>
						<path class="st9" d="M102.7,152c-22.1,0-40-17.9-40-40s17.9-40,40-40c4.4,0,8,3.6,8,8s-3.6,8-8,8c-13.2,0-24,10.8-24,24
							s10.8,24,24,24c4.4,0,8,3.6,8,8S107.1,152,102.7,152z"/>
					</g>
				</g>
			</g>
		</g>
		<g>
			<g>
				<g>
					<g>
						<path class="st9" d="M230.7,152c-22.1,0-40-17.9-40-40s17.9-40,40-40c4.4,0,8,3.6,8,8s-3.6,8-8,8c-13.2,0-24,10.8-24,24
							s10.8,24,24,24c4.4,0,8,3.6,8,8S235.1,152,230.7,152z"/>
					</g>
				</g>
			</g>
		</g>
	</g>
	<g>
		<g>
			<g>
				<g>
					<circle class="st10" cx="126.7" cy="232" r="24"/>
				</g>
			</g>
		</g>
	</g>
	<g>
		<g>
			<g>
				<g>
					<circle class="st10" cx="190.7" cy="232" r="24"/>
				</g>
			</g>
		</g>
	</g>
	<g>
		<g>
			<g>
				<g>
					
						<ellipse transform="matrix(0.1602 -0.9871 0.9871 0.1602 -15.1304 446.2163)" class="st10" cx="254.7" cy="232" rx="24" ry="24"/>
				</g>
			</g>
		</g>
	</g>
	<g>
		<g>
			<g>
				<g>
					<circle class="st10" cx="62.7" cy="296" r="24"/>
				</g>
			</g>
		</g>
	</g>
	<g>
		<g>
			<g>
				<g>
					<circle class="st10" cx="126.7" cy="296" r="24"/>
				</g>
			</g>
		</g>
	</g>
	<g>
		<g>
			<g>
				<g>
					<circle class="st10" cx="190.7" cy="296" r="24"/>
				</g>
			</g>
		</g>
	</g>
	<g>
		<g>
			<g>
				<g>
					
						<ellipse transform="matrix(0.1602 -0.9871 0.9871 0.1602 -78.304 499.9647)" class="st10" cx="254.7" cy="296" rx="24" ry="24"/>
				</g>
			</g>
		</g>
	</g>
	<g>
		<g>
			<g>
				<g>
					<circle class="st10" cx="62.7" cy="360" r="24"/>
				</g>
			</g>
		</g>
	</g>
	<g>
		<g>
			<g>
				<g>
					<circle class="st10" cx="126.7" cy="360" r="24"/>
				</g>
			</g>
		</g>
	</g>
	<g>
		<g>
			<g>
				<g>
					<circle class="st10" cx="190.7" cy="360" r="24"/>
				</g>
			</g>
		</g>
	</g>
</g>
</svg>
