<?xml version="1.0" encoding="utf-8"?>
<!-- Generator: Adobe Illustrator 24.1.0, SVG Export Plug-In . SVG Version: 6.00 Build 0)  -->
<svg version="1.1" xmlns="http://www.w3.org/2000/svg" xmlns:xlink="http://www.w3.org/1999/xlink" x="0px" y="0px"
	 viewBox="0 0 1360 800" style="enable-background:new 0 0 1360 800;" xml:space="preserve">
<style type="text/css">
	.st0{fill:#FFFFFF;}
	.st1{opacity:0.14;}
	.st2{fill:#75CAF0;stroke:#75CAF0;stroke-miterlimit:10;}
	.st3{fill:#B4D234;stroke:#B4D234;stroke-miterlimit:10;}
	.st4{fill:#444444;}
	.st5{opacity:0.14;fill:#B4D234;stroke:#B4D234;stroke-miterlimit:10;}
	.st6{opacity:0.14;fill:#75CAF0;stroke:#75CAF0;stroke-miterlimit:10;}
</style>
<g id="Layer_2">
	<rect class="st0" width="1360" height="800"/>
</g>
<g id="Layer_1">
	<g class="st1">
		<g>
			<path class="st2" d="M714.9,113.5c1.7,0,3.3,0.6,4.6,1.9c1.3,1.3,2,2.8,2,4.8c0,3.2-1,10.3-3,21.3c-2.5,13.4-4.2,27.7-5.2,42.9
				c-1,15.2-1.5,24.7-1.5,28.5c0,2.1-0.9,4.2-2.8,6.2s-3.6,3.1-5,3.1c-1.5,0-2.9-0.6-4.2-1.8c-1.3-1.2-2-2.7-2-4.6
				c0-1.6,0.7-7.5,2.1-17.5c1.2-8.5,1.8-14.6,1.8-18.3c0-2.2-0.3-3.7-1-4.5c-0.6-0.8-1.7-1.2-3.2-1.2c-2.3,0-6.8,0.3-13.4,0.8
				c-7.2,0.6-11.7,0.9-13.5,0.9c-1.9,0-6.6,0.3-14.3,0.9c-7.7,0.6-11.9,1.1-12.7,1.5c-0.8,0.4-1.6,3.5-2.5,9
				c-0.8,5.6-1.4,10.2-1.5,13.9c-0.2,6.4-0.9,11.6-2.2,15.7c-1.2,4.1-2.8,6.2-4.7,6.2c-1.3,0-3-1-4.9-3.1c-1.9-2.1-2.9-4.2-2.9-6.3
				c0-1.8,0.5-5,1.6-9.4c1.5-6.1,3.3-16.9,5.4-32.6c2.1-15.6,4-31.9,5.5-48.7c0.1-1.1,0.7-2.2,1.9-3.4c1.1-1.1,2.4-1.7,3.6-1.7
				c4.5,0,6.7,3.2,6.7,9.7c0,3.8-0.8,9.9-2.5,18.3c-1.5,7.6-2.2,13.1-2.2,16.4c0,1.4,0.5,2.4,1.4,3.1c0.9,0.6,3.1,1,6.5,1
				c7.5,0,17.6-0.6,30.3-1.8c12.7-1.2,19.5-2.9,20.5-5.2c1-2.3,2-7.4,3-15.4c1-8,1.5-16.4,1.5-25.1c0-1,0.7-2.2,2.1-3.6
				C711.7,114.2,713.2,113.5,714.9,113.5z"/>
			<path class="st2" d="M795.4,195.1c0,4.7-4.1,10.3-12.4,16.9c-8.2,6.6-16.8,9.9-25.5,9.9c-7.4,0-13-2.2-17-6.5
				c-4-4.3-6-10.4-6-18.2c0-13.1,4.4-25.5,13.2-37.3c8.8-11.8,18.5-17.7,28.9-17.7c3.4,0,6.2,1.1,8.4,3.4c2.2,2.2,3.3,4.9,3.3,8.1
				c0,7-3.5,13.8-10.3,20.2c-6.9,6.4-16.1,12.8-27.7,19c-2.4,1.2-3.6,2.8-3.6,4.8c0,3.8,1.1,6.8,3.3,9.1c2.2,2.3,5.4,3.4,9.7,3.4
				c9.8,0,19.9-5.4,30.1-16.3c1.5-1.5,2.6-2.3,3.4-2.3C794.7,191.6,795.4,192.7,795.4,195.1z M747.8,184.4
				c19.4-11.5,29.1-20.8,29.1-27.8c0-2.7-1.2-4.1-3.7-4.1c-4.2,0-8.9,3.1-14.2,9.3S749.9,175.5,747.8,184.4z"/>
			<path class="st2" d="M942,221.7c-6.3,0-11.4-2.4-15.5-7.1c-4.1-4.8-6.1-10.6-6.1-17.6c0-11.8,4-23.4,11.9-34.9
				c7.9-11.4,17.4-17.2,28.5-17.2c7.3,0,13.2,2.8,17.8,8.4c4.5,5.6,6.8,12.3,6.8,20.1c0,11.9-4.7,22.9-14.1,33
				C961.9,216.7,952.2,221.7,942,221.7z M932.5,195.2c0,4.6,1,8.4,2.9,11.3c1.9,2.9,4.5,4.4,7.7,4.4c6.8,0,13.6-3.7,20.5-11.2
				c6.9-7.5,10.3-15.8,10.3-24.9c0-5.6-1.3-10.2-3.9-13.7c-2.6-3.5-6.2-5.2-10.6-5.2c-7.4,0-13.7,4.5-19,13.5
				C935.1,178.4,932.5,187,932.5,195.2z"/>
		</g>
	</g>
	<g class="st1">
		<g>
			<path class="st3" d="M636.9,275.2c0-1.8-1-2.9-3.1-3.5c-3.7-0.9-5.6-2.5-5.6-4.7c0-1.7,0.7-3.3,2.2-4.9c1.5-1.6,3-2.4,4.7-2.4
				l9.5,0.3c4.4,0,10.3-0.3,17.5-0.9c7.2-0.6,12.6-0.9,16.2-0.9c12.5,0,22.5,3.5,30.1,10.6c7.6,7,11.4,16.3,11.4,27.8
				c0,12.6-5.4,24.1-16.3,34.5c-10.8,10.4-26.3,18-46.3,22.8c-7.9,1.9-13.3,3.8-16.1,5.8c-3.7,2.5-6.8,3.8-9.2,3.8
				c-1.7,0-3.2-0.9-4.6-2.8c-1.3-1.8-2-3.3-2-4.4c0-0.5,0.5-1.6,1.4-3.5c1-2,1.6-4.1,2-6.2c0.4-2.1,0.7-5.8,1-11.2
				c0.2-5.3,1.1-14,2.5-25.9c1.4-11.9,2.6-20.4,3.5-25.4C636.5,279.8,636.9,276.8,636.9,275.2z M649.2,270.6
				c-5.4,32.4-8.1,55.2-8.1,68.5c0,2.9,0.3,5.2,0.9,6.7c0.4,0.3,1.1,0.5,2.1,0.5c2.9,0,10.5-1.9,22.7-5.7
				c12.3-3.8,22.2-9.7,29.9-17.6c7.7-7.9,11.5-16.9,11.5-27c0-8.4-3-15.1-8.9-20.1c-5.9-5-13.7-7.5-23.4-7.5c-5.9,0-13,0.5-21.3,1.6
				C652.9,270.3,651,270.5,649.2,270.6z"/>
			<path class="st3" d="M753.9,360.5c-6.2,0-11.3-2.4-15.3-7.1s-6-10.5-6-17.5c0-11.7,3.9-23.2,11.8-34.5c7.9-11.3,17.3-17,28.2-17
				c7.2,0,13.1,2.8,17.6,8.4c4.5,5.6,6.8,12.2,6.8,19.9c0,11.8-4.7,22.7-14,32.7C773.6,355.5,763.9,360.5,753.9,360.5z M744.4,334.3
				c0,4.6,1,8.3,2.9,11.2c1.9,2.9,4.5,4.3,7.6,4.3c6.7,0,13.5-3.7,20.3-11.1c6.8-7.4,10.2-15.6,10.2-24.7c0-5.6-1.3-10.1-3.9-13.5
				s-6.1-5.2-10.5-5.2c-7.3,0-13.5,4.5-18.8,13.4C747,317.6,744.4,326.2,744.4,334.3z"/>
			<path class="st3" d="M831.2,361c-6.8,0-12-1.9-15.7-5.8c-3.6-3.9-5.5-9.3-5.5-16.4c0-11.8,4.7-24.3,14.1-37.4
				c9.4-13.1,18.1-19.7,26.1-19.7c3.7,0,6.8,2,9.5,5.9c2.6,4,4,8.2,4,12.6c0,2.7-0.6,5-1.7,6.9c-1.2,1.9-2.3,2.9-3.5,2.9
				c-2.6,0-4.5-2.6-5.6-7.9c-1.2-5.7-3-8.6-5.3-8.6c-4.7,0-10.3,5.6-16.7,16.8c-6.4,11.2-9.6,20.6-9.6,28.3
				c0,7.7,4.4,11.5,13.1,11.5c6.7,0,14.5-3.1,23.5-9.4c3.2-2.2,5.5-3.3,7-3.3c1.5,0,2.3,0.9,2.3,2.6c0,3.4-4.1,7.8-12.2,13
				C846.9,358.4,839,361,831.2,361z"/>
			<path class="st3" d="M910.8,288.6c4.7-0.4,9.1-0.8,13.2-1.3c4.1-0.5,7.5-0.7,10.2-0.7c3.4,0,5.6,0.3,6.5,1
				c0.9,0.6,1.4,1.7,1.4,3.3c0,3.7-2.6,5.7-7.7,6c-6.6,0.4-12.6,1-18.1,1.7c-5.5,0.7-8.5,1.3-8.9,1.8c-0.4,0.5-1.8,5.9-4.1,16.2
				c-2.3,10.3-3.5,17-3.5,20.1c0,5,0.7,8.3,2,9.9c1.3,1.7,3.3,2.5,5.9,2.5c3.9,0,9.3-2.9,16.2-8.8c2.7-2.4,4.7-3.6,6.2-3.6
				c1.9,0,2.9,1,2.9,3.1c0,3.3-3.1,7.5-9.4,12.7c-6.3,5.2-12.7,7.8-19.3,7.8c-11,0-16.4-6.5-16.4-19.4c0-4.7,1.1-11.9,3.4-21.7
				c2.2-9.7,3.3-15.6,3.3-17.5c0-0.7-0.5-1-1.6-1l-7.1,0.6c-5.8,0-8.7-2.3-8.7-6.9c0-2.6,1.3-3.9,4-3.9h14c1,0,1.8-0.4,2.5-1.3
				c0.7-0.9,1.8-3.7,3.2-8.7c1.4-4.9,2.6-9.8,3.7-14.6c1.1-4.8,3.2-7.1,6.4-7.1c1.9,0,3.5,0.7,4.5,2c1.1,1.4,1.6,2.6,1.6,3.8
				c0,0.6-0.8,3.9-2.4,9.7L910.8,288.6z"/>
			<path class="st3" d="M968.2,360.5c-6.2,0-11.3-2.4-15.3-7.1c-4-4.7-6-10.5-6-17.5c0-11.7,3.9-23.2,11.8-34.5
				c7.9-11.3,17.3-17,28.2-17c7.2,0,13.1,2.8,17.6,8.4c4.5,5.6,6.8,12.2,6.8,19.9c0,11.8-4.7,22.7-14,32.7
				C987.9,355.5,978.2,360.5,968.2,360.5z M958.7,334.3c0,4.6,1,8.3,2.9,11.2c1.9,2.9,4.5,4.3,7.6,4.3c6.7,0,13.5-3.7,20.3-11.1
				c6.8-7.4,10.2-15.6,10.2-24.7c0-5.6-1.3-10.1-3.9-13.5c-2.6-3.5-6.1-5.2-10.5-5.2c-7.3,0-13.5,4.5-18.8,13.4
				C961.3,317.6,958.7,326.2,958.7,334.3z"/>
			<path class="st3" d="M1040.7,330.2c0.5-0.8,1-1.9,1.6-3.4c3.1-7.1,5.9-12.6,8.5-16.6s5.4-7.8,8.5-11.5c3.1-3.7,5.9-6.5,8.5-8.4
				c2.6-1.9,4.9-3.2,7-4c2.1-0.7,4.1-1.1,6-1.1c3.9,0,7.2,1.2,9.6,3.6c2.5,2.4,3.7,5.1,3.7,8.3c0,1.4-0.4,2.7-1.3,3.8
				c-0.9,1.1-2.2,1.7-4,1.7c-1.9,0-3.6-0.8-5.2-2.5c-1.6-1.7-3.3-2.5-5.1-2.5c-4.7,0-11.2,5.7-19.6,17.1
				c-8.3,11.4-13.4,24-15.2,37.7c-0.5,3.5-1.3,5.9-2.6,7c-1.3,1.1-3.1,1.7-5.4,1.7c-2.2,0-3.8-1.7-4.8-5c-1-3.3-1.5-8.9-1.5-16.7
				c0-2.1,0.1-6.8,0.3-14.1c0.3-8.6,0.8-15.5,1.6-20.7c0.1-0.9,0.4-2.9,0.7-6c0.3-3.5,0.7-5.9,1.2-7.3s1.4-2.6,2.9-3.8
				c1.5-1.2,3.1-1.8,4.8-1.8c1.7,0,2.9,0.5,3.8,1.6c0.8,1.1,1.3,2.2,1.3,3.4c0,1.8-0.5,4.3-1.4,7.5c-1,3.6-1.7,6-1.8,7.4
				c-0.1,1.5-0.4,3.1-0.7,4.8c-0.5,1.9-0.9,7.1-1.4,15.3l-0.1,2.5V330.2z"/>
			<path class="st3" d="M1112.7,343.5c0,4.5-1.1,7.7-3.4,9.5c-2.2,1.9-4.2,2.8-5.8,2.8c-3.4,0-5-2.2-5-6.6c0-1.7,0.8-3.8,2.4-6.1
				c1.6-2.4,3.3-3.6,5-3.6c1.1,0,2.5,0.5,4.2,1.5C1111.9,342,1112.7,342.8,1112.7,343.5z M1112.7,323.3c-1.1,0-2.7-0.2-4.7-0.5
				c-2-0.4-3.4-0.8-4.1-1.4c-0.6-4.8,0.5-13.9,3.4-27.3c2.3-10.8,3.5-18.3,3.5-22.6c0-6.1,1.1-10.2,3.3-12.3
				c2.2-2.1,4.1-3.2,5.6-3.2c1.1,0,2.3,0.5,3.5,1.4c1.2,1,1.8,2,1.8,3.2c0,1-2.5,12.5-7.5,34.4c-2.1,9.2-3.2,16.2-3.3,21.1
				C1114.1,319.4,1113.6,321.7,1112.7,323.3z"/>
		</g>
	</g>
	<g class="st1">
		<g>
			<g>
				<path class="st4" d="M847.4,210.1l-3.1-12.2l-2.7-10.9c-0.5-2.1-2.6-3.5-4.7-3.3l-9.1,1c-2,0.2-3.9-1-4.6-3
					c-1.4-4.3-3.5-8.9-4.2-23.2s0.8-18.9,1.8-23.1c0.5-1.9,2.3-3.1,4.3-2.8l9.3,1.3c2.1,0.3,4-1.1,4.3-3.2l1.6-10.5l1.9-12.5
					c0.3-2.1-1.1-4.2-3.3-4.8l-9.4-2.4c-2.5-0.7-5.1-0.4-7.3,0.8c-7.1,4.1-19.5,16.3-17.4,57c2.1,40.7,15.8,53.2,23.3,57.5
					c2.3,1.3,5,1.6,7.4,1l9.1-2.2C846.7,214.3,848,212.3,847.4,210.1z"/>
			</g>
		</g>
	</g>
	<g class="st1">
		<g>
			<g>
				<path class="st4" d="M898.6,210.1l-3.1-12.2l-2.7-10.9c-0.5-2.1-2.6-3.5-4.7-3.3l-9.1,1c-2,0.2-3.9-1-4.6-3
					c-1.4-4.3-3.5-8.9-4.2-23.2s0.8-18.9,1.8-23.1c0.5-1.9,2.3-3.1,4.3-2.8l9.3,1.3c2.1,0.3,4-1.1,4.3-3.2l1.6-10.5l1.9-12.5
					c0.3-2.1-1.1-4.2-3.3-4.8l-9.4-2.4c-2.5-0.7-5.1-0.4-7.3,0.8c-7.1,4.1-19.5,16.3-17.4,57c2.1,40.7,15.8,53.2,23.3,57.5
					c2.3,1.3,5,1.6,7.4,1l9.1-2.2C897.9,214.3,899.1,212.3,898.6,210.1z"/>
			</g>
		</g>
	</g>
	<path class="st5" d="M562.6,214.3c-21.2,0-38.5,17.1-38.6,38.4c0,17.6,11.8,32.9,28.9,37.3v10.9c0,26.6-21.6,48.2-48.2,48.2
		c-26.6,0-48.2-21.6-48.2-48.2c0.2-5.8,1.1-11.6,2.5-17.1c-8,0.4-16,0.6-24,0.8c1.3,5.3,2,10.8,2.3,16.3c0,37.3,30.2,67.5,67.5,67.5
		c37.3,0,67.5-30.2,67.5-67.5V290c17-4.4,28.8-19.7,28.9-37.2C601,231.6,583.8,214.3,562.6,214.3z M562,272.1
		c-10.6,0-19.2-8.6-19.2-19.2c0-10.6,8.6-19.2,19.2-19.2s19.2,8.6,19.2,19.2C581.2,263.5,572.6,272.1,562,272.1z"/>
	<path class="st6" d="M485.3,240.6H484c18.7-12.2,30.1-32.8,30.4-55.1v-38.7c0-15.9-12.9-28.9-28.9-28.9c-0.1,0-0.2,0-0.3,0H471
		c-5.3,0-9.6,4.3-9.6,9.6c0,5.3,4.3,9.6,9.6,9.6h14.3c5.3,0,9.6,4.3,9.6,9.6v38.7c0,26.5-21.4,47.9-47.8,48.1v7v-7
		c-26.6,0.1-48.2-21.3-48.4-47.8c0-0.1,0-0.2,0-0.3v-38.7c0-5.3,4.3-9.6,9.6-9.6h13.5c5.3,0,9.6-4.3,9.6-9.6c0-5.3-4.3-9.6-9.6-9.6
		h-13.5c-15.7,0.3-28.3,13.1-28.3,28.9v38.7c-0.1,21.9,10.6,42.5,28.6,55.1c13.2,11.7,22.3,27.1,26.3,44c8-0.2,16-0.4,24-0.8
		C463.1,267.2,472.2,252.1,485.3,240.6z"/>
	<g>
	</g>
	<g>
	</g>
	<g>
	</g>
	<g>
	</g>
	<g>
	</g>
	<g>
	</g>
	<g>
	</g>
	<g>
	</g>
	<g>
	</g>
	<g>
	</g>
	<g>
	</g>
	<g>
	</g>
	<g>
	</g>
	<g>
	</g>
	<g>
	</g>
</g>
</svg>
