<?xml version="1.0" encoding="utf-8"?>
<!-- Generator: Adobe Illustrator 24.1.0, SVG Export Plug-In . SVG Version: 6.00 Build 0)  -->
<svg version="1.1" id="bold" xmlns="http://www.w3.org/2000/svg" xmlns:xlink="http://www.w3.org/1999/xlink" x="0px" y="0px"
	 viewBox="0 0 512 512" style="enable-background:new 0 0 512 512;" xml:space="preserve">
<style type="text/css">
	.st0{fill:#2EDED1;}
</style>
<path class="st0" d="M398.1,269.2c-4.7-3-10.5-3.4-15.4-1.1L329.6,292c0.9,3.8,1.1,7.9,1.1,11.9v160c0,4.1-0.2,8.1-1.1,11.9
	l53.1,23.9c2.1,1.1,4.5,1.5,6.6,1.5c3,0,6-0.9,8.7-2.6c4.5-3,7.3-8.1,7.3-13.4V282.7C405.3,277.3,402.6,272.2,398.1,269.2z"/>
<path class="st0" d="M250.7,512H48c-26.5,0-48-21.5-48-48V304c0-26.5,21.5-48,48-48h202.7c26.5,0,48,21.5,48,48v160
	C298.7,490.5,277.1,512,250.7,512z"/>
<path class="st0" d="M474.7,0H293.3C272.7,0,256,16.7,256,37.3v96c0,20.6,16.7,37.3,37.3,37.3H320v48c0,6.6,4.1,12.5,10.2,14.9
	c1.9,0.7,3.9,1.1,5.8,1.1c4.4,0,8.7-1.8,11.8-5.2l53.9-58.8h73c20.6,0,37.3-16.7,37.3-37.3v-96C512,16.7,495.3,0,474.7,0z
	 M330.7,101.3c-8.8,0-16-7.2-16-16s7.2-16,16-16s16,7.2,16,16S339.5,101.3,330.7,101.3z M384,101.3c-8.8,0-16-7.2-16-16
	s7.2-16,16-16s16,7.2,16,16S392.8,101.3,384,101.3z M437.3,101.3c-8.8,0-16-7.2-16-16s7.2-16,16-16s16,7.2,16,16
	S446.2,101.3,437.3,101.3z"/>
</svg>
