<?xml version="1.0" encoding="utf-8"?>
<!-- Generator: Adobe Illustrator 24.1.0, SVG Export Plug-In . SVG Version: 6.00 Build 0)  -->
<svg version="1.1" id="Layer_1" xmlns="http://www.w3.org/2000/svg" xmlns:xlink="http://www.w3.org/1999/xlink" x="0px" y="0px"
	 viewBox="0 0 200 200" style="enable-background:new 0 0 200 200;" xml:space="preserve">
<style type="text/css">
	.st0{fill:#09AAC9;}
	.st1{fill:#FFFFFF;stroke:#FFFFFF;stroke-width:4;stroke-miterlimit:10;}
</style>
<g>
	<circle class="st0" cx="100.5" cy="99.5" r="97.5"/>
</g>
<g>
	<path class="st1" d="M73.4,132.6c3.7,2.3,12.2,6,21.1,6c16.5,0,21.7-10.5,21.5-18.4c-0.1-13.3-12.2-19-24.6-19h-7.2v-9.7h7.2
		c9.4,0,21.2-4.8,21.2-16.1c0-7.6-4.8-14.3-16.7-14.3c-7.6,0-14.9,3.4-19,6.3L73.6,58c5-3.7,14.6-7.3,24.9-7.3
		c18.7,0,27.2,11.1,27.2,22.7c0,9.8-5.9,18.2-17.6,22.4V96c11.7,2.3,21.2,11.1,21.2,24.4c0,15.2-11.9,28.5-34.7,28.5
		c-10.7,0-20.1-3.4-24.7-6.4L73.4,132.6z"/>
</g>
</svg>
