<?xml version="1.0" encoding="utf-8"?>
<!-- Generator: Adobe Illustrator 24.1.0, SVG Export Plug-In . SVG Version: 6.00 Build 0)  -->
<svg version="1.1" id="Layer_1" xmlns="http://www.w3.org/2000/svg" xmlns:xlink="http://www.w3.org/1999/xlink" x="0px" y="0px"
	 viewBox="0 0 500 500" style="enable-background:new 0 0 500 500;" xml:space="preserve">
<style type="text/css">
	.st0{fill:#B2F7ED;}
	.st1{fill:#E6E7E8;}
	.st2{fill:#F6CCB8;}
	.st3{fill:#A3DDD6;}
	.st4{fill:#42404D;}
	.st5{fill:#65C6BB;}
	.st6{fill:#EBEBEB;}
	.st7{fill:#FFFFFF;}
	.st8{fill:#4F3C30;}
	.st9{fill:#A7A9AC;}
	.st10{fill:#663D3D;}
	.st11{fill:#CE957E;}
</style>
<g>
	<circle class="st0" cx="249" cy="248.3" r="239.5"/>
</g>
<g>
	<g id="doctor_3_">
		<rect x="215.2" y="280.5" class="st1" width="67.6" height="29"/>
		<g>
			<polygon class="st2" points="285.7,289.2 277,285.2 277,257.5 221,257.5 221,285.2 212.3,289 214.6,367.6 221,367.6 221,379.6 
				277,379.6 277,367.6 283.4,367.6 			"/>
		</g>
		<g>
			<g>
				<path class="st3" d="M321.5,425.2c1.1-41.3-1.2-123.1-35-135.8l-2.1,7.8c-3.6,10.3-12.8,27.2-34.7,27.2
					c-24.7,0-34.1-21.5-37-30.7l-1.1-4.2c-33.8,12.7-34.8,94.5-33.1,135.8H321.5z"/>
				<polygon class="st4" points="262.5,320.5 257.1,330.8 240.7,330.8 235.5,320.5 249,309.5 				"/>
				<path class="st5" d="M249,309.5l-17.2,18.1l-29.4-35.1c0,0,18.4-9.1,18.4-9.1l6.9,6.4L249,309.5z"/>
				<polygon class="st5" points="277.3,283.4 249,309.5 266.2,327.7 295.6,292.5 				"/>
				<polygon class="st4" points="260,425.2 257.1,333.3 240.8,333.3 238,425.2 				"/>
			</g>
			<g>
				<path class="st6" d="M117.7,337.1l-12.8,88.1h141.1c-9.7-37.5-35.5-137.8-35.5-137.8L149.8,302
					C132.9,306,120.2,319.9,117.7,337.1z"/>
				<path class="st6" d="M348.3,301.9l-59.5-14.4c0,0-25.8,100.3-35.5,137.8h139.8L380.2,337C377.7,319.8,365.1,306,348.3,301.9z"/>
			</g>
			<g>
				<g>
					<polygon class="st7" points="205.5,330.4 195.2,344.5 240.8,425.2 245.7,425.2 214.8,280.5 191.3,292.6 192.2,319.4 					"/>
				</g>
				<g>
					<polygon class="st7" points="257.2,425.2 302.8,344.5 292.4,330.4 305.8,319.4 306.7,292.6 283.2,280.5 252.3,425.2 					"/>
				</g>
			</g>
		</g>
		<g>
			<g>
				<path class="st2" d="M310.9,179.3l1.9-24.6c0-32.2-30.8-58.3-62.9-58.3c-32.2,0-62.9,26.1-62.9,58.3l1.9,24.6
					c-1.8,0.4-3.4,1.3-4.8,2.4c-2.5,2.1-4.1,5.3-4.1,8.9v12.1c0,6.4,5.2,11.6,11.6,11.6c0,30.4,36.5,59.2,58.3,59.2
					c21.8,0,58.3-28.8,58.3-59.2c6.4,0,11.6-5.2,11.6-11.6v-12.1C319.7,185.1,315.9,180.6,310.9,179.3z"/>
			</g>
			<path class="st8" d="M315.6,179c-1.5,6.3-3.4,9.8-5.6,14.8c-0.5,1-2,0.7-2-0.4c-0.1-6.7-0.1-17.4-0.1-17.4l-13.1-39.6
				c0,0-20.7,4.5-45,5.5c-24.3-1-45-5.5-45-5.5L191.5,176c0,0,0,10.6,0,17.2c0,1.2-1.6,1.5-2,0.4c-2.1-5-4.8-11.6-5.5-14.6
				c-3.2-13.7-4.6-27.3-4-39.9c0.3-4.5,0.7-9,1.6-13.2c1.1-6,2.7-11.7,5-16.9c0,0,14.2-37.6,63.2-37.5c1,0,2,0,3,0
				c13.2,0,22.5,2.5,31.5,6.9c0,0,14.7,7.1,26.8,1.3c0.4-0.2,0.9,0.1,0.8,0.6c-0.2,1.6-0.9,5-3.3,8.1c3.1,0.1,6.7-0.1,10.8-1
				c0,0,0.1,0,0.1,0v0.2c0.3,8.2-2.5,15.5-6.5,21.6c2.2,5.2,3.8,10.8,4.9,16.6c0.8,4.3,1.3,8.7,1.6,13.2
				C320.3,151.5,318.9,165.3,315.6,179z"/>
			<path class="st7" d="M315.4,169.7h-12.6c-4-2.1-9.6-3.4-17.4-3.4c-13,0-21.8,2.5-26.3,7.3c-2.1-1.2-5.3-2.5-8.9-2.5
				c-3.6,0-6.7,1.3-8.9,2.5c-4.5-4.8-13.3-7.3-26.3-7.3c-7.8,0-13.4,1.3-17.4,3.4h-12.7v9.1l4.2,1.5c-0.4,1.7-0.6,3.4-0.6,5.1
				c0,11.3,2.7,26.3,26.5,26.3c21.2,0,26.8-13.1,29.4-25.8c0.4-1.9,0.4-3.8,0.2-5.5c1-0.7,2.7-1.2,5.6-1.2c2.9,0,4.6,0.6,5.6,1.3
				c-0.3,1.7-0.2,3.5,0.2,5.5c2.6,12.8,8.2,25.8,29.4,25.8c23.8,0,26.5-15,26.5-26.3c0-1.7-0.2-3.4-0.6-5.1l4.1-1.4V169.7z
				 M239.9,184.9c-2.8,13.3-8,22.1-24.9,22.1c-19.2,0-21.8-10.4-21.8-21.6c0-3.6,0-14.4,21.8-14.4c15.1,0,21,3.4,23.3,6.3
				C240,179.3,240.5,181.8,239.9,184.9z M285.4,207c-16.8,0-22.1-8.8-24.9-22.1c-0.6-3.1-0.1-5.6,1.5-7.7c2.3-2.9,8.3-6.3,23.3-6.3
				c21.8,0,21.8,10.8,21.8,14.4C307.3,196.6,304.6,207,285.4,207z"/>
		</g>
		<g>
			<path class="st9" d="M302.8,334.9c-0.1-2.1-2.4-48.5-25.8-60.3v5.4c19.1,12.5,21.1,54.6,21.2,55.1l0.1,2.3l4.7-0.2L302.8,334.9z"
				/>
			<path class="st9" d="M221,279.4V274c-38.4,19.4-22.2,119.7-21.5,124.1l0.4,2.3l4.6-0.8l-0.4-2.3
				C203.9,396.3,188.5,300.2,221,279.4z"/>
			<g>
				<path class="st9" d="M316.4,407.9c-4.3-0.5-8.3-1.9-12-3.9c12.7-10.6,19.9-29,19-45.3c-0.9-16.1-9.7-26-23.1-26
					c-13.4,0-22.2,10-23.1,26c-0.9,16.3,6.4,34.7,19,45.3c-3.6,2.1-7.7,3.5-12,3.9c-1.3,0.1-2.2,1.3-2.1,2.6
					c0.1,1.2,1.1,2.1,2.3,2.1c0.1,0,0.2,0,0.3,0c5.7-0.6,10.9-2.6,15.5-5.6c4.6,3,9.8,5,15.5,5.6c0.1,0,0.2,0,0.3,0
					c1.2,0,2.2-0.9,2.3-2.1C318.6,409.1,317.7,408,316.4,407.9z M282,358.9c0.3-6.5,2.8-21.6,18.4-21.6c15.6,0,18.1,15.1,18.4,21.6
					c0.8,15.4-6.2,32.9-18.4,42.3C288.3,391.9,281.2,374.3,282,358.9z"/>
				<path class="st4" d="M281.1,413.9c-1.4,0-2.7-0.1-4.1-0.2c-1.9-0.2-3.3-1.9-3.1-3.8c0.2-1.9,1.9-3.3,3.8-3.1
					c2.3,0.2,4.5,0.2,6.6,0c1.9-0.2,3.6,1.2,3.8,3.1c0.2,1.9-1.2,3.6-3.1,3.8C283.7,413.8,282.4,413.9,281.1,413.9z"/>
				<path class="st4" d="M319.8,413.9c-1.3,0-2.7-0.1-4-0.2c-1.9-0.2-3.3-1.9-3.1-3.8c0.2-1.9,2-3.3,3.8-3.1c2.2,0.2,4.4,0.2,6.6,0
					c1.9-0.2,3.6,1.2,3.8,3.1c0.2,1.9-1.2,3.6-3.1,3.8C322.6,413.8,321.2,413.9,319.8,413.9z"/>
			</g>
			<g>
				<g>
					<circle class="st1" cx="201.8" cy="398.4" r="14"/>
					<path class="st9" d="M201.8,384.4c7.7,0,14,6.3,14,14c0,7.7-6.3,14-14,14c-7.7,0-14-6.3-14-14
						C187.8,390.7,194.1,384.4,201.8,384.4 M201.8,379.7c-10.3,0-18.6,8.4-18.6,18.6c0,10.3,8.4,18.6,18.6,18.6
						c10.3,0,18.6-8.4,18.6-18.6C220.4,388.1,212.1,379.7,201.8,379.7L201.8,379.7z"/>
				</g>
				<g>
					<circle class="st9" cx="201.8" cy="398.4" r="10"/>
				</g>
			</g>
		</g>
	</g>
	<g>
		<g>
			<path class="st10" d="M273.9,191.2c0,5,3,5.4,6.8,5.4c3.7,0,6.8-0.4,6.8-5.4c0-5-3-9-6.8-9C276.9,182.2,273.9,186.3,273.9,191.2z
				"/>
		</g>
	</g>
	<g>
		<g>
			<path class="st10" d="M208.9,191.2c0,5,3,5.4,6.8,5.4c3.7,0,6.8-0.4,6.8-5.4c0-5-0.4-9-6.8-9
				C211.9,182.2,208.9,186.3,208.9,191.2z"/>
		</g>
	</g>
	<g>
		<path class="st11" d="M224.2,236.4c7.7,6,26.5,16.7,47-0.2c0.6-0.5,0-1.5-0.7-1.2c-7.8,3.1-25.9,8.4-45.6,0.2
			C224.1,234.9,223.5,235.9,224.2,236.4z"/>
	</g>
</g>
<g>
</g>
<g>
</g>
<g>
</g>
<g>
</g>
<g>
</g>
<g>
</g>
<g>
</g>
<g>
</g>
<g>
</g>
<g>
</g>
<g>
</g>
<g>
</g>
<g>
</g>
<g>
</g>
<g>
</g>
</svg>
