<?xml version="1.0" encoding="utf-8"?>
<!-- Generator: Adobe Illustrator 24.1.0, SVG Export Plug-In . SVG Version: 6.00 Build 0)  -->
<svg version="1.1" id="Layer_1" xmlns="http://www.w3.org/2000/svg" xmlns:xlink="http://www.w3.org/1999/xlink" x="0px" y="0px"
	 viewBox="0 0 500 500" style="enable-background:new 0 0 500 500;" xml:space="preserve">
<style type="text/css">
	.st0{fill:#B2F7ED;}
	.st1{fill:#F3F3F3;}
	.st2{fill:#E4E4E4;}
	.st3{fill:#ECEFF1;}
	.st4{fill:#FFFFFF;}
	.st5{fill:#E5E5E5;}
	.st6{fill:#5497B2;}
	.st7{fill:#65C6BB;}
	.st8{fill:#89E5D8;}
	.st9{fill:#E56353;}
	.st10{fill:#066391;}
	.st11{fill:#A3A3A3;}
	.st12{fill:#8C8C8C;}
</style>
<g>
	<circle class="st0" cx="251" cy="248.6" r="239.5"/>
</g>
<g>
	<path class="st1" d="M315.3,154.8H186.7V84.8c0-1.5,1.2-2.7,2.7-2.7h123.3c1.5,0,2.7,1.2,2.7,2.7L315.3,154.8L315.3,154.8z"/>
	<path class="st2" d="M295.2,82.1v72.7h20.1V84.8c0-1.5-1.2-2.7-2.7-2.7H295.2z"/>
	<path class="st3" d="M170.6,239.2h36.2v33.5h-36.2V239.2z"/>
	<path class="st3" d="M295.2,239.2h36.2v33.5h-36.2V239.2z"/>
	<path class="st3" d="M232.9,239.2h36.2v33.5h-36.2V239.2z"/>
	<path class="st3" d="M170.6,297.5h36.2V331h-36.2V297.5z"/>
	<path class="st3" d="M295.2,297.5h36.2V331h-36.2V297.5z"/>
	<path class="st3" d="M232.9,297.5h36.2V331h-36.2V297.5z"/>
	<path class="st4" d="M356.2,401.8H145.8V143.7c0-1.5,1.2-2.7,2.7-2.7h205c1.5,0,2.7,1.2,2.7,2.7L356.2,401.8L356.2,401.8z"/>
	<path class="st5" d="M336.1,141v260.7h20.1V143.7c0-1.5-1.2-2.7-2.7-2.7H336.1z"/>
	<path class="st6" d="M312,401.8H190v-45.7c0-1.5,1.2-2.7,2.7-2.7h116.6c1.5,0,2.7,1.2,2.7,2.7L312,401.8L312,401.8z"/>
	<g>
		<path class="st7" d="M212.8,401.8H190v-45.7c0-1.5,1.2-2.7,2.7-2.7h20.1V401.8z"/>
		<path class="st7" d="M312,401.8h-22.8v-48.4h20.1c1.5,0,2.7,1.2,2.7,2.7V401.8z"/>
		<path class="st7" d="M170.6,239.2h36.2v33.5h-36.2V239.2z"/>
		<path class="st7" d="M295.2,239.2h36.2v33.5h-36.2V239.2z"/>
		<path class="st7" d="M232.9,239.2h36.2v33.5h-36.2V239.2z"/>
		<path class="st7" d="M170.6,297.5h36.2V331h-36.2V297.5z"/>
		<path class="st7" d="M295.2,297.5h36.2V331h-36.2V297.5z"/>
		<path class="st7" d="M232.9,297.5h36.2V331h-36.2V297.5z"/>
	</g>
	<path class="st8" d="M186.7,239.2h20.1v33.5h-20.1V239.2z"/>
	<path class="st8" d="M311.3,239.2h20.1v33.5h-20.1V239.2z"/>
	<path class="st8" d="M249,239.2h20.1v33.5H249V239.2z"/>
	<path class="st8" d="M186.7,297.5h20.1V331h-20.1V297.5z"/>
	<path class="st8" d="M311.3,297.5h20.1V331h-20.1V297.5z"/>
	<path class="st8" d="M249,297.5h20.1V331H249V297.5z"/>
	<path class="st9" d="M287.9,130.9v21.4c0,1.5-1.2,2.7-2.7,2.7h-18.1c-1.5,0-2.7,1.2-2.7,2.7v18.1c0,1.5-1.2,2.7-2.7,2.7h-21.4
		c-1.5,0-2.7-1.2-2.7-2.7v-18.1c0-1.5-1.2-2.7-2.7-2.7h-18.1c-1.5,0-2.7-1.2-2.7-2.7v-21.4c0-1.5,1.2-2.7,2.7-2.7h18.1
		c1.5,0,2.7-1.2,2.7-2.7v-18.1c0-1.5,1.2-2.7,2.7-2.7h21.4c1.5,0,2.7,1.2,2.7,2.7v18.1c0,1.5,1.2,2.7,2.7,2.7h18.1
		C286.7,128.2,287.9,129.4,287.9,130.9z"/>
	<path class="st6" d="M145.8,200.6h210.3v20.1H145.8L145.8,200.6z"/>
	<path class="st10" d="M336,200.6h20.1v20.1H336V200.6z"/>
	<path class="st11" d="M406.8,415H95.3c-5.9,0-10.7-4.8-10.7-10.7s4.8-10.7,10.7-10.7h311.5c5.9,0,10.7,4.8,10.7,10.7
		S412.7,415,406.8,415z"/>
	<path class="st12" d="M406.8,393.6h-20.1c5.9,0,10.7,4.8,10.7,10.7s-4.8,10.7-10.7,10.7h20.1c5.9,0,10.7-4.8,10.7-10.7
		S412.7,393.6,406.8,393.6z"/>
</g>
<g>
</g>
<g>
</g>
<g>
</g>
<g>
</g>
<g>
</g>
<g>
</g>
<g>
</g>
<g>
</g>
<g>
</g>
<g>
</g>
<g>
</g>
<g>
</g>
<g>
</g>
<g>
</g>
<g>
</g>
</svg>
