<?xml version="1.0" encoding="utf-8"?>
<!-- Generator: Adobe Illustrator 24.1.0, SVG Export Plug-In . SVG Version: 6.00 Build 0)  -->
<svg version="1.1" id="Layer_1" xmlns="http://www.w3.org/2000/svg" xmlns:xlink="http://www.w3.org/1999/xlink" x="0px" y="0px"
	 viewBox="0 0 500 500" style="enable-background:new 0 0 500 500;" xml:space="preserve">
<style type="text/css">
	.st0{opacity:5.000000e-02;}
	.st1{fill-rule:evenodd;clip-rule:evenodd;fill:#91BBDE;}
	.st2{fill-rule:evenodd;clip-rule:evenodd;fill:#315C80;}
	.st3{fill-rule:evenodd;clip-rule:evenodd;fill:#52BAAC;}
	.st4{fill-rule:evenodd;clip-rule:evenodd;fill:#84E0D4;}
	.st5{fill-rule:evenodd;clip-rule:evenodd;fill:#666666;}
	.st6{fill-rule:evenodd;clip-rule:evenodd;fill:#79A5C9;}
	.st7{fill-rule:evenodd;clip-rule:evenodd;fill:#454545;}
	.st8{fill-rule:evenodd;clip-rule:evenodd;fill:#18364F;}
	.st9{fill-rule:evenodd;clip-rule:evenodd;fill:#FFA200;}
	.st10{fill-rule:evenodd;clip-rule:evenodd;fill:#D18604;}
	.st11{fill-rule:evenodd;clip-rule:evenodd;fill:#379E90;}
	.st12{fill-rule:evenodd;clip-rule:evenodd;fill:#F24660;}
	.st13{fill-rule:evenodd;clip-rule:evenodd;fill:#753C20;}
	.st14{fill-rule:evenodd;clip-rule:evenodd;fill:#F2AC71;}
	.st15{fill-rule:evenodd;clip-rule:evenodd;fill:#CC8C58;}
	.st16{fill-rule:evenodd;clip-rule:evenodd;fill:#F49B74;}
	.st17{fill:none;stroke:#F24660;stroke-width:2.4001;stroke-miterlimit:22.9256;}
	.st18{fill-rule:evenodd;clip-rule:evenodd;fill:#4E2700;}
	.st19{fill-rule:evenodd;clip-rule:evenodd;fill:#381C00;}
	.st20{fill-rule:evenodd;clip-rule:evenodd;fill:#542C03;}
	.st21{fill-rule:evenodd;clip-rule:evenodd;fill:#914C2A;}
	.st22{fill-rule:evenodd;clip-rule:evenodd;fill:#808080;}
	.st23{fill-rule:evenodd;clip-rule:evenodd;fill:#DCCEB1;}
	.st24{fill-rule:evenodd;clip-rule:evenodd;fill:#BAAB8E;}
	.st25{fill:#666666;}
	.st26{fill-rule:evenodd;clip-rule:evenodd;fill:#C4F5EE;}
	.st27{fill-rule:evenodd;clip-rule:evenodd;fill:#A6E6DC;}
	.st28{fill-rule:evenodd;clip-rule:evenodd;fill:#C98664;}
	.st29{fill-rule:evenodd;clip-rule:evenodd;fill:#E8DEC7;}
	.st30{fill-rule:evenodd;clip-rule:evenodd;fill:#FCB623;}
	.st31{fill-rule:evenodd;clip-rule:evenodd;fill:#FFDA85;}
	.st32{fill-rule:evenodd;clip-rule:evenodd;fill:#FFF1D4;}
	.st33{fill-rule:evenodd;clip-rule:evenodd;fill:#FFB200;}
	.st34{fill-rule:evenodd;clip-rule:evenodd;fill:#FFFFFF;}
	.st35{fill-rule:evenodd;clip-rule:evenodd;fill:#58D2D3;}
	.st36{fill-rule:evenodd;clip-rule:evenodd;fill:#8F4C00;}
	.st37{fill-rule:evenodd;clip-rule:evenodd;fill:#FF9F00;}
	.st38{fill:#52BAAC;}
	.st39{fill-rule:evenodd;clip-rule:evenodd;fill:#FAB4BF;}
	.st40{fill:#379E90;stroke:#379E90;stroke-width:0.9601;stroke-miterlimit:22.9256;}
	.st41{fill-rule:evenodd;clip-rule:evenodd;fill:#379E90;stroke:#379E90;stroke-width:0.9601;stroke-miterlimit:22.9256;}
	.st42{fill-rule:evenodd;clip-rule:evenodd;fill:#CC2941;}
	.st43{fill-rule:evenodd;clip-rule:evenodd;fill:#7DD4C8;}
	.st44{fill-rule:evenodd;clip-rule:evenodd;fill:#A9D3F5;stroke:#7DD4C8;stroke-width:0.216;stroke-miterlimit:22.9256;}
	.st45{fill-rule:evenodd;clip-rule:evenodd;fill:#FFBD4C;}
	.st46{fill-rule:evenodd;clip-rule:evenodd;fill:#5C3F25;}
	.st47{fill-rule:evenodd;clip-rule:evenodd;fill:#FFD599;}
	.st48{fill-rule:evenodd;clip-rule:evenodd;fill:#D9FFF8;}
	.st49{fill-rule:evenodd;clip-rule:evenodd;fill:#C93047;}
	.st50{fill-rule:evenodd;clip-rule:evenodd;fill:#CCCCCC;}
	.st51{fill-rule:evenodd;clip-rule:evenodd;fill:#BD283E;}
	.st52{fill-rule:evenodd;clip-rule:evenodd;fill:#96653C;}
	.st53{fill-rule:evenodd;clip-rule:evenodd;fill:#5E3D22;}
	.st54{fill-rule:evenodd;clip-rule:evenodd;fill:#FE7970;}
	.st55{fill-rule:evenodd;clip-rule:evenodd;fill:#222A2B;}
	.st56{fill-rule:evenodd;clip-rule:evenodd;fill:#222A2B;stroke:#000000;stroke-width:0.5669;stroke-miterlimit:22.9256;}
</style>
<g class="st0">
	<g>
		<rect x="205.6" y="364.1" class="st1" width="88.9" height="61.8"/>
		<g>
			<path class="st2" d="M201.4,275.9c-10.2,5.1-6.3,14-14.5,22.7s-26.2,34.9-22.6,52.3c3.7,17.4,34.3,13.7,38.1-5.6
				c3.8-19.3,9.5-35.7,17.1-41.5c7.6-5.9,8.5-3.5,4.4-9.8C219.8,287.8,212.4,270.4,201.4,275.9z"/>
			<g>
				<path class="st3" d="M210.6,265.8c2.3-4.7,10.3-20.3,11.5-25.4c1.1-5.1,5.4-10.7,10.9-10.2s8.4-1.3,10,2.1
					c1.6,3.3-0.4,4.4,0.7,8.5c1.1,4.2-4.8,13.5-8.3,18.1c-3.5,4.6-4.1,14.1-2,20.9c3.5,11-2.5,18.8-12.6,17.2
					c-10-1.6-16.4-11.6-14.7-22.6C206.6,271.5,209.2,268.7,210.6,265.8z"/>
				<g>
					<path class="st4" d="M233.4,279.8L233.4,279.8c0.4,1.2,0.6,2.3,0.8,3.4c-5.2,0.8-11.1,0.9-16.3-1.2c-3.9-1.6-8.1-5.6-10.6-10.2
						c0.5-1.3,1.4-2.6,2.3-3.8c2,5.9,5.5,9.2,9.6,10.9C223.7,280.5,228.8,280.5,233.4,279.8z"/>
					<path class="st4" d="M211.7,263.6c0.5-1,1.1-2.2,1.8-3.5c3.9,6.1,8.2,9,12.5,10.2c2,0.5,4.1,0.7,6.2,0.6c0,1.1,0,2.3,0.1,3.4
						c-2.4,0.1-4.8-0.1-7.2-0.7C220.4,272.3,215.9,269.4,211.7,263.6z"/>
					<path class="st4" d="M214.8,257.4c0.5-1.1,1-2.2,1.6-3.3c4.5,4.4,8.7,6.7,12.6,7.6c1.6,0.4,3.2,0.6,4.7,0.6
						c-0.4,1.1-0.7,2.2-0.9,3.4c-1.5-0.1-3-0.3-4.6-0.7C223.9,264,219.5,261.8,214.8,257.4z"/>
					<path class="st4" d="M218.1,250.3c0.5-1.1,1-2.2,1.5-3.3c6.4,5.2,13.3,6,19.7,6.2c-0.7,1.2-1.5,2.3-2.2,3.4
						C230.9,256.3,224.4,255.1,218.1,250.3z"/>
				</g>
			</g>
		</g>
		<g>
			<path class="st5" d="M266.4,302.2c-8.2,7.9-1.8,15.3-7,26c-5.2,10.7-14.6,41.2-5.9,56.7s36.8,2.8,34.7-16.7
				c-2.1-19.5-1.6-36.9,3.9-44.7c5.5-7.9,7.1-5.9,1.2-10.6C287.5,308.1,275.2,293.7,266.4,302.2z"/>
			<g>
				<path class="st3" d="M272.1,289.9c0.8-5.2,3.8-22.5,3.3-27.7c-0.4-5.2,1.9-11.8,7.4-13c5.4-1.2,7.7-3.7,10.2-1s0.9,4.3,3.3,7.9
					c2.3,3.7-0.5,14.3-2.5,19.8c-1.9,5.5,0.3,14.7,4.3,20.5c6.6,9.5,3.2,18.6-6.9,20.1c-10,1.5-19.2-6.2-20.8-17.1
					C270.1,296.5,271.6,293,272.1,289.9z"/>
				<g>
					<path class="st4" d="M298.1,296.4L298.1,296.4c0.7,1,1.3,2,1.8,3c-4.7,2.3-10.3,4.2-15.9,3.7c-4.2-0.3-9.4-2.9-13.1-6.6
						c0-1.4,0.6-2.9,1-4.3c3.7,5.1,8,7.1,12.4,7.5C289,300,293.9,298.4,298.1,296.4z"/>
					<path class="st4" d="M272.5,287.4c0.2-1.1,0.4-2.5,0.6-3.9c5.6,4.6,10.5,6.1,15,5.9c2.1-0.1,4.2-0.6,6.1-1.3
						c0.3,1.1,0.7,2.2,1.2,3.2c-2.3,0.8-4.6,1.4-7.1,1.5C283.5,293.1,278.2,291.7,272.5,287.4z"/>
					<path class="st4" d="M273.6,280.6c0.2-1.2,0.4-2.4,0.5-3.6c5.6,2.9,10.3,3.7,14.3,3.5c1.7-0.1,3.2-0.4,4.7-0.8
						c-0.1,1.1,0,2.3,0.1,3.5c-1.4,0.4-3,0.6-4.6,0.7C284.3,284.2,279.4,283.4,273.6,280.6z"/>
					<path class="st4" d="M274.7,272.8c0.2-1.2,0.3-2.4,0.4-3.6c7.7,3,14.5,1.8,20.7,0c-0.3,1.4-0.7,2.7-1.1,3.9
						C288.7,274.7,282.1,275.5,274.7,272.8z"/>
				</g>
			</g>
		</g>
		<g>
			<g>
				<path class="st5" d="M288.7,296c10.8,3.6,8.2,13,17.5,20.5s30.8,31,29.6,48.7c-1.2,17.8-32.1,18.3-38.5-0.2s-14.4-34-22.7-38.7
					c-8.3-4.7-8.9-2.3-5.7-9.1C272.1,310.3,277,292,288.7,296z"/>
				<path class="st2" d="M278.2,287.3c-2.9-4.4-13-18.7-14.9-23.6c-1.8-4.9-6.8-9.9-12.2-8.6c-5.4,1.3-8.5-0.1-9.6,3.4
					s1,4.3,0.5,8.6c-0.5,4.3,6.6,12.7,10.7,16.8c4.1,4.1,6.1,13.4,4.9,20.4c-1.9,11.4,5,18.2,14.8,15.3c9.6-2.9,14.7-13.8,11.4-24.4
					C282.9,292.4,280,289.9,278.2,287.3z"/>
			</g>
			<path class="st6" d="M243.6,272.3c6.2-1.3,14-3.1,19.4-9.7c-2.1-4.6-6.8-8.8-11.8-7.6c-5.4,1.3-8.5-0.1-9.6,3.4s1,4.3,0.5,8.6
				C241.8,268.5,242.4,270.3,243.6,272.3z"/>
			<path class="st6" d="M257.7,302.5c6.4,0.6,17.1,5.1,21.3,13c-1.9,1.8-4.1,3.2-6.7,4c-9.8,3-16.8-3.9-14.8-15.3
				C257.6,303.7,257.7,303.1,257.7,302.5z"/>
		</g>
		<path class="st5" d="M335,346.6c-3.9,11.6-41.2,41.4-58.1,45.9s-33.6-12.4-19.7-25.6c18.4-17.6,36.8-32.5,47-37.1
			C314.3,325.1,340.2,330.9,335,346.6z"/>
		<path class="st7" d="M256,366.7c9-5.4,22.9-3.3,30.3,2.8C293.8,375.5,275.4,342.2,256,366.7z"/>
		<path class="st8" d="M300.8,363.6c-9-5.4-22.9-3.3-30.3,2.8C263.1,372.4,281.4,339.1,300.8,363.6z"/>
		<g>
			<path class="st9" d="M227.5,288.1c9,7,3.4,15,9.8,25.1c6.3,10.1,18.9,39.4,11.9,55.7c-7,16.4-36.3,6.7-36.3-12.9
				s-2.4-36.8-8.7-44.1c-6.3-7.2-7.7-5.1-2.4-10.4C207.1,296.2,217.8,280.6,227.5,288.1z"/>
			<g>
				<path class="st3" d="M220.5,276.4c-1.3-5.1-6.1-22-6.3-27.2c-0.1-5.2-3.2-11.5-8.7-12.1s-8-2.9-10.2,0.1s-0.5,4.4-2.4,8.2
					c-1.9,3.9,2,14.2,4.6,19.4c2.5,5.2,1.3,14.7-2.1,20.9c-5.6,10.1-1.2,18.9,9,19.3c10.1,0.4,18.4-8.2,18.8-19.2
					C223.3,282.8,221.3,279.5,220.5,276.4z"/>
				<g>
					<path class="st4" d="M195.4,285.7L195.4,285.7c-0.6,1.1-1.1,2.1-1.4,3.1c5,1.8,10.7,3,16.2,2c4.1-0.8,9.1-3.9,12.4-8
						c-0.2-1.4-0.9-2.8-1.5-4.2c-3.1,5.4-7.2,8-11.5,8.8C204.8,288.3,199.8,287.2,195.4,285.7z"/>
					<path class="st4" d="M219.9,274c-0.3-1.1-0.7-2.4-1-3.8c-5.1,5.2-9.8,7.2-14.3,7.5c-2.1,0.1-4.2-0.1-6.2-0.6
						c-0.2,1.1-0.5,2.3-0.8,3.3c2.3,0.6,4.7,0.8,7.2,0.7C209.6,280.8,214.6,278.9,219.9,274z"/>
					<path class="st4" d="M218.1,267.3c-0.3-1.1-0.6-2.3-0.9-3.5c-5.3,3.5-9.8,4.8-13.8,5c-1.7,0.1-3.2-0.1-4.8-0.3
						c0.2,1.1,0.3,2.3,0.2,3.5c1.5,0.2,3,0.3,4.7,0.2C207.8,272.1,212.6,270.7,218.1,267.3z"/>
					<path class="st4" d="M216.1,259.7c-0.3-1.2-0.6-2.4-0.8-3.5c-7.3,3.8-14.2,3.3-20.5,2.2c0.5,1.3,1,2.6,1.5,3.7
						C202.5,263.1,209.1,263.2,216.1,259.7z"/>
				</g>
			</g>
		</g>
		<path class="st9" d="M167.5,346.5c3.9,11.2,41.2,37.8,58.1,40.8c12.4,2.2,24.8-7.1,24.9-17c0-3.6,2.6-14.6-1.1-17.7
			c-18.4-16-40.9-21.9-51.1-25.6C188.2,323.2,162.3,331.3,167.5,346.5z"/>
		<path class="st10" d="M198.2,363.6c9-5.4,22.9-3.3,30.3,2.8C235.9,372.4,217.6,339.1,198.2,363.6z"/>
		<path class="st3" d="M94.8,358.2c-0.5-7.4-5.2-40.4,13.6-41.1s15.6,13.3,17.1,19.5C127,342.8,109.7,376,94.8,358.2z"/>
		<path class="st3" d="M216.5,358.2c0.5-7.4,5.2-40.4-13.6-41.1s-15.6,13.3-17.1,19.5C184.3,342.8,201.5,376,216.5,358.2z"/>
		<path class="st11" d="M155.3,298.4c26,0,47.5,31.6,47.5,48.3c0,16.8-19.4,45.8-45.4,45.8s-48.7-29-48.7-45.8
			C108.8,330,129.4,298.4,155.3,298.4z"/>
		<path class="st12" d="M331.3,377.1c25.9,0,47-13.6,47-30.4c0-16.7-21.1-30.4-47-30.4s-47,13.6-47,30.4S305.4,377.1,331.3,377.1z"
			/>
		<path class="st13" d="M328.8,204.3c60.9,0,89.9,83.4,48.2,125.6c-18.8-5.1-40.1-12.2-98.4-0.4C237,287.4,267.9,204.3,328.8,204.3z
			"/>
		<path class="st12" d="M270.3,358.2c-0.5-7.4-5.2-40.4,13.6-41.1c18.8-0.7,15.6,13.3,17.1,19.5C302.5,342.8,285.2,376,270.3,358.2z
			"/>
		<path class="st12" d="M283.2,382.4c9.2,0,16.8-7.3,16.8-16.2c0-8.9-7.5-16.2-16.8-16.2c-9.2,0-16.8,7.3-16.8,16.2
			C266.4,375.1,273.9,382.4,283.2,382.4z"/>
		<g>
			<path class="st14" d="M386.9,264.3c-5.1-1.4-11,3.6-13.1,11.1s0.4,14.7,5.5,16.1s11-3.6,13.1-11.1
				C394.4,272.8,392,265.6,386.9,264.3z"/>
			<path class="st14" d="M269.5,264.3c5-1.4,11.2,3.6,13.8,11.1c2.6,7.5,0.6,14.7-4.5,16.1c-5,1.4-11.2-3.6-13.8-11.1
				C262.4,272.8,264.4,265.6,269.5,264.3z"/>
		</g>
		<path class="st14" d="M330.2,336.3c10.4,0,29.7-7.1,41.3-21.7c11.6-14.6,14.9-46,12.4-61.7c-2.4-15.8-22.6-45.1-57.6-45.1
			s-53.3,29.4-54.7,45.1c-1.4,15.8,7.3,46.6,16.3,59.2C296.9,324.6,319.8,336.3,330.2,336.3z"/>
		<path class="st13" d="M344.6,265c4.4-0.6,6.6-3,13.6-1.5c4.7,1,7-0.2,1.3-2c-5-1.6-9.9-1.9-15.2-1.2
			C339.7,260.9,340.7,265.6,344.6,265z"/>
		<path class="st15" d="M327.7,300.5c9.2-1.2,7.3-7.2,7.2-12.8C337.9,294.6,340.6,301,327.7,300.5z"/>
		<path class="st13" d="M315.2,264.8c-4.4-0.6-9.8-1.8-14.5-1.1c-4.7,0.7-6.2-0.4-0.6-2.2c4.9-1.6,9.8-1.9,15.1-1.2
			C319.9,260.9,319.2,265.4,315.2,264.8z"/>
		<path class="st16" d="M355.7,289.9c6,1.2,10.4,4.5,9.8,7.5c-0.6,2.9-5.9,4.4-12,3.2c-6-1.2-10.4-4.5-9.8-7.5
			C344.3,290.1,349.7,288.7,355.7,289.9z"/>
		<path class="st16" d="M304.6,289.9c-5.9,1.2-10.1,4.5-9.4,7.5c0.8,2.9,6.2,4.4,12.2,3.2c5.9-1.2,10.1-4.5,9.4-7.5
			C316,290.1,310.5,288.7,304.6,289.9z"/>
		<line class="st17" x1="362.1" y1="282.4" x2="376.5" y2="269"/>
		<g>
			<g>
				<path class="st17" d="M306.4,270.3c-7.3,0-13,5.9-12.7,13.2c0.2,7.3,6.3,13.2,13.6,13.2c7.3,0,13-5.9,12.7-13.2
					C319.8,276.2,313.7,270.3,306.4,270.3z"/>
				<path class="st17" d="M349,270.3c-7.3,0-13,5.9-12.7,13.2c0.2,7.3,6.3,13.2,13.6,13.2c7.3,0,13-5.9,12.7-13.2
					C362.3,276.2,356.2,270.3,349,270.3z"/>
			</g>
			<path class="st17" d="M336.5,286.5c-0.8-3.5-4.4-6.2-8.6-6.2s-7.6,2.7-8.2,6.2"/>
		</g>
		<line class="st17" x1="293.8" y1="281.7" x2="280.3" y2="269"/>
		<path class="st13" d="M286.6,254.3c-4.2,11.9-5.8,25.2-5.4,29.6c0.3,4.4-14.3-12.7-12-26.8C271.5,243,292,240.2,286.6,254.3z"/>
		<path class="st13" d="M368.2,253.1c3,8.7,8.5,24.5,8.2,28.8c-0.3,4.4,12.8-10.8,10.4-24.9C384.4,243,362.8,239,368.2,253.1z"/>
		<path class="st13" d="M269,257.3c4.6,0.4,11.4,0.6,19.3,0.8c3.1-13.1,11.9-22.7,15.2-26c-5.4,10.2-8.3,19-8.5,26
			c9.7,0.1,20.7,0,31.7-0.3c0.2-7.1,0.9-16.3,2.6-28c1.5,5.5,2,16.3,2.5,27.8c8.3-0.2,16.5-0.5,24.1-0.9c-0.8-6.6-3.5-14.6-8.2-23.7
			c3.1,3.1,10.7,11.8,14.3,23.4c10-0.5,18.6-1.2,24.3-2c-3.5-17.4-17.7-46.3-59-47.2C286,206.4,269,235.8,269,257.3z"/>
		<g>
			<path class="st14" d="M96.9,264.3c5.1-1.4,11.1,3.6,13.4,11.1s0.1,14.7-5,16.1s-11.1-3.6-13.4-11.1
				C89.6,272.8,91.8,265.6,96.9,264.3z"/>
			<path class="st14" d="M214.3,264.3c-5.1-1.4-11.1,3.6-13.4,11.1c-2.3,7.5-0.1,14.7,5,16.1s11.1-3.6,13.4-11.1
				C221.6,272.8,219.4,265.6,214.3,264.3z"/>
		</g>
		<path class="st14" d="M156.4,338.9c-10.4,0-39.5-14.2-47.6-24.2s-11.2-46-9.3-61.7c1.9-15.8,21.1-45.1,56.1-45.1
			s54.2,29.4,56.1,45.1c1.9,15.8-1.2,51.7-9.3,61.7C194.4,324.6,166.8,338.9,156.4,338.9z"/>
		<path class="st16" d="M131,289.8c-4.7,0.9-8.1,3.6-7.6,5.9s4.8,3.5,9.5,2.5c4.7-0.9,8.1-3.6,7.6-5.9S135.7,288.9,131,289.8z"/>
		<path class="st18" d="M171.4,265.6c4.4-0.2,10.1-1.2,14.8-0.1s6-0.2,0.6-2.6c-4.8-2-9.6-2.8-14.9-2.7
			C167,260.4,167.4,265.8,171.4,265.6z"/>
		<path class="st15" d="M157.2,300.5c-9.2-1.2-7.5-7.2-7.6-12.8C146.8,294.6,144.3,301,157.2,300.5z"/>
		<path class="st19" d="M98.9,275.8c-2.5-13.4-8.1-39.8-2-42.9c6.2-3.1,12.3-4.6,8.2-9.8c-4.1-5.1,7.2-22.6,27.8-22.6
			s50.9,10.8,64.8,14.4c13.9,3.6,13.1,2.6,17.2,0.5c4.1-2.1-6.2,13.4,1,13.4s1.2,11.2-2,35c-3.2,23.8-6.6,27.6-8.8,2.7
			c-2.9-32.3-6-29.5-20.3-21.2c-18.1,10.4-26.4,10.8-53.5-0.4c-23.3-9.6-22.9,11.1-24.5,29.5C105.3,292.8,101,286.8,98.9,275.8z"/>
		<path class="st18" d="M139.1,265.6c-4.4-0.2-10.1-1.2-14.8-0.1s-6-0.2-0.6-2.6c4.8-2,9.6-2.8,14.9-2.7
			C143.4,260.4,143,265.8,139.1,265.6z"/>
		<path class="st20" d="M122.2,210.6c12.7-8.5,43.4-1.2,61,6.7s31.6,1.1,22.8,7.6c-6.8,5,7.7,8.7,6.4,19.4
			c-1.8,14.6-5.1,0.2-6.7-4.6c-2.7-8.2-14.2-11.9-25-4.4c-15.1,10.4-47.3,2.4-54.6-1.8c-7.3-4.3-15.6,3-18.8,8.7
			c-4.3,7.4-5.2,12.4-6.9,5.8c-2.8-10.8,4.7-12.3,10.1-18C116.9,223,110.3,218.5,122.2,210.6z"/>
		<path class="st16" d="M187.9,286.2c4.8-0.6,8.8,0.9,9,3.3s-3.5,4.8-8.3,5.3c-4.8,0.6-8.8-0.9-9-3.3S183.1,286.8,187.9,286.2z"/>
		<path class="st15" d="M287.4,311.2c2.8-1.6,8.7-0.4,12.2,3.5s3.9,8.1,3.9,8.1s5.4,2.5,4.9,6.2C308,332.9,284.8,319.4,287.4,311.2z
			"/>
		<path class="st14" d="M302,324c12.4,5.1,10.6,17.9,1.5,39.5c-9,21.6-17.6,19.2-26.6,14.1c-6.7-5.6-4.1-16.6,0.5-21.1
			c4.6-4.6,18.5-19.8,16.8-20.4c-1.6-0.7-14.2-7.7-14.7-14.1s3.6-10.8,9.8-10.8S303.9,320,302,324z"/>
		<path class="st15" d="M302,324c-4.3-1.9-7.6-6.6-11.2-6.1C293.4,317.9,295.5,322.1,302,324z"/>
		<path class="st12" d="M392,358.2c0.5-7.4,5.2-40.4-13.6-41.1c-18.8-0.7-15.6,13.3-17.1,19.5C359.8,342.8,377,376,392,358.2z"/>
		<path class="st12" d="M379,382.4c9.2,0,16.8-7.3,16.8-16.2c0-8.9-7.5-16.2-16.8-16.2c-9.2,0-16.8,7.3-16.8,16.2
			C362.3,375.1,369.8,382.4,379,382.4z"/>
		<path class="st15" d="M374.8,311.2c-2.8-1.6-8.7-0.4-12.2,3.5s-3.9,8.1-3.9,8.1s-5.4,2.5-4.9,6.2
			C354.2,332.9,377.4,319.4,374.8,311.2z"/>
		<path class="st14" d="M360.2,324c-12.4,5.1-10.6,17.9-1.5,39.5c9,21.6,17.6,19.2,26.6,14.1c6.7-5.6,4.1-16.6-0.5-21.1
			c-4.6-4.6-18.5-19.8-16.8-20.4c1.6-0.7,14.2-7.7,14.7-14.1s-3.6-10.8-9.8-10.8C366.7,311.2,358.3,320,360.2,324z"/>
		<path class="st15" d="M360.2,324c4.3-1.9,7.6-6.6,11.2-6.1C368.8,317.9,366.7,322.1,360.2,324z"/>
		<path class="st3" d="M203.6,382.4c9.2,0,16.8-7.3,16.8-16.2c0-8.9-7.5-16.2-16.8-16.2c-9.2,0-16.8,7.3-16.8,16.2
			S194.3,382.4,203.6,382.4z"/>
		<path class="st15" d="M199.3,311.2c-2.8-1.6-8.7-0.4-12.2,3.5s-3.9,8.1-3.9,8.1s-5.4,2.5-4.9,6.2
			C178.7,332.9,201.9,319.4,199.3,311.2z"/>
		<path class="st14" d="M184.7,324c-12.4,5.1-10.6,17.9-1.5,39.5c9,21.6,17.6,19.2,26.6,14.1c6.7-5.6,4.1-16.6-0.5-21.1
			c-4.6-4.6-18.5-19.8-16.8-20.4c1.6-0.7,14.2-7.7,14.7-14.1s-3.6-10.8-9.8-10.8S182.8,320,184.7,324z"/>
		<path class="st15" d="M184.8,324c4.3-1.9,7.6-6.6,11.1-6.1C193.3,317.9,191.2,322.1,184.8,324z"/>
		<path class="st21" d="M327.1,205.9c-9.3,0.3-36.6,7.7-48.4,27.6c-11.8,20-13.8,25.6-7.9,20.5s6.7-4.9,7.7,0.3s1.3,4.9,6.9-6.7
			c5.6-11.5,32.2-35.8,28.1-27.1s-9.7,32.7-5.1,22.8c4.6-10,12.5-25.1,10.5-13c-2,12,1.3,19.7,3.8,6.1c2.6-13.6,11.5-31,13.8-17.1
			c2.3,13.8,8.7,27.4,6.7,15.1c-2-12.3,3.3-15.4,9.2-7.7c5.9,7.7,13.3,17.9,12,9.2s-3.7-13.1,3.1-6.4c6.9,6.9,17.5,37.9,15.1,24.3
			c-1.5-8.7-1.5-20-16.4-33C353.3,209.3,339.4,205.5,327.1,205.9z"/>
		<polygon class="st22" points="392.3,388.9 433.9,458.3 266.2,491.1 262.5,414.1 		"/>
		
			<rect x="168.9" y="338.3" transform="matrix(0.1909 -0.9816 0.9816 0.1909 -257.7793 496.1238)" class="st11" width="6.3" height="132.2"/>
		<path class="st23" d="M416.5,461.7L267,490.9L250.5,475c19.9-20.8,98.6-55.2,161.8-34.6C412,448.5,413.3,455.7,416.5,461.7z"/>
		<path class="st24" d="M412.3,440.3l-26-43.2c-49.6-16.2-121.4-11.3-137,5l1.2,72.9C274.4,453.8,341.3,424.8,412.3,440.3z"/>
		<polygon class="st22" points="107.8,388.7 66.2,458.2 233.9,490.9 237.6,413.9 		"/>
		<path class="st23" d="M84.4,461.7l149.5,29.2l16.6-15.9c-19.9-20.8-98.7-55.2-161.9-34.6C88.8,448.5,87.6,455.7,84.4,461.7z"/>
		<path class="st24" d="M250.5,475c9.2,0,16.6,7.4,16.6,16.6c0,0.2,0,0.4,0,0.6c-5.3,0.7-10.7,1.1-16.1,1.1
			c-5.8,0-11.5-0.4-17.2-1.2c0-0.2,0-0.3,0-0.5C233.9,482.4,241.3,475,250.5,475z"/>
		
			<rect x="145.3" y="392.9" transform="matrix(0.1909 -0.9816 0.9816 0.1909 -348.751 533.6471)" class="st5" width="8" height="171"/>
		
			<rect x="266.1" y="474.5" transform="matrix(0.9816 -0.1909 0.1909 0.9816 -84.8897 75.8333)" class="st5" width="170.1" height="8"/>
		<path class="st25" d="M268.3,498.8c-5.7,0.8-11.6,1.2-17.4,1.2c-6.2,0-12.3-0.4-18.4-1.3l1.5-7.9c5.5,0.8,11.2,1.2,16.8,1.2
			c5.4,0,10.8-0.4,16-1.1L268.3,498.8L268.3,498.8z"/>
		<path class="st26" d="M88.6,440.3l34.8-66c49.6-16.2,110.3,11.5,125.9,27.8l1.2,72.9C230.6,454.2,151.8,419.7,88.6,440.3z"/>
		<path class="st27" d="M403.5,417.5l-33.8-52.1c-50.7-12.8-104.8,20.4-120.4,36.7l1.2,72.9C271.1,450.7,338.5,405.7,403.5,417.5z"
			/>
		<path class="st24" d="M203.1,458.5c-7.7-4-51.7-14.1-72.2-14.7C152.6,440.3,197.1,452.4,203.1,458.5z"/>
		<path class="st24" d="M230.2,486c-7.5-4.3-43.4-14-63.9-15.2C188.1,468,224.4,479.7,230.2,486z"/>
		<path class="st24" d="M162.7,460.1c-12-3.3-45.6-9.7-66.2-10.9C119.8,446,153.9,454,162.7,460.1z"/>
		<path class="st24" d="M231.4,479.3c-7.3-4.6-42.8-15.6-63.3-17.6C190.1,459.7,225.9,472.8,231.4,479.3z"/>
		<g>
			<path class="st3" d="M106.3,388.7c10.9,0,19.9-8,19.9-17.8s-8.9-17.8-19.9-17.8c-10.9,0-19.9,8-19.9,17.8
				C86.5,380.7,95.4,388.7,106.3,388.7z"/>
			<path class="st14" d="M145,392.7c10.4,4.6-6,19.7-14.9,11.4c-5.9-5.5-10.5-5.8-18.6-9.7c-21.1-10.2-16.3-22.7-9.5-28.6
				c6.6-5.7,17-1.3,20.8,4C126.5,375.1,137.6,389.5,145,392.7z"/>
			<path class="st14" d="M165.7,402.7c3.8,1.6,7.7,4.1,5,6.2C168,411.1,158.6,401.8,165.7,402.7z"/>
			<path class="st15" d="M165.7,402.7c1.8,1.2,5.1,3.7,5,6.2C170.6,411.4,159.9,404.2,165.7,402.7z"/>
			<path class="st14" d="M147.7,416.5c1.7,2.9,7.1,6,10.4,2c0,0,2.8,1.4,5.2-0.3c2.4-1.6,1.8-3.5,1.8-3.5s7.9,5.5,10.4,3.4
				s-1.4-3.7-4.1-8.1c-2.7-4.4-9.7-12.2-12.7-13.2c-2.9-1-7.3-0.5-13.7-4s-20.1,4.3-15.2,10.9C131.3,405.9,144.7,423.6,147.7,416.5z
				"/>
			<path class="st15" d="M165.1,414.7c-1.9-1.9-5.2-7.8-8.4-7.5C160.3,409.7,161.8,413.3,165.1,414.7z"/>
			<path class="st15" d="M158.1,418.5c-2.1-1.3-5.5-7-8.4-7.5C152.7,413.6,154.4,417.2,158.1,418.5z"/>
			<path class="st15" d="M147.7,416.5c-1.1-0.7-1.8-2.7-3.6-3.1C145.6,415,146.1,416.5,147.7,416.5z"/>
		</g>
		<g>
			<path class="st28" d="M222.9,404.6h3.2v11.2c-1.1,0.8-2.2,0.9-3.2,0V404.6z"/>
			<path class="st3" d="M224.4,379.8c5,0,9,6.5,9,14.6c0,8-4,14.6-9,14.6s-9-6.5-9-14.6S219.5,379.8,224.4,379.8z"/>
		</g>
		<g>
			<path class="st28" d="M168.7,391h3.5v7c-1.2,0.5-2.4,0.5-3.5,0V391z"/>
			<path class="st9" d="M170.4,356.1c6.5,10.4,10.2,22,10.2,35.2c-6.7,2.1-13.5,2.3-20.4,0C160.9,379.6,164.8,367.8,170.4,356.1z"/>
		</g>
		<path class="st29" d="M202.3,461.3c-7.6-4-43.8-12.6-64.3-13.2C160,445.9,196.5,456.2,202.3,461.3z"/>
		<path class="st29" d="M231.6,482.9c-6.6-4.7-42.2-15-63.7-16.1C189.8,464.4,225.9,476.6,231.6,482.9z"/>
		<path class="st29" d="M160.1,464.4c-7-4.1-43.4-10.9-64.9-9.9C116.6,449.9,153.7,458.6,160.1,464.4z"/>
		<path class="st24" d="M275.6,467.2c13.7-7.4,75.2-22.8,95.8-23.4C349.7,440.3,287.7,456.7,275.6,467.2z"/>
		<path class="st24" d="M341.3,469c12-3.3,45.6-9.7,66.2-10.9C384.2,454.8,350.1,462.8,341.3,469z"/>
		<path class="st24" d="M270.8,479.3c7.3-4.6,42.8-15.6,63.3-17.6C312.2,459.7,276.4,472.8,270.8,479.3z"/>
		<path class="st29" d="M276.4,471.4c7.7-4,67.3-22.7,87.9-23.3C342.2,445.9,287.2,463.6,276.4,471.4z"/>
		<path class="st29" d="M270.6,482.9c6.6-4.7,42.2-15,63.7-16.1C312.5,464.4,276.4,476.6,270.6,482.9z"/>
		<path class="st29" d="M341.2,464.9c7-4.1,43.4-10.9,64.9-9.9C384.6,450.5,347.5,459.1,341.2,464.9z"/>
		<polygon class="st30" points="262.9,55.3 265.1,67.2 277.2,65.6 266.5,71.4 271.7,82.4 262.9,74 254.1,82.4 259.3,71.4 
			248.6,65.6 260.7,67.2 		"/>
		<g>
			<path class="st31" d="M115.3,124.2l38.5,19.2l-23.3-36.2C116.4,85.3,90.6,111.9,115.3,124.2z"/>
			<path class="st32" d="M113.2,117.6l26.7,13.4l-16.2-25.1C114,90.7,96.1,109.1,113.2,117.6z"/>
			<g>
				<path class="st31" d="M85.7,82.4c-4.9,13.9,7.7,27.1,20.1,24.8c1.2-1.1,2.4-2.3,3.6-3.6c1.2-1.3,2.2-2.6,3.1-4
					C113.5,87.1,98.9,76,85.7,82.4z"/>
				<path class="st30" d="M62.9,61.9c-4.3-5.2-10.2-11.3-17-17.5c-6.8-6.1-13.5-11.3-19.2-15c4.3,5.2,10.2,11.3,17,17.5
					C50.5,53,57.2,58.2,62.9,61.9z"/>
				<path class="st12" d="M81.4,97l4.1,22.5l22,7.6l1.2-1.3c-4.3-4.4-10.5-11.9-7.6-18.5L81.4,97z"/>
				<path class="st12" d="M99.7,76.5l22.8,1.6l10,21l-1.2,1.3c-4.8-3.8-12.9-9.2-19.2-5.6L99.7,76.5z"/>
				<path class="st33" d="M44.8,45.7C40.9,72.3,75,106.2,101,107.4c2.2-1.7,4.3-3.6,6.2-5.7c1.9-2.1,3.6-4.4,5-6.7
					C108.2,69.1,70.8,38.9,44.8,45.7z"/>
				<path class="st31" d="M70.9,94.5c5-3.6,9.8-7.8,14.1-12.7c4.4-4.9,8.1-10,11.1-15.4c-4.8-4.9-10.3-9.4-16.2-12.9
					c-2.9,5-6.4,9.8-10.5,14.4c-4.1,4.5-8.5,8.5-13.2,12C60.4,85.2,65.5,90.2,70.9,94.5z"/>
				<path class="st12" d="M50,70c4.2-2.4,8.2-5.4,11.6-9.3c3.4-3.8,6.1-8,7.9-12.5c-8.5-3.3-17.1-4.6-24.8-2.6
					C43.6,53.5,45.7,61.9,50,70z"/>
				<path class="st12" d="M63.9,62.8c-2.8,3.1-2.5,7.8,0.6,10.5c3.1,2.8,7.8,2.5,10.5-0.6c2.8-3.1,2.5-7.8-0.6-10.5
					C71.3,59.5,66.6,59.7,63.9,62.8z"/>
				<path class="st12" d="M79.5,76.8c-2.8,3.1-2.5,7.8,0.6,10.5c3.1,2.8,7.8,2.5,10.5-0.6c2.8-3.1,2.5-7.8-0.6-10.5
					C86.9,73.5,82.2,73.7,79.5,76.8z"/>
				
					<rect x="106.1" y="84.4" transform="matrix(0.6677 -0.7444 0.7444 0.6677 -40.0673 113.5045)" class="st12" width="2.1" height="34.4"/>
				<g>
					<path class="st3" d="M65.5,64.2c-2,2.2-1.8,5.6,0.4,7.5c2.2,2,5.6,1.8,7.5-0.4c2-2.2,1.8-5.6-0.4-7.5
						C70.8,61.9,67.4,62,65.5,64.2z"/>
					<path class="st34" d="M66.2,64.9c-1.2,1.4-1.4,3.3-0.7,4.9c0-1.1,0.4-2.1,1.1-3c1.6-1.8,4.4-2,6.2-0.3c0.4,0.4,0.8,0.8,1,1.3
						c0-1.2-0.5-2.4-1.5-3.2C70.6,62.9,67.8,63.1,66.2,64.9z"/>
				</g>
				<g>
					<path class="st3" d="M81,78.2c-2,2.2-1.8,5.6,0.4,7.5c2.2,2,5.6,1.8,7.5-0.4c2-2.2,1.8-5.6-0.4-7.5C86.4,75.9,83,76,81,78.2z"
						/>
					<path class="st34" d="M81.8,78.9c-1.2,1.4-1.4,3.3-0.7,4.9c0-1.1,0.4-2.1,1.1-3c1.6-1.8,4.4-2,6.2-0.3c0.4,0.4,0.8,0.8,1,1.3
						c0-1.2-0.5-2.3-1.5-3.2C86.1,76.9,83.4,77.1,81.8,78.9z"/>
				</g>
			</g>
		</g>
		<polygon class="st30" points="349.7,162.2 351.7,172.8 362.4,171.4 352.9,176.5 357.5,186.3 349.7,178.9 341.8,186.3 346.5,176.5 
			337,171.4 347.7,172.8 		"/>
		<polygon class="st35" points="228,109.6 229.3,116.5 236.1,115.6 230.1,118.9 233,125.1 228,120.4 223,125.1 226,118.9 
			219.9,115.6 226.7,116.5 		"/>
		<g>
			<path class="st11" d="M175.3,18.3c-7.7,11.9-4.3,27.8,7.7,35.5c11.9,7.7,27.8,4.3,35.5-7.7c7.7-11.9,4.3-27.8-7.7-35.5
				C198.9,2.9,183,6.3,175.3,18.3z"/>
			<path class="st35" d="M210.8,19.8c1.4-2.3,2.7-4.4,3.7-6.3c-1-0.9-2.1-1.8-3.3-2.6l-0.4,0.6V19.8L210.8,19.8z M210.8,53.8V41.2
				c3.3-4.9,6.9-10,2.5-11c-5.3-1.1,0.1-5.6,5.1-12.1c0.7,1.1,1.3,2.2,1.8,3.3c-1.3,1.6-2.2,2.9-1.6,3.3c2.1,1.4,2.6,8.5-4.2,17.8
				c-5.9,8,1.6,2.1,6.5-0.9c-0.6,1.6-1.4,3.1-2.3,4.6C216.5,49.3,213.8,51.9,210.8,53.8z M201.1,27.6c0.4,0.2,0.5,0.9,0,2.1v4.8
				c0.9-1.8,2.7-4.7,5.9-9.2c1.4-1.9,2.6-3.8,3.8-5.6v-8.3c-4.3,5.9-8.1,10.4-5.4,3.8c1.1-2.8,1.4-5,1.3-6.8
				c-1.8-0.8-3.7-1.3-5.6-1.6V27.6L201.1,27.6z M201.1,50v-8.3c0.4,0,0.8-0.2,1.1-0.7c0.7-1.1-0.2-1.9-1.1-1.9v-2
				c1.1,0,3.3-1.5,5.3-2.8c4.5-3.1,5,0.2,0.5,5.9C203.4,44.6,202.4,46.3,201.1,50L201.1,50z M210.8,41.2c-1.2,1.8-2.4,3.6-3.1,5.1
				c-1.3,2.7-0.1,6.3,2.6,7.9c0.2-0.1,0.4-0.2,0.6-0.4V41.2H210.8z M199,11.8c1.3,0.5,1.8,2.7,0,5.5V28c1-0.5,1.8-0.6,2.2-0.4V6.8
				c-0.7-0.1-1.5-0.2-2.2-0.3V11.8L199,11.8z M201.1,29.7c-0.4,0.9-1.1,2.2-2.2,3.7v4.2c0.5,0,1,0.5,0.6,1.1
				c-0.2,0.2-0.4,0.4-0.6,0.4v4.7c1.5,0.4,2,1.6,0.3,4.3c-0.1,0.2-0.2,0.3-0.3,0.4v7.7c0.4-0.8,0.7-1.7,1-2.6
				c0.5-1.4,0.9-2.6,1.2-3.7v-8.3c-1,0.1-1.9-0.9-0.9-2.2c0.2-0.3,0.6-0.4,0.9-0.4v-2c-0.8,0-0.9-0.7,0-2.6V29.7z M198.3,11.7
				c0.2,0,0.5,0,0.7,0.1V6.6c-0.2,0-0.4,0-0.7,0V11.7L198.3,11.7z M199,17.3l-0.1,0.1c-0.2,0.3-0.4,0.6-0.6,0.9v6.8
				c0,0.1,0,0.1,0,0.2v1.1c0.4,0,0.8,0.4,0.5,0.8c-0.1,0.2-0.3,0.3-0.5,0.3v0.7c0.2-0.1,0.4-0.2,0.7-0.3L199,17.3L199,17.3z
				 M199,33.4c-0.2,0.3-0.4,0.6-0.7,0.9v3.8c0-0.1,0.1-0.2,0.1-0.2c0.1-0.2,0.3-0.2,0.5-0.2L199,33.4L199,33.4z M198.3,43.7
				c0.2,0,0.5,0.1,0.7,0.1v-4.7c-0.3,0-0.5-0.1-0.7-0.3v1.3c0.2,0.2,0.3,0.6,0.1,1c0,0,0,0.1-0.1,0.1V43.7L198.3,43.7z M199,48.5
				c-0.2,0.3-0.4,0.6-0.7,0.9v8.3c0.2-0.5,0.4-0.9,0.7-1.4V48.5z M197.6,11.8c0.2-0.1,0.5-0.1,0.7-0.1V6.5c-0.2,0-0.5,0-0.7,0V11.8
				L197.6,11.8z M198.3,18.4c-0.2,0.4-0.5,0.8-0.7,1.2v5c0.3,0,0.6,0.2,0.7,0.6V18.4L198.3,18.4z M197.6,28.7
				c0.2-0.1,0.5-0.3,0.7-0.4v-0.7c-0.4,0-0.8-0.4-0.4-0.9c0.1-0.1,0.2-0.2,0.4-0.2v-1.1c0,0.1-0.1,0.2-0.1,0.3
				c-0.1,0.2-0.4,0.3-0.6,0.4L197.6,28.7L197.6,28.7z M198.3,34.4c-0.1,0.2-0.2,0.3-0.4,0.5c-0.1,0.1-0.2,0.3-0.3,0.4v4.5
				c0.3,0,0.5,0.1,0.7,0.3v-1.3c-0.1-0.2-0.1-0.4,0-0.7V34.4L198.3,34.4z M197.6,43.6c0.2,0,0.5,0,0.7,0v-2.5
				c-0.2,0.2-0.4,0.4-0.7,0.4V43.6L197.6,43.6z M198.3,49.4c-0.2,0.3-0.5,0.5-0.7,0.7v7.8c0.2,0,0.4,0,0.6,0l0.1-0.2L198.3,49.4
				L198.3,49.4z M196.4,12.4c0.4-0.3,0.8-0.5,1.2-0.6V6.5c-0.4,0-0.8,0-1.2,0V12.4L196.4,12.4z M197.6,19.6
				c-0.4,0.8-0.8,1.6-1.2,2.4v4.8c0.5,0,1,0.5,0.6,1.1c-0.2,0.2-0.4,0.4-0.6,0.4v1.4c0.4-0.3,0.8-0.6,1.2-0.8v-2.7
				c-0.6,0.1-1.1-0.5-0.6-1.2c0.1-0.2,0.3-0.2,0.6-0.2V19.6L197.6,19.6z M197.6,35.3c-0.4,0.5-0.8,1-1.2,1.5v6.9
				c0.4,0,0.9-0.1,1.2-0.1v-2c-0.7,0.1-1.3-0.6-0.6-1.5c0.2-0.2,0.4-0.3,0.6-0.3V35.3L197.6,35.3z M197.6,50.1
				c-0.4,0.4-0.9,0.6-1.2,0.7V58c0.4,0,0.8,0,1.2,0V50.1z M194,6.7c-2.5,6.3-5.2,8.9-7.6,10.8v7.1c0.5-0.4,1.2-1.1,1.6-1.9
				c1.2-2.3,2.7,2,0.1,6.7c-0.6,1-1.1,1.5-1.7,1.5v3.3c2,0.1,3.8-0.8,4.7-3.3c3-7.9-0.7-10.3,3-16c0.7-1.1,1.5-1.9,2.2-2.4v-6
				C195.6,6.5,194.8,6.6,194,6.7L194,6.7z M196.4,22v4.8c-0.2,0-0.4,0.1-0.5,0.2c-0.6,0.7,0,1.3,0.5,1.2v1.4
				c-0.1,0.1-0.2,0.1-0.3,0.2C192.3,32.6,193.9,27.1,196.4,22L196.4,22z M196.4,36.8c-3.5,3.9-7.2,5.6-10,5.5v4.3
				c0.1,0,0.2-0.1,0.3-0.1c2.7-1.1,6.7-2.4,9.7-2.7V36.8L196.4,36.8z M196.4,50.7v7.2c-3.3-0.1-6.5-0.8-9.6-2.1
				c0.8-1.9,1.9-3.9,2.9-5.4C192.3,46.3,193.8,51.3,196.4,50.7z M186.4,17.4c-2.4,1.8-4.6,3-6.4,6.2l-0.1,0.1v5.9
				c1.3,2.5,4,4.3,6.5,4.5v-3.3c-2.1,0.3-3.9-4.7-2.8-7.6c1.2-2.9,2.9-2.5,1.7,0.2c-0.8,1.7,0.1,1.8,1,1v-7H186.4z M186.4,42.2
				c-2.1-0.1-3.6-1.1-4.1-3c-1.1-3.9-1.1-4.7-2.4-2.9v5c1.2,0,2.4,1.1,1.5,2.6c-0.4,0.6-0.9,0.9-1.5,0.9v1.1
				c0.7-0.2,1.7,0.4,1.1,1.4c-0.3,0.4-0.7,0.6-1.1,0.5v3.4c0.6,0.6,1.3,1.1,2,1.6c0.8-3,1.3-5.1,4.5-6.5V42.2z M179.8,23.8
				c-1.1,2-0.9,4.1,0,5.9V23.8L179.8,23.8z M179.8,36.4v5c-0.5,0-0.9,0.2-1.2,0.5c-1.4,1.8-0.1,3.1,1.2,3V46c-0.1,0-0.3,0.1-0.4,0.3
				c-0.6,0.8-0.2,1.5,0.4,1.6v3.4c-5.1-4.6-8.1-10.9-8.5-17.4c0.8-0.9,1.5-1.6,2-2.1c2.9-3.2,3.1,9.7,5.5,6.1
				C179.2,37.3,179.6,36.8,179.8,36.4z"/>
			<path class="st11" d="M175.3,18.3c-1.6,2.5-2.8,5.3-3.4,8.1c4.5-1.1,10.5-9.8,13.3-17C181.3,11.3,177.9,14.3,175.3,18.3z"/>
		</g>
		<g>
			<path class="st28" d="M233.5,445.9h3.5v7c-1.2,0.5-2.4,0.5-3.5,0V445.9z"/>
			<path class="st9" d="M235.2,411.1c6.5,10.4,10.2,22,10.2,35.2c-6.7,2.1-13.5,2.3-20.4,0C225.7,434.5,229.6,422.8,235.2,411.1z"/>
		</g>
		<g>
			<path class="st36" d="M427.3,81.6l-11.6-2c-3-1.7-8.5,2.3-6.5,4.6l3.9,5.3L427.3,81.6z"/>
			<path class="st9" d="M475.7,51.5l-1.2,0.7c-0.3,0.2-0.4,0.5-0.2,0.8l0,0c0.2,0.3,0.5,0.4,0.8,0.2l1.2-0.7
				c0.3-0.2,0.4-0.5,0.2-0.8l0,0C476.4,51.4,476,51.3,475.7,51.5z"/>
			<path class="st9" d="M470.3,44.4l8,14C478.3,58.4,472.2,51.6,470.3,44.4z"/>
			<path class="st37" d="M426.8,80.7l-11.6-2c-3-1.7-8.5,2.3-6.5,4.6l3.9,5.3L426.8,80.7z"/>
			<path class="st37" d="M434.3,62.6l37.3,22.8c8.4,5.2,20.9-4.7,13.3-8.6L444,56C436.8,52.3,427.1,58.2,434.3,62.6z"/>
			<polygon class="st3" points="448.9,52.9 447.3,53.8 456.5,64.9 457.1,62.8 			"/>
			<path class="st3" d="M471.1,49.9c1.6-0.1,3.8,0.5,6,7.3c2.3,6.8-10.4,6.7-10.4,6.7s-9.7,6.7-18,11.6
				c-8.4,4.9-26.6,15.4-30.1,16.5s-6.4,1.1-7.4-3.5c-0.9-4.5,1.4-10.9,4.2-10.6c2.8,0.3,8.2,3.5,9.5,3.2s10-9.1,20-15.4
				C455,59.5,469.4,50,471.1,49.9z"/>
			<path class="st9" d="M456.4,60.6c1.2,0.6,1.6,2.8,0.2,4c-1.4,1.2-2.7,1.9-2.7,1.9l-3.3-3.8l0.7-0.5l2.4-1.5l1.3-0.8L456.4,60.6z"
				/>
			<polygon class="st3" points="467.1,61.5 465.5,62.4 474.7,73.5 475.3,71.4 			"/>
			<path class="st38" d="M439.6,47.9c-0.1-0.2-0.3-0.2-0.4-0.1c-0.2,0.1-0.2,0.3-0.1,0.4l4.8,9.4c0.1,0.2,0.3,0.2,0.4,0.1
				c0.2-0.1,0.2-0.3,0.1-0.4L439.6,47.9z"/>
			<path class="st38" d="M445,46.9c0-0.2-0.1-0.3-0.3-0.3c-0.2,0-0.3,0.1-0.3,0.3l-0.7,10.5c0,0.2,0.1,0.3,0.3,0.3
				c0.2,0,0.3-0.1,0.3-0.3L445,46.9z"/>
			<path class="st38" d="M439.6,48.1c0-0.2-0.1-0.3-0.3-0.3c-0.2,0-0.3,0.1-0.3,0.3l-0.7,12.8c0,0.2,0.1,0.3,0.3,0.3
				c0.2,0,0.3-0.1,0.3-0.3L439.6,48.1z"/>
			<path class="st38" d="M477,64.8c0-0.2-0.1-0.4-0.2-0.4c-0.2,0-0.4,0.1-0.4,0.2l-3.6,14.5c0,0.2,0.1,0.4,0.2,0.4
				c0.2,0,0.4-0.1,0.4-0.2L477,64.8z"/>
			<path class="st38" d="M477,64.7c0-0.2-0.2-0.3-0.4-0.3c-0.2,0-0.3,0.2-0.3,0.4l1.9,11.1c0,0.2,0.2,0.3,0.4,0.3
				c0.2,0,0.3-0.2,0.3-0.4L477,64.7z"/>
			<path class="st38" d="M482,64c0-0.2-0.1-0.4-0.2-0.4c-0.2,0-0.4,0.1-0.4,0.2l-3.1,11.9c0,0.2,0.1,0.4,0.2,0.4
				c0.2,0,0.4-0.1,0.4-0.2L482,64z"/>
			<path class="st9" d="M435.1,49.1l39.9,20c9,4.5,21.3-5.2,13.2-8.5l-43.4-18C437.1,39.4,427.4,45.2,435.1,49.1z"/>
			<path class="st37" d="M427.9,81.8l2.6,9.6c0.8,2.9-4,6-6.8,4.6l-7.9-4.1l3.1-5.2L427.9,81.8z"/>
		</g>
		<g>
			<path class="st28" d="M124.2,411.1h3.1v11c-1.1,0.8-2.1,0.9-3.1,0V411.1z"/>
			<path class="st3" d="M125.8,392.1c6.1,0,11,5.2,11,11.6s-4.9,11.6-11,11.6c-6.1,0-11-5.2-11-11.6
				C114.7,397.3,119.7,392.1,125.8,392.1z"/>
		</g>
		<polygon class="st30" points="256.3,190.2 257.8,198.7 266.5,197.6 258.8,201.8 262.6,209.6 256.3,203.6 250,209.6 253.7,201.8 
			246.1,197.6 254.7,198.7 		"/>
		<polygon class="st35" points="455.1,151.7 458.1,167.8 474.4,165.7 460,173.5 467,188.3 455.1,177 443.2,188.3 450.3,173.5 
			435.9,165.7 452.1,167.8 		"/>
		<g>
			<g>
				<path class="st12" d="M298.1,141.6l-9.3-45.3c-7.7-37.3,16-69.2,56.6-55.2C386,55,385,94.7,356,119.4l-35.2,30L298.1,141.6z"/>
				<path class="st39" d="M299.3,142l-6.9-44.5c-5.6-36.6,16.7-68.9,52.9-56.5c36.1,12.4,33.9,51.7,7,77.1L319.6,149L299.3,142z"/>
				<path class="st12" d="M301.2,142.6l-3.3-43.2c-2.7-35.6,17.8-68.5,47.5-58.4C375,51.2,371,89.8,347,116.2l-29.1,32.1
					L301.2,142.6z"/>
				<path class="st39" d="M303.3,143.4l1-41.8c0.8-34.4,19.2-68.1,41-60.6s15.6,45.4-4.9,73l-24.9,33.6L303.3,143.4z"/>
				<path class="st12" d="M306.9,144.6l8-39.4c6.6-32.4,21.4-67.3,30.4-64.2c9.1,3.1-0.7,39.8-15.4,69.4l-17.9,36L306.9,144.6z"/>
			</g>
			<g>
				<polygon class="st40" points="288.1,82.5 291.3,161.8 290.6,161.8 287.4,82.3 				"/>
				<polygon class="st40" points="365.9,109.2 314.6,170 314,169.6 365.2,109 				"/>
				<polygon class="st40" points="298.8,86.2 294.4,162.9 293.7,162.8 298.1,85.9 				"/>
				<polygon class="st40" points="355.2,105.6 311.5,168.9 310.9,168.5 354.6,105.3 				"/>
				<polygon class="st40" points="318.2,92.8 300.2,164.9 299.5,164.8 317.5,92.6 				"/>
				<polygon class="st40" points="335.8,98.9 305.7,166.9 305.1,166.6 335.2,98.7 				"/>
			</g>
			<path class="st41" d="M287.4,81.5l78.9,27.1c-0.2,0.2-0.3,0.5-0.5,0.7l-78.4-26.9C287.4,82,287.4,81.8,287.4,81.5z"/>
			<polygon class="st12" points="290.5,161.4 314.7,169.7 304.2,187.6 287.7,182 			"/>
			<polygon class="st42" points="312.1,174 310.9,176.2 289.5,168.8 289.8,166.4 			"/>
			<polygon class="st42" points="290.5,161.4 314.7,169.7 313.4,171.8 290.2,163.9 			"/>
			<g>
				<polygon class="st30" points="290.3,163 313.8,171.1 313.4,171.8 290.2,163.9 				"/>
				<g>
					<path class="st30" d="M290.8,163.4c2.7,0.9,2.3,7.6-2.1,6.1S288.2,162.5,290.8,163.4z"/>
					<path class="st30" d="M290.6,164c0.7,0.2,1.6-0.6,1.7-1.5c-0.3-0.1-0.7-0.2-1.1-0.3s-0.8-0.3-1.1-0.4
						C289.7,162.5,289.9,163.8,290.6,164z"/>
				</g>
				<g>
					<path class="st30" d="M313.2,171.1c2.7,0.9,2.3,7.6-2.1,6.1C306.7,175.6,310.5,170.1,313.2,171.1z"/>
					<path class="st30" d="M313,171.7c0.7,0.2,1.6-0.6,1.7-1.5c-0.3-0.1-0.7-0.2-1.1-0.3s-0.8-0.3-1.1-0.4
						C312,170.2,312.2,171.5,313,171.7z"/>
				</g>
				<g>
					<path class="st30" d="M298.3,165.9c2.7,0.9,2.3,7.6-2.1,6.1S295.6,165,298.3,165.9z"/>
					<path class="st30" d="M298.1,166.6c0.7,0.2,1.6-0.6,1.7-1.5c-0.3-0.1-0.7-0.2-1.1-0.3s-0.8-0.3-1.1-0.4
						C297.2,165.1,297.3,166.4,298.1,166.6z"/>
				</g>
				<g>
					<path class="st30" d="M305.7,168.5c2.7,0.9,2.3,7.6-2.1,6.1S303.1,167.6,305.7,168.5z"/>
					<path class="st30" d="M305.5,169.2c0.7,0.2,1.6-0.6,1.7-1.5c-0.3-0.1-0.7-0.2-1.1-0.3s-0.8-0.3-1.1-0.4
						C304.6,167.6,304.8,168.9,305.5,169.2z"/>
				</g>
			</g>
		</g>
		<polygon class="st35" points="61,112.5 64,128.6 80.2,126.5 65.8,134.3 72.9,149.1 61,137.8 49.1,149.1 56.1,134.3 41.7,126.5 
			58,128.6 		"/>
		<polygon class="st12" points="175.7,78.5 177,85.3 183.9,84.4 177.8,87.7 180.8,94 175.7,89.2 170.7,94 173.7,87.7 167.6,84.4 
			174.5,85.3 		"/>
		<polygon class="st12" points="386,10.8 387.8,20.5 397.6,19.2 389,23.9 393.2,32.8 386,26 378.9,32.8 383.1,23.9 374.4,19.2 
			384.2,20.5 		"/>
		<polygon class="st12" points="213.7,170.9 215.5,180.6 225.3,179.3 216.6,184 220.9,193 213.7,186.2 206.5,193 210.8,184 
			202.1,179.3 211.9,180.6 		"/>
		<polygon class="st12" points="77.9,20.7 79.1,27.5 86,26.6 79.9,29.9 82.9,36.2 77.9,31.4 72.9,36.2 75.8,29.9 69.7,26.6 
			76.6,27.5 		"/>
		<g>
			<polygon class="st9" points="281.3,403.8 295.6,417 318.4,410.6 314.3,394.7 			"/>
			<polygon class="st9" points="349.3,385 314,394.8 318.4,410.6 340.6,404.5 			"/>
			<path class="st3" d="M285.6,400.6l27.8-7.7c0,0-11.4-41.2-13.1-47.5C281.2,369.4,285.6,400.6,285.6,400.6z"/>
			<path class="st11" d="M303.9,350.9c1.5,5.5,11.4,41.2,11.4,41.2l24.2-6.7C339.5,385.4,328.9,360.3,303.9,350.9z"/>
			<polygon class="st12" points="283.9,406.3 286.5,408.6 315.9,400.5 315.1,397.6 			"/>
			<polygon class="st12" points="347.7,388.6 314.8,397.7 315.6,400.6 346.1,392.1 			"/>
		</g>
		<g>
			<g>
				<path class="st11" d="M281.4,409c-7.9,5-10.2,15.4-5.3,23.3l14.3-9L281.4,409z"/>
				<path class="st3" d="M284.4,413.7c-5.3,3.3-6.9,10.4-3.5,15.7l9.6-6.1L284.4,413.7z"/>
				<path class="st43" d="M287.9,419.2c-2.3,1.4-2.9,4.4-1.5,6.7l4.1-2.6L287.9,419.2z"/>
			</g>
			<g>
				<path class="st11" d="M303.9,399.8c-8.6,3.5-12.7,13.4-9.2,22l15.6-6.4L303.9,399.8z"/>
				<path class="st3" d="M306,404.8c-5.8,2.4-8.6,9-6.2,14.8l10.5-4.3L306,404.8z"/>
				<path class="st43" d="M308.4,410.8c-2.5,1-3.7,3.9-2.6,6.3l4.5-1.9L308.4,410.8z"/>
			</g>
			<g>
				<path class="st11" d="M327.7,392.3c-8.9,2.7-13.9,12.1-11.2,21l16.1-4.9L327.7,392.3z"/>
				<path class="st3" d="M329.3,397.6c-6,1.8-9.4,8.2-7.5,14.2l10.9-3.3L329.3,397.6z"/>
				<path class="st44" d="M331.2,403.8c-2.6,0.8-4,3.5-3.2,6.1l4.7-1.4L331.2,403.8z"/>
			</g>
			<g>
				<path class="st11" d="M352,387.4c-9.1,1.9-15,10.8-13.1,19.9l16.5-3.4L352,387.4z"/>
				<path class="st3" d="M353.1,392.8c-6.1,1.3-10.1,7.3-8.8,13.4l11.1-2.3L353.1,392.8z"/>
				<path class="st43" d="M354.5,399.2c-2.6,0.5-4.3,3.1-3.8,5.7l4.8-1L354.5,399.2z"/>
			</g>
			<g>
				<path class="st11" d="M376.9,385.5c-9.3,0.6-16.3,8.7-15.7,18l16.8-1.1L376.9,385.5z"/>
				<path class="st3" d="M377.3,391c-6.3,0.4-11,5.8-10.6,12.1l11.3-0.8L377.3,391z"/>
				<path class="st43" d="M377.7,397.5c-2.7,0.2-4.7,2.5-4.5,5.2l4.9-0.3L377.7,397.5z"/>
			</g>
		</g>
		<g>
			<path class="st25" d="M413.4,207.2l8.9,3.5L410,222.8c-0.9,0.9-1.7,1.5-2.3,1.8s-1.3,0.4-2,0.3c-0.7-0.1-1.3-0.4-1.8-0.9
				c-0.6-0.6-0.8-1.3-0.7-2c0.1-0.8,0.6-1.6,1.3-2.3c0.7-0.7,1.6-1.2,2.5-1.3s1.7,0.1,2.3,0.8c0.2,0.2,0.4,0.4,0.5,0.6
				c0.1,0.2,0.2,0.6,0.4,1.2l8-8l-6.7-2.6l-9.3,9.2c-0.9,0.9-1.7,1.5-2.3,1.8c-0.7,0.3-1.3,0.4-2,0.3c-0.7-0.1-1.3-0.4-1.8-0.9
				c-0.6-0.6-0.8-1.2-0.7-2c0.1-0.8,0.6-1.5,1.3-2.3c0.8-0.8,1.6-1.2,2.5-1.3s1.7,0.1,2.3,0.8c0.4,0.4,0.7,1,0.8,1.9L413.4,207.2z"
				/>
		</g>
		<g>
			<path class="st25" d="M215.7,80.9l10.3-6.5l4.1,16.2c0.3,1.2,0.4,2.2,0.3,2.8c-0.1,0.7-0.5,1.3-1.1,1.9s-1.4,1-2.3,1.2
				c-1,0.3-1.9,0.2-2.7-0.3s-1.3-1.2-1.5-2.1c-0.2-1-0.1-1.9,0.4-2.8s1.4-1.5,2.5-1.8c0.4-0.1,0.7-0.1,1-0.2c0.3,0,0.8,0.1,1.5,0.2
				L225.7,79l-7.7,4.8l3.1,12.2c0.3,1.2,0.4,2.1,0.2,2.9c-0.1,0.7-0.5,1.4-1.2,2c-0.6,0.6-1.4,1-2.3,1.2c-1,0.3-1.9,0.2-2.7-0.3
				c-0.8-0.4-1.2-1.2-1.5-2.1c-0.3-1-0.1-2,0.4-2.8c0.5-0.9,1.4-1.5,2.5-1.8c0.7-0.2,1.6-0.2,2.6,0L215.7,80.9z"/>
		</g>
		<g>
			<path class="st25" d="M96.9,169.5l8.7-8.2l7.1,15.8c0.5,1.2,0.8,2.1,0.8,2.8s-0.2,1.4-0.7,2.1c-0.5,0.7-1.1,1.2-2,1.6
				c-0.9,0.4-1.8,0.5-2.7,0.1c-0.8-0.3-1.5-1-1.9-1.9c-0.4-1-0.5-1.9-0.1-2.9s1.1-1.7,2.1-2.2c0.3-0.2,0.7-0.3,1-0.3
				c0.3-0.1,0.8-0.1,1.5-0.1L106,166l-6.5,6.1l5.4,11.9c0.5,1.1,0.8,2.1,0.8,2.9c0,0.8-0.2,1.5-0.7,2.2s-1.2,1.2-2,1.6
				c-0.9,0.4-1.8,0.5-2.6,0.1c-0.8-0.3-1.4-1-1.9-1.9c-0.5-1-0.5-2-0.1-3s1.1-1.7,2.1-2.2c0.7-0.3,1.5-0.4,2.6-0.4L96.9,169.5z"/>
		</g>
		<polygon class="st12" points="277.2,12.9 278.5,19.7 285.3,18.8 279.3,22.1 282.2,28.4 277.2,23.6 272.2,28.4 275.2,22.1 
			269.1,18.8 275.9,19.7 		"/>
		<g>
			<g>
				<path class="st9" d="M429.2,134.9c3.4,1.7,7.7,1.6,11-0.8c-1.7,3.7-5.3,6-9.1,6.2C430,138.6,429.4,136.7,429.2,134.9z"/>
				<path class="st9" d="M434.1,124.9c0.2,3.8,2.5,7.4,6.2,9.1c-4.1,0.4-7.9-1.6-10-4.8c0.8-1.6,2-3.1,3.5-4.2
					C433.9,125,434,125,434.1,124.9z"/>
				<path class="st9" d="M445.1,124.1c-3.2,2.1-5.2,5.9-4.8,10c-2.4-3.3-2.6-7.6-0.8-11C441.4,122.9,443.3,123.3,445.1,124.1z"/>
				<path class="st9" d="M451.3,133.2c-3.4-1.7-7.7-1.6-11,0.8c1.7-3.7,5.3-6,9.1-6.2C450.5,129.5,451.2,131.4,451.3,133.2z"/>
				<path class="st9" d="M446.5,143.2c-0.2-3.8-2.5-7.4-6.2-9.1c4.1-0.4,7.9,1.6,10,4.8c-0.8,1.6-2,3.1-3.5,4.2
					C446.6,143.1,446.6,143.2,446.5,143.2z"/>
				<path class="st9" d="M435.5,144c3.2-2.1,5.2-5.9,4.8-10c2.4,3.3,2.6,7.6,0.8,11C439.2,145.2,437.2,144.9,435.5,144z"/>
			</g>
			<g>
				<path class="st45" d="M430.3,129.2c2.1,3.2,5.9,5.2,10,4.8c-3.3,2.4-7.6,2.6-11,0.8C429.1,132.9,429.5,131,430.3,129.2z"/>
				<path class="st45" d="M439.5,123c-1.7,3.4-1.6,7.7,0.8,11c-3.7-1.7-6-5.3-6.2-9.1C435.7,123.8,437.6,123.2,439.5,123z"/>
				<path class="st45" d="M449.4,127.8c-3.8,0.2-7.4,2.5-9.1,6.2c-0.4-4.1,1.6-7.9,4.8-10c1.6,0.8,3.1,2,4.2,3.5
					C449.3,127.7,449.4,127.8,449.4,127.8z"/>
				<path class="st45" d="M450.2,138.9c-2.1-3.2-5.9-5.2-10-4.8c3.3-2.4,7.6-2.6,11-0.8C451.4,135.2,451.1,137.1,450.2,138.9z"/>
				<path class="st45" d="M441.1,145.1c1.7-3.4,1.6-7.7-0.8-11c3.7,1.7,6,5.3,6.2,9.1C444.8,144.3,443,144.9,441.1,145.1z"/>
				<path class="st45" d="M431.1,140.3c3.8-0.2,7.4-2.5,9.1-6.2c0.4,4.1-1.6,7.9-4.8,10c-1.6-0.8-3.1-2-4.2-3.5
					C431.2,140.4,431.2,140.3,431.1,140.3z"/>
			</g>
		</g>
		<g>
			<g>
				<path class="st35" d="M236.5,147.8c3.4,1.7,7.7,1.6,11-0.8c-1.7,3.7-5.3,6-9.1,6.2C237.3,151.5,236.6,149.6,236.5,147.8z"/>
				<path class="st35" d="M241.3,137.8c0.2,3.8,2.5,7.4,6.2,9.1c-4.1,0.4-7.9-1.6-10-4.8c0.8-1.6,2-3.1,3.5-4.2
					C241.2,137.9,241.2,137.8,241.3,137.8z"/>
				<path class="st35" d="M252.3,137c-3.2,2.1-5.2,5.9-4.8,10c-2.4-3.3-2.6-7.6-0.8-11C248.7,135.8,250.6,136.1,252.3,137z"/>
				<path class="st35" d="M258.6,146.1c-3.4-1.7-7.7-1.6-11,0.8c1.7-3.7,5.3-6,9.1-6.2C257.8,142.4,258.4,144.3,258.6,146.1z"/>
				<path class="st35" d="M253.7,156.1c-0.2-3.8-2.5-7.4-6.2-9.1c4.1-0.4,7.9,1.6,10,4.8c-0.8,1.6-2,3.1-3.5,4.2
					C253.9,156,253.8,156,253.7,156.1z"/>
				<path class="st35" d="M242.7,156.9c3.2-2.1,5.2-5.9,4.8-10c2.4,3.3,2.6,7.6,0.8,11C246.4,158.1,244.5,157.7,242.7,156.9z"/>
			</g>
			<g>
				<path class="st11" d="M237.6,142.1c2.1,3.2,5.9,5.2,10,4.8c-3.3,2.4-7.6,2.6-11,0.8C236.4,145.8,236.7,143.9,237.6,142.1z"/>
				<path class="st11" d="M246.7,135.9c-1.7,3.4-1.6,7.7,0.8,11c-3.7-1.7-6-5.3-6.2-9.1C243,136.7,244.8,136.1,246.7,135.9z"/>
				<path class="st11" d="M256.7,140.7c-3.8,0.2-7.4,2.5-9.1,6.2c-0.4-4.1,1.6-7.9,4.8-10c1.6,0.8,3.1,2,4.2,3.5
					C256.6,140.6,256.6,140.7,256.7,140.7z"/>
				<path class="st11" d="M257.5,151.8c-2.1-3.2-5.9-5.2-10-4.8c3.3-2.4,7.6-2.6,11-0.8C258.7,148.1,258.3,150,257.5,151.8z"/>
				<path class="st11" d="M248.3,158c1.7-3.4,1.6-7.7-0.8-11c3.7,1.7,6,5.3,6.2,9.1C252.1,157.2,250.2,157.8,248.3,158z"/>
				<path class="st11" d="M238.4,153.2c3.8-0.2,7.4-2.5,9.1-6.2c0.4,4.1-1.6,7.9-4.8,10c-1.6-0.8-3.1-2-4.2-3.5
					C238.5,153.3,238.4,153.2,238.4,153.2z"/>
			</g>
		</g>
		<g>
			<g>
				<g>
					<path class="st12" d="M73.5,190.3l-43.6-8.2c-0.3-0.1-0.6,0.1-0.6,0.4l-0.6,3.3c-0.1,0.3,0.1,0.6,0.4,0.6l2,0.4l-0.6,3.2
						c-0.3,1.3,0.6,2.6,2,2.9l1.6,0.3c1.3,0.3,2.6-0.6,2.9-2l0.6-3.2l27.9,5.2l-0.6,3.2c-0.3,1.3,0.6,2.6,2,2.9l1.6,0.3
						c1.3,0.3,2.6-0.6,2.9-2l0.6-3.2l0.7,0.1c0.3,0.1,0.6-0.1,0.6-0.4l0.6-3.3C74,190.7,73.8,190.4,73.5,190.3z"/>
					<path class="st46" d="M65.4,193.3l-0.6,3.2c-0.3,1.3,0.6,2.6,2,2.9l1.6,0.3c1.3,0.3,2.6-0.6,2.9-2l0.6-3.2L65.4,193.3z"/>
					<path class="st46" d="M31.1,186.9l-0.6,3.2c-0.3,1.3,0.6,2.6,2,2.9l1.6,0.3c1.3,0.3,2.6-0.6,2.9-2l0.6-3.2L31.1,186.9z"/>
					<path class="st11" d="M72.5,178.7c-0.3-6.4-3.7-14.5-5-14.8c-0.7-0.1-5.8-1.6-11.1-2.6c-5.4-1-10.9-1.5-11.4-1.6
						c-1.1-0.2-7.4,6.1-10,12c-5,0-5.7,8.4-5.7,8.7s0.2,0.5,0.4,0.5l0,0l22.2,4.1l22.2,4.2l0,0c0.3,0,0.5-0.1,0.6-0.4
						C74.7,188.6,77.1,180.5,72.5,178.7z"/>
					<path class="st9" d="M35.8,179.6c-1.2-0.2-2.1-1.4-1.8-2.7c0.2-1.2,1.4-2.1,2.7-1.8c1.2,0.2,2.1,1.4,1.8,2.7
						C38.3,179,37.1,179.9,35.8,179.6z"/>
					<path class="st3" d="M38.6,172.7c-0.1,0-0.1,0-0.1-0.1v-0.2c0.2-0.4,4.8-9.4,6.9-9.7c2.1-0.3,10.1,1.1,10.4,1.2
						c0,0,0.8,0.1,2,0.4c3.8,0.7,8.2,1.7,8.9,2.5c1.1,1.1,2.7,11.1,2.8,11.5c0,0.1,0,0.1-0.1,0.1c0,0-0.1,0.1-0.2,0L38.6,172.7z"/>
					<path class="st9" d="M68.8,185.8c-1.2-0.2-2.1-1.4-1.8-2.7c0.2-1.2,1.4-2.1,2.7-1.8c1.2,0.2,2.1,1.4,1.8,2.7
						C71.2,185.2,70,186,68.8,185.8z"/>
					
						<rect x="51.2" y="174.1" transform="matrix(0.1838 -0.983 0.983 0.1838 -134.8409 199.809)" class="st34" width="3.3" height="13.9"/>
				</g>
				
					<rect x="34.4" y="167.6" transform="matrix(0.1838 -0.983 0.983 0.1838 -138.4361 174.5584)" class="st12" width="3" height="6.1"/>
				
					<rect x="71.2" y="174.4" transform="matrix(0.1837 -0.983 0.983 0.1837 -115.1295 216.337)" class="st12" width="3" height="6.1"/>
			</g>
			<g>
				<path class="st34" d="M41.7,173.3l21.4-7.9c1.8,0.5,3.2,0.9,3.6,1.3c0.1,0.1,0.3,0.5,0.4,0.9l-18.8,6.9L41.7,173.3z"/>
				<path class="st34" d="M39.2,171.1l18.6-6.8h0.1c1,0.2,2.1,0.4,3.2,0.6l-21.6,7.9l-0.8-0.2c-0.1,0-0.1,0-0.1-0.1v-0.2
					C38.5,172.4,38.8,171.8,39.2,171.1z"/>
				<path class="st34" d="M51.2,175.1l16.4-6c0.1,0.5,0.3,1.1,0.4,1.7l-13.5,5L51.2,175.1z"/>
			</g>
		</g>
		<g>
			<path class="st14" d="M389.4,174.6L389.4,174.6c1.4,0.9,1.8,2.7,0.9,4.1l-16.1,24.9c-0.9,1.4-2.7,1.8-4.1,0.9l0,0
				c-1.4-0.9-1.8-2.7-0.9-4.1l16.1-24.9C386.2,174.1,388.1,173.7,389.4,174.6z"/>
			<path class="st12" d="M409.9,128.6l13,8.4c2.2,1.4,2.5,3.8,0.7,7l-24.5,44.8c-1.5,2.7-5.2,3.2-7.8,1.5l-16.9-10.9
				c-2.7-1.7-3.7-5.3-1.9-7.8l30.7-40.8C405.4,127.8,407.6,127.1,409.9,128.6z"/>
			<path class="st39" d="M413.3,140.6l-13.6,21.1v18.2l20.2-35.2C423.1,139.2,417.2,134.6,413.3,140.6L413.3,140.6z M399.8,155.3
				v-15.1l4.2-5.8c3.7-5.2,10.4-1.7,6.5,4.3L399.8,155.3z M399.8,161.7l-10.9,16.8c-1.5,2.3-1.3,5,0.4,6.1l2.4,1.5
				c1.7,1,4.4,0.2,5.7-2.1l2.3-4v-18.3H399.8z M399.8,140.2v15.1L386,176.7c-1.5,2.3-4.1,3.3-5.7,2.1l-2.3-1.6
				c-1.7-1.1-2-3.9-0.4-6.1L399.8,140.2z"/>
			<path class="st35" d="M406.4,175.4l-7.3,13.3c-1.5,2.7-5.2,3.2-7.8,1.5l-16.9-10.9c-2.7-1.7-3.7-5.3-1.9-7.8l9.1-12.1
				L406.4,175.4z"/>
			<path class="st37" d="M409.9,128.6l13,8.4c2.2,1.4,2.5,3.8,0.7,7l-7.3,13.3L394,142.9l9.1-12.1
				C405.4,127.8,407.6,127.1,409.9,128.6z"/>
			<path class="st47" d="M413.3,140.6l-4.2,6.6v5.4l4.6,3l6.2-10.8C423.1,139.2,417.2,134.6,413.3,140.6L413.3,140.6z M409.1,140.8
				V132c2.2,0.6,3.6,3.2,1.3,6.7L409.1,140.8z M409.1,147.2l-2.5,3.9l2.5,1.6V147.2L409.1,147.2z M409.1,132v8.8l-5.4,8.4l-7.1-4.6
				l7.3-10.1C405.5,132.3,407.5,131.6,409.1,132z"/>
			<path class="st48" d="M395.4,168.4l-5.2,8.1v8.7l1.5,0.9c1.7,1,4.4,0.2,5.7-2.1l6-10.4L395.4,168.4L395.4,168.4z M390.2,170.1
				V165l2.3,1.5L390.2,170.1z M390.2,176.5l-1.3,2.1c-1.5,2.3-1.3,5,0.4,6.1l0.9,0.5V176.5L390.2,176.5z M390.2,165v5.1l-4.2,6.6
				c-1.5,2.3-4.1,3.3-5.7,2.1l-2.3-1.6c-1.7-1.1-2-3.9-0.4-6.1l7-9.8L390.2,165z"/>
		</g>
		<g>
			<g>
				<path class="st9" d="M132.6,39c3.4,1.7,7.7,1.6,11-0.8c-1.7,3.7-5.3,6-9.1,6.2C133.4,42.7,132.7,40.8,132.6,39z"/>
				<path class="st9" d="M137.4,29c0.2,3.8,2.5,7.4,6.2,9.1c-4.1,0.4-7.9-1.6-10-4.8c0.8-1.6,2-3.1,3.5-4.2
					C137.3,29.1,137.3,29,137.4,29z"/>
				<path class="st9" d="M148.4,28.2c-3.2,2.1-5.2,5.9-4.8,10c-2.4-3.3-2.6-7.6-0.8-11C144.7,27,146.7,27.3,148.4,28.2z"/>
				<path class="st9" d="M154.7,37.3c-3.4-1.7-7.7-1.6-11,0.8c1.7-3.7,5.3-6,9.1-6.2C153.9,33.6,154.5,35.5,154.7,37.3z"/>
				<path class="st9" d="M149.8,47.3c-0.2-3.8-2.5-7.4-6.2-9.1c4.1-0.4,7.9,1.6,10,4.8c-0.8,1.6-2,3.1-3.5,4.2
					C150,47.2,149.9,47.2,149.8,47.3z"/>
				<path class="st9" d="M138.8,48.1c3.2-2.1,5.2-5.9,4.8-10c2.4,3.3,2.6,7.6,0.8,11C142.5,49.3,140.6,48.9,138.8,48.1z"/>
			</g>
			<g>
				<path class="st45" d="M133.7,33.3c2.1,3.2,5.9,5.2,10,4.8c-3.3,2.4-7.6,2.6-11,0.8C132.5,37,132.8,35.1,133.7,33.3z"/>
				<path class="st45" d="M142.8,27.1c-1.7,3.4-1.6,7.7,0.8,11c-3.7-1.7-6-5.3-6.2-9.1C139.1,27.9,140.9,27.3,142.8,27.1z"/>
				<path class="st45" d="M152.8,31.9c-3.8,0.2-7.4,2.5-9.1,6.2c-0.4-4.1,1.6-7.9,4.8-10c1.6,0.8,3.1,2,4.2,3.5
					C152.7,31.8,152.7,31.9,152.8,31.9z"/>
				<path class="st45" d="M153.6,43c-2.1-3.2-5.9-5.2-10-4.8c3.3-2.4,7.6-2.6,11-0.8C154.8,39.3,154.4,41.2,153.6,43z"/>
				<path class="st45" d="M144.4,49.2c1.7-3.4,1.6-7.7-0.8-11c3.7,1.7,6,5.3,6.2,9.1C148.2,48.4,146.3,49,144.4,49.2z"/>
				<path class="st45" d="M134.5,44.4c3.8-0.2,7.4-2.5,9.1-6.2c0.4,4.1-1.6,7.9-4.8,10c-1.6-0.8-3.1-2-4.2-3.5
					C134.6,44.5,134.5,44.4,134.5,44.4z"/>
			</g>
		</g>
		<g>
			<path class="st12" d="M194.3,396.7l-6.2-2.6c-2.6-1.1-6.7,1-9.7,1.6c-2.2,0.4-3.1,0-4.1-0.1c-1.5-0.2-2.6,0.3-3.2,0.8
				c-0.6,0.5-1.4,2-1.8,2.8c-0.4,0.9,0.1,1.5,0.6,1.7l26.3,11.1c0.6,0.2,1.1-0.3,1.4-0.9c0.4-0.8,1.3-2.4,1.4-3.4
				C199.6,404.4,199.3,398.8,194.3,396.7z"/>
			<path class="st49" d="M169.3,399.1c0-0.1,0.1-0.2,0.2-0.3l28.5,11.6c-0.1,0.3-0.3,0.5-0.4,0.7c-0.3,0.5-0.8,1.1-1.4,0.9
				l-26.3-11.1C169.3,400.6,168.9,399.9,169.3,399.1z"/>
			<path class="st49" d="M194.8,411.3c1.1-2.7-0.1-4.5-2.2-5.4c-2.1-0.9-4.2-0.5-5.4,2.2L194.8,411.3z"/>
			<path class="st5" d="M188.1,408.5c-0.7,1.6,0.1,3.5,1.7,4.2c1.6,0.7,3.5-0.1,4.2-1.7s-0.1-3.5-1.7-4.2
				C190.7,406.1,188.8,406.9,188.1,408.5z"/>
			<path class="st50" d="M189.1,408.9c-0.5,1.1,0.1,2.4,1.2,2.8c1.1,0.5,2.4-0.1,2.8-1.2c0.5-1.1-0.1-2.4-1.2-2.8
				C190.8,407.3,189.5,407.8,189.1,408.9z"/>
			<path class="st49" d="M178.9,404.6c1.1-2.7-0.1-4.5-2.2-5.4c-2.1-0.9-4.2-0.5-5.4,2.2L178.9,404.6z"/>
			<path class="st5" d="M172.2,401.8c-0.7,1.6,0.1,3.5,1.7,4.2c1.6,0.7,3.5-0.1,4.2-1.7s-0.1-3.5-1.7-4.2
				C174.7,399.4,172.8,400.2,172.2,401.8z"/>
			<path class="st50" d="M173.1,402.2c-0.5,1.1,0.1,2.4,1.2,2.8c1.1,0.5,2.4-0.1,2.8-1.2c0.5-1.1-0.1-2.4-1.2-2.8
				C174.9,400.6,173.6,401.1,173.1,402.2z"/>
			<path class="st34" d="M187.4,394.7c0,0-3.9-0.9-7.7,2.3l5.8,2.4L187.4,394.7z"/>
			
				<rect x="187.6" y="395.3" transform="matrix(0.3889 -0.9213 0.9213 0.3889 -250.9858 418.7698)" class="st34" width="5.1" height="6.6"/>
			<path class="st34" d="M194.9,397.8l-2,4.7c0,0,2.9,1.2,4.6,1.9C199.2,405.2,198.2,399.4,194.9,397.8z"/>
			<path class="st49" d="M184.6,400c-0.1,0.1,0,0.3,0.1,0.3l0.8,0.3c0.1,0.1,0.3,0,0.3-0.1l0.1-0.2c0.1-0.1,0-0.3-0.1-0.3l-0.8-0.3
				c-0.1-0.1-0.3,0-0.3,0.1L184.6,400z"/>
			<path class="st49" d="M191,402.7c-0.1,0.1,0,0.3,0.1,0.3l0.8,0.3c0.1,0.1,0.3,0,0.3-0.1l0.1-0.2c0.1-0.1,0-0.3-0.1-0.3l-0.8-0.3
				c-0.1-0.1-0.3,0-0.3,0.1L191,402.7z"/>
			<path class="st49" d="M178.9,396.8c0,0.2,0.1,0.4,0.2,0.4l1.1,0.3c0.2,0,0.4-0.1,0.4-0.2l0.1-0.2c0-0.2-0.1-0.4-0.2-0.4l-1.1-0.3
				c-0.2,0-0.4,0.1-0.4,0.2L178.9,396.8z"/>
			<path class="st34" d="M172.2,395.6c0.3,0.4,0.4,0.9,0.1,1.5c-0.3,0.7-1.1,1.1-1.8,0.8c-0.2-0.1-0.4-0.2-0.5-0.4
				c0.3-0.5,0.7-1,0.9-1.2C171.3,396.1,171.7,395.8,172.2,395.6z"/>
		</g>
		<g>
			<path class="st28" d="M205.5,425.7h3.4v12.1c-1.2,0.9-2.4,0.9-3.4,0V425.7z"/>
			<path class="st3" d="M207.3,404.9c6.7,0,12.2,5.7,12.2,12.7s-5.4,12.7-12.2,12.7c-6.7,0-12.2-5.7-12.2-12.7
				S200.5,404.9,207.3,404.9z"/>
		</g>
		<g>
			<g>
				<path class="st35" d="M144.8,65c1.7,0.9,3.8,0.8,5.5-0.4c-0.9,1.9-2.7,3-4.6,3.1C145.2,66.9,144.9,66,144.8,65z"/>
				<path class="st35" d="M147.2,60.1c0.1,1.9,1.2,3.7,3.1,4.6c-2,0.2-3.9-0.8-5-2.4C145.7,61.4,146.3,60.7,147.2,60.1
					C147.1,60.1,147.2,60.1,147.2,60.1z"/>
				<path class="st35" d="M152.7,59.7c-1.6,1-2.6,2.9-2.4,5c-1.2-1.7-1.3-3.8-0.4-5.5C150.9,59.1,151.8,59.2,152.7,59.7z"/>
				<path class="st35" d="M155.8,64.2c-1.7-0.9-3.8-0.8-5.5,0.4c0.9-1.9,2.7-3,4.6-3.1C155.5,62.4,155.8,63.3,155.8,64.2z"/>
				<path class="st35" d="M153.4,69.2c-0.1-1.9-1.2-3.7-3.1-4.6c2-0.2,3.9,0.8,5,2.4C154.9,67.9,154.3,68.6,153.4,69.2
					C153.5,69.2,153.5,69.2,153.4,69.2z"/>
				<path class="st35" d="M147.9,69.6c1.6-1,2.6-2.9,2.4-5c1.2,1.7,1.3,3.8,0.4,5.5C149.8,70.2,148.8,70,147.9,69.6z"/>
			</g>
			<g>
				<path class="st11" d="M145.3,62.2c1,1.6,2.9,2.6,5,2.4c-1.7,1.2-3.8,1.3-5.5,0.4C144.7,64.1,144.9,63.1,145.3,62.2z"/>
				<path class="st11" d="M149.9,59.1c-0.9,1.7-0.8,3.8,0.4,5.5c-1.9-0.9-3-2.7-3.1-4.6C148,59.5,149,59.2,149.9,59.1z"/>
				<path class="st11" d="M154.9,61.5c-1.9,0.1-3.7,1.2-4.6,3.1c-0.2-2,0.8-3.9,2.4-5C153.5,60.1,154.3,60.7,154.9,61.5
					C154.8,61.5,154.9,61.5,154.9,61.5z"/>
				<path class="st11" d="M155.3,67.1c-1-1.6-2.9-2.6-5-2.4c1.7-1.2,3.8-1.3,5.5-0.4C155.9,65.2,155.7,66.2,155.3,67.1z"/>
				<path class="st11" d="M150.7,70.2c0.9-1.7,0.8-3.8-0.4-5.5c1.9,0.9,3,2.7,3.1,4.6C152.6,69.8,151.7,70.1,150.7,70.2z"/>
				<path class="st11" d="M145.7,67.8c1.9-0.1,3.7-1.2,4.6-3.1c0.2,2-0.8,3.9-2.4,5C147.1,69.2,146.4,68.6,145.7,67.8
					C145.8,67.8,145.8,67.8,145.7,67.8z"/>
			</g>
		</g>
		<g>
			<g>
				<path class="st35" d="M86.3,208.1c1.7,0.9,3.8,0.8,5.5-0.4c-0.9,1.9-2.7,3-4.6,3.1C86.7,210,86.4,209.1,86.3,208.1z"/>
				<path class="st35" d="M88.8,203.1c0.1,1.9,1.2,3.7,3.1,4.6c-2,0.2-3.9-0.8-5-2.4C87.3,204.5,87.9,203.8,88.8,203.1
					C88.7,203.2,88.7,203.2,88.8,203.1z"/>
				<path class="st35" d="M94.3,202.7c-1.6,1-2.6,2.9-2.4,5c-1.2-1.7-1.3-3.8-0.4-5.5C92.4,202.1,93.4,202.3,94.3,202.7z"/>
				<path class="st35" d="M97.4,207.3c-1.7-0.9-3.8-0.8-5.5,0.4c0.9-1.9,2.7-3,4.6-3.1C97,205.4,97.3,206.4,97.4,207.3z"/>
				<path class="st35" d="M95,212.3c-0.1-1.9-1.2-3.7-3.1-4.6c2-0.2,3.9,0.8,5,2.4C96.5,210.9,95.9,211.7,95,212.3
					C95,212.2,95,212.3,95,212.3z"/>
				<path class="st35" d="M89.5,212.7c1.6-1,2.6-2.9,2.4-5c1.2,1.7,1.3,3.8,0.4,5.5C91.3,213.3,90.3,213.1,89.5,212.7z"/>
			</g>
			<g>
				<path class="st11" d="M86.9,205.3c1,1.6,2.9,2.6,5,2.4c-1.7,1.2-3.8,1.3-5.5,0.4C86.3,207.2,86.5,206.2,86.9,205.3z"/>
				<path class="st11" d="M91.5,202.2c-0.9,1.7-0.8,3.8,0.4,5.5c-1.9-0.9-3-2.7-3.1-4.6C89.6,202.6,90.5,202.3,91.5,202.2z"/>
				<path class="st11" d="M96.4,204.6c-1.9,0.1-3.7,1.2-4.6,3.1c-0.2-2,0.8-3.9,2.4-5C95.1,203.1,95.8,203.7,96.4,204.6
					C96.4,204.5,96.4,204.6,96.4,204.6z"/>
				<path class="st11" d="M96.8,210.1c-1-1.6-2.9-2.6-5-2.4c1.7-1.2,3.8-1.3,5.5-0.4C97.4,208.3,97.3,209.2,96.8,210.1z"/>
				<path class="st11" d="M92.3,213.2c0.9-1.7,0.8-3.8-0.4-5.5c1.9,0.9,3,2.7,3.1,4.6C94.1,212.9,93.2,213.2,92.3,213.2z"/>
				<path class="st11" d="M87.3,210.8c1.9-0.1,3.7-1.2,4.6-3.1c0.2,2-0.8,3.9-2.4,5C88.6,212.3,87.9,211.7,87.3,210.8
					C87.3,210.9,87.3,210.9,87.3,210.8z"/>
			</g>
		</g>
		<g>
			<g>
				<path class="st35" d="M389.2,112.9c1.7,0.9,3.8,0.8,5.5-0.4c-0.9,1.9-2.7,3-4.6,3.1C389.6,114.8,389.3,113.9,389.2,112.9z"/>
				<path class="st35" d="M391.6,107.9c0.1,1.9,1.2,3.7,3.1,4.6c-2,0.2-3.9-0.8-5-2.4C390.1,109.3,390.7,108.6,391.6,107.9
					C391.5,108,391.6,108,391.6,107.9z"/>
				<path class="st35" d="M397.1,107.5c-1.6,1-2.6,2.9-2.4,5c-1.2-1.7-1.3-3.8-0.4-5.5C395.3,106.9,396.2,107.1,397.1,107.5z"/>
				<path class="st35" d="M400.2,112.1c-1.7-0.9-3.8-0.8-5.5,0.4c0.9-1.9,2.7-3,4.6-3.1C399.8,110.2,400.1,111.2,400.2,112.1z"/>
				<path class="st35" d="M397.8,117.1c-0.1-1.9-1.2-3.7-3.1-4.6c2-0.2,3.9,0.8,5,2.4C399.3,115.7,398.7,116.5,397.8,117.1
					C397.9,117,397.8,117.1,397.8,117.1z"/>
				<path class="st35" d="M392.3,117.5c1.6-1,2.6-2.9,2.4-5c1.2,1.7,1.3,3.8,0.4,5.5C394.1,118.1,393.2,117.9,392.3,117.5z"/>
			</g>
			<g>
				<path class="st11" d="M389.7,110.1c1,1.6,2.9,2.6,5,2.4c-1.7,1.2-3.8,1.3-5.5,0.4C389.1,112,389.3,111,389.7,110.1z"/>
				<path class="st11" d="M394.3,107c-0.9,1.7-0.8,3.8,0.4,5.5c-1.9-0.9-3-2.7-3.1-4.6C392.4,107.4,393.4,107.1,394.3,107z"/>
				<path class="st11" d="M399.3,109.4c-1.9,0.1-3.7,1.2-4.6,3.1c-0.2-2,0.8-3.9,2.4-5C397.9,107.9,398.6,108.5,399.3,109.4
					C399.2,109.3,399.3,109.4,399.3,109.4z"/>
				<path class="st11" d="M399.7,114.9c-1-1.6-2.9-2.6-5-2.4c1.7-1.2,3.8-1.3,5.5-0.4C400.3,113.1,400.1,114.1,399.7,114.9z"/>
				<path class="st11" d="M395.1,118c0.9-1.7,0.8-3.8-0.4-5.5c1.9,0.9,3,2.7,3.1,4.6C397,117.7,396,118,395.1,118z"/>
				<path class="st11" d="M390.1,115.6c1.9-0.1,3.7-1.2,4.6-3.1c0.2,2-0.8,3.9-2.4,5C391.5,117.1,390.8,116.5,390.1,115.6
					C390.2,115.7,390.2,115.7,390.1,115.6z"/>
			</g>
		</g>
		<g>
			<g>
				<path class="st35" d="M454.9,207.6c1.7,0.9,3.8,0.8,5.5-0.4c-0.9,1.9-2.7,3-4.6,3.1C455.3,209.4,454.9,208.5,454.9,207.6z"/>
				<path class="st35" d="M457.3,202.6c0.1,1.9,1.2,3.7,3.1,4.6c-2,0.2-3.9-0.8-5-2.4C455.8,203.9,456.4,203.2,457.3,202.6
					C457.2,202.6,457.2,202.6,457.3,202.6z"/>
				<path class="st35" d="M462.8,202.2c-1.6,1-2.6,2.9-2.4,5c-1.2-1.7-1.3-3.8-0.4-5.5C461,201.6,461.9,201.8,462.8,202.2z"/>
				<path class="st35" d="M465.9,206.8c-1.7-0.9-3.8-0.8-5.5,0.4c0.9-1.9,2.7-3,4.6-3.1C465.5,204.9,465.8,205.8,465.9,206.8z"/>
				<path class="st35" d="M463.5,211.7c-0.1-1.9-1.2-3.7-3.1-4.6c2-0.2,3.9,0.8,5,2.4C465,210.4,464.4,211.1,463.5,211.7
					C463.6,211.7,463.5,211.7,463.5,211.7z"/>
				<path class="st35" d="M458,212.1c1.6-1,2.6-2.9,2.4-5c1.2,1.7,1.3,3.8,0.4,5.5C459.8,212.7,458.9,212.6,458,212.1z"/>
			</g>
			<g>
				<path class="st11" d="M455.4,204.7c1,1.6,2.9,2.6,5,2.4c-1.7,1.2-3.8,1.3-5.5,0.4C454.8,206.6,455,205.6,455.4,204.7z"/>
				<path class="st11" d="M460,201.6c-0.9,1.7-0.8,3.8,0.4,5.5c-1.9-0.9-3-2.7-3.1-4.6C458.1,202,459,201.7,460,201.6z"/>
				<path class="st11" d="M465,204c-1.9,0.1-3.7,1.2-4.6,3.1c-0.2-2,0.8-3.9,2.4-5C463.6,202.6,464.3,203.2,465,204
					C464.9,204,464.9,204,465,204z"/>
				<path class="st11" d="M465.4,209.6c-1-1.6-2.9-2.6-5-2.4c1.7-1.2,3.8-1.3,5.5-0.4C466,207.7,465.8,208.7,465.4,209.6z"/>
				<path class="st11" d="M460.8,212.7c0.9-1.7,0.8-3.8-0.4-5.5c1.9,0.9,3,2.7,3.1,4.6C462.7,212.3,461.7,212.6,460.8,212.7z"/>
				<path class="st11" d="M455.8,210.3c1.9-0.1,3.7-1.2,4.6-3.1c0.2,2-0.8,3.9-2.4,5C457.2,211.7,456.4,211.1,455.8,210.3
					C455.9,210.3,455.8,210.3,455.8,210.3z"/>
			</g>
		</g>
		<g>
			<g>
				<path class="st35" d="M329.4,5.9c1.7,0.9,3.8,0.8,5.5-0.4c-0.9,1.9-2.7,3-4.6,3.1C329.8,7.8,329.5,6.9,329.4,5.9z"/>
				<path class="st35" d="M331.8,1c0.1,1.9,1.2,3.7,3.1,4.6c-2,0.2-3.9-0.8-5-2.4C330.3,2.3,330.9,1.6,331.8,1
					C331.7,1,331.8,1,331.8,1z"/>
				<path class="st35" d="M337.3,0.6c-1.6,1-2.6,2.9-2.4,5c-1.2-1.7-1.3-3.8-0.4-5.5C335.5-0.1,336.4,0.1,337.3,0.6z"/>
				<path class="st35" d="M340.4,5.1c-1.7-0.9-3.8-0.8-5.5,0.4c0.9-1.9,2.7-3,4.6-3.1C340,3.3,340.4,4.2,340.4,5.1z"/>
				<path class="st35" d="M338,10.1c-0.1-1.9-1.2-3.7-3.1-4.6c2-0.2,3.9,0.8,5,2.4C339.5,8.7,338.9,9.5,338,10.1
					C338.1,10.1,338,10.1,338,10.1z"/>
				<path class="st35" d="M332.5,10.5c1.6-1,2.6-2.9,2.4-5c1.2,1.7,1.3,3.8,0.4,5.5C334.3,11.1,333.4,10.9,332.5,10.5z"/>
			</g>
			<g>
				<path class="st11" d="M329.9,3.1c1,1.6,2.9,2.6,5,2.4c-1.7,1.2-3.8,1.3-5.5,0.4C329.3,5,329.5,4,329.9,3.1z"/>
				<path class="st11" d="M334.5,0c-0.9,1.7-0.8,3.8,0.4,5.5c-1.9-0.9-3-2.7-3.1-4.6C332.6,0.4,333.6,0.1,334.5,0z"/>
				<path class="st11" d="M339.5,2.4c-1.9,0.1-3.7,1.2-4.6,3.1c-0.2-2,0.8-3.9,2.4-5C338.1,0.9,338.9,1.5,339.5,2.4
					C339.4,2.4,339.5,2.4,339.5,2.4z"/>
				<path class="st11" d="M339.9,7.9c-1-1.6-2.9-2.6-5-2.4c1.7-1.2,3.8-1.3,5.5-0.4C340.5,6.1,340.3,7.1,339.9,7.9z"/>
				<path class="st11" d="M335.3,11c0.9-1.7,0.8-3.8-0.4-5.5c1.9,0.9,3,2.7,3.1,4.6C337.2,10.7,336.2,11,335.3,11z"/>
				<path class="st11" d="M330.3,8.6c1.9-0.1,3.7-1.2,4.6-3.1c0.2,2-0.8,3.9-2.4,5C331.7,10.1,331,9.5,330.3,8.6
					C330.4,8.7,330.4,8.7,330.3,8.6z"/>
			</g>
		</g>
		<g>
			<g>
				<path class="st9" d="M36.8,101.3c1.5,0.8,3.4,0.7,4.9-0.4c-0.8,1.7-2.4,2.7-4.1,2.8C37.1,103,36.8,102.2,36.8,101.3z"/>
				<path class="st9" d="M38.9,96.9c0.1,1.7,1.1,3.3,2.8,4.1c-1.8,0.2-3.5-0.7-4.4-2.2C37.6,98.1,38.1,97.4,38.9,96.9
					C38.8,96.9,38.9,96.9,38.9,96.9z"/>
				<path class="st9" d="M43.8,96.5c-1.4,0.9-2.3,2.6-2.2,4.4c-1.1-1.5-1.1-3.4-0.4-4.9C42.2,96,43,96.1,43.8,96.5z"/>
				<path class="st9" d="M46.6,100.6c-1.5-0.8-3.4-0.7-4.9,0.4c0.8-1.7,2.4-2.7,4.1-2.8C46.3,98.9,46.5,99.8,46.6,100.6z"/>
				<path class="st9" d="M44.5,105.1c-0.1-1.7-1.1-3.3-2.8-4.1c1.8-0.2,3.5,0.7,4.4,2.2C45.8,103.8,45.2,104.5,44.5,105.1
					C44.5,105,44.5,105,44.5,105.1z"/>
				<path class="st9" d="M39.5,105.4c1.4-0.9,2.3-2.6,2.2-4.4c1.1,1.5,1.1,3.4,0.4,4.9C41.2,106,40.3,105.8,39.5,105.4z"/>
			</g>
			<g>
				<path class="st45" d="M37.2,98.8c0.9,1.4,2.6,2.3,4.4,2.2c-1.5,1.1-3.4,1.1-4.9,0.4C36.7,100.5,36.9,99.6,37.2,98.8z"/>
				<path class="st45" d="M41.3,96c-0.8,1.5-0.7,3.4,0.4,4.9c-1.7-0.8-2.7-2.4-2.8-4.1C39.6,96.4,40.5,96.1,41.3,96z"/>
				<path class="st45" d="M45.8,98.2c-1.7,0.1-3.3,1.1-4.1,2.8c-0.2-1.8,0.7-3.5,2.2-4.4C44.6,96.9,45.2,97.4,45.8,98.2
					C45.7,98.1,45.7,98.2,45.8,98.2z"/>
				<path class="st45" d="M46.1,103.1c-0.9-1.4-2.6-2.3-4.4-2.2c1.5-1.1,3.4-1.1,4.9-0.4C46.7,101.5,46.5,102.3,46.1,103.1z"/>
				<path class="st45" d="M42,105.9c0.8-1.5,0.7-3.4-0.4-4.9c1.7,0.8,2.7,2.4,2.8,4.1C43.7,105.6,42.9,105.8,42,105.9z"/>
				<path class="st45" d="M37.6,103.7c1.7-0.1,3.3-1.1,4.1-2.8c0.2,1.8-0.7,3.5-2.2,4.4C38.8,105.1,38.2,104.5,37.6,103.7
					C37.6,103.8,37.6,103.8,37.6,103.7z"/>
			</g>
		</g>
		<g>
			<g>
				<path class="st9" d="M353.5,140.3c1.5,0.8,3.4,0.7,4.9-0.4c-0.8,1.7-2.4,2.7-4.1,2.8C353.8,142,353.6,141.1,353.5,140.3z"/>
				<path class="st9" d="M355.7,135.9c0.1,1.7,1.1,3.3,2.8,4.1c-1.8,0.2-3.5-0.7-4.4-2.2C354.3,137.1,354.9,136.4,355.7,135.9
					C355.6,135.9,355.6,135.9,355.7,135.9z"/>
				<path class="st9" d="M360.6,135.5c-1.4,0.9-2.3,2.6-2.2,4.4c-1.1-1.5-1.1-3.4-0.4-4.9C358.9,134.9,359.8,135.1,360.6,135.5z"/>
				<path class="st9" d="M363.4,139.6c-1.5-0.8-3.4-0.7-4.9,0.4c0.8-1.7,2.4-2.7,4.1-2.8C363,137.9,363.3,138.7,363.4,139.6z"/>
				<path class="st9" d="M361.2,144c-0.1-1.7-1.1-3.3-2.8-4.1c1.8-0.2,3.5,0.7,4.4,2.2C362.5,142.8,362,143.5,361.2,144
					C361.3,144,361.2,144,361.2,144z"/>
				<path class="st9" d="M356.3,144.4c1.4-0.9,2.3-2.6,2.2-4.4c1.1,1.5,1.1,3.4,0.4,4.9C357.9,144.9,357.1,144.8,356.3,144.4z"/>
			</g>
			<g>
				<path class="st45" d="M354,137.8c0.9,1.4,2.6,2.3,4.4,2.2c-1.5,1.1-3.4,1.1-4.9,0.4C353.4,139.4,353.6,138.6,354,137.8z"/>
				<path class="st45" d="M358.1,135c-0.8,1.5-0.7,3.4,0.4,4.9c-1.7-0.8-2.7-2.4-2.8-4.1C356.4,135.3,357.2,135.1,358.1,135z"/>
				<path class="st45" d="M362.5,137.2c-1.7,0.1-3.3,1.1-4.1,2.8c-0.2-1.8,0.7-3.5,2.2-4.4C361.3,135.8,362,136.4,362.5,137.2
					C362.5,137.1,362.5,137.1,362.5,137.2z"/>
				<path class="st45" d="M362.9,142.1c-0.9-1.4-2.6-2.3-4.4-2.2c1.5-1.1,3.4-1.1,4.9-0.4C363.4,140.4,363.3,141.3,362.9,142.1z"/>
				<path class="st45" d="M358.8,144.9c0.8-1.5,0.7-3.4-0.4-4.9c1.7,0.8,2.7,2.4,2.8,4.1C360.5,144.5,359.6,144.8,358.8,144.9z"/>
				<path class="st45" d="M354.3,142.7c1.7-0.1,3.3-1.1,4.1-2.8c0.2,1.8-0.7,3.5-2.2,4.4C355.6,144,354.9,143.5,354.3,142.7
					C354.4,142.8,354.4,142.7,354.3,142.7z"/>
			</g>
		</g>
		<g>
			<g>
				<path class="st9" d="M479.9,118c1.5,0.8,3.4,0.7,4.9-0.4c-0.8,1.7-2.4,2.7-4.1,2.8C480.2,119.7,479.9,118.9,479.9,118z"/>
				<path class="st9" d="M482,113.6c0.1,1.7,1.1,3.3,2.8,4.1c-1.8,0.2-3.5-0.7-4.4-2.2C480.7,114.8,481.2,114.1,482,113.6L482,113.6
					z"/>
				<path class="st9" d="M487,113.2c-1.4,0.9-2.3,2.6-2.2,4.4c-1.1-1.5-1.1-3.4-0.4-4.9C485.3,112.7,486.2,112.8,487,113.2z"/>
				<path class="st9" d="M489.7,117.3c-1.5-0.8-3.4-0.7-4.9,0.4c0.8-1.7,2.4-2.7,4.1-2.8C489.4,115.6,489.7,116.5,489.7,117.3z"/>
				<path class="st9" d="M487.6,121.8c-0.1-1.7-1.1-3.3-2.8-4.1c1.8-0.2,3.5,0.7,4.4,2.2C488.9,120.5,488.4,121.2,487.6,121.8
					C487.6,121.7,487.6,121.7,487.6,121.8z"/>
				<path class="st9" d="M482.7,122.1c1.4-0.9,2.3-2.6,2.2-4.4c1.1,1.5,1.1,3.4,0.4,4.9C484.3,122.7,483.4,122.5,482.7,122.1z"/>
			</g>
			<g>
				<path class="st45" d="M480.4,115.5c0.9,1.4,2.6,2.3,4.4,2.2c-1.5,1.1-3.4,1.1-4.9,0.4C479.8,117.2,480,116.3,480.4,115.5z"/>
				<path class="st45" d="M484.4,112.7c-0.8,1.5-0.7,3.4,0.4,4.9c-1.7-0.8-2.7-2.4-2.8-4.1C482.8,113.1,483.6,112.8,484.4,112.7z"/>
				<path class="st45" d="M488.9,114.9c-1.7,0.1-3.3,1.1-4.1,2.8c-0.2-1.8,0.7-3.5,2.2-4.4C487.7,113.6,488.3,114.1,488.9,114.9
					C488.8,114.8,488.9,114.9,488.9,114.9z"/>
				<path class="st45" d="M489.2,119.8c-0.9-1.4-2.6-2.3-4.4-2.2c1.5-1.1,3.4-1.1,4.9-0.4C489.8,118.2,489.6,119,489.2,119.8z"/>
				<path class="st45" d="M485.2,122.6c0.8-1.5,0.7-3.4-0.4-4.9c1.7,0.8,2.7,2.4,2.8,4.1C486.8,122.3,486,122.5,485.2,122.6z"/>
				<path class="st45" d="M480.7,120.4c1.7-0.1,3.3-1.1,4.1-2.8c0.2,1.8-0.7,3.5-2.2,4.4C481.9,121.8,481.3,121.2,480.7,120.4
					C480.8,120.5,480.7,120.5,480.7,120.4z"/>
			</g>
		</g>
		<g>
			<g>
				<path class="st9" d="M279.5,201.5c1.5,0.8,3.4,0.7,4.9-0.4c-0.8,1.7-2.4,2.7-4.1,2.8C279.8,203.2,279.5,202.4,279.5,201.5z"/>
				<path class="st9" d="M281.6,197.1c0.1,1.7,1.1,3.3,2.8,4.1c-1.8,0.2-3.5-0.7-4.4-2.2C280.3,198.3,280.8,197.6,281.6,197.1
					L281.6,197.1z"/>
				<path class="st9" d="M286.5,196.7c-1.4,0.9-2.3,2.6-2.2,4.4c-1.1-1.5-1.1-3.4-0.4-4.9C284.9,196.2,285.8,196.4,286.5,196.7z"/>
				<path class="st9" d="M289.3,200.8c-1.5-0.8-3.4-0.7-4.9,0.4c0.8-1.7,2.4-2.7,4.1-2.8C289,199.1,289.3,200,289.3,200.8z"/>
				<path class="st9" d="M287.2,205.3c-0.1-1.7-1.1-3.3-2.8-4.1c1.8-0.2,3.5,0.7,4.4,2.2C288.5,204,288,204.7,287.2,205.3
					C287.2,205.2,287.2,205.2,287.2,205.3z"/>
				<path class="st9" d="M282.2,205.6c1.4-0.9,2.3-2.6,2.2-4.4c1.1,1.5,1.1,3.4,0.4,4.9C283.9,206.2,283,206,282.2,205.6z"/>
			</g>
			<g>
				<path class="st45" d="M279.9,199c0.9,1.4,2.6,2.3,4.4,2.2c-1.5,1.1-3.4,1.1-4.9,0.4C279.4,200.7,279.6,199.8,279.9,199z"/>
				<path class="st45" d="M284,196.2c-0.8,1.5-0.7,3.4,0.4,4.9c-1.7-0.8-2.7-2.4-2.8-4.1C282.4,196.6,283.2,196.3,284,196.2z"/>
				<path class="st45" d="M288.5,198.4c-1.7,0.1-3.3,1.1-4.1,2.8c-0.2-1.8,0.7-3.5,2.2-4.4C287.3,197.1,287.9,197.6,288.5,198.4
					C288.4,198.3,288.5,198.4,288.5,198.4z"/>
				<path class="st45" d="M288.8,203.3c-0.9-1.4-2.6-2.3-4.4-2.2c1.5-1.1,3.4-1.1,4.9-0.4C289.4,201.7,289.2,202.5,288.8,203.3z"/>
				<path class="st45" d="M284.8,206.1c0.8-1.5,0.7-3.4-0.4-4.9c1.7,0.8,2.7,2.4,2.8,4.1C286.4,205.8,285.6,206,284.8,206.1z"/>
				<path class="st45" d="M280.3,203.9c1.7-0.1,3.3-1.1,4.1-2.8c0.2,1.8-0.7,3.5-2.2,4.4C281.5,205.3,280.9,204.7,280.3,203.9
					C280.3,204,280.3,204,280.3,203.9z"/>
			</g>
		</g>
		<g>
			<g>
				<path class="st9" d="M169.8,146.4c1.5,0.8,3.4,0.7,4.9-0.4c-0.8,1.7-2.4,2.7-4.1,2.8C170.1,148.1,169.9,147.3,169.8,146.4z"/>
				<path class="st9" d="M172,142c0.1,1.7,1.1,3.3,2.8,4.1c-1.8,0.2-3.5-0.7-4.4-2.2C170.6,143.2,171.2,142.5,172,142
					C171.9,142,171.9,142,172,142z"/>
				<path class="st9" d="M176.9,141.6c-1.4,0.9-2.3,2.6-2.2,4.4c-1.1-1.5-1.1-3.4-0.4-4.9C175.2,141.1,176.1,141.2,176.9,141.6z"/>
				<path class="st9" d="M179.7,145.7c-1.5-0.8-3.4-0.7-4.9,0.4c0.8-1.7,2.4-2.7,4.1-2.8C179.3,144,179.6,144.9,179.7,145.7z"/>
				<path class="st9" d="M177.5,150.1c-0.1-1.7-1.1-3.3-2.8-4.1c1.8-0.2,3.5,0.7,4.4,2.2C178.8,148.9,178.3,149.6,177.5,150.1
					C177.6,150.1,177.5,150.1,177.5,150.1z"/>
				<path class="st9" d="M172.6,150.5c1.4-0.9,2.3-2.6,2.2-4.4c1.1,1.5,1.1,3.4,0.4,4.9C174.2,151.1,173.4,150.9,172.6,150.5z"/>
			</g>
			<g>
				<path class="st45" d="M170.3,143.9c0.9,1.4,2.6,2.3,4.4,2.2c-1.5,1.1-3.4,1.1-4.9,0.4C169.7,145.6,169.9,144.7,170.3,143.9z"/>
				<path class="st45" d="M174.4,141.1c-0.8,1.5-0.7,3.4,0.4,4.9c-1.7-0.8-2.7-2.4-2.8-4.1C172.7,141.5,173.5,141.2,174.4,141.1z"/>
				<path class="st45" d="M178.8,143.3c-1.7,0.1-3.3,1.1-4.1,2.8c-0.2-1.8,0.7-3.5,2.2-4.4C177.6,142,178.3,142.5,178.8,143.3
					C178.8,143.2,178.8,143.3,178.8,143.3z"/>
				<path class="st45" d="M179.2,148.2c-0.9-1.4-2.6-2.3-4.4-2.2c1.5-1.1,3.4-1.1,4.9-0.4C179.7,146.6,179.6,147.4,179.2,148.2z"/>
				<path class="st45" d="M175.1,151c0.8-1.5,0.7-3.4-0.4-4.9c1.7,0.8,2.7,2.4,2.8,4.1C176.8,150.7,175.9,150.9,175.1,151z"/>
				<path class="st45" d="M170.6,148.8c1.7-0.1,3.3-1.1,4.1-2.8c0.2,1.8-0.7,3.5-2.2,4.4C171.9,150.2,171.2,149.6,170.6,148.8
					C170.7,148.9,170.7,148.9,170.6,148.8z"/>
			</g>
		</g>
		<g>
			<g>
				<path class="st12" d="M188.6,107.5c1.5,0.8,3.3,0.7,4.7-0.3c-0.7,1.6-2.3,2.6-3.9,2.7C188.9,109.1,188.7,108.3,188.6,107.5z"/>
				<path class="st12" d="M190.7,103.2c0.1,1.6,1.1,3.2,2.7,3.9c-1.8,0.2-3.4-0.7-4.3-2.1C189.4,104.4,189.9,103.7,190.7,103.2
					C190.6,103.2,190.6,103.2,190.7,103.2z"/>
				<path class="st12" d="M195.4,102.8c-1.4,0.9-2.2,2.5-2.1,4.3c-1-1.4-1.1-3.3-0.3-4.7C193.8,102.3,194.6,102.5,195.4,102.8z"/>
				<path class="st12" d="M198.1,106.8c-1.5-0.7-3.3-0.7-4.7,0.3c0.7-1.6,2.3-2.6,3.9-2.7C197.7,105.2,198,106,198.1,106.8z"/>
				<path class="st12" d="M196,111c-0.1-1.6-1.1-3.2-2.7-3.9c1.8-0.2,3.4,0.7,4.3,2.1C197.3,109.9,196.8,110.5,196,111
					C196.1,111,196,111,196,111z"/>
				<path class="st12" d="M191.3,111.4c1.4-0.9,2.2-2.5,2.1-4.3c1,1.4,1.1,3.3,0.3,4.7C192.8,111.9,192,111.8,191.3,111.4z"/>
			</g>
			<g>
				<path class="st51" d="M189.1,105.1c0.9,1.4,2.5,2.2,4.3,2.1c-1.4,1-3.3,1.1-4.7,0.3C188.5,106.6,188.7,105.8,189.1,105.1z"/>
				<path class="st51" d="M193,102.4c-0.7,1.5-0.7,3.3,0.3,4.7c-1.6-0.7-2.6-2.3-2.7-3.9C191.4,102.7,192.2,102.4,193,102.4z"/>
				<path class="st51" d="M197.3,104.5c-1.6,0.1-3.2,1.1-3.9,2.7c-0.2-1.8,0.7-3.4,2.1-4.3C196.1,103.2,196.7,103.7,197.3,104.5
					C197.2,104.4,197.2,104.4,197.3,104.5z"/>
				<path class="st51" d="M197.6,109.2c-0.9-1.4-2.5-2.2-4.3-2.1c1.4-1,3.3-1.1,4.7-0.3C198.1,107.6,198,108.4,197.6,109.2z"/>
				<path class="st51" d="M193.7,111.9c0.8-1.5,0.7-3.3-0.3-4.7c1.6,0.7,2.6,2.3,2.7,3.9C195.3,111.5,194.5,111.8,193.7,111.9z"/>
				<path class="st51" d="M189.4,109.8c1.6-0.1,3.2-1.1,3.9-2.7c0.2,1.8-0.7,3.4-2.1,4.3C190.6,111.1,189.9,110.5,189.4,109.8
					L189.4,109.8z"/>
			</g>
		</g>
		<g>
			<g>
				<path class="st12" d="M404.6,64.7c1.5,0.7,3.3,0.7,4.7-0.3c-0.7,1.6-2.3,2.6-3.9,2.7C405,66.3,404.7,65.5,404.6,64.7z"/>
				<path class="st12" d="M406.7,60.4c0.1,1.6,1.1,3.2,2.7,3.9c-1.8,0.2-3.4-0.7-4.3-2.1C405.4,61.6,405.9,60.9,406.7,60.4
					C406.6,60.4,406.7,60.4,406.7,60.4z"/>
				<path class="st12" d="M411.4,60c-1.4,0.9-2.2,2.5-2.1,4.3c-1-1.4-1.1-3.3-0.3-4.7C409.8,59.5,410.7,59.7,411.4,60z"/>
				<path class="st12" d="M414.1,64c-1.5-0.7-3.3-0.7-4.7,0.3c0.7-1.6,2.3-2.6,3.9-2.7C413.8,62.4,414,63.2,414.1,64z"/>
				<path class="st12" d="M412,68.2c-0.1-1.6-1.1-3.2-2.7-3.9c1.8-0.2,3.4,0.7,4.3,2.1C413.3,67.1,412.8,67.7,412,68.2
					C412.1,68.2,412.1,68.2,412,68.2z"/>
				<path class="st12" d="M407.3,68.6c1.4-0.9,2.2-2.5,2.1-4.3c1,1.4,1.1,3.3,0.3,4.7C408.9,69.1,408,69,407.3,68.6z"/>
			</g>
			<g>
				<path class="st51" d="M405.1,62.3c0.9,1.4,2.5,2.2,4.3,2.1c-1.4,1-3.3,1.1-4.7,0.3C404.6,63.8,404.7,63,405.1,62.3z"/>
				<path class="st51" d="M409,59.6c-0.7,1.5-0.7,3.3,0.3,4.7c-1.6-0.7-2.6-2.3-2.7-3.9C407.4,59.9,408.2,59.6,409,59.6z"/>
				<path class="st51" d="M413.3,61.7c-1.6,0.1-3.2,1.1-3.9,2.7c-0.2-1.8,0.7-3.4,2.1-4.3C412.1,60.4,412.8,60.9,413.3,61.7
					C413.3,61.6,413.3,61.6,413.3,61.7z"/>
				<path class="st51" d="M413.6,66.4c-0.9-1.4-2.5-2.2-4.3-2.1c1.4-1,3.3-1.1,4.7-0.3C414.2,64.8,414,65.6,413.6,66.4z"/>
				<path class="st51" d="M409.7,69.1c0.8-1.5,0.7-3.3-0.3-4.7c1.6,0.7,2.6,2.3,2.7,3.9C411.3,68.7,410.5,69,409.7,69.1z"/>
				<path class="st51" d="M405.4,67c1.6-0.1,3.2-1.1,3.9-2.7c0.2,1.8-0.7,3.4-2.1,4.3C406.6,68.3,406,67.7,405.4,67
					C405.5,67,405.5,67,405.4,67z"/>
			</g>
		</g>
		<g>
			<g>
				<path class="st12" d="M473.9,134c1.5,0.7,3.3,0.7,4.7-0.3c-0.7,1.6-2.3,2.6-3.9,2.7C474.2,135.6,474,134.8,473.9,134z"/>
				<path class="st12" d="M476,129.7c0.1,1.6,1.1,3.2,2.7,3.9c-1.8,0.2-3.4-0.7-4.3-2.1C474.7,130.9,475.2,130.2,476,129.7
					C475.9,129.7,476,129.7,476,129.7z"/>
				<path class="st12" d="M480.7,129.3c-1.4,0.9-2.2,2.5-2.1,4.3c-1-1.4-1.1-3.3-0.3-4.7C479.1,128.8,480,129,480.7,129.3z"/>
				<path class="st12" d="M483.4,133.3c-1.5-0.7-3.3-0.7-4.7,0.3c0.7-1.6,2.3-2.6,3.9-2.7C483.1,131.7,483.3,132.5,483.4,133.3z"/>
				<path class="st12" d="M481.3,137.5c-0.1-1.6-1.1-3.2-2.7-3.9c1.8-0.2,3.4,0.7,4.3,2.1C482.6,136.4,482.1,137,481.3,137.5
					C481.4,137.5,481.4,137.5,481.3,137.5z"/>
				<path class="st12" d="M476.6,137.9c1.4-0.9,2.2-2.5,2.1-4.3c1,1.4,1.1,3.3,0.3,4.7C478.2,138.4,477.3,138.2,476.6,137.9z"/>
			</g>
			<g>
				<path class="st51" d="M474.4,131.5c0.9,1.4,2.5,2.2,4.3,2.1c-1.4,1-3.3,1.1-4.7,0.3C473.9,133.1,474,132.3,474.4,131.5z"/>
				<path class="st51" d="M478.3,128.9c-0.8,1.5-0.7,3.3,0.3,4.7c-1.6-0.7-2.6-2.3-2.7-3.9C476.7,129.2,477.5,128.9,478.3,128.9z"/>
				<path class="st51" d="M482.6,130.9c-1.6,0.1-3.2,1.1-3.9,2.7c-0.2-1.8,0.7-3.4,2.1-4.3C481.4,129.7,482,130.2,482.6,130.9
					C482.5,130.9,482.6,130.9,482.6,130.9z"/>
				<path class="st51" d="M482.9,135.7c-0.9-1.4-2.5-2.2-4.3-2.1c1.4-1,3.3-1.1,4.7-0.3C483.5,134.1,483.3,134.9,482.9,135.7z"/>
				<path class="st51" d="M479,138.3c0.7-1.5,0.7-3.3-0.3-4.7c1.6,0.7,2.6,2.3,2.7,3.9C480.6,138,479.8,138.3,479,138.3z"/>
				<path class="st51" d="M474.7,136.3c1.6-0.1,3.2-1.1,3.9-2.7c0.2,1.8-0.7,3.4-2.1,4.3C475.9,137.5,475.3,137,474.7,136.3
					C474.8,136.3,474.8,136.3,474.7,136.3z"/>
			</g>
		</g>
		<g>
			<g>
				<path class="st12" d="M323.5,185.7c1.5,0.7,3.3,0.7,4.7-0.3c-0.7,1.6-2.3,2.6-3.9,2.7C323.8,187.3,323.6,186.5,323.5,185.7z"/>
				<path class="st12" d="M325.6,181.5c0.1,1.6,1.1,3.2,2.7,3.9c-1.8,0.2-3.4-0.7-4.3-2.1C324.3,182.6,324.8,182,325.6,181.5
					C325.5,181.5,325.6,181.5,325.6,181.5z"/>
				<path class="st12" d="M330.3,181.1c-1.4,0.9-2.2,2.5-2.1,4.3c-1-1.4-1.1-3.3-0.3-4.7C328.7,180.6,329.6,180.7,330.3,181.1z"/>
				<path class="st12" d="M333,185c-1.5-0.7-3.3-0.7-4.7,0.3c0.7-1.6,2.3-2.6,3.9-2.7C332.7,183.4,332.9,184.2,333,185z"/>
				<path class="st12" d="M330.9,189.3c-0.1-1.6-1.1-3.2-2.7-3.9c1.8-0.2,3.4,0.7,4.3,2.1C332.2,188.1,331.7,188.8,330.9,189.3
					C331,189.3,330.9,189.3,330.9,189.3z"/>
				<path class="st12" d="M326.2,189.7c1.4-0.9,2.2-2.5,2.1-4.3c1,1.4,1.1,3.3,0.3,4.7C327.8,190.2,326.9,190,326.2,189.7z"/>
			</g>
			<g>
				<path class="st51" d="M324,183.3c0.9,1.4,2.5,2.2,4.3,2.1c-1.4,1-3.3,1.1-4.7,0.3C323.5,184.9,323.6,184.1,324,183.3z"/>
				<path class="st51" d="M327.9,180.6c-0.7,1.5-0.7,3.3,0.3,4.7c-1.6-0.7-2.6-2.3-2.7-3.9C326.3,181,327.1,180.7,327.9,180.6z"/>
				<path class="st51" d="M332.2,182.7c-1.6,0.1-3.2,1.1-3.9,2.7c-0.2-1.8,0.7-3.4,2.1-4.3C331,181.4,331.6,182,332.2,182.7
					C332.1,182.7,332.2,182.7,332.2,182.7z"/>
				<path class="st51" d="M332.5,187.4c-0.9-1.4-2.5-2.2-4.3-2.1c1.4-1,3.3-1.1,4.7-0.3C333,185.9,332.9,186.7,332.5,187.4z"/>
				<path class="st51" d="M328.6,190.1c0.8-1.5,0.7-3.3-0.3-4.7c1.6,0.7,2.6,2.3,2.7,3.9C330.2,189.8,329.4,190.1,328.6,190.1z"/>
				<path class="st51" d="M324.3,188c1.6-0.1,3.2-1.1,3.9-2.7c0.2,1.8-0.7,3.4-2.1,4.3C325.5,189.3,324.9,188.8,324.3,188
					C324.4,188.1,324.3,188.1,324.3,188z"/>
			</g>
		</g>
		<g>
			<g>
				<path class="st12" d="M6.4,94.8c1.5,0.7,3.3,0.7,4.7-0.3c-0.7,1.6-2.3,2.6-3.9,2.7C6.7,96.4,6.4,95.6,6.4,94.8z"/>
				<path class="st12" d="M8.5,90.6c0.1,1.6,1.1,3.2,2.7,3.9c-1.8,0.2-3.4-0.7-4.3-2.1C7.2,91.7,7.7,91.1,8.5,90.6
					C8.4,90.6,8.4,90.6,8.5,90.6z"/>
				<path class="st12" d="M13.2,90.2c-1.4,0.9-2.2,2.5-2.1,4.3c-1-1.4-1.1-3.3-0.3-4.7C11.6,89.7,12.4,89.8,13.2,90.2z"/>
				<path class="st12" d="M15.9,94.1c-1.5-0.7-3.3-0.7-4.7,0.3c0.7-1.6,2.3-2.6,3.9-2.7C15.5,92.5,15.8,93.3,15.9,94.1z"/>
				<path class="st12" d="M13.8,98.4c-0.1-1.6-1.1-3.2-2.7-3.9c1.8-0.2,3.4,0.7,4.3,2.1C15.1,97.2,14.5,97.9,13.8,98.4L13.8,98.4z"
					/>
				<path class="st12" d="M9.1,98.8c1.4-0.9,2.2-2.5,2.1-4.3c1,1.4,1.1,3.3,0.3,4.7C10.6,99.3,9.8,99.1,9.1,98.8z"/>
			</g>
			<g>
				<path class="st51" d="M6.9,92.4c0.9,1.4,2.5,2.2,4.3,2.1c-1.4,1-3.3,1.1-4.7,0.3C6.3,94,6.5,93.2,6.9,92.4z"/>
				<path class="st51" d="M10.8,89.7c-0.8,1.5-0.7,3.3,0.3,4.7c-1.6-0.7-2.6-2.3-2.7-3.9C9.2,90.1,10,89.8,10.8,89.7z"/>
				<path class="st51" d="M15,91.8c-1.6,0.1-3.2,1.1-3.9,2.7c-0.2-1.8,0.7-3.4,2.1-4.3C13.9,90.5,14.5,91.1,15,91.8L15,91.8z"/>
				<path class="st51" d="M15.4,96.5c-0.9-1.4-2.5-2.2-4.3-2.1c1.4-1,3.3-1.1,4.7-0.3C15.9,95,15.8,95.8,15.4,96.5z"/>
				<path class="st51" d="M11.5,99.2c0.7-1.5,0.7-3.3-0.3-4.7c1.6,0.7,2.6,2.3,2.7,3.9C13.1,98.9,12.3,99.2,11.5,99.2z"/>
				<path class="st51" d="M7.2,97.1c1.6-0.1,3.2-1.1,3.9-2.7c0.2,1.8-0.7,3.4-2.1,4.3C8.4,98.4,7.7,97.9,7.2,97.1
					C7.2,97.2,7.2,97.2,7.2,97.1z"/>
			</g>
		</g>
		<g>
			<g>
				<path class="st12" d="M58.3,225.3c1.5,0.7,3.3,0.7,4.7-0.3c-0.7,1.6-2.3,2.6-3.9,2.7C58.6,226.9,58.4,226.1,58.3,225.3z"/>
				<path class="st12" d="M60.4,221c0.1,1.6,1.1,3.2,2.7,3.9c-1.8,0.2-3.4-0.7-4.3-2.1C59.1,222.2,59.6,221.5,60.4,221
					C60.3,221,60.3,221,60.4,221z"/>
				<path class="st12" d="M65.1,220.7c-1.4,0.9-2.2,2.5-2.1,4.3c-1-1.4-1.1-3.3-0.3-4.7C63.5,220.1,64.4,220.3,65.1,220.7z"/>
				<path class="st12" d="M67.8,224.6c-1.5-0.7-3.3-0.7-4.7,0.3c0.7-1.6,2.3-2.6,3.9-2.7C67.4,223,67.7,223.8,67.8,224.6z"/>
				<path class="st12" d="M65.7,228.8c-0.1-1.6-1.1-3.2-2.7-3.9c1.8-0.2,3.4,0.7,4.3,2.1C67,227.7,66.5,228.3,65.7,228.8
					C65.8,228.8,65.7,228.8,65.7,228.8z"/>
				<path class="st12" d="M61,229.2c1.4-0.9,2.2-2.5,2.1-4.3c1,1.4,1.1,3.3,0.3,4.7C62.6,229.7,61.7,229.6,61,229.2z"/>
			</g>
			<g>
				<path class="st51" d="M58.8,222.9c0.9,1.4,2.5,2.2,4.3,2.1c-1.4,1-3.3,1.1-4.7,0.3C58.2,224.4,58.4,223.6,58.8,222.9z"/>
				<path class="st51" d="M62.7,220.2c-0.7,1.5-0.7,3.3,0.3,4.7c-1.6-0.7-2.6-2.3-2.7-3.9C61.1,220.5,61.9,220.2,62.7,220.2z"/>
				<path class="st51" d="M67,222.3c-1.6,0.1-3.2,1.1-3.9,2.7c-0.2-1.8,0.7-3.4,2.1-4.3C65.8,221,66.4,221.5,67,222.3
					C66.9,222.2,66.9,222.2,67,222.3z"/>
				<path class="st51" d="M67.3,227c-0.9-1.4-2.5-2.2-4.3-2.1c1.4-1,3.3-1.1,4.7-0.3C67.8,225.4,67.7,226.2,67.3,227z"/>
				<path class="st51" d="M63.4,229.7c0.8-1.5,0.7-3.3-0.3-4.7c1.6,0.7,2.6,2.3,2.7,3.9C65,229.3,64.2,229.6,63.4,229.7z"/>
				<path class="st51" d="M59.1,227.6c1.6-0.1,3.2-1.1,3.9-2.7c0.2,1.8-0.7,3.4-2.1,4.3C60.3,228.9,59.6,228.3,59.1,227.6
					L59.1,227.6z"/>
			</g>
		</g>
		<polygon class="st35" points="172.4,175.8 173.6,182.6 180.5,181.7 174.4,185 177.4,191.2 172.4,186.5 167.3,191.2 170.3,185 
			164.2,181.7 171.1,182.6 		"/>
		<path class="st15" d="M355.2,306.1c-5.2,2.9-11.8,4.1-22.6,4.3c-10.6,0.2-18.2-2-25.9-4.3c-1.9-0.6-1.6,0.3-2.5,0.7
			c-1.1,0.5-0.2,1.7,2.1,2.4c5.4,1.8,7.1,16.9,25.9,17.4c18.3,0.5,15-12.6,24-17.5C359.6,307.3,358.9,304.1,355.2,306.1z"/>
		<path class="st52" d="M355.1,306.9c-5.2,2.9-11.8,4.3-22.6,4.5c-10.6,0.2-18.5-2.3-26.3-4.7c-3.4-1-3.9,0.1,0.2,1.6
			c5.3,2,7.2,16.4,25.8,16.5c17.9,0.1,14-11.4,23-16.2C358.7,306.8,358.8,304.8,355.1,306.9z"/>
		<path class="st15" d="M359.6,309.7c-1.5-3.7-3.8-4.3-6.8-5C356.6,304,360.2,305,359.6,309.7z"/>
		<path class="st15" d="M308.9,306.1c-4,0-5.7,2-7.2,4.4C301.6,306.8,304.8,303.8,308.9,306.1z"/>
		<g>
			<path class="st53" d="M345,321.1c-7.1-6.1-17.8-7.2-27.3-0.6c3.3,2.5,7.8,4.4,14.5,4.5C338.9,324.9,342.6,323.3,345,321.1z"/>
			<path class="st54" d="M342.1,323.1c-6.3-5.9-14.7-6.2-21.3-0.7c2.9,1.5,6.6,2.4,11.3,2.5C336.7,324.9,339.8,324.2,342.1,323.1z"
				/>
		</g>
		<path class="st55" d="M339.7,285.8c7.9-5.4,15.6-3.5,19.9-1.3C357.3,280.1,345.7,276.4,339.7,285.8z"/>
		<path class="st55" d="M318.4,285.8c-7.9-5.4-15.6-3.5-19.9-1.3C300.8,280.1,312.4,276.4,318.4,285.8z"/>
		<path class="st34" d="M347.2,309.9c-3.9,0.9-8.6,1.4-14.6,1.5c-6.1,0.1-11.4-0.7-16.2-1.8c3.2,2.9,8,5.3,15.9,5.1
			C341,314.5,344.8,312.5,347.2,309.9z"/>
		<path class="st15" d="M182,302.5c-4.9,3.6-11.4,5.7-22.3,7.2c-10.7,1.5-18.6,0.3-26.7-1.1c-2-0.3-1.5,0.4-2.4,1
			c-1.1,0.7,0,1.7,2.4,2.2c5.7,1.1,18.1,16,28.3,14.4c9.2-1.5,13.5-14.6,22-20.6C186.6,303.1,185.5,299.9,182,302.5z"/>
		<path class="st52" d="M182.1,303.3c-4.9,3.6-11.4,5.8-22.3,7.3c-10.7,1.5-19,0-27.1-1.5c-3.6-0.6-3.9,0.6,0.4,1.6
			c5.6,1.4,18.8,14.8,28.1,13.5c7.8-1.1,12.7-13.2,21.2-19.2C185.7,302.7,185.6,300.7,182.1,303.3z"/>
		<path class="st53" d="M144.1,317.5c5.6,3.8,11.9,7.6,17.1,6.9c4.5-0.6,8.1-5,12-9.8c-3.4-1.4-7.3-2.2-11.3-2.2
			C155.3,312.3,149.1,314.2,144.1,317.5z"/>
		<path class="st15" d="M187,305.6c-2-3.6-4.4-3.9-7.5-4.2C183.2,300.2,186.9,300.7,187,305.6z"/>
		<path class="st15" d="M135.3,308.2c-4.1,0.5-5.6,2.7-6.7,5.3C128,309.8,130.8,306.4,135.3,308.2z"/>
		<path class="st34" d="M136.9,309.9c4.2,6.3,35.5,3.4,40-3.6c-4.2,1.9-9.7,3.3-17.1,4.4C151,311.9,143.8,311,136.9,309.9z"/>
		<path class="st54" d="M170.9,317.2c-2.9-1.6-6.3-2.5-9.9-2.5c-5.3,0-10.1,1.8-13.9,4.8c4.8,3,9.8,5.4,14,4.8
			C164.8,323.8,167.8,320.9,170.9,317.2z"/>
		<path class="st56" d="M134.1,286.2c1.6,0,2.8-2.7,2.8-6.1c0-3.3-1.3-6.1-2.8-6.1c-1.6,0-2.8,2.7-2.8,6.1S132.6,286.2,134.1,286.2z
			"/>
		<path class="st56" d="M177.4,286.2c1.6,0,2.8-2.7,2.8-6.1c0-3.3-1.3-6.1-2.8-6.1c-1.6,0-2.8,2.7-2.8,6.1
			C174.6,283.5,175.9,286.2,177.4,286.2z"/>
	</g>
</g>
</svg>
