<?xml version="1.0" encoding="utf-8"?>
<!-- Generator: Adobe Illustrator 24.1.0, SVG Export Plug-In . SVG Version: 6.00 Build 0)  -->
<svg version="1.1" id="OBJECTS" xmlns="http://www.w3.org/2000/svg" xmlns:xlink="http://www.w3.org/1999/xlink" x="0px" y="0px"
	 viewBox="0 0 750 500" style="enable-background:new 0 0 750 500;" xml:space="preserve">
<style type="text/css">
	.st0{fill:#10A2AD;}
	.st1{fill:#46B3C1;}
	.st2{fill:#0FAAC9;}
	.st3{fill:#BCF0F7;}
	.st4{fill:#FFFFFF;}
	.st5{opacity:0.57;}
	.st6{fill:none;stroke:#78C6D1;stroke-width:3.0138;stroke-linecap:round;stroke-linejoin:round;stroke-miterlimit:10;}
	.st7{fill:none;stroke:#FFFFFF;stroke-width:2.8055;stroke-miterlimit:10;}
	.st8{fill:none;stroke:#FFFFFF;stroke-width:4.2082;stroke-linecap:round;stroke-linejoin:round;stroke-miterlimit:10;}
	.st9{fill:#02262B;}
	.st10{fill:#243051;}
	.st11{fill:#0F454C;}
	.st12{fill:#F04365;}
	.st13{fill:#F89A6E;}
	.st14{fill:#D72E57;}
	.st15{fill:#E88057;}
	.st16{clip-path:url(#XMLID_2_);fill:#243051;}
	.st17{fill:#FDD63B;}
	.st18{fill:#F2A62F;}
	.st19{fill:#D7FCFF;}
	.st20{clip-path:url(#XMLID_3_);fill:#FAFAFA;}
	.st21{fill:#EB9924;}
	.st22{fill:#8CE8F4;}
	.st23{clip-path:url(#XMLID_4_);fill:#FFFFFF;}
	.st24{fill:none;stroke:#0FAAC9;stroke-linecap:round;stroke-linejoin:round;stroke-miterlimit:10;}
</style>
<g>
	<g>
		<g>
			<g>
				<defs>
					<path id="SVGID_1_" d="M626.8,459.2c0,0,106.5-47.4,104-142.9c-2.5-95.5-103.4-140-171.9-81c-68.5,59-112.9,9.5-148.3-40.3
						C375.1,145.2,295.9,82.2,192,111.3C83.2,141.8,49.7,252,60.5,325.5c7.7,52.8,36.1,97.6,74.6,132c1.3,1.1,2.5,2.2,3.9,3.3
						L626.8,459.2z"/>
				</defs>
				<use xlink:href="#SVGID_1_"  style="overflow:visible;fill:#EEFDFF;"/>
				<clipPath id="SVGID_2_">
					<use xlink:href="#SVGID_1_"  style="overflow:visible;"/>
				</clipPath>
			</g>
		</g>
		<g>
			<g>
				<g>
					<rect x="337.3" y="427.6" class="st0" width="89" height="21.8"/>
					<path class="st1" d="M443.1,460.8H320.5c-3.1,0-5.7-2.5-5.7-5.7l0,0c0-3.1,2.5-5.7,5.7-5.7h122.6c3.1,0,5.7,2.5,5.7,5.7l0,0
						C448.8,458.2,446.3,460.8,443.1,460.8z"/>
				</g>
				<g>
					<path class="st2" d="M582.1,177c0-7.1-5.7-12.8-12.8-12.8H194.4c-7.1,0-12.8,5.7-12.8,12.8v217h400.5V177z"/>
					<rect x="198.8" y="182.5" class="st3" width="366.2" height="194.7"/>
					<path class="st4" d="M194.4,429.9h374.8c7.1,0,12.8-5.7,12.8-12.8V394H181.6V417C181.6,424.1,187.3,429.9,194.4,429.9z"/>
					<path class="st2" d="M389.4,411.9c0,4.2-3.4,7.6-7.6,7.6c-4.2,0-7.6-3.4-7.6-7.6c0-4.2,3.4-7.6,7.6-7.6
						C386,404.3,389.4,407.7,389.4,411.9z"/>
				</g>
			</g>
			<g class="st5">
				<polygon class="st4" points="300.4,182.5 216.8,377.2 246.4,377.2 330.9,182.5 				"/>
				<polygon class="st4" points="513.7,182.5 430.1,377.2 459.7,377.2 544.2,182.5 				"/>
				<polygon class="st4" points="368.6,182.5 285.1,377.2 372.6,377.2 457.1,182.5 				"/>
			</g>
			<g>
				<g>
					<g>
						<rect x="224.8" y="223.2" class="st4" width="155.4" height="110.1"/>
						<rect x="224.8" y="223.2" class="st6" width="155.4" height="110.1"/>
					</g>
				</g>
				<g>
					<line class="st7" x1="398" y1="231.5" x2="540.1" y2="231.5"/>
					<line class="st7" x1="398" y1="264.7" x2="485.4" y2="264.7"/>
					<line class="st7" x1="398" y1="247.9" x2="423.1" y2="247.9"/>
				</g>
				<g>
					<line class="st7" x1="398" y1="286.3" x2="540.1" y2="286.3"/>
					<line class="st7" x1="398" y1="319.5" x2="540.1" y2="319.5"/>
					<line class="st7" x1="398" y1="302.7" x2="481.8" y2="302.7"/>
				</g>
				<line class="st8" x1="282.1" y1="277.6" x2="315.7" y2="277.6"/>
			</g>
		</g>
		<g>
			<g>
				<g>
					<polygon class="st9" points="606,343.1 613.4,451.6 625,451.6 627.5,343.1 					"/>
					<path class="st10" d="M603.7,460.5H625v-9.9h-11.4C608.1,450.7,603.7,455.1,603.7,460.5L603.7,460.5z"/>
				</g>
				<g>
					<path class="st10" d="M628.9,460.5H651l-0.9-9.9h-11.4C633.3,450.7,628.9,455.1,628.9,460.5L628.9,460.5z"/>
					<polygon class="st11" points="642.7,343.2 650.1,450.7 638.7,451 619.7,343.2 					"/>
				</g>
			</g>
			<g>
				<g>
					<path class="st12" d="M622.8,287.3l30.2,27c2.5,2.2,6.3,2.3,8.9,0.2l0,0c3-2.4,3.4-6.8,0.9-9.7c0,0-14.6-19.6-22.8-26.1
						L622.8,287.3z"/>
					<g>
						<path class="st13" d="M669.5,353.1c0,4-3.3,7.3-7.3,7.3c-4,0-7.3-3.3-7.3-7.3c0-4,3.3-7.3,7.3-7.3
							C666.3,345.8,669.5,349,669.5,353.1z"/>
						<path class="st12" d="M652.9,311.3l4,36.1h10.4l-2.4-37.3c-0.3-3.5-3.5-6.1-7-5.5l0,0C654.7,305.1,652.5,308.1,652.9,311.3z"
							/>
					</g>
				</g>
				<g>
					<path class="st12" d="M619.7,273.6c0,0-14.8,0.5-15.6,15.3c-0.8,14.9,1.7,54.3,1.7,54.3h36.9l0.9-48.2
						c2.3-12.9-4.2-21.1-17.5-21.6C624.2,273.4,622.1,273.4,619.7,273.6z"/>
					<polygon class="st14" points="643.4,305.7 637.1,300.1 643.2,317.5 					"/>
				</g>
				<g>
					<g>
						<path class="st13" d="M569.5,260.8c0,4-3.3,7.3-7.3,7.3c-4,0-7.3-3.3-7.3-7.3c0-4,3.3-7.3,7.3-7.3
							C566.2,253.6,569.5,256.8,569.5,260.8z"/>
						<path class="st12" d="M585.1,300.3l-15.6-35.5l-10,3.1l14.1,36c1,3.4,4.6,5.3,7.9,4l0,0C584.6,306.7,586.2,303.4,585.1,300.3z
							"/>
					</g>
					<g>
						<path class="st12" d="M614,274.9c-19.5,8.1-37.2,20.6-37.2,20.6c-2.9,1.6-4.3,5.1-3.1,8.3l0,0c1.3,3.6,5.3,5.4,8.9,4.1
							l29.8-14.5L614,274.9z"/>
						<polygon class="st14" points="603.9,297.5 604.1,288.9 597.3,300.7 						"/>
					</g>
				</g>
			</g>
			<g>
				<g>
					<path class="st13" d="M615.4,265.2l0.5,10c0.1,2.2,1.5,4.1,3.5,4.9l0,0c3.8,1.5,7.9-1.5,7.5-5.6l-0.6-9.9L615.4,265.2z"/>
					<path class="st15" d="M615.8,272.3c0,0,9.2,1.3,10.6-7.8c1.3-9.1-8.8-5.3-8.8-5.3l-2,7.5L615.8,272.3z"/>
					<g>
						<defs>
							<path id="XMLID_13_" d="M608.9,241.6c-6.1,6.6-5.7,16.9,0.9,23c6.6,6.1,16.9,5.7,23-0.9c6.1-6.6,5.7-16.9-0.9-23
								C625.3,234.6,615,235,608.9,241.6z"/>
						</defs>
						<use xlink:href="#XMLID_13_"  style="overflow:visible;fill:#F89A6E;"/>
						<clipPath id="XMLID_2_">
							<use xlink:href="#XMLID_13_"  style="overflow:visible;"/>
						</clipPath>
						<path class="st16" d="M625.6,257.5c0,0-6.4,11.6,2.6,14.8c9,3.2,11.6-21.9,11.6-21.9l-9.8-19.1l-23.8-1.7l-1.3,8.2
							c0,0,2.3,8,22.2,15.6L625.6,257.5z"/>
						<polygon class="st16" points="620.7,248.4 623.5,257.9 630.7,253.7 						"/>
					</g>
					<path class="st13" d="M624,254.3c-1.6,1.8-1.5,4.5,0.2,6.1c1.8,1.6,4.5,1.5,6.1-0.2c1.6-1.8,1.5-4.5-0.2-6.1
						C628.4,252.4,625.7,252.5,624,254.3z"/>
				</g>
				<g>
					<path class="st17" d="M604.2,247.4c0,0-0.8-11.6,9-17.7c8.1-5,19-2.3,23.4,6.1c2.1,3.9,3.3,7.8,1.9,15.4L604.2,247.4z"/>
					<path class="st18" d="M638,252.9c-0.1,0-0.1,0-0.2,0l-39-4.2c-0.9-0.1-1.6-0.9-1.5-1.9c0.1-0.9,0.9-1.6,1.9-1.5l39,4.2
						c0.9,0.1,1.6,0.9,1.5,1.9C639.6,252.3,638.9,252.9,638,252.9z"/>
				</g>
			</g>
		</g>
		<g>
			<g>
				
					<ellipse transform="matrix(0.229 -0.9734 0.9734 0.229 361.0857 661.4561)" class="st2" cx="598.1" cy="102.8" rx="30.4" ry="30.4"/>
				<g>
					<path class="st4" d="M602.5,116c0,5.9-8.9,5.9-8.9,0C593.7,110,602.5,110,602.5,116z M602,86l-0.2,21.9h-7.5
						c0-8.3-0.2-13.6-0.2-21.9H602z"/>
				</g>
			</g>
			<g>
				<path class="st19" d="M404,48.7l2.5,6.5c1.5,4,4.7,7.2,8.7,8.7l6.5,2.5l-6.5,2.5c-4,1.5-7.2,4.7-8.7,8.7L404,84l-2.5-6.5
					c-1.5-4-4.7-7.2-8.7-8.7l-6.5-2.5l6.5-2.5c4-1.5,7.2-4.7,8.7-8.7L404,48.7z"/>
				<path class="st19" d="M473.7,104.6l1.7,4.4c1,2.7,3.1,4.8,5.8,5.8l4.4,1.7l-4.4,1.7c-2.7,1-4.8,3.1-5.8,5.8l-1.7,4.4L472,124
					c-1-2.7-3.1-4.8-5.8-5.8l-4.4-1.7l4.4-1.7c2.7-1,4.8-3.1,5.8-5.8L473.7,104.6z"/>
				<path class="st19" d="M51.5,141.8l1.4,3.5c0.8,2.2,2.6,3.9,4.7,4.7l3.5,1.4l-3.5,1.4c-2.2,0.8-3.9,2.6-4.7,4.7l-1.4,3.5
					l-1.4-3.5c-0.8-2.2-2.6-3.9-4.7-4.7l-3.5-1.4l3.5-1.4c2.2-0.8,3.9-2.6,4.7-4.7L51.5,141.8z"/>
				<path class="st19" d="M695.7,159.7l1.4,3.5c0.8,2.2,2.6,3.9,4.7,4.7l3.5,1.4l-3.5,1.4c-2.2,0.8-3.9,2.6-4.7,4.7l-1.4,3.5
					l-1.4-3.5c-0.8-2.2-2.6-3.9-4.7-4.7l-3.5-1.4l3.5-1.4c2.2-0.8,3.9-2.6,4.7-4.7L695.7,159.7z"/>
			</g>
		</g>
		<g>
			<g>
				<g>
					<g>
						<defs>
							<path id="XMLID_12_" d="M508.7,456.2l19.4-50.1c0.9-2.4,4.3-2.4,5.2,0l19.4,50.1H508.7z"/>
						</defs>
						<use xlink:href="#XMLID_12_"  style="overflow:visible;fill:#F2A62F;"/>
						<clipPath id="XMLID_3_">
							<use xlink:href="#XMLID_12_"  style="overflow:visible;"/>
						</clipPath>
						<rect x="513.2" y="416.9" class="st20" width="34.4" height="9.6"/>
						<rect x="511.3" y="435.1" class="st20" width="38.9" height="9.6"/>
					</g>
					<path class="st21" d="M555.7,460.4h-49.9c-1.9,0-3.5-1.6-3.5-3.5l0,0c0-1.9,1.6-3.5,3.5-3.5h49.9c1.9,0,3.5,1.6,3.5,3.5l0,0
						C559.2,458.9,557.6,460.4,555.7,460.4z"/>
				</g>
				<g>
					<rect x="127.2" y="398.5" class="st22" width="15.2" height="42.9"/>
					<rect x="207.2" y="398.5" class="st22" width="15.2" height="42.9"/>
					<path class="st2" d="M233.9,460.6H114.7c-1.9,0-3.4-1.5-3.4-3.4v-14.9c0-1.9,1.5-3.4,3.4-3.4h119.2c1.9,0,3.4,1.5,3.4,3.4v14.9
						C237.3,459,235.8,460.6,233.9,460.6z"/>
					<g>
						<defs>
							<path id="XMLID_7_" d="M233.6,401.9H116.5c-2.8,0-5.1-2.3-5.1-5.1v-28.4c0-2.8,2.3-5.1,5.1-5.1h117.1c2.8,0,5.1,2.3,5.1,5.1
								v28.4C238.7,399.6,236.4,401.9,233.6,401.9z"/>
						</defs>
						<use xlink:href="#XMLID_7_"  style="overflow:visible;fill:#F2A62F;"/>
						<clipPath id="XMLID_4_">
							<use xlink:href="#XMLID_7_"  style="overflow:visible;"/>
						</clipPath>
						<polygon class="st23" points="109.7,415.5 86.8,415.5 140.3,356.2 163.2,356.2 						"/>
						<polygon class="st23" points="203,415.5 180,415.5 233.5,356.2 256.5,356.2 						"/>
						<polygon class="st23" points="155.4,415.5 132.5,415.5 185.9,356.2 208.9,356.2 						"/>
					</g>
				</g>
			</g>
			<line class="st24" x1="25.3" y1="460.9" x2="732.3" y2="460.9"/>
		</g>
	</g>
</g>
<g>
	<path class="st2" d="M254.9,269.8c-0.8,0.4-2.7,0.9-5.1,0.9c-6.8,0-10.3-4.3-10.3-9.9c0-6.7,4.8-10.4,10.7-10.4
		c2.3,0,4.1,0.4,4.8,0.8l-0.9,3.5c-0.9-0.4-2.2-0.7-3.7-0.7c-3.5,0-6.3,2.1-6.3,6.5c0,3.9,2.3,6.4,6.3,6.4c1.3,0,2.8-0.3,3.7-0.6
		L254.9,269.8z"/>
	<path class="st2" d="M271.2,263.2c0,5.3-4.1,7.5-7.7,7.5c-4.1,0-7.3-2.8-7.3-7.4c0-4.8,3.4-7.5,7.6-7.5
		C268.2,255.8,271.2,258.6,271.2,263.2z M260.9,263.3c0,2.3,0.9,4.2,2.9,4.2c2,0,2.9-1.9,2.9-4.2c0-2-0.7-4.4-2.9-4.4
		S260.9,261.3,260.9,263.3z"/>
	<path class="st2" d="M274,260.7c0-1.8-0.1-3.3-0.1-4.6h3.7l0.2,1.9h0.1c0.6-0.9,1.9-2.2,4.3-2.2c1.8,0,3.3,0.9,3.9,2.4h0.1
		c0.5-0.8,1.2-1.3,1.8-1.7c0.8-0.5,1.7-0.7,2.7-0.7c2.7,0,4.8,1.9,4.8,6.2v8.4h-4.3v-7.8c0-2.1-0.7-3.3-2.1-3.3c-1,0-1.8,0.7-2,1.5
		c-0.1,0.3-0.2,0.8-0.2,1.1v8.4h-4.3v-8c0-1.8-0.6-3-2-3c-1.1,0-1.8,0.9-2.1,1.6c-0.1,0.4-0.2,0.8-0.2,1.1v8.3H274V260.7z"/>
	<path class="st2" d="M299.1,260.9c0-1.9-0.1-3.5-0.1-4.8h3.9l0.2,2h0.1c1.1-1.5,2.7-2.3,4.8-2.3c3.1,0,5.9,2.7,5.9,7.3
		c0,5.2-3.3,7.7-6.5,7.7c-1.7,0-3.1-0.7-3.7-1.6h-0.1v7.1h-4.4V260.9z M303.5,264.3c0,0.4,0,0.7,0.1,0.9c0.3,1.2,1.3,2.1,2.6,2.1
		c1.9,0,3.1-1.6,3.1-4c0-2.3-1-4-3-4c-1.3,0-2.4,0.9-2.7,2.2c-0.1,0.2-0.1,0.5-0.1,0.8V264.3z"/>
	<path class="st2" d="M316.5,249.6h4.4v20.7h-4.4V249.6z"/>
	<path class="st2" d="M328,264.7c0.1,1.8,2,2.7,4,2.7c1.5,0,2.7-0.2,3.9-0.6l0.6,3c-1.5,0.6-3.2,0.9-5.2,0.9c-4.8,0-7.6-2.8-7.6-7.3
		c0-3.6,2.2-7.6,7.2-7.6c4.6,0,6.4,3.6,6.4,7.1c0,0.8-0.1,1.4-0.1,1.8H328z M333.2,261.6c0-1.1-0.5-2.9-2.5-2.9
		c-1.9,0-2.6,1.7-2.7,2.9H333.2z"/>
	<path class="st2" d="M345,252v4.1h3.2v3.3H345v5.2c0,1.7,0.4,2.5,1.8,2.5c0.6,0,1-0.1,1.3-0.1l0,3.4c-0.6,0.2-1.6,0.4-2.9,0.4
		c-1.4,0-2.6-0.5-3.3-1.3c-0.8-0.8-1.2-2.2-1.2-4.2v-5.8h-1.9v-3.3h1.9V253L345,252z"/>
	<path class="st2" d="M354,264.7c0.1,1.8,2,2.7,4,2.7c1.5,0,2.7-0.2,3.9-0.6l0.6,3c-1.5,0.6-3.2,0.9-5.2,0.9c-4.8,0-7.6-2.8-7.6-7.3
		c0-3.6,2.2-7.6,7.2-7.6c4.6,0,6.4,3.6,6.4,7.1c0,0.8-0.1,1.4-0.1,1.8H354z M359.2,261.6c0-1.1-0.5-2.9-2.5-2.9
		c-1.9,0-2.6,1.7-2.7,2.9H359.2z"/>
	<path class="st2" d="M263.7,286c1.4-0.2,3.4-0.4,6-0.4c2.7,0,4.7,0.5,6,1.6c1.3,1,2.1,2.6,2.1,4.6c0,2-0.6,3.6-1.8,4.7
		c-1.5,1.4-3.8,2.1-6.4,2.1c-0.6,0-1.1-0.1-1.5-0.1v7h-4.4V286z M268.1,295c0.3,0.1,0.8,0.1,1.5,0.1c2.4,0,3.8-1.2,3.8-3.2
		c0-1.8-1.2-2.9-3.5-2.9c-0.9,0-1.5,0.1-1.8,0.1V295z"/>
	<path class="st2" d="M280.3,295.8c0-2.1-0.1-3.5-0.1-4.7h3.8l0.1,2.6h0.1c0.7-2.1,2.5-2.9,3.9-2.9c0.4,0,0.6,0,0.9,0.1v4.2
		c-0.3-0.1-0.7-0.1-1.2-0.1c-1.6,0-2.7,0.9-3,2.2c-0.1,0.3-0.1,0.6-0.1,1v7.2h-4.4V295.8z"/>
	<path class="st2" d="M305.2,298.3c0,5.3-4.1,7.5-7.7,7.5c-4.1,0-7.3-2.8-7.3-7.4c0-4.8,3.4-7.5,7.6-7.5
		C302.2,290.8,305.2,293.7,305.2,298.3z M294.9,298.3c0,2.3,0.9,4.2,2.9,4.2c2,0,2.9-1.9,2.9-4.2c0-2-0.7-4.4-2.9-4.4
		S294.9,296.3,294.9,298.3z"/>
	<path class="st2" d="M308.5,305.4v-11h-1.9v-3.3h1.9v-0.6c0-3.9,3.1-6.2,7.5-6.2c1.5,0,3.3,0.3,4.2,0.9l-0.8,3.4
		c-0.7-0.4-1.8-0.7-3.2-0.7c-2.3,0-3.2,1.2-3.2,2.8v0.5h8.7v14.3h-4.4v-11H313v11H308.5z"/>
	<path class="st2" d="M325.2,284.7h4.4v20.7h-4.4V284.7z"/>
	<path class="st2" d="M336.6,299.7c0.1,1.8,2,2.7,4,2.7c1.5,0,2.7-0.2,3.9-0.6l0.6,3c-1.5,0.6-3.2,0.9-5.2,0.9
		c-4.8,0-7.6-2.8-7.6-7.3c0-3.6,2.2-7.6,7.2-7.6c4.6,0,6.4,3.6,6.4,7.1c0,0.8-0.1,1.4-0.1,1.8H336.6z M341.8,296.7
		c0-1.1-0.5-2.9-2.5-2.9c-1.9,0-2.6,1.7-2.7,2.9H341.8z"/>
</g>
<g>
</g>
<g>
</g>
<g>
</g>
<g>
</g>
<g>
</g>
<g>
</g>
<g>
</g>
<g>
</g>
<g>
</g>
<g>
</g>
<g>
</g>
<g>
</g>
<g>
</g>
<g>
</g>
<g>
</g>
</svg>
