<?xml version="1.0" encoding="utf-8"?>
<!-- Generator: Adobe Illustrator 24.1.0, SVG Export Plug-In . SVG Version: 6.00 Build 0)  -->
<svg version="1.1" id="Capa_1" xmlns="http://www.w3.org/2000/svg" xmlns:xlink="http://www.w3.org/1999/xlink" x="0px" y="0px"
	 viewBox="0 0 512 512" style="enable-background:new 0 0 512 512;" xml:space="preserve">
<style type="text/css">
	.st0{fill:#E6E7E8;}
	.st1{fill:#F7CDB9;}
	.st2{fill:#F6CCB8;}
	.st3{fill:#383643;}
	.st4{fill:#221F1F;}
	.st5{fill:#43414D;}
	.st6{fill:#A4D8ED;}
	.st7{fill:#85CBE7;}
	.st8{fill:#F7F7F7;}
	.st9{fill:#FFFFFF;}
	.st10{fill:#A7A9AC;}
	.st11{fill:#42404D;}
	.st12{opacity:0.8;fill:#F7CDB9;}
	.st13{fill:#3C2415;}
	.st14{fill:#F05D44;}
	.st15{fill:#4F3C30;}
</style>
<g id="doctor_9_">
	<polygon class="st0" points="229.4,184.7 281.6,184.7 285.2,207 225.8,207 	"/>
	<g>
		<polygon class="st1" points="283.8,191.4 277.1,188.3 277.1,166.9 233.9,166.9 233.9,188.3 227.2,191.2 229,251.8 233.9,251.8 
			233.9,261.1 277.1,261.1 277.1,251.8 282,251.8 		"/>
		<polygon class="st2" points="233.9,166.9 233.9,179.5 277.1,186.9 277.1,166.9 		"/>
	</g>
	<g>
		<g>
			<path class="st3" d="M263.6,406c0,0-16.2,0-16.2,0c0,0-58.6,0-58.6,0l4.6,81.5h47.3l8.6-29.6c0,0,12.3,0,12.3,0
				c0,0,8.6,29.6,8.6,29.6h47.3l4.6-81.5H263.6z"/>
			<g>
				<polygon class="st4" points="322.1,420 188.8,420 188.8,406 322.2,406 				"/>
				<path class="st5" d="M261.3,423.7h-11.5c-4.3,0-7.9-3.5-7.9-7.9v-5.6c0-4.3,3.5-7.9,7.9-7.9h11.5c4.3,0,7.9,3.5,7.9,7.9v5.6
					C269.2,420.1,265.6,423.7,261.3,423.7z M249.7,406.2c-2.2,0-4,1.8-4,4v5.6c0,2.2,1.8,4,4,4h11.5c2.2,0,4-1.8,4-4v-5.6
					c0-2.2-1.8-4-4-4H249.7z"/>
			</g>
		</g>
		<g>
			<path class="st6" d="M284.4,191.5l-1.6,6c-2.8,7.9-9.9,21-26.8,21c-19.1,0-26.3-16.6-28.6-23.7l-0.9-3.3
				c-35.1,13.2-24.3,123.1-24.3,123.1L202,406l53.6,0l56.4,0l-1.5-91.3C310.6,314.6,319.5,204.7,284.4,191.5z"/>
			<polygon class="st3" points="265.9,215.5 261.7,223.5 249.1,223.5 245.1,215.5 255.5,207 			"/>
			<path class="st7" d="M255.5,207l-13.3,14l-22.7-27.1c0,0,14.2-7.1,14.2-7.1l5.3,4.9L255.5,207z"/>
			<polygon class="st7" points="277.3,186.9 255.5,207 268.8,221 291.5,193.9 			"/>
			<polygon class="st3" points="261.7,225.4 266.9,390.6 255.5,403.2 244.1,390.6 249.1,225.4 			"/>
		</g>
		<path class="st8" d="M226.7,307.1v181.2h-55.8c1.4-21.8,4.9-64.8,7.3-131.8c0.2-5.4,0.4-10.7,0.6-15.7c1.1-31.9,1.9-54.6,1.9-54.6
			c-0.1,0.2-27.7-30.2-22.2-62.8c3.4-20.1,33-20.2,68.1-33.3L226.7,307.1z"/>
		<path class="st8" d="M284.3,307.1c0,0,0.2-117.1,0.2-117.1c35.1,13.2,64.6,13.2,68.1,33.3c5.6,32.6-22,63-22.2,62.8
			c0,0,7.5,167.3,9.8,202.2l-55.8,0v-26.2V307.1z"/>
		<g>
			<g>
				<path class="st1" d="M295,434.6l16.3-34.6l24.4,11.5l-16.3,34.6c-3.2,6.8-11.3,9.8-18,6.6C294.7,449.6,291.8,441.5,295,434.6z"
					/>
				<path class="st1" d="M291.1,424.7c5.7-12.1,17-17.1,17.6-17.2c2.4-0.6,4.8,1,5.4,3.4c0.5,2.4-1,4.9-3.4,5.4c0,0-0.6,0.3-1.3,0.8
					c-0.8,0.5-1.9,1.3-3,2.3c-2.4,2-5.2,5.1-7,9c-1.1,2.3-3.8,3.3-6,2.2C291,429.7,290,427,291.1,424.7z"/>
			</g>
			<path class="st0" d="M332.8,356.5l-25.7,54.7l-6.5-3.1l31.7-67.3C332.4,345.8,332.6,351,332.8,356.5z"/>
			<path class="st8" d="M333.1,423.4l-29.3-13.8l36-76.5l-26.6-97.6l39.1-13.1l20.3,109.9c0.6,3.3,0.2,6.8-1.3,9.8L333.1,423.4z"/>
		</g>
		<g>
			<g>
				<path class="st1" d="M216,434.6L199.7,400l-24.4,11.5l16.3,34.6c3.2,6.8,11.3,9.8,18,6.6C216.3,449.6,219.2,441.5,216,434.6z"/>
				<path class="st1" d="M219.9,424.7c-5.7-12.1-17-17.1-17.6-17.2c-2.4-0.6-4.8,1-5.4,3.4c-0.5,2.4,1,4.9,3.4,5.4
					c0,0,0.6,0.3,1.3,0.8c0.8,0.5,1.9,1.3,3,2.3c2.4,2,5.2,5.1,7,9c1.1,2.3,3.8,3.3,6,2.2S221,427,219.9,424.7z"/>
			</g>
			<path class="st0" d="M210.4,408l-6.5,3.1l-25.7-54.7c0.2-5.4,0.4-10.7,0.6-15.7L210.4,408z"/>
			<path class="st8" d="M177.9,423.4l-38.2-81.2c-1.4-3.1-1.9-6.5-1.3-9.8l20.3-109.9l39.1,13.1l-26.6,97.6l36,76.5L177.9,423.4z"/>
		</g>
		<g>
			<polygon class="st9" points="224,458.6 191.1,469.3 179,424.2 219.1,413.4 			"/>
			
				<rect x="178.8" y="418.7" transform="matrix(0.9659 -0.2588 0.2588 0.9659 -102.0422 65.9729)" class="st0" width="41.5" height="3.6"/>
		</g>
		<g>
			<g>
				<polygon class="st0" points="211,194 211.7,214.6 222,223.1 214,234.1 226.7,307.1 229.1,184.7 				"/>
			</g>
		</g>
		<g>
			<polygon class="st9" points="287,458.6 319.9,469.3 332,424.2 291.9,413.4 			"/>
			
				<rect x="309.7" y="399.8" transform="matrix(0.2588 -0.9659 0.9659 0.2588 -175.3525 612.5419)" class="st0" width="3.6" height="41.5"/>
		</g>
		<g>
			<g>
				<polygon class="st0" points="300,194 299.3,214.6 289,223.1 297,234.1 284.3,307.1 281.9,184.7 				"/>
			</g>
		</g>
	</g>
	<g>
		<path class="st10" d="M297,226.6c-0.1-1.6-1.8-37.4-19.9-46.5v4.1c14.7,9.6,16.3,42.1,16.3,42.5l0.1,1.8l3.6-0.2L297,226.6z"/>
		<path class="st10" d="M233.9,183.8v-4.2c-29.6,15-17.2,92.4-16.6,95.7l0.3,1.8l3.5-0.6l-0.3-1.8
			C220.7,274,208.8,199.8,233.9,183.8z"/>
		<g>
			<path class="st10" d="M307.5,282.9c-3.3-0.4-6.4-1.4-9.2-3c9.8-8.2,15.4-22.4,14.7-34.9c-0.7-12.4-7.5-20.1-17.8-20.1
				c-10.3,0-17.1,7.7-17.8,20.1c-0.7,12.5,4.9,26.8,14.7,34.9c-2.8,1.6-5.9,2.7-9.2,3c-1,0.1-1.7,1-1.6,2c0.1,0.9,0.9,1.6,1.8,1.6
				c0.1,0,0.1,0,0.2,0c4.4-0.5,8.4-2,12-4.3c3.6,2.3,7.6,3.9,12,4.3c0.1,0,0.1,0,0.2,0c0.9,0,1.7-0.7,1.8-1.6
				C309.2,283.9,308.5,283,307.5,282.9z M281,245.1c0.3-5,2.2-16.7,14.2-16.7c12,0,13.9,11.7,14.2,16.7c0.6,11.9-4.8,25.4-14.2,32.7
				C285.8,270.6,280.4,257,281,245.1z"/>
			<path class="st11" d="M280.2,287.5c-1.1,0-2.1-0.1-3.2-0.2c-1.5-0.2-2.6-1.5-2.4-3c0.2-1.5,1.5-2.5,3-2.4c1.7,0.2,3.5,0.2,5.1,0
				c1.4-0.2,2.8,0.9,3,2.4c0.2,1.5-0.9,2.8-2.4,3C282.3,287.5,281.3,287.5,280.2,287.5z"/>
			<path class="st11" d="M310.2,287.5c-1,0-2.1-0.1-3.1-0.2c-1.5-0.2-2.6-1.5-2.4-3c0.2-1.5,1.5-2.6,3-2.4c1.7,0.2,3.4,0.2,5.1,0
				c1.5-0.1,2.8,0.9,3,2.4c0.2,1.5-0.9,2.8-2.4,3C312.3,287.5,311.2,287.5,310.2,287.5z"/>
		</g>
		<g>
			<g>
				<circle class="st0" cx="219.1" cy="275.6" r="10.8"/>
				<path class="st10" d="M219.1,264.8c6,0,10.8,4.8,10.8,10.8c0,6-4.8,10.8-10.8,10.8c-6,0-10.8-4.8-10.8-10.8
					C208.3,269.6,213.1,264.8,219.1,264.8 M219.1,261.2c-7.9,0-14.4,6.5-14.4,14.4c0,7.9,6.5,14.4,14.4,14.4
					c7.9,0,14.4-6.5,14.4-14.4C233.5,267.7,227,261.2,219.1,261.2L219.1,261.2z"/>
			</g>
			<g>
				<path class="st10" d="M226.8,275.6c0,4.2-3.4,7.7-7.7,7.7c-4.2,0-7.7-3.4-7.7-7.7s3.4-7.7,7.7-7.7
					C223.3,267.9,226.8,271.4,226.8,275.6z"/>
			</g>
		</g>
	</g>
	<g>
		<g>
			<path class="st1" d="M302.3,106l1.5-19c0-24.8-23.7-45-48.6-45c-24.8,0-48.6,20.1-48.6,45l1.5,19c-1.4,0.3-2.6,1-3.7,1.9
				c-1.9,1.7-3.2,4.1-3.2,6.9v9.4c0,4.9,4,9,8.9,9c0,23.5,28.2,45.7,45,45.7c16.8,0,45-22.2,45-45.7c4.9,0,8.9-4,8.9-9v-9.4
				C309.2,110.5,306.3,107,302.3,106z"/>
			<path class="st12" d="M302.3,106l1.5-19c0-24.8-23.7-45-48.6-45c0,0,0,0,0,0v63.8c-6.6,14-10.8,34.2-10.8,34.2h10.8v38.7
				c0,0,0,0,0,0c0,0,0,0,0,0c16.8,0,45-22.2,45-45.7c4.9,0,8.9-4,8.9-9v-9.4C309.2,110.5,306.3,107,302.3,106z"/>
			<g>
				<g>
					
						<ellipse transform="matrix(0.9626 -0.2709 0.2709 0.9626 -21.3869 67.7042)" class="st1" cx="234.5" cy="111.3" rx="7.1" ry="7.1"/>
					
						<ellipse transform="matrix(0.6791 -0.734 0.734 0.6791 -5.1343 207.3004)" class="st13" cx="234.5" cy="109.5" rx="7.1" ry="7.1"/>
					<path class="st9" d="M238.7,107.2c0,1-0.7,1.8-1.7,1.8c-1,0-1.8-0.7-1.8-1.7c0-1,0.7-1.8,1.7-1.8
						C237.9,105.5,238.7,106.3,238.7,107.2z"/>
				</g>
				<g>
					<path class="st1" d="M283,111.1c0.1,3.9-2.9,7.2-6.9,7.3c-3.9,0.1-7.2-2.9-7.3-6.9c-0.1-3.9,2.9-7.2,6.9-7.3
						S282.9,107.2,283,111.1z"/>
					
						<ellipse transform="matrix(0.3461 -0.9382 0.9382 0.3461 77.6616 330.4742)" class="st13" cx="275.9" cy="109.5" rx="7.1" ry="7.1"/>
					<path class="st9" d="M280.1,107.2c0,1-0.7,1.8-1.7,1.8c-1,0-1.8-0.7-1.8-1.7c0-1,0.7-1.8,1.7-1.8
						C279.2,105.5,280.1,106.3,280.1,107.2z"/>
				</g>
			</g>
		</g>
		<g>
			<path class="st14" d="M271.7,148.5c0,7.9-7.2,14.4-16.2,14.4c-8.9,0-16.2-6.4-16.2-14.4H271.7z"/>
			<path class="st9" d="M267,153.9h-23.4c-1,0-1.8-0.8-1.8-1.8v-3.6h27v3.6C268.8,153.1,268,153.9,267,153.9z"/>
		</g>
		<path class="st15" d="M306,105.8c-1.5,6.3-3.4,8.9-5.8,15c0,0-0.1-17.4-0.1-17.4L290,72.9c0,0-16,3.4-34.7,4.2
			c-18.8-0.8-34.7-4.2-34.7-4.2l-10.2,30.5c0,0,0,17.5,0,17.4c-1.2-3-5.1-11.8-5.8-15c-2.5-10.5-3.6-21-3.1-30.8
			c0.2-3.5,0.6-6.9,1.2-10.2c0.8-4.6,2.1-9,3.8-13.1c0,0,11-29,48.8-29c0.8,0,1.5,0,2.3,0c10.2,0,17.4,1.9,24.3,5.3
			c0,0,11.3,5.5,20.7,1c0.3-0.1,0.7,0.1,0.6,0.4c-0.2,1.3-0.7,3.8-2.5,6.2c2.4,0.1,5.2-0.1,8.3-0.8c0,0,0.1,0,0.1,0V35
			c0.2,6.3-2,12-5,16.7c1.7,4,2.9,8.3,3.8,12.8c0.6,3.3,1,6.7,1.2,10.2C309.6,84.6,308.5,95.1,306,105.8z"/>
		<path class="st5" d="M305.6,95.9h-9.8c-3.1-1.6-7.4-2.6-13.4-2.6c-10,0-16.8,1.9-20.3,5.6c-1.7-0.9-4.1-1.9-6.9-1.9
			c-2.8,0-5.2,1-6.9,1.9c-3.5-3.7-10.3-5.6-20.3-5.6c-6,0-10.3,1-13.4,2.6h-9.8v7l3.2,1.1c-0.3,1.3-0.5,2.6-0.5,3.9
			c0,10.6,3.3,16.7,20.5,16.7c14.5,0,20.2-4.1,22.7-16.3c0.3-1.5,0.3-2.9,0.1-4.3c0.8-0.5,2.1-1,4.3-1c2.2,0,3.5,0.4,4.3,1
			c-0.2,1.3-0.2,2.8,0.1,4.3c2.5,12.2,8.3,16.3,22.7,16.3c17.1,0,20.5-6.1,20.5-16.7c0-1.3-0.1-2.6-0.5-3.9l3.2-1.1V95.9z
			 M248,108.4c-2.2,10.6-6.3,13.7-19.9,13.7c-17.1,0-18-6.6-18-14.5c0-2.8,1.1-8.3,18-8.3c11.6,0,16.4,1.6,18.2,3.8
			C247.5,104.6,248.5,106,248,108.4z M282.4,122.1c-13.6,0-17.7-3.1-19.9-13.7c-0.5-2.4,0.5-3.8,1.7-5.3c1.8-2.2,6.5-3.8,18.2-3.8
			c16.9,0,18,5.6,18,8.3C300.4,115.5,299.5,122.1,282.4,122.1z"/>
	</g>
</g>
</svg>
