<?xml version="1.0" encoding="utf-8"?>
<!-- Generator: Adobe Illustrator 24.1.0, SVG Export Plug-In . SVG Version: 6.00 Build 0)  -->
<svg version="1.1" id="Layer_1" xmlns="http://www.w3.org/2000/svg" xmlns:xlink="http://www.w3.org/1999/xlink" x="0px" y="0px"
	 viewBox="0 0 500 500" style="enable-background:new 0 0 500 500;" xml:space="preserve">
<style type="text/css">
	.st0{fill:#1C5C91;}
	.st1{fill:#D1D3D4;}
	.st2{fill:#FFA969;}
	.st3{fill:#FF8A54;}
	.st4{fill:#FFFFFF;}
	.st5{fill:#FFFFFF;stroke:#FF8A54;stroke-width:1.8443;stroke-linecap:round;stroke-linejoin:round;stroke-miterlimit:10;}
	.st6{fill:#7F2C08;}
	.st7{fill:#211F1F;}
	.st8{fill:#C96335;}
	.st9{fill:#5C2014;}
</style>
<g>
	<path class="st0" d="M485,500c-1.6-8.6-3.2-16.6-4.3-21.4c-5.2-21.7-10.6-69.1-25.5-85.8c-21.5-24.1-87.4-45.5-118.9-52.2
		c-36.2-7.7-111.1-5.4-147.8-1.3c-26.1,2.9-80,18.6-102.1,32.8c-9.7,6.2-22.4,26.3-28.6,36C44.8,428,27.2,491.4,33.2,500H485z"/>
	<path class="st1" d="M259.1,492.5c-20.5,0.5-56.3-77.5-56.3-77.5l60.5,45.7l36.8-59.7l27.3-0.6
		C327.4,400.4,267.2,492.3,259.1,492.5z"/>
	<g>
		<g>
			<path class="st2" d="M196.9,387.9c0,0,51.5,61.5,64.4,75.3c2.5,2.7,0,0,2.1-2.5c22-26.1,44.9-72.8,44.9-72.8v-80.6H196.9V387.9z"
				/>
		</g>
		<g>
			<path class="st3" d="M206.1,300c0,21.8,16.5,63.1,43.7,77.7c43.1,23.1,58.4,9.6,58.4,9.6s0.6-78.3,0.6-87.4
				c0-21.8-24.9-39.5-55.5-39.5C222.7,260.4,206.1,278.2,206.1,300z"/>
		</g>
	</g>
	<path class="st4" d="M261.3,456.2c0,0,23.3-40.9,30.8-55c4.7-8.9,11.9-22.7,14-32.5c3.6-16.5,1.3-77.5,6.7-71.7
		c13,13.7,28.6,23,41.7,52.9c6,13.6,21.3,56.5,7.7,50.6c-12.1-5.3-17.4-6.3-26.7-6.3c-7.6,0,0.1,14.8-5.3,16.8
		c-3.5,1.3-25.5,1.4-29.6,5.4c-17.3,17-37.1,52.3-37.1,52.3s-40.7-37.7-72.9-46.8c-5.1-1.4-2.4-15.6-7-18.2
		c-8.6-4.7-30.8,6-39.2,0.9c-7.3-4.4,3.9-58,16-77.1c22.3-35.1,33.5-21.3,35.2-8.6c1.7,12.6,1.3,51.9,6.5,63.5
		C212,404.5,261.3,456.2,261.3,456.2z"/>
	<g>
		<g>
			<g>
				<path class="st2" d="M357.1,209.9c0.8,35-7.7,82.9-39.3,116c-14.4,15-37.8,34.5-59.8,35c-27.4,0.6-53.8-17.7-69.6-35
					c-30.1-33-35.8-80.2-36.5-111.1c-2.4-101.7,11.2-139.2,100.3-141.3C334.7,71.5,354.7,108.2,357.1,209.9z"/>
			</g>
			<g>
				<path class="st3" d="M276.2,173.4c4.5-6.9,14.9-8.5,22.3-7.7c11,1.2,30.2-0.9,36.6,10.2c5.6,9.6,4.1,21.4,0.4,24.8
					c-9.2,8.3-43.2,2.7-52.7,2.9C279.5,203.5,264.1,192,276.2,173.4z"/>
			</g>
			<g>
				<path class="st4" d="M287.9,193.6c14.5-10.8,41.3-1.6,44.6,4.9c1.4,2.8-4.3,18.2-35,14.3C285,211.2,276.9,201.7,287.9,193.6z"/>
			</g>
			<g>
				<path class="st2" d="M289.8,195.6c-4.6,2.4-6.3,5.1-7,7.8c-3.9-3.8-0.7-12.7,5.8-17.5c14.5-10.8,41.4-1.1,45.7,4.7
					c2.4,3.3,0.2,7.3-1.5,10.1C326,188.4,308.8,186,289.8,195.6z"/>
			</g>
			<g>
				<path class="st5" d="M296.8,277.6c0,35.8-77.3,41.7-85.7,2L296.8,277.6z"/>
			</g>
			<g>
				<path class="st2" d="M381.2,223.3c-4.9,19.3-15.6,26.6-25.5,22.2c-9.9-4.4-15.2-18.7-10.3-38c4.9-19.3,12.4-38.8,28-31.8
					C387.7,181.9,386.1,204,381.2,223.3z"/>
			</g>
			<g>
				<path class="st3" d="M369.8,220.6c-2.5,10.1-8.2,13.9-13.3,11.6c-5.2-2.3,1.1-40.2,9.2-36.5C373.2,199,372.3,210.5,369.8,220.6z
					"/>
			</g>
			<g>
				<path class="st2" d="M129.2,229.2c5.8,19.1,16.9,25.8,26.5,20.9c9.7-4.8,14.3-19.4,8.5-38.5c-5.8-19-14.2-38.1-29.4-30.5
					C120.7,188.2,123.4,210.2,129.2,229.2z"/>
			</g>
			<g>
				<path class="st3" d="M258.8,331.8c7.9-1.1,11.5-4.6,10.4-8.8c-0.5-1.8-8.1,1.4-14.3,1.8c-9.1,0.6-15.5-2.8-14.5,0.9
					C242,331.9,249.7,333.2,258.8,331.8z"/>
			</g>
			<g>
				<path class="st3" d="M170.7,177.6c3.4-7.5,14.6-10.5,22-10.8c11-0.4,27-9,35,0.9c7,8.7,7,24.7,4.1,28.8
					c-9.5,13.6-38.1,6.8-47.4,8.4C181.2,205.5,161.5,197.8,170.7,177.6z"/>
			</g>
			<g>
				<path class="st4" d="M221.4,192.7c-15-10.1-41.3,0.4-44.3,7c-1.3,2.9,6.7,18.9,35.6,12.6C225.1,209.7,232.8,200.3,221.4,192.7z"
					/>
			</g>
			<g>
				<path class="st6" d="M211.1,201c0.2,5.7-4.3,10.3-9.9,10.5c-5.6,0.1-10.4-4.4-10.5-10.1c-0.2-5.7,4.3-10.4,9.9-10.5
					C206.3,190.8,211,195.3,211.1,201z"/>
			</g>
			<g>
				<path class="st2" d="M219.6,194.9c4.8,2.1,6.6,4.8,7.3,7.5c3.7-3.9,0-12.9-6.8-17.4c-15-10.1-41.3,1-45.3,7.1
					c-2.2,3.4,0.1,7.3,2,10.1C180.6,192.5,200.1,186.1,219.6,194.9z"/>
			</g>
			<g>
				<path class="st7" d="M205.3,201.1c0.1,2.5-1.9,4.5-4.3,4.6c-2.5,0-4.5-1.9-4.6-4.4c-0.1-2.5,1.9-4.5,4.3-4.6
					C203.2,196.6,205.3,198.6,205.3,201.1z"/>
			</g>
			<g>
				<path class="st6" d="M318.2,201.5c0.2,5.7-4.3,10.4-9.9,10.5c-5.6,0.1-10.4-4.4-10.5-10.1c-0.2-5.7,4.3-10.4,9.9-10.5
					C313.4,191.3,318.1,195.9,318.2,201.5z"/>
			</g>
			<g>
				<path class="st7" d="M312.4,201.6c0.1,2.5-1.9,4.5-4.3,4.6c-2.5,0-4.5-1.9-4.6-4.4c-0.1-2.5,1.9-4.5,4.3-4.6
					C310.3,197.2,312.4,199.2,312.4,201.6z"/>
			</g>
			<g>
				<path class="st3" d="M140.5,226c3,9.9,8.8,13.5,13.8,10.9c5.1-2.5-3-40.1-10.9-36.1C136,204.6,137.4,216.1,140.5,226z"/>
			</g>
			<g>
				<path class="st8" d="M227,204.5c0.4,0,0.8-0.1,1.2-0.4c1-0.7,1.2-2,0.5-3c-12-17.3-30.1-14.6-37.2-12.7
					c-9.5,2.6-17.1,8.1-17.5,12.9c-0.1,1.2,0.8,2.2,2,2.3c1.2,0.1,2.2-0.8,2.3-2c0.2-1.9,5.2-6.7,14.3-9.1c6.3-1.7,22.1-4,32.6,11
					C225.6,204.2,226.3,204.5,227,204.5z"/>
			</g>
			<g>
				<path class="st3" d="M276.6,256L276.6,256c0,0-6.5-13.1-8.7-11.6c-1.7,1.2-0.5,4.9-4.5,11c-5.5,5.8-16.2,3.5-18.8-0.4
					c-0.1-0.2,1.2-8,1.6-13.3c0.7-8.2,0.9-18.7,0.3-29.4c-0.4-7.2,1.8-17.2,0.5-23.8c-1.4-7.4-6.5-11.1-9.1-15.8
					c-3.1-5.4-9.6-6.7-17-7.5c-5.9-0.6,7.9-1.2,13.8,32.2c1,5.5,7.9,47.5,2.6,46.4c-6.9-1.4-6.3,11.5-6.5,13.6
					c-0.6,10.8,39.7,12.4,46.1,1.4C277.6,257.8,277.4,256.6,276.6,256z"/>
			</g>
			<g>
				<path class="st6" d="M296.9,155.3c43.3-0.8,40.7,25.5,40.7,25.5c-13.3-8.5-19.7-10.6-35.5-11.2c-13.1-0.5-22.4,6.8-26.6,5.4
					C270.5,173.5,271,155.8,296.9,155.3z"/>
			</g>
			<g>
				<path class="st9" d="M210.3,86.3c0,0-10.5,32.8-14.8,43.4c-7.5,18.5-32.5,34.1-32.5,34.1s-2.1,18.7-3.1,24c-0.8,4-5,10-3.1,13.6
					c9.3,17.8-1.3,42.7-2.2,39.2c-3.8-13.7-2.5-25.9-12.4-31.9c-2.3-1.4-7.5-3.5-9-5.7c-2-2.8-1.7-10.2-3.3-13.3
					c-1.4-2.8-7.7-6.6-8.2-9.7c-0.4-2.4,8.2-6.7,8.1-9.1c-0.2-4.2-8.6-10.5-8.3-14.6c0.2-2.3,5.3-4.8,5.8-7.1
					c1-4.3-7.9-12.9-7.1-17.2c0.5-2.6,3.3-5.9,3.5-8.6c0.3-2.7-4.7-7.1-4.7-9.9c0-3.5,6.1-9,6.1-12.4c0-6.3-3.6-7.7-2.5-13.9
					c0.4-2.5,3-5.1,4.5-7.1c3.9-5.1,7.5-18.3,12.3-22.6c4.2-3.8,16.2-16.5,21.1-19.3c4.3-2.5,10.9-10.6,15.6-12.2
					c5-1.8,16.4-6.6,21.3-8.7c8.6-3.7,18-11.8,26.6-15.5c8.8-3.7,28.6,7.5,38.1,7.3c3.5-0.1,10.5-1.2,13.8-0.3
					c3.1,0.8,7.8,6.5,11,6.7c2.4,0.1,6.4-4.2,8.8-4.2c4.8,0.1,12.3,8.7,17,8.5c4.7-0.2,24.8,0.6,28.8,5.5c2.5,3.1,9.6,7.1,13.1,9.1
					c4.7,2.7,6.6,6.8,6.6,6.8s2.1,14.1,2.9,16.5c0.7,2,5.1,3.8,6.1,5.7c1.3,2.3,6.5,4.8,7.1,7.8c0.6,3,0.4,7.5-0.5,10
					c-0.9,2.5,9.6,3.6,9.2,6.5c-0.4,3-2.4,7.5-2.4,9c0,1.5,3.2,18.9,3.3,20.4c0,1.5-3.3,29.4-5,34.5c-1.2,3.5-1.9,10.3-1.9,14
					c0,5.4,5,15.2,4.2,20.6c-0.6,3.9-6,10.6-9.1,13.1c-1.5,1.3-6,1.7-7.3,3.1c-2.2,2.4-2.8,9.5-4.2,12.5c-2.7,6.1-2.8,0.6-3.1,7.3
					c-0.4,11.4,2.9,16.5,2.9,16.5c-1.9,2.4-8.4-3.1-9.9-5.8c-7.2-13.3-5.4-23.1-5.4-23.1s2.7-14.4,3-19.2c0.5-7.6-4.8-29.3-4.8-29.3
					s-23.4-0.1-33.1-2.4c-33.8-8.1-43-29.1-43-29.1s-25.8-3-32-7C219.6,110.8,210.3,86.3,210.3,86.3z"/>
			</g>
			<g>
				<path class="st6" d="M208,155c-43.2,1.2-39.5,27.4-39.5,27.4c12.9-9.1,19.2-11.5,34.9-12.8c13.1-1.1,22.7,5.7,26.9,4.2
					C235.2,171.9,233.8,154.2,208,155z"/>
			</g>
			<g>
				<path class="st8" d="M282.8,205.6c0.7,0,1.4-0.4,1.8-1c7.8-12.5,23.3-14,34.2-11.5c7.5,1.7,12.2,5.1,12.5,7.4
					c0.1,1.2,1.3,2,2.4,1.9c1.2-0.1,2-1.2,1.9-2.4c-0.5-4.7-6.7-9-15.8-11.1c-12.3-2.8-29.8-1-38.8,13.4c-0.6,1-0.3,2.3,0.7,3
					C282,205.5,282.4,205.6,282.8,205.6z"/>
			</g>
			<path class="st4" d="M310,201.4c0,1,0.8,1.9,1.9,1.9c1,0,1.9-0.8,1.9-1.9c0-1-0.8-1.9-1.9-1.9C310.8,199.6,310,200.4,310,201.4z"
				/>
			<path class="st4" d="M203.5,201.4c0,1,0.8,1.9,1.9,1.9c1,0,1.9-0.8,1.9-1.9c0-1-0.8-1.9-1.9-1.9
				C204.3,199.6,203.5,200.4,203.5,201.4z"/>
		</g>
	</g>
</g>
</svg>
