<?xml version="1.0" encoding="utf-8"?>
<!-- Generator: Adobe Illustrator 24.1.0, SVG Export Plug-In . SVG Version: 6.00 Build 0)  -->
<svg version="1.1" xmlns="http://www.w3.org/2000/svg" xmlns:xlink="http://www.w3.org/1999/xlink" x="0px" y="0px"
	 viewBox="0 0 793 421.9" style="enable-background:new 0 0 793 421.9;" xml:space="preserve">
<style type="text/css">
	.st0{fill:#FFC107;}
	.st1{fill:#FAFAFA;}
	.st2{fill:#FFFFFF;}
</style>
<g id="Layer_2">
</g>
<g id="Layer_1">
	<g>
		<path class="st0" d="M160.5,12.3C82.5,12.3,19,75.8,19,153.8c0,98.1,127.7,227,133.2,232.4c2.3,2.3,5.3,3.4,8.3,3.4
			c3,0,6-1.2,8.3-3.4c5.4-5.4,133.2-134.3,133.2-232.4C302,75.8,238.6,12.3,160.5,12.3z"/>
		<path class="st1" d="M242.5,121.6c-1.4-4.2-5-7.2-9.4-7.9l-42.7-6.5l-19.2-40.9c-3.9-8.3-17.5-8.3-21.3,0l-19.2,40.9L88,113.7
			c-4.4,0.7-8,3.7-9.4,7.9c-1.4,4.2-0.4,8.8,2.7,12l31.2,32l-7.4,45.3c-0.7,4.5,1.2,8.9,4.9,11.6c3.7,2.6,8.6,2.9,12.5,0.7l38-21
			l38,21c1.8,1,3.7,1.5,5.7,1.5c2.4,0,4.8-0.7,6.8-2.1c3.7-2.6,5.6-7.1,4.8-11.5l-7.4-45.3l31.2-32
			C242.8,130.4,243.8,125.8,242.5,121.6z"/>
	</g>
	<g>
		<path class="st2" d="M323.6,323.9v17.2h30.2v14.8h-30.2v31.5h-20.9v-78.3h52.4v14.8H323.6z"/>
		<path class="st2" d="M402.9,387.4c-0.1-1.7-0.2-3.3-0.3-4.7c-0.1-1.4-0.2-2.9-0.2-4.5h-0.2c-2.5,3.8-5.2,6.5-8.1,8.1
			c-2.9,1.6-6.4,2.4-10.4,2.4c-2.8,0-5.5-0.4-8.1-1.1c-2.6-0.7-5-1.8-7-3.3c-2.1-1.5-3.7-3.3-4.9-5.7c-1.2-2.3-1.9-5.1-1.9-8.4
			c0-4.5,1.1-8.1,3.3-10.7c2.2-2.7,4.8-4.7,7.9-6c3.1-1.3,6.4-2.2,9.9-2.6c3.5-0.4,6.5-0.6,9.1-0.6c1.7,0,3.3,0.1,4.9,0.2
			c1.5,0.2,3,0.3,4.5,0.6c-0.1-3.4-1.2-5.9-3.3-7.6c-2.1-1.7-5.5-2.5-10.2-2.5c-3.3,0-6.5,0.3-9.5,1c-3.1,0.7-6.1,1.8-9,3.4
			l-0.3-13.7c4.3-1.7,8.3-2.8,12.1-3.4c3.8-0.5,7.6-0.8,11.4-0.8c3.7,0,7.3,0.4,10.7,1.3c3.4,0.9,6.3,2.3,8.8,4.2
			c2.5,1.9,4.5,4.5,6,7.5c1.5,3.1,2.2,6.8,2.2,11.1v22.9c0,0.7,0,1.6,0.1,2.6c0,1.1,0.1,2.2,0.2,3.4c0.1,1.2,0.2,2.3,0.3,3.5
			c0.1,1.2,0.3,2.3,0.5,3.3H402.9z M397.1,361.3c-1.6-0.1-2.9-0.1-4-0.1c-4.3,0-7.4,0.7-9.4,2c-2,1.3-3,3.2-3,5.6
			c0,2.1,0.8,3.7,2.4,4.8c1.6,1.1,3.6,1.7,6.1,1.7c1.9,0,3.6-0.4,5.1-1.2c1.5-0.8,2.8-1.9,3.9-3.2c1.1-1.3,1.9-2.8,2.5-4.4
			c0.6-1.6,0.8-3.3,0.8-4.9C400.2,361.4,398.7,361.3,397.1,361.3z"/>
		<path class="st2" d="M472.7,387.4h-23L428,329h21.7l12.1,41.6h0.2l12.2-41.6h20.1L472.7,387.4z"/>
		<path class="st2" d="M564.4,371c-1.7,3.8-4,7-7.1,9.6c-3,2.7-6.6,4.7-10.8,6.1s-8.7,2.1-13.6,2.1c-4.9,0-9.5-0.7-13.6-2.1
			c-4.2-1.4-7.7-3.4-10.8-6.1c-3-2.7-5.4-5.9-7.1-9.6c-1.7-3.8-2.5-8-2.5-12.7c0-4.8,0.8-9.1,2.5-12.8c1.7-3.8,4-7,7.1-9.6
			c3-2.7,6.6-4.7,10.8-6.1c4.2-1.4,8.7-2.1,13.6-2.1c4.9,0,9.5,0.7,13.6,2.1c4.2,1.4,7.7,3.4,10.8,6.1c3,2.7,5.4,5.9,7.1,9.6
			c1.7,3.8,2.5,8.1,2.5,12.8C566.9,363,566.1,367.2,564.4,371z M542.7,346.2c-2.2-3-5.5-4.5-9.8-4.5s-7.5,1.5-9.8,4.5
			c-2.2,3-3.4,7-3.4,11.9c0,5.2,1.2,9.3,3.5,12.2c2.4,2.9,5.6,4.3,9.6,4.3c4,0,7.2-1.4,9.6-4.3c2.4-2.9,3.5-6.9,3.5-12.2
			C546,353.2,544.9,349.2,542.7,346.2z"/>
		<path class="st2" d="M618.4,345.1c-0.8-0.3-1.9-0.5-3.1-0.6c-1.2-0.1-2.6-0.1-4-0.1c-2.5,0-4.6,0.5-6.5,1.5
			c-1.8,1-3.3,2.3-4.5,3.9c-1.2,1.6-2.1,3.5-2.6,5.7c-0.6,2.2-0.8,4.5-0.8,6.8v25.1h-20.2V329h18.4v10.8h0.2c1.9-4,4.2-7.1,6.9-9.1
			c2.7-2,6.2-3,10.4-3c0.8,0,1.9,0.1,3.1,0.2c1.3,0.1,2.5,0.3,3.7,0.5L618.4,345.1z"/>
		<path class="st2" d="M628.8,319.4v-14.8H649v14.8H628.8z M628.8,387.4V329H649v58.4H628.8z"/>
		<path class="st2" d="M698.9,388.5c-1.9,0.2-3.9,0.3-6.1,0.3c-7.9,0-13.6-1.6-17.2-4.9c-3.5-3.3-5.3-8.6-5.3-16.1v-24.7h-11.6V329
			h11.6v-13.1l20.2-6.2V329h14.1v14.1h-14.1V365c0,3.6,0.6,6.2,1.7,7.9c1.2,1.6,3.3,2.5,6.5,2.5c0.7,0,1.6-0.1,2.6-0.2
			c1.1-0.1,2.2-0.3,3.4-0.6l0.7,13.1C703,388,700.8,388.3,698.9,388.5z"/>
		<path class="st2" d="M731.4,364.1c0.6,4,2.3,6.8,5.2,8.6c2.8,1.8,6.9,2.6,12.1,2.6c2.5,0,5.4-0.3,8.5-1s6.2-1.8,9.2-3.5v14.2
			c-3.2,1.3-6.7,2.2-10.3,2.8c-3.7,0.6-7.4,0.9-11.1,0.9c-4.9,0-9.4-0.7-13.5-2.1c-4.2-1.4-7.7-3.4-10.8-6c-3-2.6-5.4-5.8-7.1-9.6
			c-1.7-3.8-2.6-8.1-2.6-12.8c0-4.6,0.7-8.7,2.1-12.5c1.4-3.7,3.5-7,6.2-9.6s6-4.8,9.9-6.3c3.9-1.5,8.3-2.2,13.2-2.2
			c5.4,0,9.9,0.9,13.7,2.7c3.7,1.8,6.8,4.2,9.1,7.2c2.3,3,4,6.5,5,10.4c1,3.9,1.6,8.1,1.6,12.4v3.7H731.4z M750.9,343.8
			c-1.8-2.3-4.6-3.4-8.5-3.4c-3.6,0-6.3,1.1-8.1,3.4c-1.8,2.3-2.8,5.2-3.1,8.8h22.4C753.6,349,752.7,346.1,750.9,343.8z"/>
	</g>
</g>
</svg>
