<?xml version="1.0" encoding="utf-8"?>
<!-- Generator: Adobe Illustrator 24.1.0, SVG Export Plug-In . SVG Version: 6.00 Build 0)  -->
<svg version="1.1" id="Layer_1" xmlns="http://www.w3.org/2000/svg" xmlns:xlink="http://www.w3.org/1999/xlink" x="0px" y="0px"
	 viewBox="0 0 500 500" style="enable-background:new 0 0 500 500;" xml:space="preserve">
<style type="text/css">
	.st0{fill:#FFD31D;stroke:#FFD31D;stroke-miterlimit:10;}
	.st1{fill:#75CAF0;stroke:#75CAF0;stroke-miterlimit:10;}
	.st2{fill:#28A1D1;stroke:#28A1D1;stroke-miterlimit:10;}
	.st3{opacity:2.000000e-02;fill:#FFFAD2;}
	.st4{fill:#00628D;}
	.st5{fill:#2190C7;}
	.st6{fill:#5EC4E8;}
	.st7{opacity:0.53;fill:none;stroke:#C4FFFF;stroke-width:12.352;stroke-linecap:round;stroke-miterlimit:10;}
	.st8{opacity:0.12;fill:#00A3FF;}
</style>
<g>
	<path class="st0" d="M31.2,318.6c-1.6-0.6-2.4-2-2.4-4.3c0-1.8,3.6-3.5,10.9-5.2c7.3-1.7,13.7-2.5,19.1-2.5c6,0,10.8,1.2,14.3,3.7
		c3.5,2.5,5.3,5.8,5.3,9.9c0,6.1-3.4,11.6-10.1,16.4c-6.7,4.8-15.8,8.4-27.2,10.6c-3,0.6-4.7,1.1-5.1,1.5c-0.4,0.4-0.7,2.9-0.9,7.4
		s-0.3,7.6-0.3,9.4c0,1.2-0.4,2.4-1.2,3.4s-1.7,1.5-2.8,1.5c-2.4,0-3.6-1.6-3.6-4.9c0-1.8,0.5-6.8,1.5-15l2.9-24.5
		c0.1-0.4,0.1-1.6,0.1-3.6C31.8,320.4,31.6,319.2,31.2,318.6z M39.8,316.3c-0.2,0.8-0.4,2.3-0.6,4.4c-0.4,3.8-0.9,8.1-1.4,12.7
		c-0.3,2.4-0.6,5.1-0.9,7.9c9.1-1.2,17.1-3.8,24.2-7.6c7-3.8,10.6-8,10.6-12.6c0-5.6-4.4-8.4-13.1-8.4
		C52.8,312.6,46.6,313.9,39.8,316.3z"/>
	<path class="st0" d="M91.2,355.3c10.3-19,18.7-28.4,25.4-28.4c1.8,0,3.2,1,4.3,3c1.1,2,2,6.5,2.7,13.4c0.7,7.4,2.2,12.7,4.7,16
		c1.2,1.7,1.9,2.9,1.9,3.7c0,0.7-0.4,1.4-1.2,2c-0.8,0.6-1.7,0.9-2.6,0.9c-2.2,0-4.1-1.2-5.7-3.6s-2.7-6.7-3.2-12.7
		c-0.5-5.7-1-9.5-1.5-11.3c-0.5-1.8-1.4-2.6-2.6-2.6c-2.9,0-8.7,7.6-17.5,22.7c-2.6,4.5-4.6,7.5-5.8,8.9c-1.2,1.4-2.4,2.1-3.4,2.1
		c-1.2,0-2.2-0.4-3.1-1.1s-1.2-1.6-1.2-2.6c0-0.8,0.2-2.3,0.7-4.5c3.4-17.5,6.1-34.8,8-52c0.4-4,1.2-6.7,2.1-8c1-1.3,1.8-2,2.5-2
		c1.2,0,2.3,0.5,3.2,1.4c1,1,1.4,2.3,1.4,4c0,5.1-1.2,12-3.7,20.9c-1.2,4.4-2.5,10-3.8,16.7c-1.4,6.8-2,10.9-2,12.5
		c0,0.3,0.2,0.5,0.5,0.5H91.2z"/>
	<path class="st0" d="M165.3,352.7c-3.9,5.2-7.7,9.1-11.5,11.7c-3.8,2.6-7.2,3.9-10.4,3.9c-2.1,0-4-0.9-5.5-2.7
		c-1.5-1.8-2.3-4.1-2.3-6.9c0-7.3,3.2-15.1,9.7-23.4c6.5-8.4,12.9-12.6,19.3-12.6c2.3,0,4,1.3,5.2,4c0.4,0.9,0.9,1.3,1.7,1.3
		c2.2,0,3.3,0.9,3.3,2.6c0,0.9-0.1,2-0.4,3.5c-1.5,8.1-2.2,13.9-2.2,17.2c0,6.7,1.3,10.7,3.8,12c1.2,0.7,1.8,1.5,1.8,2.4
		c0,0.9-0.6,1.7-1.8,2.6s-2.3,1.3-3.4,1.3c-2.1,0-3.9-1.5-5.3-4.4C166,362.3,165.3,358.1,165.3,352.7z M162.8,329.4
		c-3.6,0-7.9,3.4-12.7,10.2c-4.8,6.8-7.2,12.5-7.2,17c0,3.2,1,4.8,3.1,4.8c3,0,7.2-3.1,12.6-9.2c5.4-6.1,8.1-11.8,8.1-16.9
		C166.7,331.4,165.4,329.4,162.8,329.4z"/>
	<path class="st0" d="M195.5,351.3c0.3-0.5,0.6-1.2,1-2.1c1.9-4.3,3.6-7.7,5.2-10.1c1.6-2.4,3.3-4.8,5.2-7c1.9-2.2,3.6-3.9,5.2-5.1
		c1.6-1.2,3-2,4.2-2.4c1.3-0.5,2.5-0.7,3.7-0.7c2.4,0,4.4,0.7,5.9,2.2c1.5,1.4,2.3,3.1,2.3,5.1c0,0.9-0.3,1.6-0.8,2.3
		c-0.5,0.7-1.4,1-2.5,1c-1.2,0-2.2-0.5-3.2-1.5c-1-1-2-1.5-3.1-1.5c-2.9,0-6.8,3.5-11.9,10.4c-5.1,7-8.2,14.6-9.3,23
		c-0.3,2.2-0.8,3.6-1.6,4.3c-0.8,0.7-1.9,1-3.3,1c-1.4,0-2.3-1-2.9-3c-0.6-2-0.9-5.4-0.9-10.2c0-1.3,0.1-4.2,0.2-8.6
		c0.2-5.2,0.5-9.4,1-12.6c0.1-0.5,0.2-1.8,0.4-3.7c0.2-2.1,0.4-3.6,0.7-4.4c0.3-0.8,0.9-1.6,1.8-2.3c0.9-0.7,1.9-1.1,2.9-1.1
		c1,0,1.8,0.3,2.3,1c0.5,0.6,0.8,1.3,0.8,2.1c0,1.1-0.3,2.6-0.8,4.6c-0.6,2.2-1,3.7-1.1,4.5c-0.1,0.9-0.2,1.9-0.5,2.9
		c-0.3,1.2-0.6,4.3-0.8,9.4l0,1.5V351.3z"/>
	<path class="st0" d="M262.4,335c-2.6,0.1-8.1,7.7-16.5,22.8c-2.8,5.1-4.5,7.9-5,8.3c-0.5,0.5-1.3,0.9-2.6,1.2
		c-1.3,0.4-2.3,0.5-3.1,0.5c-1.8,0-2.8-3.6-2.8-10.8c0-4.1,0.9-11.4,2.6-22c0.7-4.3,1.1-7.4,1.1-9.2c0-1.8,0.8-2.7,2.4-2.7
		c3.1,0,4.6,2.2,4.6,6.6c0,2.1-0.5,6.1-1.5,12.2c-1.2,6.9-1.8,11.1-1.8,12.6c1.7-1.7,4.2-5.3,7.5-10.9c4.7-7.7,8.1-12.5,10.4-14.6
		c2.2-2.1,4.5-3.1,6.9-3.1c1.8,0,3.2,1.2,4.3,3.6s1.7,8.1,1.9,17.2c0.1,2.3,0.3,3.9,0.6,5c0.4,1.1,0.6,1.7,0.8,1.7
		c1.3,0,4.1-4.4,8.4-13.2c2.3-4.7,4.6-8.2,6.8-10.6c2.2-2.4,4.6-3.6,7.3-3.6c2.2,0,3.9,1.2,4.9,3.5c1,2.3,1.8,5.7,2.2,10.2
		c0.4,4.6,1.1,8.8,1.9,12.6c0.9,3.8,2.5,6.2,4.8,7.3c1.6,0.7,2.4,1.6,2.4,2.6c0,1-0.7,2-2,3c-1.3,1-2.5,1.5-3.6,1.5
		c-2.2,0-4.2-1.4-5.9-4.1c-1.7-2.7-3-8.6-3.9-17.5c-0.4-3.6-0.8-6.2-1.1-7.7c-0.4-1.5-0.9-2.3-1.7-2.3c-1.2,0-2.5,1.1-4.1,3.3
		c-1.6,2.2-4.1,6.7-7.7,13.4c-2.8,5.3-4.8,8.8-6.3,10.5c-1.4,1.8-2.8,2.6-4.1,2.6c-1.2,0-2.2-0.5-3.2-1.4s-1.5-2.1-1.8-3.4
		c-0.2-1.3-0.5-4.6-0.8-9.9C264.3,341.5,263.5,336.5,262.4,335z"/>
	<path class="st0" d="M346.2,352.7c-3.9,5.2-7.7,9.1-11.5,11.7c-3.8,2.6-7.2,3.9-10.4,3.9c-2.1,0-4-0.9-5.5-2.7
		c-1.5-1.8-2.3-4.1-2.3-6.9c0-7.3,3.2-15.1,9.7-23.4c6.5-8.4,12.9-12.6,19.3-12.6c2.3,0,4,1.3,5.2,4c0.4,0.9,0.9,1.3,1.7,1.3
		c2.2,0,3.3,0.9,3.3,2.6c0,0.9-0.1,2-0.4,3.5c-1.5,8.1-2.2,13.9-2.2,17.2c0,6.7,1.3,10.7,3.8,12c1.2,0.7,1.8,1.5,1.8,2.4
		c0,0.9-0.6,1.7-1.8,2.6c-1.2,0.9-2.3,1.3-3.4,1.3c-2.1,0-3.9-1.5-5.3-4.4S346.2,358.1,346.2,352.7z M343.6,329.4
		c-3.6,0-7.9,3.4-12.7,10.2c-4.8,6.8-7.2,12.5-7.2,17c0,3.2,1,4.8,3.1,4.8c3,0,7.2-3.1,12.6-9.2c5.4-6.1,8.1-11.8,8.1-16.9
		C347.5,331.4,346.2,329.4,343.6,329.4z"/>
	<path class="st0" d="M379.3,370.1c-4.1,0-7.3-1.2-9.5-3.6c-2.2-2.4-3.3-5.7-3.3-10c0-7.2,2.9-14.8,8.6-22.8c5.7-8,11-12,15.9-12
		c2.2,0,4.2,1.2,5.8,3.6c1.6,2.4,2.4,5,2.4,7.7c0,1.6-0.4,3-1.1,4.2c-0.7,1.2-1.4,1.8-2.1,1.8c-1.6,0-2.7-1.6-3.4-4.8
		c-0.7-3.5-1.8-5.2-3.2-5.2c-2.9,0-6.3,3.4-10.2,10.2c-3.9,6.8-5.9,12.6-5.9,17.3c0,4.7,2.7,7,8,7c4.1,0,8.8-1.9,14.3-5.7
		c1.9-1.4,3.4-2,4.3-2c0.9,0,1.4,0.5,1.4,1.6c0,2.1-2.5,4.7-7.4,7.9C388.9,368.5,384,370.1,379.3,370.1z"/>
	<path class="st0" d="M441.5,353.1c-5.1,4.4-9.5,7.6-13.4,9.6s-6.8,3-8.8,3c-2.7,0-4.8-1.1-6.3-3.4c-1.4-2.3-2.2-4.9-2.2-8
		c0-4.2,0.9-9.5,2.6-15.7c1.7-6.2,3-10,3.8-11.1c0.8-1.2,2.2-1.8,4-1.8c0.8,0,1.4,0.5,1.9,1.4c0.5,0.9,0.7,1.9,0.7,3.1
		c0,0.7-0.3,1.6-1,2.7c-1.5,2.6-2.3,4-2.3,4.3c-0.1,0.3-0.6,1.9-1.6,5c-1,3-1.5,5.9-1.5,8.6c0,0.9,0.2,2.4,0.7,4.4s1.4,3,2.8,3
		c1.5,0,3.4-0.5,5.6-1.4c2.2-0.9,4.7-2.4,7.5-4.5c2.8-2.1,4.7-3.8,5.6-5.1c1-1.3,1.6-2.8,2-4.4c0.4-1.7,0.7-5.2,0.8-10.8
		c0.2-5.5,1.5-8.3,4-8.3c1.5,0,2.5,0.4,2.9,1.2s0.7,2.3,0.7,4.5c0,1.8-0.1,4.1-0.4,6.8c-0.3,3.4-0.5,5.9-0.6,7.4
		c-0.4,7.6-1.4,15.2-3,22.9c-1.6,7.7-3.9,14.1-6.9,19.2c-3,5.1-7.2,7.7-12.5,7.7c-5.4,0-10.2-1.4-14.4-4.2c-4.2-2.8-6.3-5.2-6.3-7.2
		c0-0.9,0.2-1.8,0.6-2.7c0.4-0.9,1-1.3,1.6-1.3c0.3,0,0.7,0.3,1.1,0.8c3.6,5.5,9.3,8.3,17,8.3c4,0,7.4-3.5,10.1-10.5
		c2.7-7,4.2-13.6,4.5-19.8C441.3,355.5,441.4,354.3,441.5,353.1z"/>
	<path class="st0" d="M470.1,359.4c0,2.7-0.7,4.7-2,5.8c-1.4,1.1-2.5,1.7-3.5,1.7c-2,0-3.1-1.3-3.1-4c0-1,0.5-2.3,1.5-3.7
		c1-1.4,2-2.2,3.1-2.2c0.7,0,1.6,0.3,2.6,0.9C469.6,358.5,470.1,359,470.1,359.4z M470.1,347.1c-0.7,0-1.6-0.1-2.9-0.3
		c-1.2-0.2-2-0.5-2.5-0.8c-0.4-3,0.3-8.5,2.1-16.6c1.4-6.6,2.1-11.2,2.1-13.8c0-3.7,0.7-6.2,2-7.5c1.4-1.3,2.5-1.9,3.4-1.9
		c0.7,0,1.4,0.3,2.1,0.9c0.7,0.6,1.1,1.2,1.1,1.9c0,0.6-1.5,7.6-4.6,21c-1.3,5.6-1.9,9.9-2,12.9
		C470.9,344.7,470.6,346.2,470.1,347.1z"/>
</g>
<g>
	<path class="st1" d="M228.3,130.5c0.2-9.7-7.6-17.6-17.2-17.7c-9.7-0.1-17.6,7.7-17.8,17.3c0,0,0,0,0,0l-0.4,22.6l35,0.4
		L228.3,130.5z"/>
	<path class="st2" d="M210,122.5c-0.5-0.5-0.5-1.3,0-1.8c0.2-0.2,0.6-0.4,0.9-0.4c5.5,0.1,9.9,4.6,9.8,10.1c0,0.7-0.6,1.3-1.3,1.3
		c-0.7,0-1.3-0.6-1.3-1.3l0,0c0.1-4.1-3.2-7.4-7.3-7.5C210.6,122.9,210.3,122.8,210,122.5L210,122.5z"/>
	<path class="st0" d="M227.6,175.6L228,153l-35-0.4l-0.4,22.6c-0.2,9.7,7.6,17.6,17.2,17.7c0,0,0,0,0,0
		C219.5,193,227.5,185.3,227.6,175.6z"/>
</g>
<g>
	
		<ellipse transform="matrix(0.9517 -0.3069 0.3069 0.9517 -36.4341 71.5654)" class="st3" cx="209.3" cy="151.6" rx="53.2" ry="53.2"/>
	
		<rect x="252.3" y="196.2" transform="matrix(0.7425 0.6698 -0.6698 0.7425 204.4862 -126.8486)" class="st4" width="29.9" height="12.8"/>
	
		<rect x="260.9" y="196.2" transform="matrix(0.7425 0.6698 -0.6698 0.7425 204.4833 -126.848)" class="st5" width="12.6" height="12.8"/>
	<g>
		<path class="st5" d="M269.5,227.3c-2.7-2.4-2.9-6.6-0.5-9.3l14.8-16.4c2.4-2.7,6.6-2.9,9.3-0.5l54.1,49.2l-23.9,25.8L269.5,227.3z
			"/>
		<path class="st4" d="M332.6,284.7l-9.4-8.4l23.9-25.8l9,8.1c2.7,2.4,2.9,6.6,0.5,9.3l-14.8,16.4
			C339.4,286.9,335.3,287.1,332.6,284.7z"/>
	</g>
	<g>
		<path class="st6" d="M283.8,201.6l-6.6,7.4l58.9,53.4l11.1-12L293,201.1C290.4,198.7,286.2,198.9,283.8,201.6z"/>
		<path class="st5" d="M350,275.1l6.6-7.3c2.4-2.7,2.2-6.9-0.5-9.3l-9-8.1l-11.1,12L350,275.1z"/>
	</g>
	<g>
		<path class="st5" d="M143.1,155c1.9,36.6,33.1,64.7,69.6,62.8c36.6-1.9,64.7-33.1,62.8-69.6c-1.9-36.6-33.1-64.7-69.6-62.8
			C169.4,87.3,141.2,118.5,143.1,155z M262.4,148.9c1.5,29.3-21,54.3-50.4,55.8c-29.3,1.5-54.3-21-55.8-50.4
			c-1.5-29.3,21-54.3,50.4-55.8C235.9,97,260.9,119.6,262.4,148.9z"/>
	</g>
	<path class="st7" d="M167.9,148.8c-1.2-16.8,18.6-44.4,48.1-40.5"/>
	<g>
		<path class="st8" d="M238.1,106.9c13.2,40-8.8,78.3-41.9,96.2c5.1,1.3,10.4,1.9,15.9,1.6c25.6-1.3,46-20.5,49.8-44.8
			c0.6-3.6,0.8-7.3,0.6-11C261.5,131.1,252,115.9,238.1,106.9z"/>
		<path class="st4" d="M262.4,148.9c0.2,3.8,0,7.4-0.6,11c-3.8,24.3-24.2,43.5-49.8,44.8c-5.5,0.3-10.8-0.3-15.9-1.6
			c-5.6,3-11.5,5.4-17.6,7.2c10.2,5.3,21.9,8.1,34.2,7.5c36.6-1.9,64.7-33.1,62.8-69.6c-1.5-28.4-20.6-51.7-46.2-59.8
			c3.8,6.2,6.7,12.3,8.7,18.5C252,115.9,261.5,131.1,262.4,148.9z"/>
	</g>
	<path class="st6" d="M151.8,154.5c1.6,31.8,28.7,56.2,60.5,54.6c31.8-1.6,56.2-28.7,54.6-60.5c-1.6-31.8-28.7-56.2-60.5-54.6
		C174.6,95.7,150.2,122.8,151.8,154.5z M262.4,148.8c1.5,29.3-21,54.3-50.4,55.8c-29.3,1.5-54.3-21-55.8-50.4
		c-1.5-29.3,21-54.3,50.4-55.8C235.9,97,260.9,119.5,262.4,148.8z"/>
</g>
<g>
</g>
<g>
</g>
<g>
</g>
<g>
</g>
<g>
</g>
<g>
</g>
<g>
</g>
<g>
</g>
<g>
</g>
<g>
</g>
<g>
</g>
<g>
</g>
<g>
</g>
<g>
</g>
<g>
</g>
</svg>
