<?xml version="1.0" encoding="utf-8"?>
<!-- Generator: Adobe Illustrator 24.1.0, SVG Export Plug-In . SVG Version: 6.00 Build 0)  -->
<svg version="1.1" id="Layer_1" xmlns="http://www.w3.org/2000/svg" xmlns:xlink="http://www.w3.org/1999/xlink" x="0px" y="0px"
	 viewBox="0 0 500 500" style="enable-background:new 0 0 500 500;" xml:space="preserve">
<style type="text/css">
	.st0{fill:#6A097D;stroke:#6A097D;stroke-miterlimit:10;}
	.st1{fill:#75CAF0;stroke:#75CAF0;stroke-miterlimit:10;}
	.st2{fill:#6A097D;}
	.st3{fill:#0688C9;stroke:#0688C9;stroke-miterlimit:10;}
	.st4{opacity:2.000000e-02;fill:#FFFAD2;}
	.st5{fill:#00628D;}
	.st6{fill:#2190C7;}
	.st7{fill:#5EC4E8;}
	.st8{opacity:0.53;fill:none;stroke:#C4FFFF;stroke-width:12.352;stroke-linecap:round;stroke-miterlimit:10;}
	.st9{opacity:0.12;fill:#00A3FF;}
</style>
<g>
	<path class="st0" d="M127,357c-6.3,5.4-10.4,10.8-12.4,16.3c-0.8,1.8-1.6,3.2-2.4,4.1c-3.3-0.2-4.9-1.7-4.9-4.6
		c0-4.2,4.7-10.6,14.1-19.2l2-1.9c-5.5-8.2-8.2-14.5-8.2-18.9c0-3.9,1.7-5.9,5-5.9c0.9,0,1.6,0.4,2,1.2c0.4,0.8,0.8,2.6,1,5.4
		c0.4,4.4,2.2,9,5.7,13.9c7.6-6.5,12.8-12.4,15.4-17.6c0.9-1.7,1.6-2.7,2.1-3.1c0.5-0.4,1.2-0.7,2-0.7c1,0,1.9,0.4,2.8,1.2
		c0.9,0.8,1.3,1.7,1.3,2.9c0,2.8-6.7,10.3-20.1,22.6c4.6,5.9,9.5,10.3,14.7,13.3c0.6,0.4,1.2,0.7,1.8,1.1c0.1,0.2,0.2,0.6,0.2,1.2
		c0,1.2-0.4,2.2-1.3,3.2c-0.9,0.9-1.9,1.4-3.1,1.4C140.9,373,135,367.6,127,357z"/>
	<path class="st0" d="M179.5,345.5h3c5.1,0,8.9-0.2,11.4-0.5c1.2-0.2,2.4-0.2,3.6-0.2c0.5,0,1.6,0.3,3.2,0.9
		c1.6,0.6,2.6,1.2,2.9,1.6c0.3,0.4,0.5,1,0.5,1.7c0,1-0.2,1.7-0.6,2.1s-1.3,0.6-2.7,0.6c-0.6,0-1.5-0.2-2.6-0.5
		c-1.1-0.4-2-0.5-2.8-0.5c-0.3,0-1.3,0.1-3,0.2c-0.9,0.1-2.6,0-5-0.2c-1.8-0.2-3.2-0.2-4.1-0.2c-1.3,0-3.2,0.1-5.7,0.2
		c-2.6,0.2-4.5,0.2-5.8,0.2c-1.3,0-2.4-0.1-3.2-0.4c-0.8-0.3-1.2-0.9-1.2-2c0-0.4,0.2-1,0.6-1.5s1.6-1.1,3.8-1.4
		c2.1-0.3,3.7-0.5,4.6-0.5L179.5,345.5z"/>
	<path class="st0" d="M225.2,314c8.1-1.3,14-2,17.7-2c5.8,0,10.4,1.4,13.9,4.1s5.2,6.2,5.2,10.4c0,4.2-1.8,8.1-5.5,11.7
		c-3.7,3.7-8.3,6.6-13.8,8.6c-0.7,0.3-1,0.6-1,0.9c0,0.5,2.8,2.9,8.5,7.3c5.7,4.4,10.9,8.1,15.7,11c1.3,0.8,2,1.9,2,3.3
		c0,0.9-0.5,1.8-1.4,2.6c-0.9,0.9-1.8,1.3-2.6,1.3c-1.6,0-4.2-1.3-7.8-4c-3.6-2.7-7.3-5.7-11.1-8.9c-8.3-7-12.9-10.5-13.9-10.5
		c-1.9-0.1-3.2-0.3-4-0.8c-0.8-0.5-1.2-1.3-1.2-2.5c0-1,0.5-2,1.5-2.7c1-0.8,2.2-1.2,3.5-1.2c0.5,0,1.2,0.1,2.2,0.2
		c1,0.2,1.8,0.2,2.3,0.2c2.2,0,6-1.6,11.3-4.9c5.3-3.3,8-7.1,8-11.6c0-2.3-1.2-4.3-3.6-6c-2.4-1.7-5.4-2.5-9.1-2.5
		c-2.8,0-5.5,0.2-8.3,0.6c-2.8,0.4-4.5,0.7-5.3,1c-0.8,0.3-1.4,1-1.8,2.1c-0.5,1.1-1.3,4.8-2.4,10.9c-1.1,6.1-2,11.9-2.6,17.4
		c-0.6,5.4-0.9,9.5-0.9,12c0,2,0.1,3.7,0.4,5.2c0.2,1.5,0.4,2.6,0.4,3.5c0,0.8-0.4,1.7-1.3,2.6c-0.9,0.9-1.8,1.3-2.8,1.3
		c-2.9,0-4.3-2.3-4.3-7c0-11,1.9-25.7,5.8-44c0.2-1,0.3-1.5,0.3-1.7s-0.1-0.4-0.3-0.7c-1.1-1.7-1.7-2.9-1.7-3.5c0-1,0.5-2,1.5-2.7
		c1-0.8,1.9-1.2,2.8-1.2L225.2,314z"/>
	<path class="st0" d="M303.7,357.3c-3.9,5.2-7.7,9.1-11.4,11.6s-7.2,3.9-10.4,3.9c-2.1,0-3.9-0.9-5.5-2.7c-1.5-1.8-2.3-4.1-2.3-6.9
		c0-7.2,3.2-15,9.7-23.4c6.5-8.4,12.9-12.5,19.3-12.5c2.3,0,4,1.3,5.2,4c0.4,0.9,0.9,1.3,1.7,1.3c2.2,0,3.3,0.9,3.3,2.6
		c0,0.9-0.1,2-0.4,3.5c-1.5,8.1-2.2,13.8-2.2,17.2c0,6.7,1.3,10.7,3.8,12c1.2,0.7,1.8,1.5,1.8,2.4c0,0.9-0.6,1.7-1.8,2.6
		c-1.2,0.9-2.3,1.3-3.4,1.3c-2.1,0-3.9-1.5-5.2-4.4S303.7,362.7,303.7,357.3z M301.1,334.1c-3.6,0-7.9,3.4-12.7,10.2
		s-7.2,12.5-7.2,16.9c0,3.2,1,4.7,3.1,4.7c3,0,7.2-3.1,12.6-9.2c5.4-6.1,8-11.7,8-16.8C305,336,303.7,334.1,301.1,334.1z"/>
	<path class="st0" d="M356,357.8c-5.1,4.4-9.5,7.6-13.4,9.6c-3.8,2-6.8,3-8.8,3c-2.7,0-4.8-1.1-6.3-3.4c-1.4-2.3-2.2-4.9-2.2-7.9
		c0-4.2,0.9-9.5,2.6-15.7c1.7-6.2,3-9.9,3.8-11.1c0.8-1.2,2.2-1.8,4-1.8c0.8,0,1.4,0.5,1.9,1.4s0.7,1.9,0.7,3.1
		c0,0.7-0.3,1.6-0.9,2.7c-1.5,2.6-2.3,4-2.3,4.3c-0.1,0.3-0.6,1.9-1.6,5c-1,3-1.5,5.9-1.5,8.6c0,0.9,0.2,2.4,0.7,4.4s1.4,3,2.8,3
		c1.5,0,3.4-0.5,5.6-1.4c2.2-0.9,4.7-2.4,7.5-4.5c2.8-2.1,4.7-3.8,5.6-5.1c1-1.3,1.6-2.8,2-4.4c0.4-1.7,0.7-5.2,0.8-10.7
		s1.5-8.3,4-8.3c1.5,0,2.4,0.4,2.9,1.2c0.4,0.8,0.7,2.3,0.7,4.5c0,1.8-0.1,4.1-0.4,6.8c-0.3,3.4-0.5,5.9-0.6,7.3
		c-0.4,7.6-1.4,15.2-3,22.8c-1.6,7.6-3.9,14-6.9,19.2c-3,5.1-7.2,7.7-12.5,7.7c-5.4,0-10.2-1.4-14.4-4.2c-4.2-2.8-6.3-5.2-6.3-7.2
		c0-0.9,0.2-1.8,0.6-2.7s1-1.3,1.6-1.3c0.3,0,0.7,0.3,1.1,0.8c3.6,5.5,9.3,8.3,17,8.3c4,0,7.3-3.5,10.1-10.5
		c2.7-7,4.2-13.6,4.5-19.7C355.7,360.1,355.8,359,356,357.8z"/>
	<path class="st0" d="M384.4,364c0,2.7-0.7,4.7-2,5.8c-1.4,1.1-2.5,1.7-3.5,1.7c-2,0-3.1-1.3-3.1-4c0-1,0.5-2.3,1.5-3.7
		c1-1.4,2-2.2,3.1-2.2c0.7,0,1.5,0.3,2.6,0.9C384,363.1,384.5,363.6,384.4,364z M384.4,351.8c-0.7,0-1.6-0.1-2.8-0.3
		c-1.2-0.2-2-0.5-2.5-0.8c-0.4-2.9,0.3-8.5,2.1-16.6c1.4-6.5,2.1-11.1,2.1-13.7c0-3.7,0.7-6.2,2-7.5s2.5-1.9,3.4-1.9
		c0.7,0,1.4,0.3,2.1,0.9c0.7,0.6,1.1,1.2,1.1,1.9c0,0.6-1.5,7.6-4.5,20.9c-1.3,5.6-1.9,9.9-2,12.8
		C385.3,349.4,385,350.8,384.4,351.8z"/>
</g>
<g id="Flat_1_">
	<path class="st1" d="M235.3,191.8h-47.6c-2.6,0-4.8-2.1-4.8-4.8v-59.5c0-2.6,2.1-4.8,4.8-4.8h41.7l10.7,10.7v53.6
		C240.1,189.7,238,191.8,235.3,191.8z"/>
	<g>
		<g>
			<path class="st2" d="M221.1,174l-4.8-4.8H233v-4.8h-17.9v-4.8H233v-4.8h-17.9v-4.8H233l-2.8-4.8h-15.1v-4.8h12.3l-2.8-4.8h-13.1
				h-13.1l-2.8,4.8H208v4.8h-15.1l-2.8,4.8H208v4.8h-17.9v4.8H208v4.8h-17.9v4.8h16.7L202,174h-11.9l2.4,4.8h11.9l3.6-3.6h7.1
				l3.6,3.6h11.9l2.4-4.8H221.1z"/>
			<path class="st2" d="M208,177.5h7.1v3.6H208V177.5z"/>
			<path class="st2" d="M208,183.5h7.1v3.6H208V183.5z"/>
			<path class="st2" d="M208,128.7h7.1v4.8H208V128.7z"/>
			<path class="st2" d="M187.7,127.5h9.5v2.4h-9.5V127.5z"/>
			<path class="st2" d="M187.7,132.3h7.1v2.4h-7.1V132.3z"/>
			<path class="st2" d="M187.7,184.7h2.4v2.4h-2.4V184.7z"/>
			<path class="st2" d="M192.5,184.7h7.1v2.4h-7.1V184.7z"/>
			<path class="st2" d="M233,184.7h2.4v2.4H233V184.7z"/>
			<path class="st2" d="M228.2,184.7h2.4v2.4h-2.4V184.7z"/>
			<path class="st2" d="M223.4,184.7h2.4v2.4h-2.4V184.7z"/>
		</g>
	</g>
	<path class="st1" d="M229.4,122.8v7.1c0,2,1.6,3.6,3.6,3.6h7.1L229.4,122.8z"/>
	<path class="st3" d="M233,133.5h7.1l0,0v3.6l0,0h-3.6C234.6,137.1,233,135.5,233,133.5L233,133.5z"/>
</g>
<g>
	<ellipse transform="matrix(0.9517 -0.3069 0.3069 0.9517 -38.1043 72.3701)" class="st4" cx="211.1" cy="157.3" rx="53" ry="53"/>
	
		<rect x="253.9" y="201.8" transform="matrix(0.7425 0.6698 -0.6698 0.7425 208.6391 -126.4704)" class="st5" width="29.8" height="12.8"/>
	
		<rect x="262.5" y="201.8" transform="matrix(0.7425 0.6698 -0.6698 0.7425 208.6362 -126.4698)" class="st6" width="12.6" height="12.8"/>
	<g>
		<path class="st6" d="M271,232.8c-2.7-2.4-2.9-6.6-0.5-9.3l14.7-16.3c2.4-2.7,6.6-2.9,9.3-0.5l54,49.1l-23.9,25.8L271,232.8z"/>
		<path class="st5" d="M334,290.1l-9.3-8.4l23.9-25.8l9,8.1c2.7,2.4,2.9,6.6,0.5,9.3l-14.7,16.3C340.9,292.3,336.7,292.5,334,290.1z
			"/>
	</g>
	<g>
		<path class="st7" d="M285.3,207.2l-6.6,7.3l58.7,53.3l11.1-12l-54-49.1C291.9,204.3,287.7,204.5,285.3,207.2z"/>
		<path class="st6" d="M351.4,280.5l6.6-7.3c2.4-2.7,2.2-6.8-0.5-9.3l-9-8.1l-11.1,12L351.4,280.5z"/>
	</g>
	<g>
		<path class="st6" d="M145,160.7c1.9,36.5,33,64.5,69.5,62.7c36.5-1.9,64.5-33,62.7-69.5c-1.9-36.5-33-64.5-69.5-62.7
			C171.2,93.2,143.1,124.3,145,160.7z M264,154.6c1.5,29.3-21,54.2-50.2,55.7c-29.3,1.5-54.2-21-55.7-50.2
			c-1.5-29.3,21-54.2,50.2-55.7C237.6,102.9,262.5,125.4,264,154.6z"/>
	</g>
	<path class="st8" d="M169.8,154.5c-1.2-16.7,18.6-44.3,48-40.4"/>
	<g>
		<path class="st9" d="M239.7,112.7c13.2,39.9-8.7,78.1-41.8,96c5.1,1.3,10.4,1.9,15.9,1.6c25.5-1.3,45.9-20.4,49.7-44.7
			c0.6-3.6,0.8-7.2,0.6-11C263.1,136.9,253.6,121.7,239.7,112.7z"/>
		<path class="st5" d="M264,154.6c0.2,3.7,0,7.4-0.6,11c-3.8,24.3-24.2,43.4-49.7,44.7c-5.5,0.3-10.8-0.3-15.9-1.6
			c-5.6,3-11.4,5.4-17.5,7.2c10.1,5.3,21.8,8.1,34.1,7.5c36.5-1.9,64.5-33,62.7-69.5c-1.5-28.3-20.5-51.6-46.1-59.7
			c3.8,6.1,6.6,12.3,8.7,18.4C253.6,121.7,263.1,136.9,264,154.6z"/>
	</g>
	<path class="st7" d="M153.7,160.2c1.6,31.7,28.7,56.1,60.4,54.5c31.7-1.6,56.1-28.7,54.5-60.4c-1.6-31.7-28.7-56.1-60.4-54.5
		C176.4,101.5,152,128.5,153.7,160.2z M264,154.6c1.5,29.3-21,54.2-50.2,55.7c-29.3,1.5-54.2-21-55.7-50.2
		c-1.5-29.3,21-54.2,50.2-55.7C237.6,102.8,262.5,125.3,264,154.6z"/>
</g>
<g>
</g>
<g>
</g>
<g>
</g>
<g>
</g>
<g>
</g>
<g>
</g>
<g>
</g>
<g>
</g>
<g>
</g>
<g>
</g>
<g>
</g>
<g>
</g>
<g>
</g>
<g>
</g>
<g>
</g>
</svg>
