<?xml version="1.0" encoding="utf-8"?>
<!-- Generator: Adobe Illustrator 24.1.0, SVG Export Plug-In . SVG Version: 6.00 Build 0)  -->
<svg version="1.1" id="Layer_1" xmlns="http://www.w3.org/2000/svg" xmlns:xlink="http://www.w3.org/1999/xlink" x="0px" y="0px"
	 viewBox="0 0 500 500" style="enable-background:new 0 0 500 500;" xml:space="preserve">
<style type="text/css">
	.st0{fill:#B4D234;stroke:#B4D234;stroke-miterlimit:10;}
	.st1{fill:#75CAF0;stroke:#75CAF0;stroke-miterlimit:10;}
	.st2{opacity:2.000000e-02;fill:#FFFAD2;}
	.st3{fill:#00628D;}
	.st4{fill:#2190C7;}
	.st5{fill:#5EC4E8;}
	.st6{opacity:0.53;fill:none;stroke:#C4FFFF;stroke-width:12.352;stroke-linecap:round;stroke-miterlimit:10;}
	.st7{opacity:0.12;fill:#00A3FF;}
</style>
<g>
	<g>
		<path class="st0" d="M111.9,326.7c0-1.1-0.6-1.8-1.9-2.2c-2.3-0.6-3.5-1.6-3.5-3c0-1.1,0.5-2.1,1.4-3.1c0.9-1,1.9-1.5,2.9-1.5
			l5.9,0.2c2.8,0,6.4-0.2,10.9-0.6c4.5-0.4,7.8-0.6,10.1-0.6c7.8,0,14,2.2,18.7,6.7c4.7,4.5,7.1,10.3,7.1,17.6
			c0,8-3.4,15.3-10.1,21.8c-6.7,6.6-16.4,11.4-28.8,14.4c-4.9,1.2-8.3,2.4-10,3.6c-2.3,1.6-4.2,2.4-5.7,2.4c-1.1,0-2-0.6-2.9-1.7
			c-0.8-1.2-1.2-2.1-1.2-2.8c0-0.3,0.3-1,0.8-2.2c0.6-1.3,1-2.6,1.2-3.9s0.4-3.7,0.6-7.1c0.1-3.4,0.7-8.8,1.5-16.4
			c0.9-7.5,1.6-12.9,2.2-16C111.7,329.6,111.9,327.7,111.9,326.7z M119.6,323.8c-3.4,20.5-5,34.9-5,43.3c0,1.9,0.2,3.3,0.5,4.2
			c0.2,0.2,0.7,0.3,1.3,0.3c1.8,0,6.5-1.2,14.1-3.6c7.6-2.4,13.8-6.1,18.6-11.1c4.8-5,7.1-10.7,7.1-17.1c0-5.3-1.8-9.5-5.5-12.7
			c-3.7-3.2-8.5-4.7-14.5-4.7c-3.7,0-8.1,0.3-13.2,1C121.8,323.6,120.7,323.7,119.6,323.8z"/>
		<path class="st0" d="M184.7,380.6c-3.9,0-7-1.5-9.5-4.5c-2.5-3-3.8-6.7-3.8-11c0-7.4,2.4-14.7,7.3-21.8
			c4.9-7.2,10.7-10.8,17.5-10.8c4.5,0,8.2,1.8,11,5.3c2.8,3.5,4.2,7.7,4.2,12.6c0,7.4-2.9,14.3-8.7,20.7
			C196.9,377.4,190.9,380.6,184.7,380.6z M178.8,364c0,2.9,0.6,5.3,1.8,7.1c1.2,1.8,2.8,2.7,4.8,2.7c4.2,0,8.4-2.3,12.6-7
			c4.2-4.7,6.3-9.9,6.3-15.6c0-3.5-0.8-6.4-2.4-8.6c-1.6-2.2-3.8-3.3-6.5-3.3c-4.5,0-8.4,2.8-11.7,8.5S178.8,358.9,178.8,364z"/>
		<path class="st0" d="M232.8,380.9c-4.2,0-7.5-1.2-9.7-3.7c-2.3-2.5-3.4-5.9-3.4-10.3c0-7.5,2.9-15.3,8.7-23.6
			c5.8-8.3,11.2-12.4,16.3-12.4c2.3,0,4.2,1.3,5.9,3.8c1.6,2.5,2.5,5.2,2.5,8c0,1.7-0.4,3.1-1.1,4.4c-0.7,1.2-1.4,1.8-2.2,1.8
			c-1.6,0-2.8-1.7-3.5-5c-0.8-3.6-1.9-5.4-3.3-5.4c-2.9,0-6.4,3.5-10.4,10.6c-4,7.1-6,13-6,17.9c0,4.9,2.7,7.3,8.2,7.3
			c4.1,0,9-2,14.6-5.9c2-1.4,3.4-2.1,4.4-2.1c1,0,1.4,0.6,1.4,1.7c0,2.2-2.5,4.9-7.6,8.2C242.6,379.3,237.6,380.9,232.8,380.9z"/>
		<path class="st0" d="M282.3,335.2c2.9-0.2,5.6-0.5,8.2-0.8c2.5-0.3,4.6-0.4,6.3-0.4c2.1,0,3.5,0.2,4.1,0.6
			c0.6,0.4,0.8,1.1,0.8,2.1c0,2.3-1.6,3.6-4.8,3.8c-4.1,0.3-7.8,0.6-11.3,1.1c-3.4,0.5-5.3,0.8-5.6,1.1c-0.3,0.3-1.1,3.7-2.6,10.2
			c-1.4,6.5-2.2,10.7-2.2,12.7c0,3.1,0.4,5.2,1.2,6.3c0.8,1,2,1.6,3.7,1.6c2.4,0,5.8-1.8,10.1-5.5c1.7-1.5,2.9-2.3,3.8-2.3
			c1.2,0,1.8,0.7,1.8,2c0,2.1-2,4.7-5.8,8c-3.9,3.3-7.9,4.9-12,4.9c-6.8,0-10.2-4.1-10.2-12.2c0-2.9,0.7-7.5,2.1-13.7
			c1.4-6.2,2.1-9.8,2.1-11.1c0-0.4-0.3-0.6-1-0.6l-4.4,0.4c-3.6,0-5.4-1.5-5.4-4.4c0-1.7,0.8-2.5,2.5-2.5h8.7c0.6,0,1.1-0.3,1.6-0.8
			c0.5-0.5,1.1-2.4,2-5.5s1.6-6.2,2.3-9.2c0.7-3,2-4.5,4-4.5c1.2,0,2.2,0.4,2.8,1.3s1,1.7,1,2.4c0,0.4-0.5,2.4-1.5,6.1L282.3,335.2z
			"/>
		<path class="st0" d="M318,380.6c-3.9,0-7-1.5-9.5-4.5s-3.8-6.7-3.8-11c0-7.4,2.4-14.7,7.3-21.8c4.9-7.2,10.7-10.8,17.5-10.8
			c4.5,0,8.2,1.8,11,5.3c2.8,3.5,4.2,7.7,4.2,12.6c0,7.4-2.9,14.3-8.7,20.7C330.2,377.4,324.2,380.6,318,380.6z M312.1,364
			c0,2.9,0.6,5.3,1.8,7.1c1.2,1.8,2.8,2.7,4.8,2.7c4.2,0,8.4-2.3,12.6-7c4.2-4.7,6.3-9.9,6.3-15.6c0-3.5-0.8-6.4-2.4-8.6
			s-3.8-3.3-6.5-3.3c-4.5,0-8.4,2.8-11.7,8.5S312.1,358.9,312.1,364z"/>
		<path class="st0" d="M363.1,361.4c0.3-0.5,0.6-1.2,1-2.1c1.9-4.5,3.7-8,5.3-10.5c1.6-2.5,3.4-5,5.3-7.3c1.9-2.3,3.7-4.1,5.3-5.3
			c1.6-1.2,3-2,4.3-2.5c1.3-0.5,2.5-0.7,3.8-0.7c2.4,0,4.4,0.8,6,2.3c1.5,1.5,2.3,3.3,2.3,5.3c0,0.9-0.3,1.7-0.8,2.4
			c-0.5,0.7-1.4,1.1-2.5,1.1c-1.2,0-2.3-0.5-3.3-1.6c-1-1.1-2.1-1.6-3.2-1.6c-2.9,0-7,3.6-12.2,10.8c-5.2,7.2-8.3,15.2-9.5,23.8
			c-0.3,2.2-0.8,3.7-1.6,4.4c-0.8,0.7-1.9,1.1-3.3,1.1c-1.4,0-2.4-1-3-3.1s-0.9-5.6-0.9-10.6c0-1.3,0.1-4.3,0.2-8.9
			c0.2-5.4,0.5-9.8,1-13.1c0.1-0.5,0.2-1.8,0.4-3.8c0.2-2.2,0.4-3.7,0.7-4.6c0.3-0.9,0.9-1.7,1.8-2.4s1.9-1.1,3-1.1
			c1,0,1.8,0.3,2.3,1c0.5,0.7,0.8,1.4,0.8,2.2c0,1.1-0.3,2.7-0.8,4.7c-0.6,2.3-1,3.8-1.1,4.7c-0.1,1-0.2,2-0.5,3
			c-0.3,1.2-0.6,4.5-0.8,9.7l0,1.6V361.4z"/>
		<path class="st0" d="M407.8,369.8c0,2.8-0.7,4.8-2.1,6c-1.4,1.2-2.6,1.8-3.6,1.8c-2.1,0-3.1-1.4-3.1-4.2c0-1.1,0.5-2.4,1.5-3.9
			s2.1-2.3,3.1-2.3c0.7,0,1.6,0.3,2.6,0.9C407.3,368.9,407.9,369.4,407.8,369.8z M407.8,357.1c-0.7,0-1.7-0.1-2.9-0.3
			c-1.2-0.2-2.1-0.5-2.5-0.9c-0.4-3.1,0.3-8.8,2.1-17.3c1.4-6.8,2.2-11.6,2.2-14.3c0-3.8,0.7-6.4,2.1-7.8c1.4-1.3,2.5-2,3.5-2
			c0.7,0,1.4,0.3,2.2,0.9c0.7,0.6,1.1,1.3,1.1,2c0,0.6-1.5,7.9-4.6,21.8c-1.3,5.8-2,10.3-2,13.4
			C408.7,354.6,408.4,356.1,407.8,357.1z"/>
	</g>
</g>
<path class="st0" d="M244.2,146.4c-7,0-12.7,5.7-12.7,12.8c0,5.9,3.9,11,9.5,12.5v3.7c0,8.9-7.1,16.1-15.9,16.1
	c-8.8,0-15.9-7.2-15.9-16.1c0.1-2,0.4-3.9,0.8-5.7c-2.6,0.1-5.3,0.2-7.9,0.3c0.4,1.8,0.7,3.6,0.7,5.5c0,12.5,9.9,22.6,22.2,22.6
	c12.3,0,22.2-10.1,22.2-22.6v-3.7c5.6-1.5,9.5-6.6,9.5-12.4C256.8,152.1,251.2,146.4,244.2,146.4z M244,165.7
	c-3.5,0-6.3-2.9-6.3-6.4s2.8-6.4,6.3-6.4s6.3,2.9,6.3,6.4S247.5,165.7,244,165.7z"/>
<path class="st1" d="M218.8,155.2h-0.4c6.1-4.1,9.9-11,10-18.4v-13c0-5.3-4.3-9.7-9.5-9.7c0,0-0.1,0-0.1,0H214
	c-1.7,0-3.2,1.4-3.2,3.2c0,1.8,1.4,3.2,3.2,3.2h4.7c1.7,0,3.2,1.4,3.2,3.2v13c0,8.9-7,16-15.7,16.1v2.3v-2.3
	c-8.7,0-15.9-7.1-15.9-16c0,0,0-0.1,0-0.1v-13c0-1.8,1.4-3.2,3.2-3.2h4.4c1.7,0,3.2-1.4,3.2-3.2c0-1.8-1.4-3.2-3.2-3.2h-4.4
	c-5.2,0.1-9.3,4.4-9.3,9.7v13c0,7.3,3.5,14.2,9.4,18.4c4.3,3.9,7.3,9.1,8.7,14.7c2.6-0.1,5.3-0.1,7.9-0.3
	C211.5,164.1,214.5,159,218.8,155.2z"/>
<g>
	<ellipse class="st2" cx="216.9" cy="151.4" rx="54.8" ry="55.7"/>
	<polygon class="st3" points="292.4,210.2 269.5,189.3 260.7,199.3 283.5,220.2 	"/>
	<polygon class="st4" points="285.8,204.2 276.1,195.4 267.3,205.3 276.9,214.2 	"/>
	<g>
		<path class="st4" d="M278.8,230.7c-2.8-2.5-3-6.9-0.5-9.7l15.2-17.2c2.5-2.8,6.8-3,9.6-0.5l55.7,51.6l-24.7,27.1L278.8,230.7z"/>
		<path class="st3" d="M343.9,290.7l-9.6-8.8l24.7-27.1l9.3,8.5c2.8,2.5,3,6.9,0.5,9.7l-15.2,17.2
			C350.9,293.1,346.6,293.3,343.9,290.7z"/>
	</g>
	<g>
		<path class="st5" d="M293.6,203.8l-6.8,7.7l60.7,55.9l11.5-12.6l-55.7-51.6C300.4,200.7,296.1,201,293.6,203.8z"/>
		<path class="st4" d="M361.8,280.8l6.8-7.7c2.5-2.8,2.3-7.2-0.5-9.7l-9.3-8.5l-11.5,12.6L361.8,280.8z"/>
	</g>
	<g>
		<path class="st4" d="M148.7,155c1.9,38.3,34,67.7,71.7,65.8c37.7-2,66.6-34.6,64.7-72.9c-1.9-38.3-34-67.7-71.7-65.8
			C175.7,84.1,146.7,116.7,148.7,155z M271.6,148.6c1.6,30.7-21.7,56.9-51.9,58.5c-30.2,1.6-56-22-57.5-52.7
			c-1.6-30.7,21.7-56.9,51.9-58.5C244.3,94.3,270,117.9,271.6,148.6z"/>
	</g>
	<path class="st6" d="M174.2,148.5c-1.2-17.6,19.2-46.5,49.6-42.5"/>
	<g>
		<path class="st7" d="M246.5,104.6c13.6,41.9-9,82-43.2,100.8c5.2,1.4,10.7,1.9,16.4,1.6c26.3-1.4,47.4-21.5,51.3-46.9
			c0.6-3.7,0.8-7.6,0.6-11.5C270.7,130,260.8,114,246.5,104.6z"/>
		<path class="st3" d="M271.6,148.6c0.2,3.9,0,7.8-0.6,11.5c-3.9,25.5-25,45.5-51.3,46.9c-5.7,0.3-11.2-0.3-16.4-1.6
			c-5.7,3.2-11.8,5.7-18.1,7.6c10.5,5.6,22.5,8.5,35.2,7.8c37.7-2,66.6-34.6,64.7-72.9c-1.5-29.7-21.2-54.1-47.6-62.6
			c3.9,6.4,6.9,12.9,9,19.4C260.8,114,270.7,130,271.6,148.6z"/>
	</g>
	<path class="st5" d="M157.6,154.5c1.7,33.3,29.6,58.9,62.3,57.2c32.7-1.7,57.9-30.1,56.2-63.4c-1.7-33.3-29.6-58.9-62.3-57.2
		C181.1,92.8,155.9,121.2,157.6,154.5z M271.6,148.5c1.6,30.7-21.7,56.9-51.9,58.5c-30.2,1.6-56-22-57.5-52.7
		c-1.6-30.7,21.7-56.9,51.9-58.5C244.3,94.2,270,117.8,271.6,148.5z"/>
</g>
<g>
</g>
<g>
</g>
<g>
</g>
<g>
</g>
<g>
</g>
<g>
</g>
<g>
</g>
<g>
</g>
<g>
</g>
<g>
</g>
<g>
</g>
<g>
</g>
<g>
</g>
<g>
</g>
<g>
</g>
</svg>
