<?xml version="1.0" encoding="utf-8"?>
<!-- Generator: Adobe Illustrator 24.1.0, SVG Export Plug-In . SVG Version: 6.00 Build 0)  -->
<svg version="1.1" id="Layer_1" xmlns="http://www.w3.org/2000/svg" xmlns:xlink="http://www.w3.org/1999/xlink" x="0px" y="0px"
	 viewBox="0 0 500 500" style="enable-background:new 0 0 500 500;" xml:space="preserve">
<style type="text/css">
	.st0{fill:#F75632;stroke:#F75632;stroke-miterlimit:10;}
	.st1{fill:#75CAF0;stroke:#75CAF0;stroke-miterlimit:10;}
	.st2{fill:#54B2D3;stroke:#54B2D3;stroke-miterlimit:10;}
	.st3{fill:#F75632;stroke:#E33629;stroke-miterlimit:10;}
	.st4{fill:#E33629;}
	.st5{fill:#54B2D3;stroke:#75CAF0;stroke-miterlimit:10;}
	.st6{fill:#F3F3F3;}
	.st7{opacity:2.000000e-02;fill:#FFFAD2;}
	.st8{fill:#00628D;}
	.st9{fill:#2190C7;}
	.st10{fill:#5EC4E8;}
	.st11{opacity:0.53;fill:none;stroke:#C4FFFF;stroke-width:12.352;stroke-linecap:round;stroke-miterlimit:10;}
	.st12{opacity:0.12;fill:#00A3FF;}
</style>
<g>
	<path class="st0" d="M159.1,360.7c0-0.5,0.4-3.9,1.2-10.1s1.6-13.3,2.4-21.5c0.7-8.2,1.2-12.7,1.4-13.7c0.2-1,0.6-1.7,1.3-2.4
		c0.7-0.6,1.7-0.9,3.2-0.9c0.9,0,1.7,0.4,2.4,1.2c0.7,0.8,1.1,1.6,1.1,2.5c0,1.2-0.2,3.1-0.7,5.8c-0.7,3.7-1.8,11.1-3.1,22.3
		c-1.4,11.2-2,17.5-2,19c0,1,0.1,1.6,0.4,2s0.8,0.5,1.6,0.5c1.3,0,4.3-0.4,9.2-1.2c3-0.5,8.6-0.9,16.8-1.4c1.5-0.1,3.3-0.4,5.5-0.9
		c0.4-0.1,0.7-0.2,0.9-0.2c1,0,1.9,0.3,2.5,1c0.6,0.7,0.9,1.5,0.9,2.5c0,1.6-0.6,2.8-1.8,3.7c-1.2,0.9-2.6,1.4-4,1.4
		c-0.6,0-1.7-0.1-3.4-0.2c-1.7-0.1-3-0.2-3.9-0.2c-9,0-17.6,1.4-25.9,4.2c-1.4,0.5-2.7,0.7-3.8,0.7c-1.2,0-2.2-0.5-2.9-1.6
		c-0.7-1.1-1-2.1-1-3.1c0-0.6,0.3-1.9,0.8-4C158.6,363.6,159,361.8,159.1,360.7z"/>
	<path class="st0" d="M239.3,357.3c-3.8,5.2-7.7,9-11.4,11.6c-3.8,2.6-7.2,3.9-10.3,3.9c-2.1,0-3.9-0.9-5.5-2.7
		c-1.5-1.8-2.3-4.1-2.3-6.9c0-7.2,3.2-15,9.7-23.4c6.5-8.3,12.9-12.5,19.3-12.5c2.3,0,4,1.3,5.2,4c0.4,0.9,0.9,1.3,1.7,1.3
		c2.2,0,3.3,0.9,3.3,2.6c0,0.9-0.1,2-0.4,3.5c-1.5,8.1-2.2,13.8-2.2,17.2c0,6.7,1.3,10.6,3.8,12c1.2,0.7,1.8,1.5,1.8,2.4
		c0,0.9-0.6,1.7-1.8,2.6c-1.2,0.9-2.3,1.3-3.4,1.3c-2.1,0-3.9-1.5-5.2-4.4C240,366.8,239.3,362.7,239.3,357.3z M236.8,334.1
		c-3.6,0-7.8,3.4-12.7,10.2c-4.8,6.8-7.2,12.4-7.2,16.9c0,3.2,1,4.7,3.1,4.7c3,0,7.2-3.1,12.6-9.2c5.4-6.1,8-11.7,8-16.8
		C240.7,336.1,239.4,334.1,236.8,334.1z"/>
	<path class="st0" d="M268.6,348.8c3.5-6.4,7.7-11.6,12.6-15.6c4.9-4,9.3-6,13.2-6c2.2,0,4,1,5.5,3c1.5,2,2.3,4.5,2.3,7.3
		c0,8.5-3.2,16.6-9.7,24.1c-6.4,7.5-13.3,11.2-20.4,11.2c-2,0-3.7-0.5-5.4-1.6c-1.6-1.1-2.5-2.4-2.7-4c-0.1-1.3-0.5-2.3-1.1-2.9
		c-1.2-1.2-1.8-2.4-1.8-3.8c0-2.5,0.7-7.8,2.1-16l4.2-24.7c1.5-8.3,2.5-13.4,3.2-15.3c0.7-2,1.4-3.3,2.2-3.9c0.8-0.7,1.8-1,3.1-1
		c1.9,0,2.9,1.7,2.9,5c0,3.2-1.1,7.6-3.2,13.3C273.7,323.5,271.3,333.8,268.6,348.8z M267.7,362.6c1.4,2.7,3.2,4,5.2,4
		c3.1,0,6.4-1.3,9.9-3.9c3.5-2.6,6.5-6.3,9-11c2.5-4.7,3.8-8.7,3.8-11.9c0-1.5-0.3-2.7-0.8-3.8c-0.5-1-1.2-1.6-2-1.6
		c-3.8,0-8.5,3.1-14,9.4C273.4,350.1,269.6,356.3,267.7,362.6z"/>
	<path class="st0" d="M331,362.9c0-1.8-2.2-3.8-6.6-6.1c-5.6-2.9-9.4-5.1-11.3-6.9c-2-1.7-2.9-3.6-2.9-5.8c0-5.5,2.7-10,8.2-13.6
		c5.5-3.6,10-5.4,13.4-5.4c2.2,0,3.8,0.4,4.8,1.2c1,0.8,1.5,2.1,1.5,4c0,0.9-0.4,1.6-1.1,2.2c-0.7,0.6-1.3,0.9-1.7,0.9
		c-0.3,0-0.9-0.2-1.8-0.6c-0.9-0.4-1.5-0.6-1.7-0.6c-1.4,0-4.2,1-8.4,3c-4.2,2-6.3,4.3-6.3,6.8c0,1.5,0.7,2.9,2.2,4.2s4.2,2.8,8,4.6
		c3.1,1.5,5.6,3.1,7.4,4.8s2.8,3.7,2.8,6c0,4.2-2.9,7.5-8.7,9.9s-11.3,3.6-16.6,3.6c-4.5,0-6.7-1.5-6.7-4.5c0-1,0.5-1.8,1.5-2.3
		c1-0.5,2-0.7,3-0.7c0.4,0,1.2,0.1,2.3,0.4c1.1,0.3,1.9,0.4,2.2,0.4c3.1,0,6.3-0.5,9.8-1.5C328,365.6,330.2,364.4,331,362.9z"/>
	<path class="st0" d="M355.1,364c0,2.7-0.7,4.6-2,5.8s-2.5,1.7-3.5,1.7c-2,0-3.1-1.3-3.1-4c0-1,0.5-2.3,1.5-3.7c1-1.4,2-2.2,3.1-2.2
		c0.7,0,1.5,0.3,2.6,0.9C354.6,363.1,355.1,363.6,355.1,364z M355.1,351.8c-0.7,0-1.6-0.1-2.8-0.3c-1.2-0.2-2-0.5-2.5-0.8
		c-0.4-2.9,0.3-8.5,2.1-16.6c1.4-6.5,2.1-11.1,2.1-13.7c0-3.7,0.7-6.2,2-7.5c1.3-1.3,2.5-1.9,3.4-1.9c0.7,0,1.4,0.3,2.1,0.9
		c0.7,0.6,1.1,1.2,1.1,1.9c0,0.6-1.5,7.6-4.5,20.9c-1.3,5.6-1.9,9.9-2,12.8C356,349.4,355.7,350.8,355.1,351.8z"/>
</g>
<g>
	<path class="st1" d="M218.3,188v-76.2h-25V188c0,6.9,5.6,12.5,12.5,12.5S218.3,194.9,218.3,188z"/>
	<path class="st2" d="M212.7,111.8V188c0,5.9-4.1,10.9-9.7,12.2c0.9,0.2,1.8,0.3,2.8,0.3c6.9,0,12.5-5.6,12.5-12.5v-76.2H212.7z"/>
	<path class="st3" d="M193.4,148.8V188c0,6.9,5.6,12.5,12.5,12.5s12.5-5.6,12.5-12.5v-39.2H193.4z"/>
	<path class="st4" d="M212.7,148.8V188c0,5.9-4.1,10.9-9.7,12.2c0.9,0.2,1.8,0.3,2.8,0.3c6.9,0,12.5-5.6,12.5-12.5v-39.2H212.7z"/>
	<path class="st1" d="M218.9,113.8h-26.1c-1.6,0-3-1.3-3-3v0c0-1.6,1.3-3,3-3h26.1c1.6,0,3,1.3,3,3v0
		C221.9,112.5,220.5,113.8,218.9,113.8z"/>
	<path class="st5" d="M218.9,107.9h-5.6c1.6,0,3,1.3,3,3s-1.3,3-3,3h5.6c1.6,0,3-1.3,3-3S220.5,107.9,218.9,107.9z"/>
	<g>
		<path class="st6" d="M199.5,122.7h4.5c0.7,0,1.4-0.6,1.4-1.4c0-0.7-0.6-1.4-1.4-1.4h-4.5c-0.7,0-1.4,0.6-1.4,1.4
			C198.2,122.1,198.8,122.7,199.5,122.7z"/>
		<path class="st6" d="M204,130.9h-4.5c-0.7,0-1.4,0.6-1.4,1.4c0,0.7,0.6,1.4,1.4,1.4h4.5c0.7,0,1.4-0.6,1.4-1.4
			C205.3,131.5,204.7,130.9,204,130.9z"/>
		<path class="st6" d="M204,141.8h-4.5c-0.7,0-1.4,0.6-1.4,1.4s0.6,1.4,1.4,1.4h4.5c0.7,0,1.4-0.6,1.4-1.4S204.7,141.8,204,141.8z"
			/>
		<path class="st6" d="M204,152.7h-4.5c-0.7,0-1.4,0.6-1.4,1.4c0,0.7,0.6,1.4,1.4,1.4h4.5c0.7,0,1.4-0.6,1.4-1.4
			C205.3,153.3,204.7,152.7,204,152.7L204,152.7z"/>
		<path class="st6" d="M204,163.6h-4.5c-0.7,0-1.4,0.6-1.4,1.4c0,0.7,0.6,1.4,1.4,1.4h4.5c0.7,0,1.4-0.6,1.4-1.4
			C205.3,164.2,204.7,163.6,204,163.6z"/>
		<path class="st6" d="M204,174.5h-4.5c-0.7,0-1.4,0.6-1.4,1.4c0,0.7,0.6,1.4,1.4,1.4h4.5c0.7,0,1.4-0.6,1.4-1.4
			C205.3,175.1,204.7,174.5,204,174.5z"/>
		<path class="st6" d="M204,185.4h-4.5c-0.7,0-1.4,0.6-1.4,1.4s0.6,1.4,1.4,1.4h4.5c0.7,0,1.4-0.6,1.4-1.4S204.7,185.4,204,185.4z"
			/>
	</g>
</g>
<g>
	<ellipse transform="matrix(0.9517 -0.3069 0.3069 0.9517 -36.9091 70.5416)" class="st7" cx="205.9" cy="152.6" rx="54" ry="54"/>
	
		<rect x="249.5" y="197.8" transform="matrix(0.7425 0.6698 -0.6698 0.7425 204.9998 -124.6415)" class="st8" width="30.3" height="13"/>
	
		<rect x="258.2" y="197.8" transform="matrix(0.7425 0.6698 -0.6698 0.7425 204.9969 -124.641)" class="st9" width="12.8" height="13"/>
	<g>
		<path class="st9" d="M266.9,229.4c-2.7-2.5-3-6.7-0.5-9.4l15-16.6c2.5-2.7,6.7-3,9.4-0.5l54.9,50l-24.3,26.2L266.9,229.4z"/>
		<path class="st8" d="M331,287.7l-9.5-8.6l24.3-26.2l9.2,8.3c2.7,2.5,3,6.7,0.5,9.4l-15,16.6C337.9,289.9,333.7,290.2,331,287.7z"
			/>
	</g>
	<g>
		<path class="st10" d="M281.4,203.4l-6.7,7.5l59.8,54.2l11.3-12.2l-54.9-50C288.1,200.4,283.9,200.6,281.4,203.4z"/>
		<path class="st9" d="M348.7,278l6.7-7.4c2.5-2.7,2.3-7-0.5-9.4l-9.2-8.3l-11.3,12.2L348.7,278z"/>
	</g>
	<g>
		<path class="st9" d="M138.6,156.1c1.9,37.1,33.6,65.7,70.7,63.8c37.1-1.9,65.7-33.6,63.8-70.7c-1.9-37.1-33.6-65.7-70.7-63.8
			C165.3,87.3,136.7,119,138.6,156.1z M259.8,149.9c1.5,29.8-21.4,55.1-51.1,56.7c-29.8,1.5-55.1-21.4-56.7-51.1
			c-1.5-29.8,21.4-55.1,51.1-56.7C232.8,97.2,258.2,120.1,259.8,149.9z"/>
	</g>
	<path class="st11" d="M163.8,149.8c-1.2-17,18.9-45.1,48.8-41.2"/>
	<g>
		<path class="st12" d="M235,107.2c13.4,40.6-8.9,79.5-42.5,97.7c5.1,1.3,10.6,1.9,16.2,1.6c26-1.3,46.7-20.8,50.5-45.5
			c0.6-3.6,0.8-7.4,0.6-11.2C258.8,131.8,249.1,116.3,235,107.2z"/>
		<path class="st8" d="M259.8,149.9c0.2,3.8,0,7.6-0.6,11.2c-3.9,24.7-24.6,44.2-50.5,45.5c-5.6,0.3-11-0.3-16.2-1.6
			c-5.7,3.1-11.6,5.5-17.8,7.3c10.3,5.4,22.2,8.2,34.7,7.6c37.1-1.9,65.7-33.6,63.8-70.7c-1.5-28.8-20.9-52.5-46.9-60.7
			c3.9,6.2,6.8,12.5,8.8,18.8C249.1,116.3,258.8,131.8,259.8,149.9z"/>
	</g>
	<path class="st10" d="M147.4,155.6c1.7,32.3,29.2,57.1,61.4,55.4c32.3-1.7,57.1-29.2,55.4-61.4c-1.7-32.3-29.2-57.1-61.4-55.4
		C170.6,95.8,145.8,123.3,147.4,155.6z M259.7,149.8c1.5,29.8-21.4,55.1-51.1,56.7c-29.8,1.5-55.1-21.4-56.7-51.1
		c-1.5-29.8,21.4-55.1,51.1-56.7C232.8,97.1,258.2,120,259.7,149.8z"/>
</g>
<g>
</g>
<g>
</g>
<g>
</g>
<g>
</g>
<g>
</g>
<g>
</g>
<g>
</g>
<g>
</g>
<g>
</g>
<g>
</g>
<g>
</g>
<g>
</g>
<g>
</g>
<g>
</g>
<g>
</g>
</svg>
