<?xml version="1.0" encoding="utf-8"?>
<!-- Generator: Adobe Illustrator 24.1.0, SVG Export Plug-In . SVG Version: 6.00 Build 0)  -->
<svg version="1.1" id="Layer_1" xmlns="http://www.w3.org/2000/svg" xmlns:xlink="http://www.w3.org/1999/xlink" x="0px" y="0px"
	 viewBox="0 0 500 500" style="enable-background:new 0 0 500 500;" xml:space="preserve">
<style type="text/css">
	.st0{fill:#DC527C;}
</style>
<g>
	<circle class="st0" cx="249.1" cy="62.6" r="62.6"/>
	<path class="st0" d="M372.1,286.2l-53.4-130c-3.1-6.6-5.8-15.4-18.3-15.4c-4.6,0-9.2,0-14.5,0h-65.3c-5.4,0-8.2,0-14.9,0
		c-12.5,0-19,8.2-22.6,15.5l-55.5,129.1c-5.3,10.8-0.9,23.9,9.8,29.2c10.7,5.3,23.7,0.8,29-10l4.2-8.6c0,0,1.3-2.3,0.8,0.2
		c-3,15.9-11.4,63.7-11.4,63.7c-2,9.9,4.6,18.1,14.8,18.1c0,0,18.1,0,24.1,0c1.7,0,1.4,1.3,1.4,1.3v96.1c0,16.1,10,24.5,22.4,24.5
		c12.4,0,22.4-8.4,22.4-24.5V379c0,0-0.1-1,1-0.9c1.3,0,4.6,0,6.1,0c0.8,0,0.7,1,0.7,1v96.4c0,16.1,10,24.5,22.4,24.5
		c12.4,0,22.4-8.4,22.4-24.5v-95.8c0,0-0.1-1.6,1.7-1.6c6.5,0,26,0,26,0c10.2,0,17-8.2,15.1-18.2c0,0-8.4-51.3-10.6-65.2
		c-0.6-4,6,10.2,6,10.2c5.1,10.9,14.9,15.5,25.7,10.4C372.5,310.1,377.2,297.1,372.1,286.2z"/>
</g>
<g>
</g>
<g>
</g>
<g>
</g>
<g>
</g>
<g>
</g>
<g>
</g>
<g>
</g>
<g>
</g>
<g>
</g>
<g>
</g>
<g>
</g>
<g>
</g>
<g>
</g>
<g>
</g>
<g>
</g>
</svg>
