<?xml version="1.0" encoding="utf-8"?>
<!-- Generator: Adobe Illustrator 24.1.0, SVG Export Plug-In . SVG Version: 6.00 Build 0)  -->
<svg version="1.1" id="Layer_1" xmlns="http://www.w3.org/2000/svg" xmlns:xlink="http://www.w3.org/1999/xlink" x="0px" y="0px"
	 viewBox="0 0 355.5 355.5" style="enable-background:new 0 0 355.5 355.5;" xml:space="preserve">
<style type="text/css">
	.st0{fill:#FFFFFF;}
	.st1{fill:#A63125;}
	.st2{fill:#E74C3C;}
	.st3{fill:#BAB08A;}
	.st4{fill:#E0D6AF;}
	.st5{fill:#FFF4C7;}
	.st6{fill:#ECF0F1;}
	.st7{fill:#2980B9;}
	.st8{fill:#3498DB;}
	.st9{fill:#F1C40F;}
	.st10{fill:#27AE60;}
</style>
<g>
	<circle class="st0" cx="177.6" cy="177.9" r="174.9"/>
</g>
<g>
	<rect x="48" y="267" class="st1" width="262.7" height="17.3"/>
	<rect x="51.9" y="126.6" class="st1" width="254.8" height="8.7"/>
	<rect x="48" y="118" class="st1" width="262.7" height="8.7"/>
	<rect x="116.1" y="89.8" class="st1" width="126.4" height="8.7"/>
	<rect x="112.5" y="81.2" class="st1" width="133.7" height="8.7"/>
	<rect x="114.2" y="267" class="st2" width="130.2" height="17.3"/>
	<rect x="54.1" y="135.3" class="st3" width="250.4" height="131.7"/>
	<rect x="54.1" y="140.3" class="st4" width="250.4" height="126.6"/>
	<rect x="118.2" y="98.5" class="st5" width="122.3" height="168.5"/>
	<g>
		
			<rect x="68.1" y="140.8" transform="matrix(-1.836970e-16 1 -1 -1.836970e-16 246.9095 74.4829)" class="st6" width="36.2" height="39.7"/>
		<rect x="70" y="146.2" class="st7" width="32.4" height="28.9"/>
		<path class="st8" d="M102.4,147.6v-1.3H70v27.4C79.8,163.6,90.7,155.1,102.4,147.6z"/>
	</g>
	<g>
		
			<rect x="68.1" y="187.3" transform="matrix(-1.836970e-16 1 -1 -1.836970e-16 293.3279 120.9014)" class="st6" width="36.2" height="39.7"/>
		<rect x="70" y="192.7" class="st7" width="32.4" height="28.9"/>
		<path class="st8" d="M102.4,194v-1.3H70v27.4C79.8,210.1,90.7,201.5,102.4,194z"/>
	</g>
	<g>
		<g>
			
				<rect x="131.5" y="187.3" transform="matrix(-1.836970e-16 1 -1 -1.836970e-16 356.6969 57.5324)" class="st6" width="36.2" height="39.7"/>
			<rect x="133.4" y="192.7" class="st7" width="32.4" height="28.9"/>
			<path class="st8" d="M165.8,194v-1.3h-32.4v27.4C143.1,210.1,154.1,201.5,165.8,194z"/>
		</g>
		<g>
			
				<rect x="191" y="187.3" transform="matrix(-1.836970e-16 1 -1 -1.836970e-16 416.1723 -1.943)" class="st6" width="36.2" height="39.7"/>
			<rect x="192.8" y="192.7" class="st7" width="32.4" height="28.9"/>
			<path class="st8" d="M225.3,194v-1.3h-32.4v27.4C202.6,210.1,213.6,201.5,225.3,194z"/>
		</g>
	</g>
	<g>
		<g>
			
				<rect x="114.3" y="123.7" transform="matrix(-1.836970e-16 1 -1 -1.836970e-16 293.1157 -6.0488)" class="st6" width="70.5" height="39.7"/>
			<rect x="133.4" y="111.9" class="st7" width="32.4" height="63.2"/>
			<path class="st8" d="M165.8,147.6v-35.6h-32.4v61.7C143.1,163.6,154.1,155.1,165.8,147.6z"/>
			<rect x="133.4" y="111.9" class="st7" width="32.4" height="63.2"/>
			<path class="st8" d="M165.8,147.6v-35.6h-32.4v61.7C143.1,163.6,154.1,155.1,165.8,147.6z"/>
		</g>
		<g>
			
				<rect x="173.8" y="123.7" transform="matrix(-1.836970e-16 1 -1 -1.836970e-16 352.5911 -65.5243)" class="st6" width="70.5" height="39.7"/>
			<rect x="192.8" y="111.9" class="st7" width="32.4" height="63.2"/>
			<path class="st8" d="M225.3,147.6v-35.6h-32.4v61.7C202.6,163.6,213.6,155.1,225.3,147.6z"/>
		</g>
	</g>
	<g>
		
			<rect x="255" y="140.8" transform="matrix(-1.836970e-16 1 -1 -1.836970e-16 433.7916 -112.3992)" class="st6" width="36.2" height="39.7"/>
		<rect x="256.9" y="146.2" class="st7" width="32.4" height="28.9"/>
		<path class="st8" d="M289.3,147.6v-1.3h-32.4v27.4C266.6,163.6,277.6,155.1,289.3,147.6z"/>
	</g>
	<g>
		
			<rect x="255" y="187.3" transform="matrix(-1.836970e-16 1 -1 -1.836970e-16 480.2101 -65.9807)" class="st6" width="36.2" height="39.7"/>
		<rect x="256.9" y="192.7" class="st7" width="32.4" height="28.9"/>
		<path class="st8" d="M289.3,194v-1.3h-32.4v27.4C266.6,210.1,277.6,201.5,289.3,194z"/>
	</g>
	<rect x="118.2" y="98.5" class="st4" width="122.3" height="6.3"/>
	<g>
		<path class="st6" d="M145.7,234.7c0,0.3,0,0.6,0,1v48.6H213v-48.6c0-0.3,0-0.6,0-1H145.7z"/>
		<path class="st7" d="M150.2,234.7c0,0.3,0,0.6,0,1v48.6h58.4v-48.6c0-0.3,0-0.6,0-1H150.2z"/>
		<path class="st8" d="M150.2,234.7c0,0.3,0,0.6,0,1v38.5c13.8-13.7,28.1-27,42.9-39.5H150.2z"/>
		<rect x="145.7" y="234.2" class="st6" width="67.3" height="4.4"/>
		<path class="st9" d="M172.1,266c0,3.7,1.1,6.7,2.4,6.7s2.4-3,2.4-6.7c0-3.7-1.1-6.7-2.4-6.7S172.1,262.3,172.1,266z"/>
		<path class="st9" d="M181.7,266c0,3.7,1.1,6.7,2.4,6.7s2.4-3,2.4-6.7c0-3.7-1.1-6.7-2.4-6.7S181.7,262.3,181.7,266z"/>
	</g>
	<g>
		<path class="st10" d="M70.9,284.3c1.3-2.2,2.1-4.7,2.1-7.4c0-8.1-6.5-14.6-14.6-14.6s-14.6,6.5-14.6,14.6c0,2.7,0.8,5.2,2.1,7.4
			H70.9z"/>
		<path class="st10" d="M126.1,284.3c1.6-2.7,2.6-5.8,2.6-9.2c0-10-8.1-18.1-18.1-18.1c-10,0-18.1,8.1-18.1,18.1
			c0,3.4,1,6.5,2.6,9.2H126.1z"/>
		<path class="st10" d="M104.4,284.3c1.9-3.3,3.1-7,3.1-11.1c0-12.1-9.8-21.9-21.9-21.9c-12.1,0-21.9,9.8-21.9,21.9
			c0,4.1,1.2,7.8,3.1,11.1H104.4z"/>
	</g>
	<g>
		<path class="st10" d="M257.8,284.3c1.3-2.2,2.1-4.7,2.1-7.4c0-8.1-6.5-14.6-14.6-14.6s-14.6,6.5-14.6,14.6c0,2.7,0.8,5.2,2.1,7.4
			H257.8z"/>
		<path class="st10" d="M313,284.3c1.6-2.7,2.6-5.8,2.6-9.2c0-10-8.1-18.1-18.1-18.1c-10,0-18.1,8.1-18.1,18.1c0,3.4,1,6.5,2.6,9.2
			H313z"/>
		<path class="st10" d="M291.3,284.3c1.9-3.3,3.1-7,3.1-11.1c0-12.1-9.8-21.9-21.9-21.9c-12.1,0-21.9,9.8-21.9,21.9
			c0,4.1,1.2,7.8,3.1,11.1H291.3z"/>
	</g>
</g>
</svg>
