<?xml version="1.0" encoding="utf-8"?>
<!-- Generator: Adobe Illustrator 24.1.0, SVG Export Plug-In . SVG Version: 6.00 Build 0)  -->
<svg version="1.1" id="Layer_1" xmlns="http://www.w3.org/2000/svg" xmlns:xlink="http://www.w3.org/1999/xlink" x="0px" y="0px"
	 viewBox="0 0 355.5 355.5" style="enable-background:new 0 0 355.5 355.5;" xml:space="preserve">
<style type="text/css">
	.st0{fill:#A63125;}
	.st1{fill:#E74C3C;}
	.st2{fill:#BAB08A;}
	.st3{fill:#E0D6AF;}
	.st4{fill:#FFF4C7;}
	.st5{fill:#ECF0F1;}
	.st6{fill:#2980B9;}
	.st7{fill:#3498DB;}
	.st8{fill:#F1C40F;}
	.st9{fill:#27AE60;}
</style>
<g>
	<rect x="6.2" y="293.9" class="st0" width="342.9" height="22.6"/>
	<rect x="11.3" y="110.6" class="st0" width="332.7" height="11.3"/>
	<rect x="6.2" y="99.3" class="st0" width="342.9" height="11.3"/>
	<rect x="95.2" y="62.6" class="st0" width="165" height="11.3"/>
	<rect x="90.4" y="51.3" class="st0" width="174.6" height="11.3"/>
	<rect x="92.6" y="293.9" class="st1" width="170" height="22.6"/>
	<rect x="14.2" y="121.9" class="st2" width="327" height="172"/>
	<rect x="14.2" y="128.6" class="st3" width="327" height="165.3"/>
	<rect x="97.8" y="73.9" class="st4" width="159.7" height="220"/>
	<g>
		
			<rect x="32.5" y="129.2" transform="matrix(-1.836970e-16 1 -1 -1.836970e-16 211.2229 99.0314)" class="st5" width="47.2" height="51.8"/>
		<rect x="34.9" y="136.3" class="st6" width="42.4" height="37.8"/>
		<path class="st7" d="M77.3,138v-1.7H34.9V172C47.7,159,62,147.8,77.3,138z"/>
	</g>
	<g>
		
			<rect x="32.5" y="189.8" transform="matrix(-1.836970e-16 1 -1 -1.836970e-16 271.8292 159.6377)" class="st5" width="47.2" height="51.8"/>
		<rect x="34.9" y="196.9" class="st6" width="42.4" height="37.8"/>
		<path class="st7" d="M77.3,198.6v-1.7H34.9v35.8C47.7,219.6,62,208.4,77.3,198.6z"/>
	</g>
	<g>
		<g>
			
				<rect x="115.2" y="189.8" transform="matrix(-1.836970e-16 1 -1 -1.836970e-16 354.5668 76.9)" class="st5" width="47.2" height="51.8"/>
			<rect x="117.7" y="196.9" class="st6" width="42.4" height="37.8"/>
			<path class="st7" d="M160,198.6v-1.7h-42.4v35.8C130.4,219.6,144.7,208.4,160,198.6z"/>
		</g>
		<g>
			
				<rect x="192.9" y="189.8" transform="matrix(-1.836970e-16 1 -1 -1.836970e-16 432.2209 -0.754)" class="st5" width="47.2" height="51.8"/>
			<rect x="195.3" y="196.9" class="st6" width="42.4" height="37.8"/>
			<path class="st7" d="M237.7,198.6v-1.7h-42.4v35.8C208.1,219.6,222.4,208.4,237.7,198.6z"/>
		</g>
	</g>
	<g>
		<g>
			
				<rect x="92.8" y="106.8" transform="matrix(-1.836970e-16 1 -1 -1.836970e-16 271.552 -6.1148)" class="st5" width="92" height="51.8"/>
			<rect x="117.7" y="91.4" class="st6" width="42.4" height="82.6"/>
			<path class="st7" d="M160,138V91.4h-42.4V172C130.4,159,144.7,147.8,160,138z"/>
			<rect x="117.7" y="91.4" class="st6" width="42.4" height="82.6"/>
			<path class="st7" d="M160,138V91.4h-42.4V172C130.4,159,144.7,147.8,160,138z"/>
		</g>
		<g>
			
				<rect x="170.5" y="106.8" transform="matrix(-1.836970e-16 1 -1 -1.836970e-16 349.2061 -83.7689)" class="st5" width="92" height="51.8"/>
			<rect x="195.3" y="91.4" class="st6" width="42.4" height="82.6"/>
			<path class="st7" d="M237.7,138V91.4h-42.4V172C208.1,159,222.4,147.8,237.7,138z"/>
		</g>
	</g>
	<g>
		
			<rect x="276.5" y="129.2" transform="matrix(-1.836970e-16 1 -1 -1.836970e-16 455.2255 -144.9711)" class="st5" width="47.2" height="51.8"/>
		<rect x="278.9" y="136.3" class="st6" width="42.4" height="37.8"/>
		<path class="st7" d="M321.3,138v-1.7h-42.4V172C291.7,159,306,147.8,321.3,138z"/>
	</g>
	<g>
		
			<rect x="276.5" y="189.8" transform="matrix(-1.836970e-16 1 -1 -1.836970e-16 515.8317 -84.3649)" class="st5" width="47.2" height="51.8"/>
		<rect x="278.9" y="196.9" class="st6" width="42.4" height="37.8"/>
		<path class="st7" d="M321.3,198.6v-1.7h-42.4v35.8C291.7,219.6,306,208.4,321.3,198.6z"/>
	</g>
	<rect x="97.8" y="73.9" class="st3" width="159.7" height="8.2"/>
	<g>
		<path class="st5" d="M133.8,251.8c0,0.4-0.1,0.8-0.1,1.3v63.4h87.9v-63.4c0-0.4-0.1-0.8-0.1-1.3H133.8z"/>
		<path class="st6" d="M139.6,251.8c0,0.4-0.1,0.8-0.1,1.3v63.4h76.2v-63.4c0-0.4,0-0.8-0.1-1.3H139.6z"/>
		<path class="st7" d="M139.6,251.8c0,0.4-0.1,0.8-0.1,1.3v50.3c18-17.9,36.7-35.2,56-51.5H139.6z"/>
		<rect x="133.7" y="251" class="st5" width="87.9" height="5.7"/>
		<path class="st8" d="M168.3,292.7c0,4.8,1.4,8.8,3.2,8.8c1.8,0,3.2-3.9,3.2-8.8c0-4.8-1.4-8.8-3.2-8.8
			C169.7,283.9,168.3,287.8,168.3,292.7z"/>
		<path class="st8" d="M180.7,292.7c0,4.8,1.4,8.8,3.2,8.8c1.8,0,3.2-3.9,3.2-8.8c0-4.8-1.4-8.8-3.2-8.8
			C182.1,283.9,180.7,287.8,180.7,292.7z"/>
	</g>
	<g>
		<path class="st9" d="M36.1,316.5c1.7-2.9,2.7-6.1,2.7-9.7c0-10.5-8.5-19.1-19.1-19.1s-19.1,8.5-19.1,19.1c0,3.6,1,6.8,2.7,9.7
			H36.1z"/>
		<path class="st9" d="M108.1,316.5c2.1-3.5,3.4-7.6,3.4-12c0-13-10.6-23.6-23.6-23.6c-13,0-23.6,10.6-23.6,23.6
			c0,4.4,1.3,8.5,3.4,12H108.1z"/>
		<path class="st9" d="M79.9,316.5c2.5-4.3,4.1-9.2,4.1-14.5c0-15.8-12.8-28.6-28.6-28.6c-15.8,0-28.6,12.8-28.6,28.6
			c0,5.3,1.6,10.2,4.1,14.5H79.9z"/>
	</g>
	<g>
		<path class="st9" d="M280.1,316.5c1.7-2.9,2.7-6.1,2.7-9.7c0-10.5-8.5-19.1-19.1-19.1c-10.5,0-19.1,8.5-19.1,19.1
			c0,3.6,1,6.8,2.7,9.7H280.1z"/>
		<path class="st9" d="M352.2,316.5c2.1-3.5,3.4-7.6,3.4-12c0-13-10.6-23.6-23.6-23.6c-13,0-23.6,10.6-23.6,23.6
			c0,4.4,1.3,8.5,3.4,12H352.2z"/>
		<path class="st9" d="M323.9,316.5c2.5-4.3,4.1-9.2,4.1-14.5c0-15.8-12.8-28.6-28.6-28.6c-15.8,0-28.6,12.8-28.6,28.6
			c0,5.3,1.6,10.2,4.1,14.5H323.9z"/>
	</g>
</g>
</svg>
