<?xml version="1.0" encoding="utf-8"?>
<!-- Generator: Adobe Illustrator 24.1.0, SVG Export Plug-In . SVG Version: 6.00 Build 0)  -->
<svg version="1.1" id="Layer_1" xmlns="http://www.w3.org/2000/svg" xmlns:xlink="http://www.w3.org/1999/xlink" x="0px" y="0px"
	 viewBox="0 0 500 500" style="enable-background:new 0 0 500 500;" xml:space="preserve">
<style type="text/css">
	.st0{fill-rule:evenodd;clip-rule:evenodd;fill:#FAECE8;}
	.st1{fill-rule:evenodd;clip-rule:evenodd;fill:#664038;}
	.st2{fill-rule:evenodd;clip-rule:evenodd;fill:#362122;}
	.st3{fill-rule:evenodd;clip-rule:evenodd;fill:#0DA18D;}
	.st4{fill-rule:evenodd;clip-rule:evenodd;fill:#048C7A;}
	.st5{fill-rule:evenodd;clip-rule:evenodd;fill:#FAA66E;}
	.st6{fill-rule:evenodd;clip-rule:evenodd;fill:#FFF7F5;}
	.st7{fill-rule:evenodd;clip-rule:evenodd;fill:#FFB685;}
	.st8{fill-rule:evenodd;clip-rule:evenodd;fill:#E8935A;}
	.st9{fill-rule:evenodd;clip-rule:evenodd;fill:#4FBBAB;}
	.st10{fill-rule:evenodd;clip-rule:evenodd;fill:#A36115;}
	.st11{fill-rule:evenodd;clip-rule:evenodd;fill:#DB4F30;}
	.st12{fill-rule:evenodd;clip-rule:evenodd;fill:#B82C0D;}
	.st13{fill-rule:evenodd;clip-rule:evenodd;fill:#59372F;}
	.st14{fill-rule:evenodd;clip-rule:evenodd;fill:#6B4840;}
	.st15{fill-rule:evenodd;clip-rule:evenodd;fill:#FF7252;}
	.st16{fill-rule:evenodd;clip-rule:evenodd;fill:#FEFEFE;}
	.st17{fill-rule:evenodd;clip-rule:evenodd;fill:#401B0F;}
	.st18{fill-rule:evenodd;clip-rule:evenodd;fill:#8F2F23;}
	.st19{fill-rule:evenodd;clip-rule:evenodd;fill:#B13B32;}
	.st20{fill-rule:evenodd;clip-rule:evenodd;fill:#F2F2F2;}
	.st21{fill-rule:evenodd;clip-rule:evenodd;fill:#FFB584;}
	.st22{fill-rule:evenodd;clip-rule:evenodd;fill:#FFB384;}
	.st23{fill-rule:evenodd;clip-rule:evenodd;fill:#FEB283;}
	.st24{fill-rule:evenodd;clip-rule:evenodd;fill:#FEB182;}
	.st25{fill-rule:evenodd;clip-rule:evenodd;fill:#FEAF81;}
	.st26{fill-rule:evenodd;clip-rule:evenodd;fill:#FEAE81;}
	.st27{fill-rule:evenodd;clip-rule:evenodd;fill:#FEAC80;}
	.st28{fill-rule:evenodd;clip-rule:evenodd;fill:#FEAB7F;}
	.st29{fill-rule:evenodd;clip-rule:evenodd;fill:#FDAA7E;}
	.st30{fill-rule:evenodd;clip-rule:evenodd;fill:#FDA87E;}
	.st31{fill-rule:evenodd;clip-rule:evenodd;fill:#FDA77D;}
	.st32{fill-rule:evenodd;clip-rule:evenodd;fill:#FDA67C;}
	.st33{fill-rule:evenodd;clip-rule:evenodd;fill:#FDA47B;}
	.st34{fill-rule:evenodd;clip-rule:evenodd;fill:#FDA37B;}
	.st35{fill-rule:evenodd;clip-rule:evenodd;fill:#FCA27A;}
	.st36{fill-rule:evenodd;clip-rule:evenodd;fill:#FCA079;}
	.st37{fill-rule:evenodd;clip-rule:evenodd;fill:#FC9F79;}
	.st38{fill-rule:evenodd;clip-rule:evenodd;fill:#FC9D78;}
	.st39{fill-rule:evenodd;clip-rule:evenodd;fill:#FC9C77;}
	.st40{fill-rule:evenodd;clip-rule:evenodd;fill:#FC9B76;}
	.st41{fill-rule:evenodd;clip-rule:evenodd;fill:#FB9976;}
	.st42{fill-rule:evenodd;clip-rule:evenodd;fill:#FB9875;}
	.st43{fill-rule:evenodd;clip-rule:evenodd;fill:#FB9774;}
	.st44{fill-rule:evenodd;clip-rule:evenodd;fill:#FB9573;}
	.st45{fill-rule:evenodd;clip-rule:evenodd;fill:#FB9473;}
	.st46{fill-rule:evenodd;clip-rule:evenodd;fill:#FB9272;}
	.st47{fill-rule:evenodd;clip-rule:evenodd;fill:#FA9171;}
	.st48{fill-rule:evenodd;clip-rule:evenodd;fill:#FA9071;}
	.st49{fill-rule:evenodd;clip-rule:evenodd;fill:#FA8E70;}
	.st50{fill-rule:evenodd;clip-rule:evenodd;fill:#FA8D6F;}
	.st51{fill-rule:evenodd;clip-rule:evenodd;fill:#FA8C6E;}
	.st52{fill-rule:evenodd;clip-rule:evenodd;fill:#FA8A6E;}
	.st53{fill-rule:evenodd;clip-rule:evenodd;fill:#F9896D;}
	.st54{fill-rule:evenodd;clip-rule:evenodd;fill:#F9886C;}
	.st55{fill-rule:evenodd;clip-rule:evenodd;fill:#F9866B;}
	.st56{fill-rule:evenodd;clip-rule:evenodd;fill:#F9856B;}
	.st57{fill-rule:evenodd;clip-rule:evenodd;fill:#F9836A;}
	.st58{fill-rule:evenodd;clip-rule:evenodd;fill:#F98269;}
	.st59{fill-rule:evenodd;clip-rule:evenodd;fill:#F88168;}
	.st60{fill-rule:evenodd;clip-rule:evenodd;fill:#F87F68;}
	.st61{fill-rule:evenodd;clip-rule:evenodd;fill:#F87E67;}
	.st62{fill-rule:evenodd;clip-rule:evenodd;fill:#B8701E;}
	.st63{fill-rule:evenodd;clip-rule:evenodd;fill:#BF7E35;}
	.st64{fill-rule:evenodd;clip-rule:evenodd;fill:#F29F68;}
	.st65{fill:#CBFBED;}
	.st66{fill-rule:evenodd;clip-rule:evenodd;fill:#B1EEE5;}
	.st67{fill-rule:evenodd;clip-rule:evenodd;fill:#A6E3DB;}
	.st68{fill-rule:evenodd;clip-rule:evenodd;fill:#A9EBE3;}
	.st69{fill:#BEF7F1;}
	.st70{fill-rule:evenodd;clip-rule:evenodd;fill:#A9EDEA;}
	.st71{fill-rule:evenodd;clip-rule:evenodd;fill:#A0E4E2;}
	.st72{fill-rule:evenodd;clip-rule:evenodd;fill:#A2EAE9;}
	.st73{fill-rule:evenodd;clip-rule:evenodd;fill:#542022;}
	.st74{fill-rule:evenodd;clip-rule:evenodd;fill:#653638;}
</style>
<g>
	<path class="st0" d="M431.2,446c0,0-2.3-7-5.7-16.8c-8.4,2.8-18.6,6.2-26.7,8.8c4.6,10.5,7.9,18.2,7.9,18.2l15,13.8L431.2,446
		L431.2,446z"/>
	<path class="st1" d="M406.6,456.3c0,0-3,4.2-1.5,11.8c1.5,7.6,5.3,12.8,5.3,12.8l49.9-14.3l4.8-4.4c-2.7-13.4-26-14.5-33.9-16.2
		C428.7,450.4,415.2,464.8,406.6,456.3L406.6,456.3z"/>
	<path class="st0" d="M453.5,450.8c-0.7-0.3-1.5-0.6-2.2-0.8c-1.5,1.5-3,3.3-3.7,4.6c-0.3,0.5-0.1,1.2,0.5,1.4
		c0.6,0.2,1.3-0.1,1.6-0.6C450.3,454.1,451.9,452.3,453.5,450.8L453.5,450.8z"/>
	<path class="st0" d="M448.3,449.2c-0.8-0.2-1.6-0.4-2.3-0.6c-1,1.1-2,2.5-2.5,3.4c-0.3,0.6-0.1,1.2,0.5,1.4
		c0.6,0.2,1.3-0.1,1.6-0.6C446,451.8,447.2,450.3,448.3,449.2L448.3,449.2z"/>
	<path class="st2" d="M410.1,480l54.3-17.9c1.3-0.4,2.8,0.3,3.2,1.6l0,0c0.4,1.3-0.3,2.8-1.6,3.2l-54.3,17.9
		c-1.3,0.4-2.8-0.3-3.2-1.6l0,0C408,481.9,408.8,480.4,410.1,480L410.1,480z"/>
	<path class="st3" d="M290.2,223.4c-3.1,17.9-11.2,69.4-13.8,83.8c-3.6,20.5-0.6,27.5,31.8,31.5c32.4,3.9,71.7-25.3,67-75.6
		c-1.6-17.1,32.8-44.1,14.9-54.3C374.5,199.9,294.6,197.9,290.2,223.4L290.2,223.4z"/>
	<path class="st4" d="M305,226.2c0,0-14.5,61.7-18.1,82.1c-3.6,20.5-4.1,27.4,28.4,31.3c14.8,1.8,68,6.4,79.8-5.7
		c8.5-8.6,13.8-55,9.8-86.7c-2.7-21.5-9.3-26.3-21.3-32.4C367.5,206.9,343,213.2,305,226.2L305,226.2z"/>
	<path class="st0" d="M303.7,462.7l3.6-16.7l24.1,4.4l-3.1,15.8c2.4,11.9-10.4,15.1-16.8,11.8C305.1,474.8,302.4,463.6,303.7,462.7
		L303.7,462.7z"/>
	<path class="st5" d="M308.2,224c0,0-17.3,10.3-30.2,31.7c-13,21.3-22,61.1-22,61.1s-7.7,6.1-12.1,12.9c-3.1,4.7-2,7.7,1.6,4.6
		c1.5-1.3-4.7,3-2.5,1.7c-1.7,2.1-1.6-2.7,1.2-0.6c2.8,2.1-4,6.4,3.9-1c-4.3,5.7-1.1,5,1.4,7.3c2.5,2.3,0.2-1.3,2.9-3.6
		c-1.9,3.6-5.7,13.1-2,13.6c3.7,0.6,6.6-9.1,9.3-11.7l7.2-4.9c0.6,0.9,1.6,7.9,2.5,8.9c1,0.9,2.5,0.9,4-2.7c2.4-6,0.1-19,0.1-19
		c7.4-35.7,20.4-52,47.5-70.4c4.6-3.1,11.5-13.8,6.4-22.4C322.2,220.6,313.9,220,308.2,224L308.2,224z"/>
	<path class="st5" d="M308.2,224c0,0-17.3,10.3-30.2,31.7c13.5-3.9,22,6,24.7,10.1c5.2-4.8,11.3-9.4,18.2-14.2
		c4.6-3.1,11.5-13.8,6.4-22.4C322.2,220.6,313.9,220,308.2,224L308.2,224z"/>
	<path class="st6" d="M291.9,233.8c6.3,10.2,15,18.8,25.9,23.2l-6.8,8.4c-6.1-2.1-24-15.9-26-23.9L291.9,233.8L291.9,233.8z"/>
	<path class="st0" d="M291.9,233.8c2.8,8.2,16.3,19.6,26.9,24.3c18.3-10.2,34-36,15-43c-1.8-0.7-1-3.1-3.2-2.8
		C318.6,214.1,300.6,222.3,291.9,233.8L291.9,233.8z"/>
	<path class="st7" d="M416.8,228.7c19.4,9.7,34-13.4,37.4-32.1c0,0-3.6-6.3-4.9-12.1c-0.5-2.3-0.7-11.1,2.9-8.9
		c1.2,0.7,3.7,7.4,4.5,8.1l6.2-8.8c2-3.2,2.6-13.3,6.3-13.6c3.7-0.3,2.3,9.8,1.2,13.7c2.1-2.8,5-15.8,8-14.1c3,1.7,0,10.1-3,16.7
		c6-9,5.8-14.3,9-13c3.2,1.4-1.8,13-3,15.5c1.8-1.8,3.9-6.3,5.1-8c2.8-3.9,4.5-1.2,2.6,4.1c-1.5,4.2-11.3,21.8-15.7,23.9
		c-3.5,39.2-42.8,71.4-73.7,45.4C385.7,233.6,416.8,228.7,416.8,228.7L416.8,228.7z"/>
	<path class="st5" d="M416.8,228.7c6.6,3.3,12.6,2.8,17.9,0c-4.3,4.3-11.7,13.8-8.6,26.1c-8.8,0.6-17.9-2.2-26.3-9.3l-0.2-0.2
		c5.2-7.4,10-12.6,14.2-16C415.6,228.9,416.8,228.7,416.8,228.7L416.8,228.7z"/>
	<path class="st6" d="M416,226.5c-3.5,11.7-10.5,21.1-20.2,28.7l8,6c11.4-8.2,18-20.5,19.8-30.9L416,226.5L416,226.5z"/>
	<path class="st0" d="M416,226.5c-3.5,11.6-10.4,21.9-19.2,29.4c-6.9-4.6-8.9-8.2-13-10.5c-16.2-9.2-28.8-21.8-15.9-31.4
		c2.6-2,6.2-3.5,10.3-2.5C391.6,214.8,403.2,219.4,416,226.5L416,226.5z"/>
	<path class="st5" d="M464.9,194.7c0,0,1.4-3.1,4.1-5.1c1.6-1.3,4-2.1,5.6-2.5C480.4,185.5,465.9,183.3,464.9,194.7L464.9,194.7z"/>
	<polygon class="st8" points="337.2,185.1 359.7,189 361.6,211.3 349.3,213.8 336.5,213.5 337.2,185.1 	"/>
	<path class="st2" d="M301.5,323.7c-0.7,12.5,4.2,43.1,11.1,66.3c-5.2,32.7-13.4,49.1-13.6,54.5l35.7,6.5
		c3.8-17.7,9.7-34.5,13.5-52.2c3-13.9,1.6-28.4-2.4-46.7c2.6,0,8.1,0.2,10.7,0.2l41,95.9l34.1-12.2l-37.3-112.3
		C394.4,323.7,315.8,297.7,301.5,323.7L301.5,323.7z"/>
	<path class="st0" d="M301.2,325.1c0,0,6.8-75.1,9.4-89.2c2.3-12.5,9.1-19.9,19.3-23.5c4,3.8,11.5-3.3,19.2-3.4
		c8.4-0.1,16.9,6.4,21.3,0.7c12.8,1.8,21.1,7.8,21.4,25.2c0.3,21.3,2.2,90.1,2.2,90.1C396.6,325.7,337.8,336.3,301.2,325.1
		L301.2,325.1z"/>
	<path class="st8" d="M327.2,214.4c5.2-3.6,17.1-6,25.4-6.3c6.9-0.3,15.8,0.4,19.5,3.2c-4,4.8-14.4-2.2-23.1-2.2
		C340.2,209.1,331.7,216.1,327.2,214.4L327.2,214.4z"/>
	<polygon class="st6" points="369.2,247.7 389.1,247.7 390,265.7 380.4,270.3 370.1,265.7 369.2,247.7 	"/>
	<path class="st6" d="M336.7,205.4c6.5,5.6,17.7,4.5,24.3-0.5l12.8,5.5c-4.4,5.5-11.2,8.6-18.5,9.8l-6.3-11.1l-4.5,11.4
		c-7.6-0.7-14.6-3.3-18.8-7.4L336.7,205.4L336.7,205.4z"/>
	<path class="st1" d="M329.9,458.3c2.4,0.5,14,14.6,12.8,24.2h-48c0,0-0.9-11,9.5-24.4C321.8,463.8,329.5,460.3,329.9,458.3
		L329.9,458.3z"/>
	<path class="st2" d="M341.8,481.7H296c-1.4,0-2.6,1.1-2.6,2.6l0,0c0,1.4,1.2,2.6,2.6,2.6h45.8c1.4,0,2.6-1.2,2.6-2.6l0,0
		C344.4,482.9,343.2,481.7,341.8,481.7L341.8,481.7z"/>
	<path class="st0" d="M333.3,466.2c0.7,0.2,1.5-0.1,1.8-0.6c0.3-0.6-0.1-1.2-0.8-1.4c-2.2-0.6-5.6-1.1-8.9-0.9
		c-2.6,0.1-5.2,0.7-7.1,1.9c-0.6,0.4-0.7,1.1-0.2,1.5c0.5,0.5,1.4,0.5,2,0.2c1.4-0.9,3.4-1.3,5.5-1.4
		C328.5,465.3,331.4,465.7,333.3,466.2L333.3,466.2z"/>
	<path class="st0" d="M334.2,470.2c0.7,0.2,1.5-0.1,1.8-0.6c0.3-0.6-0.1-1.2-0.8-1.4c-2.2-0.6-5.6-1.1-8.9-0.9
		c-2.6,0.1-5.2,0.7-7.1,1.9c-0.6,0.4-0.7,1.1-0.2,1.5c0.5,0.5,1.4,0.5,2,0.2c1.4-0.9,3.4-1.3,5.5-1.4
		C329.4,469.3,332.3,469.7,334.2,470.2L334.2,470.2z"/>
	<path class="st9" d="M304.2,221.9c6.4,33.8,2.6,47.2-10.6,74l9.9,6c15.6-19.6,25.2-64.3,16.8-87.2L304.2,221.9L304.2,221.9z"/>
	<path class="st9" d="M379.5,211c15,36.6,13.7,77.3,13.7,84.8l8.4-1.9c2.4-14.9,2.5-69.3-5-78.1L379.5,211L379.5,211z"/>
	<path class="st10" d="M209.2,84.7c2.8,13.7,6.1,28.4,8.7,43.3c29.6,167.9-163.1,182.2-186,90.5C14.8,149.5,43.2,80,59.9,70.6
		C76.6,61.2,148.3,9.8,209.2,84.7L209.2,84.7z"/>
	<path class="st7" d="M209.2,459.4c0,0-13.4-62.6-18.4-95.7c-5-33-31.1-28.7-34.5-14.4c-3.4,14.3,9.4,48.5,15.9,70.8
		c6.5,22.4,13.2,46.2,13.2,46.2c7.1,9.2,20.7,9.8,32.9,6.2c7.4-2.2,10-4.5,9.9-5.7C225.5,464.4,215.7,461.7,209.2,459.4L209.2,459.4
		z"/>
	<path class="st5" d="M198.2,405c-2.6-13.7-4.1-19.5-7.4-41.4c-3.3-21.8-31.3-27.8-34.5-14.4c-3.2,13.4,5.9,38.5,12.7,60.2
		C173.3,409.7,189.6,408.8,198.2,405L198.2,405z"/>
	<path class="st0" d="M210.3,459.3c0,0-1.4-6.7-3.5-16.9c-8.7,1.7-19.2,3.7-27.6,5.3c3.1,11,5.7,19.5,5.7,19.5
		c7.1,9.2,21.3,9.1,33.5,5.5c7.4-2.2,10-4.5,9.9-5.7C225.5,464.4,216.7,461.6,210.3,459.3L210.3,459.3z"/>
	<path class="st1" d="M185.4,466.3c0,0-3.6,3.8-3.2,11.6c0.5,7.8,3.5,13.4,3.5,13.4l51.3-7.7l5.3-3.7c0,0,2-3.8-3.2-8
		c-5.2-4.2-10.9-5-10.9-5c0.1,1.2-2.5,3.5-9.9,5.7C206.1,476.2,192.5,475.6,185.4,466.3L185.4,466.3z"/>
	<path class="st2" d="M185.6,490.6l56.2-10.6c1.4-0.3,2.7,0.7,3,2l0,0c0.3,1.4-0.7,2.7-2,3l-56.2,10.6c-1.4,0.3-2.7-0.6-3-2l0,0
		C183.3,492.2,184.2,490.9,185.6,490.6L185.6,490.6z"/>
	<path class="st7" d="M99.7,366c-3.2,11.9-2.7,19.2-9.6,35.6c0,0-38.9,31.1-39.4,41.8c-0.5,10.7,22.1,6.6,42.5-8.7
		c15-11.2,24.1-17.6,26.4-25.8c0.8-2.9,5.1-17.5,6.1-21.6C130,371.9,99.7,366,99.7,366L99.7,366z"/>
	<path class="st5" d="M97.8,374.3c-1.5,7.8-2.5,15-7.7,27.2l-1,0.8c7.3,1.9,18.4,4.5,30.5,6.5c0.8-2.9,5.1-17.5,6-21.6
		c2.6-9.3-7.4-15.1-15.8-18.3C105.1,370.2,101.1,372.1,97.8,374.3L97.8,374.3z"/>
	<path class="st11" d="M80.5,230.6c-2.9,17.6-10.6,68.2-13,82.5c-3.4,20.1-0.3,27.1,32.5,30.7c32.9,3.7,72.3-25.3,67-74.7
		c-1.8-16.8,32.7-43.6,14.5-53.5C165.6,207,84.7,205.5,80.5,230.6L80.5,230.6z"/>
	<path class="st12" d="M94.7,225.7c0,0-13.2,68.3-16.6,88.5c-3.4,20.1-3.8,26.9,29.1,30.6c15,1.7,68.9,5.8,80.7-6.1
		c8.5-8.5,13.3-54.1,8.9-85.3c-3-21.1-9.7-25.8-21.9-31.7C158.6,213.9,133.1,212.6,94.7,225.7L94.7,225.7z"/>
	<path class="st13" d="M93.9,306.3c0,0-9.5,19.6-16.9,43.7c-7.4,24.1-8.6,37.3-8.6,37.3c18.6,19,117.6,18,141.9-0.3
		c0,0-7.7-56.4-22.4-83.8C173.1,275.8,110.6,271.9,93.9,306.3L93.9,306.3z"/>
	<path class="st14" d="M77.3,392.9c1.8,0.8,3.8,1.5,5.9,2.1c3.3-28.1,25.7-94.6,18.9-77.2C88.6,352.7,81.2,376.8,77.3,392.9
		L77.3,392.9z M96.8,398.2c2.1,0.4,4.2,0.7,6.4,1c-0.4-26.9,15.4-98,10.4-79.7C103.5,356.8,98.9,381.9,96.8,398.2L96.8,398.2z
		 M120.2,400.8c2.5,0.1,5,0.2,7.5,0.3c1.2-38.7,8.1-96.7,4.8-80.6C124.8,357.7,121.5,383.5,120.2,400.8L120.2,400.8z M147,401
		c2.5-0.1,5-0.2,7.4-0.4c0.8-19,0.2-44.9-3.9-79.2C148.2,302.9,151.2,356.4,147,401L147,401z M173.6,398.6c2.6-0.4,5.1-0.8,7.6-1.3
		c-0.8-16.4-3.5-41.5-10.6-78.7C167.4,302,174.3,364.6,173.6,398.6L173.6,398.6z M196.6,393.5c2.1-0.7,4.1-1.4,6-2.2
		c-2.7-16.2-8.2-40.3-18.8-74.9C178.4,298.9,195.3,365.2,196.6,393.5L196.6,393.5z"/>
	<path class="st0" d="M93.9,306.3c0,0,4.5-51,6.8-65.3c3.4-21,22.9-26,42.1-26.5c20-0.6,37.6,1.1,39.9,26.3
		c2,21.5,5.1,62.5,5.1,62.5C190.4,303.9,135.1,319.2,93.9,306.3L93.9,306.3z"/>
	<path class="st8" d="M117.7,218.1c5.4-3.4,16-4.9,24.3-4.7c7,0.2,15.9,1.3,19.5,4.4c-4.2,4.6-13.5,6.3-22.8,5.8
		C130.4,223,122.2,220,117.7,218.1L117.7,218.1z"/>
	<path class="st7" d="M211.7,242.9c0,0,14.9,9.6,25.6,28.8c10.7,19.2,18.2,51,18.2,51s2.3,2.4,4.4,4.1c0,0-0.8,11.9-5.9,14.9
		c-5.1,2.9-4.2,1.8-6.1,1.9l-4-3.8c-0.1-0.5,0,1.2-0.3,2.8c-3.2-1.8-5.1-6-4.4-12.4c-5.4-31.7-16.2-46.4-39.4-63.4
		c-3.9-2.9-9.6-12.5-4.9-19.9C199.5,239.4,206.8,239.2,211.7,242.9L211.7,242.9z"/>
	<path class="st5" d="M211.7,242.9c0,0,14.9,9.6,25.6,28.8c-11.8-3.9-19.5,4.6-22.1,8.1c-4.5-4.4-9.6-8.6-15.6-13
		c-3.9-2.9-9.6-12.5-4.9-19.9C199.5,239.4,206.8,239.2,211.7,242.9L211.7,242.9z"/>
	<path class="st7" d="M255.4,322.7c3.1,2.6,11.5,10.9,11.6,15c0.2,5.4-3.5,9.2-10.1,12.7c-1,0.6-1.9,2.3-3.2,2.7
		c-4.7,1.5-6.9-1.9-10-9.1c-7.3,1.3-6.3-6-4.8-13.9C240.1,324.5,255.4,322.7,255.4,322.7L255.4,322.7z"/>
	<path class="st1" d="M218.9,238.9c-5.7,10.6-16.5,21.6-27.5,26.4l6.2,6.1c13.5-5.2,23.5-15.9,27.5-25.8
		C223.3,243.5,221,241.1,218.9,238.9L218.9,238.9z"/>
	<path class="st0" d="M192.9,264.5c-18.2-9.5-31.8-34-13.4-41.4c1.6-0.7,1.4-1.9,3.6-1.9c9.6,0.4,25.6,8.3,35.8,17.7
		C216.7,251.1,203.8,260.4,192.9,264.5L192.9,264.5z"/>
	<path class="st15" d="M170.9,215.6c15.7,36.3,14.4,74.9,16.8,86c1.7,0.1,3.7-0.8,5.7-1.9c2.2-15.2,2.8-70.5-4.9-79.1L170.9,215.6
		L170.9,215.6z"/>
	<polygon class="st8" points="130,188.3 152.7,192.3 154.6,214.9 142.3,217.4 129.3,217.1 130,188.3 	"/>
	<path class="st8" d="M119.3,216.8c5.3-3.4,15.9-5.1,24.3-4.9c7,0.1,15.9,1.2,19.6,4.2C155.5,224.7,126.9,223.1,119.3,216.8
		L119.3,216.8z"/>
	<path class="st8" d="M120.1,217.8c5.2-3.7,15.7-5.9,24.1-6.2c7-0.3,16,0.4,19.8,3.2C156.8,223.9,128.1,223.8,120.1,217.8
		L120.1,217.8z"/>
	<path class="st1" d="M144,220.2c1.8,0,3.2,1.5,3.1,3.3c-0.1,1.8-1.6,3.2-3.4,3.2c-1.8,0-3.2-1.5-3.1-3.3
		C140.7,221.6,142.2,220.2,144,220.2L144,220.2z"/>
	<path class="st2" d="M32.2,445.4c-0.9-1.3-2.7-0.3-3.5,1.6c-3.3,7.9,1.2,22.3,6.8,32.3c4.2,7.6,11.5,14,17,15.9
		c4.3,1.5,7.8-0.2,5.6-4.1L32.2,445.4L32.2,445.4z"/>
	<path class="st1" d="M51.8,436.5c-8.9,1.1-16.6,6.5-19.4,9.5c-0.9,1.6-4.2,17.2,8.6,35.3c4.9,6.9,9.4,9.7,13.1,10.2
		c13.7,1.9,13.9-25.2,14.8-34.1L51.8,436.5L51.8,436.5z"/>
	<path class="st0" d="M69,457.5c0,0,8.4-8.2,15.9-15.5c-6.2-6.5-13.6-14.4-19.5-20.8c-7.7,8.7-13.6,15.4-13.6,15.4
		c-5.5,15-2.1,27.5,3.1,32.3C64.1,477,67.3,464.1,69,457.5L69,457.5z"/>
	<path class="st7" d="M63.6,170.2c-18.2,1.6-23.8-23.5-9.4-28.8c-15-40,6.8-85.1,58.9-97.6c36.1-8.6,78.4,5.3,92.2,47.9
		c9.3,28.6,11.9,57.7,2.9,77.9C186.4,218.8,86.6,219.9,63.6,170.2L63.6,170.2z"/>
	<path class="st5" d="M63.6,170.2c-4.7,1.2-8.5-1.3-11.3-3.2c5.3,1.1,10.5,0.6,15.7-3.6C86,211,171.3,214.1,200.4,182
		C168.7,218.5,84.5,215.3,63.6,170.2L63.6,170.2z"/>
	<path class="st5" d="M50.7,165.5c-6.8-7.2-6.5-20.5,3.6-24.1c-15-40,6.8-85.1,58.9-97.6c36.1-8.6,78.4,5.3,92.2,47.9
		c2.7,8.2,4.8,16.5,6.3,24.6c-17.5-42.9-75.1-13.8-111.4-26.8C87.5,124.5,62.4,138.7,50.7,165.5L50.7,165.5z"/>
	<path class="st8" d="M190.6,109.7c7.9-0.5,14.7,5.6,15.2,13.5c0.5,7.9-5.6,14.7-13.5,15.2c-7.9,0.5-14.7-5.6-15.2-13.5
		C176.7,117,182.7,110.2,190.6,109.7L190.6,109.7z"/>
	<path class="st8" d="M103.1,117.3c8.5-0.5,15.7,5.5,16.2,13.5c0.5,7.9-6,14.7-14.5,15.2c-8.5,0.5-15.7-5.5-16.2-13.5
		C88.2,124.7,94.7,117.8,103.1,117.3L103.1,117.3z"/>
	<path class="st16" d="M104.9,118.7c8.5-0.5,15.7,5.5,16.2,13.5c0.5,7.9-6,14.8-14.5,15.2c-8.5,0.5-15.7-5.5-16.1-13.5
		C89.9,126,96.4,119.2,104.9,118.7L104.9,118.7z"/>
	<path class="st17" d="M106.6,121.9c5.7-0.3,10.6,4,10.9,9.7c0.3,5.7-4,10.6-9.7,10.9c-5.7,0.3-10.6-4-10.9-9.7
		C96.5,127.1,100.9,122.3,106.6,121.9L106.6,121.9z"/>
	<path class="st16" d="M189.5,111.8c7.9-0.5,14.7,5.6,15.2,13.5c0.5,7.9-5.6,14.7-13.5,15.2c-7.9,0.5-14.7-5.6-15.2-13.5
		C175.5,119,181.6,112.2,189.5,111.8L189.5,111.8z"/>
	<path class="st17" d="M187.4,116.1c5.3-0.3,9.8,4.1,10.1,9.8c0.3,5.7-3.7,10.6-8.9,10.9c-5.3,0.3-9.8-4.1-10.1-9.8
		C178.1,121.3,182.1,116.4,187.4,116.1L187.4,116.1z"/>
	<path class="st17" d="M92.4,132.3c5.7-9.4,17.4-12.3,26-5.5c1.9,1.5,3.3,3.4,1.3-0.9c-3.4-7.3-12.9-8.9-19.7-6.4
		c-5.4,1.9-10.6,8.3-10,15.1C90.1,138.3,91,134.6,92.4,132.3L92.4,132.3z"/>
	<path class="st16" d="M101.6,127.2c1.6-0.1,3,1.1,3.1,2.7c0.1,1.6-1.1,3-2.7,3.1c-1.6,0.1-3-1.1-3.1-2.7
		C98.8,128.7,100,127.3,101.6,127.2L101.6,127.2z"/>
	<path class="st16" d="M182.6,121c1.6-0.1,3,1.1,3.1,2.7c0.1,1.6-1.1,3-2.7,3.1c-1.6,0.1-3-1.1-3.1-2.7
		C179.8,122.5,181,121.1,182.6,121L182.6,121z"/>
	<path class="st17" d="M178.3,121.6c-1.8,1.6-3.4,4.1-2-0.4c2.3-7.3,9.7-10.3,16.4-9.3c6.8,1,12.3,6.1,12.4,12.7
		c0,1.2-0.6,0.4-1.1-0.3C198.2,116.4,188.5,112.7,178.3,121.6L178.3,121.6z"/>
	<path class="st8" d="M165.9,147.4c0.3,11.5-17.6,12.3-19.2,4.1c2.1,0.5,4.7,1.4,8.6,1C158.5,152.1,163.2,150.7,165.9,147.4
		L165.9,147.4z"/>
	<path class="st5" d="M58.1,157.1c0,0-2.4-3.7,1.2-4.7c1.9-0.6,3,1,3.7,2.6c0.6,1.5,0.8,3,0.7,3c0,0-0.6-0.7-1.3-1.4
		C61,155.4,58.9,154.1,58.1,157.1L58.1,157.1z"/>
	<path class="st18" d="M135.3,173.6c14,4.7,27.3,0.5,37.9-3.9c4.2-1.8,1.8,5.8,1,7.7c-3.8,10-16.1,16.2-26.6,15
		c-8.9-1-15.2-7.3-17.7-12.8C127.2,173.2,127.1,170.8,135.3,173.6L135.3,173.6z"/>
	<path class="st19" d="M166,187.7c-5.3,3.7-12.1,5.5-18.3,4.8c-8.4-1-14.5-6.6-17.2-11.9C137.7,177.3,164.1,175.6,166,187.7
		L166,187.7z"/>
	<path class="st16" d="M136,173.8c13.1,3.7,25.4,0.3,35.5-3.4c0.3,6.7-8.2,10.6-17.9,11.9C145.1,183.3,138.3,181.2,136,173.8
		L136,173.8z"/>
	<path class="st20" d="M136,173.8c13.1,3.7,25.4,0.3,35.5-3.4c0,0.8-0.1,1.6-0.3,2.3c-14.5,6-26.8,5-34.2,3.4
		C136.6,175.4,136.3,174.7,136,173.8L136,173.8z"/>
	<path class="st10" d="M88.4,114.9c5-5.4,15.2-8.2,20.2-8.8c9.4-1.2,4.6-6.3,0.1-6.1c-8.6,0.3-18.1,5.8-22.7,11.8
		C82.3,116.7,82.5,121.3,88.4,114.9L88.4,114.9z"/>
	<path class="st7" d="M100.1,147.9c13,1.2,22.8,9.7,21.9,18.9c-0.9,9.2-12.2,15.6-25.2,14.3c-13-1.2-22.8-9.7-21.9-18.9
		C75.8,153.1,87.1,146.6,100.1,147.9L100.1,147.9z"/>
	<path class="st21" d="M99.8,148.1c12.7,1.2,22.3,9.5,21.4,18.4c-0.9,9-11.9,15.3-24.6,14c-12.7-1.2-22.3-9.5-21.4-18.4
		C76.1,153.1,87.1,146.9,99.8,148.1L99.8,148.1z"/>
	<path class="st22" d="M99.5,148.3c12.4,1.2,21.8,9.2,21,18c-0.9,8.8-11.6,14.9-24.1,13.7c-12.4-1.2-21.8-9.2-21-18
		C76.3,153.2,87.1,147.1,99.5,148.3L99.5,148.3z"/>
	<path class="st23" d="M99.2,148.5c12.1,1.2,21.3,9,20.5,17.6c-0.8,8.6-11.4,14.6-23.5,13.4c-12.1-1.2-21.3-9-20.5-17.6
		C76.6,153.3,87.1,147.3,99.2,148.5L99.2,148.5z"/>
	<path class="st24" d="M99,148.7c11.8,1.1,20.8,8.8,20,17.2c-0.8,8.4-11.1,14.2-22.9,13.1c-11.9-1.1-20.8-8.8-20-17.2
		C76.8,153.4,87.1,147.5,99,148.7L99,148.7z"/>
	<path class="st25" d="M98.7,148.9c11.6,1.1,20.3,8.6,19.5,16.7c-0.8,8.1-10.8,13.9-22.4,12.8c-11.6-1.1-20.3-8.6-19.5-16.7
		C77.1,153.5,87.1,147.8,98.7,148.9L98.7,148.9z"/>
	<path class="st26" d="M98.4,149.1c11.3,1.1,19.8,8.4,19,16.3c-0.8,7.9-10.6,13.5-21.8,12.5s-19.8-8.4-19-16.3
		C77.3,153.6,87.1,148,98.4,149.1L98.4,149.1z"/>
	<path class="st27" d="M98.1,149.3c11,1,19.3,8.1,18.6,15.9c-0.7,7.7-10.3,13.2-21.3,12.1c-11-1-19.3-8.1-18.6-15.9
		C77.6,153.7,87.1,148.2,98.1,149.3L98.1,149.3z"/>
	<path class="st28" d="M97.8,149.4c10.7,1,18.8,7.9,18.1,15.5c-0.7,7.5-10,12.8-20.7,11.8c-10.7-1-18.8-7.9-18.1-15.5
		C77.8,153.7,87.1,148.4,97.8,149.4L97.8,149.4z"/>
	<path class="st29" d="M97.5,149.6c10.4,1,18.3,7.7,17.6,15c-0.7,7.3-9.7,12.5-20.1,11.5c-10.4-1-18.3-7.7-17.6-15
		C78.1,153.8,87.1,148.7,97.5,149.6L97.5,149.6z"/>
	<path class="st30" d="M97.3,149.8c10.1,0.9,17.8,7.5,17.1,14.6s-9.5,12.1-19.6,11.2S77,168.2,77.7,161
		C78.3,153.9,87.1,148.9,97.3,149.8L97.3,149.8z"/>
	<path class="st31" d="M97,150c9.8,0.9,17.3,7.3,16.6,14.2c-0.7,6.9-9.2,11.8-19,10.9c-9.8-0.9-17.3-7.3-16.6-14.2
		C78.6,154,87.1,149.1,97,150L97,150z"/>
	<path class="st32" d="M96.7,150.2c9.6,0.9,16.8,7,16.2,13.8c-0.6,6.7-8.9,11.4-18.5,10.6c-9.6-0.9-16.8-7-16.2-13.8
		C78.8,154.1,87.1,149.3,96.7,150.2L96.7,150.2z"/>
	<path class="st33" d="M96.4,150.4c9.3,0.9,16.3,6.8,15.7,13.3c-0.6,6.5-8.6,11.1-17.9,10.2c-9.3-0.9-16.3-6.8-15.7-13.3
		C79.1,154.2,87.1,149.6,96.4,150.4L96.4,150.4z"/>
	<path class="st34" d="M96.1,150.6c9,0.8,15.8,6.6,15.2,12.9c-0.6,6.3-8.4,10.8-17.4,9.9c-9-0.8-15.8-6.6-15.2-12.9
		C79.4,154.2,87.1,149.8,96.1,150.6L96.1,150.6z"/>
	<path class="st35" d="M95.8,150.8c8.7,0.8,15.3,6.4,14.7,12.5c-0.6,6.1-8.1,10.4-16.8,9.6c-8.7-0.8-15.3-6.4-14.7-12.5
		C79.6,154.3,87.1,150,95.8,150.8L95.8,150.8z"/>
	<path class="st36" d="M95.5,151c8.4,0.8,14.8,6.2,14.2,12.1c-0.6,5.9-7.8,10.1-16.2,9.3c-8.4-0.8-14.8-6.2-14.2-12.1
		C79.9,154.4,87.1,150.3,95.5,151L95.5,151z"/>
	<path class="st37" d="M95.3,151.2c8.1,0.7,14.3,5.9,13.8,11.6c-0.5,5.7-7.6,9.7-15.7,9c-8.1-0.7-14.3-5.9-13.8-11.6
		C80.1,154.5,87.1,150.5,95.3,151.2L95.3,151.2z"/>
	<path class="st38" d="M95,151.4c7.8,0.7,13.8,5.7,13.3,11.2c-0.5,5.5-7.3,9.4-15.1,8.7c-7.8-0.7-13.8-5.7-13.3-11.2
		C80.4,154.6,87.1,150.7,95,151.4L95,151.4z"/>
	<path class="st39" d="M94.7,151.6c7.6,0.7,13.3,5.5,12.8,10.8c-0.5,5.3-7,9-14.6,8.4c-7.6-0.7-13.3-5.5-12.8-10.8
		C80.6,154.7,87.1,150.9,94.7,151.6L94.7,151.6z"/>
	<path class="st40" d="M94.4,151.8c7.3,0.6,12.8,5.3,12.3,10.4c-0.5,5.1-6.7,8.7-14,8c-7.3-0.6-12.8-5.3-12.3-10.4
		C80.9,154.8,87.1,151.2,94.4,151.8L94.4,151.8z"/>
	<path class="st41" d="M94.1,152c7,0.6,12.3,5.1,11.9,9.9c-0.4,4.9-6.5,8.3-13.4,7.7c-7-0.6-12.3-5.1-11.8-9.9
		C81.1,154.8,87.1,151.4,94.1,152L94.1,152z"/>
	<path class="st42" d="M93.8,152.2c6.7,0.6,11.8,4.8,11.4,9.5c-0.4,4.7-6.2,8-12.9,7.4c-6.7-0.6-11.8-4.8-11.4-9.5
		C81.4,154.9,87.1,151.6,93.8,152.2L93.8,152.2z"/>
	<path class="st43" d="M93.6,152.4c6.4,0.5,11.3,4.6,10.9,9.1c-0.4,4.5-5.9,7.6-12.3,7.1c-6.4-0.5-11.3-4.6-10.9-9.1
		C81.6,155,87.1,151.8,93.6,152.4L93.6,152.4z"/>
	<path class="st44" d="M93.3,152.6c6.1,0.5,10.8,4.4,10.4,8.7c-0.4,4.3-5.6,7.3-11.8,6.8c-6.1-0.5-10.8-4.4-10.4-8.7
		C81.9,155.1,87.1,152.1,93.3,152.6L93.3,152.6z"/>
	<path class="st45" d="M93,152.8c5.8,0.5,10.3,4.2,9.9,8.2c-0.4,4.1-5.4,7-11.2,6.5c-5.8-0.5-10.3-4.2-9.9-8.2
		C82.1,155.2,87.2,152.3,93,152.8L93,152.8z"/>
	<path class="st46" d="M92.7,153c5.5,0.5,9.8,3.9,9.5,7.8c-0.3,3.9-5.1,6.6-10.6,6.1c-5.6-0.5-9.8-3.9-9.5-7.8
		C82.4,155.3,87.2,152.5,92.7,153L92.7,153z"/>
	<path class="st47" d="M92.4,153.2c5.3,0.4,9.3,3.7,9,7.4c-0.3,3.6-4.8,6.3-10.1,5.8c-5.3-0.4-9.3-3.7-9-7.4
		C82.6,155.4,87.2,152.7,92.4,153.2L92.4,153.2z"/>
	<path class="st48" d="M92.1,153.4c5,0.4,8.8,3.5,8.5,6.9c-0.3,3.4-4.6,5.9-9.5,5.5c-5-0.4-8.8-3.5-8.5-6.9
		C82.9,155.4,87.2,153,92.1,153.4L92.1,153.4z"/>
	<path class="st49" d="M91.8,153.6c4.7,0.4,8.3,3.3,8,6.5c-0.3,3.2-4.3,5.6-9,5.2c-4.7-0.4-8.3-3.3-8-6.5
		C83.1,155.5,87.2,153.2,91.8,153.6L91.8,153.6z"/>
	<path class="st50" d="M91.6,153.8c4.4,0.3,7.8,3.1,7.5,6.1c-0.2,3-4,5.2-8.4,4.9c-4.4-0.3-7.8-3.1-7.5-6.1
		C83.4,155.6,87.2,153.4,91.6,153.8L91.6,153.8z"/>
	<path class="st51" d="M91.3,153.9c4.1,0.3,7.3,2.8,7.1,5.7c-0.2,2.8-3.7,4.9-7.9,4.6c-4.1-0.3-7.3-2.8-7.1-5.7
		C83.6,155.7,87.2,153.6,91.3,153.9L91.3,153.9z"/>
	<path class="st52" d="M91,154.1c3.8,0.3,6.8,2.6,6.6,5.2c-0.2,2.6-3.5,4.5-7.3,4.3c-3.8-0.3-6.8-2.6-6.6-5.2
		C83.9,155.8,87.2,153.9,91,154.1L91,154.1z"/>
	<path class="st53" d="M90.7,154.3c3.5,0.2,6.3,2.4,6.1,4.8c-0.2,2.4-3.2,4.2-6.7,3.9c-3.5-0.2-6.3-2.4-6.1-4.8
		C84.1,155.9,87.2,154.1,90.7,154.3L90.7,154.3z"/>
	<path class="st54" d="M90.4,154.5c3.3,0.2,5.8,2.2,5.6,4.4c-0.2,2.2-2.9,3.8-6.2,3.6c-3.3-0.2-5.8-2.2-5.6-4.4
		C84.4,155.9,87.2,154.3,90.4,154.5L90.4,154.5z"/>
	<path class="st55" d="M90.1,154.7c3,0.2,5.3,2,5.1,4c-0.1,2-2.6,3.5-5.6,3.3c-3-0.2-5.3-2-5.1-4C84.7,156,87.2,154.5,90.1,154.7
		L90.1,154.7z"/>
	<path class="st56" d="M89.9,154.9c2.7,0.2,4.8,1.7,4.7,3.5c-0.1,1.8-2.4,3.1-5.1,3c-2.7-0.2-4.8-1.7-4.7-3.5
		C84.9,156.1,87.2,154.8,89.9,154.9L89.9,154.9z"/>
	<path class="st57" d="M89.6,155.1c2.4,0.1,4.3,1.5,4.2,3.1c-0.1,1.6-2.1,2.8-4.5,2.7c-2.4-0.1-4.3-1.5-4.2-3.1
		C85.2,156.2,87.2,155,89.6,155.1L89.6,155.1z"/>
	<path class="st58" d="M89.3,155.3c2.1,0.1,3.8,1.3,3.7,2.7c-0.1,1.4-1.8,2.5-3.9,2.4c-2.1-0.1-3.8-1.3-3.7-2.7
		C85.4,156.3,87.2,155.2,89.3,155.3L89.3,155.3z"/>
	<path class="st59" d="M89,155.5c1.8,0.1,3.3,1.1,3.2,2.3c0,1.2-1.6,2.1-3.4,2c-1.8-0.1-3.3-1.1-3.2-2.3
		C85.7,156.4,87.2,155.5,89,155.5L89,155.5z"/>
	<path class="st60" d="M88.7,155.7c1.5,0,2.8,0.9,2.7,1.8c0,1-1.3,1.8-2.8,1.7c-1.5,0-2.8-0.9-2.7-1.8
		C85.9,156.5,87.2,155.7,88.7,155.7L88.7,155.7z"/>
	<path class="st61" d="M88.4,155.9c1.2,0,2.3,0.6,2.3,1.4s-1,1.4-2.3,1.4c-1.3,0-2.3-0.6-2.3-1.4C86.2,156.5,87.2,155.9,88.4,155.9
		L88.4,155.9z"/>
	<path class="st10" d="M201.3,105.9c-5.2-4.3-15.1-4.9-19.8-4.5c-8.9,0.8-5-5.2-0.7-6c8.1-1.5,17.5,1.9,22.5,7
		C207.2,106.4,207.5,111,201.3,105.9L201.3,105.9z"/>
	<path class="st7" d="M189.6,142.5c-10,2.6-16.9,12-15.2,21c1.6,9,11.1,14.3,21.2,11.7c10-2.6,16.9-12,15.2-21
		C209.1,145.2,199.6,139.9,189.6,142.5L189.6,142.5z"/>
	<path class="st21" d="M189.8,142.7c-9.8,2.5-16.5,11.7-14.9,20.5c1.6,8.8,10.9,13.9,20.7,11.4c9.8-2.5,16.5-11.7,14.9-20.5
		C208.9,145.3,199.6,140.2,189.8,142.7L189.8,142.7z"/>
	<path class="st22" d="M190.1,142.8c-9.6,2.4-16.1,11.4-14.6,20c1.6,8.6,10.6,13.6,20.2,11.2c9.6-2.4,16.1-11.4,14.6-20
		C208.7,145.4,199.7,140.4,190.1,142.8L190.1,142.8z"/>
	<path class="st23" d="M190.3,143c-9.4,2.4-15.8,11.2-14.2,19.6c1.5,8.4,10.4,13.3,19.8,10.9c9.4-2.4,15.8-11.2,14.2-19.6
		C208.5,145.5,199.7,140.6,190.3,143L190.3,143z"/>
	<path class="st24" d="M190.5,143.2c-9.2,2.3-15.4,10.9-13.9,19.1c1.5,8.2,10.1,13,19.3,10.7c9.2-2.3,15.4-10.9,13.9-19.1
		C208.3,145.6,199.7,140.8,190.5,143.2L190.5,143.2z"/>
	<path class="st25" d="M190.8,143.3c-8.9,2.3-15,10.6-13.6,18.6c1.4,8,9.9,12.7,18.8,10.4c8.9-2.3,15-10.6,13.6-18.6
		C208.2,145.7,199.7,141.1,190.8,143.3L190.8,143.3z"/>
	<path class="st26" d="M191,143.5c-8.7,2.2-14.6,10.3-13.2,18.2c1.4,7.8,9.6,12.4,18.3,10.2c8.7-2.2,14.7-10.3,13.2-18.2
		C208,145.8,199.8,141.3,191,143.5L191,143.5z"/>
	<path class="st27" d="M191.3,143.7c-8.5,2.2-14.3,10.1-12.9,17.7c1.4,7.6,9.4,12,17.9,9.9c8.5-2.2,14.3-10.1,12.9-17.7
		C207.8,145.9,199.8,141.5,191.3,143.7L191.3,143.7z"/>
	<path class="st28" d="M191.5,143.8c-8.3,2.1-13.9,9.8-12.6,17.2c1.3,7.4,9.1,11.7,17.4,9.6c8.3-2.1,13.9-9.8,12.6-17.2
		C207.6,146.1,199.8,141.7,191.5,143.8L191.5,143.8z"/>
	<path class="st29" d="M191.8,144c-8.1,2-13.5,9.5-12.2,16.7c1.3,7.2,8.9,11.4,16.9,9.4c8.1-2,13.5-9.5,12.2-16.7
		C207.4,146.2,199.8,142,191.8,144L191.8,144z"/>
	<path class="st30" d="M192,144.2c-7.8,2-13.2,9.3-11.9,16.3c1.3,7,8.6,11.1,16.5,9.1c7.8-2,13.2-9.3,11.9-16.3
		C207.2,146.3,199.8,142.2,192,144.2L192,144.2z"/>
	<path class="st31" d="M192.2,144.3c-7.6,1.9-12.8,9-11.6,15.8c1.2,6.8,8.4,10.8,16,8.9c7.6-1.9,12.8-9,11.6-15.8
		C207,146.4,199.9,142.4,192.2,144.3L192.2,144.3z"/>
	<path class="st32" d="M192.5,144.5c-7.4,1.9-12.4,8.7-11.2,15.3c1.2,6.6,8.1,10.5,15.5,8.6c7.4-1.8,12.4-8.7,11.2-15.3
		C206.8,146.5,199.9,142.6,192.5,144.5L192.5,144.5z"/>
	<path class="st33" d="M192.7,144.7c-7.2,1.8-12.1,8.4-10.9,14.9c1.1,6.4,7.9,10.2,15.1,8.4c7.2-1.8,12.1-8.4,10.9-14.9
		C206.7,146.6,199.9,142.9,192.7,144.7L192.7,144.7z"/>
	<path class="st34" d="M193,144.8c-6.9,1.7-11.7,8.2-10.6,14.4c1.1,6.2,7.6,9.8,14.6,8.1c6.9-1.7,11.7-8.2,10.6-14.4
		C206.5,146.7,199.9,143.1,193,144.8L193,144.8z"/>
	<path class="st35" d="M193.2,145c-6.7,1.7-11.3,7.9-10.2,13.9c1.1,6,7.4,9.5,14.1,7.8c6.7-1.7,11.3-7.9,10.2-13.9
		C206.3,146.8,199.9,143.3,193.2,145L193.2,145z"/>
	<path class="st36" d="M193.5,145.2c-6.5,1.6-11,7.6-9.9,13.4c1,5.8,7.1,9.2,13.7,7.6c6.5-1.6,11-7.6,9.9-13.4
		C206.1,146.9,200,143.5,193.5,145.2L193.5,145.2z"/>
	<path class="st37" d="M193.7,145.3c-6.3,1.6-10.6,7.4-9.6,13c1,5.6,6.9,8.9,13.2,7.3c6.3-1.6,10.6-7.4,9.6-13
		C205.9,147,200,143.8,193.7,145.3L193.7,145.3z"/>
	<path class="st38" d="M193.9,145.5c-6.1,1.5-10.2,7.1-9.3,12.5c1,5.4,6.7,8.6,12.7,7.1c6.1-1.5,10.2-7.1,9.2-12.5
		C205.7,147.2,200,144,193.9,145.5L193.9,145.5z"/>
	<path class="st39" d="M194.2,145.7c-5.8,1.4-9.8,6.8-8.9,12c0.9,5.2,6.4,8.3,12.2,6.8c5.8-1.4,9.8-6.8,8.9-12
		C205.5,147.3,200,144.2,194.2,145.7L194.2,145.7z"/>
	<path class="st40" d="M194.4,145.8c-5.6,1.4-9.5,6.5-8.6,11.6c0.9,5,6.1,7.9,11.8,6.6c5.6-1.4,9.5-6.5,8.6-11.6
		C205.3,147.4,200,144.4,194.4,145.8L194.4,145.8z"/>
	<path class="st41" d="M194.7,146c-5.4,1.3-9.1,6.3-8.3,11.1c0.8,4.8,5.9,7.6,11.3,6.3c5.4-1.3,9.1-6.3,8.3-11.1
		C205.1,147.5,200.1,144.7,194.7,146L194.7,146z"/>
	<path class="st42" d="M194.9,146.1c-5.2,1.3-8.7,6-7.9,10.6c0.8,4.6,5.7,7.3,10.8,6.1c5.2-1.3,8.7-6,7.9-10.6
		C204.9,147.6,200.1,144.9,194.9,146.1L194.9,146.1z"/>
	<path class="st43" d="M195.2,146.3c-5,1.2-8.4,5.7-7.6,10.1c0.8,4.4,5.4,7,10.4,5.8c5-1.2,8.4-5.7,7.6-10.1
		C204.8,147.7,200.1,145.1,195.2,146.3L195.2,146.3z"/>
	<path class="st44" d="M195.4,146.5c-4.7,1.1-8,5.5-7.3,9.7c0.7,4.2,5.2,6.7,9.9,5.5c4.7-1.1,8-5.5,7.3-9.7
		C204.6,147.8,200.1,145.3,195.4,146.5L195.4,146.5z"/>
	<path class="st45" d="M195.6,146.6c-4.5,1.1-7.6,5.2-6.9,9.2c0.7,4,4.9,6.4,9.4,5.3c4.5-1.1,7.6-5.2,6.9-9.2
		C204.4,147.9,200.2,145.6,195.6,146.6L195.6,146.6z"/>
	<path class="st46" d="M195.9,146.8c-4.3,1-7.3,4.9-6.6,8.7c0.7,3.8,4.7,6,9,5c4.3-1,7.3-4.9,6.6-8.7
		C204.2,148,200.2,145.8,195.9,146.8L195.9,146.8z"/>
	<path class="st47" d="M196.1,147c-4.1,1-6.9,4.7-6.3,8.2c0.6,3.6,4.4,5.7,8.5,4.8s6.9-4.7,6.3-8.2C204,148.1,200.2,146,196.1,147
		L196.1,147z"/>
	<path class="st48" d="M196.4,147.1c-3.9,0.9-6.5,4.4-5.9,7.8c0.6,3.4,4.2,5.4,8,4.5c3.9-0.9,6.5-4.4,5.9-7.8
		C203.8,148.3,200.2,146.2,196.4,147.1L196.4,147.1z"/>
	<path class="st49" d="M196.6,147.3c-3.6,0.8-6.1,4.1-5.6,7.3c0.5,3.2,3.9,5.1,7.6,4.3c3.6-0.8,6.1-4.1,5.6-7.3
		C203.6,148.4,200.2,146.5,196.6,147.3L196.6,147.3z"/>
	<path class="st50" d="M196.9,147.5c-3.4,0.8-5.8,3.8-5.3,6.8c0.5,3,3.7,4.8,7.1,4c3.4-0.8,5.8-3.8,5.3-6.8
		C203.4,148.5,200.3,146.7,196.9,147.5L196.9,147.5z"/>
	<path class="st51" d="M197.1,147.6c-3.2,0.7-5.4,3.6-4.9,6.4c0.5,2.8,3.4,4.5,6.6,3.7c3.2-0.7,5.4-3.6,4.9-6.4
		C203.3,148.6,200.3,146.9,197.1,147.6L197.1,147.6z"/>
	<path class="st52" d="M197.3,147.8c-3,0.7-5,3.3-4.6,5.9s3.2,4.1,6.1,3.5c3-0.7,5-3.3,4.6-5.9C203.1,148.7,200.3,147.1,197.3,147.8
		L197.3,147.8z"/>
	<path class="st53" d="M197.6,148c-2.7,0.6-4.7,3-4.3,5.4c0.4,2.4,2.9,3.8,5.7,3.2c2.7-0.6,4.7-3,4.3-5.4
		C202.9,148.8,200.3,147.4,197.6,148L197.6,148z"/>
	<path class="st54" d="M197.8,148.1c-2.5,0.5-4.3,2.8-3.9,4.9c0.3,2.2,2.7,3.5,5.2,3c2.5-0.5,4.3-2.8,3.9-4.9
		C202.7,148.9,200.4,147.6,197.8,148.1L197.8,148.1z"/>
	<path class="st55" d="M198.1,148.3c-2.3,0.5-3.9,2.5-3.6,4.5c0.3,2,2.4,3.2,4.7,2.7c2.3-0.5,3.9-2.5,3.6-4.5
		C202.5,149,200.4,147.8,198.1,148.3L198.1,148.3z"/>
	<path class="st56" d="M198.3,148.5c-2.1,0.4-3.6,2.2-3.3,4c0.3,1.8,2.2,2.9,4.3,2.5c2.1-0.4,3.6-2.2,3.3-4
		C202.3,149.1,200.4,148,198.3,148.5L198.3,148.5z"/>
	<path class="st57" d="M198.6,148.6c-1.9,0.4-3.2,1.9-3,3.5c0.2,1.6,1.9,2.6,3.8,2.2c1.9-0.4,3.2-1.9,3-3.5
		C202.1,149.2,200.4,148.3,198.6,148.6L198.6,148.6z"/>
	<path class="st58" d="M198.8,148.8c-1.6,0.3-2.8,1.7-2.6,3.1c0.2,1.4,1.7,2.3,3.3,2c1.6-0.3,2.8-1.7,2.6-3.1
		C201.9,149.4,200.4,148.5,198.8,148.8L198.8,148.8z"/>
	<path class="st59" d="M199,149c-1.4,0.2-2.4,1.4-2.3,2.6c0.2,1.2,1.4,1.9,2.9,1.7c1.4-0.2,2.5-1.4,2.3-2.6
		C201.7,149.5,200.5,148.7,199,149L199,149z"/>
	<path class="st60" d="M199.3,149.1c-1.2,0.2-2.1,1.1-2,2.1c0.1,1,1.2,1.6,2.4,1.4c1.2-0.2,2.1-1.1,2-2.1
		C201.6,149.6,200.5,148.9,199.3,149.1L199.3,149.1z"/>
	<path class="st61" d="M199.5,149.3c-1,0.1-1.7,0.9-1.6,1.6c0.1,0.8,0.9,1.3,1.9,1.2c1-0.1,1.7-0.9,1.6-1.6
		C201.4,149.7,200.5,149.2,199.5,149.3L199.5,149.3z"/>
	<path class="st62" d="M58.5,257.3c0,0-21.1-30.4-12.6-73.2c6.2-31.6,17.5-44.4,26.8-58.7c11.8-18.3,20.1-28.9,22.6-50.7
		c40.2,28.1,72.6-2.7,106,22.9c10.3,7.9,16,30.4,16,30.4C234.7,44,147.5,3.8,77.6,40.5C0.2,81.2,1.1,214.6,58.5,257.3L58.5,257.3z"
		/>
	<path class="st63" d="M64.1,138.2c2.9-4.5,5.8-8.6,8.5-12.8c5.3-8.3,10-15,13.6-21.8c-29.7-0.8-44.5-16.1-49.7-22.9
		c-4.9,9.2-9.4,19.5-12.3,28.3C32.8,121.5,47.4,133.4,64.1,138.2L64.1,138.2z M154.7,86.9c14.7-0.8,28.9-1,43.2,8.4
		c7.6-9.6,10.9-18.8,12.1-26.7c-4-7.2-9.1-13.6-15.2-19.1C190.9,61.5,180,74.9,154.7,86.9L154.7,86.9z"/>
	<path class="st7" d="M276.7,159.8c-17.7,2.1-23.9-22.3-10-27.9c-15.9-38.6,4.1-83.3,54.6-97.1c35-9.5,76.7,2.9,91.5,44
		c9.9,27.6,13.3,56,5.2,76C398,203.5,300.6,207.6,276.7,159.8L276.7,159.8z"/>
	<path class="st64" d="M265.8,132.3c0.3-0.1,0.6-0.3,0.8-0.4c-1-2.5-1.9-5.1-2.7-7.7c-4.7-30.3,13.6-61.4,31-77.9
		c7.6-4.8,16.3-8.8,26.3-11.5c3.4-0.9,6.8-1.6,10.2-2.1c19.5,0.6,41.2,7.6,50.5,10c1.3,0.3,2.6,0.8,4.1,1.4
		c11.5,7.7,21,19.2,26.6,34.8l0.1,0.3c-7.4,3.1-15.9,0.1-17.8-7.4c1.7,3.3-10.4,7.3-13.1,2c-1.9,3-29.5,10.1-33.1-1.3
		c-5.1,1.2-8.4-0.3-11.4-3.6c-1.2,7.8-18.5,12.1-25.9,6.9c0,0-0.8,4.7-7.8,11.5c-7,6.8-19.7,6.7-19.7,6.7c0.9,4.1,1.1,8.1-3.4,11.4
		c0,0,4,6.7,2.5,15.9c-1.5,9.1-6.7,10-6.7,10s0.4,2.8-0.7,6.1c-1.1,3.3-5.9,4.6-5.9,4.6C268,138.7,266.8,135.5,265.8,132.3
		L265.8,132.3z"/>
	<path class="st5" d="M276.7,159.8c-4.5,1.4-8.4-1-11.1-2.8c5.3,0.9,10.3,0.3,15.2-4c19,45.9,102.3,46.4,129.8,14.1
		C380.7,203.8,298.4,203.2,276.7,159.8L276.7,159.8z"/>
	<path class="st8" d="M398.8,96.9c7.7-0.7,14.5,5,15.2,12.8c0.7,7.7-5,14.5-12.7,15.2c-7.7,0.7-14.5-5-15.2-12.8
		C385.4,104.4,391.1,97.6,398.8,96.9L398.8,96.9z"/>
	<path class="st8" d="M313.6,107c8.2-0.7,15.5,4.9,16.2,12.7c0.7,7.7-5.5,14.6-13.7,15.3c-8.2,0.7-15.5-4.9-16.2-12.7
		C299.3,114.6,305.4,107.7,313.6,107L313.6,107z"/>
	<path class="st16" d="M315.4,108.3c8.3-0.7,15.5,4.9,16.2,12.7c0.7,7.7-5.5,14.6-13.7,15.3c-8.3,0.7-15.5-4.9-16.2-12.7
		C301,115.9,307.1,109,315.4,108.3L315.4,108.3z"/>
	<path class="st17" d="M317.1,111.4c5.5-0.5,10.4,3.6,10.9,9.2c0.5,5.5-3.6,10.4-9.2,10.9c-5.5,0.5-10.4-3.6-10.9-9.2
		C307.5,116.8,311.6,111.9,317.1,111.4L317.1,111.4z"/>
	<path class="st16" d="M397.8,99c7.7-0.7,14.5,5,15.2,12.8c0.7,7.7-5,14.5-12.7,15.2c-7.7,0.7-14.5-5-15.2-12.8
		C384.3,106.5,390,99.7,397.8,99L397.8,99z"/>
	<path class="st17" d="M395.9,103.3c5.1-0.5,9.7,3.7,10.2,9.2c0.5,5.5-3.3,10.4-8.4,10.9c-5.1,0.5-9.7-3.7-10.2-9.2
		C387,108.6,390.7,103.7,395.9,103.3L395.9,103.3z"/>
	<path class="st17" d="M303.6,121.9c5.3-9.3,16.6-12.5,25.2-6.1c1.9,1.4,3.3,3.2,1.2-0.9c-3.5-7-12.8-8.3-19.4-5.7
		c-5.2,2.1-10.1,8.5-9.4,15.1C301.6,127.8,302.3,124.2,303.6,121.9L303.6,121.9z"/>
	<path class="st16" d="M312.5,116.7c1.6-0.1,2.9,1,3.1,2.6c0.1,1.6-1,2.9-2.6,3.1c-1.6,0.1-2.9-1-3.1-2.6
		C309.8,118.2,310.9,116.8,312.5,116.7L312.5,116.7z"/>
	<path class="st16" d="M391.3,108.2c1.6-0.1,2.9,1,3.1,2.6c0.1,1.6-1,2.9-2.6,3.1c-1.6,0.1-2.9-1-3.1-2.6
		C388.6,109.7,389.8,108.3,391.3,108.2L391.3,108.2z"/>
	<path class="st17" d="M387.1,108.9c-1.7,1.6-3.2,4.1-1.9-0.3c2-7.2,9.2-10.3,15.7-9.6c6.7,0.8,12.2,5.6,12.5,12.1
		c0.1,1.2-0.6,0.5-1.1-0.2C406.4,103.2,396.8,99.9,387.1,108.9L387.1,108.9z"/>
	<path class="st8" d="M375.8,134.5c0.6,11.2-16.9,12.6-18.6,4.6c2.1,0.5,4.6,1.3,8.4,0.7C368.8,139.3,373.2,137.7,375.8,134.5
		L375.8,134.5z"/>
	<path class="st5" d="M270.8,147.2c0,0-2.4-3.5,1-4.6c1.8-0.6,3,0.9,3.7,2.5c0.7,1.4,0.9,2.9,0.8,2.9c0,0-0.6-0.7-1.3-1.3
		C273.7,145.4,271.5,144.2,270.8,147.2L270.8,147.2z"/>
	<path class="st18" d="M346.8,160.9c13.8,4.1,26.7-0.4,36.9-4.9c4.1-1.8,1.9,5.6,1.3,7.5c-3.4,9.9-15.2,16.3-25.6,15.5
		c-8.7-0.7-15.1-6.7-17.6-12C338.8,160.8,338.7,158.5,346.8,160.9L346.8,160.9z"/>
	<path class="st19" d="M377.1,173.7c-5.1,3.7-11.6,5.7-17.7,5.2c-8.2-0.7-14.3-6-17.2-11.1C349.2,164.5,374.9,162,377.1,173.7
		L377.1,173.7z"/>
	<path class="st16" d="M347.5,161.1c12.9,3.2,24.8-0.5,34.5-4.4c0.5,6.6-7.7,10.6-17.1,12.1C356.6,170.1,349.9,168.2,347.5,161.1
		L347.5,161.1z"/>
	<path class="st20" d="M347.5,161.1c12.9,3.2,24.8-0.5,34.5-4.4c0.1,0.8,0,1.6-0.2,2.3c-14,6.3-26.1,5.7-33.3,4.4
		C348.1,162.7,347.7,162,347.5,161.1L347.5,161.1z"/>
	<path class="st17" d="M299.2,105.1c4.7-5.4,14.6-8.4,19.4-9.2c9.2-1.5,4.3-6.3-0.1-5.9c-8.4,0.6-17.5,6.2-21.8,12.3
		C293.3,107,293.6,111.5,299.2,105.1L299.2,105.1z"/>
	<path class="st7" d="M311.6,136.9c12.7,0.8,22.6,8.8,22,17.8c-0.6,9-11.4,15.6-24.2,14.8c-12.7-0.8-22.6-8.8-22-17.8
		C288,142.7,298.9,136.1,311.6,136.9L311.6,136.9z"/>
	<path class="st21" d="M311.3,137.1c12.4,0.8,22.1,8.6,21.5,17.4c-0.6,8.8-11.2,15.2-23.6,14.4c-12.4-0.8-22.1-8.6-21.5-17.4
		C288.3,142.8,298.9,136.3,311.3,137.1L311.3,137.1z"/>
	<path class="st22" d="M311,137.3c12.2,0.8,21.6,8.4,21,17c-0.6,8.6-10.9,14.9-23.1,14.1c-12.2-0.8-21.6-8.4-21-17
		C288.5,142.8,298.9,136.5,311,137.3L311,137.3z"/>
	<path class="st23" d="M310.8,137.5c11.9,0.8,21.1,8.2,20.5,16.6c-0.6,8.4-10.7,14.6-22.5,13.8c-11.9-0.8-21.1-8.2-20.5-16.6
		C288.8,142.9,298.9,136.7,310.8,137.5L310.8,137.5z"/>
	<path class="st24" d="M310.5,137.7c11.6,0.7,20.6,8,20,16.2c-0.5,8.2-10.4,14.2-22,13.5c-11.6-0.7-20.6-8-20-16.2
		C289,143,298.9,137,310.5,137.7L310.5,137.7z"/>
	<path class="st25" d="M310.2,137.9c11.3,0.7,20.1,7.8,19.6,15.8c-0.5,8-10.1,13.9-21.5,13.1c-11.3-0.7-20.1-7.8-19.6-15.8
		C289.3,143.1,298.9,137.2,310.2,137.9L310.2,137.9z"/>
	<path class="st26" d="M310,138.1c11,0.7,19.6,7.6,19.1,15.4c-0.5,7.8-9.9,13.5-20.9,12.8c-11-0.7-19.6-7.6-19.1-15.4
		C289.5,143.1,298.9,137.4,310,138.1L310,138.1z"/>
	<path class="st27" d="M309.7,138.3c10.8,0.7,19.1,7.4,18.6,15c-0.5,7.6-9.6,13.2-20.4,12.5c-10.8-0.7-19.1-7.4-18.6-14.9
		C289.8,143.2,298.9,137.6,309.7,138.3L309.7,138.3z"/>
	<path class="st28" d="M309.4,138.5c10.5,0.7,18.6,7.2,18.1,14.5c-0.5,7.4-9.4,12.8-19.9,12.2c-10.5-0.7-18.6-7.2-18.1-14.6
		C290,143.3,298.9,137.9,309.4,138.5L309.4,138.5z"/>
	<path class="st29" d="M309.1,138.7c10.2,0.6,18.1,7,17.6,14.1c-0.5,7.2-9.1,12.5-19.3,11.8c-10.2-0.6-18.1-7-17.6-14.1
		C290.3,143.4,298.9,138.1,309.1,138.7L309.1,138.7z"/>
	<path class="st30" d="M308.9,138.9c9.9,0.6,17.6,6.8,17.2,13.7c-0.5,7-8.9,12.1-18.8,11.5c-9.9-0.6-17.6-6.8-17.2-13.7
		C290.5,143.4,299,138.3,308.9,138.9L308.9,138.9z"/>
	<path class="st31" d="M308.6,139.1c9.6,0.6,17.1,6.6,16.7,13.4c-0.4,6.8-8.6,11.8-18.3,11.2c-9.6-0.6-17.1-6.6-16.7-13.3
		C290.8,143.5,299,138.5,308.6,139.1L308.6,139.1z"/>
	<path class="st32" d="M308.3,139.3c9.4,0.6,16.6,6.4,16.2,12.9c-0.4,6.6-8.4,11.4-17.7,10.9c-9.4-0.6-16.6-6.4-16.2-12.9
		C291,143.6,299,138.7,308.3,139.3L308.3,139.3z"/>
	<path class="st33" d="M308.1,139.5c9.1,0.6,16.1,6.2,15.7,12.5c-0.4,6.4-8.1,11.1-17.2,10.5c-9.1-0.6-16.1-6.2-15.7-12.6
		C291.3,143.7,299,139,308.1,139.5L308.1,139.5z"/>
	<path class="st34" d="M307.8,139.7c8.8,0.5,15.6,6,15.2,12.1c-0.4,6.2-7.8,10.8-16.6,10.2c-8.8-0.5-15.6-6-15.2-12.1
		C291.5,143.7,299,139.2,307.8,139.7L307.8,139.7z"/>
	<path class="st35" d="M307.5,139.9c8.5,0.5,15.1,5.8,14.7,11.7c-0.4,6-7.6,10.4-16.1,9.9c-8.5-0.5-15.1-5.8-14.7-11.7
		C291.8,143.8,299,139.4,307.5,139.9L307.5,139.9z"/>
	<path class="st36" d="M307.2,140.1c8.2,0.5,14.6,5.6,14.3,11.3c-0.4,5.8-7.3,10.1-15.6,9.6c-8.2-0.5-14.6-5.6-14.3-11.3
		C292,143.9,299,139.6,307.2,140.1L307.2,140.1z"/>
	<path class="st37" d="M307,140.3c8,0.5,14.1,5.4,13.8,10.9c-0.3,5.6-7.1,9.7-15,9.2c-8-0.5-14.1-5.4-13.8-10.9
		C292.3,144,299,139.8,307,140.3L307,140.3z"/>
	<path class="st38" d="M306.7,140.5c7.7,0.4,13.6,5.2,13.3,10.5c-0.3,5.4-6.8,9.4-14.5,8.9c-7.7-0.4-13.6-5.2-13.3-10.5
		C292.5,144.1,299,140.1,306.7,140.5L306.7,140.5z"/>
	<path class="st39" d="M306.4,140.7c7.4,0.4,13.1,5,12.8,10.1c-0.3,5.2-6.6,9-14,8.6c-7.4-0.4-13.1-5-12.8-10.1
		C292.8,144.1,299,140.3,306.4,140.7L306.4,140.7z"/>
	<path class="st40" d="M306.2,140.9c7.1,0.4,12.6,4.8,12.4,9.7c-0.3,5-6.3,8.7-13.4,8.3c-7.1-0.4-12.6-4.8-12.4-9.7
		C293,144.2,299,140.5,306.2,140.9L306.2,140.9z"/>
	<path class="st41" d="M305.9,141.1c6.8,0.4,12.2,4.6,11.9,9.3c-0.3,4.8-6.1,8.3-12.9,7.9c-6.8-0.4-12.2-4.6-11.9-9.3
		C293.3,144.3,299,140.7,305.9,141.1L305.9,141.1z"/>
	<path class="st42" d="M305.6,141.3c6.6,0.4,11.7,4.4,11.4,8.9c-0.3,4.6-5.8,8-12.4,7.6c-6.6-0.4-11.7-4.4-11.4-8.9
		C293.5,144.4,299.1,140.9,305.6,141.3L305.6,141.3z"/>
	<path class="st43" d="M305.3,141.5c6.3,0.3,11.2,4.2,10.9,8.5c-0.2,4.4-5.5,7.6-11.8,7.3c-6.3-0.3-11.2-4.2-10.9-8.5
		C293.8,144.4,299.1,141.2,305.3,141.5L305.3,141.5z"/>
	<path class="st44" d="M305.1,141.7c6,0.3,10.7,4,10.4,8.1c-0.2,4.2-5.3,7.3-11.3,7c-6-0.3-10.7-4-10.4-8.1
		C294,144.5,299.1,141.4,305.1,141.7L305.1,141.7z"/>
	<path class="st45" d="M304.8,141.9c5.7,0.3,10.2,3.8,10,7.7c-0.2,4-5,6.9-10.8,6.6c-5.7-0.3-10.2-3.8-9.9-7.7
		C294.3,144.6,299.1,141.6,304.8,141.9L304.8,141.9z"/>
	<path class="st46" d="M304.5,142.1c5.4,0.3,9.7,3.6,9.5,7.3c-0.2,3.8-4.8,6.6-10.2,6.3c-5.4-0.3-9.7-3.6-9.5-7.3
		C294.5,144.7,299.1,141.8,304.5,142.1L304.5,142.1z"/>
	<path class="st47" d="M304.2,142.3c5.2,0.3,9.2,3.4,9,6.9c-0.2,3.6-4.5,6.3-9.7,6c-5.2-0.3-9.2-3.4-9-6.9
		C294.8,144.7,299.1,142,304.2,142.3L304.2,142.3z"/>
	<path class="st48" d="M304,142.5c4.9,0.2,8.7,3.2,8.5,6.5c-0.2,3.4-4.3,5.9-9.1,5.7c-4.9-0.2-8.7-3.2-8.5-6.5
		C295,144.8,299.1,142.3,304,142.5L304,142.5z"/>
	<path class="st49" d="M303.7,142.7c4.6,0.2,8.2,3,8,6.1c-0.2,3.2-4,5.6-8.6,5.3c-4.6-0.2-8.2-3-8-6.1
		C295.3,144.9,299.1,142.5,303.7,142.7L303.7,142.7z"/>
	<path class="st50" d="M303.4,142.9c4.3,0.2,7.7,2.8,7.5,5.7c-0.1,3-3.8,5.2-8.1,5c-4.3-0.2-7.7-2.8-7.5-5.7
		C295.5,145,299.1,142.7,303.4,142.9L303.4,142.9z"/>
	<path class="st51" d="M303.2,143.1c4,0.2,7.2,2.6,7.1,5.3c-0.1,2.8-3.5,4.9-7.5,4.7c-4-0.2-7.2-2.6-7.1-5.3
		C295.8,145,299.1,142.9,303.2,143.1L303.2,143.1z"/>
	<path class="st52" d="M302.9,143.3c3.7,0.2,6.7,2.4,6.6,4.9c-0.1,2.6-3.3,4.5-7,4.4c-3.7-0.2-6.7-2.4-6.6-4.9
		C296,145.1,299.1,143.1,302.9,143.3L302.9,143.3z"/>
	<path class="st53" d="M302.6,143.5c3.5,0.1,6.2,2.2,6.1,4.5c-0.1,2.4-3,4.2-6.5,4.1c-3.5-0.1-6.2-2.2-6.1-4.5
		C296.3,145.2,299.2,143.4,302.6,143.5L302.6,143.5z"/>
	<path class="st54" d="M302.3,143.7c3.2,0.1,5.7,2,5.6,4.1c-0.1,2.2-2.7,3.8-5.9,3.7c-3.2-0.1-5.7-2-5.6-4.1
		C296.5,145.3,299.2,143.6,302.3,143.7L302.3,143.7z"/>
	<path class="st55" d="M302.1,143.9c2.9,0.1,5.2,1.8,5.1,3.7c-0.1,2-2.5,3.5-5.4,3.4c-2.9-0.1-5.2-1.8-5.1-3.7
		S299.2,143.8,302.1,143.9L302.1,143.9z"/>
	<path class="st56" d="M301.8,144.1c2.6,0.1,4.7,1.6,4.7,3.3c-0.1,1.8-2.2,3.1-4.9,3.1c-2.6-0.1-4.7-1.6-4.7-3.3
		C297,145.4,299.2,144,301.8,144.1L301.8,144.1z"/>
	<path class="st57" d="M301.5,144.3c2.3,0,4.2,1.4,4.2,2.9c0,1.6-2,2.8-4.3,2.7c-2.3,0-4.2-1.4-4.2-2.9
		C297.3,145.5,299.2,144.3,301.5,144.3L301.5,144.3z"/>
	<path class="st58" d="M301.3,144.5c2.1,0,3.7,1.2,3.7,2.5c0,1.4-1.7,2.5-3.8,2.4c-2.1,0-3.7-1.2-3.7-2.5
		C297.5,145.6,299.2,144.5,301.3,144.5L301.3,144.5z"/>
	<path class="st59" d="M301,144.7c1.8,0,3.2,1,3.2,2.1c0,1.2-1.5,2.1-3.2,2.1c-1.8,0-3.2-1-3.2-2.1
		C297.8,145.6,299.2,144.7,301,144.7L301,144.7z"/>
	<path class="st60" d="M300.7,144.9c1.5,0,2.7,0.8,2.7,1.7c0,1-1.2,1.8-2.7,1.8c-1.5,0-2.7-0.8-2.7-1.7
		C298,145.7,299.2,144.9,300.7,144.9L300.7,144.9z"/>
	<path class="st61" d="M300.4,145.1c1.2,0,2.2,0.6,2.3,1.3c0,0.8-0.9,1.4-2.2,1.5c-1.2,0-2.2-0.6-2.3-1.3
		C298.3,145.8,299.2,145.1,300.4,145.1L300.4,145.1z"/>
	<path class="st17" d="M409.1,92.9c-5.2-4-14.9-4.3-19.5-3.8c-8.7,1-5.1-5-0.9-5.8c7.9-1.7,17.1,1.4,22.1,6.1
		C414.9,93.1,415.4,97.7,409.1,92.9L409.1,92.9z"/>
	<path class="st7" d="M398.8,129c-9.7,2.8-16.1,12.2-14.2,21c1.9,8.8,11.3,13.6,21,10.8c9.7-2.8,16.1-12.2,14.2-21
		C417.9,131,408.5,126.2,398.8,129L398.8,129z"/>
	<path class="st21" d="M399,129.1c-9.5,2.7-15.7,11.9-13.9,20.5c1.8,8.6,11,13.3,20.6,10.5c9.5-2.7,15.7-11.9,13.9-20.5
		C417.8,131.1,408.5,126.4,399,129.1L399,129.1z"/>
	<path class="st22" d="M399.3,129.3c-9.3,2.7-15.4,11.6-13.6,20c1.8,8.4,10.8,13,20.1,10.3c9.3-2.7,15.4-11.6,13.6-20
		C417.6,131.2,408.6,126.6,399.3,129.3L399.3,129.3z"/>
	<path class="st23" d="M399.5,129.4c-9.1,2.6-15,11.4-13.3,19.5c1.7,8.2,10.5,12.7,19.6,10.1c9.1-2.6,15-11.4,13.3-19.5
		C417.4,131.3,408.6,126.8,399.5,129.4L399.5,129.4z"/>
	<path class="st24" d="M399.8,129.6c-8.9,2.6-14.7,11.1-13,19.1c1.7,8,10.3,12.4,19.1,9.8c8.9-2.6,14.7-11.1,13-19.1
		C417.2,131.4,408.6,127,399.8,129.6L399.8,129.6z"/>
	<path class="st25" d="M400,129.7c-8.7,2.5-14.3,10.8-12.7,18.6c1.7,7.8,10,12.1,18.7,9.6c8.7-2.5,14.3-10.8,12.7-18.6
		C417,131.5,408.7,127.2,400,129.7L400,129.7z"/>
	<path class="st26" d="M400.2,129.9c-8.4,2.4-14,10.5-12.4,18.1c1.6,7.6,9.8,11.8,18.2,9.4c8.4-2.4,14-10.5,12.4-18.1
		C416.8,131.7,408.7,127.5,400.2,129.9L400.2,129.9z"/>
	<path class="st27" d="M400.5,130c-8.2,2.4-13.6,10.3-12.1,17.7c1.6,7.4,9.5,11.5,17.8,9.1c8.2-2.4,13.6-10.3,12.1-17.7
		C416.7,131.8,408.7,127.7,400.5,130L400.5,130z"/>
	<path class="st28" d="M400.7,130.2c-8,2.3-13.3,10-11.8,17.2c1.5,7.2,9.3,11.2,17.3,8.9c8-2.3,13.3-10,11.8-17.2
		C416.5,131.9,408.7,127.9,400.7,130.2L400.7,130.2z"/>
	<path class="st29" d="M401,130.4c-7.8,2.2-12.9,9.7-11.4,16.7c1.5,7,9,10.9,16.8,8.7c7.8-2.2,12.9-9.7,11.4-16.7
		C416.3,132,408.8,128.1,401,130.4L401,130.4z"/>
	<path class="st30" d="M401.2,130.5c-7.6,2.2-12.6,9.4-11.1,16.2c1.4,6.8,8.8,10.6,16.4,8.4c7.6-2.2,12.6-9.4,11.1-16.2
		C416.1,132.1,408.8,128.3,401.2,130.5L401.2,130.5z"/>
	<path class="st31" d="M401.5,130.7c-7.4,2.1-12.2,9.2-10.8,15.8c1.4,6.6,8.5,10.3,15.9,8.2c7.4-2.1,12.2-9.2,10.8-15.8
		C415.9,132.2,408.8,128.6,401.5,130.7L401.5,130.7z"/>
	<path class="st32" d="M401.7,130.8c-7.2,2-11.9,8.9-10.5,15.3c1.4,6.4,8.3,10,15.4,7.9c7.2-2,11.9-8.9,10.5-15.3
		C415.8,132.3,408.9,128.8,401.7,130.8L401.7,130.8z"/>
	<path class="st33" d="M401.9,131c-6.9,2-11.5,8.6-10.2,14.8c1.3,6.2,8,9.7,15,7.7c6.9-2,11.5-8.6,10.2-14.8
		C415.6,132.5,408.9,129,401.9,131L401.9,131z"/>
	<path class="st34" d="M402.2,131.1c-6.7,1.9-11.2,8.3-9.9,14.4c1.3,6,7.8,9.4,14.5,7.5c6.7-1.9,11.2-8.3,9.9-14.4
		C415.4,132.6,408.9,129.2,402.2,131.1L402.2,131.1z"/>
	<path class="st35" d="M402.4,131.3c-6.5,1.8-10.8,8.1-9.6,13.9c1.2,5.8,7.5,9.1,14,7.2c6.5-1.8,10.8-8.1,9.6-13.9
		C415.2,132.7,408.9,129.4,402.4,131.3L402.4,131.3z"/>
	<path class="st36" d="M402.7,131.4c-6.3,1.8-10.5,7.8-9.3,13.4c1.2,5.6,7.3,8.8,13.6,7c6.3-1.8,10.5-7.8,9.3-13.4
		C415,132.8,409,129.7,402.7,131.4L402.7,131.4z"/>
	<path class="st37" d="M402.9,131.6c-6.1,1.7-10.1,7.5-9,13c1.1,5.4,7,8.5,13.1,6.8c6.1-1.7,10.1-7.5,9-12.9
		C414.9,132.9,409,129.9,402.9,131.6L402.9,131.6z"/>
	<path class="st38" d="M403.1,131.7c-5.9,1.6-9.8,7.2-8.7,12.5c1.1,5.2,6.8,8.2,12.6,6.5c5.9-1.6,9.8-7.2,8.7-12.5
		C414.7,133,409,130.1,403.1,131.7L403.1,131.7z"/>
	<path class="st39" d="M403.4,131.9c-5.7,1.6-9.4,7-8.3,12c1.1,5.1,6.5,7.9,12.2,6.3c5.7-1.6,9.4-7,8.3-12
		C414.5,133.1,409,130.3,403.4,131.9L403.4,131.9z"/>
	<path class="st40" d="M403.6,132.1c-5.4,1.5-9,6.7-8,11.5c1,4.9,6.2,7.6,11.7,6.1c5.5-1.5,9.1-6.7,8-11.5
		C414.3,133.2,409.1,130.5,403.6,132.1L403.6,132.1z"/>
	<path class="st41" d="M403.9,132.2c-5.2,1.4-8.7,6.4-7.7,11.1c1,4.7,6,7.3,11.2,5.8c5.2-1.4,8.7-6.4,7.7-11.1
		C414.1,133.4,409.1,130.8,403.9,132.2L403.9,132.2z"/>
	<path class="st42" d="M404.1,132.4c-5,1.4-8.3,6.1-7.4,10.6c0.9,4.5,5.7,7,10.8,5.6c5-1.4,8.3-6.1,7.4-10.6
		C414,133.5,409.1,131,404.1,132.4L404.1,132.4z"/>
	<path class="st43" d="M404.4,132.5c-4.8,1.3-8,5.9-7.1,10.1c0.9,4.3,5.5,6.7,10.3,5.3c4.8-1.3,8-5.9,7.1-10.1
		C413.8,133.6,409.2,131.2,404.4,132.5L404.4,132.5z"/>
	<path class="st44" d="M404.6,132.7c-4.6,1.3-7.6,5.6-6.8,9.7c0.8,4.1,5.2,6.4,9.8,5.1c4.6-1.3,7.6-5.6,6.8-9.7
		C413.6,133.7,409.2,131.4,404.6,132.7L404.6,132.7z"/>
	<path class="st45" d="M404.8,132.8c-4.4,1.2-7.3,5.3-6.5,9.2c0.8,3.9,5,6.1,9.4,4.9c4.4-1.2,7.3-5.3,6.5-9.2
		C413.4,133.8,409.2,131.6,404.8,132.8L404.8,132.8z"/>
	<path class="st46" d="M405.1,133c-4.2,1.1-6.9,5-6.2,8.7c0.8,3.7,4.7,5.8,8.9,4.6c4.2-1.1,6.9-5,6.2-8.7
		C413.2,133.9,409.2,131.8,405.1,133L405.1,133z"/>
	<path class="st47" d="M405.3,133.1c-3.9,1.1-6.6,4.8-5.9,8.2c0.7,3.5,4.5,5.5,8.4,4.4c3.9-1.1,6.6-4.8,5.9-8.2
		C413,134,409.3,132.1,405.3,133.1L405.3,133.1z"/>
	<path class="st48" d="M405.6,133.3c-3.7,1-6.2,4.5-5.6,7.8c0.7,3.3,4.2,5.2,8,4.2c3.7-1,6.2-4.5,5.6-7.8
		C412.9,134.1,409.3,132.3,405.6,133.3L405.6,133.3z"/>
	<path class="st49" d="M405.8,133.4c-3.5,0.9-5.9,4.2-5.3,7.3c0.6,3.1,4,4.9,7.5,3.9c3.5-0.9,5.9-4.2,5.3-7.3
		C412.7,134.3,409.3,132.5,405.8,133.4L405.8,133.4z"/>
	<path class="st50" d="M406,133.6c-3.3,0.9-5.5,3.9-4.9,6.8c0.6,2.9,3.7,4.6,7,3.7c3.3-0.9,5.5-3.9,4.9-6.8
		C412.5,134.4,409.3,132.7,406,133.6L406,133.6z"/>
	<path class="st51" d="M406.3,133.7c-3.1,0.8-5.2,3.6-4.6,6.4c0.5,2.7,3.5,4.3,6.6,3.5c3.1-0.8,5.2-3.7,4.6-6.4
		C412.3,134.5,409.4,132.9,406.3,133.7L406.3,133.7z"/>
	<path class="st52" d="M406.5,133.9c-2.9,0.7-4.8,3.4-4.3,5.9c0.5,2.5,3.2,4,6.1,3.2c2.9-0.7,4.8-3.4,4.3-5.9
		C412.1,134.6,409.4,133.2,406.5,133.9L406.5,133.9z"/>
	<path class="st53" d="M406.8,134.1c-2.7,0.7-4.5,3.1-4,5.4c0.4,2.3,3,3.7,5.6,3c2.7-0.7,4.5-3.1,4-5.4
		C412,134.7,409.4,133.4,406.8,134.1L406.8,134.1z"/>
	<path class="st54" d="M407,134.2c-2.5,0.6-4.1,2.8-3.7,4.9c0.4,2.1,2.7,3.3,5.2,2.7c2.4-0.6,4.1-2.8,3.7-4.9
		C411.8,134.8,409.5,133.6,407,134.2L407,134.2z"/>
	<path class="st55" d="M407.3,134.4c-2.2,0.5-3.8,2.5-3.4,4.5c0.4,1.9,2.5,3.1,4.7,2.5c2.2-0.5,3.8-2.5,3.4-4.5
		C411.6,134.9,409.5,133.8,407.3,134.4L407.3,134.4z"/>
	<path class="st56" d="M407.5,134.5c-2,0.5-3.4,2.3-3.1,4c0.3,1.7,2.2,2.7,4.2,2.3c2-0.5,3.4-2.3,3.1-4
		C411.4,135.1,409.5,134,407.5,134.5L407.5,134.5z"/>
	<path class="st57" d="M407.7,134.7c-1.8,0.4-3,2-2.8,3.5c0.3,1.5,2,2.5,3.8,2c1.8-0.4,3.1-2,2.8-3.5S409.5,134.3,407.7,134.7
		L407.7,134.7z"/>
	<path class="st58" d="M408,134.8c-1.6,0.4-2.7,1.7-2.5,3.1c0.2,1.3,1.7,2.2,3.3,1.8c1.6-0.3,2.7-1.7,2.5-3.1
		C411.1,135.3,409.6,134.5,408,134.8L408,134.8z"/>
	<path class="st59" d="M408.2,135c-1.4,0.3-2.3,1.4-2.2,2.6c0.2,1.2,1.5,1.9,2.8,1.6c1.4-0.3,2.3-1.4,2.2-2.6
		C410.9,135.4,409.6,134.7,408.2,135L408.2,135z"/>
	<path class="st60" d="M408.5,135.1c-1.2,0.2-2,1.2-1.8,2.1c0.1,1,1.2,1.5,2.4,1.3c1.2-0.2,2-1.2,1.9-2.1
		C410.7,135.5,409.6,134.9,408.5,135.1L408.5,135.1z"/>
	<path class="st61" d="M408.7,135.3c-1,0.2-1.6,0.9-1.5,1.7c0.1,0.8,1,1.2,1.9,1.1c1-0.2,1.6-0.9,1.5-1.6
		C410.5,135.6,409.7,135.1,408.7,135.3L408.7,135.3z"/>
	<path class="st7" d="M83.6,234.2c0,0-16.8,10.7-29,32.3s-20.9,57.3-20.9,57.3s-15.9,13.2-20,20c-2.9,4.8-1.8,7.7,1.7,4.5
		c1.5-1.4,4.4-5.3,6.5-6.7c-1.6,2.1-8.8,12.4-6,14.4c2.9,2,3.7-3.3,11.3-10.8c-4.1,5.8-8.7,13.4-6.2,15.6c2.5,2.2,8-9.8,10.6-12.1
		c-1.8,3.6-5.3,13.1-1.6,13.6c3.7,0.5,6.3-9.2,8.8-11.9l7.8-7.3c0.7,0.8,1.8,7.8,2.8,8.7c1,0.9,2.5,0.8,3.9-2.8
		c2.2-6-1.3-16.6-1.3-16.6c6.3-35.6,18.7-52.1,45-71.2c4.4-3.2,11-14,5.6-22.4C97.3,230.4,89.1,230.1,83.6,234.2L83.6,234.2z"/>
	<path class="st5" d="M83.6,234.2c0,0-16.8,10.7-29,32.3c13.3-4.3,22,5.3,24.8,9.3c5.1-4.9,10.9-9.7,17.7-14.6
		c4.4-3.2,11-14,5.6-22.4C97.3,230.4,89.1,230.1,83.6,234.2L83.6,234.2z"/>
	<path class="st1" d="M67.2,243.4c6.4,10.3,18,20.7,29.4,24.9l-5.9,6.5c-14-4.5-24.7-14.6-29.3-24.3C63,248.3,65.2,245.7,67.2,243.4
		L67.2,243.4z"/>
	<path class="st0" d="M95,267.7c17.8-10.7,30-36.3,11-42.6c-1.7-0.6-1.5-1.9-3.7-1.7c-9.6,1-25.3,10-35,20.1
		C70.2,255.5,83.8,264.2,95,267.7L95,267.7z"/>
	<path class="st15" d="M92,224.4c6.9,33.9,6,49.9-7.1,77.6c2.3,3.4,3.2,4,10.3,4.7c15.5-20.4,23.3-66.3,14.5-89L92,224.4L92,224.4z"
		/>
	<path class="st1" d="M123.3,217.1c0,0,5.5,6.2,16.7,5.1s16.3-7.9,16.3-7.9c5-3.5,12.9-2.1,17.1,1.9c0.9,0.8,0.9,1.4-0.1,3
		c-2,3.2-5.1,8.5-12.7,10.2c-10.7,2.4-15.3-8.2-14.6-8.4l-2.8,1c0,0-5.3,10-16.8,11.4c-11.5,1.4-19.6-11.7-19.6-13.1
		C106.7,218,116.1,212.1,123.3,217.1L123.3,217.1z"/>
	<path class="st65" d="M60.5,144.1c3.8,2.3,10.2,5.8,11.7,5.7c0.9-0.1-1.1,0.3-1,1c0.1,0.7-0.6,1.3-1.5,1.3c-1,0.1-6.3-2.5-10.8-5.4
		L60.5,144.1L60.5,144.1z"/>
	<path class="st65" d="M63.6,170.2c4.8,7,13.1,19.5,26.3,22.7c0.8,0.2,1.3,0.9,1,1.6c-0.3,0.7-1.2,1-2,0.8
		c-9.2-2.3-20-9.4-28.8-24.8C61,170.7,62.2,170.4,63.6,170.2L63.6,170.2z"/>
	<path class="st66" d="M69.2,148.3c1.7,13.3,3.7,28.4,5.4,42.1c7.9,5.9,24.1,15.6,47.1,18.5c44,4.5,96-13.3,93-65.7
		c-25.9,6.1-42.6,0.6-58.8,1.2C134.6,145,113.5,159.5,69.2,148.3L69.2,148.3z"/>
	<path class="st67" d="M69.2,148.3c1.7,13.3,3.7,28.4,5.4,42.1c2,1.5,4.6,3.2,7.6,5c-1-18.5-6.2-38-8.7-46.3
		C72.1,148.8,70.7,148.5,69.2,148.3L69.2,148.3z"/>
	<path class="st68" d="M119.7,208.6c21.1,2.5,43.4,0.7,61.8-8.7c0.7-0.4,1.3-0.8,2-1.3c-3.4-14.8-10.2-43.9-30.9-42.4
		c-20.1,1.4-42.6,40.8-47.4,49.3C109.7,206.7,114.5,207.8,119.7,208.6L119.7,208.6z"/>
	<path class="st69" d="M269.6,132c3.8,2.3,10.2,5.7,11.7,5.5c0.9-0.1-1.1,0.3-1,1c0.1,0.7-0.6,1.3-1.5,1.4c-1,0.1-6.3-2.4-10.8-5.2
		L269.6,132L269.6,132z"/>
	<path class="st69" d="M276.6,159.8c4.8,6.9,13.1,19.2,26.3,22.3c0.8,0.2,1.3,0.9,1,1.5c-0.3,0.7-1.2,1-2,0.8
		c-9.2-2.1-20-9.1-28.8-24.4C274,160.3,275.1,160,276.6,159.8L276.6,159.8z"/>
	<path class="st70" d="M278.4,136c1.7,13.3,3.7,28.3,5.4,42c7.9,5.7,24.1,15.2,47.1,17.8c44,3.8,96-14.8,93-67.2
		c-25.9,6.5-42.6,1.3-58.8,2.1C343.8,131.7,322.6,146.5,278.4,136L278.4,136z"/>
	<path class="st71" d="M278.4,136c1.7,13.3,3.7,28.3,5.4,42c2,1.5,4.6,3.2,7.6,4.9c-1-18.5-6.2-37.9-8.7-46.2
		C281.3,136.5,279.8,136.3,278.4,136L278.4,136z"/>
	<path class="st72" d="M328.9,195.5c21.1,2.1,43.4,0,61.8-9.7c0.7-0.4,1.3-0.9,2-1.3c-3.4-14.7-10.2-43.7-30.9-41.9
		c-20.1,1.7-42.6,41.5-47.4,50C318.9,193.8,323.7,194.9,328.9,195.5L328.9,195.5z"/>
	<path class="st73" d="M273,129.3c7.4-1.1,9.6-18.3,2.9-25.1c0,0,3.2-2.3,4.6-5.8c1.4-3.5-2.9-9.9-2.9-9.9s1.9,2.1,5.8,2
		c3.9-0.1,5.4-3.3,5.4-3.3c7.1,2.6,20-6.5,15.6-12.7c0,0,2.9,1.2,5.6-0.2c2.7-1.4,1.7-5.8,1.7-5.8c1.8,7.8,21.7,6.6,25.7-7.1
		c0,0-1.2,5.2,4.8,6.4c6,1.2,9.6-3.1,9.6-3.1c-0.2,11.7,21.1,14,29.7-0.1c0,0-1.1,6.9,4.6,7.5c5.7,0.6,11.9-5.9,11.9-5.9
		s-2.2,7.3,3.2,10.5c5.4,3.2,10.7-0.2,10.7-0.2c2,6.7,4.4,12.9,6.8,22.4c7.3-3.2,13.7-11.3,6.9-18.4c6.3-10.9,2-32.3-6.8-32.2
		c1.1-6.3-2.7-14.4-9.8-11.9c6.9-9.1-9.4-28-30.3-16.3c1.2-10.3-11.2-17.8-20.5-4.4c0.8-7.2-7.3-9.8-11.9-6.6
		c-7.6-11.6-31.1-0.3-31.7,9.3c0,0-3.9-5.9-11.5-4.9c-7.5,1-9.1,8.7-9.1,8.7s-3.8-1.6-7.1,0.1c-3.2,1.7-4,5.7-4,5.7
		c-20.6-7.5-30.5,11.3-29.2,21.2c0,0-6.6-1.4-10.8,5.8c-4.2,7.2-0.3,12.5-0.3,12.5c-13.5,3.9-15.5,16.1-8.9,27.1
		c-6.2,4.6-4.1,14.6,3.1,12.4c-9,5.7-2.1,25,9.2,21C234,150.4,279.8,151.4,273,129.3L273,129.3z"/>
	<path class="st74" d="M418.9,46.6c0.2-6-3.5-12.5-10-10.1c2.5-3.3,2-7.8-0.7-11.7c-28.2,24.6-134.8,2.1-178,59.8
		c0.3,2.8,1.2,5.8,2.8,8.7c9.5-10,23-24,46.1-30.9C313.9,52.1,386.3,61,418.9,46.6L418.9,46.6z"/>
</g>
<g>
</g>
<g>
</g>
<g>
</g>
<g>
</g>
<g>
</g>
<g>
</g>
<g>
</g>
<g>
</g>
<g>
</g>
<g>
</g>
<g>
</g>
<g>
</g>
<g>
</g>
<g>
</g>
<g>
</g>
</svg>
