<?xml version="1.0" encoding="utf-8"?>
<!-- Generator: Adobe Illustrator 24.1.0, SVG Export Plug-In . SVG Version: 6.00 Build 0)  -->
<svg version="1.1" id="Layer_1" xmlns="http://www.w3.org/2000/svg" xmlns:xlink="http://www.w3.org/1999/xlink" x="0px" y="0px"
	 viewBox="0 0 334.5 318.4" style="enable-background:new 0 0 334.5 318.4;" xml:space="preserve">
<style type="text/css">
	.st0{fill:#4B3828;}
	.st1{fill:#EFAF30;}
	.st2{fill:#D19935;}
	.st3{fill:#BF1737;}
	.st4{fill:#C9112F;}
	.st5{fill:none;stroke:#D0E9EE;stroke-width:0.7262;stroke-miterlimit:10;}
	.st6{fill:#F9F9F9;}
	.st7{fill:#0FAAC9;}
	.st8{opacity:0.61;}
	.st9{fill:#FFFFFF;}
	.st10{fill:#FF6969;}
	.st11{fill:#262626;stroke:#FFFFFF;stroke-miterlimit:10;}
	.st12{opacity:0.61;fill:#FFFFFF;stroke:#FFFFFF;stroke-miterlimit:10;enable-background:new    ;}
	.st13{opacity:0.14;fill:#FFFFFF;stroke:#FFFFFF;stroke-miterlimit:10;enable-background:new    ;}
</style>
<g id="OBJECTS">
	<g>
		<g>
			<g>
				<g>
					<g>
						<path class="st0" d="M90.4,153.7c0.1,0,0.1,0,0.2-0.1c0.3-0.2,0.4-0.5,0.2-0.8c-2.6-4.1-1.9-9.5-1.1-14.7
							c0.7-4.5,1.8-10.7-1.1-15.5c-0.7-1.1-1.5-2.2-2.4-3.1c-0.5-0.5-0.9-1.1-1.3-1.6c-3-3.9-4.3-8.9-3.8-13.8
							c0-0.3-0.2-0.6-0.5-0.7c-0.3,0-0.6,0.2-0.7,0.5c-0.6,5.2,0.9,10.5,4,14.7c0.4,0.6,0.9,1.2,1.4,1.7c0.8,1,1.6,1.9,2.2,3
							c2.4,4.1,1.8,9.1,0.9,14.7c-0.9,5.4-1.5,11,1.3,15.5C89.9,153.6,90.1,153.7,90.4,153.7z"/>
					</g>
					<g>
						<path class="st1" d="M68.3,105.2c1.8,2.4,4.9,4.2,7.8,4.9c3.3,0.8,6.8,0.2,9.4-2.2c5.2-4.8,7.1-12.6,4.9-19.3
							c-1.3-3.9-3.6-7.6-6.8-10.1c-3.5-2.7-8.5-3.9-12.6-2.1c-0.9,0.4-1.8,1.1-2.5,1.8C65,81.5,63.8,86.4,64,91c0.2,4,1,8,2.8,11.6
							C67.2,103.5,67.7,104.4,68.3,105.2z"/>
					</g>
					<g>
						<path class="st2" d="M78.8,110.4L78.8,110.4c1.7,0,3.4-0.4,4.9-1.2c0.5,0.3,0.9,0.8,1.3,1.2c0.2,0.2,0.3,0.6,0,0.7
							c-0.1,0-0.2,0-0.3,0c-0.6-0.1-1.2-0.3-1.8-0.7c0,0.2-0.1,0.3-0.1,0.5c-0.1,0.2-0.2,0.5-0.3,0.7c-0.2,0.2-0.4,0.3-0.7,0.3
							c-0.4-0.1-0.5-0.5-0.6-0.9c-0.3,0.5-0.7,1.1-1.3,1.3c-0.6,0.3-1.4,0.1-1.6-0.4C78.2,111.4,78.4,110.8,78.8,110.4z"/>
					</g>
				</g>
				<g>
					<g>
						<path class="st0" d="M89.7,151.8c-0.1,0-0.1,0-0.2-0.1c-0.3-0.1-0.4-0.5-0.2-0.7c2-4,1.1-8.9-0.1-13.5
							c-1-4.1-2.4-9.7-0.2-14.3c0.5-1.1,1.2-2.1,1.9-3.1c0.4-0.5,0.8-1.1,1.1-1.6c2.4-3.8,3.3-8.5,2.4-13c-0.1-0.3,0.1-0.6,0.4-0.6
							c0.3-0.1,0.6,0.1,0.6,0.4c0.9,4.7,0,9.7-2.6,13.8c-0.4,0.6-0.8,1.1-1.1,1.7c-0.7,1-1.3,1.9-1.8,2.9c-1.9,3.9-1,8.5,0.3,13.6
							c1.2,4.9,2.2,10,0,14.3C90.2,151.7,89.9,151.8,89.7,151.8z"/>
					</g>
					<g>
						<path class="st3" d="M106.2,105.7c-1.5,2.4-4.1,4.2-6.8,5.1c-3,1-6.2,0.7-8.7-1.3c-5.2-4-7.5-11-6-17.3
							c0.9-3.7,2.7-7.3,5.5-9.8c3-2.7,7.5-4.2,11.4-2.9c0.9,0.3,1.7,0.8,2.4,1.4c3.4,2.8,4.8,7.2,5,11.5c0.2,3.7-0.3,7.4-1.7,10.9
							C107.1,104.1,106.7,104.9,106.2,105.7z"/>
					</g>
					<g>
						<path class="st4" d="M97,111.3L97,111.3c-1.6,0.1-3.2-0.1-4.6-0.7c-0.4,0.4-0.8,0.8-1.1,1.2c-0.1,0.2-0.2,0.5,0,0.6
							c0.1,0,0.2,0,0.2,0c0.6-0.1,1.1-0.4,1.6-0.8c0.1,0.1,0.1,0.3,0.2,0.4c0.1,0.2,0.2,0.5,0.4,0.6c0.2,0.2,0.4,0.3,0.7,0.2
							c0.3-0.1,0.4-0.5,0.5-0.9c0.4,0.4,0.7,0.9,1.3,1.1c0.5,0.2,1.3,0,1.4-0.5C97.7,112.1,97.4,111.6,97,111.3z"/>
					</g>
				</g>
			</g>
			<g>
				<g>
					<path class="st5" d="M62,116.9"/>
				</g>
			</g>
		</g>
	</g>
	<g>
		<g>
			<path class="st6" d="M286.9,140.9c9.7,4,15.1,13.9,10.8,21.8c12.6,0.9,23.3,10.2,23.2,20c-0.1,9.9-11.1,18.9-23.7,19.7
				c7.8,1.2,13.9,6.9,14.9,13c1,6.2-2.8,12.5-9.1,16.3c-6.2,3.8-14.7,5.2-22.6,4.4c5.9,12.5-4.5,31.4-17.7,39
				c-12.7,7.3-32.3,7.6-43.6-1c-2.3,4-7.3,6.9-12.8,8.1s-11.3,1-16.9,0.2c-15.9-2.2-28.4-9.8-34.4-21.5c-3,5.7-11.8,7.8-19.6,8.6
				c-7.6,0.8-15.7,1-22.7-1.3c-7.1-2.3-12.9-7.7-12.5-13.7c-8.7,8.4-26.1,10.1-37.2,3.7c-11.1-6.4-14-19.9-6.2-28.7
				c-1.4,1.6-7.3,1.4-9.3,0.8c-2.6-0.8-4.7-2.9-6.5-4.6c-4.3-4.1-7.1-9.2-7.2-14.5c-0.1-7.1,5.4-14.3,14-16.8
				c-7.4-2-12.7-7.9-12.6-14s5.7-11.9,13.2-13.7c-4.5-4.4-2.7-11.6,3.1-15c3.4-2.1,8.8-3.4,13-2.6c3.5,0.6,5.9,3.2,8.4,4.9
				c-1.6-3.1-1.3-6.7,1.1-9.5c3.9-4.5,11.7-5.3,17.1-1.9c2,1.3,4.9,3.5,4.8,5.7c2.4-4.8,3.5-8.5,8.7-12.1c5.5-3.8,12.2-6.4,18.8-8.5
				c8.8-2.7,18.6-3.1,27.9-2.5c4.3,0.3,8.5,1,12.4,2.4c2.4,0.9,8.5,3.6,8.7,6c-0.5-7.3,8-14.3,17.5-14.2c9.4,0.1,17.7,7.2,17,14.5
				c0.3-4.2,3.7-8,8.3-10.2c4.6-2.2,10.2-3,15.5-2.5c7.4,0.6,14.6,3.3,19.6,7.5c5,4.3,7.9,10.1,7.7,15.9c4.1-2.3,7.9-4.9,13.1-5.5
				C276.5,138.4,282.1,138.9,286.9,140.9z"/>
		</g>
		<g>
			<path class="st7" d="M279,132.7c9.7,4,15.1,13.9,10.8,21.8c12.6,0.9,23.3,10.2,23.2,20c-0.1,9.9-11.1,18.9-23.7,19.7
				c7.8,1.2,13.9,6.9,14.9,13c1,6.2-2.8,12.5-9.1,16.3c-6.2,3.8-14.7,5.2-22.6,4.4c5.9,12.5-4.5,31.4-17.7,39
				c-12.7,7.3-32.3,7.6-43.6-1c-2.3,4-7.3,6.9-12.8,8.1s-11.3,1-16.9,0.2c-15.9-2.2-28.4-9.8-34.4-21.5c-3,5.7-11.8,7.8-19.6,8.6
				c-7.6,0.8-15.7,1-22.7-1.3c-7.1-2.3-12.9-7.7-12.5-13.7c-8.7,8.4-26.1,10.1-37.2,3.7c-11.1-6.4-14-19.9-6.2-28.7
				c-1.4,1.6-7.3,1.4-9.3,0.8c-2.6-0.8-4.7-2.9-6.5-4.6c-4.3-4.1-7.1-9.2-7.2-14.5c-0.1-7.1,5.4-14.3,14-16.8
				c-7.4-2-12.7-7.9-12.6-14c0.1-6.1,5.7-11.9,13.2-13.7c-4.5-4.4-2.7-11.6,3.1-15c3.4-2.1,8.8-3.4,13-2.6c3.5,0.6,5.9,3.2,8.4,4.9
				c-1.6-3.1-1.3-6.7,1.1-9.5c3.9-4.5,11.7-5.3,17.1-1.9c2,1.3,4.9,3.5,4.8,5.7c2.4-4.8,3.5-8.5,8.7-12.1c5.5-3.8,12.2-6.4,18.8-8.5
				c8.8-2.7,18.6-3.1,27.9-2.5c4.3,0.3,8.5,1,12.4,2.4c2.4,0.9,8.5,3.6,8.7,6c-0.5-7.3,8-14.3,17.5-14.2c9.4,0.1,17.7,7.2,17,14.5
				c0.3-4.2,3.7-8,8.3-10.2s10.2-3,15.5-2.5c7.4,0.6,14.6,3.3,19.6,7.5c5,4.3,7.9,10.1,7.7,15.9c4.1-2.3,7.9-4.9,13.1-5.5
				C268.4,130.2,274,130.8,279,132.7z"/>
		</g>
	</g>
	<g class="st8">
		<g>
			<path class="st9" d="M249.7,202.1c-0.9-1.7-1.6-3.5-3.3-4.5c-1.2-0.8-2.9-1.2-4.1-0.1c-3,2.6,0.3,7.1,2.1,9.3
				c1,1.3,1.9,2.8,3.1,3.8c1.2,1,2.4,0.8,3.6-0.2c1.2-1,2.2-2.3,3.1-3.6c1.2-1.8,2.4-4,2.3-6.2c0-1.9-1.4-3.6-3.4-3.1
				c-2.1,0.5-3.6,2.8-4.5,4.7c-0.3,0.7,0.7,1.4,1.1,0.6c0.7-1.4,1.6-3,3-3.8c0.5-0.3,1.3-0.5,1.8-0.2c0.6,0.4,0.7,1.1,0.8,1.8
				c0.1,1.9-1,3.9-2,5.4c-0.7,1-1.4,2-2.3,2.9c-0.7,0.7-1.6,1.6-2.5,0.9c-1.1-0.8-1.9-2-2.6-3.1c-0.7-1-1.5-2-2.2-3.1
				c-0.7-1.2-1.6-2.8-1.1-4.2c0.5-1.6,2-1.5,3.2-0.7c1.5,0.9,2.2,2.6,2.9,4.1C249,203.4,250.1,202.8,249.7,202.1L249.7,202.1z"/>
		</g>
	</g>
	<g class="st8">
		<path class="st10" d="M210,181.6c-0.5-0.3-1.2-0.7-1.9-0.8c-1-0.2-2.4,0-2.1,1.3c0.2,1,2.1,1.7,3,2c0.7,0.2,2.4,1,3.1,0.7
			c0.8-0.3,0.9-2.3,0.9-2.9c0-0.8-0.1-1.8-0.5-2.5c-0.5-0.8-1.5-1.1-2.1-0.1C210,179.9,210,181,210,181.6"/>
		<g>
			<path class="st9" d="M211.4,179.5c-1.2-0.7-2.5-1.3-3.9-1.2c-1.8,0.1-3.6,0.9-4.1,2.6c-0.2,0.9-0.1,2,0.4,2.8
				c0.4,0.7,1.1,1.2,1.8,1.6c0.9,0.6,1.9,0.9,2.8,1.3c0.9,0.3,1.8,0.6,2.7,0.8c0.9,0.1,1.8,0,2.5-0.4c0.9-0.5,1.3-1.3,1.6-2.1
				s0.4-1.8,0.4-2.7c0-1.4-0.2-2.8-0.9-4c-0.5-0.9-1.4-1.6-2.5-1.9c-1.3-0.3-2.7,0-3.6,0.9c-1.2,1.1-1.5,2.9-1.4,4.5
				c0.1,0.7,0.2,1.3,0.8,1.8c0.4,0.4,1.2,0.8,2,0.7c0.7,0,1.4-0.2,2-0.7c0.4-0.5,0.9-1.1,0.8-1.8c-0.1-0.5-0.1-1,0-1.5
				c0,0.2-0.1,0.4-0.1,0.7c0-0.3,0.1-0.5,0.2-0.7c-0.1,0.2-0.2,0.4-0.3,0.6c0.1-0.1,0.1-0.3,0.2-0.4c-0.1,0.2-0.3,0.3-0.4,0.5
				c0.1-0.1,0.1-0.1,0.2-0.2c-0.2,0.1-0.3,0.3-0.5,0.4c0.1-0.1,0.2-0.1,0.3-0.1c-0.2,0.1-0.4,0.2-0.7,0.3c0.1,0,0.1,0,0.2,0
				c-0.2,0-0.4,0.1-0.8,0.1c0.1,0,0.1,0,0.2,0c-0.2,0-0.4-0.1-0.8-0.1c0.1,0,0.2,0,0.3,0.1c-0.2-0.1-0.4-0.2-0.7-0.3
				c0.1,0,0.2,0.1,0.3,0.2c-0.2-0.1-0.3-0.3-0.5-0.4c0.1,0.1,0.2,0.2,0.3,0.3c-0.1-0.2-0.3-0.3-0.4-0.5c0.1,0.2,0.2,0.3,0.3,0.5
				c-0.1-0.2-0.2-0.4-0.3-0.6c0.1,0.4,0.2,0.7,0.3,1.1c0-0.2-0.1-0.4-0.1-0.7c0.1,0.8,0.1,1.6,0,2.4c0-0.2,0.1-0.4,0.1-0.7
				c-0.1,0.4-0.1,0.8-0.3,1.2c0.1-0.2,0.2-0.4,0.3-0.6c0,0.1-0.1,0.2-0.2,0.3c0.1-0.2,0.3-0.3,0.4-0.5c0,0.1-0.1,0.1-0.1,0.1
				c0.2-0.1,0.3-0.3,0.5-0.4c0,0-0.1,0-0.1,0.1c0.2-0.1,0.4-0.2,0.7-0.3c-0.1,0-0.1,0-0.2,0.1c0.2,0,0.4-0.1,0.8-0.1
				c-0.1,0-0.2,0-0.4,0c0.2,0,0.4,0.1,0.8,0.1c-1-0.1-2-0.5-2.8-0.9c0.2,0.1,0.4,0.2,0.7,0.3c-0.7-0.2-1.2-0.5-1.8-0.9
				c0.2,0.1,0.3,0.3,0.5,0.4c-0.2-0.1-0.3-0.3-0.4-0.4c0.1,0.2,0.3,0.3,0.4,0.5c-0.1-0.1-0.2-0.2-0.2-0.4c0.1,0.2,0.2,0.4,0.3,0.6
				c0-0.1-0.1-0.2-0.1-0.4c0,0.2,0.1,0.4,0.1,0.7c0-0.1,0-0.2,0-0.4c0,0.2-0.1,0.4-0.1,0.7c0-0.1,0-0.2,0.1-0.2
				c-0.1,0.2-0.2,0.4-0.3,0.6c0-0.1,0.1-0.1,0.1-0.2c-0.1,0.2-0.3,0.3-0.4,0.5c0.1-0.1,0.1-0.1,0.2-0.2c-0.2,0.1-0.3,0.3-0.5,0.4
				c0.1-0.1,0.2-0.1,0.3-0.1c-0.2,0.1-0.4,0.2-0.7,0.3c0.1-0.1,0.3-0.1,0.4-0.1c-0.2,0-0.4,0.1-0.8,0.1c0.2,0,0.4,0,0.7,0
				c-0.2,0-0.4-0.1-0.8-0.1c0.2,0,0.4,0.1,0.7,0.2c-0.2-0.1-0.4-0.2-0.7-0.3c0.5,0.2,1,0.5,1.4,0.7c1.2,0.7,3.1,0.3,3.7-0.9
				C213,181.7,212.7,180.2,211.4,179.5L211.4,179.5z"/>
		</g>
	</g>
	<g class="st8">
		<g>
			<g>
				<path class="st9" d="M229.6,186.4c1.4,0.8,2.8,1.7,4.2,2.7c0-0.3,0-0.6,0-0.9c-4.7,5.2-9.4,10.5-14,15.9c0.3,0,0.8-0.1,1.1-0.1
					c-0.9-0.7-1.9-1.1-2.8-1.7c0.1,0.3,0.1,0.6,0.2,0.9c3.6-6,8.4-11.2,12.3-17c0.4-0.7-0.8-1.3-1.2-0.6c-3.8,5.8-8.7,11.1-12.3,17
					c-0.2,0.3-0.1,0.7,0.2,0.9c0.9,0.5,1.9,0.8,2.5,1.5c0.3,0.3,0.8,0.2,1.1-0.1c4.5-5.3,9.1-10.5,13.8-15.7c0.2-0.2,0.3-0.7,0-0.9
					c-1.4-1-3-2-4.4-2.9C229.6,184.9,228.8,186,229.6,186.4L229.6,186.4z"/>
			</g>
		</g>
		<g>
			<g>
				<path class="st9" d="M219.4,200.9c0.9,0.5,1.5,1.1,2.4,1.6c0.3,0.2,0.8,0.1,1-0.2c0.2-0.3,0.1-0.7-0.2-0.9
					c-0.9-0.5-1.5-1.1-2.4-1.6c-0.3-0.2-0.8-0.1-1,0.2C218.9,200.3,219.1,200.7,219.4,200.9L219.4,200.9z"/>
			</g>
		</g>
		<g>
			<g>
				<path class="st9" d="M220.4,198.9c0.8,0.8,1.9,1.4,2.8,2c0.3,0.2,0.8,0.1,1-0.2s0.1-0.7-0.2-0.9c-0.4-0.3-0.9-0.6-1.4-0.9
					c-0.1-0.1-0.2-0.2-0.3-0.2c-0.1,0,0,0,0,0s-0.1,0-0.1-0.1c-0.1,0-0.1-0.1-0.2-0.1c-0.2-0.2-0.4-0.4-0.7-0.5
					c-0.2-0.2-0.8-0.2-1,0C220.1,198.3,220.1,198.6,220.4,198.9L220.4,198.9z"/>
			</g>
		</g>
		<g>
			<g>
				<path class="st9" d="M217,202.8c-0.7,1.6-1.8,3.1-2,4.9c0,0.3,0.3,0.6,0.7,0.6c1.1-0.1,2-0.8,2.7-1.5c0.3-0.3,0.7-0.6,1-0.8
					c0.5-0.4,1.1-0.7,1.5-1.2c0.2-0.3,0-0.7-0.2-0.9c-0.3-0.2-0.8,0-1,0.2c-0.2,0.3-0.9,0.7-1.2,1c-0.3,0.2-0.7,0.5-1,0.8
					c-0.2,0.1-0.3,0.3-0.5,0.4c-0.2,0.2-0.3,0.2-0.4,0.3c-0.2,0.1-0.3,0.2-0.5,0.3c0,0-0.1,0,0,0h-0.1h-0.1c-0.1,0,0.1,0,0,0
					c0.2,0.2,0.4,0.4,0.7,0.6c0-0.1,0.1-0.3,0.1-0.5c0.1-0.2,0.1-0.4,0.2-0.6c0.1-0.4,0.3-0.7,0.4-1.1c0.4-0.8,0.9-1.6,1.2-2.4
					c0.1-0.3-0.1-0.7-0.4-0.8C217.4,202.3,217.1,202.5,217,202.8L217,202.8z"/>
			</g>
		</g>
		<path class="st11" d="M217.4,206c-0.2-0.1-0.4-0.3-0.5-0.4c-0.4-0.3-1.1,0.3-0.7,0.6l0,0v0.1c-0.1,0-0.1,0.1-0.2,0.2
			c-0.1,0.1-0.1,0.3-0.2,0.4c-0.2,0.5,0.5,0.9,0.8,0.4v-0.1c0.3,0.1,0.7-0.1,0.7-0.4C217.5,206.9,217.8,206.3,217.4,206z"/>
		<path class="st11" d="M224.3,196.8c-0.5,0-0.5,0.8,0,0.8C224.9,197.7,224.9,196.8,224.3,196.8z"/>
		<path class="st11" d="M226.6,193.8c-0.5,0-0.5,0.8,0,0.8C227.3,194.6,227.3,193.8,226.6,193.8z"/>
		<path class="st11" d="M229.2,190.6c-0.5,0-0.5,0.8,0,0.8C229.8,191.5,229.8,190.6,229.2,190.6z"/>
		<g>
			<g>
				<path class="st9" d="M211.8,210c1,1.5,1.6,3.4-0.1,4.6c-1.1,0.8-2.2,0.8-3.4,0.2c-2.3-1.1-4.1-3.4-6.8-3.5
					c-3.2-0.1-6.2,2.2-6.7,5.1c-0.3,2.9,2.1,5.7,5.1,6.2c3.3,0.5,6.7-1.4,7.1-4.5c0.1-0.8-1.2-1.1-1.3-0.3c-0.4,2.6-3.1,4.2-5.8,3.6
					c-2.8-0.6-4.7-3.7-3.3-6.1c0.8-1.2,2-2,3.5-2.4c1.3-0.3,2.4-0.1,3.6,0.5c2,1.1,3.7,3.2,6.2,3.2c1.5,0,3.2-1,3.8-2.3
					c0.9-1.6,0.1-3.4-0.8-4.9C212.5,208.6,211.4,209.3,211.8,210L211.8,210z"/>
			</g>
		</g>
	</g>
	<path class="st12" d="M229.3,243.5c-2.2,0-2.2,3.4,0,3.4C231.4,246.9,231.4,243.5,229.3,243.5z"/>
	<path class="st13" d="M174.9,216.9"/>
	<g class="st8">
		<g>
			<g>
				<path class="st9" d="M263.7,158.3c0,3.3,0,6.7,0,10c0,1.6,2.5,1.6,2.5,0c0-3.3,0-6.7,0-10C266.2,156.7,263.7,156.7,263.7,158.3
					L263.7,158.3z"/>
			</g>
		</g>
		<g>
			<g>
				<path class="st9" d="M259.8,164.4c3.3,0,6.6,0,9.9,0c1.6,0,1.6-2.5,0-2.5c-3.3,0-6.6,0-9.9,0
					C258.2,161.9,258.2,164.4,259.8,164.4L259.8,164.4z"/>
			</g>
		</g>
		<g>
			<g>
				<path class="st9" d="M260.9,161.4c1.9,1.9,3.8,3.8,5.7,5.7c0.5,0.5,1.3,0.5,1.8,0s0.5-1.3,0-1.8c-1.9-1.9-3.8-3.8-5.7-5.7
					c-0.5-0.5-1.3-0.5-1.8,0C260.5,160.1,260.4,160.9,260.9,161.4L260.9,161.4z"/>
			</g>
		</g>
		<g>
			<g>
				<path class="st9" d="M262.7,167.3c2-2,3.9-4.1,5.9-6.1c0.5-0.5,0.5-1.3,0-1.8s-1.3-0.5-1.8,0c-2,2-3.9,4.1-5.9,6.1
					c-0.5,0.5-0.5,1.3,0,1.8C261.4,167.8,262.2,167.8,262.7,167.3L262.7,167.3z"/>
			</g>
		</g>
	</g>
	<g class="st8">
		<g>
			<g>
				<path class="st9" d="M177.9,240.3c0,2.7,0,5.4,0,8.2c0,0.7,0.6,1.3,1.3,1.3s1.3-0.5,1.3-1.3c0-2.7,0-5.4,0-8.2
					c0-0.7-0.6-1.3-1.3-1.3C178.5,239.1,177.9,239.6,177.9,240.3L177.9,240.3z"/>
			</g>
		</g>
		<g>
			<g>
				<path class="st9" d="M174.9,245.5c2.7,0,5.4,0,8.1,0c0.7,0,1.3-0.6,1.3-1.3s-0.5-1.3-1.3-1.3c-2.7,0-5.4,0-8.1,0
					c-0.7,0-1.3,0.6-1.3,1.3C173.7,244.9,174.2,245.5,174.9,245.5L174.9,245.5z"/>
			</g>
		</g>
		<g>
			<g>
				<path class="st9" d="M175.7,242.9c1.5,1.5,3.1,3.1,4.6,4.6c0.5,0.5,1.3,0.5,1.8,0s0.5-1.3,0-1.8c-1.5-1.5-3.1-3.1-4.6-4.6
					c-0.5-0.5-1.3-0.5-1.8,0C175.2,241.7,175.2,242.4,175.7,242.9L175.7,242.9z"/>
			</g>
		</g>
		<g>
			<g>
				<path class="st9" d="M177.5,247.8c1.6-1.7,3.2-3.3,4.8-5c0.5-0.5,0.5-1.3,0-1.8s-1.3-0.5-1.8,0c-1.6,1.7-3.2,3.3-4.8,5
					c-0.5,0.5-0.5,1.3,0,1.8C176.2,248.2,177,248.3,177.5,247.8L177.5,247.8z"/>
			</g>
		</g>
	</g>
</g>
<g id="DESIGNED_BY_FREEPIK">
</g>
</svg>
