<?xml version="1.0" encoding="utf-8"?>
<!-- Generator: Adobe Illustrator 24.1.0, SVG Export Plug-In . SVG Version: 6.00 Build 0)  -->
<svg version="1.1" id="Layer_1" xmlns="http://www.w3.org/2000/svg" xmlns:xlink="http://www.w3.org/1999/xlink" x="0px" y="0px"
	 viewBox="0 0 500 500" style="enable-background:new 0 0 500 500;" xml:space="preserve">
<style type="text/css">
	.st0{fill:#2EDED1;}
	.st1{opacity:0.26;fill:url(#SVGID_1_);}
	.st2{fill:url(#SVGID_2_);}
	.st3{opacity:0.26;}
	.st4{fill:url(#SVGID_3_);}
	.st5{fill:url(#SVGID_4_);}
	.st6{opacity:0.46;fill:url(#SVGID_5_);}
	.st7{fill:url(#SVGID_6_);}
	.st8{opacity:0.26;fill:url(#SVGID_7_);}
	.st9{fill:#27A0D6;}
	.st10{fill:url(#SVGID_8_);}
	.st11{opacity:0.3;fill:url(#SVGID_9_);stroke:#27A0D6;stroke-width:0.25;stroke-miterlimit:10;}
	.st12{opacity:0.3;fill:url(#SVGID_10_);stroke:#27A0D6;stroke-width:0.25;stroke-miterlimit:10;}
	.st13{fill:#2EDED1;stroke:#2EDED1;stroke-miterlimit:10;}
	.st14{stroke:#000000;stroke-miterlimit:10;}
</style>
<g>
	<g>
		<path class="st0" d="M444.7,174.9c-4.5,22.4-38.3,64.2-51.3,77.1c-12.9,12.9-44.3,41.3-65.2,58.7c-20.9,17.4-57.7,70.7-57.7,70.7
			s-5.9,3.5-12.2,3.7c0,0-0.1,0-0.1,0s-0.1,0-0.1,0c-6.3-0.2-12.2-3.7-12.2-3.7s-36.8-53.2-57.7-70.7
			c-20.9-17.4-52.3-45.8-65.2-58.7c-12.9-12.9-46.8-54.8-51.3-77.1c-4.5-22.4-2-42.8-2-42.8s7,52.8,44.8,94.1l43.3,39.3
			c0,0,41.3,34.3,60.3,56.2l11.1,14.9l11.6,15.9l5,8.6c0,0,2.2,3.7,12.3,4.3h0.2c10.1-0.6,12.4-4.3,12.4-4.3l5-8.6l11.6-15.9
			l11.1-14.9c18.9-21.9,60.3-56.2,60.3-56.2l43.3-39.3c37.8-41.3,44.8-94.1,44.8-94.1S449.2,152.5,444.7,174.9z"/>
		<radialGradient id="SVGID_1_" cx="258.2016" cy="258.6696" r="160.9714" gradientUnits="userSpaceOnUse">
			<stop  offset="0" style="stop-color:#49BEB7"/>
			<stop  offset="0.1077" style="stop-color:#58C3BD"/>
			<stop  offset="0.3159" style="stop-color:#80D2CD"/>
			<stop  offset="0.6008" style="stop-color:#C1E9E6"/>
			<stop  offset="0.8538" style="stop-color:#FFFFFF"/>
		</radialGradient>
		<path class="st1" d="M444.7,174.9c-4.5,22.4-38.3,64.2-51.3,77.1c-12.9,12.9-44.3,41.3-65.2,58.7c-20.9,17.4-57.7,70.7-57.7,70.7
			s-5.9,3.5-12.2,3.7c0,0-0.1,0-0.1,0s-0.1,0-0.1,0c-6.3-0.2-12.2-3.7-12.2-3.7s-36.8-53.2-57.7-70.7
			c-20.9-17.4-52.3-45.8-65.2-58.7c-12.9-12.9-46.8-54.8-51.3-77.1c-4.5-22.4-2-42.8-2-42.8s7,52.8,44.8,94.1l43.3,39.3
			c0,0,41.3,34.3,60.3,56.2l11.1,14.9l11.6,15.9l5,8.6c0,0,2.2,3.7,12.3,4.3h0.2c10.1-0.6,12.4-4.3,12.4-4.3l5-8.6l11.6-15.9
			l11.1-14.9c18.9-21.9,60.3-56.2,60.3-56.2l43.3-39.3c37.8-41.3,44.8-94.1,44.8-94.1S449.2,152.5,444.7,174.9z"/>
		<g>
			<linearGradient id="SVGID_2_" gradientUnits="userSpaceOnUse" x1="279.373" y1="89.4078" x2="354.5796" y2="219.6694">
				<stop  offset="0" style="stop-color:#49BEB7"/>
				<stop  offset="0.8538" style="stop-color:#2EDED1"/>
			</linearGradient>
			<path class="st2" d="M305.7,89l28.5-0.4c11,0,20.5,3.2,28.6,9.6c9.2,8,13.9,18,14.1,30.1c0,13.9-4.2,24.8-12.6,32.6
				c-8.4,7.8-18.9,11.7-31.5,11.7c-7.5-0.1-11.3-2.3-11.4-6.6c0-0.7,0.2-1.1,0.5-1.1c0.3,0,1.3,0.3,3.1,0.8c1.8,0.5,3.5,0.8,5.1,0.8
				c9.2,0,16.3-3.3,21.2-10c4.9-6.7,7.3-14.8,7.3-24.3c0-14.8-4.6-25.1-13.7-31.2c-5.2-3.4-11.3-5.2-18.1-5.1
				c-6.9,0-10.6,0.8-11.3,2.1c-0.7,1.8-1,7.3-1,16.5v93.8c0,8.5,0.3,13.9,1,16.3c0.4,1.6,4.2,2.8,11.5,3.4c1,0.1,1.8,0.1,2.3,0.1
				c0.7,1,1,2.2,0.8,3.7c-0.2,1.5-0.5,2.4-0.8,2.7c-13.8-0.7-21.7-1.1-23.7-1.1c-2,0-9.9,0.4-23.4,1.1c-0.8-0.9-1.1-2.1-0.7-3.6
				c0.3-1.5,0.5-2.5,0.7-2.8c3.9,0,7.1-0.4,9.7-1.3c2.6-0.8,4-1.6,4.2-2.3c0.7-2.4,1-7.9,1-16.3v-94c0-8.5-0.3-13.9-1-16.3
				c-0.4-1.6-4.2-2.8-11.5-3.4c-1-0.1-1.8-0.1-2.3-0.1c-0.7-1-1-2.2-0.7-3.7c0.2-1.5,0.5-2.4,0.7-2.7C295.8,88.6,303.7,89,305.7,89z
				"/>
		</g>
		<g class="st3">
			<linearGradient id="SVGID_3_" gradientUnits="userSpaceOnUse" x1="282.4514" y1="159.4557" x2="378.246" y2="159.4557">
				<stop  offset="0" style="stop-color:#49BEB7"/>
				<stop  offset="0.1077" style="stop-color:#58C3BD"/>
				<stop  offset="0.3159" style="stop-color:#80D2CD"/>
				<stop  offset="0.6008" style="stop-color:#C1E9E6"/>
				<stop  offset="0.8538" style="stop-color:#FFFFFF"/>
			</linearGradient>
			<path class="st4" d="M307,87.3l28.5-0.4c11,0,20.5,3.2,28.6,9.6c9.2,8,13.9,18,14.1,30.1c0,13.9-4.2,24.8-12.6,32.6
				c-8.4,7.8-18.9,11.7-31.5,11.7c-7.5-0.1-11.3-2.3-11.4-6.6c0-0.7,0.2-1.1,0.5-1.1s1.3,0.3,3.1,0.8c1.8,0.5,3.5,0.8,5.1,0.8
				c9.2,0,16.3-3.3,21.2-10c4.9-6.7,7.3-14.8,7.3-24.3c0-14.8-4.6-25.1-13.7-31.2c-5.2-3.4-11.3-5.2-18.1-5.1
				c-6.9,0-10.6,0.8-11.3,2.1c-0.7,1.8-1,7.3-1,16.5v93.8c0,8.5,0.3,13.9,1,16.3c0.4,1.6,4.2,2.8,11.5,3.4c1,0.1,1.8,0.1,2.3,0.1
				c0.7,1,1,2.2,0.8,3.7c-0.2,1.5-0.5,2.4-0.8,2.7c-13.8-0.7-21.7-1.1-23.7-1.1c-2,0-9.9,0.4-23.4,1.1c-0.8-0.9-1.1-2.1-0.7-3.6
				c0.3-1.5,0.5-2.5,0.7-2.8c3.9,0,7.1-0.4,9.7-1.3c2.6-0.8,4-1.6,4.2-2.3c0.7-2.4,1-7.9,1-16.3v-94c0-8.5-0.3-13.9-1-16.3
				c-0.4-1.6-4.2-2.8-11.5-3.4c-1-0.1-1.8-0.1-2.3-0.1c-0.7-1-1-2.2-0.7-3.7c0.2-1.5,0.5-2.4,0.7-2.7C297.1,87,305,87.3,307,87.3z"
				/>
		</g>
		<linearGradient id="SVGID_4_" gradientUnits="userSpaceOnUse" x1="69.313" y1="60.0457" x2="244.3738" y2="60.0457">
			<stop  offset="0" style="stop-color:#49BEB7"/>
			<stop  offset="0.8538" style="stop-color:#2EDED1"/>
		</linearGradient>
		<path class="st5" d="M244.4,36c-23.5-15.2-53.3-21.8-83.8-15.9c-50.4,9.7-86.7,50.2-90.8,96.5C65.1,63.7,99.8,15.2,151.5,5.3
			C186.7-1.5,221.1,11.2,244.4,36z"/>
		<linearGradient id="SVGID_5_" gradientUnits="userSpaceOnUse" x1="69.313" y1="60.0457" x2="244.3738" y2="60.0457">
			<stop  offset="0" style="stop-color:#2EDED1"/>
			<stop  offset="9.590545e-02" style="stop-color:#3DE0D4"/>
			<stop  offset="0.2815" style="stop-color:#65E7DD"/>
			<stop  offset="0.5381" style="stop-color:#A6F1EB"/>
			<stop  offset="0.8538" style="stop-color:#FFFFFF"/>
		</linearGradient>
		<path class="st6" d="M244.4,36c-23.5-15.2-53.3-21.8-83.8-15.9c-50.4,9.7-86.7,50.2-90.8,96.5C65.1,63.7,99.8,15.2,151.5,5.3
			C186.7-1.5,221.1,11.2,244.4,36z"/>
		<linearGradient id="SVGID_6_" gradientUnits="userSpaceOnUse" x1="169.7087" y1="108.8774" x2="128.8768" y2="68.0456">
			<stop  offset="0" style="stop-color:#49BEB7"/>
			<stop  offset="0.8538" style="stop-color:#2EDED1"/>
		</linearGradient>
		<circle class="st7" cx="149.3" cy="88.5" r="28.9"/>
		
			<linearGradient id="SVGID_7_" gradientUnits="userSpaceOnUse" x1="627.4759" y1="-402.4503" x2="681.7192" y2="-402.4503" gradientTransform="matrix(-0.4342 -0.925 0.9401 -0.4413 813.2749 517.077)">
			<stop  offset="0" style="stop-color:#49BEB7"/>
			<stop  offset="0.1077" style="stop-color:#58C3BD"/>
			<stop  offset="0.3159" style="stop-color:#80D2CD"/>
			<stop  offset="0.6008" style="stop-color:#C1E9E6"/>
			<stop  offset="0.8538" style="stop-color:#FFFFFF"/>
		</linearGradient>
		<path class="st8" d="M138.9,64.1c14.1-6.6,30.8-0.7,37.3,13.1s0.4,30.4-13.7,37.1c-14.1,6.6-30.8,0.7-37.3-13.1
			C118.7,87.3,124.8,70.7,138.9,64.1z"/>
		<path class="st9" d="M447.2,104.7c0,0-6.5-63.7-81.1-77.2c0,0-57.7-9.5-98.6,34.8s-51.3,75.2-51.3,75.2s-19.9,36.8-7.5,81.6
			c12.4,44.8,60.2,94.1,60.2,94.1s-52.8-26.4-83.1-75.2S154.5,138,154.5,138c-0.3,1,26.4-1.3,41.8-22.9
			c13.3-18.6,43.4-60.6,64.2-78.2c36-30.5,54.1-34.6,83.6-34.8c27.4-0.3,64.2,12.4,82.1,34.8S447.2,104.7,447.2,104.7z"/>
		<linearGradient id="SVGID_8_" gradientUnits="userSpaceOnUse" x1="62.2426" y1="134.8217" x2="294.5836" y2="268.9638">
			<stop  offset="0" style="stop-color:#89CDF6"/>
			<stop  offset="0.1492" style="stop-color:#70BDEE"/>
			<stop  offset="0.4635" style="stop-color:#3295D9"/>
			<stop  offset="0.6769" style="stop-color:#0478C9"/>
		</linearGradient>
		<path class="st10" d="M92.3,82.8c0,0,0.3,0.8,1,2.2c5.1,11,29.1,58.3,61.2,53c0,0,3.5,57.7,31.4,100.1s83.1,75.2,83.1,75.2
			s-45.8-11-72.7-33.4s-58.7-56.7-70.7-82.6S92.3,119.1,92.3,82.8z"/>
		<radialGradient id="SVGID_9_" cx="300.8763" cy="157.6796" r="151.03" gradientUnits="userSpaceOnUse">
			<stop  offset="0.1897" style="stop-color:#27A0D6"/>
			<stop  offset="0.411" style="stop-color:#29A1D6"/>
			<stop  offset="0.4907" style="stop-color:#30A4D8"/>
			<stop  offset="0.5476" style="stop-color:#3BA9DA"/>
			<stop  offset="0.5935" style="stop-color:#4CB0DD"/>
			<stop  offset="0.6329" style="stop-color:#62BAE1"/>
			<stop  offset="0.6677" style="stop-color:#7EC6E6"/>
			<stop  offset="0.6993" style="stop-color:#9ED4ED"/>
			<stop  offset="0.7283" style="stop-color:#C4E5F4"/>
			<stop  offset="0.7541" style="stop-color:#EDF7FC"/>
			<stop  offset="0.7641" style="stop-color:#FFFFFF"/>
		</radialGradient>
		<path class="st11" d="M447.2,104.7c0,0-6.5-63.7-81.1-77.2c0,0-57.7-9.5-98.6,34.8s-51.3,75.2-51.3,75.2s-19.9,36.8-7.5,81.6
			c12.4,44.8,60.2,94.1,60.2,94.1s-52.8-26.4-83.1-75.2S154.5,138,154.5,138c-0.3,1,26.4-1.3,41.8-22.9
			c13.3-18.6,43.4-60.6,64.2-78.2c36-30.5,54.1-34.6,83.6-34.8c27.4-0.3,64.2,12.4,82.1,34.8S447.2,104.7,447.2,104.7z"/>
		<linearGradient id="SVGID_10_" gradientUnits="userSpaceOnUse" x1="62.2426" y1="134.8217" x2="294.5836" y2="268.9638">
			<stop  offset="0" style="stop-color:#FFFFFF"/>
			<stop  offset="8.476967e-02" style="stop-color:#E6F2FA"/>
			<stop  offset="0.2648" style="stop-color:#A7D0EC"/>
			<stop  offset="0.5233" style="stop-color:#439AD7"/>
			<stop  offset="0.6769" style="stop-color:#0478C9"/>
		</linearGradient>
		<path class="st12" d="M92.3,82.8c0,0,0.3,0.8,1,2.2c5.1,11,29.1,58.3,61.2,53c0,0,3.5,57.7,31.4,100.1s83.1,75.2,83.1,75.2
			s-45.8-11-72.7-33.4s-58.7-56.7-70.7-82.6S92.3,119.1,92.3,82.8z"/>
	</g>
	<g>
		<path class="st13" d="M119.8,435.2h7.6v54.5h-7.6V435.2z M130.9,472.8c-1.8-1.2-3.1-2.8-4-4.9l0.5-8.1c0,1.7,0.3,3.1,0.9,4.3
			c0.6,1.2,1.5,2.1,2.6,2.7c1.1,0.6,2.5,0.9,4.1,0.9c2.5,0,4.5-0.8,5.8-2.3c1.4-1.5,2.1-3.7,2.1-6.5v-8.4c0-2.8-0.7-5-2.1-6.6
			c-1.4-1.6-3.3-2.4-5.8-2.4c-1.6,0-3,0.3-4.1,0.9c-1.1,0.6-2,1.5-2.6,2.6c-0.6,1.2-0.9,2.5-0.9,4.2l-0.8-7.5c1.2-2.3,2.7-4,4.6-5.2
			c1.9-1.2,4-1.8,6.3-1.8c2.7,0,5.1,0.6,7,1.8c2,1.2,3.4,3,4.5,5.4c1,2.4,1.5,5.2,1.5,8.6v8.4c0,3.3-0.5,6.1-1.6,8.4
			s-2.6,4.1-4.6,5.4c-2,1.2-4.4,1.8-7.2,1.8C134.8,474.5,132.7,474,130.9,472.8z"/>
		<path class="st14" d="M162.2,419.7h7.6V474h-7.6V419.7z M167,443.6h30.1v7.2H167V443.6z M193.1,419.7h7.6V474h-7.6V419.7z"/>
		<path class="st14" d="M213.4,419.7h7.6v7.6h-7.6V419.7z M213.4,435.2h7.6V474h-7.6V435.2z"/>
		<path class="st14" d="M239.9,473.9c-2-0.4-3.9-1.1-5.6-2c-1.7-0.9-3.4-2-4.8-3.4l4.5-5.6c2.1,1.6,4.2,2.8,6.2,3.6
			c2.1,0.8,4.1,1.2,6.1,1.2c3,0,5.3-0.5,6.8-1.4c1.5-0.9,2.3-2.3,2.3-4.2c0-1.2-0.4-2.2-1.2-2.8c-0.8-0.6-1.8-1-3.1-1.3
			c-1.2-0.2-2.9-0.4-5.2-0.6c-0.2,0-0.4,0-0.6,0c-0.2,0-0.4,0-0.6-0.1c-0.1,0-0.2,0-0.3,0c-0.1,0-0.2,0-0.3,0
			c-2.5-0.2-4.6-0.6-6.4-1.1c-1.7-0.5-3.2-1.5-4.4-3s-1.7-3.6-1.7-6.3c0-2.7,0.6-5,1.7-6.8c1.1-1.8,2.8-3.2,5-4.1
			c2.2-0.9,5-1.4,8.3-1.4c2,0,3.9,0.2,5.8,0.6c1.8,0.4,3.6,0.9,5.2,1.7c1.7,0.7,3.3,1.7,4.8,2.8l-4.6,5.6c-1.9-1.2-3.9-2.2-5.7-2.8
			c-1.9-0.6-3.7-0.9-5.5-0.9c-2.6,0-4.5,0.4-5.8,1.3s-1.9,2.2-1.9,4c0,1,0.4,1.8,1.1,2.4c0.7,0.5,1.7,0.9,2.8,1
			c1.1,0.2,2.7,0.3,4.8,0.4c0.1,0,0.3,0,0.5,0s0.3,0,0.5,0c0.1,0,0.1,0,0.2,0c0.1,0,0.1,0,0.2,0c2.7,0.2,5,0.5,6.9,1.1
			c1.9,0.5,3.5,1.6,4.8,3.3c1.3,1.6,1.9,4,1.9,7c0,2.8-0.6,5.1-1.8,6.9c-1.2,1.8-3,3.2-5.4,4.1c-2.4,0.9-5.4,1.4-9.1,1.4
			C244,474.5,241.9,474.3,239.9,473.9z"/>
		<path class="st14" d="M269.3,435.2h17.5v6.9h-17.5V435.2z M275.5,471.6c-1.5-1.7-2.2-4.3-2.2-7.7v-40h7.6v40
			c0,0.9,0.2,1.7,0.6,2.2c0.4,0.5,0.9,0.8,1.6,0.8h3.7v7.2h-4.4C279.2,474.2,276.9,473.3,275.5,471.6z"/>
		<path class="st14" d="M303.5,472.6c-2.4-1.3-4.2-3.2-5.5-5.8c-1.3-2.5-1.9-5.6-1.9-9.1v-6.3c0-3.5,0.6-6.5,1.9-9
			c1.3-2.5,3.1-4.4,5.5-5.7c2.4-1.3,5.3-2,8.6-2s6.2,0.7,8.6,2c2.4,1.3,4.2,3.2,5.5,5.7c1.3,2.5,1.9,5.5,1.9,9v6.4
			c0,3.5-0.6,6.6-1.9,9.1c-1.3,2.5-3.1,4.4-5.5,5.7c-2.4,1.3-5.3,2-8.6,2S305.9,473.9,303.5,472.6z M318.3,464.8
			c1.5-1.7,2.2-4,2.2-7v-6.4c0-3-0.7-5.3-2.2-7s-3.5-2.5-6.2-2.5s-4.7,0.8-6.2,2.5s-2.2,4-2.2,7v6.4c0,3,0.7,5.4,2.2,7
			c1.5,1.7,3.5,2.5,6.2,2.5S316.8,466.5,318.3,464.8z"/>
		<path class="st14" d="M338.9,435.2h7.6V474h-7.6V435.2z M357.7,442.5c-1-0.4-2.2-0.6-3.5-0.6c-2.4,0-4.3,0.7-5.6,2
			c-1.3,1.3-2,3.2-2,5.5l-0.8-7.5c1.2-2.3,2.7-4.1,4.6-5.4c1.9-1.3,4-1.9,6.3-1.9c1.8,0,3.4,0.3,4.8,0.8c1.4,0.5,2.7,1.3,3.8,2.3
			l-5,6.7C359.6,443.6,358.7,442.9,357.7,442.5z"/>
		<path class="st14" d="M367.5,435.2h7.8l11.9,33.7l-4.2,8.3L367.5,435.2z M401.8,435.2l-16.5,47.9c-0.6,1.8-1.4,3.2-2.4,4.2
			s-2.2,1.8-3.6,2.2c-1.4,0.4-3.2,0.7-5.2,0.7h-1.5v-7.3h1.5c1.4,0,2.5-0.3,3.4-0.9c0.8-0.6,1.6-1.6,2.2-3l14.3-43.8H401.8z"/>
	</g>
</g>
<g>
</g>
<g>
</g>
<g>
</g>
<g>
</g>
<g>
</g>
<g>
</g>
</svg>
