<?xml version="1.0" encoding="utf-8"?>
<!-- Generator: Adobe Illustrator 24.1.0, SVG Export Plug-In . SVG Version: 6.00 Build 0)  -->
<svg version="1.1" id="Layer_1" xmlns="http://www.w3.org/2000/svg" xmlns:xlink="http://www.w3.org/1999/xlink" x="0px" y="0px"
	 viewBox="0 0 512 512" style="enable-background:new 0 0 512 512;" xml:space="preserve">
<style type="text/css">
	.st0{fill:#F7E1DB;}
	.st1{fill:#FA5D3F;}
	.st2{fill:#FAC850;}
	.st3{fill:#79D8EB;}
	.st4{fill:#FFF9F8;}
	.st5{fill:#FFFDFA;}
</style>
<g id="Filled_cutting_stroke_EX">
	<g>
		<g>
			<g>
				<path class="st0" d="M458,176h-10v-40H272v40h-10c-16.6,0-30,13.4-30,30l0,0v242c0,22.1,17.9,40,40,40h176c22.1,0,40-17.9,40-40
					V206C488,189.4,474.6,176,458,176L458,176z"/>
				<path class="st1" d="M232,248h256v192H232V248z"/>
				<path class="st2" d="M296,288h152v72H296V288z"/>
				<path class="st1" d="M268,24h184c11,0,20,9,20,20v82c0,5.5-4.5,10-10,10H258c-5.5,0-10-4.5-10-10V44C248,33,257,24,268,24z"/>
			</g>
		</g>
		<g>
			<path class="st3" d="M198,232h4c38.7,0,70,31.3,70,70v116c0,38.7-31.3,70-70,70h-4c-38.7,0-70-31.3-70-70V302
				C128,263.3,159.3,232,198,232z"/>
			<path class="st4" d="M184,352h88v32h-72L184,352z"/>
		</g>
		<g>
			<circle class="st2" cx="112" cy="400" r="88"/>
			<path class="st5" d="M39.4,350.1l22.6-22.6l122.4,122.4l-22.6,22.6L39.4,350.1z"/>
		</g>
	</g>
</g>
</svg>
