<?xml version="1.0" encoding="utf-8"?>
<!-- Generator: Adobe Illustrator 24.1.0, SVG Export Plug-In . SVG Version: 6.00 Build 0)  -->
<svg version="1.1" id="Layer_1" xmlns="http://www.w3.org/2000/svg" xmlns:xlink="http://www.w3.org/1999/xlink" x="0px" y="0px"
	 viewBox="0 0 512 512" style="enable-background:new 0 0 512 512;" xml:space="preserve">
<style type="text/css">
	.st0{fill:#FFFFFF;}
	.st1{fill:#D12020;}
</style>
<path class="st0" d="M213.3,491c38.6,0,71-27.5,78.4-64H135C142.4,463.5,174.7,491,213.3,491z"/>
<path class="st0" d="M375,309.2c-0.6,0-1.1,0.1-1.6,0.1c-94.1,0-170.7-76.6-170.7-170.7c0-37,11.9-71.1,32-99.1V21.3
	c0-11.8-9.6-21.3-21.3-21.3C201.6,0,192,9.5,192,21.3v23C119.7,54.8,64,116.9,64,192v59.5c0,42.2-18.5,82.1-50.9,109.5
	C4.8,368.1,0,378.4,0,389.3c0,20.6,16.7,37.3,37.3,37.3h352c20.6,0,37.3-16.7,37.3-37.3c0-10.9-4.8-21.2-13.3-28.5
	C396.6,346.6,383.6,328.9,375,309.2z"/>
<path class="st1" d="M373.3,0c-76.5,0-138.7,62.2-138.7,138.7c0,76.5,62.2,138.7,138.7,138.7c76.5,0,138.7-62.2,138.7-138.7
	C512,62.2,449.8,0,373.3,0z"/>
</svg>
