<?xml version="1.0" encoding="utf-8"?>
<!-- Generator: Adobe Illustrator 24.1.0, SVG Export Plug-In . SVG Version: 6.00 Build 0)  -->
<svg version="1.1" id="Layer_1" xmlns="http://www.w3.org/2000/svg" xmlns:xlink="http://www.w3.org/1999/xlink" x="0px" y="0px"
	 viewBox="0 0 406.8 154.6" style="enable-background:new 0 0 406.8 154.6;" xml:space="preserve">
<style type="text/css">
	.st0{fill:#75CAF0;stroke:#75CAF0;stroke-miterlimit:10;}
	.st1{fill:#B4D234;stroke:#B4D234;stroke-miterlimit:10;}
	.st2{fill:#444444;}
</style>
<g>
	<g>
		<path class="st0" d="M182.2,11c0.9,0,1.7,0.3,2.4,1c0.7,0.7,1.1,1.5,1.1,2.5c0,1.7-0.5,5.5-1.6,11.3c-1.3,7.1-2.2,14.7-2.8,22.7
			c-0.5,8-0.8,13.1-0.8,15.1c0,1.1-0.5,2.2-1.5,3.3c-1,1.1-1.9,1.6-2.6,1.6c-0.8,0-1.5-0.3-2.3-1c-0.7-0.6-1.1-1.4-1.1-2.4
			c0-0.9,0.4-4,1.1-9.3c0.6-4.5,0.9-7.7,0.9-9.7c0-1.2-0.2-2-0.5-2.4c-0.3-0.4-0.9-0.7-1.7-0.7c-1.2,0-3.6,0.1-7.1,0.4
			c-3.8,0.3-6.2,0.5-7.2,0.5c-1,0-3.5,0.2-7.6,0.5s-6.3,0.6-6.7,0.8s-0.9,1.8-1.3,4.8c-0.4,3-0.7,5.4-0.8,7.4
			c-0.1,3.4-0.5,6.1-1.1,8.3c-0.6,2.2-1.5,3.3-2.5,3.3c-0.7,0-1.6-0.6-2.6-1.7c-1-1.1-1.5-2.2-1.5-3.3c0-1,0.3-2.6,0.9-5
			c0.8-3.2,1.8-9,2.9-17.2s2.1-16.9,2.9-25.8c0-0.6,0.4-1.2,1-1.8c0.6-0.6,1.2-0.9,1.9-0.9c2.4,0,3.6,1.7,3.6,5.1
			c0,2-0.4,5.2-1.3,9.7c-0.8,4-1.2,6.9-1.2,8.7c0,0.8,0.2,1.3,0.7,1.6c0.5,0.3,1.6,0.5,3.4,0.5c4,0,9.3-0.3,16-1
			c6.7-0.6,10.3-1.6,10.9-2.8c0.5-1.2,1.1-3.9,1.6-8.2c0.5-4.2,0.8-8.7,0.8-13.3c0-0.5,0.4-1.2,1.1-1.9
			C180.5,11.3,181.3,11,182.2,11z"/>
		<path class="st0" d="M224.8,54.2c0,2.5-2.2,5.4-6.6,8.9c-4.4,3.5-8.9,5.2-13.5,5.2c-3.9,0-6.9-1.1-9-3.4c-2.1-2.3-3.2-5.5-3.2-9.6
			c0-6.9,2.3-13.5,7-19.7c4.7-6.2,9.8-9.4,15.3-9.4c1.8,0,3.3,0.6,4.4,1.8c1.1,1.2,1.7,2.6,1.7,4.3c0,3.7-1.8,7.3-5.5,10.7
			c-3.7,3.4-8.5,6.8-14.7,10.1c-1.3,0.7-1.9,1.5-1.9,2.5c0,2,0.6,3.6,1.7,4.8c1.2,1.2,2.9,1.8,5.2,1.8c5.2,0,10.5-2.9,15.9-8.6
			c0.8-0.8,1.4-1.2,1.8-1.2C224.4,52.3,224.8,52.9,224.8,54.2z M199.6,48.5c10.3-6.1,15.4-11,15.4-14.7c0-1.5-0.7-2.2-2-2.2
			c-2.2,0-4.7,1.6-7.5,4.9S200.7,43.8,199.6,48.5z"/>
		<path class="st0" d="M302.5,68.3c-3.3,0-6.1-1.3-8.2-3.8c-2.2-2.5-3.2-5.6-3.2-9.3c0-6.2,2.1-12.4,6.3-18.5
			c4.2-6.1,9.2-9.1,15.1-9.1c3.9,0,7,1.5,9.4,4.5c2.4,3,3.6,6.5,3.6,10.6c0,6.3-2.5,12.1-7.5,17.5C313,65.6,307.9,68.3,302.5,68.3z
			 M297.4,54.2c0,2.4,0.5,4.4,1.5,6c1,1.5,2.4,2.3,4.1,2.3c3.6,0,7.2-2,10.9-5.9c3.6-4,5.4-8.4,5.4-13.2c0-3-0.7-5.4-2.1-7.2
			c-1.4-1.9-3.3-2.8-5.6-2.8c-3.9,0-7.2,2.4-10,7.2C298.8,45.4,297.4,49.9,297.4,54.2z"/>
	</g>
</g>
<g>
	<g>
		<path class="st1" d="M140.9,96.6c0-0.9-0.5-1.5-1.6-1.8c-2-0.5-2.9-1.3-2.9-2.5c0-0.9,0.4-1.8,1.2-2.6c0.8-0.9,1.6-1.3,2.5-1.3
			l5,0.1c2.3,0,5.4-0.2,9.3-0.5c3.8-0.3,6.7-0.5,8.6-0.5c6.6,0,11.9,1.9,16,5.6c4,3.7,6,8.6,6,14.7c0,6.7-2.9,12.8-8.6,18.3
			c-5.7,5.5-13.9,9.5-24.5,12.1c-4.2,1-7,2-8.5,3.1c-2,1.3-3.6,2-4.9,2c-0.9,0-1.7-0.5-2.4-1.5c-0.7-1-1.1-1.7-1.1-2.3
			c0-0.2,0.2-0.9,0.7-1.9c0.5-1.1,0.9-2.2,1.1-3.3c0.2-1.1,0.4-3.1,0.5-5.9c0.1-2.8,0.6-7.4,1.3-13.7s1.4-10.8,1.9-13.4
			C140.7,99,140.9,97.5,140.9,96.6z M147.4,94.2c-2.9,17.1-4.3,29.2-4.3,36.3c0,1.6,0.2,2.7,0.5,3.5c0.2,0.2,0.6,0.3,1.1,0.3
			c1.5,0,5.6-1,12-3c6.5-2,11.8-5.1,15.8-9.3c4.1-4.2,6.1-9,6.1-14.3c0-4.4-1.6-8-4.7-10.6c-3.1-2.6-7.3-4-12.4-4
			c-3.1,0-6.9,0.3-11.3,0.9C149.3,94,148.4,94.1,147.4,94.2z"/>
		<path class="st1" d="M202.8,141.8c-3.3,0-6-1.2-8.1-3.7c-2.1-2.5-3.2-5.6-3.2-9.2c0-6.2,2.1-12.3,6.2-18.3c4.2-6,9.1-9,14.9-9
			c3.8,0,6.9,1.5,9.3,4.4s3.6,6.5,3.6,10.5c0,6.2-2.5,12-7.4,17.3C213.3,139.1,208.1,141.8,202.8,141.8z M197.8,127.9
			c0,2.4,0.5,4.4,1.5,5.9c1,1.5,2.4,2.3,4,2.3c3.6,0,7.2-2,10.8-5.9c3.6-3.9,5.4-8.3,5.4-13.1c0-2.9-0.7-5.3-2.1-7.2
			c-1.4-1.8-3.2-2.8-5.6-2.8c-3.9,0-7.2,2.4-9.9,7.1C199.2,119.1,197.8,123.6,197.8,127.9z"/>
		<path class="st1" d="M243.8,142.1c-3.6,0-6.4-1-8.3-3.1c-1.9-2.1-2.9-5-2.9-8.7c0-6.3,2.5-12.9,7.4-19.8c5-6.9,9.6-10.4,13.8-10.4
			c1.9,0,3.6,1,5,3.1s2.1,4.3,2.1,6.7c0,1.4-0.3,2.6-0.9,3.7c-0.6,1-1.2,1.5-1.9,1.5c-1.4,0-2.4-1.4-2.9-4.2c-0.6-3-1.6-4.5-2.8-4.5
			c-2.5,0-5.4,3-8.8,8.9c-3.4,5.9-5.1,10.9-5.1,15c0,4.1,2.3,6.1,6.9,6.1c3.5,0,7.7-1.7,12.4-5c1.7-1.2,2.9-1.8,3.7-1.8
			c0.8,0,1.2,0.5,1.2,1.4c0,1.8-2.1,4.1-6.4,6.9C252.1,140.7,247.9,142.1,243.8,142.1z"/>
		<path class="st1" d="M285.9,103.7c2.5-0.2,4.8-0.4,7-0.7c2.2-0.2,4-0.4,5.4-0.4c1.8,0,3,0.2,3.5,0.5c0.5,0.3,0.7,0.9,0.7,1.8
			c0,1.9-1.4,3-4.1,3.2c-3.5,0.2-6.7,0.5-9.6,0.9c-2.9,0.4-4.5,0.7-4.7,1c-0.2,0.3-1,3.1-2.2,8.6c-1.2,5.5-1.8,9-1.8,10.6
			c0,2.6,0.3,4.4,1,5.3c0.7,0.9,1.7,1.3,3.1,1.3c2.1,0,4.9-1.5,8.6-4.6c1.4-1.3,2.5-1.9,3.3-1.9c1,0,1.5,0.6,1.5,1.7
			c0,1.7-1.7,4-5,6.7c-3.3,2.7-6.7,4.1-10.2,4.1c-5.8,0-8.7-3.4-8.7-10.3c0-2.5,0.6-6.3,1.8-11.5c1.2-5.2,1.8-8.2,1.8-9.3
			c0-0.4-0.3-0.5-0.9-0.5l-3.7,0.3c-3.1,0-4.6-1.2-4.6-3.7c0-1.4,0.7-2.1,2.1-2.1h7.4c0.5,0,0.9-0.2,1.3-0.7s0.9-2,1.7-4.6
			c0.7-2.6,1.4-5.2,2-7.7c0.6-2.5,1.7-3.8,3.4-3.8c1,0,1.8,0.4,2.4,1.1c0.6,0.7,0.9,1.4,0.9,2c0,0.3-0.4,2-1.3,5.1L285.9,103.7z"/>
		<path class="st1" d="M316.3,141.8c-3.3,0-6-1.2-8.1-3.7c-2.1-2.5-3.2-5.6-3.2-9.2c0-6.2,2.1-12.3,6.2-18.3c4.2-6,9.1-9,14.9-9
			c3.8,0,6.9,1.5,9.3,4.4s3.6,6.5,3.6,10.5c0,6.2-2.5,12-7.4,17.3C326.8,139.1,321.7,141.8,316.3,141.8z M311.3,127.9
			c0,2.4,0.5,4.4,1.5,5.9c1,1.5,2.4,2.3,4,2.3c3.6,0,7.2-2,10.8-5.9c3.6-3.9,5.4-8.3,5.4-13.1c0-2.9-0.7-5.3-2.1-7.2
			c-1.4-1.8-3.2-2.8-5.6-2.8c-3.9,0-7.2,2.4-9.9,7.1C312.7,119.1,311.3,123.6,311.3,127.9z"/>
		<path class="st1" d="M354.7,125.7c0.2-0.4,0.5-1,0.9-1.8c1.6-3.7,3.1-6.7,4.5-8.8c1.4-2.1,2.9-4.2,4.5-6.1
			c1.6-1.9,3.1-3.4,4.5-4.4c1.4-1,2.6-1.7,3.7-2.1c1.1-0.4,2.2-0.6,3.2-0.6c2.1,0,3.8,0.6,5.1,1.9c1.3,1.3,2,2.7,2,4.4
			c0,0.7-0.2,1.4-0.7,2s-1.2,0.9-2.1,0.9c-1,0-1.9-0.4-2.8-1.3c-0.9-0.9-1.8-1.3-2.7-1.3c-2.5,0-5.9,3-10.4,9.1
			c-4.4,6-7.1,12.7-8.1,20c-0.2,1.9-0.7,3.1-1.4,3.7c-0.7,0.6-1.6,0.9-2.8,0.9c-1.2,0-2-0.9-2.6-2.6c-0.5-1.8-0.8-4.7-0.8-8.8
			c0-1.1,0.1-3.6,0.2-7.4c0.1-4.5,0.4-8.2,0.9-11c0.1-0.5,0.2-1.5,0.4-3.2c0.2-1.8,0.4-3.1,0.6-3.8c0.3-0.7,0.8-1.4,1.5-2
			c0.8-0.6,1.6-0.9,2.5-0.9c0.9,0,1.6,0.3,2,0.8s0.7,1.2,0.7,1.8c0,0.9-0.2,2.3-0.7,4c-0.6,1.9-0.9,3.2-1,3.9
			c-0.1,0.8-0.2,1.7-0.4,2.6c-0.2,1-0.5,3.7-0.7,8.1l0,1.3V125.7z"/>
		<path class="st1" d="M392.9,132.8c0,2.4-0.6,4.1-1.8,5c-1.2,1-2.2,1.5-3.1,1.5c-1.8,0-2.7-1.2-2.7-3.5c0-0.9,0.4-2,1.3-3.3
			s1.8-1.9,2.7-1.9c0.6,0,1.3,0.3,2.2,0.8S392.9,132.4,392.9,132.8z M392.9,122.1c-0.6,0-1.4-0.1-2.5-0.3c-1.1-0.2-1.8-0.4-2.2-0.7
			c-0.3-2.6,0.3-7.4,1.8-14.5c1.2-5.7,1.8-9.7,1.8-12c0-3.2,0.6-5.4,1.8-6.5c1.2-1.1,2.2-1.7,2.9-1.7c0.6,0,1.2,0.3,1.8,0.8
			c0.6,0.5,0.9,1.1,0.9,1.7c0,0.5-1.3,6.6-4,18.2c-1.1,4.9-1.7,8.6-1.7,11.2C393.6,120,393.3,121.3,392.9,122.1z"/>
	</g>
</g>
<g>
	<g>
		<g>
			<path class="st2" d="M252.4,62.1l-1.6-6.5l-1.4-5.7c-0.3-1.1-1.4-1.9-2.5-1.7l-4.8,0.5c-1,0.1-2.1-0.5-2.4-1.6
				c-0.8-2.3-1.8-4.7-2.2-12.3c-0.4-7.5,0.4-10,1-12.2c0.2-1,1.2-1.7,2.3-1.5l4.9,0.7c1.1,0.2,2.1-0.6,2.3-1.7l0.8-5.5l1-6.6
				c0.2-1.1-0.6-2.2-1.7-2.5l-5-1.3c-1.3-0.4-2.7-0.2-3.9,0.4c-3.8,2.2-10.3,8.6-9.2,30.2s8.4,28.2,12.4,30.5
				c1.2,0.7,2.6,0.9,3.9,0.5l4.8-1.2C252,64.4,252.7,63.3,252.4,62.1z"/>
		</g>
	</g>
</g>
<g>
	<g>
		<g>
			<path class="st2" d="M279.5,62.1l-1.6-6.5l-1.4-5.7c-0.3-1.1-1.4-1.9-2.5-1.7l-4.8,0.5c-1,0.1-2.1-0.5-2.4-1.6
				c-0.8-2.3-1.8-4.7-2.2-12.3c-0.4-7.5,0.4-10,1-12.2c0.2-1,1.2-1.7,2.3-1.5l4.9,0.7c1.1,0.2,2.1-0.6,2.3-1.7l0.8-5.5l1-6.6
				c0.2-1.1-0.6-2.2-1.7-2.5l-5-1.3c-1.3-0.4-2.7-0.2-3.9,0.4c-3.8,2.2-10.3,8.6-9.2,30.2c1.1,21.6,8.4,28.2,12.4,30.5
				c1.2,0.7,2.6,0.9,3.9,0.5l4.8-1.2C279.1,64.4,279.8,63.3,279.5,62.1z"/>
		</g>
	</g>
</g>
<path class="st1" d="M101.5,64.3c-11.3,0-20.4,9.1-20.4,20.3c0,9.3,6.3,17.4,15.3,19.8v5.8c0,14.1-11.4,25.5-25.5,25.5
	c-14.1,0-25.5-11.4-25.5-25.5c0.1-3.1,0.6-6.1,1.3-9.1c-4.2,0.2-8.5,0.3-12.7,0.4c0.7,2.8,1.1,5.7,1.2,8.7c0,19.7,16,35.7,35.7,35.7
	c19.7,0,35.7-16,35.7-35.7v-5.8c9-2.3,15.3-10.4,15.3-19.7C121.9,73.5,112.8,64.4,101.5,64.3z M101.2,95C95.6,95,91,90.4,91,84.8
	s4.6-10.2,10.2-10.2c5.6,0,10.2,4.6,10.2,10.2S106.8,95,101.2,95z"/>
<path class="st0" d="M60.6,78.3h-0.7c9.9-6.4,15.9-17.4,16.1-29.2V28.6c0-8.4-6.8-15.3-15.3-15.3c0,0-0.1,0-0.1,0H53
	c-2.8,0-5.1,2.3-5.1,5.1c0,2.8,2.3,5.1,5.1,5.1h7.6c2.8,0,5.1,2.3,5.1,5.1v20.5c0,14-11.3,25.4-25.3,25.5v3.7v-3.7
	c-14.1,0.1-25.5-11.3-25.6-25.3c0,0,0-0.1,0-0.1V28.6c0-2.8,2.3-5.1,5.1-5.1H27c2.8,0,5.1-2.3,5.1-5.1c0-2.8-2.3-5.1-5.1-5.1h-7.2
	c-8.3,0.2-15,6.9-15,15.3v20.5c0,11.6,5.6,22.5,15.1,29.2c7,6.2,11.8,14.3,13.9,23.3c4.2-0.1,8.5-0.2,12.7-0.4
	C48.8,92.4,53.7,84.4,60.6,78.3z"/>
<g>
</g>
<g>
</g>
<g>
</g>
<g>
</g>
<g>
</g>
<g>
</g>
<g>
</g>
<g>
</g>
<g>
</g>
<g>
</g>
<g>
</g>
<g>
</g>
<g>
</g>
<g>
</g>
<g>
</g>
</svg>
