<?xml version="1.0" encoding="utf-8"?>
<!-- Generator: Adobe Illustrator 21.0.0, SVG Export Plug-In . SVG Version: 6.00 Build 0)  -->
<svg xmlns="http://www.w3.org/2000/svg" xmlns:xlink="http://www.w3.org/1999/xlink" version="1.1" id="Layer_1" x="0px" y="0px" viewBox="0 0 256 256" style="enable-background:new 0 0 256 256;" xml:space="preserve" width="512" height="512">
<style type="text/css">
	.st0{fill:#E9E9EA;}
	.st1{fill:#55ACD5;}
	.st2{fill:#F9D0B4;}
	.st3{fill:#FFCD29;}
	.st4{fill:#6DCC6D;}
	.st5{fill:#EA4647;}
	.st6{fill:#231F20;}
</style>
<g id="Layer_13">
	<path class="st0" d="M225.8,174.6c-1.1-1.1-2.8-1.1-3.8,0l-49.6,49.6c-1.1,1.1-1.1,2.8,0,3.8l8.8,8.8l53.4-53.4L225.8,174.6z"/>
	<path class="st1" d="M250.7,190.3l-8-8c-1.9-1.9-5.1-1.9-7,0L180.9,237c-1.9,1.9-1.9,5.1,0,7l8,8c1.9,1.9,5.1,1.9,7,0l54.8-54.8   C252.7,195.3,252.7,192.2,250.7,190.3C250.7,190.3,250.7,190.3,250.7,190.3z"/>
	<path class="st2" d="M203.9,163.5c-6.1-6.1-7.9-11.7-10.3-15.9c-1.7-3.3-3.9-6.4-6.6-9l-30.2-30.2c-3.3-3.3-8.6-3.3-11.8,0   s-3.3,8.6,0,11.8c-3.3-3.3-8.6-3.3-11.8,0s-3.3,8.6,0,11.8c-3.3-3.3-8.6-3.3-11.8,0s-3.3,8.6,0,11.8l-24.3-24.3   c-3.3-3.2-8.5-3.2-11.8,0c-3.2,3.3-3.2,8.5,0,11.8l38.5,38.6c-3.6-3.6-9.5-3.6-13.2,0s-3.6,9.5,0,13.2l0,0l8.2,8.2   c6.2,6.2,14.1,10.3,22.6,11.9c7,1.9,15.4,0.5,26.3,10.6l7.6,7.4l43.1-43.1L203.9,163.5z"/>
	<path class="st3" d="M161.3,72.5c0.8-0.8,0.8-2.1,0-3c-0.3-0.3-0.7-0.5-1.2-0.6l-51-7.4c-0.7-0.1-1.3-0.5-1.6-1.1L84.7,14.2   c-0.5-1-1.8-1.5-2.8-0.9c-0.4,0.2-0.7,0.5-0.9,0.9L58.2,60.4c-0.3,0.6-0.9,1-1.6,1.1l-51,7.4c-1.1,0.2-1.9,1.2-1.8,2.4   c0.1,0.5,0.3,0.9,0.6,1.2l36.9,36c0.5,0.5,0.7,1.2,0.6,1.8l-8.7,50.8c-0.2,1.1,0.6,2.2,1.7,2.4c0.5,0.1,0.9,0,1.3-0.2l45.6-24   c0.6-0.3,1.3-0.3,1.9,0l19.8,10.4l-18.4-18.4c-3.2-3.3-3.2-8.6,0.1-11.8c3.2-3.2,8.4-3.2,11.7,0l24.3,24.3c-3.3-3.3-3.3-8.5,0-11.8   c1.5-1.5,3.5-2.4,5.7-2.5l-3.3-19.3c-0.1-0.7,0.1-1.4,0.6-1.8L161.3,72.5z"/>
	<path class="st3" d="M79.1,167.3h-1.8v-1.8c0-1.4-1.1-2.5-2.5-2.5s-2.5,1.1-2.5,2.5v1.8h-1.8c-1.4,0-2.5,1.1-2.5,2.5   s1.1,2.5,2.5,2.5h1.8v1.8c0,1.4,1.1,2.5,2.5,2.5s2.5-1.1,2.5-2.5v-1.8h1.8c1.4,0,2.5-1.1,2.5-2.5S80.5,167.3,79.1,167.3L79.1,167.3   z"/>
	<path class="st4" d="M135.7,2c0-0.2-0.1-0.3-0.1-0.5c-0.1-0.2-0.1-0.3-0.2-0.4c-0.1-0.1-0.2-0.3-0.3-0.4c-1-0.9-2.5-0.9-3.5,0   c-0.1,0.1-0.2,0.2-0.3,0.4c-0.1,0.1-0.2,0.3-0.2,0.4c-0.1,0.2-0.1,0.3-0.1,0.5c0,0.2,0,0.3-0.1,0.5c0,0.2,0,0.3,0.1,0.5   c0,0.2,0.1,0.3,0.1,0.5c0.1,0.1,0.1,0.3,0.2,0.4c0.1,0.1,0.2,0.3,0.3,0.4c1,1,2.5,1,3.5,0c0,0,0,0,0,0c0.1-0.1,0.2-0.2,0.3-0.4   c0.1-0.1,0.2-0.3,0.2-0.4c0.1-0.1,0.1-0.3,0.1-0.5c0-0.2,0.1-0.3,0.1-0.5C135.8,2.3,135.7,2.1,135.7,2z"/>
	<path class="st5" d="M84.1,211.6c-0.1-0.3-0.2-0.6-0.4-0.9c-0.1-0.1-0.2-0.3-0.3-0.4c-1-0.9-2.5-0.9-3.5,0   c-0.1,0.1-0.2,0.2-0.3,0.4c-0.1,0.1-0.2,0.3-0.2,0.4c-0.1,0.2-0.1,0.3-0.1,0.5c-0.1,0.3-0.1,0.7,0,1c0,0.2,0.1,0.3,0.1,0.5   c0.1,0.1,0.1,0.3,0.2,0.4c0.1,0.1,0.2,0.3,0.3,0.4c1,1,2.5,1,3.5,0c0,0,0,0,0,0c0.1-0.1,0.2-0.2,0.3-0.4c0.1-0.1,0.2-0.3,0.2-0.4   c0.1-0.1,0.1-0.3,0.1-0.5C84.2,212.2,84.2,211.9,84.1,211.6z"/>
	<path class="st5" d="M123.5,16.5c-4.1-0.8-7.2-4-8-8c0-0.1-0.1-0.2-0.2-0.2c-0.1,0-0.1,0.1-0.2,0.2c-0.8,4.1-4,7.2-8,8   c-0.1,0-0.2,0.1-0.1,0.2c0,0.1,0.1,0.1,0.1,0.1c4.1,0.8,7.2,4,8,8c0,0.1,0.1,0.2,0.2,0.2c0.1,0,0.1-0.1,0.2-0.2c0.8-4.1,4-7.2,8-8   c0.1,0,0.2-0.1,0.1-0.2C123.6,16.6,123.6,16.5,123.5,16.5z"/>
	<path class="st1" d="M56,186.5c-4.1-0.8-7.2-4-8-8c0-0.1-0.1-0.2-0.2-0.2c-0.1,0-0.1,0.1-0.2,0.2c-0.8,4.1-4,7.2-8,8   c-0.1,0-0.2,0.1-0.2,0.2c0,0.1,0.1,0.1,0.2,0.2c4.1,0.8,7.2,4,8,8c0,0.1,0.1,0.2,0.2,0.2c0.1,0,0.1-0.1,0.2-0.2c0.8-4.1,4-7.2,8-8   c0.1,0,0.2-0.1,0.2-0.2C56.2,186.6,56.1,186.5,56,186.5z"/>
	<path class="st6" d="M236.3,181.6l-8.8-8.8c-2-2-5.3-2-7.3,0c0,0,0,0,0,0l-49.6,49.6c-2,2-2,5.3,0,7.3c0,0,0,0,0,0l8.8,8.8   c1,1,2.6,1,3.5,0l53.4-53.4C237.3,184.2,237.3,182.6,236.3,181.6C236.4,181.6,236.4,181.6,236.3,181.6z M181.1,233.3l-7-7   c-0.1-0.1-0.1-0.2,0-0.3l49.6-49.6c0.1-0.1,0.2-0.1,0.3,0l7,7L181.1,233.3z"/>
	<path class="st6" d="M131.8,174.4l-6.4-6.4c-1-1-2.6-1-3.5,0c-1,1-1,2.5,0,3.5l6.4,6.4c1,1,2.6,1,3.5,0   C132.8,177,132.8,175.4,131.8,174.4C131.9,174.4,131.8,174.4,131.8,174.4z"/>
	<path class="st6" d="M130.3,149.2l-7.1-7.1c-1-1-2.6-1-3.5,0c-1,1-1,2.5,0,3.5l7.1,7.1c1,1,2.6,0.9,3.5-0.1   C131.2,151.7,131.2,150.2,130.3,149.2L130.3,149.2z"/>
	<path class="st6" d="M142.1,137.4l-7.1-7.1c-1-1-2.6-1-3.5,0c-1,1-1,2.5,0,3.5l7.1,7.1c1,1,2.6,1,3.5,0   C143.1,140,143.1,138.4,142.1,137.4C142.1,137.4,142.1,137.4,142.1,137.4z"/>
	<path class="st6" d="M153.9,125.6l-7.1-7.1c-1-1-2.6-0.9-3.5,0.1c-0.9,1-0.9,2.5,0,3.5l7.1,7.1c1,1,2.6,0.9,3.5-0.1   C154.9,128.1,154.9,126.5,153.9,125.6z"/>
	<path class="st6" d="M252.5,188.5l-8-8c-2.9-2.9-7.6-2.9-10.5,0l-54.8,54.8c-2.9,2.9-2.9,7.6,0,10.5c0,0,0,0,0,0l8,8   c2.9,2.9,7.6,2.9,10.5,0l54.8-54.8C255.4,196.1,255.4,191.4,252.5,188.5C252.5,188.5,252.5,188.5,252.5,188.5L252.5,188.5z    M249,195.5l-54.8,54.8c-1,1-2.5,1-3.5,0l-8-8c-1-1-1-2.5,0-3.5c0,0,0,0,0,0l54.8-54.8c1-1,2.5-1,3.5,0l8,8   C249.9,193,249.9,194.5,249,195.5L249,195.5z"/>
	<path class="st6" d="M220.3,176.3l-14.6-14.6c-3.4-3.5-6.1-7.5-8.1-12c-0.6-1.2-1.1-2.3-1.7-3.3c-1.8-3.5-4.2-6.8-7-9.6l-30.2-30.2   c-4.2-4.2-11.1-4.2-15.4,0c-2,2-3.2,4.8-3.2,7.7c0,0.3,0,0.7,0,1c-6-0.6-11.3,3.8-11.8,9.8c0,0.3,0,0.7,0,1c0,0.3,0,0.7,0,1   c-5.5-0.5-10.5,3.1-11.6,8.5l-17.9-17.9c-4.3-4.2-11.1-4.1-15.3,0.1c-4.1,4.2-4.1,11,0,15.2l31.7,31.8c-6.4,1.1-10.8,7.2-9.7,13.6   c0.4,2.4,1.6,4.6,3.3,6.4l8.2,8.2c6.5,6.5,14.8,10.9,23.9,12.5c1.8,0.4,3.6,0.8,5.4,1c5.6,0.9,12,1.8,19.7,8.9l7.6,7.4   c1,1,2.5,0.9,3.5,0l43.1-43.1C221.2,178.9,221.2,177.3,220.3,176.3C220.3,176.3,220.3,176.3,220.3,176.3z M175.4,217.6l-5.9-5.7   c-8.9-8.2-16.4-9.3-22.4-10.2c-1.7-0.2-3.3-0.5-5-0.9c-0.1,0-0.1,0-0.2,0c-8.1-1.4-15.5-5.3-21.3-11.2l-8.2-8.2   c-2.7-2.7-2.7-7,0-9.6c2.7-2.7,7-2.7,9.6,0c1,1,2.6,1,3.5,0c1-1,1-2.5,0-3.5l-38.5-38.6l0,0c-2.3-2.3-2.3-6,0-8.3   c2.3-2.3,6-2.3,8.3,0l24.3,24.3c1,1,2.6,1,3.5,0c1-1,1-2.6,0-3.5c0,0,0,0,0,0c-2.3-2.3-2.3-6,0-8.3c2.3-2.3,6-2.3,8.3,0l0,0   c1,1,2.6,1,3.5,0c1-1,1-2.5,0-3.5c-2.3-2.3-2.3-6,0-8.3c2.3-2.3,6-2.3,8.3,0c1,1,2.5,1,3.5,0.1c1-1,1-2.5,0.1-3.5c0,0,0,0-0.1-0.1   c-2.3-2.3-2.3-6,0-8.3c2.3-2.3,6-2.3,8.3,0l30.2,30.2c2.5,2.5,4.5,5.3,6.1,8.4c0,0,0,0.1,0.1,0.1c0.5,0.9,1,2,1.6,3.1   c2.2,4.9,5.3,9.4,9.1,13.3l12.8,12.8L175.4,217.6z"/>
	<path class="st6" d="M164.2,69.6c-0.5-1.7-2-2.9-3.7-3.1l-50.8-7.4L87,13.1c-1.1-2.3-3.9-3.2-6.1-2.1c-0.9,0.4-1.6,1.2-2.1,2.1   L56,59.1L5.3,66.5c-2.5,0.4-4.2,2.7-3.9,5.2c0.1,1,0.6,1.9,1.3,2.6l36.7,35.8l-8.7,50.6c-0.4,2.5,1.2,4.9,3.7,5.3   c1,0.2,2,0,2.9-0.5l45.4-23.9l19.6,10.3c1.2,0.6,2.7,0.2,3.4-1c0.5-1,0.3-2.2-0.4-2.9l-10.5-10.6l-7.8-7.8l0,0   c-2.3-2.3-2.3-6,0-8.3c2.3-2.3,6-2.3,8.3,0l24.3,24.3c1,1,2.6,1,3.5,0c1-1,1-2.5,0-3.5c-2.3-2.3-2.3-6,0-8.3c1.1-1.1,2.5-1.7,4-1.7   c1.4,0,2.5-1.2,2.4-2.6c0-0.1,0-0.2,0-0.3l-3.3-19.1L163,74.3C164.3,73.1,164.7,71.2,164.2,69.6z M122.6,106.7   c-1.1,1.1-1.6,2.6-1.3,4.1l2.9,16.8c-3.8,1.1-6.6,4.2-7.5,8.1l-17.9-17.9c-4.2-4.2-11.1-4.3-15.3,0s-4.3,11.1,0,15.3c0,0,0,0,0,0   l6.8,6.8l-5.3-2.8c-1.3-0.7-2.9-0.7-4.3,0l-44.9,23.6l8.6-50c0.3-1.5-0.2-3-1.3-4.1L6.8,71.3L57,64c1.5-0.2,2.8-1.2,3.5-2.5   L82.9,16l22.4,45.5c0.7,1.4,2,2.3,3.5,2.5l50.2,7.3L122.6,106.7z"/>
</g>
</svg>
