<?xml version="1.0" encoding="utf-8"?>
<!-- Generator: Adobe Illustrator 24.1.0, SVG Export Plug-In . SVG Version: 6.00 Build 0)  -->
<svg version="1.1" id="Layer_1" xmlns:svgjs="http://svgjs.com/svgjs"
	 xmlns="http://www.w3.org/2000/svg" xmlns:xlink="http://www.w3.org/1999/xlink" x="0px" y="0px" viewBox="0 0 512 512"
	 style="enable-background:new 0 0 512 512;" xml:space="preserve">
<style type="text/css">
	.st0{fill:#0FAAC9;stroke:#FFFFFF;stroke-miterlimit:10;}
</style>
<g>
	<g>
		<g>
			<path class="st0" d="M422.4,307.2c-28.8,0-54.2,13.9-70.6,35l-173.3-66.7c0.2-2.3,0.7-4.5,0.7-6.8c0-4.3-0.7-8.4-1.3-12.6
				l177.6-82c16.4,18.6,40.2,30.6,66.9,30.6c49.4,0,89.6-40.2,89.6-89.6s-40.2-89.6-89.6-89.6s-89.6,40.2-89.6,89.6
				c0,4.3,0.7,8.4,1.3,12.6l-177.6,82c-16.4-18.6-40.2-30.6-66.9-30.6C40.2,179.2,0,219.4,0,268.8s40.2,89.6,89.6,89.6
				c28.8,0,54.2-13.9,70.6-35L333.5,390c-0.2,2.3-0.7,4.5-0.7,6.8c0,49.4,40.2,89.6,89.6,89.6s89.6-40.2,89.6-89.6
				C512,347.4,471.8,307.2,422.4,307.2z"/>
		</g>
	</g>
</g>
</svg>
