<?xml version="1.0" encoding="utf-8"?>
<!-- Generator: Adobe Illustrator 24.1.0, SVG Export Plug-In . SVG Version: 6.00 Build 0)  -->
<svg version="1.1" id="Layer_1" xmlns="http://www.w3.org/2000/svg" xmlns:xlink="http://www.w3.org/1999/xlink" x="0px" y="0px"
	 viewBox="0 0 512 512" style="enable-background:new 0 0 512 512;" xml:space="preserve">
<style type="text/css">
	.st0{fill:#FFBBBB;}
	.st1{fill:#FB7B76;}
	.st2{fill:#FFFEF8;}
	.st3{fill:#F9F9F9;}
</style>
<path class="st0" d="M256,185.6v53c0,9.7-7.9,17.6-17.7,17.7h-44.1c-9.7,0-17.6-7.9-17.7-17.7v-61.8c-0.5-9.5,3.1-18.7,9.8-25.5
	c6.7-6.7,16-10.3,25.5-9.8c11.7,0,23,4.6,31.2,12.9S256,173.9,256,185.6z"/>
<path class="st0" d="M176.6,184.6v45.1c0,9.7-7.9,17.6-17.7,17.7h-35.3c-9.7,0-17.6-7.9-17.7-17.7v-53c-0.4-8.5,2.8-16.7,8.8-22.7
	s14.2-9.2,22.7-8.8c10.4,0,20.4,4.1,27.8,11.5C172.5,164.2,176.6,174.2,176.6,184.6z"/>
<path class="st0" d="M105.9,183.6v37.3c0,9.7-7.9,17.6-17.7,17.7H61.8c-9.7,0-17.6-7.9-17.7-17.7v-44.1c-0.4-7.4,2.4-14.6,7.7-19.8
	s12.4-8,19.8-7.7C90.6,149.3,105.9,164.7,105.9,183.6z"/>
<path class="st0" d="M44.1,184.3v32c0.2,2.3-1.6,4.4-3.9,4.6H26.5c-9.7,0-17.6-7.9-17.7-17.7v-23.6c-0.5-4.5,0.9-9.1,3.9-12.6
	c3-3.5,7.3-5.5,11.8-5.7c5.4,0.1,10.5,2.5,13.9,6.7C42.2,172.6,44.2,178.4,44.1,184.3z"/>
<path class="st1" d="M512,115v61.8c0,4.9-4,8.8-8.8,8.8v-5.9c0.5-4.5-0.9-9.1-3.9-12.6c-3-3.5-7.3-5.5-11.8-5.7
	c-5.4,0.1-10.5,2.5-13.9,6.7c-3.8,4.5-5.8,10.3-5.7,16.2v-7.5c0.4-7.4-2.4-14.6-7.7-19.8s-12.4-8-19.8-7.7
	c-19,0-34.3,15.4-34.3,34.3v-6.9c0.4-8.5-2.8-16.7-8.8-22.7s-14.2-9.2-22.7-8.8c-10.4,0-20.4,4.1-27.8,11.5
	c-7.4,7.4-11.5,17.4-11.4,27.8v-7.9c0.5-9.5-3.1-18.7-9.8-25.5c-6.7-6.7-16-10.3-25.5-9.8c-11.7,0-23,4.6-31.2,12.9
	S256,173.9,256,185.6c0-11.7-4.6-23-12.9-31.3s-19.5-12.9-31.2-12.9c-9.5-0.5-18.8,3.1-25.5,9.8c-6.7,6.7-10.3,16-9.8,25.5v7.9
	c0-10.4-4.1-20.4-11.4-27.8c-7.4-7.4-17.3-11.5-27.8-11.5c-8.5-0.4-16.7,2.8-22.7,8.8s-9.2,14.2-8.8,22.7v6.9
	c0-19-15.4-34.3-34.3-34.3c-7.4-0.4-14.6,2.4-19.8,7.7s-8,12.4-7.7,19.8v7.5c0.1-5.9-2-11.6-5.7-16.2c-3.4-4.2-8.5-6.6-13.9-6.7
	c-4.6,0.2-8.8,2.3-11.8,5.7c-3,3.5-4.4,8-3.9,12.6v5.9c-4.9,0-8.8-4-8.8-8.8V115c0-29.2,114.6-53,256-53S512,85.7,512,115z"/>
<path class="st0" d="M335.4,176.8v61.8c0,9.7-7.9,17.6-17.7,17.7h-44.1c-9.7,0-17.6-7.9-17.7-17.7v-53c0-11.7,4.6-23,12.9-31.3
	s19.5-12.9,31.2-12.9c9.5-0.5,18.8,3.1,25.5,9.8C332.3,158,335.9,167.3,335.4,176.8z"/>
<path class="st0" d="M406.1,176.8v53c0,9.7-7.9,17.6-17.7,17.7h-35.3c-9.7,0-17.6-7.9-17.7-17.7v-45.1c0-10.4,4.1-20.4,11.4-27.8
	c7.4-7.4,17.3-11.5,27.8-11.5c8.5-0.4,16.7,2.8,22.7,8.8S406.5,168.3,406.1,176.8z"/>
<path class="st0" d="M467.9,176.8v44.1c0,9.7-7.9,17.6-17.7,17.7h-26.5c-9.7,0-17.6-7.9-17.7-17.7v-37.3c0-19,15.4-34.3,34.3-34.3
	c7.4-0.4,14.6,2.4,19.8,7.7S468.2,169.4,467.9,176.8z"/>
<path class="st0" d="M503.2,179.7v23.6c0,9.7-7.9,17.6-17.7,17.7h-13.8c-2.3-0.2-4.1-2.3-3.9-4.6v-32c-0.1-5.9,2-11.6,5.7-16.2
	c3.4-4.2,8.5-6.6,13.9-6.7c4.6,0.2,8.8,2.3,11.8,5.7C502.3,170.6,503.7,175.1,503.2,179.7z"/>
<path class="st2" d="M256,194.4v44.1c0,9.7-7.9,17.6-17.7,17.7h-44.1c-9.7,0-17.6-7.9-17.7-17.7v-53.9c-0.2-9.3,3.4-18.4,10.1-24.9
	s15.8-9.9,25.2-9.4c11.7,0,23,4.6,31.2,12.9S256,182.7,256,194.4z"/>
<path class="st2" d="M176.6,193.4v36.3c0,9.7-7.9,17.6-17.7,17.7h-35.3c-9.7,0-17.6-7.9-17.7-17.7v-44.1c-0.4-8.5,2.8-16.7,8.8-22.7
	s14.2-9.2,22.7-8.8c10.4,0,20.4,4.1,27.8,11.5C172.5,173,176.6,183,176.6,193.4z"/>
<path class="st3" d="M105.9,192.5v28.4c0,9.7-7.9,17.6-17.7,17.7H61.8c-9.7,0-17.6-7.9-17.7-17.7v-35.3c-0.4-7.4,2.4-14.6,7.7-19.8
	c5.2-5.2,12.4-8,19.8-7.7C90.6,158.1,105.9,173.5,105.9,192.5z"/>
<path class="st3" d="M44.1,193.1v23.2c0.2,2.3-1.6,4.4-3.9,4.6H26.5c-9.7,0-17.6-7.9-17.7-17.7v-14.7c-0.5-4.5,0.9-9.1,3.9-12.6
	c3-3.5,7.3-5.5,11.8-5.7c5.4,0.1,10.5,2.5,13.9,6.7C42.2,181.5,44.2,187.2,44.1,193.1z"/>
<path class="st2" d="M335.4,184.6v53.9c0,9.7-7.9,17.6-17.7,17.7h-44.1c-9.7,0-17.6-7.9-17.7-17.7v-44.1c0-11.7,4.6-23,12.9-31.3
	s19.5-12.9,31.2-12.9c9.3-0.5,18.5,2.9,25.2,9.4S335.7,175.3,335.4,184.6z"/>
<path class="st2" d="M406.1,185.6v44.1c0,9.7-7.9,17.6-17.7,17.7h-35.3c-9.7,0-17.6-7.9-17.7-17.7v-36.3c0-10.4,4.1-20.4,11.4-27.8
	c7.4-7.4,17.3-11.5,27.8-11.5c8.5-0.4,16.7,2.8,22.7,8.8S406.5,177.1,406.1,185.6z"/>
<path class="st3" d="M467.9,185.6v35.3c0,9.7-7.9,17.6-17.7,17.7h-26.5c-9.7,0-17.6-7.9-17.7-17.7v-28.4c0-19,15.4-34.3,34.3-34.3
	c7.4-0.4,14.6,2.4,19.8,7.7C465.4,171,468.2,178.2,467.9,185.6z"/>
<path class="st3" d="M503.2,188.5v14.7c0,9.7-7.9,17.6-17.7,17.7h-13.8c-2.3-0.2-4.1-2.3-3.9-4.6v-23.2c-0.1-5.9,2-11.6,5.7-16.2
	c3.4-4.2,8.5-6.6,13.9-6.7c4.6,0.2,8.8,2.3,11.8,5.7C502.3,179.4,503.7,184,503.2,188.5z"/>
<g>
	<path class="st0" d="M256,320.1v34.1c0,11.3-4.5,22.2-12.5,30.2c-8,8-18.8,12.5-30.2,12.5h-1.5c-26.5,0-35.3-11.5-35.3-25.6v-51.1
		c0-14.1,11.5-25.6,25.6-25.6h28.2C244.5,294.5,256,306,256,320.1z"/>
	<path class="st0" d="M176.6,311.3v35c0,10-4,19.7-11.1,26.8c-7.1,7.1-16.7,11.1-26.8,11.1h-1.3c-8.3,0.6-16.4-2.4-22.4-8.2
		c-6-5.8-9.3-13.8-9-22.1v-42.6c0-6.6,2.5-13,7.2-17.7c4.8-5,11.5-7.9,18.4-7.9H151C165.1,285.7,176.6,297.2,176.6,311.3z"/>
	<path class="st0" d="M105.9,343.5v8.8c-6.2,6.8-15,10.7-24.3,10.7h-1.2c-7.2,0.5-14.4-2.1-19.6-7.2c-5.2-5-8.1-12.1-7.9-19.3v-8.8
		c-0.2,7.3,2.6,14.3,7.9,19.3c5.2,5,12.3,7.6,19.6,7.2h1.2C90.9,354.2,99.7,350.4,105.9,343.5z"/>
	<path class="st0" d="M53,296.1v10.8c0.1,5.9-2,11.6-5.7,16.2c-3.4,4.2-8.5,6.6-13.9,6.7c-5.3,0.2-10.2-2.6-12.8-7.2
		c-2-3.4-3-7.2-2.9-11.1v-15.4c0-9.4,7.6-17,17-17h1.2C45.3,279.1,53,286.7,53,296.1z"/>
	<path class="st0" d="M335.4,320.1v51.1c0,14.1-8.8,25.6-35.3,25.6h-1.5c-11.3,0-22.2-4.5-30.2-12.5c-8-8-12.5-18.8-12.5-30.2v-34.1
		c0-14.1,11.5-25.6,25.6-25.6h28.2C324,294.5,335.4,306,335.4,320.1z"/>
	<path class="st0" d="M406.1,311.3v42.6c0.3,8.3-3,16.3-9,22.1c-6,5.8-14.1,8.7-22.4,8.2h-1.3c-10,0-19.7-4-26.8-11.1
		c-7.1-7.1-11.1-16.7-11.1-26.8v-35c0-14.1,11.5-25.6,25.6-25.6h19.4c7,0,13.6,2.8,18.4,7.9C403.5,298.3,406.1,304.7,406.1,311.3z"
		/>
	<path class="st0" d="M459,327.7v8.8c0.2,7.3-2.6,14.3-7.9,19.3c-5.2,5-12.3,7.6-19.6,7.2h-1.2c-9.2,0-18.1-3.8-24.3-10.7v-8.8
		c6.2,6.8,15,10.7,24.3,10.7h1.2c7.2,0.5,14.4-2.1,19.6-7.2C456.4,342,459.3,335,459,327.7z"/>
	<path class="st0" d="M494.3,296.1v15.4c0.1,3.9-1,7.7-2.9,11.1c-2.6,4.6-7.5,7.4-12.8,7.2c-5.4-0.1-10.5-2.5-13.9-6.7
		c-3.8-4.5-5.8-10.3-5.7-16.2v-10.8c0-9.4,7.6-17,17-17h1.2C486.7,279.1,494.3,286.7,494.3,296.1z"/>
</g>
<path class="st2" d="M256,320.1v25.3c0,11.3-4.5,22.2-12.5,30.2c-8,8-18.8,12.5-30.2,12.5h-1.5c-26.5,0-35.3-11.5-35.3-25.6v-42.3
	c0-14.1,11.5-25.6,25.6-25.6h28.2C244.5,294.5,256,306,256,320.1z"/>
<path class="st2" d="M176.6,311.3v26.2c0,10-4,19.7-11.1,26.8c-7.1,7.1-16.7,11.1-26.8,11.1h-1.3c-8.3,0.6-16.4-2.4-22.4-8.2
	c-6-5.8-9.3-13.8-9-22.1v-33.8c0-6.6,2.5-13,7.2-17.7c4.8-5,11.5-7.9,18.4-7.9H151C165.1,285.7,176.6,297.2,176.6,311.3z"/>
<path class="st3" d="M113.1,293.5c-4.6,4.7-7.2,11.1-7.2,17.7v32.2c-6.2,6.8-15,10.7-24.3,10.7h-1.2c-7.2,0.5-14.4-2.1-19.6-7.2
	c-5.2-5-8.1-12.1-7.9-19.3v-25.2c0-14.1,11.5-25.6,25.6-25.6h10.6c8.5,0,16.4,4.2,21.1,11.3C111.5,289.8,112.4,291.6,113.1,293.5z"
	/>
<path class="st3" d="M53,296.1v1.9c0.1,5.9-2,11.6-5.7,16.2c-3.4,4.2-8.5,6.6-13.9,6.7c-5.3,0.2-10.2-2.6-12.8-7.2
	c-2-3.4-3-7.2-2.9-11.1v-6.5c0-9.4,7.6-17,17-17h1.2C45.3,279.1,53,286.7,53,296.1z"/>
<path class="st2" d="M335.4,320.1v42.3c0,14.1-8.8,25.6-35.3,25.6h-1.5c-11.3,0-22.2-4.5-30.2-12.5c-8-8-12.5-18.8-12.5-30.2v-25.3
	c0-14.1,11.5-25.6,25.6-25.6h28.2C324,294.5,335.4,306,335.4,320.1z"/>
<path class="st2" d="M406.1,311.3v33.8c0.3,8.3-3,16.3-9,22.1c-6,5.8-14.1,8.7-22.4,8.2h-1.3c-10,0-19.7-4-26.8-11.1
	c-7.1-7.1-11.1-16.7-11.1-26.8v-26.2c0-14.1,11.5-25.6,25.6-25.6h19.4c7,0,13.6,2.8,18.4,7.9C403.5,298.3,406.1,304.7,406.1,311.3z"
	/>
<path class="st3" d="M459,302.5v25.2c0.2,7.3-2.6,14.3-7.9,19.3c-5.2,5-12.3,7.6-19.6,7.2h-1.2c-9.2,0-18.1-3.8-24.3-10.7v-32.2
	c0-6.6-2.5-13-7.2-17.7c0.7-1.9,1.6-3.7,2.8-5.4c4.7-7.1,12.6-11.3,21.1-11.3h10.6c6.8,0,13.3,2.7,18.1,7.5S459,295.7,459,302.5z"/>
<path class="st3" d="M494.3,296.1v6.5c0.1,3.9-1,7.7-2.9,11.1c-2.6,4.6-7.5,7.4-12.8,7.2c-5.4-0.1-10.5-2.5-13.9-6.7
	c-3.8-4.5-5.8-10.3-5.7-16.2v-1.9c0-9.4,7.6-17,17-17h1.2C486.7,279.1,494.3,286.7,494.3,296.1z"/>
<path class="st1" d="M503.2,331.1v68.2c0,28.2-110.6,51.1-247.2,51.1S8.8,427.5,8.8,399.3v-68.2c0-2.3,0.9-4.4,2.5-6
	c1.6-1.6,3.8-2.5,6-2.5h3.2c2.6,4.6,7.5,7.4,12.8,7.2c5.4-0.1,10.5-2.5,13.9-6.7c3.8-4.5,5.8-10.3,5.7-16.2v29.7
	c-0.2,7.3,2.6,14.3,7.9,19.3c5.2,5,12.3,7.6,19.6,7.2h1.2c9.2,0,18.1-3.8,24.3-10.7v1.6c-0.3,8.3,3,16.3,9,22.1
	c6,5.8,14.1,8.7,22.4,8.2h1.3c10,0,19.7-4,26.8-11.1c7.1-7.1,11.1-16.7,11.1-26.8v24.9c0,14.1,8.8,25.6,35.3,25.6h1.5
	c11.3,0,22.2-4.5,30.2-12.5c8-8,12.5-18.8,12.5-30.2c0,11.3,4.5,22.2,12.5,30.2c8,8,18.8,12.5,30.2,12.5h1.5
	c26.5,0,35.3-11.5,35.3-25.6v-24.9c0,10,4,19.7,11.1,26.8c7.1,7.1,16.7,11.1,26.8,11.1h1.3c8.3,0.6,16.4-2.4,22.4-8.2
	c6-5.8,9.3-13.8,9-22.1v-1.6c6.2,6.8,15,10.7,24.3,10.7h1.2c7.2,0.5,14.4-2.1,19.6-7.2c5.2-5,8.1-12.1,7.9-19.3v-29.7
	c-0.1,5.9,2,11.6,5.7,16.2c3.4,4.2,8.5,6.6,13.9,6.7c5.3,0.2,10.2-2.6,12.8-7.2h3.2c2.3,0,4.4,0.9,6,2.5
	C502.3,326.6,503.2,328.8,503.2,331.1z"/>
</svg>
