<?xml version="1.0" encoding="utf-8"?>
<!-- Generator: Adobe Illustrator 24.1.0, SVG Export Plug-In . SVG Version: 6.00 Build 0)  -->
<svg version="1.1" id="OBJECTS" xmlns="http://www.w3.org/2000/svg" xmlns:xlink="http://www.w3.org/1999/xlink" x="0px" y="0px"
	 viewBox="0 0 750 500" style="enable-background:new 0 0 750 500;" xml:space="preserve">
<style type="text/css">
	.st0{fill:#2F2962;}
	.st1{fill:#F5BFA9;}
	.st2{fill:#D8F8FF;}
	.st3{fill:#A1C9C4;}
	.st4{fill:#E1916E;}
	.st5{fill:#BEC1DF;}
	.st6{fill:#BF847C;}
	.st7{fill:#2BBFDC;}
	.st8{fill:#FFFFFF;}
	.st9{fill:#434D91;}
	.st10{fill:none;stroke:#2F2962;stroke-width:0;stroke-linecap:round;stroke-linejoin:round;}
	.st11{fill:#FADAD4;}
	.st12{fill:#768FF6;}
	.st13{fill:#E4EFF8;}
	.st14{fill:#DEA89E;}
	.st15{fill:#059BAF;}
	.st16{fill:#BFDDDA;}
	.st17{fill:#9A593B;}
</style>
<g>
	<g>
		<g>
			<g>
				<path class="st0" d="M131.9,125.1c0,0,22.7,13.2,27.9,30.2c8.3,27.3,1.5,70.5-18.7,65.2c-16.3-4.3-3.4-40.3-12.7-49.6
					c-9.3-9.3-20.4-19.1-9.3-45.6L131.9,125.1z"/>
				<path class="st0" d="M132.1,125.4c-0.1,0-0.1,0.1-0.1,0.1c12.3,6.1,22.8,15,28.7,27.7c6.8,14.6,6.6,31.5-0.1,46
					c-0.1,0.2,0.2,0.3,0.2,0.1C174.5,172.1,162.7,134.8,132.1,125.4z"/>
				<path class="st0" d="M128.4,174.5c-2.3-4.4-5.8-7.9-8.6-11.9c-7.8-11-5.5-24.4-0.8-36.1c0.1-0.2-0.2-0.3-0.3-0.1
					c-4.8,9.6-7.5,20.6-3.4,31c1.7,4.2,4.5,7.6,7.4,11c2.1,2.4,4.3,4.9,5.8,7.7c2,3.9,2.4,8.3,2.9,12.6c0,0.1,0.1,0.1,0.1,0
					C131.2,183.7,130.6,178.9,128.4,174.5z"/>
			</g>
			<g>
				<path class="st1" d="M49.7,227.7c0,0-22.9,44.9-22.7,56.7c0.2,11.8,2.9,22.1,7.4,23.3c4.5,1.2,22.6-21.3,25.5-24.6
					c2.9-3.2,15.1-42.6,18.9-49.8C82.6,226.1,58.5,217.7,49.7,227.7z"/>
				<path class="st2" d="M101.8,177.4c-8.9,3.5-23.5,8.6-27.4,12.6c-3.9,4.1-41.9,53.5-42.7,57.9c-0.8,4.4,17.8,21.7,26.3,23.3
					c8.5,1.6,16.7-1.9,19.4-3.9C80,265.4,101.8,177.4,101.8,177.4z"/>
				<g>
					<path class="st2" d="M192.2,456.3c-23,16.2-85,20-96.8,17.2c-11.9-2.7-40.6-13.9-43.2-17.7c-2.6-3.8-5.9-54.8-1.9-83
						c1.8-13.1,6.8-34.7,11.6-54.1c4.1-16.7,8-31.8,9.5-38.5c0.5-2.2,0.7-3.5,0.6-3.6c-1-0.6-14.8-18.6-12.1-30.8
						c2.8-12.2,36-64.4,41.9-68.3c5.9-3.9,15.3-1.6,24.3-0.8c10.2,0.9,31,17.1,33.6,25.8c2.2,7.2,3.7,55.4,4.7,73.8
						c0.2,4,0.4,6.6,0.6,7.1c0.7,2,6.2,26.8,11.2,46.9c2.1,8.3,4,15.7,5.6,20.5C187,367.3,196.4,453.3,192.2,456.3z"/>
					<path class="st0" d="M77.8,211.8c0.2-0.3-0.3-0.5-0.4-0.3c-3,4.4-5.8,9-8.3,13.7c0.9-2.9,2-5.8,3.2-8.6c0-0.1-0.1-0.2-0.2-0.1
						c-2,3.5-3.4,7.4-4.4,11.3c-0.4,0.7-0.7,1.3-1.1,2c-2.8,5.4-5.9,11.3-7.1,17.3c-2,10.3,5.2,22.7,12.2,29.8
						c0.3,0.3,0.6-0.1,0.4-0.4c-7.7-9.4-14-21.3-9.5-33.5C66.5,232.2,72.1,221.9,77.8,211.8z"/>
					<path class="st3" d="M176.2,330.3c-4.1,0.6-8.2,0.9-11.4,1c-12.8,0.6-25.8-0.6-38.4-2.6c-13.3-2.1-26.5-5.6-39-10.6
						c-5-2-8.7-2.5-14.1-1.5c-2.9,0.5-5.7,1.1-8.5,1.6c-1,0.2-1.9,0.3-2.9,0.5c4.1-16.7,8-31.8,9.5-38.5c6.4-1.6,13-2.7,19.2-4.1
						c10-2.1,18.6,7.1,29.2,6.9c13.6-0.2,29.3-11.8,41.9-7.7c0.9,0.3,1.8,0.6,2.8,1c0.2,4,0.4,6.6,0.6,7.1
						C165.7,285.3,171.1,310.1,176.2,330.3z"/>
					<g>
						<path class="st0" d="M96.8,284c-4.4-14.9-5.4-29.1-2.3-44.4c2.9-14.3,7.4-28.4,12.6-41.9c0.1-0.2-0.2-0.3-0.3-0.1
							c-6.2,14.3-10.8,29.9-13.6,45.2c-2.4,13.1-2.7,28.1,2.8,40.5c-0.2,0-12.8,129.4,1.2,188.9c0.1,0.4,0.6,0.2,0.6-0.2
							C84.2,412.1,96.9,284.2,96.8,284z"/>
						<path class="st0" d="M106.9,217.9c-0.4,0.7-2,1.4-2.5,0.3c-0.5-1.1,0.5-2.6,1.7-2c0.2,0.1,0.3-0.1,0.1-0.2
							c-1.7-1.1-3.2,1.2-2.5,2.7c0.7,1.5,3.4,1.1,3.3-0.6C107,217.9,106.9,217.9,106.9,217.9z"/>
						<path class="st0" d="M100.5,257.8c-0.4,0.7-2,1.4-2.5,0.3c-0.5-1.1,0.5-2.6,1.7-2c0.2,0.1,0.3-0.1,0.1-0.2
							c-1.7-1.1-3.2,1.2-2.5,2.7c0.7,1.5,3.4,1.1,3.3-0.6C100.6,257.7,100.5,257.7,100.5,257.8z"/>
						<path class="st0" d="M103.4,278.8c-0.4,0.7-2,1.4-2.5,0.3c-0.5-1.1,0.5-2.6,1.7-2c0.2,0.1,0.3-0.1,0.1-0.2
							c-1.7-1.1-3.2,1.2-2.5,2.7c0.7,1.5,3.4,1.1,3.3-0.6C103.6,278.8,103.5,278.7,103.4,278.8z"/>
						<path class="st0" d="M101.7,320.7c-0.4,0.7-2,1.4-2.5,0.3c-0.5-1.1,0.5-2.6,1.7-2c0.2,0.1,0.3-0.1,0.1-0.2
							c-1.7-1.1-3.2,1.2-2.5,2.7c0.7,1.5,3.4,1.1,3.3-0.6C101.8,320.7,101.7,320.7,101.7,320.7z"/>
						<path class="st0" d="M98.8,364.8c-0.4,0.7-2,1.4-2.5,0.3c-0.5-1.1,0.5-2.6,1.7-2c0.2,0.1,0.3-0.1,0.1-0.2
							c-1.7-1.1-3.2,1.2-2.5,2.7c0.7,1.5,3.4,1.1,3.3-0.6C98.9,364.8,98.8,364.7,98.8,364.8z"/>
						<path class="st0" d="M98.8,405.9c-0.4,0.7-2,1.4-2.5,0.3c-0.5-1.1,0.5-2.6,1.7-2c0.2,0.1,0.3-0.1,0.1-0.2
							c-1.7-1.1-3.2,1.2-2.5,2.7c0.7,1.5,3.4,1.1,3.3-0.6C98.9,405.9,98.8,405.9,98.8,405.9z"/>
						<path class="st0" d="M103.4,298.4c-0.4,0.7-2,1.4-2.5,0.3c-0.5-1.1,0.5-2.6,1.7-2c0.2,0.1,0.3-0.1,0.1-0.2
							c-1.7-1.1-3.2,1.2-2.5,2.7c0.7,1.5,3.4,1.1,3.3-0.6C103.6,298.4,103.5,298.3,103.4,298.4z"/>
						<path class="st0" d="M100,342.2c-0.4,0.7-2,1.4-2.5,0.3c-0.5-1.1,0.5-2.6,1.7-2c0.2,0.1,0.3-0.1,0.1-0.2
							c-1.7-1.1-3.2,1.2-2.5,2.7c0.7,1.5,3.4,1.1,3.3-0.6C100.1,342.2,100,342.2,100,342.2z"/>
						<path class="st0" d="M98.8,385.8c-0.4,0.7-2,1.4-2.5,0.3c-0.5-1.1,0.5-2.6,1.7-2c0.2,0.1,0.3-0.1,0.1-0.2
							c-1.7-1.1-3.2,1.2-2.5,2.7c0.7,1.5,3.4,1.1,3.3-0.6C98.9,385.8,98.8,385.8,98.8,385.8z"/>
						<path class="st0" d="M100.5,448.3c-0.4,0.7-2,1.4-2.5,0.3c-0.5-1.1,0.5-2.6,1.7-2c0.2,0.1,0.3-0.1,0.1-0.2
							c-1.7-1.1-3.2,1.2-2.5,2.7c0.7,1.5,3.4,1.1,3.3-0.6C100.6,448.2,100.5,448.2,100.5,448.3z"/>
						<path class="st0" d="M104,468.7c-0.4,0.7-2,1.4-2.5,0.3c-0.5-1.1,0.5-2.6,1.7-2c0.2,0.1,0.3-0.1,0.1-0.2
							c-1.7-1.1-3.2,1.2-2.5,2.7c0.7,1.5,3.4,1.1,3.3-0.6C104.1,468.7,104,468.6,104,468.7z"/>
						<path class="st0" d="M98.8,425.9c-0.4,0.7-2,1.4-2.5,0.3c-0.5-1.1,0.5-2.6,1.7-2c0.2,0.1,0.3-0.1,0.1-0.2
							c-1.7-1.1-3.2,1.2-2.5,2.7c0.7,1.5,3.4,1.1,3.3-0.6C98.9,425.9,98.8,425.8,98.8,425.9z"/>
						<path class="st0" d="M102.2,237.9c-0.4,0.7-2,1.4-2.5,0.3c-0.5-1.1,0.5-2.6,1.7-2c0.2,0.1,0.3-0.1,0.1-0.2
							c-1.7-1.1-3.2,1.2-2.5,2.7c0.7,1.5,3.4,1.1,3.3-0.6C102.3,237.8,102.3,237.8,102.2,237.9z"/>
						<path class="st0" d="M100.7,276.5c-7.8-1.7-14.8,0.5-22.4,1.9c-0.1,0,0,0.1,0,0.1c3.1,0,6-0.7,9.1-1.2
							c4.4-0.7,8.7-0.4,13.2-0.1C100.9,277.1,101,276.5,100.7,276.5z"/>
						<path class="st0" d="M138.5,276c-7.1,5.5-15.2,7.8-24.1,5.7c-7-1.6-13.2-4.7-20.5-2.6c-0.1,0-0.1,0.2,0,0.2
							c9.5-1,17.8,4.9,27.2,4.8c6.7-0.1,13.2-2.8,17.9-7.6C139.5,276.2,138.9,275.7,138.5,276z"/>
					</g>
				</g>
				<g>
					<path class="st4" d="M142.5,313.6l-63.2,4.7c-2.3,0.2-4.2-1.5-4.4-3.8l-6.3-84.7c-0.2-2.3,1.5-4.2,3.8-4.4l63.2-4.7
						c2.3-0.2,4.2,1.5,4.4,3.8l6.3,84.7C146.5,311.4,144.8,313.4,142.5,313.6z"/>
					<g>
						<path class="st5" d="M119.9,227.4l-30.4,2.2c-0.9,0.1-1.7-0.6-1.8-1.6l-0.5-6.9c-0.1-0.9,0.6-1.7,1.6-1.8l30.4-2.2
							c0.9-0.1,1.7,0.6,1.8,1.6l0.5,6.9C121.6,226.5,120.9,227.3,119.9,227.4z"/>
						<path class="st5" d="M112.8,212.3l0.4,5.3l-4.2,0.3l-0.2-2.4c-0.1-1.3-1.2-2.2-2.5-2.1l-5.5,0.4c-1.3,0.1-2.2,1.2-2.1,2.5
							l0.2,2.4l-4.2,0.3l-0.4-5.3c-0.1-1.9,1.2-3.5,3.1-3.6l11.8-0.9C111.1,209.1,112.7,210.5,112.8,212.3z"/>
					</g>
				</g>
				<path class="st1" d="M174.6,240.9c4.6,3.4,10.4,53.3,10.8,59c0.3,5.6-6.4,16.5-8.2,16.9c-1.8,0.5-19-6-23.2-11.5
					c-4.2-5.5-6.5-55.5-5.7-58.6C149.1,243.7,170.3,237.7,174.6,240.9z"/>
				<g>
					<path class="st2" d="M145.8,186.5c2.2,2.9,22.5,13.7,26.3,20.9s16.8,59.7,18.1,62.7c1.2,3.1-14.3,11.3-22.3,12.8
						s-19.2-1.6-23.1-3.7C140.8,277,145.8,186.5,145.8,186.5z"/>
					<g>
						<path class="st0" d="M142.4,230.7c0-0.1-0.2-0.1-0.2,0c0.9,16.1,1.2,32.3,0.8,48.5c0,0.7,1,0.7,1,0
							C144.8,263,144.3,246.9,142.4,230.7z"/>
						<path class="st0" d="M164.6,206.6c-10.7,3.8-18.4,12.9-20,24.1c0,0.1,0.2,0.2,0.2,0.1c2.1-10.9,9.4-20.1,19.9-24
							C164.7,206.7,164.7,206.6,164.6,206.6z"/>
					</g>
				</g>
				<g>
					<g>
						<path class="st1" d="M177.5,316.7c-3.7,2.5-41.2,3.9-59.9,0.6c-10.6-1.9-26.2-6.4-37.8-10.8c-8.9-3.3-15.5-6.6-15.6-8.4
							c-0.1-4.1,8.1-13.1,13.3-12.6c5.2,0.5,36.4-2.3,47.6-1.6c9.1,0.6,18,0.9,25.5,1.5c7.7,0.6,13.9,1.5,17.2,3.2
							C174.3,292,177.5,316.7,177.5,316.7z"/>
						<path class="st6" d="M150.7,285.5c-2.8,2.2-5.8,4.1-8.7,5.9c-9,5.4-18.8,9.2-29,11.7c-10.6,2.6-22,4.1-33.1,3.4
							c-8.9-3.3-15.5-6.6-15.6-8.4c-0.1-4.1,8.1-13.1,13.3-12.6c5.2,0.5,36.4-2.3,47.6-1.6C134.2,284.6,143.2,284.9,150.7,285.5z"/>
						<path class="st6" d="M151.7,285.2c-0.1,0-0.1,0.1,0,0.2c9.9,2,15.8,7.4,20.9,15.8c0.2,0.3,0.6,0.1,0.5-0.2
							C169.8,292.4,161.1,285.1,151.7,285.2z"/>
					</g>
					<path class="st1" d="M34.4,307.7c9.2,5.1,79.7-14.4,84-17.3c1.3-0.9,20.1-1.7,23.3-2.1c3.2-0.4,8.7-3.9,9-5.8
						c0.3-1.9-0.4-3.6-0.7-4.4c-0.3-0.8,1.8-3.8,1.6-5.2c-0.2-1.4-1.7-3.3-2-4.1c-0.4-0.8,0.5-4.2,0-5.2c-0.5-1-2.7-2.1-3.4-3
						c-0.7-0.9,0.6-2-0.9-2.9c-4.3-2.6-25.6,8.6-28.8,9.7c-3.2,1.1-33,1.4-40.7,2.3c-7.7,0.9-20.4,1.7-28.4,8.9
						C39.4,285.8,34.4,307.7,34.4,307.7z"/>
					<path class="st6" d="M63.2,271.1c-11.3-0.2-19.7,10.4-24.1,19.7c-0.1,0.2,0.1,0.3,0.2,0.1c6.1-9.7,12.5-16.5,23.9-19.3
						C63.6,271.6,63.5,271.1,63.2,271.1z"/>
				</g>
			</g>
			<g>
				<g>
					<path class="st7" d="M116.4,164.7c-10.3,2.4-16.1,9.5-19.5,12.8c-3.3,3.3-13,23.8-13,27.4c0,3.6,18.1-11.9,21.9-11.8
						c2.7,0,12.2,21,17.1,20c6.1-1.3,17.4-19.3,17.5-28.8c0-3.2-5-11.2-9.5-15.3C125.7,164.2,120.7,163.7,116.4,164.7z"/>
					<path class="st0" d="M140.5,184.8c0-0.1-0.1-0.1-0.1,0c-3.7,15.1-15,27.9-17.5,28.2c-2.9,0.4-15.5-20.5-17-20.6
						c-2.7-0.2-21.1,12.5-21.4,12.3c-0.2-0.2,2.2-8.6,10.9-25.2c0-0.1-0.1-0.1-0.1-0.1c-10.1,15.4-13.2,27.1-11.8,27.1
						c1.8,0,14.2-8.9,21.8-12.8c3.6,5,14.3,20.6,16.9,20.6C127.4,214.5,139.8,196,140.5,184.8z"/>
				</g>
				<g>
					<g>
						<path class="st1" d="M136.7,141.5c0,0-0.7,7.1-1.6,15.4c-0.1,1.1-0.2,2.2-0.4,3.3c-1.1,10-4,22.5-4.6,23.7
							c-1.2,2.3-11.3,12.1-19.4,10.7c-8.1-1.3-6.9-9.3-6.9-9.3l0.1-4.1v-0.1l0.3-8.1l0.7-21.2l27.8-9.1L136.7,141.5z"/>
						<path class="st6" d="M136.7,141.5c0,0-0.7,7.1-1.6,15.4c-8.2,9.7-19.2,17-30.9,16.1l0.7-21.2l27.8-9.1L136.7,141.5z"/>
					</g>
					<g>
						<path class="st0" d="M76,114.3c0,0,6.9,38.3-7,53.8c0,0,15-8.4,15.2-38.3L76,114.3z"/>
						<path class="st0" d="M90.7,80.5c0,0-12.4,1.8-16.3,17c-3.2,12.7,4.3,25,5.8,26.3C83,125.9,97.6,88.9,90.7,80.5z"/>
						<path class="st1" d="M76.8,121.4c-2.1,37.6,18.9,40.8,25.2,42.3c7.2,1.6,35.6,2.1,41.6-35.1c6-37.2-10.9-50-27.7-51.9
							C99.1,75,78.9,83.8,76.8,121.4z"/>
						<g>
							<g>
								<path class="st0" d="M107.8,125.6c0-0.1,0.2,0.2,0.2,0.3c-0.5,2.5-0.6,5.5,1.6,6.7c0.1,0,0,0.2,0,0.1
									C106.8,131.9,107,127.9,107.8,125.6z"/>
								<path class="st0" d="M110.5,123.3c4.1,0.3,3.2,8.5-0.6,8.2C106.1,131.3,107.1,123,110.5,123.3z"/>
							</g>
							<g>
								<path class="st0" d="M90.2,123.9c0-0.1-0.2,0.1-0.2,0.2c0,2.6-0.3,5.5-2.7,6.3c-0.1,0-0.1,0.2,0,0.1
									C90.1,130.2,90.6,126.3,90.2,123.9z"/>
								<path class="st0" d="M87.9,121.2c-4.1-0.4-4.6,7.9-0.8,8.2C90.9,129.8,91.4,121.5,87.9,121.2z"/>
							</g>
							<path class="st6" d="M102.3,143.9c-0.6,0.6-1.2,1.5-2.1,1.6c-0.9,0.1-1.9-0.3-2.8-0.6c-0.1,0-0.2,0.1-0.1,0.1
								c0.7,1,2.1,1.6,3.3,1.3c1.2-0.2,1.7-1.2,2-2.3C102.6,143.9,102.4,143.8,102.3,143.9z"/>
							<g>
								<path class="st6" d="M94.5,135.5c0,0-0.7,3.8-0.7,5.6c0,0.2,0.4,0.3,1,0.3c0,0,0,0,0.1,0c3.2,0.6,6.4-0.4,8.4-2.9
									c0.1-0.2-0.1-0.4-0.3-0.3c-2.4,1.7-5.1,2-7.9,2c-0.1-0.5,1.4-6.5,1.1-6.5c-1-0.1-3,0.5-4.1,0.8c1.2-8,3.6-15.7,4.6-23.7
									c0-0.3-0.4-0.4-0.5-0.1c-3.1,7.9-4.6,17.1-6,25.3C90,137,93.8,135.8,94.5,135.5z"/>
							</g>
							<path class="st0" d="M86.7,114.4c0.9-0.1,1.7-0.3,2.6-0.4c1-0.2,1.8-0.2,2.5-0.9c0.4-0.4,0.4-1.2,0.1-1.6
								c-0.8-1-2.1-1.1-3.2-0.9c-1.3,0.2-2.2,0.7-3.1,1.6C84.6,113,85.5,114.5,86.7,114.4z"/>
							<path class="st0" d="M114,116.8c-0.9-0.2-1.6-0.6-2.5-0.9c-0.9-0.3-1.7-0.5-2.3-1.4c-0.3-0.5-0.2-1.3,0.2-1.6
								c0.9-0.8,2.2-0.7,3.3-0.3c1.2,0.4,2.1,1,2.8,2.1C116.3,115.8,115.2,117.1,114,116.8z"/>
						</g>
						<g>
							<path class="st0" d="M140.9,130.8c-6.2,0.4-9.7-16.5-9.7-16.5s-41.6-7.2-40.5-33.8c0,0,24.4-17.6,46.7,1.7
								C159.6,101.6,146.6,130.5,140.9,130.8z"/>
							<path class="st0" d="M133.1,114.4c-10-0.7-19.9-2.6-28.2-8.6c-8.7-6.3-12.3-14.9-13.9-25.2c0-0.1-0.2-0.1-0.2,0
								c-1.2,9.5,5.3,19.4,12.4,25.1c8.3,6.6,19.4,9.5,29.9,9.1C133.3,114.9,133.3,114.5,133.1,114.4z"/>
						</g>
						<g>
							<path class="st1" d="M150.7,137.5c0,0,0,0.1-0.1,0.2c-1.6,3.7-3.8,7-6.2,8.2c-0.1,0.1-0.2,0.1-0.3,0.1
								c-6.2,2.5-8.6-3.1-8.6-3.1l1.8-10.1l0-0.1c0,0,0.2-0.3,0.6-0.8c0.2-0.3,0.5-0.7,0.7-1c0.6-0.8,1.4-1.8,2.4-2.8c0,0,0,0,0,0
								c1.3-1.4,2.8-2.8,4.3-3.8c1.8-1.1,3.6-1.6,5.2-0.7C153.7,125.1,153.1,131.8,150.7,137.5z"/>
							<path class="st6" d="M148.8,128.4c0.1,0,0.1,0.1,0,0.2c-4.3,1.9-6.5,6.1-8,10.3c1.3-1.7,3-2.6,5.2-1.1c0.1,0.1,0,0.3-0.1,0.2
								c-1.8-0.3-3.1,0-4.3,1.5c-0.8,1-1.4,2.4-2,3.6c-0.2,0.4-0.9,0.2-0.8-0.2c0,0,0-0.1,0-0.1
								C138.7,137.1,142.8,129.1,148.8,128.4z"/>
						</g>
						<path class="st0" d="M131.2,114.3c0,0,6.9,38.3-7,53.8c0,0,15-8.4,15.2-38.3L131.2,114.3z"/>
						<g>
							<path class="st8" d="M151.4,135.8c-1.3,5.6-4.2,10.1-7.6,14.1c-4.8,5.8-11.6,8.5-18.4,10.8c-0.7,0.2-0.9-0.9-0.2-1.1
								c7.4-2.3,14.3-7.4,18.3-13.1c0,0,0,0,0,0c0.3-0.2,0.5-0.4,0.8-0.6c2.4-1.2,4.7-4.4,6.2-8.2c0-0.1,0-0.1,0.1-0.2
								C151,137,151.2,136.4,151.4,135.8z"/>
							<path class="st8" d="M145.3,124.2c-1.7,0.9-3.3,2.3-4.7,3.6c0,0,0,0,0,0c-0.8,0.7-1.7,1.7-2.5,2.7c-0.3,0.3-0.5,0.7-0.8,1
								c-0.4,0.5-0.6,0.8-0.6,0.8l0,0.1c-1.9,2.6-3.5,5.1-4.2,5.9c-0.2,0.2-0.6-0.1-0.5-0.3c2.1-3.6,6-13,11.4-13.8
								C144,124.1,144.7,124.1,145.3,124.2z"/>
							<g>
								<path class="st8" d="M135,133.7c0.8-1.9-12.5,4.6-26.5,1.7c-2.9-0.6-10.8-3.8-15.2-3.8c-4.4,0-9.6,3.6-15.7,4.2
									c-2.1,0.2-0.3,18.3,5.1,26.3c1.8,2.6,9.2,7.9,13.8,8.4c10.8,1.1,29.2-6.6,32-10.2C130.6,157.5,127.1,151.2,135,133.7z"/>
							</g>
							<g>
								<path class="st5" d="M78.6,141.6c3.8-1.6,8.1-3.1,12.1-3.9c3.6-0.7,6.8,0.6,10.2,1.8c9.1,3.2,18.3,2.9,27.5,0.3
									c0.1,0,0.1,0.2,0,0.2c-7.4,3.2-15.3,3.7-23,1.9c-4.2-1-8.4-3.2-12.7-3c-4.7,0.3-9.3,2.5-14,3.4
									C78.4,142.4,78.2,141.7,78.6,141.6z"/>
								<path class="st5" d="M85.4,162.5c2.9,1.4,5.8,3.4,8.8,4.4c3.6,1.2,7.9,0,11.4-0.8c6.7-1.6,13.2-4.3,19.8-6.6
									c0.1,0,0.1,0.1,0,0.1c-7.3,3.6-14.9,6.6-22.8,8c-2.6,0.5-5.5,1.1-8.2,0.3c-3.2-1-6.3-3.3-9.1-5.2
									C85.3,162.7,85.3,162.5,85.4,162.5z"/>
								<path class="st5" d="M80.9,147.7c6.9-2,13.2-1.5,20.2-0.6c7.9,1.1,15.8,0.8,23.7-0.4c0.1,0,0.1,0.1,0,0.1
									c-7,1.4-14.1,1.8-21.1,1.1c-3.4-0.4-6.8-1-10.3-1.2c-4.2-0.3-8.3,0.5-12.4,1.5C80.8,148.2,80.7,147.7,80.9,147.7z"/>
								<path class="st5" d="M82.5,154.6c6.5,3.5,12.8,5.1,20.1,4.4c7.1-0.7,14-3.3,20.8-5.7c0.1,0,0.1,0.1,0,0.2
									c-13.6,5.8-27.5,9.7-41,1.5C82.1,154.9,82.2,154.5,82.5,154.6z"/>
							</g>
						</g>
					</g>
				</g>
			</g>
		</g>
		<g>
			<g>
				<g>
					<path class="st9" d="M222.5,344.5c0,0,9.7,119.8,11.1,121.5H276V344.5H222.5z"/>
					<path class="st9" d="M333.6,344.5h-76.1c0,0,18.4,50.2,20.4,53.5c2,3.3,12,68,12,68h43.7c0,0,0.1-54.5,0-58
						C333.5,404.5,338,357.2,333.6,344.5z"/>
				</g>
				<path class="st2" d="M278.8,169.1c-9.7,0.4-17.3,5.6-21.9,9.2c-4.6,3.6-27.8,25.5-29.7,32c-1.9,6.5-4.4,142.7-1.9,146.9
					c2.5,4.2,29.4,13.8,41.2,14.5c11.8,0.7,63.3-8.9,67.3-12.6c4.1-3.8,13.7-135,11.6-143.1c-2.1-8-34.9-34-41.5-41.6
					C301,171.1,283,168.9,278.8,169.1z"/>
				<g>
					<path class="st0" d="M259.3,197.6c-0.1,1.9,2,10.4,3,11.4c0.9,1.1,8.3,1.6,9.2,1c0.9-0.6,5-9.3,5.2-10.9
						c0.2-1.7-5.9-8.9-8.5-9.3C265.6,189.3,259.3,196.5,259.3,197.6z"/>
					<path class="st0" d="M262.3,209c0,0-12,87.9-12.7,93.9c-0.7,6,12.8,41.5,15.1,42.3c2.3,0.8,15.1-35.5,15.9-39.4
						c0.8-4-8.3-93-9-96.1C271.4,208.8,262.4,208.2,262.3,209z"/>
				</g>
				<g>
					<path class="st8" d="M247.1,438.3c-1.2,3.6-33.1-6-33.8-10.4c-0.7-4.3,10.7-105.5,10.7-113.4c0-7.9-1.2-95.5,2.5-105.6
						c1.9-5.2,13.5-16.9,20.2-23.4c2.9-2.8,4.8-4.6,4.8-4.6c-1.1,4.3-5.2,61.5-4.2,100.5c0.3,12.5,0.5,32.7,0.7,54.5
						c0,0.2,0,0.4,0,0.5C248.3,382.6,248,435.8,247.1,438.3z"/>
					<path class="st8" d="M231.6,239.4c-0.3-4,13.6-20.4,13.6-20.4s-12.3,1.9-12.4-0.7c0-2.3,11.2-27,13.9-32.8
						c2.9-2.8,6.8-5.9,6.8-5.9c-1.1,4.3-7.3,62.9-6.2,101.9c0.3,12.5,0.5,32.7,0.7,54.5C247.5,323.4,231.9,243.3,231.6,239.4z"/>
					<path class="st0" d="M231.9,238.2c4-6.7,14.2-19.6,14.2-19.5c0,0-11.8,0.5-12.6-0.5c-0.6-0.7,9.9-24.2,13.1-30.6
						c0.1-0.1-0.1-0.3-0.2-0.1c-5.8,8.4-15.7,31.1-13.7,31.8c2.1,0.7,8.3,0.6,11.2,0.6c-5,5.1-13,17.6-13.2,18.5
						c-0.3,0.8,4.8,30.9,7.5,45.4c2.9,15.6,5.3,33.4,8.9,48.8c0.1,0.3,0.5,0.2,0.4-0.1C245.5,317,235,255.3,231.9,238.2z"/>
				</g>
				<g>
					<path class="st8" d="M350.7,428.2c-25.4,19.7-59.3,14.7-60.5,12c-0.7-1.6-2.7-51.9-3.3-101.5l0-0.7c-0.4-33.7-0.3-67,1.3-84.3
						c3.9-42.9,15.5-79.3,15.5-79.3c0.3,0,1.5,0.9,3.3,2.3c0,0,0,0,0,0c9.7,7.8,37,32.9,36.7,37.6c-0.4,5.5-1.7,78.4,0.5,110.2
						C346.2,356.1,354.2,425.5,350.7,428.2z"/>
					<path class="st0" d="M337,366.3c-0.1-0.4-1.2-0.5-1.4-0.5c-11.8,2.1-23.4,4.7-35.4,5.6c-0.1,0-0.1,0.2,0,0.2
						c12,0.2,24-2,35.7-4.7c0,0,0,0,0,0c0.7,2.6,1.4,5.3,1.9,8c-10.9,2.9-21.6,3.9-32.8,4.7c-0.1,0-0.1,0.1,0,0.2
						c10.9,1.1,22.6-0.9,33-4c1,5.3,1.5,10.7,1.5,16.1c0,2.9,0.6,9.8-1.5,12.2c-2.5,2.9-8.4,4.3-12,5c-4.5,0.9-9.3,0.9-13.8,0
						c-2.8-0.6-4.9-1-6.5-4c-1-1.8-4.3-23.2-5-31.6c0-0.2-0.4-0.3-0.4,0c0.1,9.8,1.6,25.2,4.1,32c2.5,6.6,13.9,6,19.5,5.3
						c4.6-0.6,10.6-1.5,14.5-4.2c2.5-1.7,2.4-3.6,2.5-6.7C341.4,387.9,340.1,377.1,337,366.3z"/>
					<path class="st0" d="M324.3,259.5c-4.4-0.4-22.9,0.7-27.7,1.2c-0.3,0-0.2,0.5,0,0.5c4.7,0.2,25.5-1,26.2-0.6
						c0.6,0.3,0.5,4.1,0,4.4c-1.1,0.5-21.5,0.7-26.4,0.8c-0.8,0-0.9,1.3,0,1.3c9.2-0.2,18.3-0.6,27.5-1c0.3,0,0.6-0.3,0.7-0.6
						C324.8,263.6,324.5,259.5,324.3,259.5z"/>
					<g>
						<path class="st8" d="M300.4,215c-0.2,0.5,13,13.3,13.8,15.2c0.7,1.9-17.8,51.8-21.7,67c-3.9,15.1-5.6,41.6-5.6,41.6l0-0.7
							c-0.4-33.7-0.3-67,1.3-84.3c3.9-42.9,14.3-80.8,14.3-80.8c0.3,0,2.6,2.3,4.5,3.7c0,0,0,0,0,0c0.3,1,9.1,33.9,9.2,34.9
							C316.2,212.7,300.6,214.5,300.4,215z"/>
						<path class="st0" d="M307.3,177.7c-0.1-0.3-0.3-0.2-0.2,0.1c2.2,11.5,4.8,22.7,8.3,33.8c-5.3,0.9-15.2,2.9-15.4,3.2
							c-0.3,0.4,4,5.7,6.2,8c2.5,2.6,4.9,5.4,7.7,7.6c-7.3,16.5-22.8,67.1-24.3,75.5c-1.6,8.8-2.3,17.7-2.8,26.7
							c0,0.1,0.2,0.1,0.2,0c1.2-9.4,2.2-18.8,4.1-28.1c1.8-8.3,18.2-57.4,24-73.9c0.2-0.4-12.1-13.3-14.4-15.4c5-0.8,16-2.5,15.8-3
							C313.3,200.8,310.2,189.3,307.3,177.7z"/>
					</g>
				</g>
				<g>
					<path class="st8" d="M321.3,306.4c-0.1,2.3-0.5,3.9-0.8,4c-1.2,0.6-6.1,3-12.8,5.7c-1.2,0.5-2.5,1-3.8,1.5
						c-3.7,1.4-17,8.2-32,15.4c-20,9.6-42.9,19.9-49.5,18.8c-11.5-2-27.7-15.9-28.9-23.8c-1.2-8,23.1-102.8,26.1-109.2
						c3.1-6.4,6.6-11.9,9.9-15.2l-5,104.3c0.2-0.1,0.5-0.2,1.1-0.4c3.7-1.3,16.1-4.8,30.4-8.5c23.9-6.3,53.1-13.4,54.9-12.8
						c0.7,0.2,1.3,0.5,1.9,0.8c0,0,0,0,0,0C320.1,290.7,321.5,300.7,321.3,306.4z"/>
					<path class="st10" d="M221.5,263.6C221.6,263.6,221.6,263.5,221.5,263.6"/>
					<path class="st5" d="M307.6,316.2c-1.2,0.5-2.5,1-3.8,1.5c-3.7,1.4-17,8.2-32,15.4c-3.4-2-6.8-4-10.1-6
						c-8.2-4.8-16.6-9.3-24.6-14.3c-0.6-0.4-1.3-0.8-1.8-1.3c-0.5,0-1,0-1.4,0.1c-2.6,0.1-8.1-0.1-8.4-3.4c0-0.1-0.1-0.1,0-0.2
						c0-0.1,0-0.1,0-0.2c0-0.1,0-0.2,0-0.4c3.7-1.3,16.1-4.8,30.4-8.5c12.9-0.5,25.4,1.7,37.3,7.8C297.4,309,303,312.2,307.6,316.2z
						"/>
					<path class="st0" d="M322,306.5c-0.1,1-0.2,2.1-0.4,3.2c0.1,0.2-0.3,0.6-0.6,0.8c-13.9,8.1-56.3,27-66.7,31.7
						c-6.2,2.7-27.1,12.8-33.6,9.6c-0.1-0.1-0.2-0.2,0-0.2c0.1,0,0.1,0,0.2,0c5.9,0.9,28.5-8.5,50.7-18.6c3.7-1.7,7.4-3.4,11.1-5.1
						c0.1-0.1,0.2-0.1,0.4-0.2c7.6-3.6,14.8-7,20.8-10c0,0,0.1,0,0.1,0c1.2-0.6,2.4-1.2,3.5-1.7c8.1-4,13.3-6.6,13.3-6.6
						c0.4-5,0.3-18.5-10.3-22.6c-16,4.3-34.1,8.1-50.2,12.3c-0.6,0.1-1.1,0.3-1.7,0.4c-8.4,2.2-16.9,4.5-25.4,6.8
						c-2.7,0.7-5.2,1.6-7.5,2.9c-1.4,0.8-2.8,1.8-4.1,3c-3,2.8-5.8,5.7-8.9,8.4c-0.2,0.2-0.4-0.1-0.3-0.3c3.4-4.1,6.9-8.7,11.3-11.8
						c-0.5-12.7-0.7-25.4-1-38.2c-0.6-0.9-0.9-2-1.2-3.1c-0.4-1.4-0.6-2.8-0.8-4.2c0-0.3,0.3-0.4,0.4-0.1c0.3,1.3,0.7,2.6,1.2,3.9
						c0.1,0.3,0.2,0.6,0.3,0.9c-0.1-5.3-0.3-10.6-0.4-15.9c0,0,0.1-0.1,0.1,0c2.1,14.4,2.6,29.3,2.6,44.1c0,3.9,0,7.9,0,11.8
						c1.2-0.7,2.5-1.4,3.9-1.8c8.4-2.7,17.2-4.7,25.8-6.9c10-2.6,20.7-5.1,31.4-7.5c0.2,0,0.5-0.1,0.7-0.2c6.7-1.5,13.4-3,19.9-4.5
						c1.3-0.3,2.5-0.6,3.8-0.9c0.1,0,1.3,0.3,2.8,1.1C316.8,288.9,322.9,294.2,322,306.5z"/>
				</g>
				<path class="st11" d="M251.7,293.7c-2.6,1.8-5.5,5.1-7.8,8.6c-2,2.8-3.5,5.7-4,7.7c-1.2,0.1-2.6-0.2-3.3-0.3
					c-3.9-0.7-4.9-3.9-4.9-3.9l-6.3,1.8c-2.7-1.1,0.7-5.1,0.7-5.1c-0.1-1.6,2.9-3.6,2.9-3.6c0.4-1.7,4.2-3.2,4.2-3.2
					s1.2-1.6,5.6-2.4C241.5,292.7,247.5,293.2,251.7,293.7z"/>
				<path class="st8" d="M363.9,323.8c0,5.1-16.3,29.6-27.1,28.3c-17.7-2.2-92.8-39-96.4-39.8c-0.8-0.2-0.9-1-0.6-2.3
					c0.5-1.9,2-4.8,4-7.7c2.3-3.4,5.3-6.8,7.8-8.6c0.8-0.5,1.5-0.9,2.2-1.1c4.8-1.5,49.5,6.4,68.2,9.9c4.9,0.9,7.9,1.6,8.1,1.7
					c0.3,0,0.6-6.6,0.9-16.5c1-29,2.2-86.7,2.2-86.7c5.6,5.7,17,16.8,19,20.8C354.5,225.7,363.9,318.8,363.9,323.8z"/>
				<g>
					<path class="st0" d="M342.8,310.6c-3.5-2.4-6.9-4.6-10.8-6.2c2.6-0.6,6.5,0.7,8.6,0.9c0.4,0,0.4-0.5,0.1-0.7
						c-2.2-0.8-4.8-1.3-7.1-1.3c-0.8,0-1.6,0.1-2.2,0.5c1.2-16.4,1.2-33.2-0.6-49.4c0-0.3-0.5-0.2-0.5,0.1c0,4.4,0,8.7,0,13.1
						c-0.4-1.8-1-3.6-1.4-5.4c0-0.1-0.2-0.1-0.2,0c0.8,3.9,0.8,8.1,1.6,11.9c0,9.9,0.1,19.8,0,29.7c-9.4-3.4-63.8-12.9-76.3-11.4
						c-1,0.1-1.9,0.8-2.3,1.1c-0.3,0.2-0.3,0.5-0.1,0.5c0.6-0.3,1.6-0.9,2.8-0.9c13.3-0.1,66.6,9.1,76,12.5c0.1,0.1,0.2,0.1,0.3,0.1
						c4,1.5,8,3.3,12,5.5C343.3,311.3,343.3,311,342.8,310.6z"/>
					<path class="st0" d="M345.8,348.6c-2.1,1.5-4.6,2.6-7,3c-3.7,0.6-13.8-3.3-20-5.6c-9.5-3.5-18.6-7.8-27.7-12.1
						c-8.2-3.9-16.5-7.7-24.9-11.4c-4.4-1.9-8.7-3.8-13.1-5.6c-2.7-1.1-11.3-4.1-12.8-5.2c-0.5-0.3-0.2-1.4-0.2-1.9
						c0-0.2-0.3-0.3-0.4-0.1c-0.3,1.3-0.3,1-0.4,2.4c0,0.2,0.1,0.3,0.3,0.4c20.5,8.6,40.6,18,60.8,27.3c8.7,4,17.6,7.8,26.8,10.7
						c3.6,1.1,8,2.8,11.9,2.4c2.7-0.3,5.2-1.5,7.1-4C346.3,348.6,346.1,348.5,345.8,348.6z"/>
				</g>
				<path class="st11" d="M345.9,301.9c0,0,0.8,1.9,0.2,2.7c-0.6,0.9-2.7,2.1-2.7,2.1s-11.1-2-13.2-2.5c-0.2-0.1-3.3-0.8-8.1-1.7
					c-0.5-9.5-5.6-13.8-8.8-15.6c2.4,0,12,0.2,17.9,0.8c1.8,0.2,3.3,0.4,4.1,0.6c3.4,1.1,11.9,10.5,11.8,11.7
					C346.8,301.2,345.9,301.9,345.9,301.9z"/>
			</g>
			<g>
				<path class="st0" d="M304.1,177.8c-2-11.5-20.8-12-29.6-11.4c-11.2,0.7-20.5,3.6-23.2,15.3c-2.7,11.5-2.4,24.1-1.6,35.9
					c0.1,2.2-3.3,2.5-3.4,0.3c-0.8-13.5-3.7-38.9,7.8-48.8c11.4-9.7,50.1-11.1,53.5,8.5C307.9,179.7,304.5,180,304.1,177.8
					L304.1,177.8z"/>
				<g>
					<path class="st12" d="M240.6,224.7c0.3,4.3,4.1,7.6,8.4,7.2c4.3-0.3,7.6-4.1,7.2-8.4c-0.3-4.3-4.1-7.6-8.4-7.2
						C243.5,216.6,240.3,220.4,240.6,224.7z"/>
					<path class="st13" d="M243.7,224.5c0.2,2.6,2.5,4.5,5.1,4.3c2.6-0.2,4.5-2.5,4.3-5.1c-0.2-2.6-2.5-4.5-5.1-4.3
						C245.5,219.6,243.5,221.9,243.7,224.5z"/>
				</g>
				<g>
					<g>
						<g>
							<path class="st5" d="M301.2,216.2c-0.7,33.9,2.5,41.4,6.1,44.4c3.7,3.2,8.7,4.2,8.9,4.2l0.5-2.3l-0.2,1.2l0.2-1.2
								c0,0-4.6-0.9-7.9-3.7c-2.6-2.2-5.9-9-5.2-42.6L301.2,216.2z"/>
							<path class="st12" d="M313.3,261.2l-0.8,2.7c-0.2,0.6,0.2,1.2,0.8,1.4l5.8,1.6c0.6,0.2,1.2-0.2,1.4-0.8l0.8-2.7
								c0.2-0.6-0.2-1.2-0.8-1.4l-5.8-1.6C314.1,260.3,313.5,260.6,313.3,261.2z"/>
						</g>
						<g>
							<path class="st5" d="M322.2,211.9c12.2,22.5,16.9,35.3,14.9,40.2c-1.6,4-5.2,6.9-5.3,6.9l1.5,1.9c0.2-0.1,4.2-3.3,6-7.9
								c2.4-5.9-1.9-18.1-15-42.3L322.2,211.9z"/>
							<path class="st12" d="M334.3,256.4l1.9,2.1c0.4,0.5,0.4,1.2-0.1,1.6l-4.4,4.1c-0.5,0.4-1.2,0.4-1.6-0.1l-1.9-2.1
								c-0.4-0.5-0.4-1.2,0.1-1.6l4.4-4.1C333.2,255.9,333.9,255.9,334.3,256.4z"/>
						</g>
					</g>
					<path class="st12" d="M324.9,209.6c-1.5-3.2-5.4-10.9-7.9-14.7c-2.1-3.1-6-4.6-6-4.6c-0.5,0.1-1.3-4-1.8-7.4
						c-0.5-3-1-6.4-1.9-7.2c-0.9-0.7-2.7-0.4-3.2,0.6c-0.6,1.1,0.2,4.5,0.8,7.4c0.7,3.3,1.4,7.4,1,7.5c0,0-2.9,2.9-3.7,6.4
						c-0.9,4-1.8,14.1-1.7,17c0.1,3.6,1.3,3.7,2.4,3.8c1.5,0.1,2.2-1,2.3-5.1c0.3-6.4,0-17,4.2-18l0,0c4.2-0.6,8.5,9.7,11.3,15.3
						c1.7,3.5,2.6,3.7,4,3C325.4,213.4,326.3,212.7,324.9,209.6z"/>
				</g>
			</g>
			<g>
				<g>
					<path class="st2" d="M288.8,158.5c3.2,1.4,14.1,15.8,13.7,17.9c-0.4,2.1,1,28.5-23.2,38.7l-11.8-22.3l-11.8,18.3
						c0,0-6.8-14.5-6.6-18.2c0.2-3.6,3.1-21.7,17.1-30.7C276.8,155.5,282.2,155.7,288.8,158.5z"/>
					<path class="st0" d="M302.2,176.1c-1.2,14.4-7.5,33.2-22.5,38.2c-4.1-7.1-8.3-14-11.9-21.4c-0.1-0.3-0.4-0.2-0.6-0.1
						c-0.1,0-8.4,12.1-11.6,18c-2-4-3.1-8.4-4.4-12.7c-1.8-5.9-1-10.5,0.8-16.3c0-0.1-0.2-0.2-0.3-0.1c-2.1,4.8-3.6,9.5-2.2,14.6
						c1.4,5.1,2.9,10.7,5.5,15.3c0.1,0.2,0.2,0.2,0.4,0.2c0.1,0,0.2,0,0.3-0.1c4.1-5.7,7.5-11.8,11.7-17.5c3.6,7.4,7.6,14.5,11.6,21
						c0.2,0.3,0.9,0.1,0.9,0.1c15.6-4.9,22.9-24,22.5-39.2C302.3,176,302.2,176,302.2,176.1z"/>
				</g>
				<g>
					<g>
						<path class="st11" d="M254.4,141.7l1.8,34.1l0,0.1l0.2,4.8c0,0,1.8,9.9,12.1,11.7c10.3,1.8,25.9-12,27.2-14.5
							c0.6-1.3,1.1-13.6,1.5-25.2c0.3-11.1,0.6-21.7,0.6-21.7l-4.8,1.2L254.4,141.7z"/>
						<path class="st14" d="M254.4,141.7l1.8,34.1l0,0.1c11.3-1.7,22.1-6.5,31.2-13.6c3.6-2.9,6.9-6.1,9.8-9.6
							c0.3-11.1,0.6-21.7,0.6-21.7l-4.8,1.2L254.4,141.7z"/>
					</g>
					<g>
						<g>
							<path class="st11" d="M304.1,83.3c7.1,16.1,0.8,56.4-11.4,70.1c-8.4,9.4-26.6,12.3-40.2,6.8c-6.2-2.5-11.4-6.8-14.3-12.9
								c-9.3-19.8-0.9-67.2,9.1-74.7C264.8,59.3,295.4,63.6,304.1,83.3z"/>
						</g>
						<g>
							<g>
								<path class="st0" d="M272.2,119.6c0-0.1,0.2,0.1,0.2,0.2c-0.3,2.5-0.2,5.4,2,6.5c0.1,0,0.1,0.2,0,0.1
									C271.6,125.8,271.5,121.9,272.2,119.6z"/>
								<path class="st0" d="M274.6,117.1c4.1,0,3.7,8.2,0,8.1C270.9,125.3,271.2,117.1,274.6,117.1z"/>
							</g>
							<g>
								<path class="st0" d="M252.5,118.2c0-0.1-0.2,0.1-0.2,0.2c0,2.5-0.5,5.4-2.8,6.2c-0.1,0-0.1,0.2,0,0.1
									C252.3,124.4,252.8,120.6,252.5,118.2z"/>
								<path class="st0" d="M250.3,115.4c-4-0.5-4.7,7.7-0.9,8.1C253.1,124,253.7,115.8,250.3,115.4z"/>
							</g>
							<path class="st14" d="M268.7,142.4c-0.6,0.6-1.3,1.4-2.2,1.4c-0.9,0-1.9-0.4-2.7-0.7c-0.1,0-0.2,0-0.1,0.1
								c0.6,1,2,1.7,3.1,1.5c1.2-0.2,1.8-1.1,2.1-2.2C269,142.3,268.8,142.3,268.7,142.4z"/>
							<path class="st0" d="M278,113.6c-1.1-0.3-2.1-0.8-3.1-1.2c-1.2-0.5-2.2-0.8-2.9-1.9c-0.4-0.6-0.2-1.6,0.4-2.1
								c1.3-1,2.9-0.8,4.3-0.3c1.6,0.6,2.6,1.4,3.5,2.9C281,112.4,279.5,114,278,113.6z"/>
							<path class="st0" d="M247.3,111.2c1.1-0.1,2.2-0.5,3.3-0.7c1.3-0.3,2.3-0.4,3.2-1.4c0.5-0.5,0.4-1.6,0-2.1
								c-1.1-1.2-2.7-1.3-4.2-1c-1.7,0.3-2.8,1-3.9,2.2C244.6,109.5,245.8,111.4,247.3,111.2z"/>
							<path class="st8" d="M259.8,136.6c0,0,2,5.2,6.1,4.3c3-0.7,1.6-6.8,1.6-6.8S263.5,136.9,259.8,136.6z"/>
							<g>
								<g>
									<path class="st14" d="M267.7,134.3c-1.5,2.1-3.6,3.2-5.9,3.6c-1,0.2-2.1,0.2-3.1,0c-0.2,0-0.4,0-0.6-0.1
										c-0.2,0-0.3-0.1-0.5-0.1c-0.3-0.1-0.4-0.3-0.5-0.6l0,0c0-0.1,0-0.2,0-0.3c0,0,0,0,0,0l0-0.2c0-1.9,0.3-4.9,0.3-4.9
										c-0.7,0.3-4.4,1.8-4.3,0.8c0.8-8.4,1.8-17.7,4.4-25.9c0.1-0.3,0.5-0.2,0.5,0.1c-0.5,8.1-2.4,16-3,24.1
										c1.2-0.4,3.1-1.1,4.1-1.1c0.3,0.1-0.7,5.7-0.6,6.6c0,0,0,0,0,0.1c3.2,0.6,5.7-0.3,9-2.4
										C267.6,133.9,267.8,134.1,267.7,134.3z"/>
								</g>
							</g>
						</g>
						<path class="st0" d="M245.5,83.8c-8.6,13.7-9.8,35.7-11.6,29.5c-5.8-20.6,4.5-32.5,4.5-32.5S246.5,82.1,245.5,83.8z"/>
						<path class="st0" d="M301.5,126.4c0,0-15.6-3.1-11-36.2c0,0-11.9,5.9-28.7,3.8c-17-2.1-26.2-9.4-31.6-21.1
							c-1.8-3.8,7.5,1.6,11.5-0.2c7.2-3.1,14.3-12.5,33.7-12.1s24.6,13.5,24.6,13.5s10.5,3.2,14.6,12.3
							C318.9,95.5,311.6,126.3,301.5,126.4z"/>
						<g>
							<path class="st11" d="M296.1,125.2c0,0,7.9-13.4,14-10.7c6,2.7,0.7,21.7-5.9,24.7c-6.6,3-9.5-3-9.5-3L296.1,125.2z"/>
							<path class="st14" d="M308.4,120c0.1,0,0.1,0.1,0,0.2c-4.6,2.3-6.8,6.9-8.2,11.6c1.3-1.9,3.1-3,5.6-1.5
								c0.1,0.1,0,0.3-0.1,0.3c-2-0.3-3.4,0.2-4.6,1.8c-0.8,1.2-1.4,2.6-2,3.9c-0.2,0.4-1,0.3-0.9-0.2c0,0,0-0.1,0-0.1
								C297.8,129.9,301.9,121.1,308.4,120z"/>
						</g>
						<g>
							<path class="st8" d="M286.8,156.2c6.9-3.1,13.8-6.6,18.2-13.1c3.1-4.5,5.7-9.6,6.6-15.6c-0.6,2.2-1.5,4.4-2.6,6.4
								c-1.2,2.1-2.7,4.1-4.5,5.5c0,0,0,0,0,0c-3.7,6.4-10.4,12.4-18,15.6C285.8,155.3,286.1,156.5,286.8,156.2z"/>
							<path class="st8" d="M294,129.8c1.2-1.5,5-9.4,8.4-12.3c0,0,0,0,0,0c0.5-0.5,1.1-1,1.6-1.5c1-0.8,2.1-1.4,3.1-1.7
								c-0.9-0.4-1.9-0.5-3-0.3c-5.2,1-8.8,11.5-10.7,15.4C293.4,129.8,293.8,130.1,294,129.8z"/>
							<g>
								<path class="st8" d="M295.2,128.1c0.9-2-13.2,4.8-28,1.8c-3-0.6-11.4-4-16.1-4c-4.7,0-10.1,3.8-16.6,4.5
									c-2.2,0.2-0.3,19.4,5.3,27.7c1.9,2.7,9.8,8.4,14.6,8.9c11.3,1.2,30.8-6.9,33.7-10.7C290.6,153.2,286.8,146.6,295.2,128.1z"
									/>
							</g>
							<g>
								<path class="st5" d="M236.1,134.5c4-1.7,8.5-3.2,12.8-4.1c3.8-0.7,7.2,0.6,10.8,1.9c9.6,3.4,19.3,3,29,0.3
									c0.1,0,0.2,0.2,0,0.2c-7.8,3.4-16.2,3.9-24.3,2c-4.4-1-8.8-3.4-13.4-3.1c-5,0.3-9.8,2.7-14.8,3.5
									C235.8,135.4,235.7,134.7,236.1,134.5z"/>
								<path class="st5" d="M243.2,156.6c3.1,1.5,6.1,3.6,9.3,4.7c3.8,1.2,8.3,0,12.1-0.9c7.1-1.7,13.9-4.6,20.9-7
									c0.1,0,0.1,0.1,0,0.1c-7.7,3.8-15.8,7-24,8.4c-2.8,0.5-5.8,1.2-8.6,0.4c-3.3-1-6.7-3.5-9.6-5.5
									C243.1,156.8,243.1,156.6,243.2,156.6z"/>
								<path class="st5" d="M238.5,141c7.2-2.1,14-1.6,21.3-0.6c8.4,1.1,16.7,0.9,25-0.5c0.1,0,0.1,0.1,0,0.1
									c-7.4,1.5-14.8,1.9-22.3,1.2c-3.6-0.4-7.2-1.1-10.8-1.3c-4.5-0.3-8.7,0.5-13.1,1.6C238.3,141.5,238.2,141,238.5,141z"/>
								<path class="st5" d="M240.2,148.3c6.9,3.7,13.6,5.3,21.2,4.6c7.5-0.7,14.7-3.5,21.9-6c0.1,0,0.1,0.1,0,0.2
									c-14.4,6.1-29,10.2-43.3,1.6C239.7,148.5,239.9,148.1,240.2,148.3z"/>
							</g>
						</g>
					</g>
				</g>
			</g>
		</g>
		<g>
			<g>
				<g>
					<polygon class="st7" points="704.6,354.5 697.5,405.5 697.1,408.3 689,465.3 628.9,465.3 629.8,420.3 629.9,417.4 631.1,354.5 
											"/>
					<path class="st7" d="M689,354.5c0,0-0.6,13.1-1.7,23.6c-0.1,0.7-0.1,1.3-0.2,1.9c-0.5,4.1-1,7.7-1.7,9.6
						c-1.5,4.6-15.6,17.7-25.6,26.9c-1.1,1-2.1,1.9-3.1,2.8c-3.7,3.3-6.5,5.8-7.1,6.4c-0.5,0.5-1.2,2.3-2.2,5c0,0.1,0,0.1-0.1,0.2
						c-4.1,10.8-11.2,34.5-11.2,34.5h-71c0,0-2.9-48.2-2-63.1c0.2-2.9,0.7-6.6,1.5-10.6c0-0.1,0-0.1,0-0.2c3-16,9.4-37,9.4-37H689z"
						/>
					<path class="st15" d="M704.6,354.5l-7.2,51l-0.4,2.8c-13.1,4.8-26.6,9-40.3,11c-8.9,1.3-17.9,1.8-26.9,1
						c-2.7-0.2-5.4-0.6-8.1-1.1c-21.5-3.8-40.2-14.4-57.1-27.5c0-0.1,0-0.1,0-0.2c3-16,9.4-37,9.4-37H704.6z"/>
					<path class="st0" d="M679.9,401.1c-4.7,4.1-9.3,8.3-14.3,12.2c-4.7,3.6-15.4,10.2-15.5,10.6c-5.6,13.5-9.9,27.8-14.7,41.6
						c-0.1,0.3,0.4,0.6,0.6,0.2c6.6-12.7,12.6-26.9,15.2-40.9c5.2-2.1,10-5.9,14.4-9.2c5.4-4.1,10.5-8.6,14.8-13.9
						C680.7,401.2,680.3,400.8,679.9,401.1z"/>
				</g>
				<g>
					<path class="st7" d="M728.9,253.8c-0.2,0.9-1.9,0.7-4.6,0.2c-3.5-0.6-8.7-1.9-14.4-2c0,0,0,0,0,0c-3.6-0.1-7.3,0.2-11.1,1.4
						c-0.1,0-0.2,0.1-0.3,0.1h0c-9.7,1-24.6-71.8-24.6-71.8c6.6,3.1,18.3,7.3,23.7,13.7C702.9,201.8,730.7,246.7,728.9,253.8z"/>
					<path class="st11" d="M628.7,157.5l-15.4,1.5c0,0,3.3,15.6-2.9,20.8c-6.2,5.2-25.5,19.7-28.5,24.5s8,101.2,2.8,117.3
						c-5.2,16.1-10.8,31.5-6.9,37.6c3.9,6.1,42,19.6,64.1,19.6c22.1,0,49.8-10.8,55.9-26.8c6.1-16,10.4-83.1,5.6-110
						c-4.8-26.8-18-55-24.9-57.2c-6.9-2.2-24-1.8-26.1-21.9C650.6,145.2,628.7,157.5,628.7,157.5z"/>
					<g>
						<path class="st7" d="M709.4,292.6c-0.1,2.6-0.1,5.2-0.2,7.7c-1.4,55.3-5.4,90.9-7.6,93.9c-2.3,3.2-65.5,19.1-86.3,15.3
							c-20.8-3.7-49.9-30.6-52.1-34.3c-1.9-3.2,12.8-29,16.9-54.9c0.7-4.5,1.1-8.6,1.1-12.4c-0.1-6-0.3-14.6-0.7-24.2
							c-1.2-31.1-3.3-73.3-2.5-77.3c1.1-5.3,23.1-22.8,24.2-22.6c2,0.4,44.7,28,47,26.8c2.3-1.2,13.6-32.2,14.6-32.3
							c1-0.1,16.6,4.9,19.9,9c2.5,3.1,16.9,28.7,22.9,67C708.6,266,709.7,278.9,709.4,292.6z"/>
						<path class="st0" d="M668.7,186.3c-2.7,8.3-15.3,32.3-17,33.5c-0.3,0.2-26.5-7.1-54-30.1c0,0-0.1,0,0,0
							c15.1,14.5,33.4,24.9,54.2,31.5c0.2,0.1,14.6-22.2,17.2-34.9C669.1,186.2,668.8,186.1,668.7,186.3z"/>
						<path class="st15" d="M709.4,292.6c-0.1,2.6-0.1,5.2-0.2,7.7c-0.5,0-0.9,0.1-1.3,0.1c-8.2,0.7-16.4,1.3-24.6,1.7
							c-4.2,0.2-8.4,0.3-12.6,0.6c-4.5,0.3-8,1.7-11.8,4c-6.8,4-13.7,7.8-20.7,11.4c-11.9,6-24.6,11.4-38.2,9.8
							c-7.3-0.9-14-3.5-19.9-7.6c0.7-4.5,1.1-8.6,1.1-12.4c-0.1-6-0.3-14.6-0.7-24.2c11.4-8.9,26.5-12.6,40.3-15.8
							c15.2-3.6,30.6-6.5,46-9.2c13-2.2,26.6-4.5,39.9-4.4C708.6,266,709.7,278.9,709.4,292.6z"/>
						<path class="st0" d="M702.2,235.1c-0.3-3.9-1.2-7.7-2.2-11.5c0-0.2-0.3-0.1-0.2,0.1c0.5,2.6,0.8,5.2,1.1,7.7
							c-1.5-4-3.1-8-4.8-11.9c-0.1-0.2-0.4,0-0.3,0.2c4.7,12,7.8,24.4,10.9,36.8c0.1,0.5,0.8,0.3,0.7-0.2
							C706.4,249.2,704.6,242.1,702.2,235.1z"/>
					</g>
					<g>
						<path class="st11" d="M722.7,288.9c-6.1,3.2-33.3,3.3-59.7,2.5c-21.3-0.6-42-1.9-50.6-2.5c-19.3-1.5,24.8-21.1,41.6-24.5
							c16.7-3.5,35.3-6.9,36.2-6.9c0.6,0,5.7-2.6,8.3-4.1c0.1,0,0.2,0,0.4-0.1c9.7-2.9,19.8-0.4,25.5,0.7
							C727.1,266.2,730,285.1,722.7,288.9z"/>
						<path class="st14" d="M709.9,252c-2.3,2.4-6,4.3-8.5,6.5c-7.4,6.6-26,27.9-38.3,33c-21.3-0.6-42-1.9-50.6-2.5
							c-19.3-1.5,24.8-21.1,41.6-24.5c16.7-3.5,35.3-6.9,36.2-6.9c0.6,0,5.7-2.6,8.3-4.1h0c0.1,0,0.2,0,0.3-0.1
							C702.6,252.2,706.3,251.9,709.9,252z"/>
					</g>
					<g>
						<g>
							<path class="st11" d="M701.4,252.7c-8.3,3.5-17.1,8.8-31,22.9c-13.9,14.2-54.9,44.7-70.4,41.6c-7.1-1.5-13.6-6.4-18.9-12
								c-6.4-6.7-11.1-14.3-13.1-18l44.8-19.1l1.6,1.6l0.7,0.7c4.3-4,50.8-22.8,65.3-25.7C694.7,241.8,709.7,249.2,701.4,252.7z"/>
							<path class="st14" d="M629.2,262.8c-6.1,2.5-12.4,5.7-17.3,10.2c-5.3,4.8-8.3,11.4-11.7,17.5c-0.1,0.3,0.2,0.5,0.4,0.3
								c3.9-5.7,7.4-11.9,12.5-16.6c4.9-4.5,10.7-7.6,16.4-11.1C629.6,263,629.4,262.8,629.2,262.8z"/>
							<path class="st14" d="M614.3,269.7c-9.4,6.7-24.5,19.5-33.2,35.5c-6.4-6.7-11.1-14.3-13.1-18l44.8-19.1L614.3,269.7z"/>
						</g>
						<path class="st7" d="M589.8,193.4c-6.1,5.7-24.4,22.1-27.7,34.1c-3.5,12.9-3.1,58.6,0.9,71.9c1.1,3.5,20.7-10.6,29.2-16.1
							c8.5-5.5,21.3-11.5,23.6-13.5S589.8,193.4,589.8,193.4z"/>
						<path class="st0" d="M611.4,251.5c-0.2-3.1-1-6.2-1.3-9.2c0-0.3-0.5-0.3-0.4,0c0.1,1.8,0.1,3.6,0.3,5.4
							c-1.2-2.9-2.4-5.8-3.6-8.7c-0.1-0.2-0.4-0.1-0.3,0.1c3.8,9.9,5.8,20.5,9.2,30.5c0.2,0.7,1.2,0.4,1.1-0.3
							C615.4,263.1,613.6,257.3,611.4,251.5z"/>
						<path class="st0" d="M603.8,239.1c-7.4-14.7-24-21.6-39.1-16c-0.1,0-0.1,0.2,0.1,0.2c15.2-4.9,31.1,1.5,38.7,16.1
							C603.6,239.6,603.9,239.5,603.8,239.1z"/>
					</g>
					<path class="st11" d="M623.4,265.4c0.8-0.4-18.2-5.5-25.5-3.3c-7.3,2.2-22,23.6-20,27.3c2,3.7,15.8-8,18.1-8.5
						c1.1-0.2,10.7-5.6,17.2-9.4C613.2,271.5,619.8,267.1,623.4,265.4z"/>
				</g>
			</g>
			<g>
				<g>
					<g>
						<path class="st11" d="M654.5,175.7c0,0-0.8,10-10.9,12.8c-10.1,2.8-27-9.4-28.5-11.9c-0.5-0.9-1.5-7.3-2.6-15.1
							c-0.4-3.1-0.9-6.5-1.3-9.8c-1.4-11-2.6-21.5-2.6-21.5l4.9,0.7l39.3,5.8l1.2,26.3l0.3,7.8v0.1L654.5,175.7z"/>
						<path class="st14" d="M654,163.1c-1.3,0.5-2.7,0.9-4,1.3c-12.4,3.4-26.3,3.3-37.4-2.9c-0.4-3.1-0.9-6.5-1.3-9.8
							c-1.4-11-2.6-21.5-2.6-21.5l4.9,0.7l39.3,5.8L654,163.1z"/>
					</g>
					<g>
						<g>
							<path class="st11" d="M656.9,77.3c7.8,15.8,3.1,56.3-8.5,70.5c-8,9.7-26.1,13.4-39.9,8.4c-6.3-2.3-11.7-6.3-14.8-12.3
								c-10.1-19.4-3.6-67.1,6-75C616.6,55,647.4,58,656.9,77.3z"/>
						</g>
						<g>
							<g>
								<path class="st0" d="M626.7,111.3c0-0.1,0.2,0.1,0.2,0.2c-0.2,2.5,0,5.4,2.3,6.4c0.1,0,0.1,0.2,0,0.1
									C626.4,117.5,626.2,113.6,626.7,111.3z"/>
								<path class="st0" d="M629.1,108.7c4.1-0.1,4.1,8,0.3,8.1C625.7,117,625.7,108.8,629.1,108.7z"/>
							</g>
							<g>
								<path class="st0" d="M607,110.6c0-0.1-0.2,0.1-0.2,0.2c0.1,2.5-0.3,5.4-2.5,6.3c-0.1,0-0.1,0.2,0,0.1
									C607.1,116.9,607.5,113,607,110.6z"/>
								<path class="st0" d="M604.7,108c-4.1-0.3-4.4,7.8-0.6,8.1C607.8,116.4,608.1,108.2,604.7,108z"/>
							</g>
							<path class="st14" d="M622.9,132.4c-0.6,0.6-1.2,1.4-2.1,1.5c-0.9,0.1-1.9-0.3-2.7-0.6c-0.1,0-0.2,0.1-0.1,0.1
								c0.7,1,2,1.6,3.2,1.4c1.1-0.2,1.7-1.2,2-2.2C623.1,132.4,622.9,132.3,622.9,132.4z"/>
							<path class="st0" d="M632.3,105c-1.1-0.3-2.1-0.7-3.2-1.1c-1.2-0.4-2.2-0.7-3-1.7c-0.4-0.6-0.2-1.6,0.3-2.1
								c1.2-1.1,2.8-0.9,4.3-0.4c1.6,0.5,2.7,1.3,3.6,2.7C635.3,103.7,633.8,105.4,632.3,105z"/>
							<path class="st0" d="M601.6,103.9c1.1-0.2,2.1-0.5,3.2-0.8c1.2-0.3,2.3-0.5,3.1-1.5c0.5-0.5,0.4-1.6-0.1-2.1
								c-1.1-1.2-2.7-1.1-4.3-0.8c-1.6,0.4-2.8,1.1-3.8,2.4C598.8,102.3,600.1,104.1,601.6,103.9z"/>
							<g>
								<g>
									<path class="st14" d="M622.8,126c-1.4,2.2-3.5,3.4-5.7,3.8c-1,0.2-2.1,0.2-3.1,0.1c-0.2,0-0.4,0-0.6-0.1
										c-0.2,0-0.4,0-0.6-0.1c-0.3,0-0.5-0.3-0.5-0.6l0,0c0-0.1,0-0.2,0-0.3c0,0,0,0,0,0l0-0.2c-0.1-1.9,0.1-4.9,0.1-4.9
										c-0.7,0.4-4.3,2-4.3,1c0.5-8.4,1.1-17.8,3.3-26c0.1-0.3,0.5-0.2,0.5,0.1c-0.2,8.1-1.8,16.1-2,24.3c1.2-0.4,3-1.3,4.1-1.2
										c0.3,0.1-0.5,5.7-0.4,6.6c0,0,0,0,0,0.1c3.3,0.4,5.7-0.6,8.9-2.8C622.8,125.6,623,125.8,622.8,126z"/>
								</g>
							</g>
						</g>
						<path class="st0" d="M654.6,118.9c-6.2,0-3.7-19.7-5.5-27.7c-1.7-7.1-10-12.9-18.2-9.1c-5,2.4-12.7,5.7-19.9,3.6
							c-7.2-2.1-8.4-10.1-12.5-9.1c-3.7,0.9-6.8,10.6-6.8,10.6s-1-21.6,18.2-30.5c17-7.9,35,0.7,38.7,2.8c3.7,2.1,11,6,15.7,13.3
							C669.2,80.6,664.3,118.9,654.6,118.9z"/>
						<g>
							<path class="st11" d="M651.9,119.5c0,0,7.4-13.7,13.5-11.2c6.1,2.5,1.6,21.6-4.9,24.9c-6.5,3.3-9.6-2.6-9.6-2.6L651.9,119.5z
								"/>
							<path class="st14" d="M664,113.7c0.1,0,0.1,0.1,0.1,0.2c-4.5,2.5-6.5,7.1-7.7,11.9c1.2-1.9,3-3.1,5.6-1.7
								c0.1,0.1,0,0.3-0.1,0.3c-2-0.2-3.3,0.3-4.5,2c-0.8,1.2-1.3,2.7-1.8,4c-0.2,0.4-1,0.3-0.9-0.2c0,0,0-0.1,0-0.1
								C653.9,124.1,657.6,115.1,664,113.7z"/>
						</g>
					</g>
					<g>
						<path class="st8" d="M642.2,150.1c6.9-3.1,13.8-6.6,18.2-13.1c3.1-4.5,5.7-9.6,6.6-15.6c-0.6,2.2-1.5,4.4-2.6,6.4
							c-1.2,2.1-2.7,4.1-4.5,5.5c0,0,0,0,0,0c-3.7,6.4-10.4,12.4-18,15.6C641.2,149.2,641.5,150.4,642.2,150.1z"/>
						<path class="st8" d="M649.4,123.7c1.2-1.5,5-9.4,8.4-12.3c0,0,0,0,0,0c0.5-0.5,1.1-1,1.6-1.5c1-0.8,2.1-1.4,3.1-1.7
							c-0.9-0.4-1.9-0.5-3-0.3c-5.2,1-8.8,11.5-10.7,15.4C648.8,123.6,649.2,124,649.4,123.7z"/>
						<g>
							<path class="st8" d="M650.6,121.9c0.9-2-13.2,4.8-28,1.8c-3-0.6-11.4-4-16.1-4c-4.7,0-10.1,3.8-16.6,4.5
								c-2.2,0.2-0.3,19.4,5.3,27.7c1.9,2.7,9.8,8.4,14.6,8.9c11.3,1.2,30.8-6.9,33.7-10.7C646,147.1,642.2,140.5,650.6,121.9z"/>
						</g>
						<g>
							<path class="st5" d="M591.5,128.4c4-1.7,8.5-3.2,12.8-4.1c3.8-0.7,7.2,0.6,10.8,1.9c9.6,3.4,19.3,3,29,0.3
								c0.1,0,0.2,0.2,0,0.2c-7.8,3.4-16.2,3.9-24.3,2c-4.4-1-8.8-3.4-13.4-3.1c-5,0.3-9.8,2.7-14.8,3.5
								C591.2,129.2,591.1,128.6,591.5,128.4z"/>
							<path class="st5" d="M598.6,150.5c3.1,1.5,6.1,3.6,9.3,4.7c3.8,1.2,8.3,0,12.1-0.9c7.1-1.7,13.9-4.6,20.9-7
								c0.1,0,0.1,0.1,0,0.1c-7.7,3.8-15.8,7-24,8.4c-2.8,0.5-5.8,1.2-8.6,0.4c-3.3-1-6.7-3.5-9.6-5.5
								C598.5,150.6,598.5,150.5,598.6,150.5z"/>
							<path class="st5" d="M593.9,134.8c7.2-2.1,14-1.6,21.3-0.6c8.4,1.1,16.7,0.9,25-0.5c0.1,0,0.1,0.1,0,0.1
								c-7.4,1.5-14.8,1.9-22.3,1.2c-3.6-0.4-7.2-1.1-10.8-1.3c-4.5-0.3-8.7,0.5-13.1,1.6C593.7,135.4,593.6,134.9,593.9,134.8z"/>
							<path class="st5" d="M595.6,142.2c6.9,3.7,13.6,5.3,21.2,4.6c7.5-0.7,14.7-3.5,21.9-6c0.1,0,0.1,0.1,0,0.2
								c-14.4,6.1-29,10.2-43.3,1.6C595.1,142.4,595.3,142,595.6,142.2z"/>
						</g>
					</g>
				</g>
			</g>
		</g>
		<g>
			<g>
				<path class="st8" d="M476.9,193.4c8.1,6.5,18.3,19.5,20.8,22.8c2.5,3.3,14.8,78.1,16.9,82.9s30.2,43.9,28.8,46.3
					c-1.4,2.4-15.5,17.1-22.2,16.5c-6.8-0.6-31.6-44.7-36.4-50.2C479.9,306.2,476.9,193.4,476.9,193.4z"/>
				<g>
					<path class="st2" d="M445.2,175.1c-16.2-0.6-40.7,29.5-44.1,42.2c-3.4,12.7,15.8,62,14.3,76.2c-1.5,14.2-6.5,27.6-3.2,33.3
						c3.3,5.7,37.9,16.6,51,15.6c13.1-1,24.4-19.1,27.5-23.1c3-4-1.4-39.1-0.7-41.3c0.7-2.2,12.4-11.2,10.5-23.2
						c-1.8-12-16.4-49.6-20.4-55C476.1,194.5,460.9,175.6,445.2,175.1z"/>
					<g>
						<path class="st0" d="M470.6,272.8c-5.9,2-11.8,5.3-17.9,6.3c-7.4,1.2-14.8-2-21.3-5.3c-0.2-0.1-0.4,0.2-0.2,0.3
							c5.8,3.8,12.1,7.4,19.3,7c7-0.3,14.3-4.4,20.4-7.5C471.4,273.4,471.1,272.6,470.6,272.8z"/>
						<path class="st0" d="M482.7,275.2c-6-0.4-12,0.9-17.5,3.1c-0.3,0.1-0.1,0.6,0.2,0.5c5.7-1.8,11.4-2.4,17.3-2.7
							C483.3,276.1,483.3,275.2,482.7,275.2z"/>
					</g>
				</g>
				<path class="st0" d="M414.1,302.5c0,0,37.9,13,51.5,11.7c13.6-1.3,25.9-10.9,25.9-10.9s10.4,41,12.8,55.6
					c2.4,14.6,7.8,83.2,7.7,85.6c-0.1,2.4-18.2,22.3-48.8,21.3c-30.5-1.1-75.6-16.3-78.4-19.8c-2.8-3.5,14.4-93.6,18.8-110
					C408.2,319.7,414.1,302.5,414.1,302.5z"/>
				<g>
					<path class="st8" d="M450.2,470.7c0.3,5.8-35.7-0.6-47.9-4.9c-12.1-4.3-22.5-13.1-23.7-16.7c-1.2-3.6,20.3-94.7,21.6-104
						c1.3-9.3,11.4-41.1,12-46.9c0.7-5.8-16.7-68.1-19.8-72.1c-2.6-3.3,19.8-30.5,31-40.6c2.2-2,4-3.3,5.1-3.6
						c0.6-0.2,1.4,1.3,2.4,4.1c5,14.1,14.4,61.4,18.6,85.7c2,11.4,2.5,43.9,2.3,79.3C451.7,405.5,450.1,467.2,450.2,470.7z"/>
					<g>
						<path class="st0" d="M430.3,346c-3.8,6.6-6.4,13.2-11.9,18.7c-5,5.1-10.4,9.9-16.6,13.5c-0.2,0.1-0.1,0.3,0.1,0.3
							c7.1-1.8,12.8-7.3,17.8-12.4c5.3-5.4,9.1-12.6,11.3-19.8C431.2,345.9,430.6,345.6,430.3,346z"/>
						<path class="st0" d="M433.2,355.2c-4.7,12.2-13.2,20.1-24,27.1c-0.1,0.1,0,0.2,0.1,0.1c10.6-6,21.2-14.8,24.4-27.1
							C433.7,355,433.3,354.9,433.2,355.2z"/>
					</g>
				</g>
				<g>
					<path class="st8" d="M462.7,182.2c-1.9-1.2,17.6,59,15.5,99.3c-2,40.4-3.2,187.5,0.9,190.5c4.1,3.1,31.6-15.7,36.3-22.4
						c4.8-6.6-6.2-97-10.9-111.4c-4.7-14.4-9-27.3-10.2-31.2c-1.2-3.9-3.9-27.4-3.2-28.7c0.7-1.3,9.9-9.8,11.4-21
						c1.5-11.1-22.5-59-24.1-62.1C476.8,192.2,464,183,462.7,182.2z"/>
					<path class="st0" d="M497.2,315.3c-2.9-10.6-4.9-29.4-5.4-35.9c0,0,0,0,0,0c5.8-6.5,12.3-15.9,11.5-25
						c-0.5-5-2.6-10.2-4.5-14.9c-0.3-4-1.8-8-3.4-11.6c0-0.1-0.3,0-0.2,0.1c0.8,2.3,1.3,4.7,1.8,7c-1.8-4.3-3.8-8.6-6.1-12.7
						c-0.1-0.2-0.3,0-0.2,0.1c3.8,9,7.8,18,10.4,27.5c2.9,10.7-3.3,20.8-10.2,28.6c-0.3,0.3,0,21.3,4.2,34.7
						c4,12.6,8.4,25.2,12.2,37.9c0.1,0.2,0.4,0.1,0.3-0.1C504.9,338.8,500.5,327.2,497.2,315.3z"/>
				</g>
				<path class="st8" d="M451.9,351c-1.9-0.5-3.3-45.3-5.6-54.3c-2.3-9-17.4-43.9-18-46.5c-0.6-2.6,11-19.2,10.4-19.7
					c-0.6-0.5-15.1,6.3-16.6,4.4c-1.3-1.6,2.1-41.3,3.3-49.5c0.1-0.9,2.9-6.1,3.7-4.4c10.3,20.8,16.1,66.4,20.3,90.7
					C451.6,283.2,452.1,315.6,451.9,351z"/>
				<g>
					<path class="st0" d="M448.7,320.7c-0.6-7.9-0.3-16.1-2.1-23.8c-2.7-11.6-17.7-45.4-17.6-45.6c1.7-3.9,8.5-17.4,9.7-20.3
						c0.2-0.4,0.4-0.8-0.5-0.5c-2.5,0.9-13.8,5.2-15.2,4.5c-1.1-0.5,1.4-47.2,3.9-52c0.1-0.3-0.3-0.3-0.5-0.1
						c-3.7,7.7-6.1,49.7-4.3,53.2c0.1,0.3,0.5,0.4,0.8,0.4c5-1.3,10.1-2.7,14.7-5c-2.1,2.7-10.4,19.4-10.3,19.7
						c5.7,15.3,14.3,30.5,18,47c1.9,8.6,1.8,17.6,2.7,26.3c0.8,7.9,1.8,15.9,3.2,23.7c0,0.3,0.4,0.2,0.4-0.1
						C450.6,338.9,449.5,329.8,448.7,320.7z"/>
				</g>
				<g>
					<path class="st8" d="M462.7,182.2c-2.9,0.5,9.1,52.4,10.4,62.9c1.3,10.5,3.5,106.8,3.5,106.8s4-56.8,5.1-59.9
						c1.1-3.1,5.5-46.9,5.3-48.8c-0.2-1.9-13.5-16.2-13.7-17c-0.2-0.7,11.2,1.4,11.7,0.6C485.6,226.1,464.1,181.9,462.7,182.2z"/>
					<path class="st0" d="M488,242.7c0-0.2-8.6-11.8-13.7-16.4c3.3,0.4,11.1,1.3,11.5,0.8c0.7-0.9-12.6-29.7-21.2-42.7
						c0-0.1-0.1,0-0.1,0.1c7.5,13.5,13.7,27.5,19.8,41.6c-3.7-0.5-10.6-0.4-10.6-0.4c-0.2,0-0.4,0.2-0.2,0.4
						c4.3,5.6,13.3,16.9,13.6,16.9c-2.2,17.3-4.5,34.5-6.8,51.8c-2.3,17.2-4.2,35-2.9,52.4c0,0.1,0.1,0.1,0.1,0
						c-0.1-17.7,1.5-34.8,4-52.3C483.8,277.7,487.2,260.3,488,242.7z"/>
				</g>
				<g>
					<path class="st8" d="M404.5,206.4c-5.1,6.6-13.9,15.8-18.7,34.4c-4.8,18.6-15.6,82.3-15.3,88.1c0.3,5.8,31.7,44.4,36.5,45.9
						c1.5,0.4,7.9-5.4,13-11.8c4.2-5.2,7.9-10.8,8-12.8c0.1-2.3-22.2-29.7-21.8-32c0.4-2.3,5.2-37.3,8-49.2
						C415.8,262.3,404.5,206.4,404.5,206.4z"/>
					<g>
						<path class="st0" d="M399.4,220.1c-0.1-0.1-0.2,0-0.1,0.1c10.2,12.1,12.1,27.3,14.2,42.5c0,0.1,0.2,0.1,0.2,0
							C412.4,247.6,410.1,231.6,399.4,220.1z"/>
						<path class="st0" d="M428.3,349.4c-5-7.9-10.5-15.5-16.2-23c-1.3-1.7-2.7-4.1-4.4-5.8c-0.4-0.7-0.9-1.3-1.4-1.9c0,0,0,0,0,0
							c1.6-11.8,4.2-23.6,6.1-35.4c0.9-2.1,1.7-4.2,2.6-6.2c0.1-0.2-0.2-0.3-0.3-0.1c-0.6,1.1-1.2,2.2-1.8,3.2
							c0.6-3.7,1.1-7.5,1.5-11.2c0-0.1-0.2-0.2-0.2,0c-4.1,15.6-7,32.6-9.1,48.8c-1.8-1.1-4.1-1.8-6-2.3c-0.1,0-0.1,0.1,0,0.1
							c1.7,0.6,3.4,1.3,4.9,2.3c0.4,0.2,0.7,0.5,1,0.8c0,0,0,0,0,0.1c-2.6-0.9-6.4-0.7-9-0.8c-0.1,0-0.2,0.2,0,0.2
							c2.7,0.7,7.1,0.6,9.3,2.1c2.7,1.8,5,6,6.9,8.7c5.2,6.9,10.2,14,15.2,21C427.8,350.4,428.7,350,428.3,349.4z"/>
						<path class="st0" d="M406.9,374.3c-3.5-3.7-7.4-6.9-11.1-10.4c-0.1-0.1-0.2,0-0.1,0.1c3.5,3.7,6.7,7.6,10.3,11.1
							C406.6,375.5,407.4,374.8,406.9,374.3z"/>
					</g>
				</g>
				<g>
					<g>
						<path class="st16" d="M527.9,378.8l-58.5-18.7c-2.2-0.7-3.3-3-2.7-5.1l25-78.5c0.7-2.2,3-3.3,5.1-2.7l58.5,18.7
							c2.2,0.7,3.3,3,2.7,5.1l-25,78.5C532.3,378.3,530,379.5,527.9,378.8z"/>
						<g>
							<path class="st8" d="M538.9,292.9l-28.2-9c-0.9-0.3-1.4-1.2-1.1-2.1l2-6.3c0.3-0.9,1.2-1.4,2.1-1.1l28.2,9
								c0.9,0.3,1.4,1.2,1.1,2.1l-2,6.3C540.7,292.7,539.8,293.2,538.9,292.9z"/>
							<path class="st8" d="M538,276.7l-1.6,4.9l-3.9-1.2l0.7-2.2c0.4-1.2-0.3-2.5-1.5-2.8l-5.1-1.6c-1.2-0.4-2.5,0.3-2.8,1.5
								l-0.7,2.2l-3.9-1.2l1.6-4.9c0.6-1.7,2.4-2.7,4.1-2.1l10.9,3.5C537.6,273.1,538.5,275,538,276.7z"/>
						</g>
					</g>
					<path class="st4" d="M553.7,334.8c-2.3-2.2-19.5-9.4-22.1-8.2c-3,1.4,13,9.8,12.9,10.1c-0.1,0.3-14.8-9.7-17.4-7.6
						c-2.3,1.8,14.8,12.1,14.8,12.1s-15.9-10.4-17.8-8.7c-2.2,1.9,13.3,13,13,13.1c0,0-10.8-8.3-13.1-7.2c-2,0.9,7.2,9,9.8,12.4
						c2.7,3.3,11.9,1.8,14.5,0.4C551,349.6,556.6,337.5,553.7,334.8z"/>
				</g>
			</g>
			<g>
				<path class="st0" d="M417.6,197.2c-0.3-11.7,18-15.9,26.8-17.1c11.1-1.5,20.8-0.5,25.8,10.4c4.9,10.7,7.1,23.2,8.7,34.8
					c0.3,2.2,3.7,1.8,3.4-0.4c-1.9-13.4-4-38.9-17.3-46.2c-13.1-7.3-51.3-0.9-50.7,18.9C414.3,199.8,417.7,199.3,417.6,197.2
					L417.6,197.2z"/>
				<g>
					<path class="st12" d="M489.1,230.6c0.5,4.3-2.5,8.2-6.8,8.7c-4.3,0.5-8.2-2.5-8.7-6.8c-0.5-4.3,2.5-8.2,6.8-8.7
						C484.7,223.2,488.6,226.3,489.1,230.6z"/>
					<path class="st13" d="M486,231c0.3,2.6-1.5,4.9-4.1,5.3c-2.6,0.3-4.9-1.5-5.3-4.1c-0.3-2.6,1.5-4.9,4.1-5.3
						C483.4,226.5,485.7,228.4,486,231z"/>
				</g>
				<g>
					<g>
						<g>
							<path class="st5" d="M428,234.2c7.4,33.1,5.7,41.1,2.8,44.7c-3,3.9-7.7,5.8-7.9,5.9l-0.9-2.2l0.5,1.1l-0.5-1.1
								c0,0,4.3-1.8,7-5.2c2.1-2.6,4-10-3.3-42.8L428,234.2z"/>
							<path class="st12" d="M425.1,280.7l1.3,2.5c0.3,0.5,0.1,1.2-0.5,1.5l-5.4,2.7c-0.5,0.3-1.2,0.1-1.5-0.5l-1.3-2.5
								c-0.3-0.5-0.1-1.2,0.5-1.5l5.4-2.7C424.2,280,424.8,280.2,425.1,280.7z"/>
						</g>
						<g>
							<path class="st5" d="M406.6,234.2c-7.5,24.4-9.6,37.9-6.6,42.4c2.4,3.6,6.5,5.7,6.5,5.7l-1.1,2.1c-0.2-0.1-4.7-2.4-7.5-6.5
								c-3.5-5.3-1.7-18.2,6.3-44.4L406.6,234.2z"/>
							<path class="st12" d="M403.6,280.1l-1.5,2.4c-0.3,0.5-0.1,1.2,0.4,1.5l5.2,3.1c0.5,0.3,1.2,0.1,1.5-0.4l1.5-2.4
								c0.3-0.5,0.1-1.2-0.4-1.5l-5.2-3.1C404.6,279.4,403.9,279.6,403.6,280.1z"/>
						</g>
					</g>
					<path class="st12" d="M403.5,232.4c0.8-3.4,3.1-11.8,4.9-16c1.5-3.4,5-5.7,5-5.7c0.5,0,0.4-4.2,0.3-7.6c-0.1-3-0.3-6.5,0.5-7.4
						c0.7-0.9,2.5-0.9,3.3,0c0.8,0.9,0.7,4.4,0.7,7.4c0,3.4,0.1,7.6,0.5,7.6c0,0,3.4,2.3,4.9,5.6c1.7,3.7,4.5,13.5,5,16.4
						c0.6,3.5-0.5,3.9-1.6,4.2c-1.4,0.4-2.3-0.6-3.3-4.5c-1.5-6.2-3.4-16.7-7.7-16.8v0c-4.3,0.3-6.4,11.2-8,17.2
						c-1,3.8-1.8,4.1-3.3,3.7C403.8,236.2,402.7,235.8,403.5,232.4z"/>
				</g>
			</g>
			<g>
				<g>
					<path class="st0" d="M450.7,72.2c0,0-13.9-10.8-34.1,2.6c-23,15.2-15.8,40.2-21.9,54.5c-6,14.3-20.6,17.7-17.3,33.7
						c2.8,13.8,47.3,17.4,69.6,14.4c27.5-3.7,47.3-13.4,50.2-25c2.9-11.6-13.7-18.7-14.9-27.5C481.1,116.1,482.3,71.1,450.7,72.2z"
						/>
					<path class="st0" d="M404.8,87.5c-3.9,7.2-6.6,14.8-7.9,22.9c-0.9,5.5-1,10.9-3.4,16c-2.2,4.7-5.5,8.6-9.1,12.4
						c-4.5,4.7-9.7,9.9-8.8,17c0.8,6.1,5.3,10.2,11.2,11.2c0.1,0,0.2-0.2,0-0.2c-4.9-1.2-8.8-4.6-10-9.6c-1.2-5.4,1.5-9.9,4.9-13.7
						c4.2-4.7,8.8-8.7,11.9-14.3c3.3-5.9,3.5-12.1,4.5-18.7C399.3,102.6,401.6,94.8,404.8,87.5C404.8,87.5,404.8,87.5,404.8,87.5z"
						/>
					<path class="st0" d="M498.7,142c-3.6-7-11-10.8-14.3-18.1c-6-13.4-2.6-30.1-13.1-41.5c-0.1-0.1-0.2,0-0.1,0.1
						c8.8,11.4,6.6,26.2,11.3,39.1c1.9,5.4,5,9.3,9.1,13.2c6.2,6,11.7,14.6,5.5,22.8c-0.2,0.3,0.2,0.5,0.4,0.3
						C501.3,153.2,501.4,147.2,498.7,142z"/>
					<path class="st0" d="M411.2,79.8c-8.9,6.2-12,15.3-14.2,25.5c-1.2,5.6-2.2,11.3-3.8,16.9c-1.9,6.2-5,11.5-8.4,16.9
						c-4.3,7-9.2,16.2-5.1,24.4c4.6,9,15.9,8.9,24.5,8.5c0.2,0,0.3-0.4,0-0.4c-10.6,0.4-25.6-1-25.4-15.1c0.1-10,7.6-17.2,11.9-25.6
						c8.6-16.7,4.8-38.2,20.6-50.9C411.5,79.9,411.3,79.7,411.2,79.8z"/>
				</g>
				<g>
					<path class="st4" d="M460,185.6c0,0,2.3,32.1-1.8,33.4c-7.9,2.5-23.3-32.8-24.5-35c-0.5-1-2.5-9.8-3.8-18.5
						c-0.1-0.9-0.2-1.7-0.4-2.6c-0.1-0.9-0.2-1.7-0.3-2.5c-0.1-1.1-0.2-2.2-0.3-3.3c-0.8-8.3-1.5-15.4-1.5-15.4l4,1.2l27.7,9.3
						l0.6,21.3l0,1.3l0,0.4l0.1,6.4l0,0.1L460,185.6z"/>
					<path class="st17" d="M459.7,174.6c-3.1,1.4-6.6,2.1-10.5,1.9c-8.2-0.4-14.3-5.2-19.3-11c-0.1-0.9-0.2-1.7-0.4-2.6
						c-0.1-0.9-0.2-1.7-0.3-2.5c-0.1-1.1-0.2-2.2-0.3-3.3c-0.8-8.3-1.5-15.4-1.5-15.4l4,1.2l27.7,9.3l0.6,21.3L459.7,174.6z"/>
				</g>
				<g>
					<path class="st0" d="M466.7,82.6c0,0,12.3,2.2,15.7,17.5c2.8,12.8-5.1,24.9-6.7,26C472.9,128.3,459.6,90.7,466.7,82.6z"/>
					<path class="st4" d="M479.2,124c0.8,37.7-20.3,40.2-26.6,41.4c-7.2,1.4-35.7,0.9-40.3-36.5c-4.7-37.4,12.6-49.6,29.4-50.9
						C458.5,76.8,478.4,86.3,479.2,124z"/>
					<g>
						<g>
							<path class="st0" d="M445,126.6c0-0.1-0.2,0.1-0.2,0.2c0.4,2.5,0.4,5.5-1.8,6.6c-0.1,0,0,0.2,0,0.1
								C445.8,132.9,445.7,128.9,445,126.6z"/>
							<path class="st0" d="M442.4,124.2c-4.1,0.2-3.5,8.4,0.4,8.3C446.5,132.3,445.8,124.1,442.4,124.2z"/>
						</g>
						<g>
							<path class="st0" d="M464.4,125.1c0-0.1,0.2,0.1,0.2,0.2c-0.1,2.6,0.2,5.5,2.5,6.4c0.1,0,0.1,0.2,0,0.1
								C464.2,131.4,463.9,127.5,464.4,125.1z"/>
							<path class="st0" d="M466.7,122.4c4.1-0.2,4.3,8,0.5,8.3C463.4,130.9,463.3,122.6,466.7,122.4z"/>
						</g>
						<path class="st17" d="M446.6,145.8c0.6,0.6,1.1,1.5,2.1,1.6c0.9,0.1,2-0.2,2.8-0.5c0.1,0,0.2,0.1,0.1,0.1
							c-0.7,0.9-2.2,1.5-3.3,1.2c-1.1-0.3-1.7-1.3-1.9-2.4C446.3,145.7,446.5,145.7,446.6,145.8z"/>
						<path class="st0" d="M468.2,115.7c-0.9-0.1-1.7-0.3-2.5-0.5c-1-0.2-1.8-0.3-2.5-1c-0.4-0.4-0.4-1.2,0-1.6c0.8-1,2.1-1,3.3-0.8
							c1.3,0.2,2.2,0.7,3.1,1.7C470.3,114.4,469.3,115.8,468.2,115.7z"/>
						<path class="st0" d="M439.1,117.6c0.9-0.2,1.6-0.5,2.5-0.8c0.9-0.3,1.7-0.5,2.4-1.3c0.3-0.4,0.2-1.3-0.2-1.6
							c-0.9-0.9-2.2-0.8-3.3-0.5c-1.3,0.4-2.1,0.9-2.9,2C436.8,116.5,437.9,117.9,439.1,117.6z"/>
						<g>
							<path class="st0" d="M456.7,141.4c0,0-1.6,2.5-3.9,3.6c-0.9,0.4-1.8,0.6-2.8,0.4c-2.1-0.4-2.3-2.3-2.1-3.9
								c0.2-1.4,0.7-2.6,0.7-2.6S451.8,141.5,456.7,141.4z"/>
							<path class="st11" d="M452.8,145c-0.9,0.4-1.8,0.6-2.8,0.4c-2.1-0.4-2.3-2.3-2.1-3.9C450.1,141.6,452.4,142.9,452.8,145z"/>
						</g>
						<g>
							<path class="st17" d="M457.3,136.5c0,0,0.5,3.8,0.5,5.6c0,0.2-0.4,0.2-1.1,0.3c0,0,0,0-0.1,0c-3.2,0.5-6.4-0.6-8.3-3.2
								c-0.1-0.2,0.1-0.4,0.3-0.3c2.4,1.7,5,2.2,7.8,2.2c0.1-0.5-1.1-6.5-0.8-6.6c1-0.1,2.9,0.6,4.1,0.9c-0.9-8-3-15.8-3.8-23.8
								c0-0.3,0.4-0.4,0.5-0.1c2.8,8,4,17.2,5.2,25.5C461.8,138.2,458.1,136.8,457.3,136.5z"/>
						</g>
					</g>
					<path class="st0" d="M414.8,131.2c6.2,0.6,10.2-16.2,10.2-16.2s41.8-5.8,41.7-32.4c0,0-23.8-18.4-46.7,0.1
						C397.1,101.3,409.1,130.7,414.8,131.2z"/>
					<g>
						<path class="st4" d="M418.4,133.2c0,0-7.4-12.3-12.9-9.7c-5.5,2.6-0.5,20,5.6,22.7c6.1,2.7,8.7-2.9,8.7-2.9L418.4,133.2z"/>
						<path class="st17" d="M407,128.4c-0.1,0-0.1,0.1,0,0.2c4.3,2.1,6.3,6.3,7.6,10.6c-1.2-1.7-2.9-2.7-5.2-1.3
							c-0.1,0.1,0,0.3,0.1,0.2c1.8-0.3,3.1,0.1,4.2,1.6c0.8,1.1,1.3,2.4,1.8,3.6c0.2,0.4,0.9,0.2,0.8-0.2c0,0,0-0.1,0-0.1
							C416.8,137.5,413,129.4,407,128.4z"/>
					</g>
				</g>
				<g>
					<path class="st8" d="M404.1,135.9c1.1,5.6,3.9,10.2,7.1,14.4c4.6,5.9,11.3,8.9,18,11.4c0.7,0.2,0.9-0.9,0.2-1.1
						c-7.4-2.6-14-7.9-17.9-13.7c0,0,0,0,0,0c-0.3-0.2-0.5-0.4-0.8-0.6c-2.3-1.2-4.5-4.6-5.9-8.4c0-0.1,0-0.1-0.1-0.2
						C404.6,137,404.3,136.4,404.1,135.9z"/>
					<path class="st8" d="M410.7,124.5c1.6,1,3.2,2.4,4.6,3.8c0,0,0,0,0,0c0.8,0.8,1.7,1.7,2.5,2.8c0.3,0.3,0.5,0.7,0.8,1
						c0.4,0.5,0.6,0.8,0.6,0.8l0,0.1c1.8,2.6,3.3,5.2,4,6c0.2,0.3,0.6-0.1,0.5-0.3c-1.9-3.6-5.5-13.2-10.9-14.1
						C412,124.4,411.3,124.4,410.7,124.5z"/>
					<g>
						<path class="st8" d="M420.8,134.5c-0.9-1.8,12.7,4.2,26.5,0.9c2.8-0.7,10.7-4.1,15.1-4.3c4.4-0.1,9.7,3.3,15.9,3.8
							c2.1,0.2,0.9,18.3-4.2,26.4c-1.7,2.7-9,8.2-13.6,8.8c-10.7,1.4-29.4-5.6-32.3-9.1C425.9,158.2,429.2,151.8,420.8,134.5z"/>
					</g>
					<g>
						<path class="st5" d="M477.4,140.7c-3.9-1.5-8.2-2.8-12.2-3.5c-3.6-0.6-6.8,0.8-10.2,2.1c-9,3.5-18.2,3.5-27.5,1.1
							c-0.1,0-0.1,0.2,0,0.2c7.4,3,15.4,3.2,23,1.2c4.2-1.1,8.3-3.5,12.6-3.3c4.7,0.1,9.4,2.3,14.1,2.9
							C477.6,141.4,477.8,140.8,477.4,140.7z"/>
						<path class="st5" d="M471.2,161.8c-2.9,1.5-5.6,3.6-8.6,4.7c-3.6,1.3-7.9,0.2-11.4-0.5c-6.8-1.4-13.3-3.9-20-6
							c-0.1,0-0.1,0.1,0,0.1c7.4,3.3,15.1,6.1,23,7.3c2.6,0.4,5.6,1,8.2,0.1c3.1-1.1,6.2-3.5,9-5.5
							C471.4,161.9,471.3,161.8,471.2,161.8z"/>
						<path class="st5" d="M475.3,146.8c-6.9-1.8-13.3-1.1-20.2,0c-7.9,1.3-15.8,1.3-23.7,0.3c-0.1,0-0.1,0.1,0,0.1
							c7,1.2,14.1,1.4,21.2,0.4c3.4-0.5,6.8-1.2,10.2-1.6c4.2-0.4,8.3,0.2,12.5,1.1C475.4,147.3,475.5,146.9,475.3,146.8z"/>
						<path class="st5" d="M473.9,153.8c-6.4,3.7-12.7,5.5-19.9,5c-7.1-0.4-14.1-2.9-20.9-5c-0.1,0-0.1,0.1,0,0.2
							c13.8,5.3,27.8,8.8,41.1,0.2C474.3,154,474.1,153.6,473.9,153.8z"/>
					</g>
				</g>
			</g>
		</g>
	</g>
</g>
<g>
</g>
<g>
</g>
<g>
</g>
<g>
</g>
<g>
</g>
<g>
</g>
</svg>
