<?xml version="1.0" encoding="utf-8"?>
<!-- Generator: Adobe Illustrator 24.1.0, SVG Export Plug-In . SVG Version: 6.00 Build 0)  -->
<svg version="1.1" xmlns="http://www.w3.org/2000/svg" xmlns:xlink="http://www.w3.org/1999/xlink" x="0px" y="0px"
	 viewBox="0 0 659.5 418.9" style="enable-background:new 0 0 659.5 418.9;" xml:space="preserve">
<style type="text/css">
	.st0{fill:#48C3D2;}
	.st1{fill:#E8F6F9;}
	.st2{fill:#121F45;}
	.st3{fill:#DF5F45;}
	.st4{fill:#CD492F;}
	.st5{fill:#00ACC1;}
	.st6{opacity:0.2;fill:#144372;}
	.st7{fill:#DC6044;}
	.st8{fill:#96211E;}
	.st9{opacity:0.3;fill:#FFFFFF;}
	.st10{fill:#FFFFFF;}
	.st11{opacity:0.25;fill:#FFFFFF;}
	.st12{fill:#00B0C0;}
	.st13{opacity:0.5;}
	.st14{opacity:0.25;}
	.st15{opacity:0.5;fill:#FFFFFF;}
	.st16{opacity:0.45;}
	.st17{opacity:0.65;}
	.st18{fill:#144372;}
	.st19{fill:#00B7CE;}
	.st20{fill:#FBC4B4;}
	.st21{opacity:0.3;}
	.st22{fill:#F16564;}
	.st23{opacity:0.3;fill:#F16564;}
	.st24{fill:#00B1CA;}
	.st25{fill:#00B2C6;}
	.st26{fill:#08456E;}
	.st27{fill:#00A0B4;}
	.st28{fill:#FAC1B8;}
	.st29{fill:#F16569;}
	.st30{opacity:0.3;fill:#F16569;}
	.st31{fill:#0D1B42;}
	.st32{fill:#B8B8B8;}
	.st33{opacity:0.15;fill:#08456E;}
	.st34{fill:#C4C7E4;}
	.st35{fill:#00AFBA;}
	.st36{fill:#007987;}
</style>
<g id="Layer_2">
	<g>
		<ellipse class="st0" cx="317.3" cy="368" rx="241.5" ry="38.1"/>
		<g>
			<g>
				<path class="st1" d="M121.2,350.1c-0.1,0.3,382.9,0.8,395.5,0.8c0.2,0,0.4,0,0.6-0.1c43.8-23,65.1-65.6,61.4-105
					c-13.3-144.5-71.1-50-143.2-187.8C369.9-48.9,78.1,56.8,129.8,181c0.1,0.1,0.1,0.3,0,0.4c-4.5,21.4-21.9,34.4-41,57.9
					c0,0,0,0.1-0.1,0.1C64.4,277.5,74.7,328.4,121.2,350.1z M461.5,111.7c20.7,33.5,82.3,34.4,99.1,68.8c0.5,1-1.3,1.6-1.9,0.7
					c-23.3-33.2-61-32-88.8-52.2C433.8,102.8,436.8,64,414,42.4c-0.8-0.8,0.6-2,1.4-1.2C447,70.8,445.9,87.1,461.5,111.7z
					 M89.2,242.5c15.7-20.4,32.9-34.8,40-52.8c0.4-1,2.1-0.7,2.1,0.3c-2,26.7-57.6,46.7-49.6,108.2c0.1,1.1-1.9,1.3-2.1,0.2
					c-3.7-18.5,0.8-38.9,9.6-55.8C89.2,242.6,89.2,242.5,89.2,242.5z"/>
				<path class="st1" d="M213.4,38.4c-39.9,12.3-78.8,45.8-86.5,77C139.7,80.8,178.7,54.4,213.4,38.4z"/>
			</g>
		</g>
	</g>
	<g id="Layer_3">
	</g>
</g>
<g id="Layer_1">
	<g>
		<g>
			<path class="st2" d="M208.3,122.6c-7.1,0.7-6.7,4-10.6,4.8s-7.8,1.5-11.3,3.2c-1.4,0.7-2.7,1.5-4.2,1.9c-1.5,0.4-3.2,0.3-4.3-0.8
				c-1.1-1.1-1-3.3,0.4-3.9c-1.5-0.4-2.6-2-2.5-3.6c0.1-1.6,1.4-3,2.9-3.3c-4.1-2.1-1.2-7.5,2.7-5.5c-3.9-7.2,3.8-12.6,9.5-6.3
				c0.6-4.3,6.9-5.8,7.8,0.5c1-5.3,8-3.6,7.3,1c2.9-2.4,5.3,1,3.1,3.4C213.2,113.6,215.4,122,208.3,122.6z"/>
		</g>
		<g>
			<g>
				<path class="st3" d="M191.2,356.3c0,0-0.1,4.4-0.2,6.8c-0.1,2.5,0.9,9.4,0,12.5c-0.9,3.1-5.4,6.8-7.1,6.7
					c-1.7-0.1-4-5.3-2.6-10.2c1.4-4.8,4-7.8,3.4-15.9H191.2z"/>
				<path class="st4" d="M191.1,364.6c0-0.6,0-1.1,0-1.4c0.1-2.5,0.2-6.8,0.2-6.8h-6.5c0.3,3.4,0,5.9-0.6,8
					C186.4,363.2,188.7,363.7,191.1,364.6z"/>
				<path class="st2" d="M181.6,371.4c-0.1,0.3-0.2,0.6-0.3,0.9c-1.4,4.8,0.9,10,2.6,10.2c1.7,0.1,6.1-3.7,7.1-6.7
					c0.4-1.3,0.4-3.4,0.4-5.6C189.1,376.3,182,376.3,181.6,371.4z"/>
			</g>
			<g>
				<path class="st3" d="M209.9,357.1c0,0,0.1,4.4,0.2,6.8s-0.9,9.4,0,12.5c0.9,3.1,5.4,5.5,7.1,5.4c1.7-0.1,4-4,2.6-8.8
					c-1.4-4.8-3.6-8-3.4-15.9H209.9z"/>
				<path class="st4" d="M217.1,364.8c-0.5-2.1-0.8-4.5-0.7-7.7h-6.5c0,0,0.1,4.4,0.2,6.8c0,0.5,0,1.1,0,1.8
					C212.3,364.1,214.8,364.1,217.1,364.8z"/>
				<path class="st2" d="M219.5,372.2c0.1,0.3,0.2,0.6,0.3,0.9c1.4,4.8-0.9,8.7-2.6,8.8c-1.7,0.1-6.1-2.3-7.1-5.4
					c-0.4-1.3-0.4-3.4-0.4-5.6C212.5,376.8,219.5,375.8,219.5,372.2z"/>
			</g>
			<path class="st5" d="M221.9,311.8c-2.3-12.6,6.9-30.4,7.1-39.6c0.4-15.3-2.1-21.8-2.1-21.8l-40.5-2.7c0,0-3.9,6.1-4.6,12.8
				c-0.3,5.5,0.2,11.2,1.2,17c2.4,11.1,4.6,22.2,1,32.9c-5.4,15.9-4.3,28-2,50c0,0,3,1.4,6,1.4c3.3,0,6.6-1.4,6.6-1.4
				c4-26.4,2.1-40.9,4.8-51.5c3.9-15.3,5.1-27.4,7.2-43.2c0.2,10.5,0.1,35.9,0.9,45.1c0.8,9.2-3.1,19.8-0.3,49.6
				c0,0,3.1,2.1,6.8,2.1c3.7,0,5.8-2.1,5.8-2.1S225.7,332.7,221.9,311.8z"/>
			<path class="st6" d="M229.1,269.9c0.1-13.6-2.1-19.4-2.1-19.4l-40.5-2.7c0,0-3.9,6.1-4.6,12.8c-0.1,2.5-0.1,4.9,0,7.4
				c8.8-1,15.5-0.3,24,3.5c0.2-1.9,0.5-3.8,0.7-5.7c0,1.6,0.1,3.6,0.1,5.7C214.7,268.9,221.8,268.6,229.1,269.9z"/>
			<g>
				<path class="st2" d="M219.8,168.7c7.5-3.4,12.4-21.8,8.7-33.9c-4.2-13.6-15.8-17-24.5-16.7c-11.1,0.3-21.6,4.1-26.1,14.6
					c-6,13.7-2.6,27.7,8.6,35C196.9,174.6,213.8,171.5,219.8,168.7z"/>
				<g>
					<path class="st7" d="M210.4,172.1c-0.1,1.8-0.5,9.5,0.1,10.2c0.5,0.6,6.3,1.9,8.3,2.1c-0.7,3.4-1.6,6.4-3.3,9.5
						c-1.7,3.1-4.4,5.8-7.7,6.9c-0.2,0.1-0.4,0.1-0.6,0.1c-0.2,0-0.4-0.1-0.6-0.2c-6.7-3.9-12.2-9-15.4-16.1c0.8,0,5.6-0.8,6.1-2
						c0.6-1.4,1-7.8,0.5-10.5L210.4,172.1z"/>
				</g>
				<g>
					<path class="st4" d="M197.8,180.5c0.4-2.5,0.5-6.4,0.1-8.4l12.5,0c-0.1,1.5-0.4,6.7-0.2,9C206,182.1,201.8,181.7,197.8,180.5z"
						/>
				</g>
				<g>
					<g>
						<path class="st7" d="M224.6,151c0.2-0.3,0.4-0.6,0.6-0.9c0.8-0.9,2.1-1.4,3.3-1.2c1.2,0.2,2.3,1,2.8,2.1
							c0.2,0.3,0.3,0.7,0.4,1.1c0.7,3.1-0.6,6.5-2.9,8.7c-0.9,0.8-2,1.5-3.2,1.6c-0.5,0-1.1-0.1-1.5-0.4c-0.4-0.3-0.6-0.7-0.8-1.2
							C222.6,159.1,222.4,154.6,224.6,151z"/>
					</g>
					<g>
						<path class="st4" d="M230,152.2c1.2,1-0.2,6.1-2,7.8c-0.7,0.7-1.6,1.2-2.5,1.2c-0.4,0-0.9-0.1-1.2-0.3
							c-0.3-0.2-0.5-0.6-0.6-0.9C223.1,158.7,227.2,149.8,230,152.2z"/>
					</g>
					<g>
						<g>
							<path class="st8" d="M229.5,152.3c-0.7,0.1-1.4,0.5-1.9,1c-0.6,0.5-1.2,1.1-1.7,1.7c-0.2,0.3-0.4,0.7-0.6,1
								c-0.2,0.4-0.3,0.7-0.3,1.1c0,0.2,0.1,0.4,0,0.6c0,0.2-0.1,0.4-0.1,0.6c0,0.4,0,0.8,0,1.2c0,0.4,0.7,0.4,0.7,0
								c0-0.3,0-0.7,0-1c0-0.2,0-0.4,0.1-0.6c0-0.2,0.1-0.3,0.2-0.5c0.2-0.3,0.3-0.6,0.4-1c0.1-0.3,0.3-0.6,0.5-0.9
								c0.3-0.6,0.7-1.2,1.1-1.7c0.5-0.6,0.9-1.1,1.7-1.3C229.8,152.5,229.7,152.2,229.5,152.3L229.5,152.3z"/>
						</g>
					</g>
					<g>
						<g>
							<path class="st8" d="M226.5,156C226.5,156,226.5,156,226.5,156C226.5,156,226.5,156,226.5,156
								C226.6,155.9,226.5,156,226.5,156c0.1-0.1,0.1-0.1,0.2-0.1c0,0,0,0,0.1,0c-0.1,0,0,0,0,0c0,0,0.1,0,0.1,0c0.1,0-0.1,0,0,0
								c0,0,0.1,0,0.1,0c0,0,0.1,0,0,0c-0.1,0,0,0,0,0c0,0,0.1,0,0.1,0c0,0-0.1,0,0,0c0,0,0,0,0,0c0,0,0,0,0,0c0,0-0.1-0.1,0,0
								c0,0,0,0,0.1,0.1c0,0,0-0.1,0,0c0,0,0,0.1,0,0.1c0,0,0,0.1,0,0.1c0,0,0,0.1,0,0.1c0.1,0.2,0.1,0.3,0.1,0.5c0,0,0,0.1,0,0.1
								c0,0,0,0,0,0c0,0,0,0,0,0.1c0,0.1,0,0.2-0.1,0.3c0,0.1,0,0.1-0.1,0.2c0,0.1-0.1,0.2-0.2,0.3c-0.1,0.2-0.2,0.4-0.4,0.5
								c-0.1,0.1-0.4,0.3-0.4,0.6c0,0.1,0.1,0.3,0.2,0.3c0.3,0.1,0.5-0.2,0.7-0.3c0.2-0.2,0.3-0.4,0.5-0.6c0.3-0.4,0.5-0.9,0.5-1.4
								c0-0.8-0.4-1.7-1.3-1.6c-0.4,0-0.7,0.2-0.9,0.4C225.5,155.8,226.1,156.4,226.5,156L226.5,156z"/>
						</g>
					</g>
				</g>
				<g>
					<path class="st7" d="M184,158.2c0,2.2,2.2,15.4,16.7,18.2c7.4,1.4,15.1-1.1,20.3-7.9c6.4-8.4,4.7-23.8,3.7-27.2
						c-2.4-8.1-8.4-15.1-17.7-14.8C185.5,127.2,183.7,141.9,184,158.2z"/>
				</g>
				<path class="st4" d="M226.1,150c0,0,0.8-10-3.1-16.1c-4.4-6.8-11.8-8.2-19.3-8c-15.4,0.5-19.3,8.6-21,13.2
					c-1.7,4.6-1.7,9.8-0.6,14.6c0.3,1.5,2.8,2.7,3.9,3.8c6.3-3.9-0.4-11.1,5.4-11.1c6.6,0,2.7-7.5,8.4-6.2c7.1,1.6,5.8-6.2,10.6-2.7
					c3.5,2.6,9.2-1,8.4,3.1c-0.9,4.9,5,3.2,4,5.7c-0.6,1.4,2.5,2.6,2.8,5.2c0.1,0,0.2,0,0.2,0C225.9,151.2,226,150.6,226.1,150z"/>
				<path class="st4" d="M208.1,155.3c-2-1.1-4.3-0.4-2.4,1.5c1.7,1.7,4.5,1.2,5.3-1C211.8,153.6,209.5,156,208.1,155.3z"/>
				<path class="st9" d="M208.5,152.9c-0.7,0-1.6,0.7-0.9,1.4c0.7,0.7,1.7,0.5,2-0.4C209.9,153.1,209.1,152.9,208.5,152.9z"/>
				<g>
					<g>
						<path class="st8" d="M208.7,150.3c0.1,0.6,0.3,1.2,0.6,1.7c0.3,0.5,0.6,1,0.9,1.5c0.3,0.5,0.4,1,0.3,1.6
							c-0.1,0.3-0.2,0.6-0.4,0.9c-0.2,0.3-0.5,0.4-0.8,0.6c-0.3,0.3,0,0.7,0.3,0.8c0.8,0.1,1.6-0.8,1.9-1.4c0.3-0.8,0.3-1.8,0-2.6
							c-0.6-1.2-2-1.9-2.4-3.2C209.1,149.9,208.7,150,208.7,150.3L208.7,150.3z"/>
					</g>
				</g>
				<g>
					<path class="st10" d="M212.9,160.6c-3.2,1.4-7.1,0.9-10.6-0.5c0,0,1.8,4.1,5.2,4.1C211.9,164.1,212.9,160.6,212.9,160.6z"/>
				</g>
				<g>
					<g>
						<path class="st8" d="M212.8,160.3c-3.3,1.2-7,0.6-10.2-0.8c-0.6-0.3-1.1,0.3-0.9,0.9c0.7,1.7,2.1,3.3,3.8,4
							c2.4,1,5.3-0.1,6.9-2.1c0.4-0.5,0.6-1,0.8-1.6c0.1-0.5-0.6-0.7-0.7-0.2c0.1-0.2-0.1,0.1,0,0c0,0.1-0.1,0.2-0.1,0.2
							c-0.1,0.3-0.3,0.5-0.4,0.7c-0.5,0.8-1.2,1.4-2.1,1.7c-1.2,0.5-2.6,0.6-3.8,0.1c-0.9-0.4-1.7-1.1-2.3-1.9c-0.4-0.5-0.7-1-1-1.6
							c-0.3,0.3-0.6,0.6-0.9,0.9c3.5,1.5,7.4,1.6,10.9,0.2C213.2,160.7,213.1,160.2,212.8,160.3z"/>
					</g>
				</g>
				<path class="st4" d="M204.6,167c0,0.9,1.3,1.7,2.8,1.7s2.8-0.8,2.8-1.7c0-0.9-1.3-1-2.8-1S204.6,166,204.6,167z"/>
				<g>
					<path class="st2" d="M221.5,146.9c-1.4-1.4-4.6-1.9-6.4-0.8c-1.3,0.8-2.6-1.2-1.2-1.9c2.9-1.5,6.6-0.3,8.5,2.1
						C222.9,146.7,222,147.3,221.5,146.9L221.5,146.9z"/>
				</g>
				<g>
					<path class="st2" d="M191.4,146.1c2.8-2.3,7-3.4,10.4-1.6c1.4,0.7,0.1,2.7-1.2,1.9c-2.2-1.3-6.2-1.1-8.3,0.4
						C191.6,147.3,190.8,146.6,191.4,146.1L191.4,146.1z"/>
				</g>
				<ellipse class="st11" cx="218.7" cy="159.2" rx="1.5" ry="1.1"/>
				<ellipse class="st11" cx="195.6" cy="159.5" rx="1.5" ry="1.1"/>
				<g>
					<path class="st12" d="M253.4,221.5c-0.5-3-21.8-30.9-26.1-34.8c-2.7-2.5-12.1-3.1-12.1-3.1c-2,7.6-15.6,6-19.7-0.1
						c-3.6,0.7-13.1,1.5-16.3,5.1c-2,2.2-7.4,15.2-11.2,24c-3.8,8.8-6.8,20.5-5.1,23.4c1.8,3.1,13.6,4.4,21.8,5.1
						c-3.6,8.9-8,18.2-8,18.2c23.1,11,57.3,1.3,57.3,1.3c-1.1-7-7-28.1-7.6-32.2c-0.4-3.1,0.9-19.8,0.9-19.8
						c3.1,3.5,12.6,12.3,12.6,12.3s-2.9,5.9-5.5,9.4c1.4,2.4,3,4.7,4.9,6.8C246.4,233,254.1,225.5,253.4,221.5z M189.2,227
						c-0.1,1.5-0.7,2.9-1.5,5.3c-5.6-2.1-12.9-4.1-12.9-4.1l11.1-18.9C186,209.4,189.8,219.5,189.2,227z"/>
				</g>
				<g>
					<g>
						<path class="st8" d="M207.6,156.5c-0.1-0.2-0.2-0.4-0.4-0.6c-0.1-0.2-0.3-0.3-0.5-0.5c0,0,0.1,0.1,0.1,0.1c0,0,0,0,0,0
							c0,0,0.1,0.1,0.1,0.1c0,0-0.1-0.1-0.1-0.1c0,0-0.1-0.1-0.1-0.1c0,0-0.1,0-0.1,0c-0.1-0.1-0.2-0.1-0.3-0.1
							c0.1,0.1,0.2,0.2,0.4,0.3c0,0,0-0.1-0.1-0.1c0-0.1-0.1-0.1-0.2-0.2c-0.1-0.1-0.3-0.1-0.4-0.1c-0.1,0-0.3,0.1-0.4,0.2
							c-0.1,0.1-0.2,0.3-0.2,0.5c0,0.3,0.2,0.5,0.5,0.6c0.1,0,0.4,0,0.5-0.1c0.1-0.1,0.2-0.1,0.2-0.2c-0.2,0.1-0.4,0.2-0.5,0.3
							c0.2,0,0.3,0,0.5,0c0,0-0.1,0-0.1,0c0.1,0,0.1,0,0.2,0c0,0-0.1,0-0.1,0c0.1,0,0.1,0,0.2,0.1c0,0-0.1,0-0.1,0
							c0.1,0,0.2,0.1,0.3,0.2c0,0,0,0,0,0c-0.1-0.1,0,0,0,0c0,0,0,0,0.1,0.1c0,0,0.1,0.1,0,0c0,0,0,0.1,0.1,0.1
							c0.1,0.1,0.3,0.2,0.4,0.1C207.7,156.9,207.7,156.7,207.6,156.5L207.6,156.5z"/>
					</g>
				</g>
				<path class="st2" d="M219.3,151.9c-0.1,0.4-0.4,0.6-0.8,0.8c0-0.1,0-0.1,0-0.2c0.1-0.1,0.2-0.3,0.3-0.4c0.2-0.4,0.3-1,0.3-1.4
					c0-0.2-0.2-0.3-0.3-0.1c-0.1,0.4-0.3,0.6-0.6,0.8c-0.1,0.1-0.1,0.1-0.2,0.2c-0.2-0.3-0.5-0.5-0.8-0.5c-0.8,0-1.5,1.3-1.5,2.8
					s0.7,2.8,1.5,2.8c0.8,0,1.5-1.3,1.5-2.8c0,0,0-0.1,0-0.1c0.1-0.1,0.3-0.3,0.4-0.4c0.3-0.4,0.5-0.9,0.5-1.4
					C219.7,151.8,219.4,151.7,219.3,151.9z"/>
				<path class="st2" d="M198.3,151.9c-0.1,0.4-0.4,0.6-0.8,0.8c0-0.1,0-0.1,0-0.2c0.1-0.1,0.2-0.3,0.3-0.4c0.2-0.4,0.3-1,0.3-1.4
					c0-0.2-0.2-0.3-0.3-0.1c-0.1,0.4-0.3,0.6-0.6,0.8c-0.1,0.1-0.1,0.1-0.2,0.2c-0.2-0.3-0.5-0.5-0.8-0.5c-0.8,0-1.5,1.3-1.5,2.8
					s0.7,2.8,1.5,2.8c0.8,0,1.5-1.3,1.5-2.8c0,0,0-0.1,0-0.1c0.1-0.1,0.3-0.3,0.4-0.4c0.3-0.4,0.5-0.9,0.5-1.4
					C198.7,151.8,198.4,151.7,198.3,151.9z"/>
				<path class="st2" d="M180.4,137c1.8-5.1,6.1-13.9,22.9-14.5c8.1-0.3,16.3,1.3,21,8.7c4.2,6.6,3.4,17.6,3.4,17.6
					c-0.2,2.9-2.5,5.5-2.1,2.7c0.5-3.6-2.1-4.8-1.4-6.5c1.1-2.8-5.3-1.5-4.4-6.8c0.8-4.5-5.3-0.6-9.2-3.4c-5.3-3.9-3.8,4.7-11.6,2.9
					c-6.3-1.5-1.9,7.3-9.2,7.3c-6.3,0,1.5,8.2-4.8,12.5c-1.2-1.2-5-2.9-5.4-4.6C178.6,147.7,178.6,142.1,180.4,137z"/>
				<g class="st13">
					<g class="st14">
						<g>
							<path class="st10" d="M207,120.4c1.7,1,3.7,1.3,5.5,1.9c1.5,0.5,3.3,1.6,3.8,3.3c0.2,0.8-0.1,1.7-0.2,2.5
								c-0.1,0.9,0.3,1.8,1.2,2.3c1.4,0.8,3.2-0.2,4.4,1c0.6,0.6,0.9,1.5,0.8,2.4c-0.1,1.1-0.7,1.9-1.3,2.8
								c-0.7,1.1,0.9,2.2,1.7,1.3c1.5-1.5,2.3-4,1.6-6c-0.6-1.9-2.3-3.3-4.3-3.3c-0.5,0-1.7,0.3-2.1-0.2c-0.2-0.3-0.1-0.9,0-1.3
								c0-0.5,0-1-0.1-1.5c-0.4-1.8-2-3-3.6-3.7c-2.3-0.9-4.9-0.8-7.2-2C207,119.8,206.7,120.2,207,120.4L207,120.4z"/>
						</g>
					</g>
					<g class="st14">
						<g>
							<path class="st10" d="M201.7,122c1.6,0.7,3.1,1.4,4.7,2.1c1.3,0.6,2.7,1.3,3.7,2.4c0.4,0.5,0.8,1.1,0.9,1.7
								c0.2,0.7,0.1,1.2-0.1,1.8c-0.5,1.8,1.5,2.9,3.1,2.4c1.2-0.4,0.9-2-0.3-2.1c-0.1,0-0.8-0.1-0.9,0c0,0,0,0.2,0,0.2
								c0,0,0.1-0.5,0.1-0.5c0.1-0.7,0.1-1.4-0.1-2.1c-0.4-1.4-1.3-2.5-2.4-3.3c-1.1-0.9-2.5-1.4-3.8-1.9c-1.5-0.6-3.1-1.2-4.6-1.7
								C201.5,120.8,201.1,121.7,201.7,122L201.7,122z"/>
						</g>
					</g>
					<g class="st14">
						<g>
							<path class="st10" d="M189.9,130.9c0,0.3-0.2,0.5-0.2,0.8c-0.1,0.3-0.1,0.6-0.2,0.9c-0.1,0.7-0.1,1.4,0,2.1
								c0.1,0.6,0.3,1.2,0.6,1.8c0.2,0.3,0.4,0.6,0.6,0.9c0.4,0.4,0.7,0.7,1.3,0.8c0.8,0.1,1.3-0.8,1.1-1.5c-0.1-0.4-0.4-0.7-0.7-1
								c-0.1-0.1-0.2-0.2-0.3-0.3c-0.1-0.1,0,0,0,0c0,0-0.1-0.1-0.1-0.2c-0.1-0.2-0.3-0.4-0.4-0.7c-0.1-0.1-0.1-0.2-0.2-0.3
								c-0.1-0.2,0,0.1,0,0c0-0.1-0.1-0.1-0.1-0.2c-0.2-0.5-0.3-1-0.5-1.5c-0.1-0.3-0.1-0.5-0.2-0.8c-0.1-0.3-0.1-0.5-0.1-0.7
								C190.8,130.6,190,130.4,189.9,130.9L189.9,130.9z"/>
						</g>
					</g>
					<g class="st14">
						<g>
							<path class="st10" d="M198.8,128.9c0.3,0.3,0.5,0.6,0.7,1c0,0.1,0.1,0.1,0.1,0.2c0,0.1,0,0.1,0,0.2c0.1,0.2,0,0,0,0.1
								c0,0.1,0,0.2,0,0.3c0,0.1,0,0.1,0,0.2c0,0,0,0.2,0,0c0,0.2-0.1,0.4-0.1,0.5c0,0.1-0.1,0.2-0.1,0.3c0,0.1,0.1-0.2,0,0
								c0,0,0,0.1-0.1,0.1c0,0.1-0.1,0.2-0.2,0.3c0,0-0.1,0.1-0.1,0.1c0-0.1,0.1-0.1,0,0c-0.1,0.1-0.1,0.2-0.2,0.2
								c0,0-0.1,0.1-0.1,0.1c-0.1,0.1,0.2-0.2,0,0c-0.5,0.3-0.7,1-0.4,1.5c0.3,0.4,1,0.8,1.5,0.4c0.3-0.2,0.6-0.5,0.8-0.8
								c0.2-0.3,0.3-0.5,0.4-0.8c0.2-0.5,0.3-1.1,0.2-1.7c-0.1-0.6-0.3-1.2-0.7-1.7c-0.4-0.4-0.9-0.6-1.4-0.9
								C198.8,128.1,198.5,128.6,198.8,128.9L198.8,128.9z"/>
						</g>
					</g>
					<g class="st14">
						<g>
							<path class="st10" d="M183.7,115c-0.2-0.7-0.4-1.5-0.3-2.3c0-0.3,0.2-0.7,0.3-0.9c0,0,0.1-0.1,0.2-0.2c0,0,0.2-0.1,0.1-0.1
								c0.1,0,0.1-0.1,0.2-0.1c0.1,0,0.3-0.1,0.1,0c0.2,0,0.3-0.1,0.5-0.2c0.1,0,0.2,0,0.3-0.1c0,0,0.1,0,0.1,0c0.1,0-0.2,0,0,0
								c0.4,0,0.7,0,1.1,0c0.2,0,0.4,0,0.5,0c0.1,0,0.2,0,0.3,0c0,0,0.1,0,0.1,0c0,0,0.2,0,0.1,0c-0.2,0,0.1,0,0.2,0
								c0.1,0,0.2,0,0.2,0.1c0.1,0,0.1,0.1-0.1,0c0,0,0.1,0,0.1,0.1c0,0,0.1,0,0.1,0.1c0.2,0.1-0.1,0-0.1,0c0,0,0.1,0.1,0.1,0.1
								c0,0-0.1-0.2,0-0.1c0,0,0,0.1,0.1,0.1c0.1,0.1-0.1-0.3,0,0c0,0.1,0.1,0.4,0,0.2c0-0.2,0,0,0,0c0,0.1,0,0.1,0,0.2
								c0,0.2,0,0.4,0,0.6c0,0.1,0,0.3,0,0.4c0,0.2,0.1,0.4,0.2,0.6c0.1,0.3,0.4,0.4,0.7,0.5c0.3,0,0.6-0.1,0.8-0.3
								c-0.2,0.2-0.1,0.1-0.1,0.1c0.2-0.1,0.3-0.3,0.4-0.4c0.1-0.2,0.2-0.4,0.2-0.5c0.1-0.3,0.1-0.6,0.1-0.9c0-0.6-0.1-1.3-0.5-1.8
								c-0.7-1.1-2-1.4-3.2-1.4c-1,0-2,0.2-2.9,0.7c-0.9,0.5-1.5,1.5-1.6,2.6c-0.1,1.1,0.4,2.2,0.8,3.2
								C183.2,115.6,183.8,115.5,183.7,115L183.7,115z"/>
						</g>
					</g>
					<g class="st14">
						<g>
							<path class="st10" d="M193.8,109.5C193.8,109.7,193.8,109.5,193.8,109.5c0-0.1,0-0.1,0-0.1c0,0.1,0,0.1,0,0
								c0.1-0.1,0.1-0.2,0.2-0.3c-0.1,0.1,0,0,0,0c0,0,0.1-0.1,0.1-0.1c0,0,0.1-0.1,0.1-0.1c0,0,0.1-0.1,0,0
								c0.1-0.1,0.2-0.1,0.3-0.2c0.1-0.1,0.2-0.1,0.3-0.2c0.1-0.1,0.2-0.1,0.3-0.2c0.1,0,0.1-0.1,0.2-0.1c0.2-0.1-0.1,0,0,0
								c0,0,0.1,0,0.2,0c-0.1,0-0.2,0-0.1,0c0.1,0,0,0-0.1,0c0,0,0.1,0,0.1,0c-0.2,0-0.2-0.1-0.1,0c0,0,0.2,0.1,0,0
								c-0.1-0.1,0,0,0,0c0.1,0.1-0.1-0.1,0-0.1c0,0,0.1,0.1,0.1,0.1c0,0,0,0.1,0.1,0.1c0.1,0.1-0.1-0.2,0-0.1
								c0,0.1,0.1,0.2,0.1,0.3c0,0.1,0,0.2,0.1,0.3c0,0.2,0.1,0.3,0.2,0.5c0.1,0.2,0.3,0.4,0.5,0.4c0.2,0.1,0.5,0.1,0.7,0.1
								c0.4-0.1,0.8-0.6,0.8-1c0-0.4-0.2-0.8-0.4-1.2c-0.1-0.3-0.3-0.5-0.5-0.7c-0.6-0.6-1.4-0.7-2.1-0.4c-0.3,0.1-0.6,0.4-0.8,0.6
								c-0.2,0.2-0.4,0.3-0.6,0.5c-0.4,0.5-0.7,1-0.7,1.7c0,0.3,0.3,0.6,0.6,0.6C193.6,110.1,193.8,109.9,193.8,109.5L193.8,109.5z"
								/>
						</g>
					</g>
					<g class="st14">
						<g>
							<path class="st10" d="M201.7,110.7c0.1-0.1,0.2-0.1,0.3-0.2c0.1,0,0.1-0.1,0.2-0.1c0,0,0.2-0.1,0,0c0.1-0.1,0.2-0.1,0.3-0.1
								c0.1,0,0.1,0,0.2,0c0.1,0,0,0-0.1,0c0,0,0.1,0,0.1,0c0,0,0.1,0,0.1,0c0,0,0.1,0,0.1,0c-0.1,0-0.1,0-0.1,0c0,0,0.1,0,0.1,0
								c0.1,0-0.2-0.1,0,0c0,0,0.1,0,0.1,0.1c0.1,0.1-0.2-0.2,0,0c0.1,0.1,0.1,0.1,0.2,0.2c0-0.1-0.1-0.1-0.1-0.2
								c0.1,0.1,0.1,0.2,0.2,0.3c0-0.1-0.1-0.1-0.1-0.2c0,0.1,0.1,0.2,0.1,0.3c0-0.1,0-0.2,0-0.3c0,0.1,0,0.1,0,0.1
								c0-0.1,0-0.2,0-0.3c0,0.1,0,0.1-0.1,0.2c0-0.1,0.1-0.2,0.1-0.2c0,0,0,0,0,0.1c-0.2,0.3-0.2,0.7,0,1c0.1,0.2,0.4,0.4,0.6,0.5
								c0.3,0.1,0.6,0,0.8-0.1c0.3-0.2,0.5-0.5,0.5-0.9c0-0.5-0.2-1-0.5-1.4c-0.3-0.3-0.7-0.6-1.1-0.6c-0.9-0.1-1.8,0.3-2.5,0.8
								c-0.3,0.2-0.4,0.6-0.2,0.9C201,110.7,201.4,110.8,201.7,110.7L201.7,110.7z"/>
						</g>
					</g>
					<g class="st14">
						<g>
							<path class="st10" d="M180.9,117.1c-0.5-0.5-1.3-0.6-2-0.2c-0.3,0.2-0.6,0.5-0.8,0.8c-0.1,0.2-0.2,0.4-0.2,0.6
								c-0.1,0.3,0,0.6,0,0.9c0,0.2,0.1,0.5,0.3,0.7c0,0.1,0.1,0.2,0.1,0.2c0.1,0.1,0.1,0.2,0.2,0.3c0.1,0.1,0.2,0.2,0.3,0.2
								c0.2,0.1,0.6,0.2,0.8,0.1c0.2-0.1,0.4-0.2,0.6-0.4c0.3-0.4,0.3-1-0.1-1.4c-0.1-0.1-0.3-0.2-0.4-0.4c0.1,0.1,0.1,0.1,0.2,0.2
								c-0.1-0.1-0.2-0.2-0.2-0.4c0,0.1,0.1,0.2,0.1,0.2c-0.1-0.1-0.1-0.3-0.1-0.5c0,0.1,0,0.2,0,0.2c0-0.1,0-0.2,0-0.3
								c0,0.1,0,0.1,0,0.2c0-0.1,0-0.2,0.1-0.3c0,0.1-0.1,0.1-0.1,0.2c0-0.1,0.1-0.2,0.1-0.2c0,0-0.1,0.1-0.1,0.1
								c0.1-0.1,0.1-0.2,0.2-0.3c0.1-0.1-0.1,0.1,0,0c0,0,0,0,0.1,0c0,0,0,0,0.1,0c0,0,0.1-0.1,0,0c-0.1,0,0,0,0,0c0,0,0.1,0,0.1,0
								c0,0,0.1,0,0,0c-0.1,0,0,0,0,0c0,0,0.1,0,0,0c-0.1,0,0,0,0,0c0,0,0,0,0,0c0,0,0,0,0,0c0,0,0,0,0,0c0,0,0,0,0.1,0
								c0.2,0.1,0.4,0.1,0.5-0.1C181,117.5,181,117.2,180.9,117.1L180.9,117.1z"/>
						</g>
					</g>
					<g class="st14">
						<g>
							<path class="st10" d="M177.4,138.4c0.2,0.6,0.6,1.4,0.6,2.1c0,0.1-0.1,0.2-0.1,0.3c0-0.2,0,0.1,0,0c0,0,0.2-0.2,0,0
								c-0.1,0.1-0.2,0.2-0.3,0.3c-0.1,0.1-0.1,0.2-0.2,0.3c0.1-0.2-0.1,0.1-0.1,0.1c-0.2,0.3-0.4,0.5-0.6,0.8
								c-0.3,0.5-0.6,0.9-0.9,1.4c-0.6,1.2-0.9,2.3-0.6,3.6c0.3,1.5,1.6,3,3.3,2.5c0.6-0.2,1-0.7,0.9-1.3c-0.1-0.7-0.6-1-1.2-1.1
								c0.3,0-0.5-0.1-0.2,0c-0.2-0.1,0,0,0.1,0.1c0,0-0.2-0.3-0.1-0.1c0-0.1-0.2-0.3-0.2-0.3c0,0.1-0.1-0.2-0.1-0.3
								c0-0.1-0.1-0.3-0.1-0.3c0,0,0-0.3,0-0.3c0,0,0-0.4,0-0.1c0,0.2,0-0.1,0-0.1c0-0.1,0.1-0.2,0.1-0.3c0-0.1,0.1-0.3,0-0.1
								c0-0.1,0.1-0.2,0.1-0.3c0.2-0.4,0.4-0.9,0.7-1.3c0.4-0.7,0.8-1.4,1-2.1c0.2-0.6,0-1.1-0.3-1.6c-0.3-0.6-0.9-1.1-1.2-1.7
								C178,137.7,177.2,137.9,177.4,138.4L177.4,138.4z"/>
						</g>
					</g>
					<g class="st14">
						<g>
							<path class="st10" d="M182.7,135.2c-0.7,1.4-1.4,3-0.8,4.5c0.3,0.7,0.9,1.2,1.4,1.8c0.1,0.2,0.4,0.5,0.4,0.8
								c0,0.2-0.3,0.4-0.4,0.5c-0.6,0.5-1.1,0.9-1.4,1.7c-0.3,0.8-0.2,1.6,0,2.4c0.2,0.8,0.6,1.4,0.9,2.1c0.2,0.3,0.3,0.7,0.4,1.1
								c0.1,0.5,0.1,0.8,0.3,1.3c0.4,0.8,1.5,0.7,1.9,0c0.9-1.5-0.5-3.2-1-4.6c-0.2-0.5-0.4-1.1-0.2-1.6c0.2-0.5,0.9-0.8,1.2-1.2
								c1.1-1.4,0.2-3-1-4.1c-0.6-0.5-1.1-0.9-1.2-1.7c-0.1-0.8,0.2-1.6,0.5-2.3C184,135.1,183,134.5,182.7,135.2L182.7,135.2z"/>
						</g>
					</g>
				</g>
				<circle class="st15" cx="217.2" cy="152.4" r="0.6"/>
				<circle class="st15" cx="196.2" cy="152.4" r="0.6"/>
				<g>
					<g>
						<path class="st7" d="M184.8,153.1c-1.1-1.9-3.3-3.4-5.5-3.1c-0.9,0.1-1.7,0.5-2.3,1.1c-1,1-1.5,2.5-1.4,4
							c0.1,1.5,0.6,2.8,1.3,4.1c1.3,2.4,3.6,4.5,6.3,4.5c0.9,0,1.9-0.3,2.4-1c0.2-0.4,0.3-0.8,0.4-1.3
							C186.4,160.5,187,156.7,184.8,153.1z"/>
					</g>
					<path class="st4" d="M178.7,153.4c-1.9,0-0.7,4.9,1.1,6.8c1.8,2,4.2,2.6,3.9-0.7S181.1,153.5,178.7,153.4z"/>
					<g>
						<g>
							<path class="st8" d="M179.2,153.6c0.8,0.2,1.2,0.7,1.7,1.2c0.5,0.5,0.9,1.2,1.2,1.8c0.2,0.3,0.3,0.6,0.4,0.9
								c0.1,0.3,0.2,0.7,0.4,1c0.1,0.2,0.2,0.3,0.3,0.5c0,0.2,0.1,0.4,0.1,0.6c0,0.4,0,0.7,0,1.1c0,0.4,0.7,0.4,0.7,0
								c0-0.4,0-0.8,0-1.2c0-0.2-0.1-0.4-0.1-0.6c0-0.2,0-0.4,0-0.6c0-0.4-0.2-0.8-0.3-1.2c-0.2-0.4-0.3-0.7-0.6-1
								c-0.5-0.7-1.1-1.2-1.6-1.7c-0.5-0.5-1.3-0.9-2-1C179.1,153.2,179,153.5,179.2,153.6L179.2,153.6z"/>
						</g>
					</g>
					<g>
						<g>
							<path class="st8" d="M182.9,156.5c-0.5-0.5-1.2-0.6-1.8-0.2c-0.3,0.3-0.4,0.8-0.5,1.2c0,0.5,0.2,1,0.4,1.4
								c0.1,0.2,0.3,0.5,0.5,0.7c0.2,0.2,0.5,0.5,0.8,0.4c0.1,0,0.2-0.2,0.2-0.3c0-0.2-0.2-0.4-0.3-0.6c0,0-0.1-0.1-0.1-0.2
								c-0.1-0.1-0.1-0.2-0.2-0.2c-0.2-0.3-0.4-0.6-0.4-1c0,0.1,0-0.1,0-0.1c0,0,0-0.1,0-0.1c0,0,0-0.1,0-0.1c0-0.1,0,0,0,0
								c0,0,0-0.1,0-0.1c0-0.1,0.1-0.2,0.1-0.2c0,0,0,0,0,0c0,0,0,0,0,0c0,0,0-0.1,0.1-0.1c0,0,0,0,0,0c0,0-0.1,0.1,0,0
								c0,0,0,0,0.1-0.1c0.1-0.1,0,0,0,0c0,0,0.1-0.1,0,0c-0.1,0,0,0,0,0c0,0,0,0,0.1,0c0,0-0.1,0,0,0c0,0,0.1,0,0.1,0
								c0.1,0-0.1,0,0,0c0,0,0.1,0,0.1,0c0,0,0.1,0,0.1,0c0.1,0,0,0,0,0c0,0,0.1,0.1,0.1,0.1c0.1,0.1,0,0,0,0c0,0,0,0,0.1,0.1
								C182.7,157.4,183.3,156.8,182.9,156.5L182.9,156.5z"/>
						</g>
					</g>
				</g>
				<g class="st16">
					<g class="st17">
						
							<ellipse transform="matrix(0.9359 -0.3522 0.3522 0.9359 -31.7666 75.3438)" class="st10" cx="191.2" cy="125" rx="4.7" ry="2.4"/>
					</g>
					<g class="st17">
						
							<ellipse transform="matrix(0.6962 -0.7178 0.7178 0.6962 -37.0465 171.8103)" class="st10" cx="184.5" cy="129.7" rx="2.2" ry="1.1"/>
					</g>
				</g>
			</g>
			<g>
				<path class="st12" d="M253.4,221.5c-0.5-3-21.8-30.9-26.1-34.8c-2.7-2.5-12.1-3.1-12.1-3.1c-2,7.6-15.6,6-19.7-0.1
					c-3.6,0.7-13.1,1.5-16.3,5.1c-2,2.2-7.4,15.2-11.2,24c-3.8,8.8-6.8,20.5-5.1,23.4c1.8,3.1,13.6,4.4,21.8,5.1
					c-3.6,8.9-8,18.2-8,18.2c23.1,11,57.3,1.3,57.3,1.3c-1.1-7-7-28.1-7.6-32.2c-0.4-3.1,0.9-19.8,0.9-19.8
					c3.1,3.5,12.6,12.3,12.6,12.3s-2.9,5.9-5.5,9.4c1.4,2.4,3,4.7,4.9,6.8C246.4,233,254.1,225.5,253.4,221.5z M189.2,227
					c-0.1,1.5-0.7,2.9-1.5,5.3c-5.6-2.1-12.9-4.1-12.9-4.1l11.1-18.9C186,209.4,189.8,219.5,189.2,227z"/>
			</g>
			<path class="st6" d="M253.4,221.5c0-0.3-0.3-0.8-0.7-1.5c-1.5,1.9-6,6.5-8.5,6.8c-2.4,0.3-2.7-3.6-2.6-4.8
				c0.2-2.5,3.4-2.5,3.2-3.5s-2.9,0.4-4.8-1c-4.7-3.3-11.1-11.1-11.1-17.4c-0.3-0.3-0.8,5-1.3,4.5c-0.5-0.5-1-6.9-1.4-6.6
				c-1.8,2.5,1.1,8.8,0.2,14.7c-0.4,2.7-4.7,4.7-5.2,6.7s3.7,28.6,8.2,37.5c-15.2,7.7-30.2,6.1-43,1.3
				c10.3-10.3,16.1-36.5,14.8-38.6c-1.3-2.1-5.4-0.8-7.3-2.4c-2.6-1.9-3.8-10.5-3.2-15.6c-0.8-0.3-2.3,6-3.1,5.8
				c-0.8-0.2,3.1-5.7,0-10.8c-1.7,1.7-0.9,6.6-3.4,11.5c-4.2,8.1-10.3,16.8-12.1,17.4c-2.3,0.9-8.5,4.9-8-1.8
				c-1.6,5.7-2.2,10.7-1.2,12.5c1.8,3.1,13.6,4.4,21.8,5.1c-3.6,8.9-8,18.2-8,18.2c23.1,11,57.3,1.3,57.3,1.3
				c-1.1-7-7-28.1-7.6-32.2c-0.4-3.1,0.9-19.8,0.9-19.8c3.1,3.5,12.6,12.3,12.6,12.3s-2.9,5.9-5.5,9.4c1.4,2.4,3,4.7,4.9,6.8
				C246.4,233,254.1,225.5,253.4,221.5z M168.5,233.9c-2.1-2.5,2.4-4.8,6.6-6l10.9-18.5c0,0,3.9,10.1,3.2,17.7
				c-0.1,1.3-0.7,10.7-2.2,11.8C180.1,239.9,169.8,235.5,168.5,233.9z"/>
			<g>
				<path class="st7" d="M238.9,227.1c-1.9,1.6-3.5,3-3.9,3.1c-0.8,0.3-6.9-4.1-8-3.3c-1.1,0.8,2.8,3.6,2.8,3.6s-9.8,0.8-9.3,2.4
					c0.3,0.8,7.1,0,7.3,0.4c0.1,0.4-7.7,2.4-6.9,3.5c0.8,1.1,7.2-1.4,6.9-0.8c-0.3,0.5-6.7,3.1-5.8,4.1c0.8,0.9,6.9-2.2,7-1.8
					c0.1,0.4-4.3,3.2-3.7,3.9c0.7,0.7,4.1-1.3,5.2-2.1c1.6-0.1,4.1-0.7,5.9-1.4c0.5-0.2,4.2-2.2,8.6-4.9
					C243.1,231.4,241.1,229.2,238.9,227.1z"/>
				<path class="st4" d="M221.9,239.8c0.5,0.8,4.8-1.5,7.3-2.5c0.3,0.6-0.2,1.1-0.2,1.1c-0.1-0.4-6.2,2.7-7,1.8
					C221.8,240.1,221.8,239.9,221.9,239.8z"/>
				<path class="st4" d="M228.2,232.6c0.1,0.6-0.1,0.7-0.7,0.7c-1.2-0.1-6,0.3-6.9-0.2C223.1,233,225.9,232.8,228.2,232.6z"/>
				<path class="st4" d="M220.8,236.7c2.3-0.3,4.7-1,6.9-1.8c0.7,0.3,0.2,0.7-0.1,1.1c-0.8,0-6.1,1.9-6.8,0.9
					C220.8,236.8,220.8,236.8,220.8,236.7z"/>
			</g>
			<g class="st13">
				<g>
					<g>
						<path class="st18" d="M186.6,197.8c0.1,1.8,0.2,3.7,0.1,5.5c0,0.9-0.1,1.8-0.3,2.8c-0.1,0.9-0.4,1.8-0.5,2.7
							c-0.1,0.6,0.8,0.6,1,0.1c0.3-0.9,0.4-1.9,0.4-2.8c0.1-0.9,0-1.8,0-2.7c-0.1-1.9-0.3-3.7-0.5-5.6
							C186.8,197.6,186.6,197.6,186.6,197.8L186.6,197.8z"/>
					</g>
				</g>
				<g>
					<g>
						<path class="st18" d="M188.4,199.2c0,1.6-0.3,3.1-0.7,4.6c-0.2,0.7-0.4,1.4-0.7,2.1c-0.1,0.4-0.3,0.7-0.4,1.1
							c-0.2,0.3-0.4,0.7-0.3,1.1c0,0.3,0.4,0.6,0.6,0.4c0.6-0.4,0.8-1.4,1-2c0.3-0.8,0.5-1.6,0.6-2.4c0.3-1.6,0.3-3.2,0.2-4.8
							C188.8,199,188.4,199,188.4,199.2L188.4,199.2z"/>
					</g>
				</g>
				<g>
					<g>
						<path class="st18" d="M225.4,197.2c0.8,2.4,1.5,5,1.3,7.5c-0.1,1.7-0.3,3.3-0.5,5c-0.1,0.9-0.2,1.8-0.4,2.7
							c-0.1,0.8-0.3,1.7-0.1,2.5c0.1,0.4,0.6,0.4,0.8,0.1c0.4-0.7,0.5-1.6,0.7-2.4c0.1-0.9,0.2-1.7,0.4-2.6c0.2-1.7,0.5-3.5,0.5-5.3
							c0-1.3-0.4-2.6-0.8-3.8c-0.5-1.3-0.9-2.5-1.4-3.8C225.6,196.9,225.3,197,225.4,197.2L225.4,197.2z"/>
					</g>
				</g>
				<g>
					<g>
						<path class="st18" d="M228,200c0.1,1.5,0,2.9-0.4,4.4c-0.2,0.7-0.4,1.4-0.6,2.1c-0.1,0.3-0.2,0.6-0.4,1
							c-0.2,0.4-0.4,0.7-0.3,1.1c0.1,0.3,0.5,0.4,0.7,0.3c0.4-0.2,0.5-0.6,0.6-0.9c0.1-0.4,0.3-0.7,0.4-1.1c0.2-0.7,0.3-1.5,0.4-2.2
							c0.2-1.5,0-3-0.2-4.5C228.3,199.8,228,199.8,228,200L228,200z"/>
					</g>
				</g>
				<g>
					<g>
						<path class="st18" d="M168.3,232.3c0.1-0.3,0.4-0.5,0.6-0.7c0.2-0.2,0.5-0.5,0.8-0.7c0.5-0.4,1-0.9,1.5-1.2
							c0.6-0.3,1.3-0.4,1.9-0.5c0.4-0.1,0.8-0.1,1.2-0.2c0.3-0.1,0.7-0.1,1-0.4c0.1-0.1,0.1-0.4-0.1-0.5c-0.3-0.2-0.8-0.2-1.1-0.2
							c-0.4,0-0.8,0-1.2,0c-0.8,0-1.7,0.1-2.4,0.5c-0.6,0.4-1.2,0.9-1.7,1.4c-0.3,0.3-0.5,0.5-0.7,0.8c-0.2,0.3-0.3,0.6-0.5,1
							C167.1,232.3,168,232.8,168.3,232.3L168.3,232.3z"/>
					</g>
				</g>
				<g>
					<g>
						<path class="st18" d="M169.6,227.9c0.5-0.1,1-0.2,1.5-0.3c0.5-0.1,1-0.3,1.5-0.3c0.4,0,0.8,0,1.1,0.2c0.3,0.2,0.4,0.6,0.7,0.9
							c0.3,0.3,0.9,0.1,0.9-0.4c0-0.5-0.5-1-0.9-1.3c-0.4-0.3-0.9-0.4-1.4-0.3c-0.6,0.1-1.2,0.3-1.7,0.5c-0.6,0.2-1.2,0.4-1.8,0.6
							C169.2,227.5,169.3,227.9,169.6,227.9L169.6,227.9z"/>
					</g>
				</g>
				<g class="st13">
					<g>
						<path class="st18" d="M194.4,184.6c2.1,3.9,5.8,6.4,10.2,7.1c3.6,0.5,7.8,0,10.8-2.2c1.3-1,2.5-2.5,2.4-4.2
							c0-0.6-0.9-0.7-1-0.1c-0.8,2.7-3.6,4.1-6.1,4.7c-3.5,0.9-7.4,0.7-10.7-0.9c-2.1-1-4-2.6-5.3-4.6
							C194.6,184.2,194.3,184.4,194.4,184.6L194.4,184.6z"/>
					</g>
				</g>
			</g>
			<g class="st17">
				<g>
					
						<ellipse transform="matrix(0.9359 -0.3522 0.3522 0.9359 -55.0561 77.1842)" class="st10" cx="184.6" cy="189.9" rx="4" ry="2.1"/>
				</g>
				<g>
					
						<ellipse transform="matrix(0.5875 -0.8092 0.8092 0.5875 -83.0295 225.2657)" class="st10" cx="179.4" cy="194.1" rx="1.9" ry="1"/>
				</g>
			</g>
			<g>
				<polygon class="st10" points="224,208.9 214,208.9 213.3,204.4 224.7,204.4 				"/>
			</g>
		</g>
		<g>
			<path class="st2" d="M180.2,203.6l-6.1,24.4c6.9,2.5,11.6,3.9,17,6.5c0.8,1.5,0.7,2.8,0.7,6.7c-7.7,0.2-12.9-0.6-20.6-1.7
				l-3.2,13.1l33.6,8l11.8-49.3L180.2,203.6z"/>
			<path class="st7" d="M191.2,234.5c0,0,0.4,3.7,0,6.7c0,0,3.8,1,5.8,2.3c1.9,1.3,8.3,2.6,9.6,1.9c1.3-0.6,0.6-1.9,0.6-1.9
				s1-0.2,1.2-0.8c0.4-1-0.5-1.8-0.5-1.8s1.7-0.2,1.7-1.5s-1.1-1.7-1.1-1.7s1-0.8,0.4-2.4c-0.5-1.2-5.1-1.1-5.1-1.1s5.4-0.3,4.7-2.9
				c-2.3-0.1-5.2-0.3-7.1,0c-2.2,0.4-3.2,1.9-5.1,2.6C194.4,234.5,191.2,234.5,191.2,234.5z"/>
			<path class="st4" d="M209.6,239.4c0-1.3-1.1-1.7-1.1-1.7s0.4-0.4,0.5-1.1c-0.6,0.2-1.3,0.2-1.8,0.7s-0.7,6.4-1.8,6.2
				c-6.2-1.4-14.2-1.8-13.9-9.1c-0.2,0-0.3,0-0.3,0s0.4,3.7,0,6.7c0,0,3.8,1,5.8,2.3c1.9,1.3,8.3,2.6,9.6,1.9
				c1.3-0.6,0.6-1.9,0.6-1.9s1-0.2,1.2-0.8c0.4-1-0.5-1.8-0.5-1.8S209.6,240.7,209.6,239.4z"/>
			<path class="st4" d="M203.8,234.2c0,0,4.5-0.3,4.8-2.3c-1.7,1.4-3.7,1.1-5.7,1.5C202.8,234.3,203.8,234.2,203.8,234.2z"/>
			<g>
				<polygon class="st19" points="186.3,215.9 201.9,219.5 199.5,230.2 183.5,226.4 				"/>
			</g>
		</g>
	</g>
	<g>
		<path class="st2" d="M339.8,377.1c2.5,2.7,7.6,2.7,13.2,0.8c4.1-1.4,9.3-8.1,9.3-8.1s0.4-4-1.4-8.5h-14.1c0,0,0.1,3.3-2.8,5.9
			C340.7,370.3,337.4,374.5,339.8,377.1z"/>
		<path class="st2" d="M398.9,377.1c-2.5,2.7-7.6,2.7-13.2,0.8c-4.1-1.4-9.3-8.1-9.3-8.1s-0.4-4,1.4-8.5H392c0,0-0.1,3.3,2.8,5.9
			C398,370.3,401.2,374.5,398.9,377.1z"/>
		<polygon class="st5" points="343.1,261.8 344.2,363.3 363.1,363.3 369.9,271.4 375.2,363.3 394.1,363.3 397.5,259 		"/>
		<path class="st6" d="M343.1,261.8l0.2,15c3-1.9,6.4-3,10-1.6c5.6,1.8,10.9,2.7,16.2,2.9l0.5-6.8l0.4,6.8
			c8.3,0.3,16.5-1.2,25.5-3.6c0.4-0.2,0.8-0.4,1.2-0.6l0.5-15L343.1,261.8z"/>
		<g>
			<g>
				<path class="st2" d="M351.8,139.1c-2.1,0.4-3.8,2.6-3.5,4.7c0.2,2.1,2.3,3.9,4.5,3.8c-2.8,4.7,1.9,8.1,5.5,5.4
					c-0.4,5.2,5.3,6.9,8,3.7c1.1,1.8,3.3,2.8,5.4,2.7c2.1-0.1,4.5-0.4,5.4-2.3c3.3,4.8,9.6,2.5,9.1-3.3c4.7,2.8,8.1-2.3,5.3-5.9
					c6.3-0.3,6.8-7.4,1-9.3L351.8,139.1z"/>
			</g>
			<g>
				<g>
					<path class="st20" d="M380.3,152.1c-0.1,1.8-0.5,9.5,0.1,10.2c0.5,0.6,6.3,2.6,8.3,2.9c-0.7,3.4-9.3,14.5-12.7,15.6
						c-0.2,0.1-0.4,0.1-0.6,0.1c-0.2,0-0.4-0.1-0.6-0.2c-6.7-3.9-13.8-9.5-17-16.6c0.8,0,5.5-0.6,6.1-1.7c0.6-1.4,1.1-7.6,0.6-10.2
						L380.3,152.1z"/>
				</g>
				<g class="st21">
					<path class="st22" d="M364.3,161.2c0.5-2.9,0.6-7.2,0.3-9l15.8,0c-0.1,1.5-0.6,7.6,0,9.9C375.7,164.3,368.2,162.7,364.3,161.2z
						"/>
				</g>
			</g>
			<g>
				<g>
					<path class="st20" d="M393.5,130.4c0.2-0.3,0.4-0.6,0.6-0.9c0.8-0.9,2.1-1.4,3.3-1.2c1.2,0.2,2.3,1,2.8,2.1
						c0.2,0.3,0.3,0.7,0.4,1.1c0.7,3.1-0.6,6.5-2.9,8.7c-0.9,0.8-2,1.5-3.2,1.6c-0.5,0-1.1-0.1-1.5-0.4c-0.4-0.3-0.6-0.7-0.8-1.2
						C391.5,138.5,391.3,134,393.5,130.4z"/>
				</g>
				<g class="st21">
					<path class="st22" d="M398.9,131.6c1.2,1-0.2,6.1-2,7.8c-0.7,0.7-1.6,1.2-2.5,1.2c-0.4,0-0.9-0.1-1.2-0.3
						c-0.3-0.2-0.5-0.6-0.6-0.9C392,138.1,396.1,129.2,398.9,131.6z"/>
				</g>
				<g>
					<g>
						<path class="st22" d="M398.5,131.7c-0.7,0.1-1.4,0.5-1.9,1c-0.6,0.5-1.2,1.1-1.7,1.8c-0.4,0.6-0.9,1.4-0.9,2.1
							c0,0.2,0,0.4,0,0.6c0,0.2-0.1,0.4-0.1,0.6c0,0.4,0,0.8,0,1.2c0,0.4,0.6,0.4,0.6,0c0-0.7-0.1-1.5,0.3-2.1
							c0.2-0.3,0.3-0.6,0.4-0.9c0.1-0.3,0.3-0.6,0.5-1c0.3-0.6,0.7-1.2,1.2-1.7c0.5-0.6,1-1.1,1.7-1.3
							C398.7,131.9,398.6,131.6,398.5,131.7L398.5,131.7z"/>
					</g>
				</g>
				<g>
					<g>
						<path class="st22" d="M395.4,135.4C395.4,135.4,395.4,135.3,395.4,135.4C395.4,135.3,395.5,135.3,395.4,135.4
							c0.1-0.1,0.1-0.1,0.2-0.1c0,0,0,0,0.1,0c0,0,0,0,0,0c0.1,0,0.1,0,0.2,0c0.1,0-0.1,0,0,0c0,0,0,0,0.1,0c0,0,0,0,0.1,0
							c-0.1,0,0,0,0,0c0,0,0,0,0.1,0c-0.1,0,0,0,0,0c0,0,0,0,0,0c0,0,0,0,0.1,0.1c0,0,0,0,0,0c0,0,0,0,0,0.1c0,0,0,0.1,0,0.1
							c0-0.1,0,0,0,0.1c0.1,0.2,0.1,0.3,0.1,0.5c0,0.2,0,0.3-0.1,0.5c-0.1,0.2-0.1,0.3-0.2,0.5c-0.1,0.2-0.2,0.4-0.4,0.5
							c0,0.1-0.1,0.1-0.2,0.2c-0.1,0.1-0.2,0.2-0.2,0.3c0,0.2,0.1,0.3,0.3,0.3c0.2,0,0.5-0.2,0.6-0.4c0.2-0.2,0.3-0.4,0.5-0.6
							c0.3-0.4,0.4-0.9,0.5-1.4c0-0.7-0.4-1.6-1.2-1.6c-0.3,0-0.7,0.2-0.9,0.4C394.5,135.2,395,135.7,395.4,135.4L395.4,135.4z"/>
					</g>
				</g>
			</g>
			<g>
				<path class="st20" d="M352.2,137.6c0,2.2,2.2,18,16.7,20.8c7.4,1.4,15.9-0.6,21.1-7.4c6.4-8.4,5.3-29.2,4.3-32.6
					c-2.4-8.1-9.7-12.9-19.1-12.5C353.8,106.6,351.9,121.3,352.2,137.6z"/>
			</g>
			<g>
				<path class="st10" d="M381.8,143.2c-3.5,1.3-7.4,1.4-11.9,0.1c0,0,1.1,3.5,5.6,4S381.8,143.2,381.8,143.2z"/>
			</g>
			<g>
				<g>
					<path class="st22" d="M381.8,143c-3.8,1.4-7.9,0.9-11.7-0.2c-0.4-0.1-0.8,0.3-0.7,0.7c0.6,1.8,2.2,3.2,3.9,3.9
						c1.5,0.6,3.3,0.7,4.8,0.1c1.2-0.5,2.2-1.3,2.9-2.3c0.4-0.6,0.8-1.2,1.1-1.9c0.2-0.4-0.5-0.6-0.6-0.2c0-0.1,0,0,0,0
						c0,0.1-0.1,0.2-0.1,0.3c-0.2,0.3-0.3,0.6-0.5,0.9c-0.6,0.9-1.4,1.6-2.4,2c-2.4,1-5.5,0.2-7.1-1.8c-0.3-0.3-0.5-0.7-0.7-1
						c0-0.1-0.1-0.1-0.1-0.2c0-0.1,0.1,0.1,0,0c0,0,0-0.1,0-0.1c-0.2,0.2-0.5,0.5-0.7,0.7c4,1.1,8.2,1,12.1-0.5
						C382.2,143.3,382,142.9,381.8,143z"/>
				</g>
			</g>
			<path class="st23" d="M372.9,150c0,0.9,1.3,1.3,2.8,1.3c1.6,0,2.8-0.3,2.8-1.3c0-0.9-1.3-1-2.8-1
				C374.1,149.1,372.9,149.1,372.9,150z"/>
			<g>
				<path class="st2" d="M361,125.9c2.6-0.5,5.9-0.7,8.3-0.2c2.5,0.5,3.3-3,0.8-3.3c-3.7-0.4-6.7,0.1-9.8,1.6
					C359.2,124.5,359.8,126.3,361,125.9L361,125.9z"/>
			</g>
			<g>
				<path class="st2" d="M390.7,125.3c-2.6-0.4-5.9-0.4-8.3,0.2c-2.5,0.6-3.4-2.8-1-3.2c3.7-0.6,6.7-0.3,9.9,1.1
					C392.4,123.8,391.9,125.6,390.7,125.3L390.7,125.3z"/>
			</g>
			<g>
				<path class="st23" d="M377.2,137.6c-2.4-1.1-5.1-0.5-3.2,1.4c1.7,1.7,4.5,1.2,5.3-1C380.1,135.8,378.6,138.2,377.2,137.6z"/>
				<path class="st15" d="M377.2,135.6c-0.7,0-1.6,0.7-0.9,1.4c0.7,0.7,1.7,0.5,2-0.4C378.6,135.8,377.8,135.6,377.2,135.6z"/>
				<g>
					<g>
						<path class="st22" d="M377,130.9c0.3,1.5,0.8,2.9,1.3,4.3c0.2,0.5,0.5,1.1,0.6,1.7c0.1,0.5,0,1-0.1,1.5
							c-0.2,0.5-0.6,0.7-1,0.9c-0.3,0.2-0.2,0.7,0.2,0.7c1,0,1.8-1.1,2-2c0.2-0.9-0.1-1.7-0.4-2.5c-0.3-0.8-0.7-1.6-1.1-2.4
							c-0.4-0.7-0.8-1.5-1-2.3C377.3,130.6,377,130.7,377,130.9L377,130.9z"/>
					</g>
				</g>
				<g>
					<g>
						<path class="st22" d="M375.9,139.2c-0.2-0.4-0.5-0.7-0.9-1c0,0,0.1,0,0.1,0.1c-0.1,0-0.1-0.1-0.2-0.1c0,0-0.1,0-0.1,0
							c-0.1,0-0.2-0.1-0.3-0.1c0.1,0.1,0.2,0.2,0.3,0.3c0,0,0,0,0,0c-0.1-0.2-0.3-0.3-0.6-0.3c-0.3,0-0.4,0.2-0.5,0.5
							c0,0.2,0.1,0.5,0.3,0.6c0.2,0.1,0.5,0.1,0.7-0.1c0,0,0,0,0,0c-0.1,0.1-0.3,0.1-0.4,0.2c0.2,0,0.3,0,0.5,0c0,0-0.1,0-0.1,0
							c0,0,0.1,0,0.1,0c0,0-0.1,0-0.1,0c0.1,0,0.2,0,0.3,0.1c0,0-0.1,0-0.1,0c0.1,0,0.2,0.1,0.3,0.2c0,0,0,0,0,0c0,0,0,0,0,0
							c0,0,0,0,0.1,0.1c0,0,0,0,0,0c0,0,0,0,0,0c0,0,0,0.1,0.1,0.1c0.1,0.1,0.2,0.2,0.4,0.1C375.9,139.5,375.9,139.4,375.9,139.2
							L375.9,139.2z"/>
					</g>
				</g>
			</g>
			<path class="st2" d="M348.7,116.4c1.8-5.1,6.1-13.9,22.9-14.5c8.1-0.3,16.3,1.3,21,8.7c4.2,6.6,3.4,17.6,3.4,17.6
				c-0.2,2.9-0.8,8.1-1.5,5.4c-0.8-3.2,0.3-4.7-0.7-10.5c-1-5.8-9.4-11.1-17.8-10.7c-9.5,0.5-18.8,5.6-19.4,12.9
				c-0.5,6.8,0.5,11.7-0.9,14c-1.2-1.2-7.4-5.4-7.8-7C346.9,127.1,346.9,121.5,348.7,116.4z"/>
			<path class="st24" d="M374.8,114.3c15.7,0,19.7,7.2,21.1,15.1c0.9-8.3,2-17.9-2.7-24.2c-7-9.5-24-13.1-36.5-4.6
				c-12.5,8.5-10.6,25.5-9.3,32.1c0.4,1.1,2.8,2.2,3.3,3.3C354.5,121.4,359.1,114.3,374.8,114.3z"/>
			<g>
				<g class="st17">
					
						<ellipse transform="matrix(0.9359 -0.3522 0.3522 0.9359 -13.0681 134.3339)" class="st10" cx="362.7" cy="103.1" rx="5.4" ry="2.8"/>
				</g>
				<g class="st17">
					
						<ellipse transform="matrix(0.6962 -0.7178 0.7178 0.6962 29.9878 287.7651)" class="st10" cx="355" cy="108.5" rx="2.5" ry="1.3"/>
				</g>
			</g>
			<g>
				<g>
					<path class="st20" d="M353.8,132.4c-1.1-1.9-3.3-3.4-5.5-3.1c-0.9,0.1-1.7,0.5-2.3,1.1c-1,1-1.5,2.5-1.4,4s0.6,2.8,1.3,4.1
						c1.3,2.4,3.6,4.5,6.3,4.5c0.9,0,1.9-0.3,2.4-1c0.2-0.4,0.3-0.8,0.4-1.3C355.3,139.9,355.9,136.1,353.8,132.4z"/>
				</g>
				<path class="st23" d="M347.6,132.8c-1.9,0-0.7,4.9,1.1,6.8c1.8,2,4.2,2.6,3.9-0.7C352.4,135.6,350,132.8,347.6,132.8z"/>
				<g>
					<g>
						<path class="st22" d="M348.2,133c0.8,0.2,1.2,0.7,1.7,1.2c0.5,0.5,0.9,1.2,1.2,1.8c0.2,0.3,0.3,0.6,0.4,0.9
							c0.1,0.3,0.2,0.7,0.4,0.9c0.1,0.2,0.2,0.3,0.2,0.5c0,0.2,0.1,0.4,0.1,0.6c0,0.4,0,0.7,0,1.1c0,0.4,0.6,0.4,0.6,0
							c0-0.4,0-0.8,0-1.2c0-0.2,0-0.4-0.1-0.6c0-0.2,0-0.4,0-0.6c0-0.4-0.2-0.8-0.3-1.1c-0.2-0.4-0.3-0.7-0.6-1
							c-0.5-0.6-1-1.2-1.6-1.7c-0.5-0.5-1.3-0.9-1.9-1C348,132.6,348,132.9,348.2,133L348.2,133z"/>
					</g>
				</g>
				<g>
					<g>
						<path class="st22" d="M351.8,135.9c-0.4-0.4-1.2-0.6-1.7-0.2c-0.3,0.3-0.4,0.7-0.5,1.1c0,0.5,0.1,0.9,0.4,1.4
							c0.1,0.2,0.3,0.5,0.5,0.7c0.1,0.1,0.2,0.2,0.3,0.3c0.1,0.1,0.3,0.2,0.4,0.2c0.2,0,0.3-0.2,0.3-0.3c0-0.1-0.1-0.2-0.1-0.2
							c-0.1-0.1-0.1-0.2-0.2-0.3c-0.1-0.1-0.2-0.3-0.3-0.4c-0.1-0.1-0.2-0.3-0.3-0.5c0-0.1-0.1-0.2-0.1-0.2c0,0,0-0.1,0-0.1
							c0,0,0,0,0-0.1c0,0,0-0.1,0,0c0-0.2,0-0.3,0-0.5c0-0.1,0-0.2,0.1-0.2c0,0.1,0,0,0,0c0,0,0-0.1,0.1-0.1c0-0.1,0,0,0,0
							c0,0,0,0,0.1-0.1c0,0-0.1,0,0,0c0,0,0.1-0.1,0,0c0,0,0,0,0,0c0,0,0.1,0,0.1,0c0,0-0.1,0,0,0c0,0,0.1,0,0.1,0c0.1,0,0,0,0,0
							c0,0,0.1,0,0.1,0c0,0,0.1,0,0.1,0c0.1,0,0,0,0,0c0,0,0.1,0.1,0.1,0.1c0.1,0,0,0,0,0c0,0,0,0,0.1,0.1
							C351.7,136.7,352.2,136.2,351.8,135.9L351.8,135.9z"/>
					</g>
				</g>
			</g>
			<g>
				<g>
					<g>
						<path class="st2" d="M383.2,134.3c0.1-0.6,0.4-1,0.8-1.4c0.2-0.2,0.3-0.3,0.6-0.4c0.1,0,0.1-0.1,0.2-0.1c0.1,0-0.1,0,0.1,0
							c0.1,0,0.3-0.1,0.4-0.1c0.1,0,0.3-0.1,0.4-0.1c0.2,0-0.1,0,0,0c0.1,0,0.1,0,0.2,0c0.1,0,0.3,0,0.4,0c0.1,0,0.1,0,0.2,0
							c0.2,0-0.1,0,0.1,0c0.1,0,0.2,0.1,0.4,0.1c0.1,0,0.1,0,0.2,0.1c0.1,0-0.1,0-0.1,0c0,0,0.1,0,0.1,0.1c0.1,0.1,0.2,0.1,0.3,0.2
							c0.1,0,0.1,0.1,0.2,0.1c-0.2-0.1,0,0,0.1,0.1c0.1,0.1,0.2,0.2,0.3,0.3c0,0,0.2,0.2,0.1,0.1c0,0.1,0.1,0.1,0.1,0.2
							c0.2,0.3,0.4,0.8,0.7,1c-0.1-0.1-0.1-0.1-0.2-0.2c0,0,0,0,0,0.1c0.2,0.3,0.8,0.3,0.9-0.1c0-0.2,0.1-0.4,0.1-0.6
							c0-0.2-0.1-0.5-0.1-0.7c-0.1-0.4-0.3-0.8-0.6-1.1c-0.5-0.5-1.1-0.9-1.8-1.1c-1.5-0.3-2.9,0.2-3.8,1.4
							c-0.5,0.7-0.6,1.4-0.5,2.2C382.9,134.5,383.2,134.5,383.2,134.3L383.2,134.3z"/>
					</g>
				</g>
			</g>
			<g>
				<g>
					<g>
						<path class="st2" d="M368.9,134.3c0-0.7,0-1.4-0.4-2c-0.4-0.6-0.9-1-1.5-1.3c-1.3-0.7-3.1-0.4-4.1,0.7
							c-0.3,0.3-0.6,0.7-0.8,1.2c-0.1,0.2-0.1,0.4-0.2,0.6c0,0.1,0,0.3,0,0.4c0,0.2,0.1,0.3,0.1,0.4c0.1,0.4,0.7,0.4,0.9,0.1
							c0,0,0,0,0-0.1c-0.1,0.1-0.1,0.1-0.2,0.2c0.3-0.2,0.4-0.6,0.6-0.9c0-0.1,0.1-0.1,0.1-0.2c0,0,0.1-0.2,0-0.1
							c0.1-0.1,0.2-0.2,0.3-0.3c0.1-0.1,0.2-0.2,0.3-0.3c-0.1,0.1,0,0,0,0c0.1,0,0.1-0.1,0.2-0.1c0.1,0,0.1-0.1,0.2-0.1
							c0,0,0.2-0.1,0.1-0.1c-0.1,0.1,0.1,0,0.1,0c0.1,0,0.1,0,0.2-0.1c0.1,0,0.1,0,0.2,0c0,0,0.1,0,0.1,0c0.1,0-0.2,0,0,0
							c0.1,0,0.3,0,0.4,0c0.1,0,0.3,0,0.4,0c0,0,0.1,0,0.1,0c0,0-0.2,0-0.1,0c0.1,0,0.2,0,0.2,0c0.1,0,0.2,0.1,0.4,0.1
							c0.1,0,0.1,0,0.2,0.1c0,0,0.1,0,0.1,0c0.2,0.1-0.1,0,0,0c0.1,0.1,0.2,0.1,0.3,0.2c0.1,0,0.1,0.1,0.2,0.1c0,0,0.1,0,0.1,0.1
							c0.1,0.1,0,0,0,0c0.5,0.4,0.9,0.9,1,1.6C368.6,134.5,368.9,134.5,368.9,134.3L368.9,134.3z"/>
					</g>
				</g>
			</g>
		</g>
		<g>
			<path class="st10" d="M399.6,168.6c-6.6-2.1-16.7-5.3-16.7-5.3c-2.6,8.3-14.7,8.6-20.9-0.2c-3,0.9-9.9,3-16.1,5.2
				c6.7,23.6,12.7,47.8,30,65.7C385.8,213,393.2,191.2,399.6,168.6z"/>
		</g>
		<g>
			<path class="st25" d="M412.9,222.5c-1.2-8.4-1.6-45.1-6.1-49.8c-2.9-3-17.8-7.6-21.1-8.6c-0.4,2.6-4.6,15.7-12.9,24.9
				c-9.3-9.2-13.4-22-14-25.4c-6.8,1.6-18.7,5.8-22.1,9.5s-8,28.1-11.7,50.2c5.5,0.2,14.2-1.4,17.4-2.6c0.7-0.3,1.3-8.1,1.3-8.1
				l-2.1,52.7c23.1,11,57,0.9,57,0.9c-0.2-10.8,1.1-32.5,1.2-44.9C404.9,222,410.3,223.5,412.9,222.5z"/>
		</g>
		<g>
			<path class="st25" d="M349.2,201.9c0-0.1,0-0.2,0-0.3C349.2,201.7,349.2,201.8,349.2,201.9z"/>
		</g>
		<path class="st6" d="M370.3,232.4c4.8,1.2,20.7,9.8,28.7,12.6c0.3-8.5,0.7-17.3,0.7-23.7c5.2,0.7,10.5,2.2,13.2,1.2
			c-0.2-1.8-0.5-4.7-0.7-8.4c-0.8,1-1.6,2-2.3,3.1c-2,2-5.4,0.7-6.1-0.7c-3.4-4,0-9.4,1.3-13.5c-2,0-2.7,3.4-3.4,2.7
			c-3.4-6.1,0-13.5-4.7-19.6c-4.7,12.8,4,25.6-2,38.5c-15.5-2.7-31-7.4-47.2-4c-0.7-6,0.6-12.6,1.3-18.6c-0.3,1.2-2,1.8-2,3.1
			c-4.7-4-1.3-14.8-4.7-13.5c-7.4,2.7-0.7,18.2-6.7,24.3c-1.7,2.1-5.6,2.9-9.9,2.5c-0.3,1.7-0.6,3.3-0.8,4.9
			c5.5,0.2,14.2-1.4,17.4-2.6c0.7-0.3,1.3-8.1,1.3-8.1l-1.1,27.8C352.8,234.9,365.5,231.2,370.3,232.4z"/>
		<g class="st17">
			<g>
				
					<ellipse transform="matrix(0.9359 -0.3522 0.3522 0.9359 -39.2348 132.8407)" class="st10" cx="345.5" cy="174.3" rx="4.7" ry="2.4"/>
			</g>
			<g>
				
					<ellipse transform="matrix(0.6962 -0.7178 0.7178 0.6962 -25.5461 297.5363)" class="st10" cx="338.8" cy="179" rx="2.2" ry="1.1"/>
			</g>
		</g>
		<g class="st14">
			<g>
				<g>
					<path class="st26" d="M397.3,189.1c0.7,3.8,0.9,7.7,1.1,11.6c0.3,4.5,0.4,9.1,0.5,13.6c0,1.1,0,2.2,0,3.2c0,0.9-0.2,1.8,0,2.6
						c0.1,0.7,1,0.9,1.2,0.2c0.2-0.8,0.2-1.6,0.2-2.4c0-0.9,0-1.8,0-2.7c0-2.2-0.1-4.4-0.3-6.6c-0.3-4.6-0.6-9.2-1.2-13.7
						c-0.3-2-0.6-3.9-1-5.9C397.7,188.6,397.2,188.8,397.3,189.1L397.3,189.1z"/>
				</g>
			</g>
			<g>
				<g>
					<path class="st26" d="M401.6,191.4c-0.9,4.7-1.9,9.4-2.9,14c-0.2,0.8,1,1.1,1.2,0.3c0.9-4.7,1.7-9.4,2.4-14.2
						C402.4,191.2,401.7,191,401.6,191.4L401.6,191.4z"/>
				</g>
			</g>
			<g>
				<g>
					<path class="st26" d="M344.9,195.3c-0.5,2.9-0.9,5.8-1.3,8.7c-0.2,1.4-0.4,2.9-0.6,4.3c-0.1,0.7-0.2,1.5-0.3,2.2
						c-0.1,0.7-0.3,1.5-0.1,2.3c0.1,0.7,1.1,0.5,1.3,0c0.3-0.6,0.2-1.5,0.3-2.1c0.1-0.7,0.1-1.4,0.2-2.1c0.1-1.5,0.2-3,0.3-4.4
						c0.1-1.4,0.2-2.9,0.3-4.3c0.1-1.5,0-3,0-4.5C345.1,195.2,345,195.2,344.9,195.3L344.9,195.3z"/>
				</g>
			</g>
			<g>
				<g>
					<path class="st26" d="M342.3,197.9c0.1,2-0.2,4-0.2,6c0,0.9,0.1,1.9,0.2,2.8c0.1,0.8,0.2,2.2,1.1,2.5c0.2,0.1,0.5,0,0.6-0.2
						c0.3-0.5,0-0.9-0.1-1.3c-0.1-0.4-0.2-0.8-0.3-1.3c-0.2-0.9-0.2-1.9-0.3-2.9c-0.1-1.9-0.2-3.8-0.6-5.6
						C342.6,197.7,342.3,197.7,342.3,197.9L342.3,197.9z"/>
				</g>
			</g>
		</g>
		<path class="st20" d="M337.4,235c3.8,2.8,36.9-13,41.8-15.6c4.9-2.6,23.2,2.4,23.2,2.4s-1.4-10.6-4.1-12.5
			c-2.7-1.9-16-0.7-18.7-0.2s-33.3,8.8-33.3,8.8l-13.3,1.9C333.1,219.8,332,231.1,337.4,235z"/>
		<g>
			<path class="st27" d="M402.4,221.8c0,0-1.4-10.6-4.1-12.5c-2.7-1.9-16-0.7-18.7-0.2c-0.3,0.1-1,0.2-2,0.5
				c0.2,3.3,1.1,6.6,2.7,9.5C386.4,217.5,402.4,221.8,402.4,221.8z"/>
		</g>
		<path class="st23" d="M398.5,209.5c0.7,3,1.1,5.5-0.4,5.8c-18.9,0.5-34.8,7.8-51.9,13.1c-5.7,1.6-10-3.1-9.2-9.1l-3.9,0.5
			c0,0-1.1,11.3,4.3,15.2c3.8,2.8,36.9-13,41.8-15.6c4.9-2.6,23.2,2.4,23.2,2.4S401.1,211.8,398.5,209.5z"/>
		<g>
			<path class="st20" d="M402.1,237.7c-4,2.7-36.3-14.7-41.1-17.5c-4.8-2.8-20.1-5.2-20.1-5.2s1.4-5.9,7.5-7.1
				c6.1-1.2,9.9,1.2,12.6,1.8s32.8,10.4,32.8,10.4l13.2,2.5C407.1,222.7,407.7,234,402.1,237.7z"/>
			<g>
				<path class="st27" d="M363.1,210.4c-1-0.3-1.7-0.5-2-0.6c-2.7-0.7-6.6-3-12.6-1.8c-6.1,1.2-7.5,7.1-7.5,7.1s7.2,1.1,13.2,2.7
					C354.7,213.5,358.2,210.5,363.1,210.4z"/>
			</g>
			<path class="st23" d="M405.3,222.3c-4.7,7.9-13.2,10.4-23,5c-12.1-7.4-24.3-13.5-39.1-14.8c-0.3,0-0.2-0.5-0.1-1.2
				c-1.5,1.9-2,3.8-2,3.8s15.3,2.4,20.1,5.2s37.1,20.2,41.1,17.5c5.5-3.7,5-15,5-15L405.3,222.3z"/>
		</g>
		<g>
			<polygon class="st10" points="392.7,197.5 382.7,197.5 382,193.1 393.5,193.1 			"/>
		</g>
	</g>
	<g>
		<g>
			<g>
				<path class="st26" d="M426.4,193.6c-2.1-12.5,1-58.8,1.6-64.8c1.2-13.4,11.2-21.9,23.1-19.6c11.9,2.3,15.1,13.2,15.5,23.1
					c0.2,4.1,1.6,45.4-0.7,59.8C464.7,199.9,428.6,206.7,426.4,193.6z"/>
			</g>
			<g class="st14">
				<g>
					<path class="st10" d="M447.4,116.6c0.1-1.7-0.9-3.5-2.3-4.5c-1.3-1-3.3-1.2-4.5,0c-0.4,0.3,0.1,1,0.5,0.7
						c2.5-1.6,5.4,1.3,5.4,3.8C446.6,117.1,447.4,117.1,447.4,116.6L447.4,116.6z"/>
				</g>
			</g>
			<g class="st14">
				<g>
					<path class="st10" d="M443.1,117.3c-0.5-1.8-2.1-3.1-4-3.2c-1.1,0-2.2,0.4-3.2,0.8c-1,0.5-1.9,1.1-2.6,2
						c-0.4,0.4,0.2,0.9,0.6,0.6c1.4-1.1,3.1-2.3,4.9-2.4c1.6-0.1,3.1,0.8,3.6,2.4C442.5,118,443.3,117.8,443.1,117.3L443.1,117.3z"
						/>
				</g>
			</g>
			<g class="st14">
				<g>
					<path class="st10" d="M438.6,118.7c-1.9-0.7-4-0.1-5.5,1.1c-1.6,1.2-2.7,3.1-3.2,5c-0.1,0.5,0.6,0.7,0.7,0.2
						c0.7-1.7,1.5-3.3,2.9-4.5c1.3-1.2,3.3-1.7,5-1.2C438.9,119.4,439,118.9,438.6,118.7L438.6,118.7z"/>
				</g>
			</g>
			<g class="st14">
				<g>
					<path class="st10" d="M450.8,116.6c0.6-1.1,0.7-2.5,0.3-3.7c-0.4-1.1-1.2-2.2-2.2-2.6c-0.7-0.3-1.2,0.6-0.6,1
						c0.7,0.5,1.3,1.1,1.6,2c0.3,0.9,0.3,2-0.1,2.9c-0.1,0.3-0.1,0.6,0.2,0.7C450.3,116.9,450.7,116.9,450.8,116.6L450.8,116.6z"/>
				</g>
			</g>
			<g class="st14">
				<g>
					<path class="st10" d="M453.5,111.4c0.1,1.5-0.3,3-1,4.4c-0.3,0.6,0.5,1.1,0.9,0.5c0.8-1.4,1.1-3.2,1-4.9c0-0.2-0.2-0.5-0.5-0.5
						C453.7,110.9,453.4,111.2,453.5,111.4L453.5,111.4z"/>
				</g>
			</g>
			<g class="st14">
				<g>
					<path class="st10" d="M455.4,116.7c0.3-0.8,1-1.5,1.8-1.9c0.4-0.2,0.9-0.3,1.4-0.3c0.2,0,0.5,0,0.7,0c0.3,0,0.5,0.1,0.8,0.2
						c0.6,0.1,0.9-0.6,0.4-0.9c-0.6-0.3-1.3-0.4-1.9-0.4c-0.7,0-1.3,0.2-1.9,0.5c-1,0.5-1.8,1.5-2.2,2.6c-0.1,0.2,0.1,0.5,0.3,0.6
						C455,117.1,455.3,117,455.4,116.7L455.4,116.7z"/>
				</g>
			</g>
			<g class="st14">
				<g>
					<path class="st10" d="M457.3,117.9c0.7-0.5,1.5-0.7,2.4-0.6c0.8,0.1,1.5,0.5,2.2,1c0.2,0.1,0.4,0.2,0.6,0
						c0.2-0.1,0.2-0.4,0.1-0.6c-0.6-0.9-1.7-1.4-2.8-1.5c-1-0.1-2.1,0.2-2.9,0.8c-0.2,0.1-0.3,0.4-0.2,0.6
						C456.8,117.9,457.1,118,457.3,117.9L457.3,117.9z"/>
				</g>
			</g>
			<g>
				<path class="st28" d="M456.9,170.2c-0.1,1.8-0.5,9.1,0.1,9.7c0.5,0.6,6,1.3,7.9,1.5c-0.7,3.3-1.5,6.6-3.2,9.5
					c-1.6,2.9-4.1,5.5-7.3,6.6c-0.2,0.1-0.4,0.1-0.5,0.1c-0.2,0-0.4-0.1-0.6-0.2c-6.4-3.7-11.6-9-14.6-15.8c0.8,0,5.3-0.5,5.8-1.6
					c0.6-1.3,1-7.2,0.6-9.7L456.9,170.2z"/>
			</g>
			<g class="st21">
				<path class="st29" d="M444.9,178.1c0.3-2.3,0.5-6.1,0.1-8l11.9,0c-0.1,1.4-0.3,6.3-0.2,8.6C452.8,179.7,448.7,179.3,444.9,178.1
					z"/>
			</g>
			<g>
				<g>
					<path class="st28" d="M470.4,150.1c0.2-0.3,0.4-0.6,0.6-0.9c0.8-0.9,2-1.3,3.1-1.2c1.1,0.2,2.2,0.9,2.7,2
						c0.2,0.3,0.3,0.7,0.3,1c0.7,3-0.5,6.2-2.8,8.3c-0.8,0.8-1.9,1.4-3,1.5c-0.5,0-1-0.1-1.4-0.4c-0.4-0.3-0.6-0.7-0.8-1.1
						C468.5,157.8,468.3,153.5,470.4,150.1z"/>
				</g>
				<g class="st21">
					<path class="st29" d="M475.6,151.2c1.1,1-0.2,5.8-1.9,7.4c-0.7,0.6-1.5,1.1-2.4,1.2c-0.4,0-0.8-0.1-1.1-0.3
						c-0.3-0.2-0.5-0.6-0.6-0.9C469,157.5,472.9,149,475.6,151.2z"/>
				</g>
				<g>
					<g>
						<path class="st29" d="M475.1,151.3c-0.7,0.1-1.3,0.5-1.8,0.9c-0.6,0.5-1.2,1-1.6,1.7c-0.4,0.6-0.8,1.3-0.9,2
							c0,0.2,0,0.4,0,0.6c0,0.2-0.1,0.4-0.1,0.5c0,0.4,0,0.8,0,1.2c0,0.4,0.6,0.4,0.6,0c0-0.6-0.1-1.4,0.3-2
							c0.2-0.3,0.2-0.6,0.4-0.9c0.1-0.3,0.3-0.6,0.4-0.9c0.3-0.6,0.7-1.1,1.1-1.7c0.4-0.6,0.9-1,1.6-1.2
							C475.4,151.6,475.3,151.3,475.1,151.3L475.1,151.3z"/>
					</g>
				</g>
				<g>
					<g>
						<path class="st29" d="M472.2,154.9C472.2,154.8,472.2,154.8,472.2,154.9C472.3,154.8,472.3,154.8,472.2,154.9
							c0.1-0.1,0.1-0.1,0.2-0.1c0,0,0,0,0.1,0c0,0,0,0,0,0c0.1,0,0.1,0,0.2,0c0.1,0-0.1,0,0,0c0,0,0,0,0.1,0c0,0,0,0,0.1,0
							c-0.1,0,0,0,0,0c0,0,0,0,0.1,0c0,0-0.1,0,0,0c0,0,0,0,0,0c0,0,0,0,0.1,0.1c0,0,0,0,0,0c0,0,0,0,0,0.1c0,0,0,0.1,0,0.1
							c0-0.1,0,0,0,0.1c0.1,0.2,0.1,0.3,0.1,0.4c0,0.1,0,0.3-0.1,0.4c-0.1,0.2-0.1,0.3-0.2,0.5c-0.1,0.2-0.2,0.3-0.4,0.5
							c-0.1,0.1-0.3,0.3-0.3,0.5c0,0.2,0.1,0.3,0.3,0.3c0.2,0,0.5-0.2,0.6-0.4c0.2-0.2,0.3-0.4,0.4-0.6c0.2-0.4,0.4-0.8,0.4-1.3
							c0-0.7-0.4-1.6-1.2-1.5c-0.3,0-0.6,0.2-0.9,0.4C471.4,154.7,471.9,155.2,472.2,154.9L472.2,154.9z"/>
					</g>
				</g>
			</g>
			<g>
				<path class="st28" d="M430.2,156.3c0.7,12,13.3,19.2,23.3,18.7s16.4-10.4,17.2-17.9c0.7-6.9,0.6-13.8-0.1-16.3
					c-2.3-7.7-7.9-14.4-16.8-14.1C433.3,127.5,429.2,140.8,430.2,156.3z"/>
			</g>
			<g class="st21">
				<path class="st29" d="M435.1,145.1c-2.3,4-2.7,12.3-3.4,11c-3.9-7.3,1.5-28.7,21.9-29.4c8.9-0.3,14.6,6.3,16.8,14.1
					c0.6,2.2,0.6,5.4,0.8,8.7c-1.1-0.9-1.4-3.4-2.2-4.5C459.8,146.3,444,147,435.1,145.1z"/>
			</g>
			<g>
				<g>
					<path class="st28" d="M431.7,152.1c-1.1-1.8-3.1-3.3-5.2-2.9c-0.8,0.1-1.6,0.5-2.2,1.1c-1,1-1.4,2.4-1.4,3.8
						c0.1,1.4,0.6,2.7,1.3,3.9c1.3,2.3,3.4,4.3,6,4.3c0.9,0,1.8-0.2,2.3-1c0.2-0.4,0.3-0.8,0.4-1.2
						C433.1,159.1,433.7,155.6,431.7,152.1z"/>
				</g>
				<path class="st30" d="M425.8,152.4c-1.8,0-0.6,4.6,1.1,6.5c1.7,1.9,4,2.5,3.7-0.7C430.3,155.1,428.1,152.4,425.8,152.4z"/>
				<g>
					<g>
						<path class="st29" d="M426.3,152.6c0.7,0.2,1.1,0.6,1.6,1.2c0.4,0.5,0.8,1.1,1.1,1.7c0.2,0.3,0.3,0.6,0.4,0.8
							c0.1,0.3,0.2,0.6,0.4,0.9c0.1,0.2,0.2,0.3,0.2,0.5c0,0.2,0.1,0.4,0.1,0.5c0,0.3,0,0.7,0,1c0,0.4,0.6,0.4,0.6,0
							c0-0.4,0-0.8,0-1.1c0-0.2,0-0.4-0.1-0.5c0-0.2,0-0.4,0-0.6c0-0.4-0.2-0.8-0.3-1.1c-0.2-0.3-0.3-0.7-0.5-1
							c-0.4-0.6-1-1.1-1.6-1.6c-0.5-0.4-1.2-0.8-1.9-1C426.2,152.2,426.2,152.5,426.3,152.6L426.3,152.6z"/>
					</g>
				</g>
				<g>
					<g>
						<path class="st29" d="M429.9,155.3c-0.4-0.4-1.1-0.6-1.6-0.2c-0.3,0.3-0.4,0.7-0.4,1.1c0,0.4,0.1,0.9,0.4,1.3
							c0.1,0.2,0.3,0.5,0.5,0.6c0.2,0.2,0.4,0.4,0.7,0.4c0.2,0,0.3-0.2,0.3-0.3c0-0.2-0.2-0.3-0.3-0.5c-0.1-0.1-0.2-0.3-0.3-0.4
							c-0.1-0.1-0.2-0.3-0.2-0.4c0-0.1-0.1-0.2-0.1-0.2c0,0,0-0.1,0-0.1c0,0,0,0,0-0.1c0,0,0-0.1,0,0c0-0.2,0-0.3,0-0.4
							c0-0.1,0-0.1,0.1-0.2c0,0.1,0,0,0,0c0,0,0-0.1,0.1-0.1c0-0.1,0,0,0,0c0,0,0,0,0.1-0.1c0,0-0.1,0,0,0c0,0,0.1-0.1,0,0
							c0,0,0,0,0,0c0,0,0.1,0,0.1,0c0,0-0.1,0,0,0c0,0,0.1,0,0.1,0c0.1,0-0.1,0,0,0c0,0,0.1,0,0.1,0c0,0,0,0,0.1,0c0.1,0,0,0,0,0
							c0,0,0.1,0.1,0.1,0.1c0.1,0,0,0,0,0c0,0,0,0,0.1,0.1C429.7,156.1,430.2,155.6,429.9,155.3L429.9,155.3z"/>
					</g>
				</g>
			</g>
			<g>
				<g>
					<path class="st29" d="M456.5,160.5c-0.4,0.4-1.1,0.5-1.7,0.7c-0.7,0.1-1.4,0.2-2.1,0.2c-0.7,0-1.4,0-2.1-0.1
						c-0.3,0-0.7-0.1-1-0.2c-0.3-0.1-0.5-0.3-0.8-0.5c-0.3-0.2-0.6,0.2-0.4,0.5c0.5,0.5,1.3,0.9,1.9,1.1c0.8,0.3,1.6,0.4,2.5,0.3
						c1.5-0.1,3-0.6,4-1.7C457,160.6,456.7,160.3,456.5,160.5L456.5,160.5z"/>
				</g>
			</g>
			<path class="st30" d="M451.1,164.9c0,0.6,0.8,1,1.8,1c1,0,1.8-0.5,1.8-1c0-0.6-0.8-0.6-1.8-0.6
				C451.9,164.3,451.1,164.3,451.1,164.9z"/>
			<g>
				<g>
					<path class="st26" d="M468.1,144.5c-0.9-1-2-1.8-3.3-2.2c-1.4-0.4-2.9-0.4-4.3,0c-0.8,0.2-1.3,1.1-1,1.8c0.2,0.7,1.1,1.3,1.8,1
						c0.3-0.1,0.5-0.2,0.8-0.2c0.1,0,0.3-0.1,0.4-0.1c0.1,0,0.1,0,0.2,0c-0.1,0-0.3,0-0.1,0c0.6-0.1,1.2-0.1,1.7,0
						c0.1,0,0.3,0,0.4,0c0.2,0-0.2,0,0,0c0.1,0,0.2,0,0.2,0c0.3,0,0.5,0.1,0.8,0.2c0.1,0,0.2,0.1,0.3,0.1c0.1,0,0.1,0.1,0.2,0.1
						c0,0,0.1,0.1,0,0c0.3,0.1,0.4,0.2,0.6,0.4C467.7,146.3,468.7,145.3,468.1,144.5L468.1,144.5z"/>
				</g>
			</g>
			<g>
				<g>
					<path class="st26" d="M438.3,145.7c0.5-0.4,1-0.5,1.5-0.6c0.2,0,0.3-0.1,0.5-0.1c0.2,0-0.1,0,0.1,0c0.2,0,0.3,0,0.5-0.1
						c0.1,0,0.2,0,0,0c0.1,0,0.2,0,0.3,0c0.2,0,0.4,0,0.5,0c0.7,0,1.4,0,2.1,0c0.1,0,0.2,0,0.3,0c-0.1,0-0.2,0,0,0
						c0.2,0,0.3,0.1,0.5,0.1c0.3,0.1,0.7,0.2,1,0.3c0.7,0.3,1.7-0.3,1.8-1c0.2-0.8-0.2-1.6-1-1.8c-3.2-0.9-6.8-0.1-9.2,2.2
						c-0.3,0.3-0.3,0.8,0,1.1C437.5,146,437.9,145.9,438.3,145.7L438.3,145.7z"/>
				</g>
			</g>
			<g>
				<path class="st26" d="M472.6,128.9c-5.8-10.9-14.8-13.3-22.5-13c-16,0.5-22.8,11.5-24.5,16.3c-1.7,4.8-3.2,12.6-1.2,18
					c4.8-2.5,7,1.8,7.6,2.2c-0.6-3.5-0.2-7.2,1.9-10.2c4.7,0.6,32.6,0.7,35.8-0.1c0,0,1.5,1.7,1.4,7c1.3-1.2,2-1.1,2.8-1.2
					C473.8,148,476.1,135.5,472.6,128.9z"/>
			</g>
			<g>
				<g class="st14">
					<g>
						<path class="st10" d="M447.2,125.1c-2.1,1.8-4.1,3.6-5.3,6.2c-0.6,1.3-1,2.7-1.2,4.2c-0.2,1.4-0.2,3.1,0.4,4.4
							c0.2,0.6,1.1,0.2,1.1-0.3c0-1.4-0.1-2.7,0.1-4c0.2-1.3,0.6-2.6,1.1-3.9c0.9-2.3,2.2-4.6,4-6.4
							C447.6,125.1,447.4,124.9,447.2,125.1L447.2,125.1z"/>
					</g>
				</g>
				<g class="st14">
					<g>
						<path class="st10" d="M450.8,124c0.2,2.5,0,5,0,7.4c0,1.2-0.1,2.5-0.1,3.7c0,1.2-0.2,2.5-0.1,3.7c0.1,0.7,1.1,0.9,1.2,0.2
							c0.3-1.2,0.3-2.4,0.3-3.6c0-1.3,0-2.6,0-3.8c-0.1-2.5-0.5-5-0.8-7.5C451.3,123.7,450.8,123.7,450.8,124L450.8,124z"/>
					</g>
				</g>
				<g class="st14">
					<g>
						<path class="st10" d="M456.6,123.8c1.8,2.1,2.8,4.8,3.4,7.5c0.3,1.5,0.5,3,0.6,4.5c0.1,1.6,0,3.1,0.1,4.7
							c0.1,0.8,1.2,0.8,1.2,0c0.1-1.7,0-3.4-0.2-5.1c-0.2-1.6-0.4-3.1-0.9-4.6c-0.8-2.7-2.1-5.2-4-7.2
							C456.7,123.4,456.5,123.7,456.6,123.8L456.6,123.8z"/>
					</g>
				</g>
				<g class="st14">
					<g>
						<path class="st10" d="M460.8,125.2c2.6,1.8,4.7,4.6,5.7,7.6c0.4,1.3,0.7,2.6,0.8,3.9c0.1,0.6,0.1,1.3,0.1,1.9
							c0,0.6-0.1,1.2,0,1.7c0.1,0.5,0.9,0.6,1.1,0.1c0.5-1.1,0.3-2.7,0.2-3.9c-0.2-1.5-0.5-2.9-1.1-4.3c-0.6-1.5-1.4-2.8-2.4-4.1
							c-1.2-1.4-2.6-2.4-4.1-3.3C460.8,124.7,460.6,125,460.8,125.2L460.8,125.2z"/>
					</g>
				</g>
				<g class="st14">
					<g>
						<path class="st10" d="M441.3,126.6c-1.1,0.9-2.3,1.7-3.3,2.7c-0.9,0.9-1.7,1.9-2.4,2.9c-1.3,2-2.5,4.7-2.3,7.1
							c0,0.6,1,0.8,1.1,0.1c0.3-1.2,0.4-2.4,0.7-3.5c0.3-1.2,0.8-2.3,1.4-3.3c1.3-2.3,3.3-3.9,5.2-5.7
							C442,126.8,441.6,126.4,441.3,126.6L441.3,126.6z"/>
					</g>
				</g>
			</g>
			<path class="st31" d="M441,150.3c0.7,0,1.3,0.2,1.8,0.5c0,0,0.1,0,0.1,0c0,0,0,0,0,0c0.1,0,0.1-0.1,0.2-0.1
				c0.1-0.1,0.2-0.2,0.3-0.3c0.3-0.2,0.4-0.5,0.5-0.9c0-0.1,0.2-0.1,0.2,0.1c-0.1,0.4-0.1,1-0.4,1.3c-0.1,0.2-0.2,0.4-0.4,0.6
				c0.1,0.2,0.5,0.4,0.6,0.4c0,0,0,0,0,0c0.1,0,0.1-0.1,0.2-0.1c0.1-0.1,0.2-0.2,0.3-0.3c0.3-0.2,0.4-0.5,0.5-0.9
				c0-0.1,0.2-0.1,0.2,0.1c-0.1,0.4-0.1,1-0.4,1.3c-0.2,0.3-0.5,0.8-0.9,0.8c0.1,0.3,0.1,0.6,0.2,1c0,0.4-0.5,0.4-0.6,0.1
				c-0.3-1.3-1.3-2.9-2.9-2.3c-0.9,0.3-1.4,1.3-2,2.1c-0.2,0.2-0.5,0.1-0.5-0.1C438.2,152,439.4,150.4,441,150.3z"/>
			<path class="st31" d="M463.3,150.3c0.7,0,1.3,0.2,1.8,0.5c0,0,0.1,0,0.1,0c0,0,0,0,0,0c0.1,0,0.1-0.1,0.2-0.1
				c0.1-0.1,0.2-0.2,0.3-0.3c0.3-0.2,0.4-0.5,0.5-0.9c0-0.1,0.2-0.1,0.2,0.1c-0.1,0.4-0.1,1-0.4,1.3c-0.1,0.2-0.2,0.4-0.4,0.6
				c0.1,0.2,0.5,0.4,0.6,0.4c0,0,0,0,0,0c0.1,0,0.1-0.1,0.2-0.1c0.1-0.1,0.2-0.2,0.3-0.3c0.3-0.2,0.4-0.5,0.5-0.9
				c0-0.1,0.2-0.1,0.2,0.1c-0.1,0.4-0.1,1-0.4,1.3c-0.2,0.3-0.5,0.8-0.9,0.8c0.1,0.3,0.1,0.6,0.2,1c0,0.4-0.5,0.4-0.6,0.1
				c-0.3-1.3-1.3-2.9-2.9-2.3c-0.9,0.3-1.4,1.3-2,2.1c-0.2,0.2-0.5,0.1-0.5-0.1C460.4,152,461.7,150.4,463.3,150.3z"/>
			<g class="st16">
				<g class="st17">
					
						<ellipse transform="matrix(0.9359 -0.3522 0.3522 0.9359 -15.0214 162.4967)" class="st10" cx="439.1" cy="122.5" rx="4.7" ry="2.4"/>
				</g>
				<g class="st17">
					
						<ellipse transform="matrix(0.6962 -0.7178 0.7178 0.6962 40.0198 349.0244)" class="st10" cx="432.4" cy="127.2" rx="2.2" ry="1.1"/>
				</g>
			</g>
		</g>
		<path class="st28" d="M473.4,250.9l-40.5-2.7c0,0-3.9,6.1-4.6,12.8c-0.3,5.5,0.2,11.2,1.2,17c2.4,11.1,6.3,18.7,2.3,32.9
			c-4.5,16.2-0.9,28,1.4,50c0,0,0.5,3.6-3.5,12.7c-2,4.6,0.2,10.1,1.9,10.3c1.6,0.2,6.4-3.2,7.5-6.2c1.2-3,0.7-10,0.9-12.5
			c0.3-5.6,3.3-22.2,4.9-37c0.8-7.1,0.3-14.3,1-18.8c2.5-15.5,5.1-27.4,7.2-43.2c0.2,10.5,0.1,35.9,0.9,45.1
			c0.3,3.2-0.8,9.2-0.5,16.2c0.5,13.2,2.1,29.8,2,37c0,2.5-0.9,10.2,0.2,13.2c1.2,3,5.9,6.4,7.5,6.2s3.6-5.6,1.9-10.3
			c-1.6-4.4-3.9-4.8-3.3-13.6c0.6-8.8,9.8-29.1,6.4-47.8c-2.3-12.6,6.9-30.4,7.1-39.6C475.9,257.4,473.4,250.9,473.4,250.9z"/>
		<path class="st30" d="M468.2,310.9c-1.4-12.5,7.1-29.3,7.3-38.2c0.4-15.3-2.1-21.8-2.1-21.8l-40.5-2.7c0,0-3.9,6.1-4.6,12.8
			c-0.3,5.5,0.2,11.2,1.2,17c2.2,10.2,5.6,17.4,3.2,29.3c4.7-1.4,9.5-0.3,13.2,2.6c0-0.2,0-0.3,0.1-0.5c2.5-15.5,5.1-27.4,7.2-43.2
			c0.2,10.3,0.1,34.9,0.9,44.5C458.4,308,463.3,308.9,468.2,310.9z"/>
		<path class="st2" d="M430.1,372.8c-0.1,0.3-0.2,0.6-0.3,0.9c-1.8,4.7,0.2,10.1,1.9,10.3s6.4-3.2,7.5-6.2c0.5-1.3,0.7-3.4,0.7-5.5
			C437.3,378.2,430.1,377.7,430.1,372.8z"/>
		<g>
			<path class="st2" d="M464.9,372.8c0.1,0.3,0.2,0.6,0.3,0.9c1.8,4.7-0.2,10.1-1.9,10.3c-1.6,0.2-6.4-3.2-7.5-6.2
				c-0.5-1.3-0.7-3.4-0.7-5.5C457.8,378.2,464.9,377.7,464.9,372.8z"/>
		</g>
		<path class="st26" d="M475.5,272.7c0.4-15.3-2.1-21.8-2.1-21.8l-40.5-2.7c0,0-3.9,6.1-4.6,12.8c-0.3,5.5-0.4,11.2,0.5,17
			c1.8,8.2,2.1,16.4,1.4,24.4c4.7,1.6,35,2.6,39.8,1.9C471.3,292.9,475.4,280,475.5,272.7z"/>
		<g>
			<path class="st32" d="M467.9,181.7c-4.2-0.9-8.3-1.1-8.3-1.1c-1.9,7.3-11,9.9-17.4,0.4c-1.5,0-3.6,0.3-6,0.8
				c4.4,17.2,9,34.8,16,51.3C455.6,228.4,464.8,193.6,467.9,181.7z"/>
		</g>
		<path class="st28" d="M490.3,256.4c-1.2-1.4-2.3-6.6-2.3-6.6l-6.6,1.8c0,0,1.9,4.8,1.7,6.5c-0.2,1.7-1.6,3.8-1.6,6.2
			c-0.1,2.4,1.3,6,1.7,6.7c0.4,0.6,3.9,2.9,4.4,3.1c0.5,0.2,1.9,0.2,2.2-2.2c0,0,3.6-4.2,4-6.2C494.2,263.6,491.6,257.8,490.3,256.4
			z M484.7,270c0-0.6-0.2-0.9-0.1-1.6c0.5,0.6,1.1,1.4,1.1,1.5C485.7,270.1,485.3,269.8,484.7,270z"/>
		<path class="st30" d="M488.1,249.8l-6.6,1.8c0,0,1.9,4.8,1.7,6.5c-0.2,1.7-1.6,3.8-1.6,6.2c0,0.3,0,0.6,0,1c2.3-4,6.9-3.2,12-2
			c-0.7-2.5-2.3-5.9-3.2-6.9C489.1,255,488.1,249.8,488.1,249.8z"/>
		<g>
			<g>
				<path class="st10" d="M478.4,186.1c-2.5-2.2-10.9-4.6-14.6-5.1c-3.3,14.9-7.6,29.6-10.9,44.7c-3.2-14.8-8.9-29.7-12.9-44.5
					c-4.7,0.5-14.8,3.8-17.4,6.8c-3.1,3.5-8.3,41.1-8.3,41.1c-1.4,8.8,5.7,15.6,10.1,12.4c0.9-0.6,5.7-22.9,6.5-22.6
					c1.2,14.6-4.2,37.2-5.2,71.5c11.1,7.6,51.8,3,51.8,3c-0.2-54.1-5.5-56.4-3.5-75.1c0.9-0.2,5.5,34,6.5,42.3
					c6.9-0.8,13.1-3.8,13.1-3.8s-3.3-17.2-6.4-34.2C484.1,205.5,480.5,187.9,478.4,186.1z"/>
			</g>
			<path class="st33" d="M468,181.9c-1.2-0.3-2.3-0.5-3.2-0.7c1.6,8.2,3.1,15.6,4.3,25c-2.7,0.8-4.7,1.1-8,2.2c2.7,3,4.1,4.1,5.6,5
				c-3.9,4.3-11,13-14.2,21.3c-3.7-6.4-10.4-16.8-14.1-22.9c0,0,2.9-2.8,4.6-4.4c-2.9-1.6-6.2-3-7.1-3.4c0,0,3-15.9,2.9-22.6
				c-0.4,0-0.8,0.1-1.8,0.4c-1.1,8.7-3.8,22.7-3.8,22.7c0.9,1.1,4.6,3.7,6.1,4.4c-1.7,1.4-3.7,3-4.7,4.8c0.4,2.7,11.7,21,18.2,24.3
				c5.3-5.1,11-15.3,16.3-24c0.9-1.5-4.3-2.6-4.7-4.4c1.3,0,6.1-0.5,6.1-0.5C472.5,199.1,469.1,191.7,468,181.9z"/>
			<path class="st33" d="M432.7,286.4c3.4-1.3,8.1,0.7,10.8-2.7c0.7-2-0.7-4.7-0.7-6.7c-5.4,1.3-14-3.7-12-9.8
				c1.3-3.4,1.9-19.7,5-27.5c-2.7-5.8,1.1-11.6,0-18c-0.4-0.7-0.8-1.4-1.2-2.1c-1.3-2.3-1-4.3,0-6c-0.7-5.2-1.4-10.4-2.7-15.6
				c0-0.7-1.3,2-1.3,2.7c-1.3,10.1-2,22.3-9.4,27.7c-3,2.1-4.9-1.7-5.9-6.1c-0.6,4.1-1,6.8-1,6.8c-1.4,8.8,5.7,15.6,10.1,12.4
				c0.9-0.6,5.7-22.9,6.5-22.6c1.2,14.6-4.2,37.2-5.2,71.5c0.9,0.6,1.9,1.1,3.1,1.6C429.3,289.4,430.4,287.3,432.7,286.4z"/>
			<path class="st33" d="M480.5,260.5c6.9-0.8,13.1-3.8,13.1-3.8s-0.3-1.8-0.9-4.8c-3.4,1.1-6.5,1.3-8.7-0.7
				c-6.7-6.1-1.3-19.6-7.4-29.7c-4-6.1,4-14.2,0-21.6c-3.6,8.3-5.7,16.7-8,25.3c0.6,12,4.6,36.8,5.3,37.4c0.7,3.4,1.3,7.4-0.7,10.8
				c-3.4,4-7.4,2-10.8-0.7c-1.3,3.4-3.4,7.4,0,8.8c2.7,2,8.8-0.7,10.1,1.3c1.9,3.1,1,6.9-0.1,10.8c3.1-0.3,5-0.5,5-0.5
				c-0.2-54.1-5.5-56.4-3.5-75.1C474.8,218,479.5,252.2,480.5,260.5z"/>
			<g class="st13">
				<g class="st13">
					<g>
						<path class="st26" d="M475,199.1c0.2,3,0.1,6.1-0.3,9.1c-0.2,1.5-0.4,3-0.7,4.5c-0.3,1.5-0.7,3-0.9,4.5
							c-0.1,0.8,1.1,0.8,1.3,0.2c0.5-1.4,0.7-3,0.9-4.5c0.2-1.5,0.4-3,0.5-4.6c0.2-3.1,0.1-6.2-0.1-9.2
							C475.6,198.6,475,198.6,475,199.1L475,199.1z"/>
					</g>
				</g>
				<g class="st13">
					<g>
						<path class="st26" d="M477.5,204.4c-0.2,2-0.6,4-1.2,5.9c-0.3,0.9-0.6,1.8-1,2.7c-0.2,0.4-0.4,0.9-0.6,1.3
							c-0.2,0.5-0.5,0.9-0.5,1.4c0,0.4,0.5,0.7,0.8,0.5c0.4-0.3,0.6-0.8,0.8-1.2c0.2-0.5,0.4-1,0.6-1.5c0.3-1,0.6-1.9,0.9-2.9
							c0.5-2,0.7-4.1,0.8-6.1C477.9,204.1,477.5,204.1,477.5,204.4L477.5,204.4z"/>
					</g>
				</g>
				<g class="st13">
					<g>
						<path class="st26" d="M430.8,198.3c0.5,2.8,0.7,5.7,0.8,8.5c0.1,1.4,0.1,2.8,0.1,4.1c0,1.4-0.2,2.8-0.2,4.3
							c0,0.8,1.2,0.8,1.2,0c0.1-1.4,0-2.9,0-4.3c0-1.5-0.1-2.9-0.2-4.4c-0.2-2.8-0.7-5.6-1.1-8.4C431.3,197.8,430.8,198,430.8,198.3
							L430.8,198.3z"/>
					</g>
				</g>
				<g class="st13">
					<g>
						<path class="st26" d="M433.6,200.3c0.2,3.1,0.1,6.2-0.4,9.3c-0.2,1.5-0.6,2.9-0.9,4.4c-0.2,0.7-0.4,1.5-0.6,2.2
							c-0.2,0.7-0.6,1.5-0.7,2.3c0,0.5,0.7,0.8,1,0.4c0.5-0.6,0.6-1.4,0.9-2.1c0.2-0.8,0.5-1.6,0.6-2.3c0.4-1.5,0.6-3,0.8-4.6
							c0.4-3.2,0.4-6.4,0.1-9.6C434.4,199.8,433.6,199.8,433.6,200.3L433.6,200.3z"/>
					</g>
				</g>
				<g class="st13">
					<g>
						<path class="st26" d="M438.3,182.7c-0.3,3.6-0.7,7.1-1.2,10.7c-0.2,1.7-0.5,3.4-0.8,5.1c-0.3,1.8-0.6,3.6-1,5.3
							c-0.1,0.3,0,0.6,0.3,0.7c1.2,0.5,2.4,1,3.6,1.6c1.2,0.6,2.3,1.2,3.4,1.9c-0.1-0.3-0.2-0.7-0.3-1c-1.1,1.7-2.6,3.1-4.3,4.2
							c-0.3,0.2-0.5,0.7-0.3,1c5.2,7.3,9.9,14.9,14,22.9c0.3,0.5,1.2,0.6,1.4,0c1.7-3.9,3.6-7.7,5.9-11.3c2.3-3.6,5.1-6.9,8-9.9
							c0.3-0.3,0.3-0.9-0.2-1.2c-2.1-1.2-3.9-2.8-5.3-4.7c-0.2,0.4-0.3,0.8-0.5,1.1c2.6-1,5.3-1.8,8.1-2.5c0.4-0.1,0.6-0.5,0.5-1
							c-1.2-7.9-2.1-16-4.7-23.6c-0.1-0.4-0.7-0.2-0.6,0.2c2.3,7.8,2.6,15.9,3.8,23.9c0.2-0.3,0.4-0.6,0.5-1
							c-2.7,0.7-5.4,1.5-8.1,2.5c-0.4,0.2-0.8,0.7-0.5,1.1c1.6,2.2,3.6,3.9,5.9,5.3c-0.1-0.4-0.1-0.8-0.2-1.2
							c-6.1,6.2-11.1,13.6-14.4,21.6c0.5-0.1,1-0.1,1.5-0.2c-4.2-7.9-8.9-15.6-14.1-22.9c-0.1,0.3-0.2,0.7-0.3,1
							c2-1.2,3.6-2.8,4.8-4.7c0.2-0.3,0.1-0.8-0.3-1c-2.2-1.4-4.7-2.7-7.3-3.4c0.2,0.2,0.3,0.4,0.5,0.6c0.1-1.8,0.5-3.6,0.7-5.4
							c0.2-1.7,0.4-3.5,0.6-5.2c0.4-3.5,0.6-7.1,0.9-10.7C438.8,182.3,438.3,182.4,438.3,182.7L438.3,182.7z"/>
					</g>
				</g>
				<g class="st13">
					<g>
						<path class="st26" d="M452.9,227.4c-0.4,8.8-0.7,17.7-1,26.5c-0.3,8.5-0.6,17-1,25.4c-0.2,4.9-0.5,9.9-0.6,14.8
							c0,1.1,1.6,1.1,1.7,0c0.3-4.4,0.3-8.8,0.5-13.2c0.1-4.3,0.2-8.5,0.3-12.8c0.2-8.5,0.3-17.1,0.4-25.6c0.1-5.1,0.1-10.1,0-15.2
							C453.2,227.2,452.9,227.2,452.9,227.4L452.9,227.4z"/>
					</g>
				</g>
				<g class="st13">
					<g>
						<path class="st26" d="M461.6,263.8c4.2,0.6,8.3,0.6,12.5,0.2c-0.1-0.1-0.2-0.2-0.3-0.3c0,0.7,0,1.4-0.1,2
							c-0.1,0.3-0.2,0.5-0.2,0.7c0,0.3,0,0.6,0,0.9c0,0.6,0,1.2,0,1.8c0,2.6-0.1,5.2-0.1,7.8c0,1,0,2-0.1,3c0.3-0.3,0.6-0.6,0.8-0.8
							c-2.5,0-5.1,0.2-7.6,0.2c-1.1,0-2.3,0.1-3.4,0.1c-0.4,0-0.8,0-1.1,0c-0.1,0-0.2,0-0.3,0c-0.3,0,0.1,0,0.2,0.1
							c0.1,0.2,0.3,0.3,0.4,0.5c0.1,0.4,0,0,0-0.2c0-0.3,0-0.6,0-1c0-1.1,0-2.1,0.1-3.2c0.1-2.8,0.1-5.5,0.2-8.3
							c0-1.3,0.1-2.5,0.1-3.8c0-1.1-1.6-1.1-1.7,0c-0.1,4.5-0.2,9-0.3,13.5c0,0.8,0,1.5,0,2.3c0,0.4-0.1,1,0.2,1.3
							c0.4,0.4,1.2,0.3,1.7,0.3c1,0,2.1,0,3.1-0.1c2.8-0.1,5.6-0.1,8.5-0.3c0.4,0,0.8-0.4,0.8-0.8c0-2.1,0-4.2-0.1-6.2
							c0-1.4,0-2.7,0-4.1c0-0.6,0-1.2,0-1.9c0-0.5,0-1.2-0.1-1.7c-0.2-0.8-0.2-1.6-0.2-2.4c0-0.2-0.2-0.4-0.3-0.3
							c-4.1,0.5-8.2,0.6-12.4,0.1C461.4,263.4,461.4,263.8,461.6,263.8L461.6,263.8z"/>
					</g>
				</g>
				<g class="st13">
					<g>
						<path class="st26" d="M461.5,268.1c2,0.2,4.1,0.2,6.2,0.2c1.1,0,2.3,0,3.4,0c0.5,0,1,0,1.5,0c0.4,0,0.9,0,1.3,0.1
							c0.7,0.2,0.9-1.1,0-0.9c-0.4,0.1-0.9,0-1.3,0c-0.5,0-1,0-1.5,0c-1.1,0-2.3,0-3.4,0c-2.1,0-4.1,0.1-6.2,0
							C461.2,267.5,461.2,268,461.5,268.1L461.5,268.1z"/>
					</g>
				</g>
				<g class="st13">
					<g>
						<path class="st26" d="M430.9,263.3c4.2,0.6,8.3,0.6,12.5,0.2c-0.1-0.1-0.2-0.2-0.3-0.3c0,0.7,0,1.4-0.1,2
							c-0.1,0.3-0.2,0.5-0.2,0.7c0,0.3,0,0.6,0,0.9c0,0.6,0,1.2,0,1.8c0,2.6-0.1,5.2-0.1,7.8c0,1,0,2-0.1,3c0.3-0.3,0.6-0.6,0.8-0.8
							c-2.5,0-5.1,0.2-7.6,0.2c-1.1,0-2.3,0.1-3.4,0.1c-0.4,0-0.8,0-1.1,0c-0.1,0-0.2,0-0.3,0c-0.3,0,0.1,0,0.2,0.1
							c0.1,0.2,0.3,0.3,0.4,0.5c0.1,0.4,0,0,0-0.2c0-0.3,0-0.6,0-1c0-1.1,0-2.1,0.1-3.2c0.1-2.8,0.1-5.5,0.2-8.3
							c0-1.3,0.1-2.5,0.1-3.8c0-1.1-1.6-1.1-1.7,0c-0.1,4.5-0.2,9-0.3,13.5c0,0.8,0,1.5,0,2.3c0,0.4-0.1,1,0.2,1.3
							c0.4,0.4,1.2,0.3,1.7,0.3c1,0,2.1,0,3.1-0.1c2.8-0.1,5.6-0.1,8.5-0.3c0.4,0,0.8-0.4,0.8-0.8c0-2.1,0-4.2-0.1-6.2
							c0-1.4,0-2.7,0-4.1c0-0.6,0-1.2,0-1.9c0-0.5,0-1.2-0.1-1.7c-0.2-0.8-0.2-1.6-0.2-2.4c0-0.2-0.2-0.4-0.3-0.3
							c-4.1,0.5-8.2,0.6-12.4,0.1C430.7,262.9,430.7,263.2,430.9,263.3L430.9,263.3z"/>
					</g>
				</g>
				<g class="st13">
					<g>
						<path class="st26" d="M430.8,267.5c2,0.2,4.1,0.2,6.2,0.2c1.1,0,2.3,0,3.4,0c0.5,0,1,0,1.5,0c0.4,0,0.9,0,1.3,0.1
							c0.7,0.2,0.9-1.1,0-0.9c-0.4,0.1-0.9,0-1.3,0c-0.5,0-1,0-1.5,0c-1.1,0-2.3,0-3.4,0c-2.1,0-4.1,0.1-6.2,0
							C430.4,266.9,430.5,267.4,430.8,267.5L430.8,267.5z"/>
					</g>
				</g>
			</g>
			<g class="st13">
				<g>
					<path class="st26" d="M480.7,256.1c2,0.1,4-0.1,6-0.5c1-0.2,2-0.5,3-0.9c0.9-0.3,1.9-0.7,2.7-1.2c0.3-0.2,0.1-0.7-0.2-0.6
						c-0.9,0.4-1.7,0.8-2.6,1.1c-0.9,0.3-1.9,0.6-2.9,0.8c-1.9,0.4-3.9,0.6-5.9,0.6C480.4,255.5,480.4,256.1,480.7,256.1
						L480.7,256.1z"/>
				</g>
			</g>
		</g>
		<g>
			<g>
				<path class="st26" d="M468.3,196.4l-1.1-0.2c0.8-3.6,1-7.2,0.7-11c-0.2-2.4-1-4.1-2.6-5.3c-3.1-2.3-7.9-1.3-8-1.2l-0.2-1.1
					c0.2,0,5.4-1.2,8.9,1.4c1.8,1.3,2.8,3.4,3,6.1C469.4,189,469.1,192.7,468.3,196.4z"/>
			</g>
			<g>
				<path class="st26" d="M463.2,230.1c-0.1-0.1-3.1-1.4-4.5-4.4c-1.5-3.2,3.2-18.5,4.3-21.4l1.1,0.4c-1.6,4.3-5.4,18.1-4.3,20.6
					c1.2,2.6,3.9,3.8,4,3.8L463.2,230.1z"/>
			</g>
			<g>
				<path class="st26" d="M470.7,230.5l-0.4-1.1l0.2,0.5l-0.2-0.5c0,0,2.9-1.1,3.8-3.9c1-2.9-1.3-15.1-3.1-19.9l1.1-0.4
					c1.7,4.5,4.3,17.2,3.1,20.6C474,229.2,470.8,230.4,470.7,230.5z"/>
			</g>
			<g>
				<path class="st26" d="M464.6,231.4c-0.3,0-0.5,0-0.8-0.1l-2.8-1.4c-0.7-0.3-1-1.2-0.6-1.9c0.3-0.7,1.2-1,1.9-0.6l2.8,1.4
					c0.7,0.3,1,1.2,0.6,1.9C465.5,231,465.1,231.3,464.6,231.4z"/>
			</g>
			<g>
				<path class="st26" d="M468.9,231.8c-0.6,0.1-1.2-0.2-1.4-0.8c-0.3-0.7,0-1.5,0.7-1.9l3.8-1.7c0.7-0.3,1.5,0,1.9,0.7
					c0.3,0.7,0,1.5-0.7,1.9l-3.8,1.7C469.2,231.8,469,231.8,468.9,231.8z"/>
			</g>
			<path class="st26" d="M469.6,197.5l0.4-5.9c0-0.4-0.1-0.9-0.4-1.2c-0.3-0.3-0.7-0.5-1.2-0.6c-0.9-0.1-1.7,0.7-1.8,1.6l-0.4,5.9
				c-1.8,0.8-4.3,3.5-5.8,11.4c-0.2,0.9,0.4,1.8,1.3,2c0.4,0.1,0.9,0,1.3-0.3c0.4-0.3,0.6-0.6,0.7-1.1c1.1-5.5,3.1-9.1,3.9-9.1
				c0.8,0.2,2.5,4.7,3.3,9.5c0.1,0.9,1,1.5,1.8,1.4c0,0,0.1,0,0.1,0c0.4-0.1,0.8-0.3,1.1-0.7c0.3-0.4,0.4-0.8,0.3-1.3
				C473.7,205.4,472.3,199.4,469.6,197.5z"/>
		</g>
		<g>
			<circle class="st26" cx="433" cy="215.3" r="3.8"/>
			<circle class="st34" cx="433" cy="215.3" r="2.1"/>
			<g>
				<path class="st26" d="M431.5,212.6c-0.2-0.5-4.6-12.1-0.9-21.9c2.5-6.5,7.8-11.7,11.5-12.8l0.3,1.1c-3.4,1.1-8.4,5.9-10.7,12.1
					c-3.6,9.4,0.8,20.9,0.9,21L431.5,212.6z"/>
			</g>
		</g>
		<path class="st33" d="M432.1,215.2C432.1,215.2,432.1,215.1,432.1,215.2C432.1,215.3,432.1,215.3,432.1,215.2z"/>
		<g>
			<path class="st26" d="M442.9,194.2c-5.4,2.2-23,9.5-30.6,14c-0.8,0.5-1.1,1.5-0.7,2.4l19.4,39.6c0.4,0.9,1.5,1.3,2.4,0.8
				l29.3-13.5c0.9-0.4,1.3-1.5,0.9-2.4l-18.4-39.9C444.8,194.2,443.8,193.8,442.9,194.2z"/>
			<path class="st34" d="M418.1,202.9l1.7,3.6c0.2,0.4,0.6,0.5,0.9,0.3l16.2-7.5c0.4-0.2,0.5-0.6,0.3-0.9l-1.7-3.6
				c-0.2-0.4-0.6-0.5-0.9-0.3l-4,1.8l-0.8-1.8c-0.1-0.3-0.4-0.4-0.7-0.3l-7.2,3.3c-0.3,0.1-0.4,0.4-0.3,0.7l0.8,1.8l-4,1.8
				C418.1,202.1,417.9,202.6,418.1,202.9z M429.6,196.8l-6.2,2.9l-0.6-1.3l6.2-2.9L429.6,196.8z"/>
			<g>
				<path class="st20" d="M420.1,227.8c0,0,7-3.6,7.6-1.9c0.3,0.9-6,4.6-5.8,5c0.2,0.4,8-2.9,8-1.5c0,1.4-6.8,3.5-6.3,3.7
					c0.6,0.3,7.6-1.7,7.5-0.3c-0.1,1.3-7.2,2.6-7,3c0.2,0.4,5.6-0.1,5.5,0.9c-0.1,1-4.3,1.6-5.7,1.6c-6,0.7-7.5-9.6-5.4-13.5
					C419.1,225.8,420.1,227.8,420.1,227.8z"/>
			</g>
			<g>
				<path class="st30" d="M430.9,232.5c-0.3,1.2-4.7,1.6-6.6,2.3c-0.6,0.6-0.5,1,0.3,0.9c1.5-0.6,6.5-1.7,6.6-2.8
					C431.2,232.7,431.1,232.5,430.9,232.5z"/>
				<path class="st30" d="M429.5,229.1c-0.4,1.2-3.7,2.2-6.2,3.1c-0.3,0.4,0.1,0.7,0.5,0.7c1-0.6,6.2-2.3,6.1-3.5
					C429.9,229.2,429.8,229.1,429.5,229.1z"/>
				<path class="st30" d="M421.5,229.9c0,0.4-0.2,0.9,0.4,0.9c0.6-0.8,5.8-3.9,5.7-4.8C425.7,227.2,423.5,228.1,421.5,229.9z"/>
				<path class="st30" d="M417.8,231c0.4,3.9,2.4,7.7,6.2,7.3c1.2,0,4.5-0.4,5.4-1.2c-2.2,0.4-5.2,0.7-7-0.1
					C420,236,419,233.6,417.8,231z"/>
			</g>
		</g>
	</g>
	<g>
		<path class="st2" d="M254.6,392.7c2.5,2.7,7.6,2.7,13.2,0.8c4.1-1.4,9.3-8.1,9.3-8.1s0.4-4-1.4-8.5h-14.1c0,0,0.1,3.3-2.8,5.9
			C255.5,385.9,252.2,390.2,254.6,392.7z"/>
		<path class="st2" d="M313.6,392.7c-2.5,2.7-7.6,2.7-13.2,0.8c-4.1-1.4-9.3-8.1-9.3-8.1s-0.4-4,1.4-8.5h14.1c0,0-0.1,3.3,2.8,5.9
			C312.8,385.9,316,390.2,313.6,392.7z"/>
		<polygon class="st2" points="256.9,300.6 259.4,379.6 278.3,379.6 283.8,313.5 290.4,379.6 309.3,379.6 311.3,301.1 		"/>
		<g>
			<path class="st2" d="M302.8,166.6c-8.2,6.7-14.1,7.5-24.4,4.6c-9.3-2.5-15.9-10.4-18.9-19.5c-1.3-6.6-2.7-25.1,10.7-32.1
				c15.4-8,32.3-2.1,37.3,6.7C312.8,135.8,312.2,158.9,302.8,166.6z"/>
			<g>
				<g>
					<path class="st20" d="M293.1,171.1c-0.1,1.8-0.5,9.5,0.1,10.2c0.5,0.6,6.3,2.6,8.3,2.9c-0.7,3.4-9.3,14.5-12.7,15.6
						c-0.2,0.1-0.4,0.1-0.6,0.1c-0.2,0-0.4-0.1-0.6-0.2c-6.7-3.9-13.8-9.5-17-16.6c0.8,0,5.5-0.6,6.1-1.7c0.6-1.4,1.1-7.6,0.6-10.2
						L293.1,171.1z"/>
				</g>
				<g class="st21">
					<path class="st22" d="M277,180.1c0.5-2.9,0.6-7.2,0.3-9l15.8,0c-0.1,1.5-0.6,7.6,0,9.9C288.5,183.3,280.9,181.6,277,180.1z"/>
				</g>
			</g>
			<g>
				<g>
					<path class="st20" d="M306.2,149.3c0.2-0.3,0.4-0.6,0.6-0.9c0.8-0.9,2.1-1.4,3.3-1.2c1.2,0.2,2.3,1,2.8,2.1
						c0.2,0.3,0.3,0.7,0.4,1.1c0.7,3.1-0.6,6.5-2.9,8.7c-0.9,0.8-2,1.5-3.2,1.6c-0.5,0-1.1-0.1-1.5-0.4c-0.4-0.3-0.6-0.7-0.8-1.2
						C304.3,157.4,304.1,152.9,306.2,149.3z"/>
				</g>
				<g class="st21">
					<path class="st22" d="M311.7,150.5c1.2,1-0.2,6.1-2,7.8c-0.7,0.7-1.6,1.2-2.5,1.2c-0.4,0-0.9-0.1-1.2-0.3
						c-0.3-0.2-0.5-0.6-0.6-0.9C304.8,157.1,308.8,148.1,311.7,150.5z"/>
				</g>
				<g>
					<g>
						<path class="st22" d="M311.2,150.6c-0.7,0.1-1.4,0.5-1.9,1c-0.6,0.5-1.2,1.1-1.7,1.8c-0.4,0.6-0.9,1.4-0.9,2.1
							c0,0.2,0,0.4,0,0.6c0,0.2-0.1,0.4-0.1,0.6c0,0.4,0,0.8,0,1.2c0,0.4,0.6,0.4,0.6,0c0-0.7-0.1-1.5,0.3-2.1
							c0.2-0.3,0.3-0.6,0.4-0.9c0.1-0.3,0.3-0.6,0.5-1c0.3-0.6,0.7-1.2,1.2-1.7c0.5-0.6,1-1.1,1.7-1.3
							C311.5,150.9,311.4,150.6,311.2,150.6L311.2,150.6z"/>
					</g>
				</g>
				<g>
					<g>
						<path class="st22" d="M308.1,154.3C308.1,154.3,308.1,154.3,308.1,154.3C308.2,154.3,308.2,154.3,308.1,154.3
							c0.1-0.1,0.1-0.1,0.2-0.1c0,0,0,0,0.1,0c0,0,0,0,0,0c0.1,0,0.1,0,0.2,0c0.1,0-0.1,0,0,0c0,0,0,0,0.1,0c0,0,0,0,0.1,0
							c-0.1,0,0,0,0,0c0,0,0,0,0.1,0c-0.1,0,0,0,0,0c0,0,0,0,0,0c0,0,0,0,0.1,0.1c0,0,0,0,0,0c0,0,0,0,0,0.1c0,0,0,0.1,0,0.1
							c0-0.1,0,0,0,0.1c0.1,0.2,0.1,0.3,0.1,0.5c0,0.2,0,0.3-0.1,0.5c-0.1,0.2-0.1,0.3-0.2,0.5c-0.1,0.2-0.2,0.4-0.4,0.5
							c0,0.1-0.1,0.1-0.2,0.2c-0.1,0.1-0.2,0.2-0.2,0.3c0,0.2,0.1,0.3,0.3,0.3c0.2,0,0.5-0.2,0.6-0.4c0.2-0.2,0.3-0.4,0.5-0.6
							c0.3-0.4,0.4-0.9,0.5-1.4c0-0.7-0.4-1.6-1.2-1.6c-0.3,0-0.7,0.2-0.9,0.4C307.3,154.2,307.8,154.6,308.1,154.3L308.1,154.3z"/>
					</g>
				</g>
			</g>
			<g>
				<path class="st20" d="M265,156.5c0,2.2,2.2,18,16.7,20.8c7.4,1.4,15.9-0.6,21.1-7.4c6.4-8.4,5.3-29.2,4.3-32.6
					c-2.4-8.1-9.7-12.9-19.1-12.5C266.5,125.6,264.7,140.2,265,156.5z"/>
			</g>
			<g>
				<g>
					<path class="st22" d="M293.8,162.6c-1.5,1-3.6,1.1-5.4,1.1c-0.9,0-1.8-0.2-2.7-0.3c-1-0.2-1.9-0.5-2.9-0.8
						c-0.4-0.1-0.6,0.4-0.3,0.6c0.9,0.5,1.9,0.8,2.8,1.1c1,0.3,2,0.5,3.1,0.5c2.1,0,3.8-0.7,5.5-1.9
						C294.2,162.9,294,162.5,293.8,162.6L293.8,162.6z"/>
				</g>
			</g>
			<path class="st23" d="M285.6,167.6c0,0.9,1.3,1.3,2.8,1.3c1.6,0,2.8-0.3,2.8-1.3c0-0.9-1.3-1-2.8-1
				C286.9,166.7,285.6,166.7,285.6,167.6z"/>
			<g>
				<path class="st2" d="M273.7,144.9c2.6-0.5,5.9-0.7,8.3-0.2c2.5,0.5,3.3-3,0.8-3.3c-3.7-0.4-6.7,0.1-9.8,1.6
					C272,143.5,272.6,145.3,273.7,144.9L273.7,144.9z"/>
			</g>
			<g>
				<path class="st2" d="M303.5,144.3c-2.6-0.4-5.9-0.4-8.3,0.2c-2.5,0.6-3.4-2.8-1-3.2c3.7-0.6,6.7-0.3,9.9,1.1
					C305.1,142.8,304.6,144.6,303.5,144.3L303.5,144.3z"/>
			</g>
			<ellipse class="st2" cx="298.9" cy="152.3" rx="1.5" ry="2.8"/>
			<ellipse class="st2" cx="277.9" cy="152.3" rx="1.5" ry="2.8"/>
			<g>
				<path class="st23" d="M289.6,152.1c-1.9,0-4.8,3.9-2.9,5.8c1.7,1.7,4.5,1.2,5.3-1C292.8,154.8,291.1,152.1,289.6,152.1z"/>
				<path class="st15" d="M290,154.5c-0.7,0-1.6,0.7-0.9,1.4c0.7,0.7,1.7,0.5,2-0.4C291.3,154.8,290.5,154.5,290,154.5z"/>
				<g>
					<g>
						<path class="st22" d="M289.8,149.9c0.3,1.5,0.8,2.9,1.3,4.3c0.2,0.5,0.5,1.1,0.6,1.7c0.1,0.5,0,1-0.1,1.5
							c-0.2,0.5-0.6,0.7-1,0.9c-0.3,0.2-0.2,0.7,0.2,0.7c1,0,1.8-1.1,2-2c0.2-0.9-0.1-1.7-0.4-2.5c-0.3-0.8-0.7-1.6-1.1-2.4
							c-0.4-0.7-0.8-1.5-1-2.3C290.1,149.5,289.7,149.6,289.8,149.9L289.8,149.9z"/>
					</g>
				</g>
				<g>
					<g>
						<path class="st22" d="M288.6,158.2c-0.2-0.4-0.5-0.7-0.9-1c0,0,0.1,0,0.1,0.1c-0.1,0-0.1-0.1-0.2-0.1c0,0-0.1,0-0.1,0
							c-0.1,0-0.2-0.1-0.3-0.1c0.1,0.1,0.2,0.2,0.3,0.3c0,0,0,0,0,0c-0.1-0.2-0.3-0.3-0.6-0.3c-0.3,0-0.4,0.2-0.5,0.5
							c0,0.2,0.1,0.5,0.3,0.6c0.2,0.1,0.5,0.1,0.7-0.1c0,0,0,0,0,0c-0.1,0.1-0.3,0.1-0.4,0.2c0.2,0,0.3,0,0.5,0c0,0-0.1,0-0.1,0
							c0,0,0.1,0,0.1,0c0,0-0.1,0-0.1,0c0.1,0,0.2,0,0.3,0.1c0,0-0.1,0-0.1,0c0.1,0,0.2,0.1,0.3,0.2c0,0,0,0,0,0c0,0,0,0,0,0
							c0,0,0,0,0.1,0.1c0,0,0,0,0,0c0,0,0,0,0,0c0,0,0,0.1,0.1,0.1c0.1,0.1,0.2,0.2,0.4,0.1C288.7,158.5,288.7,158.3,288.6,158.2
							L288.6,158.2z"/>
					</g>
				</g>
			</g>
			<path class="st2" d="M261.4,135.4c1.8-5.1,6.1-13.9,22.9-14.5c8.1-0.3,16.3,1.3,21,8.7c4.2,6.6,3.4,17.6,3.4,17.6
				c-0.2,2.9-0.8,8.1-1.5,5.4c-0.8-3.2-1.3-8.7-2-11.1c3.5-15.1-7.2-8.7-15.7-8.2c-9.5,0.5-23.5-5.1-18.8,11.8
				c-1.9,4.3-0.8,11.1-2.2,13.3c-1.2-1.2-7.4-5.4-7.8-7C259.6,146,259.6,140.4,261.4,135.4z"/>
			<circle class="st15" cx="298.9" cy="150.7" r="0.6"/>
			<circle class="st15" cx="277.8" cy="150.7" r="0.6"/>
			<g>
				<g>
					<path class="st20" d="M266.5,151.4c-1.1-1.9-3.3-3.4-5.5-3.1c-0.9,0.1-1.7,0.5-2.3,1.1c-1,1-1.5,2.5-1.4,4
						c0.1,1.5,0.6,2.8,1.3,4.1c1.3,2.4,3.6,4.5,6.3,4.5c0.9,0,1.9-0.3,2.4-1c0.2-0.4,0.3-0.8,0.4-1.3
						C268,158.8,268.6,155.1,266.5,151.4z"/>
				</g>
				<path class="st23" d="M260.4,151.8c-1.9,0-0.7,4.9,1.1,6.8c1.8,2,4.2,2.6,3.9-0.7C265.1,154.6,262.8,151.8,260.4,151.8z"/>
				<g>
					<g>
						<path class="st22" d="M260.9,151.9c0.8,0.2,1.2,0.7,1.7,1.2c0.5,0.5,0.9,1.2,1.2,1.8c0.2,0.3,0.3,0.6,0.4,0.9
							c0.1,0.3,0.2,0.7,0.4,0.9c0.1,0.2,0.2,0.3,0.2,0.5c0,0.2,0.1,0.4,0.1,0.6c0,0.4,0,0.7,0,1.1c0,0.4,0.6,0.4,0.6,0
							c0-0.4,0-0.8,0-1.2c0-0.2,0-0.4-0.1-0.6c0-0.2,0-0.4,0-0.6c0-0.4-0.2-0.8-0.3-1.1c-0.2-0.4-0.3-0.7-0.6-1
							c-0.5-0.6-1-1.2-1.6-1.7c-0.5-0.5-1.3-0.9-1.9-1C260.8,151.6,260.7,151.9,260.9,151.9L260.9,151.9z"/>
					</g>
				</g>
				<g>
					<g>
						<path class="st22" d="M264.6,154.8c-0.4-0.4-1.2-0.6-1.7-0.2c-0.3,0.3-0.4,0.7-0.5,1.1c0,0.5,0.1,0.9,0.4,1.4
							c0.1,0.2,0.3,0.5,0.5,0.7c0.1,0.1,0.2,0.2,0.3,0.3c0.1,0.1,0.3,0.2,0.4,0.2c0.2,0,0.3-0.2,0.3-0.3c0-0.1-0.1-0.2-0.1-0.2
							c-0.1-0.1-0.1-0.2-0.2-0.3c-0.1-0.1-0.2-0.3-0.3-0.4c-0.1-0.1-0.2-0.3-0.3-0.5c0-0.1-0.1-0.2-0.1-0.2c0,0,0-0.1,0-0.1
							c0,0,0,0,0-0.1c0,0,0-0.1,0,0c0-0.2,0-0.3,0-0.5c0-0.1,0-0.2,0.1-0.2c0,0.1,0,0,0,0c0,0,0-0.1,0.1-0.1c0-0.1,0,0,0,0
							c0,0,0,0,0.1-0.1c0,0-0.1,0,0,0c0,0,0.1-0.1,0,0c0,0,0,0,0,0c0,0,0.1,0,0.1,0c0,0-0.1,0,0,0c0,0,0.1,0,0.1,0c0.1,0,0,0,0,0
							c0,0,0.1,0,0.1,0c0,0,0.1,0,0.1,0c0.1,0,0,0,0,0c0,0,0.1,0.1,0.1,0.1c0.1,0,0,0,0,0c0,0,0,0,0.1,0.1
							C264.4,155.6,264.9,155.2,264.6,154.8L264.6,154.8z"/>
					</g>
				</g>
			</g>
			<g class="st16">
				<g class="st17">
					
						<ellipse transform="matrix(0.9359 -0.3522 0.3522 0.9359 -25.7157 104.5375)" class="st10" cx="274.5" cy="122.9" rx="4.7" ry="2.4"/>
				</g>
				<g class="st17">
					
						<ellipse transform="matrix(0.6962 -0.7178 0.7178 0.6962 -10.2928 230.9616)" class="st10" cx="267.7" cy="127.6" rx="2.2" ry="1.1"/>
				</g>
			</g>
		</g>
		<g>
			<path class="st35" d="M312.3,187.5c-6.6-2.1-16.7-5.4-16.7-5.4c-1,3.8-8.8,9.2-8.8,9.2s-10.2-5.5-12.1-9.2
				c-2.3-0.1-9.9,2.3-16.1,4.5c6.7,23.6,12.7,48.5,30,66.4C298.5,232,305.9,210.2,312.3,187.5z"/>
		</g>
		<g>
			<path class="st27" d="M285.3,199.6c-2.6,13.8-3.8,21.8-5.7,38.1c5.9,10.7,12.1,10,16.2-1.3c-1.7-10.5-3.8-25.9-6.5-36.6
				C288.2,199.7,287.9,200.3,285.3,199.6z"/>
		</g>
		<path class="st20" d="M246.5,279v2.6c0,0,3.6,6.8,2.8,8.8c-0.8,2-2.5,1.6-2.5,1.6s0.7,2.5-0.3,3.3s-2.6,0.3-2.6,0.3
			s-1.6,1.3-3.3-0.4c0,0-2.3,0.8-3-1.7c0,0-1.3,0.1-2.1-1.8s3.2-10.7,3.2-10.7v-2.6L246.5,279z"/>
		<g>
			<path class="st10" d="M328.4,253.6c1.1-6.6,0.5-13.8,0.4-16.6c-0.3-8.4-4.7-40.7-9.2-45.4c-2.9-3-13.9-6.6-17.1-7.6
				c-0.4,2.6-6.4,37.4-15.2,51.6c-6.8-11.5-18-49.1-18.6-52.6c-6.8,1.6-15.8,5.2-19.2,9c-3.4,3.7-6.4,22.9-10.2,45
				c-3.6,21.2-5.8,41.9-5.2,42.4c2.1,2,13.9,2.5,17.1,1.2c0.7-0.3,5.2-42.4,5.2-42.4l-3.3,76.3c23.1,11,61.7-1.8,61.7-1.8
				c-2.8-13.1-3-77.8-3-77.8c0.7-0.2,1.7,16,3,28.7C321.3,261.7,327.3,260.2,328.4,253.6z"/>
		</g>
		<path class="st33" d="M257.7,227.7c-3.4-5.4,1.3-12.1-3.4-16.9c-4,19.6-3.4,39.8-8.8,59.4c-0.7,0.7-2,2-2.7,2
			c-3.4-1.7-5.7-4.7-7.5-8.1c-1.1,8.9-1.6,15.1-1.3,15.4c2.1,2,13.9,2.5,17.1,1.2c0.7-0.3,5.2-42.4,5.2-42.4l-3.3,76.3
			c1.7,0.8,3.4,1.5,5.2,2c1.5-30.1,4-60.2,2.2-90.9C259.7,227,258.4,228.4,257.7,227.7z"/>
		<path class="st33" d="M317.4,261.3c-3.6-11.8-5.2-25.7,3.1-35c-1.3-0.7-4,1.3-4,0.7c-1.3-4.7-3.4-10.1-2.7-15.5
			c-2,2.7-3.4,5.4-3.4,8.8c-2.6,31.5,0.4,62.9-2.3,94.4c4.1-1,6.6-1.9,6.6-1.9c-2.8-13.1-3-77.8-3-77.8c0.7-0.2,1.7,16.2,3,28.8
			C315.5,262.9,316.4,262.1,317.4,261.3z"/>
		<path class="st33" d="M309.8,186.6c-1.6-0.6-3.1-1.1-4.4-1.6c-0.1,9.7,1,22.3,1,30c0,0-5.4,2.9-8.8,3.9
			c12.8,9.4-3.5,18.5-10.2,26.6c-6.4-8.2-13.8-14.4-19-21.4c0-0.7,3.1-5.3,4.5-7.8c-3.4-1.3-5.7-3.4-9-4.8
			c1.7-10.2,1.1-18.8,2.4-27.8c-1.4,0.4-2.9,0.9-4.4,1.4c-1.3,11.3-1.4,19-1.4,30.3c2.1,1.4,4.7,2.6,7.5,2.8
			c-1.1,2.4-1.6,6.7-1.6,6.7s7.2,19.6,19.6,29.5c-1,21.7-1.5,43.4-6.7,64.6c3.1-0.1,6.1-0.3,9-0.6c0.3-20.8,1.2-41.9-1.3-62.7
			c5.7-12,28-22.7,15.3-36.1c2.7-0.7,6.7-2.7,6.7-4C310,205.7,309.9,196.3,309.8,186.6z"/>
		<g>
			<path class="st36" d="M285.4,203.4c1.4,0.3,3.1,0.2,4.2-0.1c2.9-3.5,2.4-8.6,0.3-14.2c-1.6,1.3-3,2.3-3,2.3s-0.5-0.3-1.4-0.8
				C282.6,195.6,281.2,199.4,285.4,203.4z"/>
		</g>
		<g>
			<path class="st19" d="M286.9,192.9c1.9,2.5,2.9,4,4.9,6.8c3.8-5.6,6.1-10.6,7.6-16.8c-2.2-0.5-3.8-0.8-3.8-0.8
				c-1,3.8-8.8,9.2-8.8,9.2s-10.2-5.5-12.1-9.2c-0.6,0-1.6,0.1-2.8,0.3c0.4,7.2,5.8,12.8,10.6,17.9
				C284.2,196.9,285.2,195.7,286.9,192.9z"/>
		</g>
		<g>
			<g>
				<g>
					<path class="st35" d="M310,208c0.6,3.4,0.8,6.9,1,10.3c0.2,3.8,0.3,7.6,0.2,11.4c0,0.9,0,1.9-0.1,2.8c0,0.8-0.2,1.7,0,2.6
						c0.1,0.6,1,0.5,1.1,0c0.2-0.7,0.2-1.5,0.2-2.3c0-0.8,0-1.7,0-2.5c0-1.9-0.1-3.7-0.1-5.6c-0.2-3.9-0.5-7.7-1-11.5
						c-0.2-1.8-0.5-3.6-0.9-5.4C310.4,207.6,310,207.7,310,208L310,208z"/>
				</g>
			</g>
			<g>
				<g>
					<path class="st35" d="M314.4,210.4c-0.9,4.7-1.9,9.4-2.9,14c-0.2,0.7,1,1.1,1.1,0.3c0.9-4.7,1.7-9.4,2.4-14.2
						C315.1,210.1,314.5,209.9,314.4,210.4L314.4,210.4z"/>
				</g>
			</g>
			<g>
				<g>
					<path class="st35" d="M257.7,214.3c-0.9,7-1.3,14.1-1.8,21.2c-0.1,0.9-0.1,1.8-0.2,2.7c-0.1,0.7-0.3,1.6-0.2,2.3
						c0.1,0.7,1,0.9,1.2,0.2c0.2-0.6,0.2-1.4,0.3-2c0.1-0.8,0.1-1.5,0.2-2.3c0.1-1.8,0.2-3.7,0.3-5.5c0.1-3.9,0.3-7.7,0.3-11.6
						c0-1.6,0-3.3,0-4.9C257.8,214.2,257.7,214.2,257.7,214.3L257.7,214.3z"/>
				</g>
			</g>
			<g>
				<g>
					<path class="st35" d="M235.2,275c2.4,1,5.1,1.5,7.7,1.6c1.3,0,2.6,0,3.9-0.2c1.3-0.2,2.8-0.4,4-0.9c0.7-0.3,0.4-1.3-0.3-1.1
						c-1.2,0.4-2.4,0.8-3.7,1c-1.3,0.2-2.6,0.3-3.9,0.3c-2.6,0-5.1-0.5-7.6-1.3C235.1,274.4,235,274.9,235.2,275L235.2,275z"/>
				</g>
			</g>
			<g>
				<g>
					<path class="st35" d="M255,216.9c0.2,2.4,0,4.9,0,7.3c0,3,0,6,0.3,8.9c0.1,0.7,0.2,1.3,0.3,2c0.1,0.5,0.2,1.1,0.7,1.4
						c0.3,0.2,0.6,0,0.7-0.3c0.1-0.5-0.1-0.9-0.2-1.4c-0.1-0.5-0.2-1.1-0.3-1.6c-0.2-1.4-0.3-2.7-0.4-4.1c-0.2-3-0.2-5.9-0.4-8.9
						c-0.1-1.2-0.2-2.3-0.3-3.5C255.4,216.6,255,216.7,255,216.9L255,216.9z"/>
				</g>
			</g>
			<g>
				<g>
					<path class="st35" d="M266.3,184.5c-0.7,7.2-1.4,14.4-2.2,21.5c-0.2,2-0.4,3.9-0.6,5.9c0,0.2,0.1,0.5,0.3,0.6
						c2.9,1.5,5.8,3,8.7,4.4c-0.1-0.3-0.2-0.7-0.3-1c-1.5,2.4-3.1,4.8-4.4,7.4c-0.3,0.5-0.3,0.9,0,1.4c0.4,0.6,0.8,1.1,1.3,1.6
						c3.6,4.4,7.4,8.8,11.2,13c2.1,2.3,4.2,4.6,6.5,6.7c0.7,0.6,1.7-0.4,1-1c-4.2-3.9-7.9-8.3-11.7-12.6c-1.7-2-3.5-4-5.2-6.1
						c-0.5-0.6-1.1-1.3-1.6-2c0-0.1-0.1-0.1-0.1-0.2c-0.1-0.1,0,0.1,0,0c-0.1-0.1-0.1-0.2-0.2-0.3c0,0-0.1-0.1-0.1-0.1
						c0,0,0-0.1,0-0.1c0.1,0,0.1,0.5,0.1,0.5c0-0.1,0,0,0-0.1c0-0.1,0.1-0.2,0.1-0.3c0.1-0.2,0.3-0.5,0.4-0.7
						c0.4-0.7,0.8-1.4,1.2-2.1c0.9-1.5,1.8-2.9,2.6-4.4c0.2-0.3,0.1-0.8-0.3-1c-2.9-1.4-5.8-3-8.7-4.3c0.1,0.2,0.2,0.4,0.3,0.6
						c0.4-7.2,0.9-14.4,1.4-21.5c0.1-2,0.3-3.9,0.4-5.9C266.7,184.2,266.3,184.2,266.3,184.5L266.3,184.5z"/>
				</g>
			</g>
			<g>
				<g>
					<path class="st35" d="M305.4,185.8c-0.3,4.2-0.2,8.5-0.1,12.7c0.1,4.2,0.3,8.4,0.4,12.6c0,1.3,0.1,2.5-0.1,3.8
						c0.1-0.2,0.2-0.4,0.4-0.6c-2.3,1.4-5,2.4-7.4,3.5c-0.7,0.3-1.8,0.8-1.2,1.7c0.6,1.1,1.5,2,2.2,2.9c1.2,1.4,2.3,2.8,3.6,4.1
						c0-0.3-0.1-0.6-0.1-0.9c-5,6.8-10.7,12.9-16.2,19.2c-0.6,0.7,0.4,1.8,1.1,1.1c5.6-6.4,11.3-12.7,16.4-19.5
						c0.2-0.3,0.1-0.7-0.1-0.9c-1.2-1.3-2.4-2.7-3.5-4c-0.5-0.6-1-1.2-1.5-1.8c-0.1-0.2-0.3-0.4-0.4-0.6c0,0-0.1-0.2-0.1-0.2
						c-0.1,0,0.1-0.1,0,0.1c-0.1,0.2-0.1,0.7-0.3,0.7c0.1,0,0.3-0.2,0.4-0.2c0.3-0.1,0.5-0.3,0.8-0.4c0.7-0.3,1.4-0.6,2.1-1
						c1.5-0.7,3-1.3,4.4-2.1c0.2-0.1,0.6-0.3,0.8-0.5c0.2-0.2,0.2-0.5,0.2-0.8c0-0.4,0-0.8,0-1.2c0-1.3-0.1-2.7-0.2-4
						c-0.2-3.8-0.5-7.5-0.7-11.3c-0.3-4.1-0.5-8.3-0.4-12.4C305.7,185.6,305.4,185.6,305.4,185.8L305.4,185.8z"/>
				</g>
			</g>
			<g>
				<g>
					<path class="st35" d="M287,236.1c0,4.9-0.1,9.7-0.1,14.6c0.1,5.5,0.1,10.9,0.2,16.4c0.2,10.7,0.3,21.4,0.3,32.1
						c0,4.8-0.1,9.5-0.3,14.3c0,0.9,1.4,0.9,1.4,0c0.4-9.3,0.3-18.6,0.2-27.9c-0.1-11-0.4-22-0.5-33c-0.1-5.5-0.3-11-0.4-16.5
						C287.8,235.6,287,235.6,287,236.1L287,236.1z"/>
				</g>
			</g>
		</g>
		<g>
			<g>
				<path class="st26" d="M302.4,199l-1.1-0.3c1-3.5,2-13.2-1.6-16.4c-2.9-2.5-6.6-2.6-6.7-2.6l0-1.1c0.2,0,4.1,0,7.4,2.9
					C305.2,185.5,303.5,195.4,302.4,199z"/>
			</g>
			<g>
				<path class="st26" d="M295.5,232.4c-0.1-0.1-3.1-1.6-4.3-4.6c-1.3-3.3,4.2-18.4,5.4-21.2l1,0.4c-1.8,4.2-6.4,17.8-5.4,20.3
					c1.1,2.6,3.7,4,3.8,4L295.5,232.4z"/>
			</g>
			<g>
				<path class="st26" d="M303,233.2l-0.3-1.1l0.2,0.5l-0.2-0.5c0,0,2.9-0.9,4-3.7c1.1-2.8-0.5-15.1-2.1-20l1.1-0.3
					c1.5,4.6,3.4,17.4,2,20.8C306.4,232.1,303.1,233.1,303,233.2z"/>
			</g>
			<g>
				<path class="st26" d="M296.9,233.8c-0.3,0-0.5,0-0.8-0.2l-2.7-1.5c-0.7-0.4-0.9-1.2-0.5-1.9c0.4-0.7,1.2-0.9,1.9-0.5l2.7,1.5
					c0.7,0.4,0.9,1.2,0.5,1.9C297.8,233.5,297.4,233.7,296.9,233.8z"/>
			</g>
			<g>
				<path class="st26" d="M301.1,234.5c-0.6,0-1.2-0.3-1.4-0.9c-0.3-0.7,0.1-1.5,0.8-1.8l3.9-1.5c0.7-0.3,1.5,0.1,1.8,0.8
					c0.3,0.7-0.1,1.5-0.8,1.8l-3.9,1.5C301.4,234.4,301.3,234.5,301.1,234.5z"/>
			</g>
			<path class="st26" d="M303.7,200.2l0.7-5.9c0.1-0.4-0.1-0.9-0.4-1.2c-0.3-0.4-0.7-0.6-1.1-0.6c-0.9-0.1-1.8,0.6-1.9,1.5l-0.7,5.9
				c-1.9,0.7-4.4,3.3-6.4,11.1c-0.2,0.9,0.3,1.8,1.2,2c0.4,0.1,0.9,0,1.3-0.2c0.4-0.2,0.7-0.6,0.8-1c1.4-5.5,3.6-8.9,4.4-8.9
				c0.8,0.2,2.3,4.8,2.8,9.7c0.1,0.9,0.9,1.5,1.8,1.5c0,0,0.1,0,0.1,0c0.4,0,0.8-0.3,1.1-0.6c0.3-0.4,0.4-0.8,0.4-1.2
				C307.4,208.3,306.3,202.2,303.7,200.2z"/>
		</g>
		<g>
			<circle class="st26" cx="266.1" cy="216" r="3.9"/>
			<circle class="st34" cx="266.1" cy="216" r="2.1"/>
			<g>
				<path class="st26" d="M264.8,213.2c-0.2-0.5-3.3-14.8,0.9-24.4c2.8-6.4,6.7-10.4,11.5-10.8l-0.1,1.1c-4.6,0.7-7.6,4-10.3,10.1
					c-4.1,9.2-0.9,23.5-0.9,23.6L264.8,213.2z"/>
			</g>
		</g>
		<g>
			<path class="st2" d="M292.2,226.6l-7.4,48.5c-0.2,1.2,0.7,2.2,1.9,2.2l33.3,0.4c1,0,1.8-0.7,1.9-1.6l8.8-48.9
				c0.2-1.2-0.7-2.3-1.9-2.3h-34.7C293.2,224.9,292.4,225.6,292.2,226.6z"/>
			<path class="st20" d="M321.6,249c0,0-3.7-1.1-3.5-2.6c0.2-1.6,4.7-0.8,5.8-0.6c1.1,0.2,4.6,1.5,4.6,3.2s-1,2-1,2s1.2,0.8,0.8,2.1
				c-0.4,1.4-1.5,1.4-1.5,1.4s0.5,2.7-1,3.1c0,0,0.4,2-1.3,2.1c-1.7,0.1-6.3-1.5-6.5-2.4c-0.2-1,0.8-1.4,0.8-1.4s-2.9-0.3-3.1-1.9
				c-0.3-1.6,1.2-1.5,1.2-1.5s-2-0.8-1.9-2.6C315.3,248.1,321.6,249,321.6,249z"/>
		</g>
	</g>
	<g>
	</g>
	<g>
	</g>
	<g>
	</g>
	<g>
	</g>
	<g>
	</g>
	<g>
	</g>
	<g>
	</g>
	<g>
	</g>
	<g>
	</g>
	<g>
	</g>
	<g>
	</g>
	<g>
	</g>
	<g>
	</g>
	<g>
	</g>
	<g>
	</g>
</g>
</svg>
