<?xml version="1.0" encoding="utf-8"?>
<!-- Generator: Adobe Illustrator 24.1.0, SVG Export Plug-In . SVG Version: 6.00 Build 0)  -->
<svg version="1.1" id="Layer_1" xmlns="http://www.w3.org/2000/svg" xmlns:xlink="http://www.w3.org/1999/xlink" x="0px" y="0px"
	 viewBox="0 0 512 512" style="enable-background:new 0 0 512 512;" xml:space="preserve">
<style type="text/css">
	.st0{fill:#EFEFEF;}
	.st1{fill:#E5E5E9;}
	.st2{fill:#6E6E6E;}
	.st3{fill:#5A5A5A;}
	.st4{fill:#C1D7E6;}
	.st5{clip-path:url(#SVGID_2_);fill:#68737F;}
	.st6{clip-path:url(#SVGID_4_);fill:#3E8CC7;}
	.st7{clip-path:url(#SVGID_6_);fill:#D4E4F0;}
	.st8{fill:#D4E4F0;}
	.st9{fill:#68737F;}
</style>
<g>
	<path class="st0" d="M469.5,239.4V425c0,36-29.3,65.3-65.3,65.3H107.7c-36,0-65.3-29.3-65.3-65.3V239.4c0-4,1.6-7.9,4.5-10.7
		L222.1,56.5c9.3-9.2,21.6-13.8,33.9-13.8c12.3,0,24.5,4.6,33.9,13.8l175.2,172.2C467.9,231.5,469.5,235.4,469.5,239.4L469.5,239.4z
		"/>
	<path class="st1" d="M469.5,239.4V425c0,36-29.3,65.3-65.3,65.3H255.9V42.7c12.3,0,24.5,4.6,33.9,13.8l175.2,172.2
		C467.9,231.5,469.5,235.4,469.5,239.4L469.5,239.4z"/>
	<path class="st2" d="M507.7,270.6c-2.9,3-6.8,4.5-10.7,4.5c-3.8,0-7.6-1.4-10.5-4.3L268.8,56.9c-3.5-3.5-8.2-5.2-12.8-5.2
		s-9.3,1.7-12.8,5.2L25.4,270.8c-5.9,5.8-15.4,5.7-21.2-0.2c-5.8-5.9-5.7-15.4,0.2-21.2L222.1,35.5c9.3-9.2,21.6-13.8,33.9-13.8
		c12.3,0,24.5,4.6,33.9,13.8l217.7,213.9C513.4,255.2,513.5,264.7,507.7,270.6L507.7,270.6z"/>
	<path class="st3" d="M507.7,270.6c-2.9,3-6.8,4.5-10.7,4.5c-3.8,0-7.6-1.4-10.5-4.3L268.8,56.9c-3.5-3.5-8.2-5.2-12.8-5.2V21.7
		c12.3,0,24.5,4.6,33.9,13.8l217.7,213.9C513.4,255.2,513.5,264.7,507.7,270.6L507.7,270.6z"/>
</g>
<g>
	<path class="st4" d="M390.7,383.5c0,18.3-14.8,33.1-33.1,33.1c-18.3,0-33.1-14.8-33.1-33.1c0-18.3,14.8-33.1,33.1-33.1
		C375.9,350.4,390.7,365.2,390.7,383.5L390.7,383.5z"/>
	<g>
		<g>
			<defs>
				<rect id="SVGID_1_" x="116.5" y="189.7" width="279" height="274.2"/>
			</defs>
			<clipPath id="SVGID_2_">
				<use xlink:href="#SVGID_1_"  style="overflow:visible;"/>
			</clipPath>
			<path class="st5" d="M357.6,421.3c-15.3,0-29.1-9.2-34.9-23.3c-5.9-14.1-2.6-30.4,8.2-41.2c10.8-10.8,27.1-14.1,41.2-8.2
				c14.1,5.9,23.3,19.6,23.3,34.9C395.4,404.4,378.5,421.3,357.6,421.3L357.6,421.3z M357.6,355.1c-11.5,0-21.8,6.9-26.2,17.5
				c-4.4,10.6-2,22.8,6.1,30.9c8.1,8.1,20.3,10.5,30.9,6.1c10.6-4.4,17.5-14.7,17.5-26.2C386,367.8,373.3,355.1,357.6,355.1
				L357.6,355.1z"/>
		</g>
		<g>
			<defs>
				<rect id="SVGID_3_" x="116.5" y="189.7" width="279" height="274.2"/>
			</defs>
			<clipPath id="SVGID_4_">
				<use xlink:href="#SVGID_3_"  style="overflow:visible;"/>
			</clipPath>
			<path class="st6" d="M367.1,331.5v47.3h-18.9V332c0-15.7-12.9-29-28.6-28.9c-15.6,0.1-28.2,12.8-28.2,28.4v79.7
				c0,28.7-22.9,52.4-51.6,52.6c-13.9,0.1-27.2-5.3-37-15.1c-9.8-9.8-15.4-23-15.4-36.9v-72.9c0-4.4-3.1-8.3-7.4-9.2
				c-16.3-3.5-31-12-42.3-24.2l13.4-13.4c11.6,13,28.3,20.5,45.7,20.5c17.5,0,34.1-7.4,45.8-20.4l13.4,13.4
				c-11.3,12.2-26,20.7-42.3,24.2c-4.3,1-7.4,4.8-7.4,9.2v72.4c0,18.3,14.7,33.5,33,33.6c8.8,0,17.2-3.4,23.5-9.7
				c6.2-6.2,9.7-14.6,9.7-23.4v-79.8c0-26,20.7-47.6,46.7-47.9c12.6-0.1,24.8,4.8,33.8,13.6C362,306.7,367.1,318.9,367.1,331.5
				L367.1,331.5z"/>
		</g>
		<g>
			<defs>
				<rect id="SVGID_5_" x="116.5" y="189.7" width="279" height="274.2"/>
			</defs>
			<clipPath id="SVGID_6_">
				<use xlink:href="#SVGID_5_"  style="overflow:visible;"/>
			</clipPath>
			<path class="st7" d="M151.1,292.1l-13.4,13.4c-28.3-30.7-28.3-78,0-108.8l13.4,13.4C130.1,233.4,130.1,268.8,151.1,292.1
				L151.1,292.1z"/>
		</g>
	</g>
	<path class="st8" d="M277.2,251.1c0,20.2-7.6,39.6-21.3,54.4l-13.4-13.4c20.9-23.3,20.9-58.7,0-82.1l13.4-13.4
		C269.6,211.5,277.2,231,277.2,251.1L277.2,251.1z"/>
	<path class="st9" d="M159,203.8c0,7.8-6.3,14.2-14.2,14.2c-7.8,0-14.2-6.3-14.2-14.2s6.3-14.2,14.2-14.2
		C152.7,189.7,159,196,159,203.8L159,203.8z"/>
	<path class="st9" d="M263,203.8c0,7.8-6.3,14.2-14.2,14.2c-7.8,0-14.2-6.3-14.2-14.2s6.3-14.2,14.2-14.2
		C256.7,189.7,263,196,263,203.8L263,203.8z"/>
	<path class="st8" d="M371.8,383.5c0,7.8-6.3,14.2-14.2,14.2c-7.8,0-14.2-6.3-14.2-14.2c0-7.8,6.3-14.2,14.2-14.2
		C365.4,369.3,371.8,375.6,371.8,383.5L371.8,383.5z"/>
	<path class="st9" d="M357.6,402.4c-7.6,0-14.5-4.6-17.5-11.7s-1.3-15.2,4.1-20.6c5.4-5.4,13.5-7,20.6-4.1s11.7,9.8,11.7,17.5
		C376.5,393.9,368,402.4,357.6,402.4L357.6,402.4z M357.6,374c-3.8,0-7.3,2.3-8.7,5.8c-1.5,3.5-0.7,7.6,2.1,10.3
		c2.7,2.7,6.8,3.5,10.3,2.1c3.5-1.5,5.8-4.9,5.8-8.7C367.1,378.3,362.8,374,357.6,374L357.6,374z"/>
</g>
</svg>
