<?xml version="1.0" encoding="utf-8"?>
<!-- Generator: Adobe Illustrator 24.1.0, SVG Export Plug-In . SVG Version: 6.00 Build 0)  -->
<svg version="1.1" id="Layer_1" xmlns="http://www.w3.org/2000/svg" xmlns:xlink="http://www.w3.org/1999/xlink" x="0px" y="0px"
	 viewBox="0 0 500 500" style="enable-background:new 0 0 500 500;" xml:space="preserve">
<style type="text/css">
	.st0{fill:#FCCEB6;}
	.st1{fill:#19BDB9;}
	.st2{fill:#FDDCC9;}
	.st3{fill:#FDB296;}
	.st4{fill:#663D3D;}
	.st5{fill:#E55959;}
	.st6{fill:#FAA0A0;}
	.st7{fill:#FFFFFF;}
	.st8{fill:#19CFCD;}
	.st9{opacity:0.2;}
	.st10{fill:#EFF0F0;}
	.st11{fill:none;stroke:#92DAF0;stroke-width:0.75;stroke-miterlimit:10;}
	.st12{fill:#92DAF0;}
	.st13{opacity:0.7;fill:#FFFFFF;}
	.st14{fill:#919395;}
</style>
<g>
	<g>
		<polyline class="st0" points="161.7,299.3 158.7,495.1 180.1,495.1 199.3,295.5 		"/>
		<path class="st1" d="M169,483.1c-9.4,0-16.9,7.6-16.9,16.9h33.9C185.9,490.6,178.3,483.1,169,483.1z"/>
	</g>
	<g>
		<polyline class="st0" points="241.4,299.3 244.4,495.1 223,495.1 203.8,295.5 		"/>
		<path class="st1" d="M234.4,483.1c9.4,0,16.9,7.6,16.9,16.9h-33.9C217.5,490.6,225.1,483.1,234.4,483.1z"/>
	</g>
	<polygon class="st1" points="211.6,267.3 187.6,267.3 153.5,267.3 156.4,468.4 191.7,468.4 201,315.9 212.7,468.4 247.9,468.4 
		250.5,267.3 	"/>
	<path class="st2" d="M246,141.1l27.7,29.2l20.3-8.4c0,0-23.7-52-46-58.2C248,103.8,218.7,112.9,246,141.1z"/>
	<g>
		<path class="st2" d="M341.4,139.4L280.1,151c0,0-11.6,3.6-7.7,17.1c2.2,7.7,16.1,6.2,16.1,6.2c10.4-0.1,56.6-19.5,56.6-19.5
			L341.4,139.4z"/>
		<path class="st2" d="M338.9,156.8c9.4,0.7,11.6,1.3,16-2.9c3.3-3.1,5.4-9.7,5-14.6c-0.8-10-8.5-8.2-8.5-8.2s-1-4.9-6.6-2.7
			c-5.6,2.2-11.5,15.8-11.5,15.8"/>
	</g>
	<g>
		<g>
			<g>
				<g>
					<g>
						<path class="st0" d="M176.6,129.7c0.2-8.6,0.8-17.9-0.5-26.5C149.8,90.5,108.2,86,99.2,84.6l-3.8,22.5
							c0,0,55.6,22.3,80.8,30.9C176.5,134.8,176.6,131.8,176.6,129.7z"/>
					</g>
					<g>
						<g>
							<path class="st0" d="M102,39c-7.2-4.4-12.4-7.7-13.5-13c-0.8-4,3.9-9.7,7.3-12.4c7-5.6,10.8,3.5,10.8,3.5s3-6.2,5.9-1.7
								c2.9,4.5,0,17.5,0,17.5"/>
							<path class="st0" d="M113,29.5l1.4,67.4c0,0-1.7,13-16.1,11.1c-9.7-1.3-9.3-15.3-9.3-15.3c-1.8-10.6,10.7-65.9,10.7-65.9
								L113,29.5z"/>
						</g>
					</g>
				</g>
				<path class="st0" d="M107.1,16.1c2.4,3.7-0.3,9.1-5,13c-7.1,5.9-9.9,4.1-12.6,0.7c-2.7-3.4-1.3-10.9,3.6-14.7
					C97.9,11.3,102.9,9.6,107.1,16.1z"/>
			</g>
			<polygon class="st0" points="219,87.1 216.6,61.9 189.9,61.9 187.6,87.1 168.7,92.3 184.3,131.7 222.2,131.7 237.9,92.3 			"/>
			<g>
				<path class="st2" d="M232.2,53.2c0,15.1-13,27.3-29,27.3c-16,0-29-12.2-29-27.3c0-38.1,13-39.3,29-39.3
					C219.3,13.9,232.2,16.3,232.2,53.2z"/>
				<path class="st2" d="M226.2,48.9c0,4.7,2.7,8.5,6,8.5c3.3,0,6-3.8,6-8.5c0-4.7-2.7-8.5-6-8.5C228.9,40.4,226.2,44.2,226.2,48.9"
					/>
				<path class="st2" d="M168.7,48.9c0,4.7,2.7,8.5,6,8.5c3.3,0,6-3.8,6-8.5c0-4.7-2.7-8.5-6-8.5C171.4,40.4,168.7,44.2,168.7,48.9"
					/>
			</g>
			<g>
				<g>
					<g>
						<path class="st3" d="M207.4,58.2c0,1-1.5,1.8-3.4,1.8c-1.9,0-3.4-0.8-3.4-1.8c0-1,1.5-1.8,3.4-1.8
							C205.8,56.4,207.4,57.2,207.4,58.2z"/>
					</g>
				</g>
				<g>
					<path class="st4" d="M189.1,50.1c0,1.9,1.2,0.1,2.6,0.1c1.4,0,2.6,1.8,2.6-0.1c0-1.9-1.2-3.4-2.6-3.4
						C190.2,46.6,189.1,48.2,189.1,50.1z"/>
				</g>
				<g>
					<path class="st4" d="M213.6,50.1c0,1.9,1.2,0.1,2.6,0.1c1.4,0,2.6,1.8,2.6-0.1c0-1.9-1.2-3.4-2.6-3.4
						C214.8,46.6,213.6,48.2,213.6,50.1z"/>
				</g>
			</g>
			<g>
				<g>
					<path class="st5" d="M215,66.4c0,4.8-5.2,8.7-11.6,8.7c-6.4,0-11.5-3.9-11.5-8.7c0-4.8,5.2,0.4,11.5,0.4
						C209.8,66.8,215,61.6,215,66.4z"/>
				</g>
				<path class="st6" d="M203.4,71c-2.9,0-5.5,0.8-7.5,2.1c2,1.3,4.6,2.1,7.5,2.1c2.9,0,5.5-0.8,7.5-2.1
					C208.9,71.7,206.3,71,203.4,71z"/>
				<path class="st7" d="M203.4,66.8c-3.7,0-7.1-1.8-9.2-2.3c1.8,3.4,5.2,3.8,9.2,3.8c4,0,7.4-0.4,9.2-3.8
					C210.5,65,207.2,66.8,203.4,66.8z"/>
			</g>
			<path class="st8" d="M250.5,212.9l-0.4-72.8l5.4-47.6c0,0-14.1-2.5-32.4-4.9L203.3,103l-19.9-15.4c-16.7-0.4-33.3,5.5-33.3,5.5
				l6.3,47.1l-0.4,72.8c0,0-6.7,68.2-6,66.9h106.4C257.2,281.1,250.5,212.9,250.5,212.9z"/>
			<polyline class="st8" points="163.1,89.8 130.3,88.5 138,132.7 186,141.1 			"/>
			<polyline class="st8" points="244.9,147.4 256.8,165.9 286,130.2 255.6,92.5 			"/>
		</g>
	</g>
	<g>
		<g>
			<path class="st7" d="M224.9,75.2c0,0-7.7,3-21,3c-13.3,0-21.1-3-21.1-3V54.3c0,0,11.1,1.1,21,1.1c9.9,0,21.1-1.1,21.1-1.1V75.2z"
				/>
			<path class="st7" d="M232.4,46.5c-3.5,4.7-9.2,8.8-9.2,8.8l1.1,1.7c2.6-1.6,6-5.4,8.1-7.8C232.3,48.3,232.4,47.4,232.4,46.5z"/>
		</g>
		<path class="st7" d="M232.3,55.1c-0.5,2.1-2.4,9.4-9,18.1l0.8,1.8c4.1-3.7,7.5-13.6,8.8-17.6C232.4,56.8,232.3,55.8,232.3,55.1z"
			/>
		<path class="st7" d="M174.3,46.5c3.5,4.7,10,8.8,10,8.8l-1.1,1.7c-2.6-1.6-6.7-5.4-8.8-7.8C174.3,48.3,174.3,47.4,174.3,46.5z"/>
		<path class="st7" d="M175.1,55.1c0.5,2.1,2.4,9.4,9,18.1l-0.8,1.8c-4.1-3.7-7.5-13.6-8.8-17.6C175,56.8,175.1,55.8,175.1,55.1z"/>
	</g>
	<g>
		<path class="st4" d="M203.2,30.5c4,0.1,8.7-0.2,13.9-1.2c16.8-3.4,14.8,22.3,14.8,22.3c6.6-21,2.7-32.1,2.7-32.1
			c-1.1-3.1-2.2-5.5-4.1-8.2C224.3,2.3,213.3-0.2,203.2,0c-10.1-0.2-21.1,2.3-27.2,11.2c-1.9,2.7-3,5.1-4.1,8.2
			c0,0-3.9,11.1,2.7,32.1c0,0-2-25.7,14.8-22.3C194.5,30.3,199.2,30.6,203.2,30.5z"/>
		<g class="st9">
			<path class="st7" d="M235.3,23c-1.1,2.4-3.6,6.8-8,9.1c5.6,6.2,4.5,19.4,4.5,19.4C236.2,37.4,235.9,27.8,235.3,23z"/>
			<path class="st7" d="M170.9,25.5c-0.4,5.3,0,14.1,3.7,26.1c0,0-1-12.5,4.1-18.9C175,31.2,172.4,28.1,170.9,25.5z"/>
		</g>
	</g>
	<g>
		
			<rect x="322.2" y="148.8" transform="matrix(0.9501 -0.3119 0.3119 0.9501 -30.067 111.1267)" class="st7" width="20.5" height="1.6"/>
		<g>
			
				<rect x="335.2" y="143.4" transform="matrix(0.9565 -0.2917 0.2917 0.9565 -28.4863 104.9491)" class="st10" width="5" height="9.1"/>
			
				<rect x="326.4" y="146.4" transform="matrix(0.9564 -0.292 0.292 0.9564 -29.7529 102.6164)" class="st10" width="5" height="9.1"/>
		</g>
	</g>
	<path class="st11" d="M324.4,93.3v164.1c0,0,2.7,124-17.2,104.1c-19.9-19.9-23.9-194.2,15.4-208.8"/>
	<g>
		<g>
			<g>
				<g>
					<path class="st10" d="M323.6,46.9c-2.7,0-4.7-4.6-4.7-10.6c0-6.1,2-10.6,4.7-10.6c2.7,0,4.7,4.6,4.7,10.6
						C328.3,42.3,326.3,46.9,323.6,46.9z M323.6,27c-1.6,0-3.3,4-3.3,9.3c0,5.3,1.8,9.3,3.3,9.3c1.6,0,3.3-4,3.3-9.3
						C327,30.9,325.2,27,323.6,27z"/>
				</g>
				<g>
					<path class="st10" d="M342,86.6c0,3.1-2.5,5.7-5.6,5.7h-23.8c-3.1,0-5.7-2.5-5.7-5.7V47c0-3.1,2.5-5.7,5.7-5.7h23.8
						c3.1,0,5.6,2.5,5.6,5.7V86.6z"/>
					<path class="st10" d="M327.8,95.3c0,0.6-0.5,1.1-1.1,1.1h-4.5c-0.6,0-1.1-0.5-1.1-1.1v-4c0-0.6,0.5-1.1,1.1-1.1h4.5
						c0.6,0,1.1,0.5,1.1,1.1V95.3z"/>
					<path class="st12" d="M308.2,60.9v24c0,2.9,2.3,5.2,5.2,5.2h22c2.9,0,5.2-2.3,5.2-5.2v-24H308.2z"/>
					<rect x="313.1" y="41.4" class="st13" width="8.9" height="50.9"/>
				</g>
			</g>
			<g>
				<rect x="363.9" y="18.7" class="st10" width="5" height="460.9"/>
				<rect x="363.9" y="197.8" class="st14" width="5" height="102.8"/>
				<rect x="363.9" y="452.4" class="st14" width="5" height="27.2"/>
				<path class="st10" d="M413.6,26.5c-4.5,6.7-8.1-3.9-8.5-6.6c-0.3-2.1-1.4-4-3.3-5.1c-2.4-1.4-6.6-0.7-9.2-0.8
					c-8.3,0-16.5-0.1-24.8-0.1c0,0-0.1,0-0.1,0c-0.3,0-0.5,0-0.8,0c-0.3,0-0.5,0-0.8,0c0,0-0.1,0-0.1,0c-8.3,0-16.5,0.1-24.8,0.1
					c-2.6,0-6.8-0.6-9.2,0.8c-1.9,1.1-3,3-3.3,5.1c-0.4,2.7-4,13.3-8.5,6.6c-2.4-3.7-8.4-0.2-5.9,3.5c3.7,5.6,10.3,6.7,15.7,2.5
					c3.1-2.5,4.6-5.3,5.2-9.2c0.4-2.6-0.2-2.3,2.4-2.3c9.8-0.1,19.6-0.1,29.4-0.2c9.8,0,19.6,0.1,29.4,0.2c2.6,0,2-0.3,2.4,2.3
					c0.6,3.9,2,6.8,5.2,9.2c5.4,4.3,12,3.1,15.7-2.5C422,26.3,416.1,22.8,413.6,26.5z"/>
			</g>
		</g>
		<rect x="333.8" y="475" class="st14" width="66.2" height="6.9"/>
		<g>
			<rect x="364.5" y="476.7" class="st14" width="4.8" height="12.2"/>
			<path class="st14" d="M371.6,488.9c0,2.6-2.1,4.7-4.7,4.7c-2.6,0-4.7-2.1-4.7-4.7c0-2.6,2.1-4.7,4.7-4.7
				C369.5,484.2,371.6,486.3,371.6,488.9z"/>
		</g>
		<g>
			<rect x="333.8" y="476.7" class="st14" width="4.8" height="12.2"/>
			<path class="st14" d="M340.9,488.9c0,2.6-2.1,4.7-4.7,4.7c-2.6,0-4.7-2.1-4.7-4.7c0-2.6,2.1-4.7,4.7-4.7
				C338.8,484.2,340.9,486.3,340.9,488.9z"/>
		</g>
		<g>
			<rect x="395.1" y="476.7" class="st14" width="4.8" height="12.2"/>
			<path class="st14" d="M402.3,488.9c0,2.6-2.1,4.7-4.7,4.7c-2.6,0-4.7-2.1-4.7-4.7c0-2.6,2.1-4.7,4.7-4.7
				C400.2,484.2,402.3,486.3,402.3,488.9z"/>
		</g>
	</g>
</g>
<g>
</g>
<g>
</g>
<g>
</g>
<g>
</g>
<g>
</g>
<g>
</g>
<g>
</g>
<g>
</g>
<g>
</g>
<g>
</g>
<g>
</g>
<g>
</g>
<g>
</g>
<g>
</g>
<g>
</g>
</svg>
